<?xml version="1.0" standalone="no"?>
<!DOCTYPE svg PUBLIC "-//W3C//DTD SVG 20010904//EN"
 "http://www.w3.org/TR/2001/REC-SVG-20010904/DTD/svg10.dtd">
<svg version="1.0" xmlns="http://www.w3.org/2000/svg"
 width="1024.000000pt" height="1024.000000pt" viewBox="0 0 1024.000000 1024.000000"
 preserveAspectRatio="xMidYMid meet">
<metadata>
Created by potrace 1.16, written by Peter Selinger 2001-2019
</metadata>
<g transform="translate(0.000000,1024.000000) scale(0.100000,-0.100000)"
fill="#000000" stroke="none">
<path d="M5165 9080 c-584 -101 -1174 -470 -1514 -945 -143 -200 -275 -456
-317 -614 -9 -36 -21 -71 -26 -77 -8 -12 -37 -8 -288 42 -355 71 -586 103
-894 126 -115 8 -170 16 -173 24 -2 7 -1 138 4 291 l8 278 90 3 c76 2 112 -3
227 -32 76 -19 188 -56 250 -82 62 -26 134 -49 159 -51 42 -4 48 -2 72 27 15
17 27 43 27 57 0 32 -92 206 -173 328 -135 203 -353 370 -582 445 -38 13 -81
31 -95 41 -23 17 -55 18 -347 20 l-322 2 -47 -31 c-45 -29 -48 -30 -93 -17
-30 9 -126 14 -280 17 l-235 3 -16 -30 c-15 -27 -16 -65 -12 -350 l4 -319 34
-34 c29 -29 39 -33 66 -28 18 3 95 11 172 16 78 6 188 17 246 26 79 12 112 14
133 5 l27 -11 3 -327 c4 -572 7 -515 -31 -561 -67 -85 -71 -155 -13 -266 l40
-74 6 -474 c8 -540 4 -513 98 -612 69 -72 140 -99 257 -99 107 -1 159 21 234
96 87 87 83 69 92 455 4 188 9 342 10 342 2 0 25 -15 51 -34 27 -18 155 -97
286 -174 221 -131 345 -214 557 -372 116 -85 304 -249 324 -282 9 -14 16 -47
16 -73 l0 -48 93 7 c95 8 290 31 345 42 l32 7 0 -111 0 -111 -157 6 c-87 3
-194 3 -237 -2 l-79 -7 6 -177 c7 -206 14 -233 54 -225 48 9 408 41 416 37 4
-2 7 -51 7 -109 l0 -104 -27 0 c-16 0 -86 5 -158 11 -72 7 -160 9 -197 5 l-68
-8 0 -61 c0 -81 14 -172 50 -337 16 -74 40 -194 54 -265 52 -270 177 -615 294
-810 48 -79 194 -287 247 -350 110 -131 135 -165 121 -165 -8 0 -50 -14 -93
-30 -43 -17 -109 -43 -148 -58 -106 -41 -331 -157 -400 -207 -143 -102 -234
-237 -243 -364 -5 -79 13 -128 70 -188 93 -97 403 -162 703 -148 434 21 1112
167 1365 295 32 16 59 27 61 25 3 -2 69 -9 149 -16 110 -9 173 -9 259 0 63 6
119 7 125 3 64 -49 610 -203 926 -261 213 -39 335 -51 534 -51 230 0 438 35
547 91 162 82 201 238 107 423 -63 123 -281 280 -524 377 -68 26 -233 104
-243 114 -2 2 17 28 41 57 94 113 182 241 258 378 161 289 288 691 320 1010 7
63 25 205 41 315 35 242 36 268 8 296 -25 25 -40 24 -254 -16 -227 -41 -409
-60 -676 -71 l-176 -7 -6 78 c-4 43 -7 93 -7 110 l0 32 83 8 c45 4 195 7 332
6 281 -1 449 9 613 35 l111 18 6 40 c4 23 5 87 3 144 l-3 103 40 10 c22 5 65
18 95 29 30 11 89 28 130 39 904 233 1197 322 1409 428 261 131 307 261 137
392 -82 64 -304 194 -476 280 -341 170 -1009 407 -1280 455 l-125 22 -3 47
c-2 26 1 47 5 47 4 0 42 -12 83 -26 101 -34 231 -42 320 -19 102 26 214 86
355 190 174 128 199 160 157 199 -21 19 -218 88 -319 112 -82 20 -255 22 -335
5 -54 -12 -213 -75 -257 -103 -11 -7 -23 -9 -27 -5 -16 16 25 63 94 109 172
112 257 202 308 329 42 102 124 350 124 373 0 12 -9 32 -20 44 -30 31 -78 28
-217 -14 -292 -88 -426 -182 -516 -363 -26 -50 -49 -107 -53 -126 -3 -20 -10
-37 -14 -40 -4 -2 -31 33 -61 78 -127 193 -373 462 -534 584 -296 223 -635
389 -938 458 -214 49 -597 61 -802 25z m105 -195 c15 -8 38 -27 49 -41 75 -95
-75 -213 -204 -160 -113 48 -42 214 93 216 18 0 46 -7 62 -15z m-3260 -179
c144 -66 260 -145 357 -242 109 -110 123 -136 46 -87 -32 20 -78 51 -103 69
-74 53 -228 125 -304 141 -54 12 -140 16 -360 17 l-289 1 -11 -39 c-22 -77
-109 -100 -138 -35 -7 16 -20 29 -28 29 -8 0 -55 5 -105 10 -49 5 -104 7 -121
4 -29 -5 -31 -10 -44 -72 -8 -37 -13 -70 -12 -74 1 -5 -24 -8 -57 -8 l-59 0
-4 62 c-3 34 -2 108 0 166 l5 103 141 -8 c206 -12 293 -10 308 5 10 11 79 13
343 10 l330 -3 105 -49z m2748 -42 c23 -24 32 -43 32 -67 0 -83 -84 -154 -169
-143 -60 8 -88 28 -102 75 -10 35 -9 45 11 86 47 97 159 121 228 49z m3262
-459 c0 -22 -38 -70 -90 -115 -34 -30 -86 -86 -115 -125 -46 -63 -100 -115
-119 -115 -14 0 -5 73 16 127 26 71 106 154 193 200 53 29 115 43 115 28z
m-6285 -394 l0 -385 -55 -44 c-30 -25 -65 -61 -78 -81 -52 -81 -9 -218 122
-399 l68 -92 -21 -43 c-35 -71 -41 -138 -41 -422 0 -311 2 -304 -87 -312 -62
-5 -133 30 -146 73 -9 33 -20 1297 -17 2050 l0 42 128 -2 127 -1 0 -384z
m4737 363 c248 -47 447 -212 579 -479 42 -86 87 -243 95 -340 6 -57 3 -65 -40
-150 -84 -164 -387 -524 -780 -923 -156 -159 -207 -186 -447 -236 -225 -48
-365 -59 -654 -53 -233 5 -419 22 -595 52 -116 20 -375 105 -429 140 -61 41
-145 143 -270 330 -180 268 -293 490 -347 678 -80 276 29 632 249 818 165 139
373 197 554 154 172 -40 343 -157 474 -321 53 -67 133 -219 163 -311 10 -29
21 -55 25 -57 4 -3 25 1 47 9 69 25 295 13 332 -17 17 -14 25 -3 49 67 26 74
108 230 157 299 102 142 249 254 413 312 150 54 254 61 425 28z m1144 -660
c45 -117 -19 -255 -304 -654 -41 -58 -96 -129 -121 -159 -25 -30 -85 -106
-133 -169 -48 -63 -171 -206 -273 -318 -208 -227 -199 -221 -340 -225 -44 -1
-87 -7 -95 -13 -35 -26 92 125 203 241 271 283 403 441 683 818 172 231 239
336 297 457 45 97 53 99 83 22z m718 34 c17 -9 16 -12 -10 -39 -56 -58 -299
-110 -374 -79 -17 7 -29 18 -27 24 2 6 26 23 53 38 115 65 289 92 358 56z
m-4940 -405 c106 -309 283 -634 532 -978 40 -55 86 -118 101 -140 24 -34 36
-41 88 -53 123 -27 182 -46 270 -88 169 -80 318 -101 800 -110 486 -9 583 1
834 90 40 14 116 31 170 37 53 6 103 18 112 25 18 16 69 19 69 3 0 -5 5 -7 10
-4 6 3 10 1 10 -5 0 -6 17 -34 39 -63 79 -106 75 -81 82 -487 4 -201 7 -635 8
-965 1 -596 1 -600 -20 -635 -100 -164 -253 -251 -484 -278 -195 -23 -231 -24
-249 -7 -9 9 -16 20 -16 25 0 17 -33 19 -104 4 -119 -24 -274 -31 -561 -22
-562 16 -798 47 -953 124 -126 64 -234 196 -252 311 -11 65 -12 1282 -2 1633
7 212 8 227 30 257 38 53 30 89 -31 148 -66 62 -98 104 -175 225 -163 260
-301 539 -372 754 -40 121 -42 133 -36 205 8 85 25 161 36 161 4 0 33 -75 64
-167z m802 -4455 c90 -39 161 -75 157 -79 -13 -12 -116 -43 -293 -89 -91 -23
-237 -62 -325 -86 -250 -68 -335 -86 -371 -80 -44 9 -37 29 34 99 58 57 176
134 292 189 102 49 282 116 313 117 16 1 102 -31 193 -71z"/>
<path d="M4031 7773 c-129 -46 -201 -243 -137 -379 63 -136 179 -192 318 -154
145 41 229 200 184 352 -19 67 -91 152 -151 179 -50 23 -152 24 -214 2z m93
-84 c58 -46 17 -134 -60 -127 -77 6 -86 94 -14 130 43 22 42 22 74 -3z"/>
<path d="M6290 7781 c-123 -38 -197 -148 -187 -281 13 -202 207 -328 374 -244
104 51 165 149 165 263 0 116 -45 191 -143 240 -50 25 -74 31 -123 30 -34 0
-72 -4 -86 -8z"/>
<path d="M5165 7423 c-116 -16 -470 -157 -592 -236 -111 -71 -158 -155 -138
-247 9 -42 63 -94 133 -129 63 -31 305 -117 510 -181 l134 -42 96 22 c110 25
276 84 401 141 96 45 197 117 264 188 42 45 47 55 47 96 0 25 -6 58 -14 74
-60 116 -415 269 -719 310 -43 6 -81 10 -85 10 -4 -1 -20 -4 -37 -6z m205
-237 c193 -43 340 -93 340 -116 0 -4 -24 -10 -52 -13 -29 -3 -116 -12 -193
-21 -235 -26 -513 -47 -650 -49 -115 -2 -130 0 -133 15 -7 33 156 110 358 169
58 17 110 35 115 40 14 14 67 8 215 -25z"/>
<path d="M4125 5784 c-102 -56 -139 -146 -96 -239 39 -84 116 -125 195 -104
55 15 83 36 111 83 31 53 40 106 26 149 -29 86 -164 150 -236 111z"/>
<path d="M6087 5750 c-70 -64 -87 -108 -68 -178 15 -57 51 -106 93 -128 65
-34 168 0 214 71 52 80 6 213 -90 259 -73 35 -87 32 -149 -24z"/>
<path d="M4543 5319 c-18 -22 -24 -234 -15 -484 9 -265 9 -265 114 -386 143
-167 357 -269 562 -269 137 0 325 75 432 173 64 58 139 167 164 239 28 82 37
402 15 572 -21 173 -20 171 -104 160 -70 -9 -644 -8 -966 2 -154 5 -193 3
-202 -7z m1053 -233 c1 0 -2 -23 -6 -51 -5 -27 -9 -104 -10 -170 -1 -174 -21
-240 -104 -332 -84 -93 -240 -139 -371 -108 -165 38 -304 160 -338 296 -9 35
-21 125 -27 199 -6 74 -13 145 -16 157 l-6 22 439 -6 c241 -3 439 -6 439 -7z"/>
<path d="M1443 5430 c-54 -33 -57 -45 -49 -255 3 -104 11 -206 16 -226 32
-116 173 -111 200 7 5 21 10 125 10 229 0 212 -3 225 -66 251 -45 19 -73 18
-111 -6z"/>
<path d="M965 5061 c-46 -27 -68 -67 -61 -106 11 -57 211 -231 279 -242 30 -4
40 0 72 29 48 43 44 61 -26 155 -96 126 -163 183 -216 183 -10 0 -32 -8 -48
-19z"/>
<path d="M1935 5056 c-58 -25 -178 -184 -191 -253 -8 -42 22 -80 72 -89 48 -9
65 0 160 86 130 117 161 181 112 228 -45 41 -100 51 -153 28z"/>
<path d="M1158 4523 l-608 -3 -23 -38 c-13 -20 -36 -66 -52 -102 l-28 -64 6
-216 6 -215 29 -26 c19 -17 54 -32 100 -42 84 -19 140 -46 200 -95 104 -84
132 -135 139 -256 7 -101 -8 -156 -54 -207 -36 -40 -84 -60 -183 -74 -92 -14
-104 -32 -183 -291 l-55 -181 -3 -182 -4 -183 28 -24 28 -24 295 0 296 0 26
28 c15 15 39 51 54 79 18 33 42 61 74 82 77 51 142 66 284 66 213 0 295 -35
354 -154 20 -38 46 -77 58 -85 19 -14 64 -16 301 -16 l279 0 30 30 30 31 -4
187 c-4 167 -8 207 -43 377 -21 105 -42 202 -47 217 -12 31 -38 43 -138 58
-41 7 -96 21 -122 32 -87 37 -161 145 -144 211 3 14 29 50 57 81 57 63 74 69
219 86 201 24 306 70 463 204 105 91 251 279 308 399 33 71 35 87 14 127 -32
61 -23 60 -437 60 l-378 0 -37 58 c-20 31 -41 60 -47 64 -6 4 -117 7 -246 5
-129 -1 -508 -3 -842 -4z m987 -175 c1 -2 5 -28 8 -59 l5 -56 -81 -7 c-108 -8
-1078 -8 -1280 1 l-158 6 7 56 c4 31 10 58 14 61 8 5 1480 3 1485 -2z m765
-135 c0 -16 -159 -93 -230 -112 -59 -17 -104 -21 -213 -21 l-138 0 3 70 2 70
288 0 c158 0 288 -3 288 -7z m-1767 -661 c95 -90 92 -416 -6 -581 -42 -71
-134 -169 -200 -214 -50 -35 -56 -37 -170 -43 l-118 -7 6 24 c32 132 27 123
69 131 56 12 200 102 240 151 43 54 58 84 89 182 29 91 35 175 22 314 l-8 93
24 -12 c13 -7 36 -24 52 -38z m776 -226 c6 -8 21 -47 32 -87 25 -92 67 -165
127 -226 61 -61 164 -127 232 -149 30 -9 56 -18 57 -18 0 -1 4 -32 8 -69 l8
-69 -120 4 -120 3 -102 94 c-105 97 -179 195 -207 272 -24 71 -30 189 -10 227
14 26 22 32 50 32 18 0 39 -6 45 -14z"/>
</g>
</svg>
