<?xml version="1.0" standalone="no"?>
<!DOCTYPE svg PUBLIC "-//W3C//DTD SVG 20010904//EN"
 "http://www.w3.org/TR/2001/REC-SVG-20010904/DTD/svg10.dtd">
<svg version="1.0" xmlns="http://www.w3.org/2000/svg"
 width="1024.000000pt" height="1024.000000pt" viewBox="0 0 1024.000000 1024.000000"
 preserveAspectRatio="xMidYMid meet">

<g transform="translate(0.000000,1024.000000) scale(0.100000,-0.100000)"
fill="#000000" stroke="none">
<path d="M4766 9279 c-123 -17 -254 -47 -369 -84 -117 -38 -398 -171 -405
-192 -2 -7 9 -15 25 -19 64 -15 153 -75 219 -149 l67 -75 161 0 160 0 76 78
c125 128 264 187 475 198 154 9 354 -9 443 -39 136 -47 266 -139 338 -239 l19
-27 242 -3 c277 -3 265 -12 138 92 -281 228 -643 389 -1005 445 -117 18 -490
27 -584 14z"/>
<path d="M5080 8924 c-14 -3 -58 -16 -99 -31 -95 -34 -193 -121 -243 -219
l-33 -64 -45 7 c-59 10 -310 10 -377 0 -49 -7 -53 -6 -53 13 0 38 -38 96 -92
141 -82 70 -112 88 -190 117 -71 26 -79 27 -293 27 -198 0 -227 -2 -293 -22
-81 -24 -150 -64 -198 -115 -103 -108 -157 -268 -134 -402 30 -184 168 -322
377 -377 104 -28 341 -30 453 -5 176 40 334 153 391 280 18 43 19 43 88 55 85
14 154 14 246 1 99 -15 100 -15 133 -73 57 -101 177 -197 295 -236 99 -33 200
-44 352 -39 115 4 154 10 220 32 94 30 184 87 240 151 l40 46 425 6 c549 8
693 -7 702 -69 3 -20 9 -23 43 -23 33 0 43 5 62 34 46 68 24 268 -42 376 l-36
60 -557 5 -557 5 -27 49 c-63 118 -157 196 -293 242 -76 26 -91 28 -280 30
-110 1 -211 0 -225 -2z m459 -151 c141 -47 261 -202 261 -337 0 -192 -223
-327 -515 -312 -60 3 -135 10 -165 17 -130 28 -257 123 -295 222 -37 97 2 228
97 327 66 68 108 82 303 95 183 13 245 11 314 -12z m-1608 -30 c108 -53 159
-106 190 -200 34 -102 13 -202 -59 -284 -36 -42 -163 -104 -241 -119 -78 -15
-267 -12 -356 5 -130 25 -249 113 -281 207 -33 101 -2 236 74 317 88 94 184
121 417 118 l170 -2 86 -42z m2198 -302 c24 -15 -21 -31 -87 -31 -56 0 -92 16
-75 33 10 10 146 8 162 -2z m659 -15 c8 -5 9 -13 2 -26 -18 -34 -278 -58 -308
-28 -13 13 -16 50 -4 62 9 10 294 2 310 -8z"/>
<path d="M5086 8696 c-135 -51 -208 -214 -145 -326 32 -57 110 -108 184 -120
80 -13 302 -13 365 1 66 14 139 64 167 114 64 113 -9 261 -157 316 -74 28
-353 38 -414 15z m143 -95 c11 -20 -2 -44 -52 -98 -37 -39 -61 -42 -83 -8 -21
33 -12 57 43 104 48 43 70 43 92 2z m257 6 c25 -22 26 -25 13 -49 -15 -29
-234 -239 -267 -257 -11 -6 -32 -11 -45 -11 -26 0 -55 25 -43 38 45 49 303
302 308 302 4 0 19 -10 34 -23z"/>
<path d="M3490 8700 c-141 -27 -244 -172 -211 -297 34 -125 147 -169 414 -161
154 4 198 16 263 71 37 31 74 104 74 145 0 43 -47 128 -93 168 -71 61 -105 71
-267 76 -80 3 -161 2 -180 -2z m61 -102 c26 -32 24 -42 -19 -88 -40 -41 -67
-49 -103 -30 -30 17 -23 46 24 95 49 50 70 55 98 23z m268 -2 c31 -33 22 -55
-42 -108 -28 -24 -87 -76 -131 -116 -82 -77 -116 -97 -147 -87 -37 12 -23 55
33 104 29 25 96 88 148 138 52 51 100 93 106 93 6 0 21 -11 33 -24z"/>
<path d="M7173 8619 c68 -154 80 -196 86 -304 l6 -110 413 0 414 0 -5 37 c-3
20 -19 57 -36 81 -60 88 -59 110 11 199 16 21 30 50 31 65 l2 28 -440 1 c-242
1 -451 4 -464 9 -18 6 -23 4 -18 -6z"/>
<path d="M4348 8183 c-9 -16 -38 -49 -64 -75 l-47 -48 247 0 247 0 -67 75 -67
75 -117 0 c-116 0 -116 0 -132 -27z"/>
<path d="M7232 8062 c-18 -24 -46 -43 -72 -52 -37 -12 -41 -16 -36 -39 3 -14
9 -87 12 -163 l7 -136 28 -6 c39 -8 896 -9 909 -1 20 13 9 52 -35 124 -25 40
-45 80 -45 88 0 18 14 45 55 108 18 28 36 59 39 71 l6 21 -397 -1 c-295 -1
-403 2 -419 11 -19 11 -25 8 -52 -25z"/>
<path d="M5887 8045 c-35 -44 -129 -96 -236 -130 l-83 -27 178 -94 c228 -120
339 -200 489 -349 169 -168 285 -352 391 -617 25 -62 61 -138 80 -170 35 -57
36 -60 24 -108 -7 -28 -17 -51 -23 -51 -59 -6 -91 31 -171 196 -41 82 -103
211 -139 285 -37 74 -90 167 -119 205 -101 136 -343 357 -456 418 -92 49 -92
39 5 -60 153 -158 208 -248 277 -458 85 -261 106 -417 106 -785 0 -154 3 -280
6 -280 10 0 123 70 218 134 48 34 129 89 178 123 88 60 298 234 389 323 58 56
61 75 62 375 0 257 -22 500 -59 660 -14 61 -34 146 -44 190 -10 44 -26 100
-34 124 -9 24 -16 54 -16 66 0 12 -6 27 -12 33 -15 12 -496 32 -782 32 l-201
0 -28 -35z"/>
<path d="M3084 7969 c-65 -130 -144 -367 -169 -509 -16 -92 -45 -343 -45 -392
0 -16 4 -28 9 -28 5 0 41 53 81 117 102 166 170 253 290 373 110 110 212 189
358 278 l87 54 -63 -6 c-74 -7 -190 8 -276 35 -55 17 -167 75 -223 115 -21 15
-23 14 -49 -37z"/>
<path d="M4560 7923 c-105 -5 -257 -23 -368 -44 -93 -18 -252 -76 -323 -119
-25 -14 -22 -15 60 -15 155 0 271 -55 411 -195 67 -67 95 -104 130 -172 l45
-88 48 -2 c106 -4 97 -8 120 52 51 140 170 268 323 347 117 61 202 83 325 86
49 1 89 3 89 5 0 13 -125 49 -284 82 -105 21 -218 46 -251 54 -56 15 -142 18
-325 9z"/>
<path d="M3555 7607 c-65 -33 -100 -61 -189 -151 -128 -130 -200 -223 -281
-364 -33 -56 -89 -148 -125 -205 l-65 -102 1 -75 c1 -104 42 -177 173 -308 46
-47 171 -142 184 -142 4 0 5 134 4 298 -2 244 1 313 15 387 27 140 65 262 114
365 50 104 81 147 193 263 41 42 70 77 65 76 -5 -1 -45 -19 -89 -42z"/>
<path d="M3818 7470 c-92 -28 -138 -88 -138 -178 0 -54 4 -65 30 -96 19 -21
43 -36 66 -41 36 -6 172 10 211 25 61 25 71 150 17 218 -47 58 -129 90 -186
72z"/>
<path d="M5305 7463 c-103 -54 -144 -157 -92 -234 37 -56 77 -70 189 -67 86 3
99 6 122 27 15 14 31 42 37 62 41 137 -130 279 -256 212z"/>
<path d="M7195 7154 c12 -30 18 -401 7 -479 -6 -44 -6 -72 0 -76 5 -3 52 -9
104 -13 53 -3 117 -11 145 -17 48 -10 49 -12 64 -62 9 -29 20 -108 26 -177 9
-115 8 -157 -7 -263 l-6 -39 -43 64 c-59 89 -167 186 -279 253 -53 32 -99 62
-103 68 -3 5 -6 27 -6 48 l0 39 -46 -42 c-25 -23 -84 -80 -131 -126 -176 -174
-570 -395 -965 -540 -94 -35 -177 -55 -375 -89 -414 -71 -593 -87 -777 -72
-134 11 -627 90 -735 119 -136 36 -239 78 -433 180 -104 55 -262 135 -350 179
-169 84 -222 122 -326 236 -35 38 -86 92 -112 120 l-48 50 6 -50 c8 -64 -5
-77 -135 -138 -117 -54 -175 -101 -248 -203 l-57 -79 -8 65 c-13 108 1 217 45
360 24 75 31 86 70 106 64 33 207 38 280 9 15 -6 15 -3 3 38 -17 58 -22 228
-11 390 6 103 6 127 -5 127 -24 0 -223 -211 -308 -325 -44 -60 -99 -146 -121
-191 -83 -167 -118 -403 -86 -579 24 -127 28 -140 117 -330 102 -216 99 -211
183 -330 154 -217 419 -438 651 -540 33 -14 90 -44 127 -66 76 -46 244 -116
468 -195 131 -46 194 -62 405 -99 138 -24 300 -50 360 -57 141 -17 627 -16
800 1 248 24 560 84 705 136 36 13 130 46 210 75 175 62 283 110 455 205 183
100 299 181 421 293 189 174 305 327 377 497 14 33 53 122 86 198 77 178 104
283 104 407 0 239 -115 551 -270 730 -54 62 -191 186 -219 197 -14 5 -16 3 -9
-13z m-25 -969 c31 -16 80 -74 80 -94 0 -20 -176 -196 -239 -239 l-59 -40 -50
34 c-28 18 -54 39 -57 45 -4 6 35 55 91 113 55 57 116 124 137 149 42 51 53
55 97 32z m-4443 -17 c11 -13 31 -41 44 -63 13 -22 49 -69 80 -105 30 -36 64
-78 74 -93 18 -28 18 -29 -2 -49 -13 -12 -39 -22 -67 -25 -58 -7 -94 16 -201
128 -92 97 -96 117 -32 184 49 50 74 56 104 23z m638 -267 c30 -27 103 -73
162 -103 59 -29 108 -58 110 -64 2 -5 -9 -17 -24 -26 -51 -30 -150 -127 -201
-195 -99 -136 -149 -246 -182 -406 -9 -48 -20 -90 -23 -94 -9 -8 -67 30 -214
139 l-133 98 0 44 c0 53 39 183 85 281 65 140 209 300 319 355 23 11 42 20 43
20 1 0 27 -22 58 -49z m3346 -15 c46 -35 107 -87 134 -117 96 -102 185 -273
216 -411 14 -69 18 -63 -111 -173 -97 -82 -215 -165 -235 -165 -9 0 -16 17
-21 48 -12 85 -55 205 -117 327 -57 112 -69 128 -175 234 -86 85 -111 115
-101 122 8 4 61 34 118 66 57 32 122 75 145 95 22 20 46 37 52 38 6 0 49 -29
95 -64z m-360 -260 c55 -55 55 -57 23 -80 -43 -31 -259 -124 -339 -145 -129
-34 -138 -35 -167 -4 -30 32 -48 65 -48 87 0 9 32 25 98 46 53 18 138 49 187
70 106 45 116 47 176 49 36 1 51 -4 70 -23z m-2536 -71 c225 -77 208 -62 166
-148 -34 -68 -38 -72 -72 -75 -26 -2 -57 7 -105 31 -38 19 -87 41 -109 48 -22
8 -59 32 -82 55 -37 35 -43 46 -43 82 0 45 16 61 60 62 14 0 97 -25 185 -55z
m547 -19 c79 -14 169 -28 201 -32 31 -3 57 -9 57 -13 0 -3 -9 -30 -21 -60 -48
-127 -88 -395 -96 -651 l-6 -186 -181 29 c-100 15 -195 30 -213 33 -28 4 -33
10 -39 41 -9 46 1 281 16 388 17 120 44 227 90 358 23 64 44 117 46 117 2 0
67 -11 146 -24z m1368 -78 c77 -186 120 -423 120 -665 0 -97 -2 -114 -17 -121
-19 -10 -148 -35 -298 -58 -147 -22 -131 -42 -138 164 -11 302 -57 584 -112
693 l-14 26 117 17 c64 10 144 23 177 31 121 27 117 29 165 -87z m-472 -79
c17 -7 22 -16 22 -44 0 -44 -25 -70 -82 -87 -58 -17 -446 -16 -505 1 l-43 12
0 59 c0 68 0 67 100 73 99 5 484 -6 508 -14z"/>
<path d="M4520 7084 c-274 -52 -555 -136 -637 -189 -53 -35 -13 -93 135 -195
64 -44 171 -122 237 -173 155 -120 201 -147 268 -154 151 -15 348 120 438 302
34 68 42 95 46 162 4 52 2 87 -6 101 -12 22 -150 97 -233 127 -43 16 -202 28
-248 19z m145 -133 c16 -27 -137 -89 -291 -116 -104 -19 -290 -23 -307 -6 -16
16 58 45 193 75 211 46 392 67 405 47z"/>
<path d="M7807 6163 c-7 -158 -33 -275 -98 -438 -105 -259 -181 -383 -328
-534 -56 -57 -101 -106 -101 -110 0 -3 22 -16 48 -28 26 -12 79 -40 118 -63
100 -57 251 -111 454 -163 213 -55 376 -77 565 -77 165 0 244 18 308 71 113
93 103 228 -38 540 -50 111 -118 222 -194 319 -53 67 -189 217 -244 269 -125
117 -445 351 -480 351 -2 0 -7 -62 -10 -137z"/>
<path d="M2035 6153 c-52 -28 -190 -149 -269 -235 -259 -286 -416 -576 -465
-862 -16 -93 -3 -150 51 -211 33 -37 51 -48 106 -64 144 -42 352 -35 607 21
249 54 565 173 565 213 0 10 -31 47 -68 84 -37 36 -83 89 -102 116 -18 28 -54
77 -80 110 -116 148 -223 395 -266 610 -17 85 -17 85 -38 68 l-21 -18 19 23
c25 29 36 140 15 153 -18 11 -19 11 -54 -8z"/>
<path d="M7015 4851 c-22 -15 -105 -62 -185 -102 -130 -67 -227 -110 -524
-236 l-90 -38 3 -70 c3 -91 -37 -220 -124 -400 -118 -246 -292 -416 -554 -545
-223 -110 -372 -142 -666 -144 -229 -1 -302 10 -498 74 -291 96 -562 304 -730
561 -126 193 -204 338 -262 489 -31 80 -61 155 -67 168 -8 15 -78 56 -217 126
-113 58 -219 111 -236 120 -16 8 -31 13 -33 11 -2 -2 3 -25 11 -52 9 -26 19
-104 22 -173 13 -233 50 -404 132 -605 177 -436 438 -747 828 -987 220 -135
393 -206 705 -286 l215 -55 190 -4 190 -5 -3 -289 c-3 -232 -1 -293 10 -306 7
-9 36 -27 63 -39 48 -23 59 -24 305 -24 140 0 487 -5 772 -11 574 -13 626 -10
734 42 306 145 293 574 -22 732 -134 67 -250 94 -553 129 -125 14 -131 18
-131 91 0 18 -4 38 -8 45 -15 22 -92 -19 -136 -72 -21 -26 -70 -68 -109 -94
-184 -123 -236 -144 -629 -252 l-38 -11 0 -143 0 -143 108 -7 c59 -4 154 -15
212 -24 100 -16 105 -18 128 -52 l23 -34 -23 -9 c-13 -4 -68 -3 -127 2 -57 6
-171 11 -252 11 -81 0 -150 3 -153 8 -2 4 -6 113 -8 242 l-3 235 40 12 c22 7
113 33 202 58 89 24 200 60 245 80 112 49 419 234 510 307 184 150 409 410
503 583 163 298 280 710 288 1009 1 62 -2 100 -8 103 -6 2 -29 -10 -50 -26z
m-496 -2113 c223 -41 372 -86 443 -133 43 -29 93 -99 110 -158 9 -31 9 -41 -4
-53 -13 -13 -18 -11 -41 24 -76 108 -177 155 -530 243 -295 73 -343 75 -361
12 -8 -27 22 -45 104 -62 30 -6 100 -25 155 -42 401 -122 506 -172 542 -257
17 -42 9 -70 -24 -83 -14 -5 -27 -8 -27 -7 -43 72 -89 101 -281 177 -84 34
-158 61 -164 61 -33 0 -270 88 -309 114 -66 45 -70 56 -39 98 15 19 33 50 42
70 24 58 53 58 384 -4z m-546 -268 c57 -11 143 -34 193 -51 49 -16 139 -46
201 -64 200 -62 287 -112 281 -164 -4 -37 -43 -39 -115 -3 -102 51 -472 170
-627 202 -54 11 -100 20 -102 20 -2 0 -8 8 -13 18 -15 28 13 62 49 62 16 0 76
-9 133 -20z"/>
<path d="M7131 4381 c-5 -9 -25 -68 -46 -131 -21 -63 -54 -149 -73 -190 -19
-41 -52 -118 -74 -170 -22 -52 -64 -141 -94 -196 -30 -56 -54 -105 -54 -108 0
-12 48 -6 101 13 124 42 248 121 363 230 66 63 118 135 166 231 35 70 110 271
110 296 0 14 -17 15 -137 9 -122 -6 -145 -5 -196 13 -52 17 -59 18 -66 3z"/>
<path d="M3656 3043 c-3 -4 -6 -26 -6 -49 0 -24 -4 -45 -9 -48 -5 -3 -66 -13
-137 -21 -414 -50 -543 -92 -669 -220 -213 -215 -160 -507 115 -639 l85 -41
240 1 c546 3 1414 15 1463 20 50 5 55 8 83 52 29 46 29 47 29 202 0 217 -10
374 -24 360 -5 -5 -38 -10 -72 -10 l-61 0 -9 -202 -9 -203 -170 -6 c-93 -4
-215 -12 -270 -18 -149 -16 -155 -15 -155 13 0 32 14 41 85 60 59 15 296 53
365 58 25 2 36 8 39 22 7 41 -11 267 -23 271 -6 1 -76 20 -156 40 -239 63
-414 145 -585 275 -89 68 -137 95 -149 83z m155 -325 l70 -72 -33 -34 c-62
-65 -109 -89 -247 -127 -296 -81 -439 -144 -514 -224 -26 -28 -53 -51 -59 -51
-20 0 -48 32 -48 55 0 32 78 115 137 148 76 41 392 151 541 188 l133 33 -7 30
c-11 52 -22 59 -84 53 -114 -12 -502 -121 -621 -175 -60 -27 -134 -95 -155
-142 -10 -22 -21 -40 -26 -40 -12 0 -28 37 -28 67 0 41 46 127 83 159 34 29
132 76 194 94 103 29 503 106 566 109 23 1 42 -13 98 -71z m303 -224 c24 -9
20 -51 -6 -68 -13 -8 -165 -60 -338 -116 -173 -56 -333 -111 -355 -122 -84
-43 -135 -41 -135 7 0 33 58 75 159 113 101 39 607 188 648 191 6 1 18 -2 27
-5z"/>
<path d="M7655 2664 c-45 -23 -73 -53 -86 -92 -25 -75 19 -163 91 -182 82 -22
153 14 185 92 20 52 14 96 -22 138 -49 58 -110 74 -168 44z"/>
<path d="M3873 1678 c-5 -7 -21 -34 -36 -59 -34 -60 -99 -119 -172 -155 -54
-26 -69 -29 -160 -29 -88 0 -107 4 -161 29 -66 30 -120 79 -152 137 -56 101
-65 102 -121 14 -157 -243 -497 -247 -636 -9 -23 38 -44 64 -54 64 -10 0 -34
-26 -56 -60 -43 -67 -90 -108 -167 -148 -49 -25 -62 -27 -168 -27 -112 0 -117
1 -177 34 -34 18 -79 51 -99 74 l-38 40 -28 -33 c-31 -37 -44 -86 -34 -126 9
-34 87 -117 140 -148 64 -37 141 -56 230 -56 144 0 237 38 328 132 l58 60 67
-62 c91 -84 172 -122 273 -128 143 -8 245 30 347 130 l62 61 60 -56 c34 -31
94 -72 137 -94 68 -33 86 -38 168 -41 74 -3 103 0 156 18 84 28 151 71 200
129 l40 46 29 -36 c67 -81 194 -143 315 -155 126 -12 282 53 357 147 17 22 35
39 39 39 5 0 32 -24 60 -54 92 -98 205 -141 349 -134 78 4 99 9 164 41 52 26
91 54 126 93 l51 56 54 -54 c147 -147 339 -177 532 -83 30 15 74 49 104 81
l50 56 41 -40 c191 -192 462 -200 655 -20 l64 60 62 -57 c89 -80 188 -127 281
-133 142 -9 252 32 357 134 l68 66 39 -43 c53 -59 144 -116 226 -141 121 -36
296 -9 402 63 41 28 91 94 101 133 8 32 -18 106 -46 131 -20 18 -21 17 -66
-28 -25 -25 -71 -59 -102 -74 -52 -26 -67 -28 -167 -28 -102 0 -114 2 -170 30
-73 37 -131 93 -167 162 -16 29 -35 53 -42 53 -8 0 -31 -25 -52 -55 -46 -70
-102 -118 -184 -158 -59 -29 -74 -32 -155 -32 -77 0 -99 5 -148 28 -83 38
-131 79 -172 148 -20 32 -42 59 -49 59 -7 0 -36 -29 -64 -64 -55 -69 -113
-114 -190 -149 -36 -16 -68 -21 -137 -21 -142 -1 -240 43 -303 139 -36 56 -70
95 -82 95 -4 0 -24 -27 -44 -59 -39 -64 -102 -117 -183 -153 -39 -18 -65 -22
-138 -22 -154 1 -257 59 -316 175 -16 33 -36 59 -44 59 -8 0 -26 -19 -41 -41
-41 -65 -110 -126 -182 -161 -61 -29 -76 -32 -162 -33 -86 0 -101 3 -160 31
-90 43 -122 73 -159 149 -22 48 -36 66 -48 63 -9 -2 -36 -31 -60 -66 -52 -77
-81 -102 -158 -141 -85 -43 -171 -50 -263 -22 -105 31 -161 74 -197 147 -45
91 -62 108 -82 82z"/>
</g>
</svg>
