<?xml version="1.0" encoding="UTF-8" standalone="no"?>
<!-- Created with Inkscape (http://www.inkscape.org/) -->

<svg
   width="210mm"
   height="297mm"
   viewBox="0 0 210 297"
   version="1.1"
   id="svg1"
   xml:space="preserve"
   inkscape:version="1.4 (86a8ad7, 2024-10-11)"
   sodipodi:docname="collection.svg"
   xmlns:inkscape="http://www.inkscape.org/namespaces/inkscape"
   xmlns:sodipodi="http://sodipodi.sourceforge.net/DTD/sodipodi-0.dtd"
   xmlns="http://www.w3.org/2000/svg"
   xmlns:svg="http://www.w3.org/2000/svg"><sodipodi:namedview
     id="namedview1"
     pagecolor="#ffffff"
     bordercolor="#cccccc"
     borderopacity="1"
     inkscape:showpageshadow="0"
     inkscape:pageopacity="1"
     inkscape:pagecheckerboard="0"
     inkscape:deskcolor="#d1d1d1"
     inkscape:document-units="mm"
     inkscape:zoom="1.0167041"
     inkscape:cx="357.03604"
     inkscape:cy="452.93415"
     inkscape:window-width="1920"
     inkscape:window-height="1009"
     inkscape:window-x="-8"
     inkscape:window-y="-8"
     inkscape:window-maximized="1"
     inkscape:current-layer="layer1" /><defs
     id="defs1" /><g
     inkscape:label="Layer 1"
     inkscape:groupmode="layer"
     id="layer1"><g
       transform="matrix(0.00523732,0,0,-0.00523732,61.073995,153.15442)"
       fill="#000000"
       stroke="none"
       id="g11"><path
         d="m 5165,9080 c -584,-101 -1174,-470 -1514,-945 -143,-200 -275,-456 -317,-614 -9,-36 -21,-71 -26,-77 -8,-12 -37,-8 -288,42 -355,71 -586,103 -894,126 -115,8 -170,16 -173,24 -2,7 -1,138 4,291 l 8,278 90,3 c 76,2 112,-3 227,-32 76,-19 188,-56 250,-82 62,-26 134,-49 159,-51 42,-4 48,-2 72,27 15,17 27,43 27,57 0,32 -92,206 -173,328 -135,203 -353,370 -582,445 -38,13 -81,31 -95,41 -23,17 -55,18 -347,20 l -322,2 -47,-31 c -45,-29 -48,-30 -93,-17 -30,9 -126,14 -280,17 l -235,3 -16,-30 c -15,-27 -16,-65 -12,-350 l 4,-319 34,-34 c 29,-29 39,-33 66,-28 18,3 95,11 172,16 78,6 188,17 246,26 79,12 112,14 133,5 l 27,-11 3,-327 c 4,-572 7,-515 -31,-561 -67,-85 -71,-155 -13,-266 l 40,-74 6,-474 c 8,-540 4,-513 98,-612 69,-72 140,-99 257,-99 107,-1 159,21 234,96 87,87 83,69 92,455 4,188 9,342 10,342 2,0 25,-15 51,-34 27,-18 155,-97 286,-174 221,-131 345,-214 557,-372 116,-85 304,-249 324,-282 9,-14 16,-47 16,-73 v -48 l 93,7 c 95,8 290,31 345,42 l 32,7 v -111 -111 l -157,6 c -87,3 -194,3 -237,-2 l -79,-7 6,-177 c 7,-206 14,-233 54,-225 48,9 408,41 416,37 4,-2 7,-51 7,-109 v -104 h -27 c -16,0 -86,5 -158,11 -72,7 -160,9 -197,5 l -68,-8 v -61 c 0,-81 14,-172 50,-337 16,-74 40,-194 54,-265 52,-270 177,-615 294,-810 48,-79 194,-287 247,-350 110,-131 135,-165 121,-165 -8,0 -50,-14 -93,-30 -43,-17 -109,-43 -148,-58 -106,-41 -331,-157 -400,-207 -143,-102 -234,-237 -243,-364 -5,-79 13,-128 70,-188 93,-97 403,-162 703,-148 434,21 1112,167 1365,295 32,16 59,27 61,25 3,-2 69,-9 149,-16 110,-9 173,-9 259,0 63,6 119,7 125,3 64,-49 610,-203 926,-261 213,-39 335,-51 534,-51 230,0 438,35 547,91 162,82 201,238 107,423 -63,123 -281,280 -524,377 -68,26 -233,104 -243,114 -2,2 17,28 41,57 94,113 182,241 258,378 161,289 288,691 320,1010 7,63 25,205 41,315 35,242 36,268 8,296 -25,25 -40,24 -254,-16 -227,-41 -409,-60 -676,-71 l -176,-7 -6,78 c -4,43 -7,93 -7,110 v 32 l 83,8 c 45,4 195,7 332,6 281,-1 449,9 613,35 l 111,18 6,40 c 4,23 5,87 3,144 l -3,103 40,10 c 22,5 65,18 95,29 30,11 89,28 130,39 904,233 1197,322 1409,428 261,131 307,261 137,392 -82,64 -304,194 -476,280 -341,170 -1009,407 -1280,455 l -125,22 -3,47 c -2,26 1,47 5,47 4,0 42,-12 83,-26 101,-34 231,-42 320,-19 102,26 214,86 355,190 174,128 199,160 157,199 -21,19 -218,88 -319,112 -82,20 -255,22 -335,5 -54,-12 -213,-75 -257,-103 -11,-7 -23,-9 -27,-5 -16,16 25,63 94,109 172,112 257,202 308,329 42,102 124,350 124,373 0,12 -9,32 -20,44 -30,31 -78,28 -217,-14 -292,-88 -426,-182 -516,-363 -26,-50 -49,-107 -53,-126 -3,-20 -10,-37 -14,-40 -4,-2 -31,33 -61,78 -127,193 -373,462 -534,584 -296,223 -635,389 -938,458 -214,49 -597,61 -802,25 z m 105,-195 c 15,-8 38,-27 49,-41 75,-95 -75,-213 -204,-160 -113,48 -42,214 93,216 18,0 46,-7 62,-15 z M 2010,8706 c 144,-66 260,-145 357,-242 109,-110 123,-136 46,-87 -32,20 -78,51 -103,69 -74,53 -228,125 -304,141 -54,12 -140,16 -360,17 l -289,1 -11,-39 c -22,-77 -109,-100 -138,-35 -7,16 -20,29 -28,29 -8,0 -55,5 -105,10 -49,5 -104,7 -121,4 -29,-5 -31,-10 -44,-72 -8,-37 -13,-70 -12,-74 1,-5 -24,-8 -57,-8 h -59 l -4,62 c -3,34 -2,108 0,166 l 5,103 141,-8 c 206,-12 293,-10 308,5 10,11 79,13 343,10 l 330,-3 z m 2748,-42 c 23,-24 32,-43 32,-67 0,-83 -84,-154 -169,-143 -60,8 -88,28 -102,75 -10,35 -9,45 11,86 47,97 159,121 228,49 z m 3262,-459 c 0,-22 -38,-70 -90,-115 -34,-30 -86,-86 -115,-125 -46,-63 -100,-115 -119,-115 -14,0 -5,73 16,127 26,71 106,154 193,200 53,29 115,43 115,28 z M 1735,7811 v -385 l -55,-44 c -30,-25 -65,-61 -78,-81 -52,-81 -9,-218 122,-399 l 68,-92 -21,-43 c -35,-71 -41,-138 -41,-422 0,-311 2,-304 -87,-312 -62,-5 -133,30 -146,73 -9,33 -20,1297 -17,2050 v 42 l 128,-2 127,-1 z m 4737,363 c 248,-47 447,-212 579,-479 42,-86 87,-243 95,-340 6,-57 3,-65 -40,-150 -84,-164 -387,-524 -780,-923 -156,-159 -207,-186 -447,-236 -225,-48 -365,-59 -654,-53 -233,5 -419,22 -595,52 -116,20 -375,105 -429,140 -61,41 -145,143 -270,330 -180,268 -293,490 -347,678 -80,276 29,632 249,818 165,139 373,197 554,154 172,-40 343,-157 474,-321 53,-67 133,-219 163,-311 10,-29 21,-55 25,-57 4,-3 25,1 47,9 69,25 295,13 332,-17 17,-14 25,-3 49,67 26,74 108,230 157,299 102,142 249,254 413,312 150,54 254,61 425,28 z m 1144,-660 c 45,-117 -19,-255 -304,-654 -41,-58 -96,-129 -121,-159 -25,-30 -85,-106 -133,-169 -48,-63 -171,-206 -273,-318 -208,-227 -199,-221 -340,-225 -44,-1 -87,-7 -95,-13 -35,-26 92,125 203,241 271,283 403,441 683,818 172,231 239,336 297,457 45,97 53,99 83,22 z m 718,34 c 17,-9 16,-12 -10,-39 -56,-58 -299,-110 -374,-79 -17,7 -29,18 -27,24 2,6 26,23 53,38 115,65 289,92 358,56 z M 3394,7143 c 106,-309 283,-634 532,-978 40,-55 86,-118 101,-140 24,-34 36,-41 88,-53 123,-27 182,-46 270,-88 169,-80 318,-101 800,-110 486,-9 583,1 834,90 40,14 116,31 170,37 53,6 103,18 112,25 18,16 69,19 69,3 0,-5 5,-7 10,-4 6,3 10,1 10,-5 0,-6 17,-34 39,-63 79,-106 75,-81 82,-487 4,-201 7,-635 8,-965 1,-596 1,-600 -20,-635 -100,-164 -253,-251 -484,-278 -195,-23 -231,-24 -249,-7 -9,9 -16,20 -16,25 0,17 -33,19 -104,4 -119,-24 -274,-31 -561,-22 -562,16 -798,47 -953,124 -126,64 -234,196 -252,311 -11,65 -12,1282 -2,1633 7,212 8,227 30,257 38,53 30,89 -31,148 -66,62 -98,104 -175,225 -163,260 -301,539 -372,754 -40,121 -42,133 -36,205 8,85 25,161 36,161 4,0 33,-75 64,-167 z m 802,-4455 c 90,-39 161,-75 157,-79 -13,-12 -116,-43 -293,-89 -91,-23 -237,-62 -325,-86 -250,-68 -335,-86 -371,-80 -44,9 -37,29 34,99 58,57 176,134 292,189 102,49 282,116 313,117 16,1 102,-31 193,-71 z"
         id="path1" /><path
         d="m 4031,7773 c -129,-46 -201,-243 -137,-379 63,-136 179,-192 318,-154 145,41 229,200 184,352 -19,67 -91,152 -151,179 -50,23 -152,24 -214,2 z m 93,-84 c 58,-46 17,-134 -60,-127 -77,6 -86,94 -14,130 43,22 42,22 74,-3 z"
         id="path2" /><path
         d="m 6290,7781 c -123,-38 -197,-148 -187,-281 13,-202 207,-328 374,-244 104,51 165,149 165,263 0,116 -45,191 -143,240 -50,25 -74,31 -123,30 -34,0 -72,-4 -86,-8 z"
         id="path3" /><path
         d="m 5165,7423 c -116,-16 -470,-157 -592,-236 -111,-71 -158,-155 -138,-247 9,-42 63,-94 133,-129 63,-31 305,-117 510,-181 l 134,-42 96,22 c 110,25 276,84 401,141 96,45 197,117 264,188 42,45 47,55 47,96 0,25 -6,58 -14,74 -60,116 -415,269 -719,310 -43,6 -81,10 -85,10 -4,-1 -20,-4 -37,-6 z m 205,-237 c 193,-43 340,-93 340,-116 0,-4 -24,-10 -52,-13 -29,-3 -116,-12 -193,-21 -235,-26 -513,-47 -650,-49 -115,-2 -130,0 -133,15 -7,33 156,110 358,169 58,17 110,35 115,40 14,14 67,8 215,-25 z"
         id="path4" /><path
         d="m 4125,5784 c -102,-56 -139,-146 -96,-239 39,-84 116,-125 195,-104 55,15 83,36 111,83 31,53 40,106 26,149 -29,86 -164,150 -236,111 z"
         id="path5" /><path
         d="m 6087,5750 c -70,-64 -87,-108 -68,-178 15,-57 51,-106 93,-128 65,-34 168,0 214,71 52,80 6,213 -90,259 -73,35 -87,32 -149,-24 z"
         id="path6" /><path
         d="m 4543,5319 c -18,-22 -24,-234 -15,-484 9,-265 9,-265 114,-386 143,-167 357,-269 562,-269 137,0 325,75 432,173 64,58 139,167 164,239 28,82 37,402 15,572 -21,173 -20,171 -104,160 -70,-9 -644,-8 -966,2 -154,5 -193,3 -202,-7 z m 1053,-233 c 1,0 -2,-23 -6,-51 -5,-27 -9,-104 -10,-170 -1,-174 -21,-240 -104,-332 -84,-93 -240,-139 -371,-108 -165,38 -304,160 -338,296 -9,35 -21,125 -27,199 -6,74 -13,145 -16,157 l -6,22 439,-6 c 241,-3 439,-6 439,-7 z"
         id="path7" /><path
         d="m 1443,5430 c -54,-33 -57,-45 -49,-255 3,-104 11,-206 16,-226 32,-116 173,-111 200,7 5,21 10,125 10,229 0,212 -3,225 -66,251 -45,19 -73,18 -111,-6 z"
         id="path8" /><path
         d="m 965,5061 c -46,-27 -68,-67 -61,-106 11,-57 211,-231 279,-242 30,-4 40,0 72,29 48,43 44,61 -26,155 -96,126 -163,183 -216,183 -10,0 -32,-8 -48,-19 z"
         id="path9" /><path
         d="m 1935,5056 c -58,-25 -178,-184 -191,-253 -8,-42 22,-80 72,-89 48,-9 65,0 160,86 130,117 161,181 112,228 -45,41 -100,51 -153,28 z"
         id="path10" /><path
         d="m 1158,4523 -608,-3 -23,-38 c -13,-20 -36,-66 -52,-102 l -28,-64 6,-216 6,-215 29,-26 c 19,-17 54,-32 100,-42 84,-19 140,-46 200,-95 104,-84 132,-135 139,-256 7,-101 -8,-156 -54,-207 -36,-40 -84,-60 -183,-74 -92,-14 -104,-32 -183,-291 l -55,-181 -3,-182 -4,-183 28,-24 28,-24 h 295 296 l 26,28 c 15,15 39,51 54,79 18,33 42,61 74,82 77,51 142,66 284,66 213,0 295,-35 354,-154 20,-38 46,-77 58,-85 19,-14 64,-16 301,-16 h 279 l 30,30 30,31 -4,187 c -4,167 -8,207 -43,377 -21,105 -42,202 -47,217 -12,31 -38,43 -138,58 -41,7 -96,21 -122,32 -87,37 -161,145 -144,211 3,14 29,50 57,81 57,63 74,69 219,86 201,24 306,70 463,204 105,91 251,279 308,399 33,71 35,87 14,127 -32,61 -23,60 -437,60 h -378 l -37,58 c -20,31 -41,60 -47,64 -6,4 -117,7 -246,5 -129,-1 -508,-3 -842,-4 z m 987,-175 c 1,-2 5,-28 8,-59 l 5,-56 -81,-7 c -108,-8 -1078,-8 -1280,1 l -158,6 7,56 c 4,31 10,58 14,61 8,5 1480,3 1485,-2 z m 765,-135 c 0,-16 -159,-93 -230,-112 -59,-17 -104,-21 -213,-21 h -138 l 3,70 2,70 h 288 c 158,0 288,-3 288,-7 z M 1143,3552 c 95,-90 92,-416 -6,-581 -42,-71 -134,-169 -200,-214 -50,-35 -56,-37 -170,-43 l -118,-7 6,24 c 32,132 27,123 69,131 56,12 200,102 240,151 43,54 58,84 89,182 29,91 35,175 22,314 l -8,93 24,-12 c 13,-7 36,-24 52,-38 z m 776,-226 c 6,-8 21,-47 32,-87 25,-92 67,-165 127,-226 61,-61 164,-127 232,-149 30,-9 56,-18 57,-18 0,-1 4,-32 8,-69 l 8,-69 -120,4 -120,3 -102,94 c -105,97 -179,195 -207,272 -24,71 -30,189 -10,227 14,26 22,32 50,32 18,0 39,-6 45,-14 z"
         id="path11" /></g><g
       transform="matrix(0.00449528,0,0,-0.00449528,86.538272,111.35356)"
       fill="#000000"
       stroke="none"
       id="g22"><path
         d="m 4766,9279 c -123,-17 -254,-47 -369,-84 -117,-38 -398,-171 -405,-192 -2,-7 9,-15 25,-19 64,-15 153,-75 219,-149 l 67,-75 h 161 160 l 76,78 c 125,128 264,187 475,198 154,9 354,-9 443,-39 136,-47 266,-139 338,-239 l 19,-27 242,-3 c 277,-3 265,-12 138,92 -281,228 -643,389 -1005,445 -117,18 -490,27 -584,14 z"
         id="path1-0" /><path
         d="m 5080,8924 c -14,-3 -58,-16 -99,-31 -95,-34 -193,-121 -243,-219 l -33,-64 -45,7 c -59,10 -310,10 -377,0 -49,-7 -53,-6 -53,13 0,38 -38,96 -92,141 -82,70 -112,88 -190,117 -71,26 -79,27 -293,27 -198,0 -227,-2 -293,-22 -81,-24 -150,-64 -198,-115 -103,-108 -157,-268 -134,-402 30,-184 168,-322 377,-377 104,-28 341,-30 453,-5 176,40 334,153 391,280 18,43 19,43 88,55 85,14 154,14 246,1 99,-15 100,-15 133,-73 57,-101 177,-197 295,-236 99,-33 200,-44 352,-39 115,4 154,10 220,32 94,30 184,87 240,151 l 40,46 425,6 c 549,8 693,-7 702,-69 3,-20 9,-23 43,-23 33,0 43,5 62,34 46,68 24,268 -42,376 l -36,60 -557,5 -557,5 -27,49 c -63,118 -157,196 -293,242 -76,26 -91,28 -280,30 -110,1 -211,0 -225,-2 z m 459,-151 c 141,-47 261,-202 261,-337 0,-192 -223,-327 -515,-312 -60,3 -135,10 -165,17 -130,28 -257,123 -295,222 -37,97 2,228 97,327 66,68 108,82 303,95 183,13 245,11 314,-12 z m -1608,-30 c 108,-53 159,-106 190,-200 34,-102 13,-202 -59,-284 -36,-42 -163,-104 -241,-119 -78,-15 -267,-12 -356,5 -130,25 -249,113 -281,207 -33,101 -2,236 74,317 88,94 184,121 417,118 l 170,-2 z m 2198,-302 c 24,-15 -21,-31 -87,-31 -56,0 -92,16 -75,33 10,10 146,8 162,-2 z m 659,-15 c 8,-5 9,-13 2,-26 -18,-34 -278,-58 -308,-28 -13,13 -16,50 -4,62 9,10 294,2 310,-8 z"
         id="path2-9" /><path
         d="m 5086,8696 c -135,-51 -208,-214 -145,-326 32,-57 110,-108 184,-120 80,-13 302,-13 365,1 66,14 139,64 167,114 64,113 -9,261 -157,316 -74,28 -353,38 -414,15 z m 143,-95 c 11,-20 -2,-44 -52,-98 -37,-39 -61,-42 -83,-8 -21,33 -12,57 43,104 48,43 70,43 92,2 z m 257,6 c 25,-22 26,-25 13,-49 -15,-29 -234,-239 -267,-257 -11,-6 -32,-11 -45,-11 -26,0 -55,25 -43,38 45,49 303,302 308,302 4,0 19,-10 34,-23 z"
         id="path3-4" /><path
         d="m 3490,8700 c -141,-27 -244,-172 -211,-297 34,-125 147,-169 414,-161 154,4 198,16 263,71 37,31 74,104 74,145 0,43 -47,128 -93,168 -71,61 -105,71 -267,76 -80,3 -161,2 -180,-2 z m 61,-102 c 26,-32 24,-42 -19,-88 -40,-41 -67,-49 -103,-30 -30,17 -23,46 24,95 49,50 70,55 98,23 z m 268,-2 c 31,-33 22,-55 -42,-108 -28,-24 -87,-76 -131,-116 -82,-77 -116,-97 -147,-87 -37,12 -23,55 33,104 29,25 96,88 148,138 52,51 100,93 106,93 6,0 21,-11 33,-24 z"
         id="path4-8" /><path
         d="m 7173,8619 c 68,-154 80,-196 86,-304 l 6,-110 h 413 414 l -5,37 c -3,20 -19,57 -36,81 -60,88 -59,110 11,199 16,21 30,50 31,65 l 2,28 -440,1 c -242,1 -451,4 -464,9 -18,6 -23,4 -18,-6 z"
         id="path5-8" /><path
         d="m 4348,8183 c -9,-16 -38,-49 -64,-75 l -47,-48 h 247 247 l -67,75 -67,75 h -117 c -116,0 -116,0 -132,-27 z"
         id="path6-2" /><path
         d="m 7232,8062 c -18,-24 -46,-43 -72,-52 -37,-12 -41,-16 -36,-39 3,-14 9,-87 12,-163 l 7,-136 28,-6 c 39,-8 896,-9 909,-1 20,13 9,52 -35,124 -25,40 -45,80 -45,88 0,18 14,45 55,108 18,28 36,59 39,71 l 6,21 -397,-1 c -295,-1 -403,2 -419,11 -19,11 -25,8 -52,-25 z"
         id="path7-4" /><path
         d="m 5887,8045 c -35,-44 -129,-96 -236,-130 l -83,-27 178,-94 c 228,-120 339,-200 489,-349 169,-168 285,-352 391,-617 25,-62 61,-138 80,-170 35,-57 36,-60 24,-108 -7,-28 -17,-51 -23,-51 -59,-6 -91,31 -171,196 -41,82 -103,211 -139,285 -37,74 -90,167 -119,205 -101,136 -343,357 -456,418 -92,49 -92,39 5,-60 153,-158 208,-248 277,-458 85,-261 106,-417 106,-785 0,-154 3,-280 6,-280 10,0 123,70 218,134 48,34 129,89 178,123 88,60 298,234 389,323 58,56 61,75 62,375 0,257 -22,500 -59,660 -14,61 -34,146 -44,190 -10,44 -26,100 -34,124 -9,24 -16,54 -16,66 0,12 -6,27 -12,33 -15,12 -496,32 -782,32 h -201 z"
         id="path8-5" /><path
         d="m 3084,7969 c -65,-130 -144,-367 -169,-509 -16,-92 -45,-343 -45,-392 0,-16 4,-28 9,-28 5,0 41,53 81,117 102,166 170,253 290,373 110,110 212,189 358,278 l 87,54 -63,-6 c -74,-7 -190,8 -276,35 -55,17 -167,75 -223,115 -21,15 -23,14 -49,-37 z"
         id="path9-5" /><path
         d="m 4560,7923 c -105,-5 -257,-23 -368,-44 -93,-18 -252,-76 -323,-119 -25,-14 -22,-15 60,-15 155,0 271,-55 411,-195 67,-67 95,-104 130,-172 l 45,-88 48,-2 c 106,-4 97,-8 120,52 51,140 170,268 323,347 117,61 202,83 325,86 49,1 89,3 89,5 0,13 -125,49 -284,82 -105,21 -218,46 -251,54 -56,15 -142,18 -325,9 z"
         id="path10-1" /><path
         d="m 3555,7607 c -65,-33 -100,-61 -189,-151 -128,-130 -200,-223 -281,-364 -33,-56 -89,-148 -125,-205 l -65,-102 1,-75 c 1,-104 42,-177 173,-308 46,-47 171,-142 184,-142 4,0 5,134 4,298 -2,244 1,313 15,387 27,140 65,262 114,365 50,104 81,147 193,263 41,42 70,77 65,76 -5,-1 -45,-19 -89,-42 z"
         id="path11-7" /><path
         d="m 3818,7470 c -92,-28 -138,-88 -138,-178 0,-54 4,-65 30,-96 19,-21 43,-36 66,-41 36,-6 172,10 211,25 61,25 71,150 17,218 -47,58 -129,90 -186,72 z"
         id="path12" /><path
         d="m 5305,7463 c -103,-54 -144,-157 -92,-234 37,-56 77,-70 189,-67 86,3 99,6 122,27 15,14 31,42 37,62 41,137 -130,279 -256,212 z"
         id="path13" /><path
         d="m 7195,7154 c 12,-30 18,-401 7,-479 -6,-44 -6,-72 0,-76 5,-3 52,-9 104,-13 53,-3 117,-11 145,-17 48,-10 49,-12 64,-62 9,-29 20,-108 26,-177 9,-115 8,-157 -7,-263 l -6,-39 -43,64 c -59,89 -167,186 -279,253 -53,32 -99,62 -103,68 -3,5 -6,27 -6,48 v 39 l -46,-42 c -25,-23 -84,-80 -131,-126 -176,-174 -570,-395 -965,-540 -94,-35 -177,-55 -375,-89 -414,-71 -593,-87 -777,-72 -134,11 -627,90 -735,119 -136,36 -239,78 -433,180 -104,55 -262,135 -350,179 -169,84 -222,122 -326,236 -35,38 -86,92 -112,120 l -48,50 6,-50 c 8,-64 -5,-77 -135,-138 -117,-54 -175,-101 -248,-203 l -57,-79 -8,65 c -13,108 1,217 45,360 24,75 31,86 70,106 64,33 207,38 280,9 15,-6 15,-3 3,38 -17,58 -22,228 -11,390 6,103 6,127 -5,127 -24,0 -223,-211 -308,-325 -44,-60 -99,-146 -121,-191 -83,-167 -118,-403 -86,-579 24,-127 28,-140 117,-330 102,-216 99,-211 183,-330 154,-217 419,-438 651,-540 33,-14 90,-44 127,-66 76,-46 244,-116 468,-195 131,-46 194,-62 405,-99 138,-24 300,-50 360,-57 141,-17 627,-16 800,1 248,24 560,84 705,136 36,13 130,46 210,75 175,62 283,110 455,205 183,100 299,181 421,293 189,174 305,327 377,497 14,33 53,122 86,198 77,178 104,283 104,407 0,239 -115,551 -270,730 -54,62 -191,186 -219,197 -14,5 -16,3 -9,-13 z m -25,-969 c 31,-16 80,-74 80,-94 0,-20 -176,-196 -239,-239 l -59,-40 -50,34 c -28,18 -54,39 -57,45 -4,6 35,55 91,113 55,57 116,124 137,149 42,51 53,55 97,32 z m -4443,-17 c 11,-13 31,-41 44,-63 13,-22 49,-69 80,-105 30,-36 64,-78 74,-93 18,-28 18,-29 -2,-49 -13,-12 -39,-22 -67,-25 -58,-7 -94,16 -201,128 -92,97 -96,117 -32,184 49,50 74,56 104,23 z m 638,-267 c 30,-27 103,-73 162,-103 59,-29 108,-58 110,-64 2,-5 -9,-17 -24,-26 -51,-30 -150,-127 -201,-195 -99,-136 -149,-246 -182,-406 -9,-48 -20,-90 -23,-94 -9,-8 -67,30 -214,139 l -133,98 v 44 c 0,53 39,183 85,281 65,140 209,300 319,355 23,11 42,20 43,20 1,0 27,-22 58,-49 z m 3346,-15 c 46,-35 107,-87 134,-117 96,-102 185,-273 216,-411 14,-69 18,-63 -111,-173 -97,-82 -215,-165 -235,-165 -9,0 -16,17 -21,48 -12,85 -55,205 -117,327 -57,112 -69,128 -175,234 -86,85 -111,115 -101,122 8,4 61,34 118,66 57,32 122,75 145,95 22,20 46,37 52,38 6,0 49,-29 95,-64 z m -360,-260 c 55,-55 55,-57 23,-80 -43,-31 -259,-124 -339,-145 -129,-34 -138,-35 -167,-4 -30,32 -48,65 -48,87 0,9 32,25 98,46 53,18 138,49 187,70 106,45 116,47 176,49 36,1 51,-4 70,-23 z m -2536,-71 c 225,-77 208,-62 166,-148 -34,-68 -38,-72 -72,-75 -26,-2 -57,7 -105,31 -38,19 -87,41 -109,48 -22,8 -59,32 -82,55 -37,35 -43,46 -43,82 0,45 16,61 60,62 14,0 97,-25 185,-55 z m 547,-19 c 79,-14 169,-28 201,-32 31,-3 57,-9 57,-13 0,-3 -9,-30 -21,-60 -48,-127 -88,-395 -96,-651 l -6,-186 -181,29 c -100,15 -195,30 -213,33 -28,4 -33,10 -39,41 -9,46 1,281 16,388 17,120 44,227 90,358 23,64 44,117 46,117 2,0 67,-11 146,-24 z m 1368,-78 c 77,-186 120,-423 120,-665 0,-97 -2,-114 -17,-121 -19,-10 -148,-35 -298,-58 -147,-22 -131,-42 -138,164 -11,302 -57,584 -112,693 l -14,26 117,17 c 64,10 144,23 177,31 121,27 117,29 165,-87 z m -472,-79 c 17,-7 22,-16 22,-44 0,-44 -25,-70 -82,-87 -58,-17 -446,-16 -505,1 l -43,12 v 59 c 0,68 0,67 100,73 99,5 484,-6 508,-14 z"
         id="path14" /><path
         d="m 4520,7084 c -274,-52 -555,-136 -637,-189 -53,-35 -13,-93 135,-195 64,-44 171,-122 237,-173 155,-120 201,-147 268,-154 151,-15 348,120 438,302 34,68 42,95 46,162 4,52 2,87 -6,101 -12,22 -150,97 -233,127 -43,16 -202,28 -248,19 z m 145,-133 c 16,-27 -137,-89 -291,-116 -104,-19 -290,-23 -307,-6 -16,16 58,45 193,75 211,46 392,67 405,47 z"
         id="path15" /><path
         d="m 7807,6163 c -7,-158 -33,-275 -98,-438 -105,-259 -181,-383 -328,-534 -56,-57 -101,-106 -101,-110 0,-3 22,-16 48,-28 26,-12 79,-40 118,-63 100,-57 251,-111 454,-163 213,-55 376,-77 565,-77 165,0 244,18 308,71 113,93 103,228 -38,540 -50,111 -118,222 -194,319 -53,67 -189,217 -244,269 -125,117 -445,351 -480,351 -2,0 -7,-62 -10,-137 z"
         id="path16" /><path
         d="m 2035,6153 c -52,-28 -190,-149 -269,-235 -259,-286 -416,-576 -465,-862 -16,-93 -3,-150 51,-211 33,-37 51,-48 106,-64 144,-42 352,-35 607,21 249,54 565,173 565,213 0,10 -31,47 -68,84 -37,36 -83,89 -102,116 -18,28 -54,77 -80,110 -116,148 -223,395 -266,610 -17,85 -17,85 -38,68 l -21,-18 19,23 c 25,29 36,140 15,153 -18,11 -19,11 -54,-8 z"
         id="path17" /><path
         d="m 7015,4851 c -22,-15 -105,-62 -185,-102 -130,-67 -227,-110 -524,-236 l -90,-38 3,-70 c 3,-91 -37,-220 -124,-400 -118,-246 -292,-416 -554,-545 -223,-110 -372,-142 -666,-144 -229,-1 -302,10 -498,74 -291,96 -562,304 -730,561 -126,193 -204,338 -262,489 -31,80 -61,155 -67,168 -8,15 -78,56 -217,126 -113,58 -219,111 -236,120 -16,8 -31,13 -33,11 -2,-2 3,-25 11,-52 9,-26 19,-104 22,-173 13,-233 50,-404 132,-605 177,-436 438,-747 828,-987 220,-135 393,-206 705,-286 l 215,-55 190,-4 190,-5 -3,-289 c -3,-232 -1,-293 10,-306 7,-9 36,-27 63,-39 48,-23 59,-24 305,-24 140,0 487,-5 772,-11 574,-13 626,-10 734,42 306,145 293,574 -22,732 -134,67 -250,94 -553,129 -125,14 -131,18 -131,91 0,18 -4,38 -8,45 -15,22 -92,-19 -136,-72 -21,-26 -70,-68 -109,-94 -184,-123 -236,-144 -629,-252 l -38,-11 v -143 -143 l 108,-7 c 59,-4 154,-15 212,-24 100,-16 105,-18 128,-52 l 23,-34 -23,-9 c -13,-4 -68,-3 -127,2 -57,6 -171,11 -252,11 -81,0 -150,3 -153,8 -2,4 -6,113 -8,242 l -3,235 40,12 c 22,7 113,33 202,58 89,24 200,60 245,80 112,49 419,234 510,307 184,150 409,410 503,583 163,298 280,710 288,1009 1,62 -2,100 -8,103 -6,2 -29,-10 -50,-26 z M 6519,2738 c 223,-41 372,-86 443,-133 43,-29 93,-99 110,-158 9,-31 9,-41 -4,-53 -13,-13 -18,-11 -41,24 -76,108 -177,155 -530,243 -295,73 -343,75 -361,12 -8,-27 22,-45 104,-62 30,-6 100,-25 155,-42 401,-122 506,-172 542,-257 17,-42 9,-70 -24,-83 -14,-5 -27,-8 -27,-7 -43,72 -89,101 -281,177 -84,34 -158,61 -164,61 -33,0 -270,88 -309,114 -66,45 -70,56 -39,98 15,19 33,50 42,70 24,58 53,58 384,-4 z m -546,-268 c 57,-11 143,-34 193,-51 49,-16 139,-46 201,-64 200,-62 287,-112 281,-164 -4,-37 -43,-39 -115,-3 -102,51 -472,170 -627,202 -54,11 -100,20 -102,20 -2,0 -8,8 -13,18 -15,28 13,62 49,62 16,0 76,-9 133,-20 z"
         id="path18" /><path
         d="m 7131,4381 c -5,-9 -25,-68 -46,-131 -21,-63 -54,-149 -73,-190 -19,-41 -52,-118 -74,-170 -22,-52 -64,-141 -94,-196 -30,-56 -54,-105 -54,-108 0,-12 48,-6 101,13 124,42 248,121 363,230 66,63 118,135 166,231 35,70 110,271 110,296 0,14 -17,15 -137,9 -122,-6 -145,-5 -196,13 -52,17 -59,18 -66,3 z"
         id="path19" /><path
         d="m 3656,3043 c -3,-4 -6,-26 -6,-49 0,-24 -4,-45 -9,-48 -5,-3 -66,-13 -137,-21 -414,-50 -543,-92 -669,-220 -213,-215 -160,-507 115,-639 l 85,-41 240,1 c 546,3 1414,15 1463,20 50,5 55,8 83,52 29,46 29,47 29,202 0,217 -10,374 -24,360 -5,-5 -38,-10 -72,-10 h -61 l -9,-202 -9,-203 -170,-6 c -93,-4 -215,-12 -270,-18 -149,-16 -155,-15 -155,13 0,32 14,41 85,60 59,15 296,53 365,58 25,2 36,8 39,22 7,41 -11,267 -23,271 -6,1 -76,20 -156,40 -239,63 -414,145 -585,275 -89,68 -137,95 -149,83 z m 155,-325 70,-72 -33,-34 c -62,-65 -109,-89 -247,-127 -296,-81 -439,-144 -514,-224 -26,-28 -53,-51 -59,-51 -20,0 -48,32 -48,55 0,32 78,115 137,148 76,41 392,151 541,188 l 133,33 -7,30 c -11,52 -22,59 -84,53 -114,-12 -502,-121 -621,-175 -60,-27 -134,-95 -155,-142 -10,-22 -21,-40 -26,-40 -12,0 -28,37 -28,67 0,41 46,127 83,159 34,29 132,76 194,94 103,29 503,106 566,109 23,1 42,-13 98,-71 z m 303,-224 c 24,-9 20,-51 -6,-68 -13,-8 -165,-60 -338,-116 -173,-56 -333,-111 -355,-122 -84,-43 -135,-41 -135,7 0,33 58,75 159,113 101,39 607,188 648,191 6,1 18,-2 27,-5 z"
         id="path20" /><path
         d="m 7655,2664 c -45,-23 -73,-53 -86,-92 -25,-75 19,-163 91,-182 82,-22 153,14 185,92 20,52 14,96 -22,138 -49,58 -110,74 -168,44 z"
         id="path21" /><path
         d="m 3873,1678 c -5,-7 -21,-34 -36,-59 -34,-60 -99,-119 -172,-155 -54,-26 -69,-29 -160,-29 -88,0 -107,4 -161,29 -66,30 -120,79 -152,137 -56,101 -65,102 -121,14 -157,-243 -497,-247 -636,-9 -23,38 -44,64 -54,64 -10,0 -34,-26 -56,-60 -43,-67 -90,-108 -167,-148 -49,-25 -62,-27 -168,-27 -112,0 -117,1 -177,34 -34,18 -79,51 -99,74 l -38,40 -28,-33 c -31,-37 -44,-86 -34,-126 9,-34 87,-117 140,-148 64,-37 141,-56 230,-56 144,0 237,38 328,132 l 58,60 67,-62 c 91,-84 172,-122 273,-128 143,-8 245,30 347,130 l 62,61 60,-56 c 34,-31 94,-72 137,-94 68,-33 86,-38 168,-41 74,-3 103,0 156,18 84,28 151,71 200,129 l 40,46 29,-36 c 67,-81 194,-143 315,-155 126,-12 282,53 357,147 17,22 35,39 39,39 5,0 32,-24 60,-54 92,-98 205,-141 349,-134 78,4 99,9 164,41 52,26 91,54 126,93 l 51,56 54,-54 c 147,-147 339,-177 532,-83 30,15 74,49 104,81 l 50,56 41,-40 c 191,-192 462,-200 655,-20 l 64,60 62,-57 c 89,-80 188,-127 281,-133 142,-9 252,32 357,134 l 68,66 39,-43 c 53,-59 144,-116 226,-141 121,-36 296,-9 402,63 41,28 91,94 101,133 8,32 -18,106 -46,131 -20,18 -21,17 -66,-28 -25,-25 -71,-59 -102,-74 -52,-26 -67,-28 -167,-28 -102,0 -114,2 -170,30 -73,37 -131,93 -167,162 -16,29 -35,53 -42,53 -8,0 -31,-25 -52,-55 -46,-70 -102,-118 -184,-158 -59,-29 -74,-32 -155,-32 -77,0 -99,5 -148,28 -83,38 -131,79 -172,148 -20,32 -42,59 -49,59 -7,0 -36,-29 -64,-64 -55,-69 -113,-114 -190,-149 -36,-16 -68,-21 -137,-21 -142,-1 -240,43 -303,139 -36,56 -70,95 -82,95 -4,0 -24,-27 -44,-59 -39,-64 -102,-117 -183,-153 -39,-18 -65,-22 -138,-22 -154,1 -257,59 -316,175 -16,33 -36,59 -44,59 -8,0 -26,-19 -41,-41 -41,-65 -110,-126 -182,-161 -61,-29 -76,-32 -162,-33 -86,0 -101,3 -160,31 -90,43 -122,73 -159,149 -22,48 -36,66 -48,63 -9,-2 -36,-31 -60,-66 -52,-77 -81,-102 -158,-141 -85,-43 -171,-50 -263,-22 -105,31 -161,74 -197,147 -45,91 -62,108 -82,82 z"
         id="path22" /></g><g
       transform="matrix(0.00392643,0,0,-0.00392643,100.37154,147.89818)"
       fill="#000000"
       stroke="none"
       id="g29"><path
         d="m 5675,9605 c -263,-49 -453,-137 -605,-281 l -35,-33 -61,19 c -343,106 -734,-12 -941,-285 -54,-70 -125,-216 -144,-295 -19,-76 -17,-277 4,-362 32,-129 132,-300 198,-336 35,-20 35,-11 -5,-197 -14,-66 -28,-150 -32,-186 -12,-117 29,-152 134,-115 62,22 282,55 452,67 438,32 1007,-57 1455,-226 458,-173 715,-328 1088,-654 142,-124 181,-151 214,-151 43,0 117,127 208,361 l 37,96 77,7 c 170,14 300,66 418,165 144,121 234,259 289,446 24,80 27,107 28,240 0,167 -15,252 -74,401 -105,263 -388,556 -664,685 -208,96 -508,129 -730,79 -27,-6 -42,-6 -45,1 -10,29 -130,176 -179,219 -127,112 -225,173 -390,248 -199,88 -491,125 -697,87 z m 368,-220 c 293,-51 546,-205 682,-415 54,-82 71,-123 100,-235 l 23,-90 55,-3 c 77,-4 97,16 97,96 0,31 4,62 8,69 28,44 290,62 426,29 186,-44 339,-131 478,-271 154,-156 260,-324 304,-485 26,-93 24,-289 -3,-387 -40,-143 -142,-282 -257,-350 -44,-26 -182,-83 -200,-83 -1,0 -2,11 -2,24 -1,13 -15,44 -32,68 l -30,44 45,24 c 75,40 212,216 187,240 -5,5 -36,0 -69,-12 -33,-11 -98,-26 -145,-34 -47,-8 -107,-19 -133,-25 l -49,-11 -41,40 c -23,22 -63,55 -88,74 l -47,35 55,44 c 111,88 220,227 238,302 9,34 -4,35 -54,2 -36,-24 -208,-89 -394,-149 l -88,-29 -57,36 c -83,51 -332,178 -444,227 -54,23 -98,46 -98,51 0,6 11,31 24,57 36,72 56,155 63,270 5,88 4,102 -9,102 -9,0 -60,-51 -113,-112 -54,-62 -124,-141 -156,-176 l -58,-62 -83,24 c -70,20 -336,73 -459,91 -35,5 -36,6 -72,113 -25,74 -40,142 -48,220 -7,61 -16,112 -21,112 -17,0 -69,-65 -93,-115 -25,-54 -55,-192 -55,-257 v -41 l -97,7 c -54,3 -136,9 -183,12 l -86,6 -52,73 c -29,40 -67,101 -83,135 -17,33 -36,59 -43,57 -6,-2 -22,-32 -35,-68 -18,-48 -24,-83 -23,-141 0,-43 -1,-78 -2,-78 -1,0 -56,-7 -121,-15 -66,-8 -121,-15 -122,-15 -7,0 -89,149 -108,197 -13,32 -28,59 -33,61 -6,2 -23,-23 -39,-55 -24,-50 -28,-71 -30,-153 l -2,-95 -67,-17 c -37,-10 -71,-21 -76,-26 -4,-4 -14,-28 -21,-53 l -13,-44 -37,75 c -69,139 -82,284 -38,413 92,267 320,427 609,427 77,0 161,-12 180,-26 2,-1 -8,-31 -22,-66 -14,-35 -26,-88 -28,-118 l -3,-53 70,-13 c 39,-7 75,-13 82,-13 6,-1 32,41 57,92 25,51 67,119 94,152 186,231 546,349 885,290 z M 5440,8249 c 652,-71 1161,-252 1645,-585 152,-104 220,-159 340,-272 l 96,-91 -19,-38 c -11,-21 -47,-108 -81,-193 -34,-85 -65,-161 -70,-169 -7,-11 -17,-6 -47,24 -52,50 -155,133 -289,232 -334,246 -839,458 -1380,579 -339,75 -652,102 -1005,84 -199,-10 -249,-14 -306,-25 -20,-5 -19,3 28,188 28,105 52,194 53,196 12,12 340,67 478,81 107,10 420,4 557,-11 z"
         id="path1-1" /><path
         d="m 3834,7497 c -169,-171 -328,-419 -419,-657 -45,-114 -111,-391 -126,-519 -18,-160 -7,-411 24,-541 36,-151 99,-327 167,-466 128,-261 462,-611 707,-742 15,-8 31,-5 71,13 66,31 181,55 272,57 l 70,2 -75,27 c -41,15 -117,50 -169,78 -382,207 -632,544 -712,958 -21,109 -24,408 -5,498 108,508 446,841 797,787 223,-35 472,-232 585,-462 45,-91 61,-100 173,-100 123,0 142,6 161,54 53,128 93,193 164,268 177,189 350,265 581,255 187,-7 326,-69 480,-214 158,-149 247,-313 296,-545 19,-91 21,-188 12,-498 -6,-210 -12,-248 -54,-381 -74,-230 -305,-460 -619,-617 -106,-52 -217,-91 -405,-141 -331,-87 -691,-95 -981,-21 -105,27 -115,25 -44,-9 59,-28 138,-102 241,-227 l 41,-49 169,1 c 198,1 278,11 509,64 289,67 567,172 795,300 206,116 338,232 480,424 122,164 140,186 148,186 4,0 18,-38 31,-85 20,-71 22,-89 12,-108 -20,-37 -63,-57 -125,-57 -76,0 -90,-20 -75,-109 5,-35 7,-70 4,-79 -7,-22 -305,-203 -474,-287 -153,-76 -365,-160 -461,-182 -253,-59 -422,-118 -477,-166 -36,-32 -36,-32 -12,-38 45,-13 233,-9 319,6 123,22 236,52 303,82 34,15 61,22 66,17 5,-5 26,-56 46,-114 37,-105 70,-170 85,-170 4,0 26,24 48,54 45,59 122,125 122,104 0,-22 -25,-63 -112,-186 -93,-132 -300,-351 -448,-474 -176,-147 -287,-308 -212,-308 26,0 108,52 242,152 234,175 377,320 540,548 135,190 219,377 240,538 5,41 15,86 22,100 17,35 53,41 62,10 17,-65 -5,-253 -43,-367 -33,-96 -121,-265 -202,-387 -90,-135 -309,-358 -446,-453 -183,-128 -304,-181 -433,-188 -52,-3 -101,-12 -127,-23 -24,-10 -43,-16 -43,-12 0,4 32,43 71,87 38,44 91,109 117,145 92,129 273,364 327,425 78,88 99,196 50,249 -54,59 -66,60 -452,57 l -351,-2 -77,31 c -77,30 -173,49 -251,50 -41,0 -42,1 -53,46 -18,72 -78,182 -127,234 -51,54 -173,123 -250,140 -173,40 -407,-19 -530,-132 -51,-47 -107,-153 -124,-233 -9,-43 -15,-55 -31,-55 -12,0 -21,9 -25,28 -21,95 -74,184 -149,250 -27,24 -86,61 -131,84 -77,38 -89,41 -192,46 -180,8 -283,-30 -404,-149 -62,-61 -118,-151 -118,-192 0,-7 -5,-28 -10,-47 l -10,-35 -72,3 c -92,5 -204,-18 -286,-59 -73,-36 -149,-120 -205,-228 -32,-60 -42,-90 -61,-172 -5,-23 -10,-26 -45,-25 -47,1 -62,-12 -164,-134 -39,-47 -101,-119 -138,-160 -37,-42 -72,-87 -78,-102 -14,-37 2,-88 59,-183 26,-44 67,-115 91,-159 24,-43 58,-91 76,-107 70,-61 85,-62 1168,-79 314,-5 611,-14 660,-19 246,-27 1107,-65 1345,-60 143,4 159,6 210,30 30,15 70,40 89,56 33,28 34,31 22,60 -7,17 -26,43 -42,59 -25,24 -29,35 -29,84 0,51 11,80 32,80 4,0 8,-24 8,-54 0,-51 2,-55 33,-69 17,-8 50,-20 72,-27 22,-7 69,-28 105,-46 159,-83 414,-102 670,-50 329,66 534,158 666,297 75,80 166,206 169,234 2,13 30,61 64,107 67,92 102,163 126,253 22,81 31,316 16,396 -20,97 -118,377 -151,429 -16,26 -30,54 -30,63 0,27 50,21 142,-19 94,-40 238,-84 275,-84 18,0 42,-17 78,-55 57,-59 68,-63 119,-41 41,17 68,53 136,178 38,70 74,119 131,176 53,54 81,92 89,119 10,32 24,48 74,81 33,22 82,51 109,63 30,15 47,29 47,41 0,10 -33,66 -73,125 -50,74 -82,133 -100,187 -64,191 -195,307 -442,392 -67,23 -101,29 -208,32 -112,4 -137,1 -198,-18 -45,-15 -84,-36 -114,-62 -25,-22 -45,-38 -45,-36 0,2 14,44 30,94 56,164 83,321 84,489 1,83 -3,167 -7,188 -7,34 -14,40 -65,63 -64,28 -126,73 -267,194 -257,219 -358,286 -648,431 -407,205 -812,323 -1299,380 -63,7 -202,9 -385,6 -271,-5 -297,-7 -433,-35 -196,-41 -241,-60 -318,-135 -164,-160 -301,-374 -391,-610 -71,-185 -97,-314 -134,-657 -2,-19 -5,44 -5,140 -3,287 47,498 178,760 49,97 178,292 263,398 38,47 67,92 67,105 0,12 -9,36 -20,52 -11,17 -20,45 -20,63 0,17 -3,32 -7,32 -5,-1 -45,-38 -89,-83 z M 7727,5540 c 182,-30 413,-184 413,-275 0,-93 -8,-95 -475,-120 -360,-20 -325,-22 -325,20 0,69 -46,126 -107,132 -21,2 -39,6 -41,8 -8,8 18,40 54,67 224,163 316,195 481,168 z m 470,-538 c 14,-9 43,-74 43,-97 0,-9 -9,-15 -22,-15 -38,-1 -99,-34 -178,-97 -62,-49 -83,-73 -114,-132 -21,-40 -44,-75 -52,-78 -7,-3 -51,11 -96,30 -46,19 -117,45 -158,57 -110,31 -179,58 -309,115 -136,61 -142,71 -75,129 l 45,40 292,2 c 269,1 301,3 412,26 126,27 192,33 212,20 z M 4601,4414 c 113,-33 230,-138 268,-239 12,-31 21,-61 21,-68 0,-7 -20,-18 -44,-25 -35,-9 -65,-31 -144,-109 -89,-88 -102,-106 -126,-169 -45,-121 -87,-137 -115,-43 -28,90 -71,157 -144,224 -68,64 -133,102 -191,115 -26,5 -31,11 -29,34 3,36 50,129 91,177 38,44 102,85 165,104 58,19 183,18 248,-1 z m -1027,-34 c 90,-35 178,-135 204,-232 l 10,-38 -76,-40 c -92,-47 -140,-86 -194,-154 -23,-28 -38,-41 -34,-30 8,27 -43,74 -82,74 -35,0 -72,-37 -72,-72 0,-56 82,-102 118,-66 18,18 14,1 -16,-72 -23,-54 -31,-66 -53,-68 -22,-3 -27,2 -32,28 -4,17 -21,65 -38,107 -41,98 -131,196 -224,245 -70,36 -75,45 -51,103 42,100 128,183 229,221 82,32 221,29 311,-6 z m -676,-395 c 186,-44 309,-178 320,-351 6,-98 -2,-131 -49,-204 -34,-53 -43,-61 -63,-56 -20,5 -23,3 -19,-18 6,-30 -39,-66 -127,-102 -125,-51 -210,-45 -322,21 -99,59 -178,143 -206,218 -76,203 70,453 291,496 64,13 106,12 175,-4 z m 1155,0 c 118,-35 211,-107 257,-195 48,-94 52,-266 7,-342 -138,-233 -326,-295 -551,-181 -66,34 -153,123 -185,192 -23,49 -26,69 -26,156 1,122 21,172 105,256 112,113 258,155 393,114 z m 1170,-15 c 66,-25 150,-89 184,-139 46,-68 67,-141 67,-236 1,-98 -11,-133 -63,-196 -29,-34 -29,-34 -50,-15 -12,11 -21,28 -21,38 0,11 -5,18 -12,16 -23,-8 -20,-40 6,-67 l 26,-27 -29,-35 c -71,-85 -211,-121 -337,-84 -73,21 -191,93 -238,145 -67,74 -80,113 -81,230 0,94 3,111 27,163 31,65 119,157 183,190 102,52 231,59 338,17 z m 787,-75 c 0,-5 -23,-41 -50,-80 -27,-38 -80,-115 -118,-170 -99,-142 -261,-352 -329,-425 -83,-91 -133,-120 -202,-119 -56,0 -56,0 -31,17 89,61 200,166 238,225 111,169 119,315 28,501 l -33,68 248,-3 c 157,-3 249,-8 249,-14 z M 4543,3511 c 15,-130 143,-288 308,-382 l 54,-30 -315,5 c -173,3 -341,9 -372,12 l -57,7 62,45 c 136,100 225,220 249,336 11,51 15,56 39,56 24,0 27,-4 32,-49 z m -1123,9 c 0,-83 87,-221 194,-308 l 71,-57 -145,-8 c -143,-8 -412,-2 -479,10 l -34,6 54,20 c 108,40 233,202 263,340 6,23 11,27 41,27 32,0 35,-2 35,-30 z m -1130,-62 c 23,-86 128,-210 219,-258 l 36,-19 -100,-1 c -87,0 -239,11 -341,26 -17,2 -39,10 -49,18 -18,13 -12,20 76,116 52,56 102,115 112,131 11,16 23,29 28,29 4,0 13,-19 19,-42 z m 165,-442 c 88,-8 192,-20 230,-27 40,-6 136,-10 225,-9 390,8 777,1 888,-14 80,-11 193,-16 385,-16 150,0 394,-5 542,-11 149,-6 359,-11 467,-12 l 197,-2 -6,-25 c -10,-41 -31,-77 -50,-85 -54,-24 -503,-15 -948,20 -203,16 -612,29 -1375,45 -261,6 -549,13 -639,17 -154,6 -165,8 -193,31 -16,13 -38,42 -49,63 l -19,39 h 92 c 51,0 165,-7 253,-14 z"
         id="path2-1" /><path
         d="m 4280,4253 c -28,-32 -32,-41 -27,-77 11,-83 100,-116 151,-55 37,44 35,88 -8,133 -44,47 -74,47 -116,-1 z"
         id="path3-5" /><path
         d="m 4600,4213 c -30,-24 -32,-30 -27,-72 7,-59 50,-101 105,-101 20,0 42,4 48,8 40,27 58,111 32,144 -44,54 -109,62 -158,21 z"
         id="path4-2" /><path
         d="m 4431,3953 c -54,-67 65,-178 122,-115 29,32 21,76 -18,111 -44,38 -77,40 -104,4 z"
         id="path5-7" /><path
         d="m 3171,4234 c -13,-9 -29,-32 -37,-50 -12,-29 -12,-39 0,-68 24,-58 105,-85 153,-51 12,8 27,31 33,49 14,44 -6,88 -53,116 -39,24 -65,25 -96,4 z"
         id="path6-6" /><path
         d="m 3571,4204 c -15,-19 -21,-41 -21,-76 0,-47 2,-50 36,-64 32,-14 38,-13 60,1 50,33 57,94 15,136 -36,36 -63,37 -90,3 z"
         id="path7-1" /><path
         d="m 2669,3859 c -18,-20 -29,-42 -29,-60 0,-87 117,-143 175,-84 34,33 35,102 3,132 -58,53 -107,57 -149,12 z"
         id="path8-4" /><path
         d="m 2955,3714 c -24,-22 -27,-30 -22,-72 7,-61 41,-92 102,-92 37,0 47,5 64,29 33,46 28,93 -14,130 -46,40 -91,42 -130,5 z"
         id="path9-2" /><path
         d="m 2505,3624 c -36,-39 -34,-96 4,-135 33,-32 58,-36 100,-14 33,16 41,33 41,82 0,25 -8,43 -29,64 -38,38 -83,39 -116,3 z"
         id="path10-3" /><path
         d="m 2775,3461 c -34,-15 -57,-47 -53,-77 3,-32 57,-74 94,-74 65,0 104,100 52,134 -31,20 -69,27 -93,17 z"
         id="path11-2" /><path
         d="m 3776,3809 c -45,-53 -30,-111 38,-143 88,-41 155,66 90,143 -20,25 -34,31 -64,31 -30,0 -44,-6 -64,-31 z"
         id="path12-2" /><path
         d="m 4092,3734 c -32,-22 -44,-50 -36,-89 17,-95 136,-118 179,-35 24,46 19,75 -20,109 -40,35 -87,41 -123,15 z"
         id="path13-1" /><path
         d="m 3647,3588 c -46,-36 -33,-114 24,-144 41,-20 64,-17 83,11 27,41 29,77 7,113 -18,27 -27,32 -59,32 -21,0 -46,-6 -55,-12 z"
         id="path14-6" /><path
         d="m 3897,3468 c -9,-7 -21,-26 -27,-42 -14,-37 7,-72 55,-92 45,-19 48,-18 84,12 40,33 40,66 2,105 -32,32 -84,39 -114,17 z"
         id="path15-8" /><path
         d="m 4907,3810 c -14,-11 -29,-34 -32,-51 -6,-26 -2,-36 26,-65 54,-55 129,-43 148,23 10,36 -8,87 -38,102 -31,17 -76,13 -104,-9 z"
         id="path16-5" /><path
         d="m 5223,3735 c -83,-36 -34,-185 61,-185 38,0 72,31 85,77 12,41 -11,87 -54,107 -40,19 -51,19 -92,1 z"
         id="path17-7" /><path
         d="m 4761,3594 c -35,-44 -31,-89 10,-126 40,-38 81,-37 108,1 29,40 27,83 -5,120 -34,41 -83,43 -113,5 z"
         id="path18-6" /><path
         d="m 5002,3447 c -33,-35 -29,-79 9,-111 17,-14 41,-26 53,-26 36,0 74,36 82,77 6,32 3,40 -20,60 -37,31 -95,31 -124,0 z"
         id="path19-1" /><path
         d="m 2696,6869 c -26,-53 -55,-104 -65,-113 -10,-9 -45,-29 -79,-46 -52,-25 -82,-52 -82,-74 0,-3 31,-21 70,-42 59,-31 76,-46 117,-107 26,-38 56,-75 65,-81 22,-14 48,10 88,80 23,41 46,64 102,101 94,62 95,76 8,123 -72,39 -103,77 -126,157 -8,29 -24,63 -34,75 l -18,23 z"
         id="path20-8" /><path
         d="m 8139,6758 c -51,-103 -58,-111 -141,-159 -38,-22 -68,-46 -68,-54 0,-15 17,-29 92,-75 34,-21 57,-47 88,-98 22,-38 49,-77 60,-87 18,-16 20,-16 42,7 13,14 39,52 59,84 28,46 48,67 90,91 30,17 65,42 78,57 24,25 24,26 5,47 -10,12 -39,32 -64,44 -60,31 -93,67 -129,144 -28,59 -44,80 -63,81 -4,0 -26,-37 -49,-82 z"
         id="path21-9" /><path
         d="m 4198,6579 c -55,-29 -107,-85 -137,-148 -23,-50 -26,-68 -26,-166 0,-98 3,-116 26,-166 52,-110 145,-169 245,-155 141,19 239,125 265,286 23,143 -46,297 -156,349 -60,28 -164,28 -217,0 z m 207,-105 c 50,-54 26,-145 -45,-174 -65,-27 -150,27 -150,94 1,68 44,105 123,106 39,0 52,-5 72,-26 z"
         id="path22-2" /><path
         d="m 6012,6585 c -58,-25 -93,-56 -132,-117 -93,-142 -72,-335 47,-452 60,-59 115,-80 191,-73 165,14 273,164 259,358 -12,181 -120,300 -271,299 -34,-1 -76,-7 -94,-15 z m 135,-86 c 50,-19 73,-48 73,-94 0,-43 -19,-69 -67,-94 -75,-39 -163,21 -163,112 0,65 82,105 157,76 z"
         id="path23" /><path
         d="m 5019,6160 c -84,-21 -190,-67 -256,-112 -121,-82 -233,-206 -233,-258 0,-50 236,-306 358,-389 161,-109 397,-109 558,-1 120,81 354,353 354,412 0,24 -100,130 -195,207 -80,64 -193,123 -280,146 -79,20 -212,18 -306,-5 z m 271,-156 c 71,-16 213,-74 273,-111 31,-20 37,-29 37,-58 0,-37 9,-31 -160,-115 -81,-41 -151,-54 -290,-55 -154,0 -216,13 -332,70 -113,56 -113,57 -46,120 69,65 214,139 308,159 68,15 104,13 210,-10 z"
         id="path24" /><path
         d="m 3615,4793 c -120,-128 -139,-152 -123,-157 7,-2 51,-16 98,-30 104,-31 188,-83 283,-177 39,-38 72,-69 73,-69 1,0 18,25 38,55 20,30 43,55 51,55 22,0 19,6 -30,51 -25,23 -62,67 -83,98 -36,54 -211,261 -220,261 -3,0 -42,-39 -87,-87 z"
         id="path25" /><path
         d="m 7350,3143 c -192,-220 -330,-318 -560,-399 -77,-26 -90,-42 -128,-149 -38,-104 -61,-150 -137,-265 -166,-252 -427,-443 -743,-546 -178,-57 -253,-68 -472,-68 -222,0 -323,14 -510,71 -138,41 -229,79 -342,139 -258,138 -493,397 -590,652 l -16,42 h -241 c -150,0 -241,-4 -241,-10 0,-46 116,-280 201,-406 195,-290 460,-487 829,-619 137,-49 202,-78 218,-97 21,-26 1,-28 -94,-13 -158,25 -385,106 -522,184 -108,62 -109,62 -245,50 -162,-13 -678,-75 -792,-95 -277,-46 -445,-116 -445,-183 0,-62 91,-99 361,-150 261,-49 717,-96 1179,-121 664,-36 773,-39 1410,-40 970,0 1494,28 2142,115 311,42 508,91 569,143 34,28 39,70 11,95 -50,46 -226,106 -410,141 -106,20 -520,73 -632,81 -47,3 -132,13 -190,22 -58,8 -118,15 -133,15 -17,0 -61,-22 -105,-51 -207,-135 -508,-232 -682,-219 -68,5 -93,20 -70,42 8,8 89,37 180,65 216,67 289,97 443,179 157,83 266,161 373,267 101,100 170,203 250,369 83,174 124,313 179,606 13,69 28,138 34,153 13,32 15,87 4,86 -5,0 -42,-39 -83,-86 z"
         id="path26" /><path
         d="m 7506,2988 c -2,-7 -9,-47 -15,-88 -17,-111 -86,-376 -119,-456 -50,-123 -180,-328 -308,-485 -30,-36 -54,-69 -54,-73 0,-10 54,-7 91,6 19,6 52,23 74,38 22,15 84,50 139,80 128,69 230,147 342,262 133,137 226,286 260,419 26,103 2,141 -121,189 -33,13 -107,45 -164,72 -113,52 -120,54 -125,36 z"
         id="path27" /><path
         d="m 4665,2447 c -43,-20 -93,-80 -101,-121 -4,-26 0,-48 16,-82 31,-63 70,-86 137,-81 117,8 190,130 133,222 -35,56 -128,87 -185,62 z"
         id="path28" /><path
         d="m 5604,2446 c -50,-22 -89,-81 -89,-135 0,-59 30,-102 90,-131 41,-20 51,-21 93,-10 76,19 122,75 122,148 0,101 -117,171 -216,128 z"
         id="path29" /></g></g></svg>
