<?xml version="1.0" standalone="no"?>
<!DOCTYPE svg PUBLIC "-//W3C//DTD SVG 20010904//EN"
 "http://www.w3.org/TR/2001/REC-SVG-20010904/DTD/svg10.dtd">
<svg version="1.0" xmlns="http://www.w3.org/2000/svg"
 width="1024.000000pt" height="1024.000000pt" viewBox="0 0 1024.000000 1024.000000"
 preserveAspectRatio="xMidYMid meet">
<metadata>
Created by potrace 1.16, written by Peter Selinger 2001-2019
</metadata>
<g transform="translate(0.000000,1024.000000) scale(0.100000,-0.100000)"
fill="#000000" stroke="none">
<path d="M5675 9605 c-263 -49 -453 -137 -605 -281 l-35 -33 -61 19 c-343 106
-734 -12 -941 -285 -54 -70 -125 -216 -144 -295 -19 -76 -17 -277 4 -362 32
-129 132 -300 198 -336 35 -20 35 -11 -5 -197 -14 -66 -28 -150 -32 -186 -12
-117 29 -152 134 -115 62 22 282 55 452 67 438 32 1007 -57 1455 -226 458
-173 715 -328 1088 -654 142 -124 181 -151 214 -151 43 0 117 127 208 361 l37
96 77 7 c170 14 300 66 418 165 144 121 234 259 289 446 24 80 27 107 28 240
0 167 -15 252 -74 401 -105 263 -388 556 -664 685 -208 96 -508 129 -730 79
-27 -6 -42 -6 -45 1 -10 29 -130 176 -179 219 -127 112 -225 173 -390 248
-199 88 -491 125 -697 87z m368 -220 c293 -51 546 -205 682 -415 54 -82 71
-123 100 -235 l23 -90 55 -3 c77 -4 97 16 97 96 0 31 4 62 8 69 28 44 290 62
426 29 186 -44 339 -131 478 -271 154 -156 260 -324 304 -485 26 -93 24 -289
-3 -387 -40 -143 -142 -282 -257 -350 -44 -26 -182 -83 -200 -83 -1 0 -2 11
-2 24 -1 13 -15 44 -32 68 l-30 44 45 24 c75 40 212 216 187 240 -5 5 -36 0
-69 -12 -33 -11 -98 -26 -145 -34 -47 -8 -107 -19 -133 -25 l-49 -11 -41 40
c-23 22 -63 55 -88 74 l-47 35 55 44 c111 88 220 227 238 302 9 34 -4 35 -54
2 -36 -24 -208 -89 -394 -149 l-88 -29 -57 36 c-83 51 -332 178 -444 227 -54
23 -98 46 -98 51 0 6 11 31 24 57 36 72 56 155 63 270 5 88 4 102 -9 102 -9 0
-60 -51 -113 -112 -54 -62 -124 -141 -156 -176 l-58 -62 -83 24 c-70 20 -336
73 -459 91 -35 5 -36 6 -72 113 -25 74 -40 142 -48 220 -7 61 -16 112 -21 112
-17 0 -69 -65 -93 -115 -25 -54 -55 -192 -55 -257 l0 -41 -97 7 c-54 3 -136 9
-183 12 l-86 6 -52 73 c-29 40 -67 101 -83 135 -17 33 -36 59 -43 57 -6 -2
-22 -32 -35 -68 -18 -48 -24 -83 -23 -141 0 -43 -1 -78 -2 -78 -1 0 -56 -7
-121 -15 -66 -8 -121 -15 -122 -15 -7 0 -89 149 -108 197 -13 32 -28 59 -33
61 -6 2 -23 -23 -39 -55 -24 -50 -28 -71 -30 -153 l-2 -95 -67 -17 c-37 -10
-71 -21 -76 -26 -4 -4 -14 -28 -21 -53 l-13 -44 -37 75 c-69 139 -82 284 -38
413 92 267 320 427 609 427 77 0 161 -12 180 -26 2 -1 -8 -31 -22 -66 -14 -35
-26 -88 -28 -118 l-3 -53 70 -13 c39 -7 75 -13 82 -13 6 -1 32 41 57 92 25 51
67 119 94 152 186 231 546 349 885 290z m-603 -1136 c652 -71 1161 -252 1645
-585 152 -104 220 -159 340 -272 l96 -91 -19 -38 c-11 -21 -47 -108 -81 -193
-34 -85 -65 -161 -70 -169 -7 -11 -17 -6 -47 24 -52 50 -155 133 -289 232
-334 246 -839 458 -1380 579 -339 75 -652 102 -1005 84 -199 -10 -249 -14
-306 -25 -20 -5 -19 3 28 188 28 105 52 194 53 196 12 12 340 67 478 81 107
10 420 4 557 -11z"/>
<path d="M3834 7497 c-169 -171 -328 -419 -419 -657 -45 -114 -111 -391 -126
-519 -18 -160 -7 -411 24 -541 36 -151 99 -327 167 -466 128 -261 462 -611
707 -742 15 -8 31 -5 71 13 66 31 181 55 272 57 l70 2 -75 27 c-41 15 -117 50
-169 78 -382 207 -632 544 -712 958 -21 109 -24 408 -5 498 108 508 446 841
797 787 223 -35 472 -232 585 -462 45 -91 61 -100 173 -100 123 0 142 6 161
54 53 128 93 193 164 268 177 189 350 265 581 255 187 -7 326 -69 480 -214
158 -149 247 -313 296 -545 19 -91 21 -188 12 -498 -6 -210 -12 -248 -54 -381
-74 -230 -305 -460 -619 -617 -106 -52 -217 -91 -405 -141 -331 -87 -691 -95
-981 -21 -105 27 -115 25 -44 -9 59 -28 138 -102 241 -227 l41 -49 169 1 c198
1 278 11 509 64 289 67 567 172 795 300 206 116 338 232 480 424 122 164 140
186 148 186 4 0 18 -38 31 -85 20 -71 22 -89 12 -108 -20 -37 -63 -57 -125
-57 -76 0 -90 -20 -75 -109 5 -35 7 -70 4 -79 -7 -22 -305 -203 -474 -287
-153 -76 -365 -160 -461 -182 -253 -59 -422 -118 -477 -166 -36 -32 -36 -32
-12 -38 45 -13 233 -9 319 6 123 22 236 52 303 82 34 15 61 22 66 17 5 -5 26
-56 46 -114 37 -105 70 -170 85 -170 4 0 26 24 48 54 45 59 122 125 122 104 0
-22 -25 -63 -112 -186 -93 -132 -300 -351 -448 -474 -176 -147 -287 -308 -212
-308 26 0 108 52 242 152 234 175 377 320 540 548 135 190 219 377 240 538 5
41 15 86 22 100 17 35 53 41 62 10 17 -65 -5 -253 -43 -367 -33 -96 -121 -265
-202 -387 -90 -135 -309 -358 -446 -453 -183 -128 -304 -181 -433 -188 -52 -3
-101 -12 -127 -23 -24 -10 -43 -16 -43 -12 0 4 32 43 71 87 38 44 91 109 117
145 92 129 273 364 327 425 78 88 99 196 50 249 -54 59 -66 60 -452 57 l-351
-2 -77 31 c-77 30 -173 49 -251 50 -41 0 -42 1 -53 46 -18 72 -78 182 -127
234 -51 54 -173 123 -250 140 -173 40 -407 -19 -530 -132 -51 -47 -107 -153
-124 -233 -9 -43 -15 -55 -31 -55 -12 0 -21 9 -25 28 -21 95 -74 184 -149 250
-27 24 -86 61 -131 84 -77 38 -89 41 -192 46 -180 8 -283 -30 -404 -149 -62
-61 -118 -151 -118 -192 0 -7 -5 -28 -10 -47 l-10 -35 -72 3 c-92 5 -204 -18
-286 -59 -73 -36 -149 -120 -205 -228 -32 -60 -42 -90 -61 -172 -5 -23 -10
-26 -45 -25 -47 1 -62 -12 -164 -134 -39 -47 -101 -119 -138 -160 -37 -42 -72
-87 -78 -102 -14 -37 2 -88 59 -183 26 -44 67 -115 91 -159 24 -43 58 -91 76
-107 70 -61 85 -62 1168 -79 314 -5 611 -14 660 -19 246 -27 1107 -65 1345
-60 143 4 159 6 210 30 30 15 70 40 89 56 33 28 34 31 22 60 -7 17 -26 43 -42
59 -25 24 -29 35 -29 84 0 51 11 80 32 80 4 0 8 -24 8 -54 0 -51 2 -55 33 -69
17 -8 50 -20 72 -27 22 -7 69 -28 105 -46 159 -83 414 -102 670 -50 329 66
534 158 666 297 75 80 166 206 169 234 2 13 30 61 64 107 67 92 102 163 126
253 22 81 31 316 16 396 -20 97 -118 377 -151 429 -16 26 -30 54 -30 63 0 27
50 21 142 -19 94 -40 238 -84 275 -84 18 0 42 -17 78 -55 57 -59 68 -63 119
-41 41 17 68 53 136 178 38 70 74 119 131 176 53 54 81 92 89 119 10 32 24 48
74 81 33 22 82 51 109 63 30 15 47 29 47 41 0 10 -33 66 -73 125 -50 74 -82
133 -100 187 -64 191 -195 307 -442 392 -67 23 -101 29 -208 32 -112 4 -137 1
-198 -18 -45 -15 -84 -36 -114 -62 -25 -22 -45 -38 -45 -36 0 2 14 44 30 94
56 164 83 321 84 489 1 83 -3 167 -7 188 -7 34 -14 40 -65 63 -64 28 -126 73
-267 194 -257 219 -358 286 -648 431 -407 205 -812 323 -1299 380 -63 7 -202
9 -385 6 -271 -5 -297 -7 -433 -35 -196 -41 -241 -60 -318 -135 -164 -160
-301 -374 -391 -610 -71 -185 -97 -314 -134 -657 -2 -19 -5 44 -5 140 -3 287
47 498 178 760 49 97 178 292 263 398 38 47 67 92 67 105 0 12 -9 36 -20 52
-11 17 -20 45 -20 63 0 17 -3 32 -7 32 -5 -1 -45 -38 -89 -83z m3893 -1957
c182 -30 413 -184 413 -275 0 -93 -8 -95 -475 -120 -360 -20 -325 -22 -325 20
0 69 -46 126 -107 132 -21 2 -39 6 -41 8 -8 8 18 40 54 67 224 163 316 195
481 168z m470 -538 c14 -9 43 -74 43 -97 0 -9 -9 -15 -22 -15 -38 -1 -99 -34
-178 -97 -62 -49 -83 -73 -114 -132 -21 -40 -44 -75 -52 -78 -7 -3 -51 11 -96
30 -46 19 -117 45 -158 57 -110 31 -179 58 -309 115 -136 61 -142 71 -75 129
l45 40 292 2 c269 1 301 3 412 26 126 27 192 33 212 20z m-3596 -588 c113 -33
230 -138 268 -239 12 -31 21 -61 21 -68 0 -7 -20 -18 -44 -25 -35 -9 -65 -31
-144 -109 -89 -88 -102 -106 -126 -169 -45 -121 -87 -137 -115 -43 -28 90 -71
157 -144 224 -68 64 -133 102 -191 115 -26 5 -31 11 -29 34 3 36 50 129 91
177 38 44 102 85 165 104 58 19 183 18 248 -1z m-1027 -34 c90 -35 178 -135
204 -232 l10 -38 -76 -40 c-92 -47 -140 -86 -194 -154 -23 -28 -38 -41 -34
-30 8 27 -43 74 -82 74 -35 0 -72 -37 -72 -72 0 -56 82 -102 118 -66 18 18 14
1 -16 -72 -23 -54 -31 -66 -53 -68 -22 -3 -27 2 -32 28 -4 17 -21 65 -38 107
-41 98 -131 196 -224 245 -70 36 -75 45 -51 103 42 100 128 183 229 221 82 32
221 29 311 -6z m-676 -395 c186 -44 309 -178 320 -351 6 -98 -2 -131 -49 -204
-34 -53 -43 -61 -63 -56 -20 5 -23 3 -19 -18 6 -30 -39 -66 -127 -102 -125
-51 -210 -45 -322 21 -99 59 -178 143 -206 218 -76 203 70 453 291 496 64 13
106 12 175 -4z m1155 0 c118 -35 211 -107 257 -195 48 -94 52 -266 7 -342
-138 -233 -326 -295 -551 -181 -66 34 -153 123 -185 192 -23 49 -26 69 -26
156 1 122 21 172 105 256 112 113 258 155 393 114z m1170 -15 c66 -25 150 -89
184 -139 46 -68 67 -141 67 -236 1 -98 -11 -133 -63 -196 -29 -34 -29 -34 -50
-15 -12 11 -21 28 -21 38 0 11 -5 18 -12 16 -23 -8 -20 -40 6 -67 l26 -27 -29
-35 c-71 -85 -211 -121 -337 -84 -73 21 -191 93 -238 145 -67 74 -80 113 -81
230 0 94 3 111 27 163 31 65 119 157 183 190 102 52 231 59 338 17z m787 -75
c0 -5 -23 -41 -50 -80 -27 -38 -80 -115 -118 -170 -99 -142 -261 -352 -329
-425 -83 -91 -133 -120 -202 -119 -56 0 -56 0 -31 17 89 61 200 166 238 225
111 169 119 315 28 501 l-33 68 248 -3 c157 -3 249 -8 249 -14z m-1467 -384
c15 -130 143 -288 308 -382 l54 -30 -315 5 c-173 3 -341 9 -372 12 l-57 7 62
45 c136 100 225 220 249 336 11 51 15 56 39 56 24 0 27 -4 32 -49z m-1123 9
c0 -83 87 -221 194 -308 l71 -57 -145 -8 c-143 -8 -412 -2 -479 10 l-34 6 54
20 c108 40 233 202 263 340 6 23 11 27 41 27 32 0 35 -2 35 -30z m-1130 -62
c23 -86 128 -210 219 -258 l36 -19 -100 -1 c-87 0 -239 11 -341 26 -17 2 -39
10 -49 18 -18 13 -12 20 76 116 52 56 102 115 112 131 11 16 23 29 28 29 4 0
13 -19 19 -42z m165 -442 c88 -8 192 -20 230 -27 40 -6 136 -10 225 -9 390 8
777 1 888 -14 80 -11 193 -16 385 -16 150 0 394 -5 542 -11 149 -6 359 -11
467 -12 l197 -2 -6 -25 c-10 -41 -31 -77 -50 -85 -54 -24 -503 -15 -948 20
-203 16 -612 29 -1375 45 -261 6 -549 13 -639 17 -154 6 -165 8 -193 31 -16
13 -38 42 -49 63 l-19 39 92 0 c51 0 165 -7 253 -14z"/>
<path d="M4280 4253 c-28 -32 -32 -41 -27 -77 11 -83 100 -116 151 -55 37 44
35 88 -8 133 -44 47 -74 47 -116 -1z"/>
<path d="M4600 4213 c-30 -24 -32 -30 -27 -72 7 -59 50 -101 105 -101 20 0 42
4 48 8 40 27 58 111 32 144 -44 54 -109 62 -158 21z"/>
<path d="M4431 3953 c-54 -67 65 -178 122 -115 29 32 21 76 -18 111 -44 38
-77 40 -104 4z"/>
<path d="M3171 4234 c-13 -9 -29 -32 -37 -50 -12 -29 -12 -39 0 -68 24 -58
105 -85 153 -51 12 8 27 31 33 49 14 44 -6 88 -53 116 -39 24 -65 25 -96 4z"/>
<path d="M3571 4204 c-15 -19 -21 -41 -21 -76 0 -47 2 -50 36 -64 32 -14 38
-13 60 1 50 33 57 94 15 136 -36 36 -63 37 -90 3z"/>
<path d="M2669 3859 c-18 -20 -29 -42 -29 -60 0 -87 117 -143 175 -84 34 33
35 102 3 132 -58 53 -107 57 -149 12z"/>
<path d="M2955 3714 c-24 -22 -27 -30 -22 -72 7 -61 41 -92 102 -92 37 0 47 5
64 29 33 46 28 93 -14 130 -46 40 -91 42 -130 5z"/>
<path d="M2505 3624 c-36 -39 -34 -96 4 -135 33 -32 58 -36 100 -14 33 16 41
33 41 82 0 25 -8 43 -29 64 -38 38 -83 39 -116 3z"/>
<path d="M2775 3461 c-34 -15 -57 -47 -53 -77 3 -32 57 -74 94 -74 65 0 104
100 52 134 -31 20 -69 27 -93 17z"/>
<path d="M3776 3809 c-45 -53 -30 -111 38 -143 88 -41 155 66 90 143 -20 25
-34 31 -64 31 -30 0 -44 -6 -64 -31z"/>
<path d="M4092 3734 c-32 -22 -44 -50 -36 -89 17 -95 136 -118 179 -35 24 46
19 75 -20 109 -40 35 -87 41 -123 15z"/>
<path d="M3647 3588 c-46 -36 -33 -114 24 -144 41 -20 64 -17 83 11 27 41 29
77 7 113 -18 27 -27 32 -59 32 -21 0 -46 -6 -55 -12z"/>
<path d="M3897 3468 c-9 -7 -21 -26 -27 -42 -14 -37 7 -72 55 -92 45 -19 48
-18 84 12 40 33 40 66 2 105 -32 32 -84 39 -114 17z"/>
<path d="M4907 3810 c-14 -11 -29 -34 -32 -51 -6 -26 -2 -36 26 -65 54 -55
129 -43 148 23 10 36 -8 87 -38 102 -31 17 -76 13 -104 -9z"/>
<path d="M5223 3735 c-83 -36 -34 -185 61 -185 38 0 72 31 85 77 12 41 -11 87
-54 107 -40 19 -51 19 -92 1z"/>
<path d="M4761 3594 c-35 -44 -31 -89 10 -126 40 -38 81 -37 108 1 29 40 27
83 -5 120 -34 41 -83 43 -113 5z"/>
<path d="M5002 3447 c-33 -35 -29 -79 9 -111 17 -14 41 -26 53 -26 36 0 74 36
82 77 6 32 3 40 -20 60 -37 31 -95 31 -124 0z"/>
<path d="M2696 6869 c-26 -53 -55 -104 -65 -113 -10 -9 -45 -29 -79 -46 -52
-25 -82 -52 -82 -74 0 -3 31 -21 70 -42 59 -31 76 -46 117 -107 26 -38 56 -75
65 -81 22 -14 48 10 88 80 23 41 46 64 102 101 94 62 95 76 8 123 -72 39 -103
77 -126 157 -8 29 -24 63 -34 75 l-18 23 -46 -96z"/>
<path d="M8139 6758 c-51 -103 -58 -111 -141 -159 -38 -22 -68 -46 -68 -54 0
-15 17 -29 92 -75 34 -21 57 -47 88 -98 22 -38 49 -77 60 -87 18 -16 20 -16
42 7 13 14 39 52 59 84 28 46 48 67 90 91 30 17 65 42 78 57 24 25 24 26 5 47
-10 12 -39 32 -64 44 -60 31 -93 67 -129 144 -28 59 -44 80 -63 81 -4 0 -26
-37 -49 -82z"/>
<path d="M4198 6579 c-55 -29 -107 -85 -137 -148 -23 -50 -26 -68 -26 -166 0
-98 3 -116 26 -166 52 -110 145 -169 245 -155 141 19 239 125 265 286 23 143
-46 297 -156 349 -60 28 -164 28 -217 0z m207 -105 c50 -54 26 -145 -45 -174
-65 -27 -150 27 -150 94 1 68 44 105 123 106 39 0 52 -5 72 -26z"/>
<path d="M6012 6585 c-58 -25 -93 -56 -132 -117 -93 -142 -72 -335 47 -452 60
-59 115 -80 191 -73 165 14 273 164 259 358 -12 181 -120 300 -271 299 -34 -1
-76 -7 -94 -15z m135 -86 c50 -19 73 -48 73 -94 0 -43 -19 -69 -67 -94 -75
-39 -163 21 -163 112 0 65 82 105 157 76z"/>
<path d="M5019 6160 c-84 -21 -190 -67 -256 -112 -121 -82 -233 -206 -233
-258 0 -50 236 -306 358 -389 161 -109 397 -109 558 -1 120 81 354 353 354
412 0 24 -100 130 -195 207 -80 64 -193 123 -280 146 -79 20 -212 18 -306 -5z
m271 -156 c71 -16 213 -74 273 -111 31 -20 37 -29 37 -58 0 -37 9 -31 -160
-115 -81 -41 -151 -54 -290 -55 -154 0 -216 13 -332 70 -113 56 -113 57 -46
120 69 65 214 139 308 159 68 15 104 13 210 -10z"/>
<path d="M3615 4793 c-120 -128 -139 -152 -123 -157 7 -2 51 -16 98 -30 104
-31 188 -83 283 -177 39 -38 72 -69 73 -69 1 0 18 25 38 55 20 30 43 55 51 55
22 0 19 6 -30 51 -25 23 -62 67 -83 98 -36 54 -211 261 -220 261 -3 0 -42 -39
-87 -87z"/>
<path d="M7350 3143 c-192 -220 -330 -318 -560 -399 -77 -26 -90 -42 -128
-149 -38 -104 -61 -150 -137 -265 -166 -252 -427 -443 -743 -546 -178 -57
-253 -68 -472 -68 -222 0 -323 14 -510 71 -138 41 -229 79 -342 139 -258 138
-493 397 -590 652 l-16 42 -241 0 c-150 0 -241 -4 -241 -10 0 -46 116 -280
201 -406 195 -290 460 -487 829 -619 137 -49 202 -78 218 -97 21 -26 1 -28
-94 -13 -158 25 -385 106 -522 184 -108 62 -109 62 -245 50 -162 -13 -678 -75
-792 -95 -277 -46 -445 -116 -445 -183 0 -62 91 -99 361 -150 261 -49 717 -96
1179 -121 664 -36 773 -39 1410 -40 970 0 1494 28 2142 115 311 42 508 91 569
143 34 28 39 70 11 95 -50 46 -226 106 -410 141 -106 20 -520 73 -632 81 -47
3 -132 13 -190 22 -58 8 -118 15 -133 15 -17 0 -61 -22 -105 -51 -207 -135
-508 -232 -682 -219 -68 5 -93 20 -70 42 8 8 89 37 180 65 216 67 289 97 443
179 157 83 266 161 373 267 101 100 170 203 250 369 83 174 124 313 179 606
13 69 28 138 34 153 13 32 15 87 4 86 -5 0 -42 -39 -83 -86z"/>
<path d="M7506 2988 c-2 -7 -9 -47 -15 -88 -17 -111 -86 -376 -119 -456 -50
-123 -180 -328 -308 -485 -30 -36 -54 -69 -54 -73 0 -10 54 -7 91 6 19 6 52
23 74 38 22 15 84 50 139 80 128 69 230 147 342 262 133 137 226 286 260 419
26 103 2 141 -121 189 -33 13 -107 45 -164 72 -113 52 -120 54 -125 36z"/>
<path d="M4665 2447 c-43 -20 -93 -80 -101 -121 -4 -26 0 -48 16 -82 31 -63
70 -86 137 -81 117 8 190 130 133 222 -35 56 -128 87 -185 62z"/>
<path d="M5604 2446 c-50 -22 -89 -81 -89 -135 0 -59 30 -102 90 -131 41 -20
51 -21 93 -10 76 19 122 75 122 148 0 101 -117 171 -216 128z"/>
</g>
</svg>
