<?xml version="1.0" standalone="no"?>
<!DOCTYPE svg PUBLIC "-//W3C//DTD SVG 20010904//EN"
 "http://www.w3.org/TR/2001/REC-SVG-20010904/DTD/svg10.dtd">
<svg version="1.0" xmlns="http://www.w3.org/2000/svg"
 width="1024.000000pt" height="1024.000000pt" viewBox="0 0 1024.000000 1024.000000"
 preserveAspectRatio="xMidYMid meet">
<metadata>
Created by potrace 1.16, written by Peter Selinger 2001-2019
</metadata>
<g transform="translate(0.000000,1024.000000) scale(0.100000,-0.100000)"
fill="#000000" stroke="none">
<path d="M1992 8758 c-8 -8 -12 -67 -12 -200 l0 -188 -187 -2 -188 -3 -3 -230
c-2 -188 0 -234 12 -250 13 -18 29 -20 190 -23 l176 -4 0 -188 c0 -138 3 -190
13 -198 16 -12 400 -22 421 -10 14 8 16 36 16 206 l0 197 174 -3 c115 -3 181
0 195 8 20 10 21 18 21 250 0 131 -4 241 -8 244 -4 3 -92 6 -195 7 l-187 3 0
181 c0 164 -2 184 -18 198 -16 15 -46 17 -213 17 -138 0 -198 -3 -207 -12z
m252 -147 c12 -13 16 -32 14 -62 -3 -38 -8 -47 -46 -72 -49 -33 -72 -72 -72
-122 0 -53 10 -66 105 -129 105 -71 125 -95 125 -151 0 -50 -20 -71 -117 -126
-71 -39 -93 -58 -93 -77 0 -8 23 -39 50 -69 47 -52 50 -58 50 -109 0 -63 -13
-94 -39 -94 -32 0 -43 24 -35 75 6 44 4 49 -29 83 -44 47 -57 72 -57 115 0 45
26 76 117 144 46 34 73 61 73 73 0 13 -26 35 -85 70 -101 61 -134 99 -141 166
-9 75 9 124 71 193 30 34 55 70 55 80 0 35 27 42 54 12z"/>
<path d="M7530 8696 c-14 -8 -36 -33 -48 -55 -23 -40 -25 -41 -76 -41 -102 0
-200 -73 -255 -189 -26 -56 -26 -57 -25 -296 0 -179 5 -268 18 -350 30 -182
127 -449 210 -574 92 -138 252 -255 395 -289 l72 -16 -3 -331 -3 -331 -34 -68
c-71 -139 -201 -203 -361 -177 -96 16 -203 72 -279 148 -35 35 -66 63 -70 63
-11 0 -65 -61 -100 -113 -18 -26 -59 -76 -91 -111 -33 -34 -64 -75 -70 -91 -7
-20 -10 -325 -8 -994 2 -957 2 -967 -19 -1051 -80 -318 -233 -611 -432 -826
-119 -129 -293 -257 -480 -353 -252 -130 -628 -212 -896 -197 -473 26 -876
193 -1179 487 -224 216 -409 519 -475 774 -49 189 -51 227 -51 1238 l0 947
-80 87 c-45 47 -93 104 -108 126 -15 22 -36 46 -47 53 -20 13 -20 12 -17 -230
l4 -244 -53 -40 c-86 -64 -335 -299 -431 -405 -236 -263 -401 -632 -415 -927
-5 -97 -4 -107 17 -133 46 -57 67 -62 280 -62 176 1 206 3 307 27 61 15 142
40 180 56 l69 29 12 -161 c47 -633 384 -1195 937 -1559 168 -110 345 -185 575
-242 246 -61 308 -67 607 -63 l268 5 175 45 c435 112 764 313 1043 638 160
185 299 412 372 605 63 169 115 453 115 634 0 94 1 103 18 96 49 -22 299 -84
379 -95 119 -16 304 -9 361 15 64 26 92 65 92 129 0 72 -34 255 -65 351 -52
158 -167 367 -295 534 -61 82 -371 413 -464 497 l-56 52 0 79 c0 44 3 101 6
127 l7 46 43 -39 c53 -50 165 -107 246 -126 73 -17 184 -19 248 -4 175 40 339
200 380 370 6 24 13 194 17 376 l6 333 36 5 c66 11 199 62 254 99 94 62 145
114 214 218 55 82 77 130 130 276 75 207 80 241 89 552 7 242 -1 312 -46 400
-48 95 -140 160 -239 170 -48 4 -57 9 -71 35 -77 140 -290 72 -290 -92 0 -65
18 -103 65 -139 63 -47 174 -32 224 32 l20 26 52 -29 c31 -16 63 -44 78 -67
l26 -39 3 -339 3 -338 -40 0 -39 0 -7 -50 c-10 -74 -71 -247 -106 -302 -36
-55 -117 -131 -169 -158 -109 -55 -255 -85 -342 -70 -191 35 -290 121 -407
353 -36 71 -53 120 -59 162 -7 56 -9 60 -39 69 -18 5 -35 17 -38 26 -3 9 -6
154 -8 321 -2 343 -4 336 75 403 58 50 83 55 116 23 41 -38 66 -47 126 -47 48
0 60 4 91 31 72 63 86 143 38 216 -47 73 -146 105 -213 69z"/>
<path d="M4870 8597 c-42 -13 -95 -33 -118 -45 -156 -81 -274 -227 -316 -389
-21 -78 -21 -228 0 -306 33 -130 128 -270 233 -348 351 -259 825 -98 973 331
45 132 31 287 -42 439 -32 67 -56 100 -118 160 -42 42 -102 91 -132 108 -124
73 -330 94 -480 50z m291 -143 c181 -53 306 -191 340 -376 22 -118 -21 -270
-106 -374 -110 -134 -327 -199 -487 -146 -218 73 -350 264 -335 486 12 186
160 359 348 410 72 20 173 20 240 0z"/>
<path d="M4952 8288 c-8 -8 -12 -46 -12 -105 l0 -93 -89 0 c-100 0 -102 -2
-100 -85 2 -87 4 -89 104 -95 l90 -5 3 -80 c3 -96 11 -105 93 -105 80 0 89 12
89 110 l0 78 86 -1 c108 -2 118 7 111 101 -3 35 -10 69 -16 75 -7 7 -43 11
-90 11 l-79 -1 -6 45 c-3 24 -6 68 -6 97 0 39 -4 54 -16 59 -28 11 -150 6
-162 -6z"/>
<path d="M5753 8203 c16 -53 29 -179 25 -242 l-4 -70 41 -6 c22 -3 145 -9 274
-13 228 -7 233 -8 252 -31 27 -33 24 -60 -7 -71 -14 -6 -153 -10 -320 -10
-292 0 -294 0 -294 -21 0 -12 -17 -53 -37 -93 -54 -103 -200 -246 -308 -302
-300 -156 -666 -89 -888 162 -48 54 -102 145 -122 205 l-16 48 -242 0 c-305
-1 -423 16 -415 59 5 28 75 43 248 53 348 21 365 23 361 39 -13 49 -11 128 4
204 10 48 15 89 12 92 -3 3 -47 -13 -99 -36 -84 -38 -132 -68 -251 -160 -28
-21 -54 -30 -95 -35 -126 -14 -166 -26 -220 -68 -29 -22 -57 -48 -63 -58 -14
-27 -11 -77 7 -115 l16 -34 -55 -59 c-113 -123 -278 -425 -362 -666 -50 -142
-111 -409 -121 -532 -7 -87 4 -127 55 -191 15 -21 54 -82 85 -136 106 -183
127 -210 333 -418 l206 -206 1 -100 c0 -55 -2 -103 -5 -106 -3 -4 -30 5 -60
19 -64 29 -101 24 -133 -18 -16 -22 -18 -32 -10 -45 20 -31 74 -54 139 -59 62
-5 63 -6 68 -37 2 -17 2 -198 -1 -402 l-5 -371 -59 -28 c-76 -36 -150 -117
-197 -215 -35 -73 -36 -79 -36 -190 0 -115 0 -115 40 -189 93 -175 260 -265
445 -239 129 17 282 131 335 250 33 74 44 197 25 279 -35 153 -157 280 -319
334 l-50 16 0 257 c0 141 3 294 6 340 5 72 8 82 22 76 9 -3 49 -19 90 -35 40
-15 76 -30 79 -34 3 -3 -15 -27 -39 -53 -77 -79 -124 -152 -112 -171 15 -24
139 -127 219 -182 40 -26 112 -80 160 -120 82 -65 349 -263 497 -367 34 -24
85 -61 113 -83 28 -21 56 -39 62 -39 7 0 59 35 116 78 58 42 184 136 281 207
98 72 218 163 267 203 50 40 140 107 202 149 171 117 198 141 190 166 -3 12
-33 59 -66 105 -33 46 -56 87 -52 91 5 5 32 14 59 21 113 30 452 154 483 176
47 36 44 72 -13 148 -25 34 -66 90 -91 124 -45 62 -45 64 -28 85 10 12 106
112 214 222 138 141 203 215 220 250 13 28 64 118 114 200 l91 150 -2 90 c-1
65 -11 128 -36 230 -102 406 -282 778 -474 976 l-44 46 20 34 c35 57 27 92
-38 162 -41 45 -92 66 -202 81 -74 10 -109 20 -128 35 -125 102 -262 185 -339
206 -20 6 -23 4 -19 -12z m-1397 -1073 c131 -33 198 -72 300 -175 78 -77 98
-105 138 -186 30 -63 58 -143 81 -234 19 -76 38 -141 41 -144 3 -3 8 0 12 6 5
8 43 11 119 10 l112 -2 31 130 c71 301 219 490 457 582 90 34 256 44 353 19
202 -51 373 -203 458 -408 83 -200 85 -471 6 -712 -37 -114 -134 -302 -189
-365 -26 -30 -86 -88 -133 -127 -48 -40 -192 -181 -321 -314 -128 -132 -249
-253 -268 -267 l-34 -26 -92 89 c-157 153 -256 244 -290 264 -98 60 -250 -23
-506 -278 l-73 -73 -372 373 c-223 223 -390 399 -416 437 -56 84 -164 310
-184 386 -120 468 84 917 466 1019 79 22 211 20 304 -4z m1964 -1705 c39 -20
64 -68 56 -110 -4 -18 -12 -37 -19 -43 -18 -14 -246 -89 -305 -100 l-52 -9 52
59 c29 33 69 74 91 91 21 18 55 53 74 79 37 52 56 57 103 33z m-970 -393 c0
-47 17 -91 61 -154 l42 -62 -35 -31 c-38 -33 -150 -163 -166 -192 -6 -10 -13
-15 -16 -12 -8 7 -66 215 -66 233 0 8 4 16 8 18 18 7 85 105 108 157 28 63 43
83 55 75 5 -3 9 -17 9 -32z m-476 -191 c14 -15 26 -34 26 -43 0 -17 -34 -134
-52 -181 l-11 -28 -36 43 c-20 23 -64 74 -98 112 -35 38 -63 74 -63 79 0 5 13
26 30 47 35 44 80 136 80 165 0 11 23 -22 49 -73 27 -52 61 -106 75 -121z
m-283 -196 c154 -180 239 -301 239 -340 0 -9 -142 95 -236 174 -136 113 -198
161 -311 241 -57 40 -103 75 -103 80 0 10 58 90 92 127 l30 31 93 -96 c51 -54
139 -151 196 -217z m1232 267 c24 -27 52 -63 61 -80 l16 -31 -68 -40 c-74 -43
-234 -164 -320 -242 -56 -51 -220 -164 -227 -157 -10 9 141 211 244 328 61 69
139 157 173 197 35 40 66 72 69 73 4 0 27 -22 52 -48z m-1850 -717 c57 -27
123 -90 142 -137 25 -60 23 -162 -5 -224 -28 -64 -64 -101 -125 -130 -167 -79
-355 46 -355 236 0 196 182 332 343 255z"/>
<path d="M4198 6796 c-75 -20 -150 -88 -178 -161 -7 -17 -12 -57 -13 -90 -1
-147 111 -265 254 -265 105 0 198 70 240 181 23 59 23 80 4 146 -42 141 -178
225 -307 189z m158 -100 c58 -58 34 -140 -47 -152 -28 -5 -41 -1 -67 21 -67
56 -28 160 62 164 10 1 33 -14 52 -33z"/>
<path d="M5755 6796 c-129 -41 -194 -128 -195 -257 0 -147 110 -259 257 -259
59 0 158 54 200 108 85 112 67 264 -42 360 -69 60 -135 75 -220 48z m146 -76
c25 -14 49 -62 49 -99 0 -37 -49 -81 -90 -81 -16 0 -42 11 -59 26 -80 67 8
203 100 154z"/>
<path d="M4872 6344 c-244 -88 -361 -188 -326 -278 3 -9 54 -53 113 -98 58
-45 163 -140 232 -210 70 -70 134 -128 143 -128 9 0 85 69 169 153 83 85 179
171 212 192 91 58 115 83 115 123 0 45 -29 83 -103 136 -78 55 -141 87 -241
120 -111 37 -192 35 -314 -10z m287 -118 c44 -16 60 -39 41 -60 -11 -14 -35
-16 -169 -14 l-156 3 0 30 c0 26 5 31 40 41 52 16 200 16 244 0z"/>
<path d="M3810 4002 c-40 -40 -40 -80 0 -126 40 -45 72 -52 115 -26 18 11 36
27 39 36 23 59 -21 130 -86 141 -32 5 -41 1 -68 -25z"/>
<path d="M2510 7001 c-5 -11 -10 -28 -10 -38 0 -12 -15 -25 -42 -38 -40 -19
-43 -23 -43 -60 0 -38 2 -40 32 -43 27 -3 33 -9 45 -45 10 -31 20 -44 42 -52
24 -8 31 -6 47 14 10 13 19 36 19 52 0 24 4 29 24 29 14 0 36 4 49 9 57 22 36
84 -32 95 -36 5 -41 10 -41 32 0 41 -18 64 -50 64 -19 0 -33 -7 -40 -19z"/>
<path d="M1920 6635 c-60 -19 -123 -74 -150 -131 -22 -45 -22 -53 -24 -497 -1
-349 2 -460 12 -489 17 -46 78 -111 134 -139 90 -47 220 -20 289 59 67 76 66
71 72 562 6 415 5 448 -12 485 -19 43 -90 114 -139 139 -45 23 -129 28 -182
11z m177 -131 c32 -18 45 -34 53 -62 7 -24 10 -149 8 -357 l-3 -320 -160 4
c-88 2 -161 4 -162 6 -2 1 0 153 5 338 l7 335 25 28 c62 67 144 77 227 28z"/>
<path d="M8373 4894 c-7 -3 -17 -20 -23 -39 -11 -33 -31 -45 -76 -45 -23 0
-34 -17 -34 -55 0 -28 15 -41 61 -49 33 -6 38 -11 44 -44 9 -49 21 -62 60 -62
38 0 50 12 59 61 6 32 10 36 49 45 39 8 42 11 45 45 3 35 1 38 -41 54 -36 14
-48 24 -60 56 -13 33 -20 39 -44 38 -15 0 -33 -3 -40 -5z"/>
<path d="M6109 4496 c-48 -33 -69 -80 -69 -154 0 -48 -3 -61 -17 -64 -10 -3
-82 0 -161 6 -79 7 -144 10 -146 9 -2 -2 -1 -130 1 -286 5 -352 11 -377 112
-477 96 -95 246 -161 365 -161 44 0 73 8 149 45 111 53 177 117 235 230 l37
71 3 264 c2 146 1 275 -3 289 -6 24 -6 24 -132 20 l-126 -3 -1 72 c-1 65 -4
75 -31 103 -42 44 -76 60 -132 60 -35 0 -58 -7 -84 -24z m371 -568 c0 -184 -2
-205 -21 -245 -24 -49 -68 -87 -158 -134 -54 -28 -75 -34 -126 -33 -114 1
-264 92 -302 183 -11 26 -17 89 -21 226 l-5 190 199 -3 c162 -2 299 3 422 17
9 1 12 -45 12 -201z"/>
<path d="M8160 3851 c-17 -4 -32 -21 -45 -49 -14 -30 -28 -44 -45 -48 -67 -14
-95 -30 -98 -54 -4 -39 18 -59 77 -70 30 -6 55 -11 56 -13 1 -1 8 -20 16 -42
28 -75 114 -71 133 7 9 34 11 36 59 41 56 5 87 31 87 73 0 27 -43 59 -93 70
-18 4 -37 20 -53 45 -13 21 -28 39 -33 39 -5 0 -15 2 -23 4 -7 2 -24 1 -38 -3z"/>
<path d="M4974 3626 c-39 -17 -68 -75 -60 -120 8 -42 54 -85 98 -92 67 -11
138 48 138 115 0 46 -23 79 -66 97 -41 17 -70 17 -110 0z"/>
<path d="M2112 3545 l-32 -27 0 -124 0 -124 -109 0 c-60 0 -117 -3 -126 -6
-29 -12 -46 -62 -47 -141 0 -64 3 -78 22 -99 21 -22 31 -24 139 -26 l116 -3 2
-100 c2 -55 5 -110 8 -122 8 -35 55 -53 139 -53 65 0 79 3 103 24 28 24 28 26
28 136 l0 112 115 4 c108 4 116 6 138 30 19 21 22 36 22 104 0 69 -3 82 -24
107 -24 27 -27 28 -140 31 l-115 4 -3 125 c-3 125 -3 126 -31 147 -21 15 -47
22 -101 24 -66 4 -75 2 -104 -23z"/>
<path d="M7647 3422 c-10 -11 -20 -45 -23 -79 l-7 -61 -68 -6 c-77 -8 -93 -21
-93 -73 0 -47 24 -63 95 -63 59 0 69 -7 69 -49 0 -10 9 -30 21 -45 39 -49 119
-28 119 32 0 66 7 72 74 72 77 0 100 15 100 64 0 20 -6 42 -12 49 -7 6 -43 14
-80 17 l-67 5 -10 65 c-5 36 -14 71 -18 78 -13 19 -81 15 -100 -6z"/>
<path d="M4967 3159 c-35 -27 -51 -87 -37 -137 14 -53 40 -74 98 -80 43 -4 53
-1 82 25 60 54 49 162 -20 198 -41 21 -92 19 -123 -6z"/>
<path d="M8154 2986 c-3 -8 -8 -36 -12 -62 l-7 -49 -53 -11 c-68 -15 -82 -28
-82 -75 0 -43 18 -59 69 -59 43 0 61 -9 61 -31 0 -11 7 -35 14 -54 14 -33 18
-35 61 -35 40 0 47 3 55 26 6 14 10 38 10 54 0 31 6 34 82 45 51 7 68 24 68
69 0 31 -30 53 -87 62 -50 8 -58 16 -66 69 -4 22 -14 46 -24 52 -23 18 -82 17
-89 -1z"/>
<path d="M6410 2560 c-72 -65 -263 -195 -370 -252 -203 -108 -473 -189 -715
-214 -256 -26 -312 -27 -480 -10 -277 29 -494 84 -704 179 -180 80 -288 149
-445 279 -38 32 -76 58 -84 58 -38 0 -142 -63 -194 -118 -64 -67 -92 -117
-114 -204 -26 -101 -1 -208 72 -303 l26 -35 723 0 724 0 25 56 26 56 109 -4
109 -3 55 -53 56 -52 715 0 714 0 31 26 c37 31 91 136 98 193 14 105 -51 267
-141 347 -44 40 -152 105 -173 104 -4 0 -33 -23 -63 -50z"/>
</g>
</svg>
