<?xml version="1.0" standalone="no"?>
<!DOCTYPE svg PUBLIC "-//W3C//DTD SVG 20010904//EN"
 "http://www.w3.org/TR/2001/REC-SVG-20010904/DTD/svg10.dtd">
<svg version="1.0" xmlns="http://www.w3.org/2000/svg"
 width="1024.000000pt" height="1024.000000pt" viewBox="0 0 1024.000000 1024.000000"
 preserveAspectRatio="xMidYMid meet">
<metadata>
Created by potrace 1.16, written by Peter Selinger 2001-2019
</metadata>
<g transform="translate(0.000000,1024.000000) scale(0.100000,-0.100000)"
fill="#000000" stroke="none">
<path d="M3920 8700 c-195 -13 -209 -28 -319 -340 -34 -96 -76 -212 -93 -257
l-31 -83 -37 0 c-57 0 -370 -65 -520 -108 -246 -71 -396 -147 -493 -252 -68
-73 -97 -131 -97 -195 0 -68 29 -121 105 -194 71 -68 167 -119 313 -165 107
-34 299 -68 359 -64 l47 3 36 120 c21 66 47 140 58 165 12 25 22 55 22 66 0
12 6 26 13 31 18 15 167 26 167 13 0 -6 -18 -43 -39 -83 -68 -124 -125 -324
-141 -497 -8 -92 -8 -137 4 -227 26 -198 74 -330 186 -518 43 -71 81 -140 85
-152 l6 -21 -78 24 c-403 126 -758 163 -1048 108 l-35 -6 0 157 0 157 27 -7
c15 -3 52 -11 81 -16 195 -36 383 139 414 387 20 158 7 169 -202 169 -132 0
-136 -1 -195 -32 -55 -29 -151 -117 -187 -171 l-16 -23 -21 35 c-36 58 -126
133 -189 156 -37 15 -89 24 -148 27 -120 7 -180 -2 -210 -32 -21 -21 -24 -34
-24 -97 0 -132 37 -225 124 -311 79 -79 131 -102 236 -102 47 0 104 4 128 8
l42 9 0 -171 0 -171 -37 -24 c-51 -32 -92 -74 -99 -101 -3 -13 1 -36 9 -51 28
-52 229 -248 297 -289 36 -21 155 -98 265 -171 110 -72 211 -137 223 -143 13
-7 22 -14 20 -16 -7 -7 -151 26 -181 42 -22 12 -56 17 -112 17 -68 1 -88 -3
-130 -26 -27 -14 -63 -40 -79 -57 -28 -29 -55 -43 -41 -21 3 5 3 87 -1 181 -8
186 -15 208 -65 204 -27 -2 -47 -45 -48 -102 -1 -18 -3 -33 -5 -33 -2 0 -21
16 -42 36 -93 85 -246 124 -403 105 -145 -18 -165 -45 -143 -192 17 -117 56
-204 121 -270 98 -98 210 -132 363 -112 45 6 84 10 85 9 2 -1 5 -555 4 -597
-1 -11 -12 -5 -39 20 -48 46 -157 99 -229 112 -31 6 -108 9 -171 7 -107 -3
-115 -4 -134 -28 -19 -23 -20 -35 -15 -130 8 -171 71 -327 154 -381 28 -19
151 -62 209 -74 17 -3 66 1 108 10 43 9 85 15 94 13 16 -3 17 -51 17 -600 0
-572 1 -597 19 -617 22 -24 82 -29 109 -8 16 11 17 61 18 620 1 530 3 608 15
603 35 -13 148 -26 182 -20 116 19 240 79 285 137 55 73 102 200 113 305 8 86
-1 103 -68 136 -69 33 -137 41 -229 27 -105 -16 -166 -49 -241 -130 l-63 -68
3 217 3 218 60 -19 c146 -46 275 -34 358 32 62 48 93 101 131 220 34 108 38
164 12 192 -25 29 -7 18 153 -99 77 -56 156 -111 176 -123 l37 -22 0 -462 c1
-459 1 -463 26 -560 55 -215 226 -489 383 -611 l45 -35 -39 -6 c-137 -22 -206
-56 -296 -146 -117 -118 -154 -269 -108 -447 11 -45 21 -86 21 -91 0 -18 -99
-40 -300 -67 -284 -38 -463 -72 -775 -150 -379 -95 -445 -127 -445 -216 0 -34
6 -50 23 -66 38 -36 72 -36 217 3 638 169 1311 273 1995 305 121 6 279 15 350
20 308 22 1251 5 1723 -31 345 -26 786 -81 1027 -128 144 -28 454 -104 640
-156 182 -51 248 -56 289 -24 21 16 26 29 26 63 0 63 -33 106 -102 133 -159
64 -463 136 -933 222 -245 45 -329 57 -540 75 -86 8 -159 17 -163 20 -3 4 0
32 7 64 27 126 32 178 22 239 -29 182 -187 336 -384 377 -37 7 -70 16 -73 19
-3 2 29 37 69 76 144 139 242 303 297 496 43 149 56 377 44 786 l-9 296 153
104 c250 170 402 267 492 313 47 25 102 56 124 71 21 14 40 25 41 23 2 -2 6
-68 10 -148 l7 -145 -60 -11 c-33 -7 -112 -37 -174 -67 -223 -108 -334 -256
-377 -501 -24 -134 -1 -521 49 -831 18 -113 60 -461 75 -620 11 -117 64 -415
80 -446 9 -17 24 -29 35 -29 41 0 49 35 75 331 14 156 34 367 45 469 10 102
22 228 25 280 3 52 15 187 25 300 46 473 42 458 121 519 41 31 47 33 102 28
33 -3 63 -9 67 -14 12 -11 27 -163 45 -448 41 -641 110 -1347 141 -1432 26
-70 74 -67 94 6 6 20 21 160 35 311 13 151 36 383 49 515 14 132 27 287 31
345 13 219 47 558 61 622 17 73 19 75 100 84 132 16 155 -56 189 -606 17 -269
25 -376 49 -635 9 -88 20 -216 27 -285 18 -209 38 -342 54 -367 17 -26 56 -31
74 -9 19 22 45 196 96 631 14 121 32 270 40 330 33 239 67 609 72 776 6 204
-3 255 -69 389 -32 66 -57 100 -116 157 -110 107 -207 150 -447 200 l-40 9 -7
214 c-4 118 -12 226 -18 239 -12 27 -7 38 64 121 91 107 148 274 126 374 -14
67 -49 125 -103 168 l-43 36 -1 907 -1 906 -27 54 c-107 219 -394 244 -519 45
-52 -81 -59 -117 -65 -296 l-6 -171 -195 69 c-220 79 -494 149 -651 166 -76 8
-58 -19 -190 292 -95 224 -135 304 -168 334 -10 9 -43 25 -72 34 -48 14 -155
16 -954 18 -495 1 -947 -2 -1005 -6z m1870 -195 c5 -3 10 -17 10 -30 0 -22 -3
-24 -32 -18 -31 6 -31 6 -25 -27 4 -18 7 -41 7 -51 0 -26 58 -60 95 -57 25 3
33 -3 52 -37 12 -22 23 -44 23 -48 0 -9 -72 -1 -175 19 -97 19 -665 44 -1050
46 -409 2 -726 -25 -902 -78 l-22 -6 25 63 c13 35 41 99 61 142 36 77 36 77
77 78 401 14 1835 17 1856 4z m1728 -341 c50 -35 49 -18 50 -824 1 -415 4
-792 8 -837 l6 -83 -49 0 c-28 0 -77 -3 -110 -6 l-60 -7 -1 388 c-1 239 -6
403 -13 428 -13 50 -7 76 37 142 65 97 64 172 -1 235 l-36 35 6 215 c4 118 11
229 17 247 20 67 96 102 146 67z m-2198 -219 c294 -10 708 -57 978 -110 300
-60 679 -178 775 -241 112 -73 142 -127 94 -172 l-22 -21 -91 43 c-49 24 -115
51 -145 60 -30 8 -101 29 -158 47 -158 47 -357 91 -466 103 -33 4 -125 18
-205 31 -175 29 -539 60 -864 75 -302 14 -756 5 -1066 -21 -696 -60 -1334
-198 -1522 -330 -33 -24 -52 -17 -79 28 -19 30 -20 37 -8 60 18 34 95 97 157
128 176 88 643 206 1052 265 413 59 920 77 1570 55z m1016 -506 l62 -11 55
-117 c30 -64 58 -125 60 -136 3 -11 13 -45 22 -76 l16 -57 42 5 c75 9 360 71
446 98 99 29 117 31 125 9 11 -28 7 -814 -4 -814 -5 0 -16 -15 -24 -34 -12
-28 -23 -37 -68 -51 -29 -10 -69 -26 -88 -35 -19 -10 -114 -43 -210 -75 -96
-32 -242 -84 -323 -116 -138 -55 -278 -92 -293 -76 -4 3 21 50 55 104 96 151
139 248 176 396 92 365 66 617 -93 907 -59 107 -58 103 -36 97 11 -3 47 -11
80 -18z m-535 -41 c41 -20 91 -59 141 -108 63 -62 85 -93 117 -161 67 -143 85
-229 84 -409 -1 -334 -113 -582 -364 -807 -97 -87 -142 -116 -304 -195 -145
-69 -238 -101 -395 -135 -118 -25 -391 -25 -508 0 -101 22 -244 68 -315 102
-164 77 -398 268 -507 414 -91 121 -160 274 -191 426 -16 77 -16 281 0 365 18
93 67 215 117 290 55 84 160 185 220 211 103 46 254 33 382 -32 220 -110 341
-285 367 -527 l6 -57 -93 -48 c-161 -82 -238 -154 -238 -221 0 -38 16 -64 82
-132 27 -28 106 -122 176 -209 128 -160 221 -249 273 -260 65 -15 175 78 357
301 64 80 136 168 160 197 68 84 65 133 -15 210 -36 33 -215 134 -256 143
l-29 6 6 58 c26 227 160 447 324 533 65 35 153 61 232 70 86 10 108 6 171 -25z
m-3064 -683 c-12 -86 -64 -157 -128 -175 -38 -11 -139 -13 -163 -4 -24 9 -19
45 13 96 52 82 133 126 235 127 l49 1 -6 -45z m-654 -4 c55 -38 107 -112 107
-152 0 -23 -5 -27 -37 -33 -77 -12 -119 -7 -159 20 -60 41 -84 79 -103 164
l-9 42 76 -4 c68 -3 83 -7 125 -37z m2885 -85 c70 -24 167 -72 207 -102 27
-20 16 -26 -109 -57 -164 -42 -201 -43 -359 -7 -75 17 -150 35 -165 41 -26 10
-27 11 -7 25 29 22 181 95 229 110 63 20 125 16 204 -10z m-184 -361 c80 -30
106 -31 181 -5 32 11 62 20 66 20 5 0 -31 -35 -79 -78 l-87 -79 -48 40 c-53
45 -123 127 -109 127 5 0 40 -11 76 -25z m-1111 -447 l41 -47 4 -333 c6 -430
6 -440 -3 -524 -6 -56 -4 -84 10 -126 l17 -55 -32 -64 c-37 -73 -89 -132 -141
-159 l-36 -19 -6 142 c-4 78 -7 381 -7 674 l0 531 26 31 c26 31 26 31 56 14
17 -10 49 -39 71 -65z m2472 20 c3 -13 7 -319 8 -680 l4 -656 -34 26 c-18 15
-47 47 -65 72 -17 25 -46 61 -64 81 l-32 37 26 53 c37 74 36 167 -2 235 -23
42 -25 51 -15 83 7 23 13 159 16 366 5 321 5 331 26 354 46 50 123 67 132 29z
m-361 -259 c3 -34 6 -140 6 -235 l0 -173 -32 10 c-18 5 -67 9 -108 8 l-75 -2
0 173 0 172 40 16 c22 8 65 32 95 52 30 21 58 38 61 39 3 1 9 -27 13 -60z
m-1755 -11 c30 -16 60 -28 67 -28 27 0 34 -41 34 -193 l0 -155 -87 -4 c-49 -3
-95 -8 -104 -12 -13 -5 -18 0 -23 25 -8 42 -8 414 1 422 3 4 18 -1 32 -10 14
-10 50 -30 80 -45z m3530 -235 l1 -83 -90 0 -90 0 0 124 0 124 36 23 c20 12
57 40 83 62 l46 40 6 -104 c4 -57 7 -141 8 -186z m-5514 87 c55 -24 103 -75
132 -138 33 -71 29 -85 -29 -96 -135 -26 -277 76 -302 216 -5 30 -3 37 11 41
32 10 147 -4 188 -23z m3332 -124 l-2 -116 -529 -2 -529 -3 7 115 c3 63 10
118 14 122 4 4 41 -1 82 -12 191 -49 429 -65 590 -40 91 14 287 60 324 75 28
12 32 11 38 -5 4 -10 6 -70 5 -134z m-2607 -151 c24 -28 -5 -123 -50 -166 -46
-44 -85 -53 -164 -38 -107 21 -116 34 -67 110 56 88 92 107 202 108 48 1 70
-3 79 -14z m1361 -166 c28 -20 59 -84 59 -122 0 -33 -35 -84 -69 -102 -92 -47
-211 21 -211 121 0 103 133 165 221 103z m1231 3 c5 -5 4 -32 -3 -61 -15 -69
1 -130 53 -211 67 -102 178 -158 291 -146 33 3 68 13 78 22 20 18 39 11 39
-15 0 -53 198 -262 285 -301 28 -12 51 -23 53 -25 5 -5 -20 -190 -34 -254 -50
-217 -205 -445 -384 -566 -92 -61 -238 -129 -336 -155 -67 -18 -126 -23 -389
-32 -535 -17 -699 1 -917 100 -190 86 -358 251 -456 447 -54 109 -101 259
-107 347 -3 40 -8 85 -10 101 -3 17 0 27 8 27 24 0 122 52 165 87 66 54 170
180 178 216 10 47 12 49 45 24 27 -19 43 -22 127 -22 89 0 102 3 151 30 68 38
125 102 152 174 17 46 20 71 16 141 l-4 85 495 -2 c273 -2 500 -7 504 -11z
m384 1 c38 -24 67 -89 61 -134 -9 -71 -55 -109 -129 -109 -138 0 -190 170 -73
241 37 23 107 24 141 2z m1574 -23 c47 -5 155 -5 288 2 250 13 312 6 418 -47
89 -43 132 -90 171 -186 58 -137 65 -289 33 -629 -28 -288 -35 -315 -44 -175
-4 61 -11 218 -16 350 -9 252 -15 287 -68 391 -26 51 -91 110 -151 138 -42 19
-59 21 -196 17 -218 -5 -383 -6 -526 -1 l-125 5 -49 -30 c-57 -35 -141 -135
-182 -215 l-28 -55 -7 -300 c-4 -165 -11 -325 -16 -355 l-8 -55 -12 40 c-15
53 -39 320 -48 520 -11 259 14 345 135 466 56 55 78 70 141 92 110 39 157 43
290 27z m-5312 -562 c70 -26 135 -92 162 -165 11 -30 20 -58 20 -64 0 -30
-151 -40 -214 -14 -51 22 -101 95 -125 186 -12 41 -21 79 -21 83 0 14 119 -4
178 -26z m792 -9 c0 -93 -58 -192 -134 -228 -52 -24 -182 -38 -205 -22 -12 8
-13 16 -3 48 15 49 86 143 130 173 44 31 128 59 175 60 35 0 37 -2 37 -31z
m3125 -1290 c49 -5 107 -18 130 -28 102 -45 155 -129 155 -245 l0 -68 -32 6
c-18 4 -213 1 -433 -5 -220 -7 -430 -9 -467 -5 l-68 8 0 132 0 132 98 12 c87
11 151 26 292 66 48 14 168 12 325 -5z m-1779 -13 c81 -24 209 -49 323 -63
l64 -8 -2 -108 c-1 -60 -5 -115 -8 -123 -4 -11 -36 -14 -167 -14 -88 0 -190
-5 -226 -10 -38 -6 -183 -7 -347 -3 l-283 6 0 57 c0 87 23 149 72 197 60 59
109 74 263 83 217 11 228 11 311 -14z m848 -87 c3 -17 6 -96 6 -175 l0 -144
-124 0 c-120 0 -124 1 -130 23 -3 12 -6 88 -6 169 l0 147 73 4 c189 9 174 11
181 -24z"/>
<path d="M5343 8483 c-60 -5 -83 -27 -83 -79 0 -55 15 -59 199 -59 l166 0 3
56 3 57 -48 10 c-59 14 -171 20 -240 15z"/>
<path d="M4195 8473 c-112 -5 -115 -7 -115 -56 0 -24 5 -48 12 -55 13 -13 133
-15 228 -4 54 7 55 8 58 41 2 19 1 44 -2 57 -7 26 4 25 -181 17z"/>
<path d="M4022 6990 c-109 -44 -160 -163 -113 -265 35 -78 131 -135 201 -120
49 11 118 62 139 104 44 85 36 161 -22 227 -49 57 -139 80 -205 54z m6 -48 c7
-5 15 -26 19 -47 5 -30 2 -41 -12 -51 -25 -18 -31 -18 -55 6 -24 24 -26 57 -3
82 18 20 31 22 51 10z"/>
<path d="M5535 6986 c-37 -17 -80 -62 -94 -99 -6 -16 -11 -51 -11 -78 0 -151
147 -248 277 -181 138 72 138 284 -1 352 -49 23 -126 26 -171 6z"/>
<path d="M4555 4865 c-66 -65 5 -173 98 -150 46 12 67 116 31 156 -26 29 -98
26 -129 -6z"/>
<path d="M5060 4872 c-19 -16 -24 -29 -24 -70 0 -67 21 -92 80 -92 111 0 110
153 -2 176 -21 4 -37 0 -54 -14z"/>
<path d="M4810 4843 c-26 -33 -20 -66 19 -106 35 -35 74 -29 97 15 42 81 -60
161 -116 91z"/>
<path d="M4330 4555 c0 -27 5 -151 10 -274 9 -206 12 -228 35 -278 50 -109
195 -222 330 -258 126 -32 316 -11 443 51 74 36 172 131 211 203 37 71 39 82
46 382 l5 225 -540 0 -540 -1 0 -50z m870 -278 c0 -134 -2 -146 -26 -195 -32
-64 -89 -115 -163 -144 -45 -18 -76 -22 -161 -23 -95 0 -110 3 -156 27 -57 30
-119 93 -142 147 -12 27 -16 74 -18 184 l-2 147 334 0 334 0 0 -143z"/>
<path d="M5220 2847 c0 -23 8 -24 73 -15 34 5 100 13 147 17 81 8 77 8 -67 10
-122 1 -153 -2 -153 -12z"/>
<path d="M2640 3510 c-82 -16 -130 -62 -130 -125 0 -82 65 -145 149 -145 83 0
154 38 187 102 18 35 18 62 -2 103 -25 52 -117 82 -204 65z"/>
<path d="M2035 3470 c-32 -13 -72 -62 -80 -96 -8 -39 15 -98 43 -113 51 -27
144 -5 176 41 19 27 21 106 3 128 -35 45 -93 61 -142 40z"/>
<path d="M4885 2134 c-6 -1 -31 -5 -57 -9 -35 -4 -58 -16 -92 -47 -61 -53 -76
-84 -76 -155 0 -68 35 -139 94 -191 75 -66 175 -60 248 15 103 106 104 257 2
341 -34 28 -96 52 -119 46z"/>
<path d="M5785 2106 c-42 -18 -93 -63 -110 -97 -21 -39 -19 -108 4 -144 27
-44 98 -114 127 -125 93 -36 201 42 226 162 11 54 11 59 -18 114 -22 45 -39
63 -73 81 -49 26 -110 29 -156 9z"/>
<path d="M3828 2100 c-124 -39 -178 -172 -109 -266 98 -137 217 -137 309 0 40
60 43 119 10 178 -38 67 -141 111 -210 88z"/>
<path d="M2930 2082 c-38 -19 -80 -88 -80 -132 0 -39 55 -115 96 -135 92 -44
214 46 214 158 0 46 -4 54 -40 89 -38 35 -45 38 -98 38 -34 0 -71 -7 -92 -18z"/>
<path d="M6674 2081 c-96 -58 -100 -160 -10 -238 96 -85 256 -26 256 95 0 62
-27 111 -76 139 -50 29 -126 31 -170 4z"/>
</g>
</svg>
