<?xml version="1.0" standalone="no"?>
<!DOCTYPE svg PUBLIC "-//W3C//DTD SVG 20010904//EN"
 "http://www.w3.org/TR/2001/REC-SVG-20010904/DTD/svg10.dtd">
<svg version="1.0" xmlns="http://www.w3.org/2000/svg"
 width="1024.000000pt" height="1024.000000pt" viewBox="0 0 1024.000000 1024.000000"
 preserveAspectRatio="xMidYMid meet">
<metadata>
Created by potrace 1.16, written by Peter Selinger 2001-2019
</metadata>
<g transform="translate(0.000000,1024.000000) scale(0.100000,-0.100000)"
fill="#000000" stroke="none">
<path d="M5099 8669 c-46 -29 -154 -87 -240 -130 -90 -44 -165 -89 -177 -104
-34 -42 -46 -149 -38 -340 7 -177 16 -241 63 -412 l28 -103 35 8 c19 4 245 7
503 6 l467 -1 0 24 c0 14 12 70 26 126 42 165 54 254 54 392 0 146 -18 250
-50 296 -21 29 -101 75 -170 98 -36 11 -177 88 -284 154 -84 52 -112 50 -217
-14z m241 -303 c92 -43 96 -44 129 -30 66 28 73 -1 19 -85 -15 -25 -28 -49
-28 -54 0 -9 48 -4 96 9 20 5 23 0 34 -62 8 -43 11 -101 7 -163 -8 -121 -14
-144 -36 -135 -22 9 -104 25 -108 21 -2 -2 15 -29 37 -60 22 -30 40 -58 40
-60 0 -11 -31 -15 -59 -7 -21 6 -31 5 -34 -5 -6 -14 -148 -55 -193 -55 -16 0
-69 11 -119 25 -49 14 -111 31 -137 37 -27 7 -48 15 -48 18 0 5 27 47 52 82
19 27 4 31 -51 14 -33 -10 -53 -11 -57 -5 -3 6 -12 52 -19 103 -12 87 -11 107
10 205 l8 33 58 -4 c33 -2 59 0 59 5 0 5 -18 34 -40 64 -22 31 -40 64 -40 74
0 18 2 18 49 -1 41 -16 50 -17 55 -5 3 8 36 23 73 35 37 11 79 27 93 35 36 21
45 19 150 -29z"/>
<path d="M5162 8237 c-130 -49 -186 -201 -116 -314 38 -62 87 -87 169 -87 80
1 124 17 168 62 43 45 57 78 57 140 0 74 -38 144 -96 178 -54 32 -130 41 -182
21z"/>
<path d="M4374 8181 c-167 -100 -301 -229 -427 -414 -49 -71 -174 -313 -166
-321 2 -3 54 8 114 25 205 55 577 119 691 119 8 0 5 22 -12 75 -30 96 -52 263
-56 437 -4 167 1 165 -144 79z"/>
<path d="M5944 8082 c-2 -167 -20 -305 -54 -411 -11 -35 -17 -67 -14 -72 3 -5
23 -9 44 -9 121 0 419 -52 610 -106 69 -20 133 -38 143 -41 16 -4 15 1 -7 46
-54 106 -167 293 -213 353 -64 85 -223 241 -292 287 -76 51 -185 111 -202 111
-11 0 -14 -30 -15 -158z"/>
<path d="M4745 7449 c-277 -14 -669 -70 -826 -118 -35 -11 -102 -29 -149 -41
-400 -101 -653 -238 -726 -395 -33 -70 -33 -170 0 -240 31 -66 97 -153 144
-188 37 -29 152 -91 156 -85 1 2 8 23 15 48 29 101 127 270 220 378 59 70 187
172 284 227 278 157 719 250 1248 262 581 14 1038 -59 1393 -222 173 -79 361
-234 448 -370 51 -79 129 -231 147 -288 l13 -37 58 31 c114 60 237 209 261
314 41 183 -135 360 -481 485 -237 86 -705 197 -925 220 -270 28 -923 38
-1280 19z"/>
<path d="M4825 7129 c-270 -21 -585 -92 -774 -175 -172 -76 -312 -182 -394
-297 -152 -214 -283 -559 -352 -927 -32 -168 -20 -149 -110 -175 -80 -24 -145
-46 -350 -125 -60 -24 -202 -74 -315 -112 -211 -71 -320 -121 -371 -169 -25
-24 -29 -34 -29 -84 0 -84 41 -154 164 -280 164 -167 294 -251 531 -342 91
-35 350 -103 391 -103 19 0 23 -7 29 -52 40 -290 132 -586 252 -804 84 -152
233 -345 374 -485 259 -257 592 -435 981 -523 195 -44 526 -47 722 -7 337 69
687 240 920 449 160 143 354 379 463 562 122 204 216 505 258 823 l6 47 42 1
c23 0 74 8 112 17 l70 17 7 450 c5 363 4 467 -7 540 -8 50 -16 105 -17 124 -3
40 -7 41 -147 66 -47 8 -86 17 -89 19 -2 3 -12 53 -22 113 -75 431 -269 878
-464 1068 -93 90 -262 183 -446 245 -66 22 -336 84 -435 99 -195 30 -728 41
-1000 20z m-173 -517 c120 -43 263 -161 337 -277 50 -78 92 -193 117 -314 13
-63 21 -117 18 -120 -2 -3 -45 -13 -94 -23 -176 -36 -232 -69 -217 -130 4 -14
73 -90 154 -171 227 -223 240 -234 278 -214 11 6 81 67 155 136 244 228 258
247 226 296 -36 54 -192 101 -381 115 l-110 8 101 -2 100 -1 21 120 c32 192
90 310 208 431 150 151 352 207 559 154 141 -36 260 -124 347 -258 57 -87 85
-157 110 -277 52 -251 -6 -534 -153 -741 -253 -359 -815 -606 -1281 -563 -333
31 -565 105 -799 255 -85 55 -254 216 -314 300 -58 81 -129 232 -155 330 -33
121 -31 334 4 466 34 131 87 227 171 316 77 81 155 133 254 169 59 21 79 23
177 20 77 -3 127 -11 167 -25z m-997 -2123 c66 -16 167 -36 225 -44 58 -9 177
-26 265 -39 88 -14 196 -27 241 -31 l81 -6 6 67 c4 37 8 68 10 70 1 2 128 4
282 5 317 2 293 9 294 -87 l1 -51 38 -7 c69 -11 536 -6 775 9 203 13 413 35
467 50 8 2 108 16 221 30 179 22 295 45 363 71 17 6 18 4 12 -17 -3 -13 -13
-77 -21 -143 -8 -65 -16 -120 -17 -121 -16 -16 -261 -64 -508 -99 -472 -69
-503 -71 -937 -71 l-391 0 -4 -97 c-1 -53 -6 -99 -10 -103 -10 -11 -385 -17
-483 -8 l-90 8 -3 111 -3 111 -107 6 c-167 9 -680 89 -794 123 -22 6 -24 14
-42 145 -9 63 -19 125 -22 138 -4 20 -2 22 13 16 10 -4 72 -21 138 -36z m3135
-766 c0 -8 -139 -275 -149 -286 -9 -9 -233 -52 -346 -66 -213 -27 -566 -45
-892 -46 l-341 0 -4 -112 c-4 -151 0 -147 -171 -151 -140 -4 -369 13 -399 29
-16 9 -18 24 -18 129 l0 119 -52 5 c-29 3 -107 10 -173 16 -66 6 -187 24 -269
38 l-148 28 -55 94 c-105 181 -115 200 -106 200 4 0 60 -9 123 -19 180 -30
322 -50 485 -66 83 -8 162 -18 178 -21 27 -6 27 -5 27 44 0 43 3 50 23 56 12
3 140 6 283 6 293 0 274 5 274 -75 l0 -43 116 -7 c287 -18 1231 56 1519 119
72 16 95 18 95 9z"/>
<path d="M5956 6315 c-123 -44 -174 -194 -106 -312 42 -73 89 -103 162 -103
107 0 194 63 218 158 18 72 -8 148 -72 209 -61 59 -127 75 -202 48z m101 -57
c33 -31 31 -78 -6 -117 -16 -17 -38 -31 -49 -31 -26 0 -72 54 -72 85 0 13 12
37 26 54 31 37 68 40 101 9z"/>
<path d="M4345 6303 c-73 -38 -114 -105 -115 -186 0 -52 22 -104 67 -157 79
-94 237 -77 311 34 27 41 32 57 32 107 0 135 -80 219 -207 219 -33 -1 -71 -8
-88 -17z m119 -54 c31 -37 32 -45 6 -86 -35 -58 -79 -65 -120 -20 -31 32 -26
80 11 111 41 35 71 33 103 -5z"/>
<path d="M4600 4324 c0 -39 3 -132 7 -207 l6 -137 168 0 167 0 4 203 c2 111 3
203 3 204 0 0 -80 3 -178 5 l-177 3 0 -71z m224 -44 l29 0 -7 -92 c-4 -51 -11
-97 -15 -101 -5 -5 -30 -7 -57 -5 l-49 3 -3 97 c-3 103 2 112 53 102 11 -2 33
-4 49 -4z"/>
<path d="M4608 3403 c2 -109 5 -200 7 -202 5 -5 319 -18 325 -13 3 2 5 94 5
205 l0 202 -170 3 -170 2 3 -197z m232 20 c0 -49 -4 -93 -8 -100 -4 -6 -31
-15 -60 -19 l-52 -7 0 39 c0 22 -3 69 -7 107 l-6 67 67 0 66 0 0 -87z"/>
<path d="M8222 6553 l-23 -18 -1 -503 c-1 -459 1 -505 16 -520 13 -13 36 -17
106 -17 80 0 91 2 114 24 l26 24 0 492 c0 580 13 528 -129 533 -72 3 -90 1
-109 -15z"/>
<path d="M8809 6497 c-211 -98 -229 -109 -229 -145 0 -18 10 -38 25 -52 l25
-24 204 68 c222 74 250 90 248 148 -1 42 -41 78 -85 78 -18 0 -98 -31 -188
-73z"/>
<path d="M7665 6473 c-81 -17 -194 -79 -247 -136 -17 -18 -44 -61 -61 -97 -27
-55 -32 -79 -35 -160 -3 -79 0 -105 17 -150 29 -77 98 -166 143 -188 44 -20
51 -44 46 -149 l-3 -70 178 -7 c98 -3 183 -4 189 0 6 4 7 34 3 84 -6 72 -5 79
13 84 10 4 38 24 61 45 36 33 43 36 54 23 12 -16 96 -72 106 -72 5 0 7 515 3
597 -3 45 -61 107 -135 145 -89 44 -249 69 -332 51z m114 -243 c87 -25 148
-149 110 -223 -33 -64 -97 -107 -159 -107 -51 0 -88 19 -128 64 -37 42 -48 88
-33 143 19 68 59 107 126 124 43 10 46 10 84 -1z"/>
<path d="M8979 6216 c-2 -2 -65 -11 -139 -20 -215 -27 -239 -33 -247 -64 -3
-15 0 -36 8 -51 13 -22 24 -27 86 -35 39 -5 142 -5 228 -1 155 7 157 7 191 37
26 23 34 38 34 64 0 53 -28 74 -98 74 -32 0 -61 -2 -63 -4z"/>
<path d="M8617 5930 c-20 -16 -27 -30 -27 -55 0 -29 5 -36 43 -54 55 -26 390
-121 429 -121 43 0 65 15 78 54 14 44 -2 80 -44 100 -17 8 -85 26 -151 41
-286 62 -293 63 -328 35z"/>
<path d="M8596 5689 c-33 -39 -33 -63 0 -92 42 -37 356 -199 396 -204 77 -11
119 84 61 139 -16 15 -85 49 -155 77 -70 28 -155 65 -190 81 -35 17 -68 30
-75 30 -6 0 -23 -14 -37 -31z"/>
<path d="M7589 5373 l-37 -4 -5 -587 c-5 -593 -15 -804 -52 -1047 -62 -408
-175 -776 -333 -1079 -197 -380 -455 -638 -720 -720 -232 -72 -465 -74 -683
-5 -167 53 -299 145 -420 295 l-52 64 -104 0 c-57 0 -136 5 -174 11 -39 6 -73
8 -76 5 -3 -3 13 -45 36 -93 149 -310 520 -581 881 -643 110 -19 355 -17 470
5 168 31 374 119 538 230 82 56 202 169 291 275 312 371 503 802 620 1395 88
450 104 716 87 1491 l-9 401 -66 7 c-67 6 -127 6 -192 -1z"/>
<path d="M7915 5332 c13 -28 23 -242 24 -485 l1 -227 38 19 c62 31 150 110
224 199 87 107 118 166 118 230 0 41 -4 52 -32 78 -18 17 -46 40 -63 51 -41
28 -226 121 -277 139 -37 13 -40 13 -33 -4z"/>
<path d="M2860 3909 c0 -2 -2 -35 -4 -74 -5 -84 -64 -258 -127 -373 -24 -42
-59 -110 -79 -150 -34 -70 -36 -73 -52 -55 -9 10 -33 54 -53 98 l-37 80 -33
-95 c-51 -142 -59 -186 -59 -290 0 -173 46 -294 154 -402 102 -102 201 -135
373 -125 109 6 186 31 274 88 108 71 154 135 188 264 29 111 14 217 -46 338
-33 65 -94 147 -110 147 -5 0 -9 -20 -9 -45 0 -25 -7 -61 -14 -80 -15 -35 -58
-85 -74 -85 -5 0 -8 57 -8 128 1 141 -3 160 -81 342 -51 118 -122 231 -170
268 -18 13 -33 23 -33 21z m77 -747 c18 -37 55 -103 82 -147 62 -98 85 -163
78 -220 -9 -89 -88 -171 -161 -169 -120 3 -236 139 -224 262 5 50 18 74 113
196 25 32 51 78 57 102 7 24 15 44 18 44 3 -1 19 -31 37 -68z"/>
<path d="M3896 2773 c-29 -75 -23 -270 10 -335 58 -116 193 -163 283 -99 17
12 37 21 44 18 6 -2 32 -32 57 -67 25 -34 57 -72 72 -83 73 -54 255 -20 401
76 l64 43 -116 32 c-275 78 -566 225 -744 375 -52 45 -66 53 -71 40z"/>
<path d="M6484 2729 c-81 -85 -327 -229 -522 -304 -76 -29 -264 -81 -357 -97
-49 -9 212 -142 330 -168 82 -18 121 -6 186 60 38 37 61 71 70 98 7 23 16 42
20 42 5 0 29 -13 55 -30 132 -84 258 -20 294 150 21 100 -1 280 -34 280 -7 0
-25 -14 -42 -31z"/>
</g>
</svg>
