<?xml version="1.0" standalone="no"?>
<!DOCTYPE svg PUBLIC "-//W3C//DTD SVG 20010904//EN"
 "http://www.w3.org/TR/2001/REC-SVG-20010904/DTD/svg10.dtd">
<svg version="1.0" xmlns="http://www.w3.org/2000/svg"
 width="1024.000000pt" height="1024.000000pt" viewBox="0 0 1024.000000 1024.000000"
 preserveAspectRatio="xMidYMid meet">
<metadata>
Created by potrace 1.16, written by Peter Selinger 2001-2019
</metadata>
<g transform="translate(0.000000,1024.000000) scale(0.100000,-0.100000)"
fill="#000000" stroke="none">
<path d="M8151 8394 c-102 -44 -383 -242 -511 -361 -72 -67 -294 -313 -432
-480 -125 -151 -219 -279 -343 -469 -292 -445 -332 -503 -388 -563 -38 -41
-101 -144 -246 -401 -23 -42 -54 -82 -69 -91 -17 -10 -41 -44 -66 -95 -84
-172 -211 -402 -253 -456 -72 -94 -98 -160 -98 -248 0 -41 3 -93 7 -116 8 -40
7 -41 -17 -36 -30 5 -46 -7 -95 -73 -109 -148 -254 -408 -290 -520 -7 -22 -38
-89 -70 -150 -133 -252 -221 -432 -235 -478 -14 -47 -13 -51 10 -98 36 -70 83
-119 140 -145 89 -42 205 -25 261 37 12 13 65 116 119 229 115 242 191 390
287 553 78 136 128 240 128 270 0 13 -34 53 -90 106 -50 47 -90 85 -90 84 0
-9 27 -61 37 -74 11 -13 6 -31 -35 -115 -27 -54 -64 -132 -82 -173 l-34 -73
-39 5 c-45 6 -107 50 -107 77 0 22 52 124 102 201 51 78 132 220 138 242 4 16
19 7 99 -59 51 -44 114 -97 140 -118 151 -127 320 -191 501 -191 137 0 220 37
263 118 18 35 21 58 21 132 -1 99 -22 165 -89 278 l-34 57 47 23 c26 13 89 39
140 57 l93 33 73 -22 c114 -34 195 -37 301 -12 150 36 189 69 304 256 34 55
70 103 81 107 23 8 80 84 80 107 0 9 19 44 43 78 44 66 40 65 110 47 17 -4 33
3 56 22 31 26 33 30 29 83 -9 116 -119 283 -261 397 -204 162 -498 226 -571
123 -20 -29 -20 -87 -1 -113 13 -17 12 -22 -4 -45 -10 -14 -30 -49 -46 -78
-20 -39 -33 -52 -48 -50 -29 3 -90 -88 -84 -127 3 -22 -9 -49 -50 -115 -30
-47 -64 -106 -75 -130 -35 -77 -42 -43 -39 199 l2 221 -33 32 c-18 18 -44 39
-57 48 l-23 15 62 124 c78 156 228 429 248 453 8 9 29 17 46 17 45 0 169 36
229 66 198 100 328 265 378 479 19 82 21 114 16 233 -3 75 -8 146 -12 157 -5
17 3 23 57 44 80 31 182 81 233 117 22 15 61 40 88 55 l47 28 0 -1372 0 -1372
-68 -36 c-37 -20 -103 -63 -147 -95 -95 -68 -175 -111 -226 -119 -36 -6 -38
-9 -45 -52 -8 -52 2 -345 17 -486 13 -128 48 -249 106 -366 58 -118 123 -186
256 -265 87 -52 104 -59 151 -59 104 0 241 99 340 245 122 180 169 359 181
678 3 96 11 199 17 229 6 32 6 57 1 62 -5 5 -36 14 -68 19 -45 7 -71 19 -114
53 -31 24 -103 76 -162 115 l-105 71 2 1444 c1 1052 4 1449 13 1465 46 86 -44
151 -148 106z m-554 -736 c-13 -179 -61 -291 -173 -404 -54 -55 -90 -81 -155
-113 -47 -22 -93 -41 -102 -41 -28 0 124 235 355 548 38 50 71 92 75 92 3 0 3
-37 0 -82z m-82 -1284 c84 -41 271 -180 334 -247 24 -27 23 -53 -3 -63 -18 -7
-394 245 -435 292 -17 19 -31 44 -31 55 0 26 15 22 135 -37z m-957 -106 l22
-25 -43 -79 c-24 -43 -56 -105 -72 -137 -15 -32 -33 -61 -40 -63 -16 -7 -85
22 -85 35 0 18 32 82 98 198 69 121 71 122 120 71z m945 -149 c67 -45 135 -93
151 -106 16 -13 46 -33 68 -44 l39 -20 -33 -39 c-18 -22 -36 -40 -39 -40 -9 0
-285 167 -367 222 l-73 49 27 42 c14 23 28 50 31 60 5 15 10 13 39 -13 19 -16
89 -66 157 -111z m-781 -137 c-7 -233 8 -292 104 -404 24 -29 44 -57 44 -64 0
-15 -60 -43 -188 -88 -145 -50 -184 -54 -254 -23 -65 29 -65 29 -13 112 58 91
145 261 145 283 0 12 -5 30 -11 40 -8 13 -1 33 36 97 25 44 60 110 78 146 26
54 35 65 48 58 14 -7 15 -28 11 -157z m551 -61 c62 -43 137 -93 167 -111 30
-18 76 -48 102 -67 l47 -34 -70 -108 c-38 -59 -69 -113 -69 -119 0 -7 -2 -12
-5 -12 -26 0 -302 160 -395 229 -44 32 -51 42 -45 60 8 21 146 241 151 241 3
0 55 -35 117 -79z m-987 -87 c32 -19 67 -43 78 -54 18 -18 18 -20 -18 -84
l-37 -66 -75 51 c-73 49 -75 52 -69 82 8 34 45 107 55 107 3 0 33 -16 66 -36z
m-106 -232 c40 -39 54 -85 28 -94 -7 -3 -43 -3 -80 0 -55 3 -68 7 -68 21 0 21
56 111 69 111 6 0 28 -17 51 -38z m930 -121 c52 -26 96 -53 98 -59 4 -13 -104
14 -135 33 -18 12 -70 75 -61 75 2 0 46 -22 98 -49z m-1085 -118 c-3 -10 -14
-49 -22 -87 -13 -58 -14 -80 -4 -134 7 -36 19 -78 27 -94 25 -48 7 -45 -45 6
-99 97 -108 265 -18 310 44 22 71 21 62 -1z m2228 -139 c52 -28 206 -146 220
-170 9 -15 -96 -164 -115 -164 -6 0 -33 14 -60 31 -46 30 -53 31 -118 26 -38
-3 -79 -13 -92 -21 -39 -25 -122 -11 -164 29 -19 18 -34 38 -34 44 0 17 87 97
150 139 30 19 75 51 99 69 50 37 68 40 114 17z m306 -379 c1 -66 -3 -105 -11
-113 -29 -29 -88 -2 -88 40 0 11 16 34 35 51 26 23 35 39 35 63 0 17 3 46 7
65 11 56 22 6 22 -106z m-619 -96 c0 -27 -35 -51 -72 -47 -31 3 -33 6 -36 43
-2 21 -1 54 3 72 l6 33 49 -42 c28 -24 50 -50 50 -59z m275 60 c25 -17 56 -44
67 -60 12 -16 27 -29 34 -29 21 0 64 -41 64 -61 0 -28 -44 -69 -73 -69 -33 0
-52 44 -37 84 5 15 10 28 10 30 0 1 -12 2 -27 1 -22 0 -31 7 -43 32 -8 18 -21
31 -29 30 -15 -2 -34 49 -25 65 7 12 8 11 59 -23z m-117 -119 c43 -40 41 -100
-2 -100 -30 0 -86 45 -86 70 0 53 47 68 88 30z m-167 -70 c22 -12 25 -48 6
-74 -12 -16 -14 -16 -40 4 -38 30 -53 60 -36 71 19 12 46 11 70 -1z m585 -41
c37 -30 -3 -137 -43 -113 -30 18 -57 77 -49 108 6 26 10 28 42 23 20 -3 42
-11 50 -18z m-311 -14 c28 -27 31 -47 11 -64 -11 -10 -21 -9 -44 3 -35 18 -46
40 -32 67 14 26 36 24 65 -6z m-207 -71 c27 -19 28 -39 2 -81 -24 -40 -67 -54
-87 -28 -21 29 -15 66 15 96 31 33 40 35 70 13z m272 -48 c0 -59 -49 -106
-110 -106 -25 0 -33 6 -44 32 -17 40 -11 57 23 64 14 3 35 9 46 14 32 14 85
12 85 -4z m166 -51 c15 -23 15 -27 0 -50 -9 -13 -25 -29 -36 -35 -27 -14 -34
5 -26 65 6 35 11 45 26 45 11 0 27 -11 36 -25z m-2907 -108 l32 -34 -24 -65
c-34 -88 -176 -389 -195 -411 -18 -21 -43 -15 -89 20 -42 31 -42 60 -3 133 16
30 65 126 109 213 44 87 83 162 86 168 13 19 52 8 84 -24z m2509 -3 c27 -8 37
-40 23 -77 -14 -36 -52 -36 -80 -1 -43 54 -12 96 57 78z m348 -19 c9 -22 -4
-63 -27 -86 -25 -25 -35 -18 -50 32 -11 35 -10 41 7 54 25 19 63 19 70 0z
m-148 -97 c18 -23 32 -45 32 -49 0 -15 -45 -39 -72 -39 -52 0 -77 71 -38 110
29 29 42 25 78 -22z"/>
<path d="M7149 5829 c-16 -17 -29 -35 -29 -40 0 -11 89 -69 106 -69 22 0 55
51 48 74 -8 29 -51 66 -76 66 -11 0 -33 -14 -49 -31z"/>
<path d="M7380 5701 c-38 -37 -39 -74 -4 -98 23 -15 29 -15 51 -2 13 8 33 28
44 45 18 30 19 32 2 52 -31 36 -60 37 -93 3z"/>
<path d="M4645 8240 c-178 -10 -227 -17 -450 -69 -231 -53 -496 -161 -530
-215 -7 -12 -15 -61 -19 -111 -3 -49 -11 -132 -18 -184 l-12 -94 -35 -14
c-206 -85 -368 -190 -506 -328 -125 -125 -159 -187 -153 -280 5 -80 43 -156
121 -241 72 -78 129 -119 204 -145 31 -10 59 -19 63 -19 3 0 11 31 18 69 14
85 60 204 113 293 44 74 98 115 224 167 141 59 503 147 700 171 149 18 608 24
778 11 367 -30 699 -110 892 -217 101 -56 124 -76 170 -147 50 -79 89 -176
110 -269 9 -43 20 -78 24 -78 11 0 74 70 116 130 108 151 245 364 245 379 0 9
-10 34 -21 56 -73 137 -272 295 -524 416 -121 59 -124 61 -129 97 -49 326 -48
324 -77 357 -76 86 -416 208 -698 250 -125 18 -416 25 -606 15z m503 -190 c38
-14 40 -24 7 -46 -17 -11 -63 -18 -152 -24 -276 -19 -441 -62 -365 -96 9 -4
158 -10 330 -13 341 -7 332 -5 332 -65 l0 -29 -187 6 c-267 9 -648 -7 -813
-32 -74 -12 -213 -41 -309 -64 l-173 -43 4 103 c3 59 10 108 17 117 14 16 141
64 267 101 118 34 313 72 439 84 61 6 126 13 145 15 71 8 426 -3 458 -14z
m112 -475 c206 -20 293 -37 468 -91 187 -58 307 -114 345 -160 16 -19 72 -70
125 -114 54 -43 113 -93 132 -111 30 -27 28 -26 -15 6 -65 47 -234 128 -360
172 -341 119 -888 182 -1338 154 -355 -21 -596 -65 -887 -161 -220 -72 -494
-214 -592 -308 -37 -35 -38 -35 -38 -12 0 44 41 109 108 171 268 246 808 436
1335 469 184 11 520 4 717 -15z"/>
<path d="M4545 7129 c-247 -17 -564 -82 -787 -160 -162 -57 -190 -70 -216
-104 -27 -34 -75 -180 -109 -330 -25 -115 -27 -133 -27 -405 -1 -157 1 -338 4
-403 l5 -118 -125 -53 c-69 -29 -194 -77 -278 -106 -166 -58 -167 -59 -191
-147 -14 -50 -80 -149 -178 -265 l-74 -87 88 -89 c102 -103 176 -145 333 -186
104 -27 242 -49 262 -41 7 3 23 30 36 59 27 62 68 108 77 85 2 -8 1 -86 -4
-174 -16 -287 -1 -855 24 -896 3 -4 18 -1 33 7 15 7 33 14 41 14 7 0 49 16 93
36 130 59 266 66 359 20 l29 -14 0 116 c0 147 23 378 49 504 64 308 209 606
390 800 39 42 71 79 71 82 0 3 -8 6 -17 6 -32 0 -211 87 -280 136 -89 63 -226
195 -273 264 -238 349 -238 796 0 1040 193 198 449 195 650 -9 92 -93 136
-173 183 -335 19 -65 43 -126 54 -136 13 -13 29 -16 61 -12 37 4 45 9 61 41
10 20 26 63 35 96 47 167 107 276 199 366 196 191 442 182 650 -24 270 -268
198 -858 -145 -1183 -40 -38 -99 -86 -131 -107 -68 -46 -255 -137 -279 -137
-30 0 -20 -31 23 -69 22 -20 84 -87 137 -149 82 -97 98 -111 107 -97 5 10 33
54 62 99 38 59 61 112 87 196 49 162 88 250 155 354 32 50 84 143 116 206 85
170 133 249 184 305 25 28 60 71 78 95 18 25 42 57 55 72 21 27 21 30 10 132
-20 167 -67 312 -136 414 -131 195 -890 338 -1551 291z"/>
<path d="M2303 6900 c-101 -24 -238 -125 -321 -237 -64 -87 -135 -220 -157
-295 -10 -36 -34 -80 -68 -123 -29 -37 -67 -85 -84 -108 -65 -84 -121 -285
-111 -403 3 -35 7 -41 49 -62 25 -12 68 -25 95 -28 l50 -6 34 -111 c51 -164
182 -414 268 -509 l35 -39 -24 -32 c-55 -74 -152 -224 -180 -279 -64 -128
-119 -335 -119 -452 l0 -65 68 40 c71 42 125 68 232 114 36 15 95 41 132 57
l67 30 129 -56 c71 -31 133 -56 137 -56 5 0 42 -20 84 -44 77 -44 148 -73 158
-63 9 10 -16 199 -37 282 -32 122 -116 289 -184 365 -32 36 -71 82 -87 102
l-29 36 70 77 c145 155 264 381 336 632 2 9 12 9 36 2 18 -5 76 -9 129 -9 75
0 98 3 102 14 10 26 -12 194 -34 259 -32 95 -75 162 -164 256 -74 79 -84 93
-104 161 -44 145 -162 341 -276 456 -97 97 -142 116 -232 94z m122 -202 c85
-95 215 -343 215 -411 0 -41 -104 -140 -175 -168 -93 -35 -183 -33 -266 8 -77
38 -138 96 -175 168 l-28 52 49 99 c39 79 65 115 125 175 70 72 154 127 192
129 9 0 37 -23 63 -52z m-357 -698 c121 -71 274 -91 390 -50 67 24 164 81 209
123 18 17 35 28 38 25 3 -3 6 -63 7 -134 1 -139 -15 -239 -58 -366 -25 -73
-120 -262 -182 -358 -46 -72 -168 -190 -197 -190 -14 0 -41 20 -72 53 -136
144 -282 489 -313 742 -11 88 -10 109 12 233 l11 64 44 -51 c25 -28 75 -69
111 -91z m862 -37 c11 -29 23 -78 26 -109 l7 -55 -29 6 c-60 14 -65 17 -60 32
3 8 6 60 6 116 1 92 2 100 15 83 8 -11 24 -44 35 -73z m-588 -1195 c41 -51 88
-111 104 -133 38 -49 115 -178 110 -183 -7 -6 -110 50 -190 104 -43 30 -85 54
-93 54 -8 0 -47 -22 -86 -50 -66 -45 -205 -116 -212 -108 -6 5 92 173 137 236
92 127 129 172 143 172 7 0 47 -42 87 -92z"/>
<path d="M2264 6533 c-29 -6 -72 -53 -83 -90 -19 -64 39 -153 100 -153 93 0
157 81 129 164 -18 55 -85 92 -146 79z"/>
<path d="M1980 5785 c0 -31 7 -56 21 -76 50 -71 184 -113 340 -107 83 3 104 8
160 35 80 40 109 70 115 120 8 67 -3 71 -98 40 -109 -35 -162 -46 -223 -47
-59 0 -150 22 -203 49 -21 11 -55 22 -75 26 l-37 7 0 -47z"/>
<path d="M2070 5481 c0 -38 63 -94 128 -112 67 -19 188 -17 233 5 43 20 96 73
101 101 3 23 -2 23 -167 10 -67 -6 -110 -3 -169 9 -114 23 -126 22 -126 -13z"/>
<path d="M5345 6591 c-85 -39 -125 -110 -125 -221 l0 -70 45 0 c43 0 45 1 64
45 15 35 29 49 58 62 36 14 40 14 73 -3 21 -12 42 -35 55 -61 19 -42 21 -43
67 -43 l48 0 0 45 c0 79 -19 140 -58 185 -64 75 -148 98 -227 61z"/>
<path d="M4135 6581 c-85 -38 -129 -120 -123 -229 l3 -57 43 -3 c49 -4 67 7
77 46 11 44 44 72 85 72 45 0 75 -21 101 -71 19 -38 22 -40 62 -37 l42 3 3 55
c2 30 -2 72 -8 93 -14 47 -74 115 -117 134 -45 18 -121 16 -168 -6z"/>
<path d="M5040 6162 c-36 -39 -57 -51 -106 -65 -129 -36 -231 -16 -340 68 -26
19 -53 35 -60 35 -7 0 -26 -12 -43 -26 -56 -47 -34 -116 62 -193 55 -44 127
-77 203 -91 142 -28 341 48 418 158 36 52 34 86 -8 128 -47 47 -72 44 -126
-14z"/>
<path d="M4971 4721 c-38 -36 -45 -63 -27 -100 33 -63 91 -79 125 -35 28 35
26 80 -4 119 -33 45 -59 49 -94 16z"/>
<path d="M4596 4711 c-38 -40 -37 -77 3 -113 39 -34 51 -35 90 -3 39 33 46 57
26 94 -29 58 -77 66 -119 22z"/>
<path d="M6021 4513 c-28 -54 -74 -138 -102 -188 -138 -243 -264 -503 -304
-625 -10 -30 -26 -73 -36 -95 -11 -22 -14 -31 -7 -20 24 38 110 116 168 154
124 81 282 92 430 33 41 -17 78 -28 82 -24 13 13 28 303 28 536 l0 236 -96 45
c-54 25 -100 45 -105 45 -4 0 -30 -44 -58 -97z"/>
<path d="M8259 3783 c-63 -39 -77 -116 -30 -164 52 -52 128 -34 151 36 15 44
-1 96 -37 125 -31 24 -49 25 -84 3z"/>
<path d="M3675 3691 c-23 -10 -54 -35 -71 -56 -28 -34 -32 -37 -53 -25 -15 7
-51 11 -96 8 -135 -6 -198 -80 -194 -225 l2 -75 -38 -21 c-57 -33 -78 -67 -83
-137 -7 -97 24 -147 192 -311 288 -280 411 -352 606 -353 118 -1 191 25 256
89 108 109 129 257 69 490 -49 189 -161 416 -258 521 -93 103 -230 142 -332
95z m157 -164 c81 -50 171 -198 253 -417 42 -110 48 -137 52 -225 l5 -100 -33
-50 c-43 -64 -93 -90 -174 -89 -51 0 -72 6 -140 42 -99 52 -162 99 -313 234
-109 97 -182 183 -182 214 0 15 43 31 108 39 29 4 56 13 58 19 3 7 -4 37 -16
66 -36 92 -44 147 -26 175 25 37 68 33 146 -15 41 -25 77 -40 98 -40 l32 0 0
56 c0 108 49 142 132 91z"/>
<path d="M3770 3104 c-73 -32 -110 -86 -110 -163 0 -43 5 -56 44 -103 48 -59
134 -112 201 -122 85 -14 162 71 151 166 -11 98 -90 201 -175 226 -49 15 -68
15 -111 -4z"/>
<path d="M5893 3690 c-123 -44 -209 -142 -322 -369 -97 -192 -149 -388 -138
-519 9 -120 91 -242 194 -289 128 -59 292 -30 463 81 86 57 298 232 383 318
105 106 147 213 116 295 -13 36 -54 78 -88 92 -25 11 -26 14 -26 99 0 108 -26
163 -94 201 -50 27 -136 33 -177 10 -23 -12 -27 -11 -37 6 -47 86 -160 117
-274 75z m135 -168 c9 -11 12 -40 10 -85 l-3 -67 30 0 c18 0 61 19 105 45 80
49 104 54 132 28 25 -23 23 -81 -6 -151 -40 -98 -41 -109 -5 -116 17 -3 45 -6
61 -6 46 0 68 -17 68 -51 0 -38 -59 -102 -217 -236 -157 -134 -208 -171 -288
-209 -116 -56 -222 -43 -288 36 -69 82 -44 265 70 510 104 225 207 340 288
325 17 -3 36 -13 43 -23z"/>
<path d="M5831 3100 c-44 -19 -101 -72 -129 -118 -23 -40 -27 -58 -27 -124 0
-74 2 -79 32 -109 46 -46 110 -51 184 -14 75 39 115 71 151 123 27 39 30 50
26 98 -5 58 -25 93 -71 128 -31 23 -127 32 -166 16z"/>
<path d="M5511 3503 c-23 -31 -41 -63 -41 -72 0 -16 46 46 76 102 24 44 8 31
-35 -30z"/>
<path d="M5240 3003 c-182 -62 -262 -77 -410 -77 -145 1 -240 18 -374 68 -60
23 -67 24 -61 8 15 -40 17 -227 1 -282 -18 -68 -16 -70 98 -104 259 -79 438
-81 714 -10 75 19 138 37 139 38 2 2 -4 22 -12 46 -18 50 -20 199 -4 284 6 32
9 59 7 60 -2 1 -46 -13 -98 -31z"/>
<path d="M6277 2595 c-148 -140 -351 -234 -504 -235 -125 0 -224 41 -319 132
l-62 60 -74 -36 c-43 -20 -116 -44 -178 -56 -93 -19 -128 -21 -300 -17 -219 5
-285 18 -424 81 l-78 36 -55 -55 c-35 -35 -83 -69 -131 -92 -75 -37 -78 -38
-192 -38 -71 0 -130 6 -155 14 -87 30 -205 95 -302 167 l-102 75 -128 -26
c-325 -66 -493 -137 -493 -209 0 -28 53 -78 108 -102 124 -53 500 -117 907
-154 558 -51 619 -54 1215 -54 762 -1 1129 21 1675 99 412 59 565 114 565 204
0 93 -209 169 -595 215 -116 14 -234 30 -264 36 -30 5 -54 10 -55 10 0 -1 -27
-25 -59 -55z"/>
</g>
</svg>
