<?xml version="1.0" standalone="no"?>
<!DOCTYPE svg PUBLIC "-//W3C//DTD SVG 20010904//EN"
 "http://www.w3.org/TR/2001/REC-SVG-20010904/DTD/svg10.dtd">
<svg version="1.0" xmlns="http://www.w3.org/2000/svg"
 width="1024.000000pt" height="1024.000000pt" viewBox="0 0 1024.000000 1024.000000"
 preserveAspectRatio="xMidYMid meet">
<metadata>
Created by potrace 1.16, written by Peter Selinger 2001-2019
</metadata>
<g transform="translate(0.000000,1024.000000) scale(0.100000,-0.100000)"
fill="#000000" stroke="none">
<path d="M5590 9103 c-101 -6 -294 -33 -377 -53 -102 -24 -170 -58 -211 -104
-42 -48 -50 -65 -138 -284 -42 -103 -87 -213 -101 -244 l-26 -58 -47 0 c-138
0 -510 -54 -739 -107 -320 -74 -495 -155 -623 -291 -80 -86 -118 -159 -118
-229 0 -66 38 -169 86 -234 53 -72 198 -189 234 -189 8 0 48 30 88 66 l72 66
32 -19 c18 -11 40 -31 48 -46 13 -23 13 -31 1 -59 -17 -40 -24 -109 -14 -125
8 -12 132 -60 298 -115 110 -37 338 -89 346 -80 4 4 12 54 18 112 16 147 56
314 101 428 21 53 42 113 45 133 6 34 9 37 52 43 64 8 141 8 147 -2 2 -4 -16
-50 -40 -102 -98 -205 -144 -396 -151 -625 -5 -166 2 -215 32 -215 21 0 118
41 126 53 4 5 10 68 13 141 10 191 31 304 81 428 52 131 93 191 167 251 56 45
108 69 108 49 0 -15 -31 -37 -53 -37 -11 0 -22 -6 -24 -13 -3 -8 1 -10 13 -5
11 4 15 3 11 -4 -4 -7 23 -28 67 -52 160 -88 271 -246 296 -423 6 -39 11 -73
13 -74 1 -1 56 -3 122 -5 l120 -4 35 70 c123 246 291 379 534 425 262 49 575
-129 697 -397 135 -294 88 -693 -112 -958 -56 -73 -91 -102 -266 -216 -185
-120 -342 -286 -422 -446 l-31 -63 -504 0 -504 0 -7 68 c-12 118 -64 317 -114
437 -11 28 -25 76 -31 107 -6 31 -20 68 -31 82 -26 33 -89 50 -162 43 -54 -5
-67 -1 -181 48 -67 30 -162 66 -212 82 -84 26 -100 27 -274 27 -174 0 -190 -2
-265 -27 -207 -69 -407 -237 -498 -421 -43 -86 -76 -222 -77 -311 0 -42 -6
-70 -20 -93 -11 -18 -20 -39 -20 -47 0 -19 -18 -19 -39 -1 -9 7 -61 44 -116
81 -55 38 -128 92 -163 120 l-63 52 -3 109 c-7 216 -98 401 -213 433 -138 39
-298 -33 -473 -211 -116 -119 -171 -235 -172 -365 0 -88 28 -156 80 -190 45
-30 215 -81 308 -93 44 -6 112 -7 152 -4 l73 7 56 -54 c30 -30 107 -112 172
-184 64 -71 191 -208 284 -303 203 -212 413 -457 455 -532 17 -30 45 -90 62
-132 47 -112 61 -122 173 -126 236 -9 619 101 948 270 115 59 229 140 249 178
15 27 0 78 -66 227 -30 67 -54 124 -54 126 0 2 31 51 69 109 88 134 104 167
127 256 l18 72 593 0 c524 0 593 2 607 16 19 18 21 61 5 66 -52 17 166 293
330 417 161 122 292 183 480 221 185 38 360 21 522 -50 100 -45 125 -59 187
-108 42 -33 52 -63 36 -107 -6 -14 -9 -14 -28 4 -33 31 -165 98 -231 117 -92
28 -286 25 -390 -4 -97 -28 -241 -95 -321 -150 -85 -57 -202 -169 -270 -259
-95 -124 -198 -192 -374 -248 -91 -28 -182 -42 -485 -75 -267 -28 -406 -58
-490 -105 -107 -60 -132 -125 -77 -201 36 -49 155 -161 214 -202 76 -52 229
-129 352 -177 248 -97 636 -156 879 -134 258 24 528 137 675 282 46 46 76 88
114 162 28 55 52 102 54 104 1 1 21 -11 43 -29 l39 -32 200 7 200 7 6 -133 c3
-74 7 -188 8 -254 l3 -119 -112 -27 c-170 -42 -398 -68 -723 -85 -162 -8 -303
-17 -312 -20 -22 -6 -24 -84 -8 -245 14 -131 30 -196 64 -245 39 -57 143 -161
209 -207 31 -22 57 -42 57 -45 0 -2 -40 -1 -89 3 -49 4 -98 4 -109 1 -11 -4
-50 -46 -87 -95 -76 -100 -170 -179 -307 -258 -450 -259 -889 -236 -1296 66
-168 125 -315 326 -383 524 -35 101 -69 294 -69 388 0 83 -4 86 -98 69 -91
-17 -126 -35 -119 -63 3 -12 16 -74 30 -137 69 -320 144 -502 285 -697 45 -63
64 -99 76 -150 19 -74 41 -115 80 -152 14 -14 26 -30 26 -36 0 -6 -26 -16 -57
-23 -104 -22 -254 -75 -314 -111 -203 -124 -320 -282 -353 -476 l-12 -70 -155
-17 c-283 -31 -382 -49 -505 -89 -135 -44 -163 -64 -148 -106 14 -41 51 -61
159 -88 171 -42 479 -75 875 -95 113 -5 228 -12 255 -15 82 -9 617 -34 969
-46 349 -11 386 -10 1381 42 642 33 1009 65 1192 103 135 29 163 50 163 124 0
105 -60 125 -500 163 -135 11 -246 22 -247 23 -2 1 -10 43 -18 92 -33 194
-135 331 -336 451 -172 102 -303 136 -539 137 l-155 0 -125 -42 c-192 -66
-307 -137 -418 -257 -73 -80 -148 -223 -160 -305 l-7 -55 -40 1 c-144 5 -919
3 -927 -2 -17 -11 1 75 28 136 14 30 36 69 49 86 27 35 32 54 14 54 -26 0
-133 -32 -155 -47 -34 -22 -98 -122 -114 -177 l-13 -46 -76 0 c-42 0 -120 3
-173 7 l-98 6 6 26 c10 49 75 166 122 222 93 111 223 181 388 210 108 19 292
7 387 -25 173 -58 296 -130 421 -247 41 -38 80 -69 88 -69 12 0 78 129 78 152
0 4 -19 17 -42 29 -88 45 -299 200 -280 207 6 2 57 -13 114 -32 57 -19 145
-42 196 -52 l94 -16 46 33 c209 148 295 192 477 241 113 31 129 33 285 33 144
-1 180 -4 280 -28 74 -18 151 -45 215 -76 l101 -48 84 17 c199 41 509 199 705
360 76 63 247 236 311 315 95 118 174 257 213 375 27 81 26 111 -1 137 -23 22
-141 59 -278 88 -106 23 -318 91 -365 118 l-40 23 -3 364 c-3 231 -8 370 -14
378 -6 6 -30 12 -54 12 l-44 0 2 450 c1 502 6 465 -69 511 -38 24 -37 -1 -8
232 25 198 19 714 -10 974 l-6 51 57 -13 c105 -24 99 -1 97 -415 l-1 -360 73
0 c78 0 123 11 130 32 28 80 50 128 70 153 24 29 24 29 45 10 12 -10 37 -50
57 -87 20 -38 43 -73 52 -78 11 -5 64 0 144 16 292 54 400 101 504 218 81 91
117 160 121 230 3 54 -1 70 -36 141 -94 193 -275 342 -632 520 -221 111 -321
155 -444 195 -73 24 -99 38 -105 54 -4 11 -16 82 -25 156 -18 141 -64 378 -91
467 -33 111 -129 191 -351 293 -342 155 -839 272 -1318 310 -118 9 -524 11
-656 3z m666 -173 c358 -28 794 -113 994 -192 41 -17 120 -46 175 -65 109 -38
151 -58 237 -110 55 -34 57 -36 82 -117 26 -83 56 -214 56 -243 0 -12 -3 -13
-13 -4 -29 23 -397 144 -539 176 -82 19 -152 36 -156 39 -42 25 -727 144 -997
172 -178 18 -690 28 -903 17 -89 -4 -162 -4 -162 0 0 21 105 258 120 272 22
20 165 43 335 54 180 12 625 12 771 1z m-272 -489 c21 -5 45 -16 54 -24 13
-13 12 -16 -4 -25 -11 -5 -241 -11 -561 -14 l-543 -5 0 22 c0 12 6 27 13 33
23 19 298 30 652 27 193 -2 368 -8 389 -14z m-289 -241 c198 -13 299 -23 535
-55 633 -86 1353 -266 1748 -436 64 -28 164 -70 222 -94 185 -76 512 -243 625
-320 112 -76 174 -135 226 -214 25 -38 29 -55 29 -112 0 -45 -6 -77 -17 -97
l-17 -29 -19 38 c-40 81 -307 244 -562 344 -110 42 -230 89 -355 138 -64 25
-158 57 -210 70 -52 14 -158 43 -235 65 -137 40 -253 70 -585 151 -411 101
-1016 185 -1520 212 -265 14 -947 13 -1107 -1 -65 -6 -172 -15 -238 -20 -146
-11 -437 -54 -537 -79 -107 -28 -192 -64 -242 -105 l-43 -36 -11 51 c-13 66
-3 97 50 166 138 179 402 266 1043 342 94 12 188 22 210 24 98 9 866 6 1010
-3z m2036 -926 c23 -136 31 -268 30 -524 -1 -269 -15 -617 -25 -627 -3 -3 -22
-1 -43 4 -45 11 -44 3 -23 243 19 220 18 586 -3 728 -18 116 -21 199 -11 226
5 13 10 13 37 2 26 -10 33 -20 38 -52z m-3476 -1036 c93 -15 261 -83 347 -140
140 -91 221 -201 284 -383 24 -71 28 -95 28 -210 1 -177 -31 -290 -114 -404
l-33 -45 -18 23 c-26 32 -24 59 10 122 49 90 65 168 65 319 1 133 1 136 -36
223 -71 171 -190 295 -347 363 -109 47 -194 64 -326 64 -203 0 -337 -49 -467
-169 -90 -83 -141 -162 -165 -253 -18 -71 -20 -74 -80 -92 -31 -10 -30 11 2
111 35 110 87 194 180 288 171 173 384 231 670 183z m-1693 -116 c17 -17 -16
-125 -63 -205 -102 -172 -272 -294 -366 -263 -46 15 -42 107 8 214 51 107 185
229 289 263 33 11 118 5 132 -9z m1716 -108 c141 -29 214 -75 302 -193 73 -97
85 -139 85 -308 0 -104 -4 -145 -13 -155 -11 -11 -15 -9 -25 7 -20 36 -76 167
-123 290 -80 208 -91 221 -216 250 -136 31 -241 17 -461 -61 -87 -31 -160 -54
-163 -51 -13 12 38 76 96 121 62 49 125 81 200 102 64 18 228 17 318 -2z
m-1598 -148 c0 -87 -2 -98 -36 -164 -57 -115 -116 -152 -243 -152 -73 0 -72
10 3 54 100 58 211 204 247 324 6 23 16 39 20 36 5 -3 9 -47 9 -98z m1585
-126 c9 -15 -8 -34 -73 -77 -120 -79 -401 -176 -620 -213 -225 -37 -252 -30
-155 42 129 95 406 210 596 248 62 12 245 12 252 0z m2975 -95 c17 -21 6 -46
-60 -134 -120 -158 -398 -381 -582 -465 -103 -47 -233 -90 -373 -122 -105 -24
-147 -28 -331 -32 -216 -4 -471 10 -506 29 -13 7 -17 14 -10 21 16 16 213 45
457 68 244 22 340 40 473 89 218 79 496 266 662 444 57 61 88 82 155 103 54
17 100 17 115 -1z m-2878 -37 c8 -13 27 -54 43 -93 15 -38 47 -106 71 -150 23
-44 58 -118 77 -165 65 -158 114 -275 147 -345 49 -107 101 -245 96 -254 -8
-13 -165 -106 -253 -150 -124 -62 -323 -139 -431 -166 -124 -32 -325 -53 -345
-37 -8 7 -19 31 -26 54 -12 40 -81 220 -153 398 -53 133 -129 362 -149 451
-10 47 -21 93 -25 102 -7 18 -14 16 161 47 151 27 327 72 407 104 34 14 63 24
64 23 1 -1 -2 -31 -7 -67 -8 -55 -6 -78 16 -163 26 -99 101 -310 148 -417 13
-30 41 -107 62 -170 21 -63 42 -121 48 -127 23 -31 109 -7 295 79 l113 53 -4
40 c-2 22 -21 78 -42 125 -52 117 -135 308 -205 470 -32 74 -76 176 -98 225
-48 110 -60 155 -39 155 8 0 21 -10 29 -22z m3406 -31 c17 -10 34 -29 36 -41
3 -11 9 -127 15 -256 11 -255 12 -250 -45 -250 l-32 0 -6 78 c-4 42 -11 162
-16 266 -6 104 -13 200 -16 213 -7 26 5 25 64 -10z m-4950 -26 c31 -26 83 -66
114 -87 107 -74 294 -222 329 -261 62 -69 137 -213 127 -243 -3 -9 -129 87
-315 239 l-78 64 66 -69 c93 -98 283 -314 365 -415 64 -80 122 -169 110 -169
-3 0 -44 46 -93 103 -96 111 -348 381 -563 602 -75 77 -148 156 -163 176 l-28
37 33 35 c18 19 34 35 36 36 2 0 29 -21 60 -48z m5118 -1428 c-3 -10 -12 -61
-21 -113 -43 -250 -118 -437 -275 -685 -109 -172 -181 -253 -264 -300 -35 -19
-68 -35 -75 -35 -17 0 2 34 54 95 88 104 222 326 296 491 58 130 109 318 144
527 l6 37 70 0 c62 0 70 -2 65 -17z m152 -23 c102 -48 307 -104 464 -126 26
-3 55 -12 65 -19 17 -13 16 -14 -10 -24 -85 -33 -368 19 -520 95 -76 38 -103
58 -118 86 -16 29 46 23 119 -12z m-980 -1360 c133 -37 300 -135 371 -216 40
-45 76 -116 94 -187 l15 -57 -139 -2 c-76 -1 -147 -2 -156 -2 -12 -1 -19 10
-25 37 -18 87 -89 182 -157 209 -44 18 -91 26 -96 18 -3 -4 8 -34 24 -67 24
-49 38 -96 55 -184 3 -13 -21 -15 -200 -15 l-204 1 0 35 c0 19 11 76 25 125
30 110 30 105 2 105 -68 0 -175 -116 -199 -215 l-12 -50 -160 3 c-88 2 -163 5
-165 8 -10 10 32 115 67 170 91 140 242 243 432 294 100 27 316 22 428 -10z"/>
<path d="M5670 8824 c-18 -21 -17 -72 2 -90 23 -23 225 -37 255 -18 42 27 44
90 3 111 -39 20 -244 18 -260 -3z"/>
<path d="M5203 8820 c-14 -6 -27 -24 -34 -50 -18 -61 -9 -65 129 -64 113 2
116 2 140 29 16 19 22 37 20 59 l-3 31 -115 2 c-63 1 -125 -2 -137 -7z"/>
<path d="M6174 8809 c-8 -9 -17 -32 -21 -52 -8 -50 17 -63 166 -83 l125 -17
23 27 c26 31 29 63 9 92 -12 16 -38 22 -151 34 -125 14 -137 14 -151 -1z"/>
<path d="M6696 8728 c-9 -12 -16 -37 -16 -55 0 -41 21 -52 168 -88 129 -32
142 -28 142 50 l0 53 -47 16 c-42 13 -200 46 -224 46 -4 0 -15 -10 -23 -22z"/>
<path d="M7134 8615 c-18 -45 -18 -58 4 -78 22 -20 155 -67 190 -67 33 0 51
26 52 72 0 44 -21 58 -129 89 -91 26 -100 25 -117 -16z"/>
<path d="M7492 8527 c-16 -19 -25 -63 -17 -86 8 -26 76 -62 174 -91 73 -22 74
-22 88 -4 17 22 11 75 -11 109 -16 25 -156 85 -197 85 -15 0 -31 -6 -37 -13z"/>
<path d="M4706 8088 c-23 -32 -21 -85 3 -98 11 -5 84 -10 166 -10 l146 0 15
35 c18 44 18 60 -2 79 -13 13 -42 16 -164 16 -142 0 -150 -1 -164 -22z"/>
<path d="M5321 8082 c-18 -42 -11 -75 19 -88 14 -7 87 -15 162 -18 130 -7 138
-6 157 13 24 24 27 68 9 94 -11 15 -38 18 -174 24 l-160 6 -13 -31z"/>
<path d="M4290 8080 c-30 -5 -74 -12 -97 -15 -53 -8 -73 -27 -73 -69 0 -46 23
-53 158 -46 104 5 116 7 133 29 20 24 25 67 11 89 -12 17 -66 22 -132 12z"/>
<path d="M5932 8060 c-18 -29 -15 -74 6 -93 12 -11 61 -21 157 -33 l140 -16
22 27 c13 14 23 35 23 46 0 21 -33 59 -52 59 -7 0 -69 7 -138 15 -155 18 -143
19 -158 -5z"/>
<path d="M3757 7990 c-85 -21 -130 -41 -164 -73 -26 -23 -31 -65 -9 -73 20 -8
283 34 307 49 25 15 35 52 23 86 -12 34 -52 37 -157 11z"/>
<path d="M6531 7974 c-26 -33 -27 -54 -1 -82 22 -24 21 -23 164 -52 124 -25
141 -25 160 2 19 27 21 82 4 95 -7 6 -71 20 -143 33 -71 12 -137 24 -146 26
-10 3 -26 -6 -38 -22z"/>
<path d="M7107 7852 c-10 -10 -17 -33 -17 -50 0 -24 6 -35 28 -46 39 -20 270
-79 287 -72 8 3 19 23 26 44 19 64 5 77 -108 102 -54 12 -111 26 -127 31 -44
14 -71 11 -89 -9z"/>
<path d="M7663 7698 c-11 -13 -24 -33 -27 -44 -9 -30 40 -70 112 -90 31 -8 79
-22 106 -31 86 -27 119 -18 131 38 5 21 2 36 -10 49 -15 17 -245 100 -277 100
-8 0 -24 -10 -35 -22z"/>
<path d="M8175 7500 c-8 -16 -15 -41 -15 -55 0 -22 9 -30 53 -49 28 -13 91
-36 139 -52 73 -23 91 -26 112 -16 38 17 37 73 -1 100 -32 22 -233 102 -257
102 -9 0 -22 -13 -31 -30z"/>
<path d="M8686 7278 c-17 -55 -16 -67 11 -86 16 -11 51 -31 80 -46 83 -42 127
-33 121 24 -3 29 -12 39 -73 77 -70 43 -131 57 -139 31z"/>
<path d="M2404 6065 c-12 -8 -24 -12 -27 -8 -8 8 -57 -25 -57 -38 0 -6 11 -9
24 -7 15 2 31 -5 42 -19 29 -33 59 -38 83 -12 27 29 27 64 -1 83 -28 20 -38
20 -64 1z"/>
<path d="M2248 5920 c-14 -11 -41 -49 -59 -84 -33 -63 -33 -65 -15 -85 25 -28
38 -26 75 8 18 16 39 31 49 33 18 4 48 55 37 66 -3 4 -15 -4 -26 -18 l-20 -25
16 33 c13 27 14 37 3 59 -17 35 -29 38 -60 13z"/>
<path d="M4980 7234 c-44 -37 -72 -98 -78 -169 -3 -49 -1 -65 12 -78 26 -26
55 -21 67 11 44 109 57 115 115 52 21 -22 43 -40 50 -40 22 0 37 40 32 89 -13
131 -117 202 -198 135z"/>
<path d="M6194 7201 c-38 -17 -77 -58 -102 -106 -19 -38 -25 -128 -9 -150 14
-18 17 -17 72 33 48 44 63 52 95 52 57 0 67 -7 111 -71 30 -44 46 -59 64 -59
29 0 39 25 38 97 -3 159 -142 264 -269 204z"/>
<path d="M5360 6951 c-36 -9 -190 -61 -343 -115 -231 -80 -293 -106 -361 -150
-90 -58 -136 -106 -136 -140 0 -66 100 -140 264 -196 46 -15 109 -44 140 -64
127 -81 221 -115 397 -140 210 -31 309 -17 445 65 117 71 243 237 274 361 28
112 -51 216 -231 306 -176 88 -313 110 -449 73z m225 -142 c22 -6 81 -31 131
-55 91 -45 150 -92 142 -115 -6 -17 -139 -55 -273 -78 -260 -46 -835 -52 -835
-10 0 23 272 130 585 230 126 40 183 46 250 28z m175 -378 c0 -16 -63 -63
-117 -88 -69 -32 -140 -38 -255 -24 -110 14 -295 54 -308 67 -6 6 56 8 154 6
173 -5 358 9 441 32 60 17 85 19 85 7z"/>
<path d="M1905 6395 c-14 -13 -25 -35 -25 -49 0 -34 44 -82 88 -97 20 -6 56
-21 80 -32 45 -21 61 -16 83 25 27 50 -98 178 -174 178 -16 0 -38 -10 -52 -25z"/>
<path d="M1536 6390 c-71 -22 -87 -80 -37 -131 26 -26 36 -29 93 -29 40 0 76
6 98 18 30 15 35 22 38 58 3 45 -12 64 -67 83 -39 13 -83 13 -125 1z"/>
<path d="M1287 6179 c-85 -20 -120 -56 -97 -98 17 -32 52 -51 93 -51 32 0 46
7 78 39 41 40 48 66 27 94 -17 21 -54 27 -101 16z"/>
<path d="M1749 6001 c-72 -22 -98 -56 -79 -102 7 -16 16 -29 20 -29 4 0 11
-15 16 -32 8 -28 15 -34 43 -36 41 -4 88 14 102 40 15 29 -6 48 -53 48 -34 0
-39 2 -28 15 6 7 33 17 58 21 48 6 92 27 92 44 0 4 -7 16 -16 24 -17 17 -107
21 -155 7z"/>
<path d="M1477 5760 c-81 -51 -97 -121 -41 -177 39 -39 76 -27 152 52 34 36
62 74 62 84 0 10 -9 30 -21 45 -29 37 -89 36 -152 -4z"/>
<path d="M1848 5261 c-6 -15 -8 -86 -6 -171 4 -125 8 -153 29 -203 62 -148
216 -256 350 -245 l42 3 53 -100 c47 -87 114 -261 114 -295 0 -8 -11 -9 -32
-5 -66 13 -68 14 -68 53 0 60 -41 131 -113 199 -101 94 -141 106 -357 107
l-175 1 2 -80 c2 -141 61 -274 158 -364 44 -40 72 -56 127 -72 83 -25 191 -23
251 6 36 17 41 17 122 -1 47 -10 87 -24 89 -31 3 -7 8 -87 12 -178 l7 -165
-448 0 -448 0 7 -67 c3 -38 10 -167 16 -288 6 -121 13 -242 16 -268 7 -54 18
-62 107 -75 l51 -7 22 -145 c45 -299 118 -679 141 -732 8 -20 26 -47 39 -59
l23 -21 600 -1 601 -1 31 30 c43 41 57 72 69 151 5 37 19 129 30 203 11 74 27
182 35 240 35 257 49 330 61 330 45 0 116 24 128 43 14 21 27 206 40 556 l5
124 -489 -7 -490 -7 0 100 c0 96 -15 288 -26 323 -4 15 6 17 98 16 81 0 115 5
159 21 128 48 204 128 244 254 23 71 45 215 45 290 l0 37 -117 0 c-135 0 -217
-16 -301 -59 -62 -31 -135 -103 -173 -169 -23 -40 -39 -53 -39 -32 0 6 -20 54
-46 108 -44 95 -45 98 -32 142 17 60 14 184 -6 239 -58 159 -248 270 -499 294
-45 4 -49 3 -59 -22z m274 -177 c58 -29 111 -75 137 -117 21 -35 38 -107 25
-107 -5 0 -31 22 -59 49 -27 27 -67 56 -87 65 l-38 15 0 -28 c0 -17 17 -54 40
-89 48 -72 50 -87 13 -77 -77 19 -136 87 -153 174 -11 58 -13 144 -4 153 8 9
72 -11 126 -38z m834 -526 c-14 -124 -58 -191 -151 -234 -47 -22 -115 -32
-115 -17 0 3 27 31 60 60 68 62 78 89 28 79 -32 -6 -138 -81 -138 -97 0 -5 -4
-9 -10 -9 -18 0 -11 49 14 98 51 101 162 170 275 171 l44 1 -7 -52z m-987
-108 c84 -11 141 -40 190 -95 43 -50 39 -58 -16 -30 -67 33 -121 42 -129 21
-9 -23 17 -49 84 -87 48 -27 53 -33 38 -41 -43 -24 -156 14 -208 69 -29 31
-78 128 -78 156 0 20 13 21 119 7z m1137 -902 c4 -5 -9 -8 -29 -8 -46 0 -87
-16 -87 -33 0 -44 -35 -122 -70 -157 -44 -44 -146 -99 -230 -125 -89 -27 -300
-37 -622 -29 l-296 6 -6 82 c-3 44 -8 124 -10 176 l-5 95 674 0 c370 0 677 -3
681 -7z m287 -139 c-1 -68 -4 -143 -8 -166 -6 -43 -6 -43 -49 -43 -23 0 -45 3
-48 6 -3 3 4 24 17 47 22 40 46 139 60 240 4 31 11 47 18 44 9 -3 12 -40 10
-128z m-1278 -464 c61 -9 164 -31 230 -50 66 -18 152 -41 190 -51 39 -9 81
-23 94 -31 24 -15 24 -17 17 -130 -12 -220 -48 -405 -83 -434 -13 -11 -64 -13
-251 -11 -130 1 -237 3 -238 5 -6 6 -55 239 -81 386 -14 80 -28 196 -32 257
l-6 111 25 -18 c16 -12 64 -24 135 -34z m1082 -22 c-12 -128 -57 -478 -75
-578 l-18 -100 -32 -3 c-37 -4 -38 0 -17 59 15 42 37 169 70 409 9 63 21 133
26 155 11 45 42 125 48 125 2 0 1 -30 -2 -67z"/>
<path d="M2051 2794 c-31 -39 -27 -77 10 -108 85 -72 178 26 100 105 -38 38
-82 39 -110 3z"/>
<path d="M7635 4733 c-45 -7 -52 -18 -65 -96 -21 -124 -71 -207 -165 -275
l-30 -21 27 -1 c42 0 347 40 397 52 l44 11 -7 120 c-3 66 -6 142 -6 169 l0 48
-82 -1 c-46 -1 -96 -4 -113 -6z"/>
<path d="M5106 4445 c-9 -35 12 -535 25 -601 8 -42 19 -59 62 -100 97 -93 189
-146 307 -175 78 -19 268 -17 360 5 93 21 228 85 281 133 46 42 53 65 68 233
6 69 19 160 28 202 8 42 13 83 10 91 -7 17 -88 37 -152 37 l-45 0 0 -149 c0
-82 -5 -162 -11 -178 -18 -49 -78 -99 -167 -142 -151 -71 -247 -76 -391 -21
-87 34 -139 69 -176 119 -25 34 -25 38 -25 213 0 117 4 178 10 178 6 0 27 -18
48 -40 36 -39 39 -40 132 -50 52 -5 172 -10 266 -10 158 0 173 2 198 21 17 13
26 30 26 49 0 33 -19 42 -130 65 -41 9 -100 24 -130 35 -152 52 -235 71 -370
85 -80 8 -161 18 -181 21 -33 5 -37 3 -43 -21z"/>
<path d="M8486 2621 c-79 -53 -72 -155 13 -191 64 -26 141 28 141 99 0 46 -23
79 -66 97 -44 18 -53 18 -88 -5z"/>
<path d="M8600 2133 c-42 -21 -50 -53 -25 -99 20 -38 56 -47 144 -34 67 9 94
21 115 51 11 16 12 27 4 44 -14 32 -51 46 -133 52 -55 3 -78 0 -105 -14z"/>
</g>
</svg>
