<?xml version="1.0" standalone="no"?>
<!DOCTYPE svg PUBLIC "-//W3C//DTD SVG 20010904//EN"
 "http://www.w3.org/TR/2001/REC-SVG-20010904/DTD/svg10.dtd">
<svg version="1.0" xmlns="http://www.w3.org/2000/svg"
 width="1024.000000pt" height="1024.000000pt" viewBox="0 0 1024.000000 1024.000000"
 preserveAspectRatio="xMidYMid meet">
<metadata>
Created by potrace 1.16, written by Peter Selinger 2001-2019
</metadata>
<g transform="translate(0.000000,1024.000000) scale(0.100000,-0.100000)"
fill="#000000" stroke="none">
<path d="M3887 10223 c-77 -86 -147 -470 -134 -738 12 -240 77 -417 196 -536
131 -131 240 -141 556 -50 182 53 515 207 620 286 l30 23 59 -34 c86 -51 150
-65 296 -63 144 1 211 18 304 74 32 19 63 35 69 35 5 0 33 -17 61 -38 166
-126 549 -271 837 -317 85 -14 116 -15 158 -6 170 36 291 157 340 339 39 145
52 250 51 407 -3 247 -30 388 -106 543 l-45 92 -368 0 -368 0 -74 -30 c-86
-36 -213 -103 -354 -187 -55 -33 -107 -62 -116 -66 -9 -3 -32 5 -51 18 -55 38
-127 57 -248 66 -175 14 -339 -15 -422 -72 -14 -11 -29 -19 -33 -19 -4 0 -60
34 -124 77 -105 69 -264 155 -365 197 -33 14 -90 16 -396 16 -327 0 -358 -1
-373 -17z m539 -174 c185 -58 584 -276 584 -317 0 -10 -7 -25 -14 -35 -13 -17
-17 -17 -97 4 -57 15 -115 22 -180 22 -87 1 -102 -2 -155 -29 -98 -49 -114
-91 -57 -149 55 -54 81 -60 290 -60 l191 0 5 -30 c3 -16 9 -44 12 -61 7 -31 6
-32 -86 -82 -170 -91 -407 -177 -589 -214 -91 -18 -111 -19 -150 -8 -95 26
-138 108 -176 335 -26 156 -9 342 47 512 23 70 48 106 93 135 43 27 152 19
282 -23z m2520 22 c61 -37 93 -122 120 -320 22 -169 18 -271 -17 -456 -15 -77
-53 -159 -86 -185 -46 -36 -167 -24 -364 38 -236 74 -556 203 -573 231 -4 5
-2 12 3 16 6 3 13 25 17 50 l6 44 187 -2 c137 -1 196 2 226 12 122 43 181 138
113 183 -62 41 -280 51 -431 20 -94 -19 -100 -18 -112 28 -6 24 2 30 117 96
68 39 161 88 207 108 318 139 510 184 587 137z m-1266 -290 c59 -31 78 -48
102 -94 60 -119 15 -259 -102 -310 -55 -25 -214 -35 -276 -18 -95 26 -164 104
-172 196 -6 79 14 141 61 187 55 54 109 68 237 65 87 -2 113 -7 150 -26z"/>
<path d="M3225 9883 c-141 -35 -319 -111 -415 -176 -93 -63 -268 -249 -334
-356 -16 -24 -64 -116 -108 -204 -133 -267 -223 -378 -358 -441 -62 -28 -71
-30 -200 -30 -101 -1 -154 4 -212 18 -43 11 -80 17 -84 13 -3 -3 -1 -21 5 -39
41 -119 236 -267 446 -337 174 -58 325 -61 458 -11 28 11 56 20 60 20 13 0
-12 -40 -53 -84 -20 -23 -47 -61 -60 -85 l-22 -44 56 7 c79 9 174 47 296 118
135 78 182 119 305 263 146 172 198 227 317 335 83 75 130 108 209 148 55 29
110 52 121 52 17 0 19 5 15 38 -3 20 -15 71 -26 112 -30 103 -42 250 -40 475
l2 190 -34 8 c-40 9 -315 17 -344 10z"/>
<path d="M7501 9883 c-39 -4 -42 -6 -36 -26 4 -12 9 -107 12 -212 5 -212 -7
-326 -52 -480 l-26 -90 33 -28 c18 -16 78 -62 133 -103 137 -102 270 -226 395
-368 224 -253 480 -434 641 -453 30 -4 49 -2 49 4 0 26 -32 96 -64 143 -20 29
-36 56 -36 61 0 5 17 2 38 -6 105 -45 267 -57 397 -30 95 20 266 91 342 143
103 70 213 203 213 257 0 19 -27 19 -104 -2 -86 -23 -273 -23 -346 -1 -82 26
-202 109 -261 181 -29 37 -85 134 -135 235 -189 381 -342 548 -628 687 -134
65 -224 86 -386 89 -74 2 -155 1 -179 -1z"/>
<path d="M5138 9006 c-81 -71 -589 -276 -808 -325 -108 -25 -287 -8 -370 34
-50 25 -162 137 -203 202 -14 23 -31 44 -37 48 -34 21 -293 -200 -429 -365
-115 -141 -305 -474 -390 -685 -45 -114 -146 -430 -156 -490 -4 -22 -11 -53
-16 -70 l-9 -30 -292 -1 c-271 0 -304 -2 -443 -27 -498 -88 -669 -180 -669
-362 -1 -70 31 -141 119 -265 63 -89 313 -337 440 -435 156 -121 390 -250 581
-320 54 -20 109 -40 120 -45 12 -4 42 -11 67 -15 l45 -7 7 -62 c21 -191 126
-535 248 -814 84 -190 254 -473 396 -657 80 -103 326 -369 405 -438 210 -180
516 -372 726 -455 206 -81 286 -102 630 -167 142 -27 444 -51 540 -42 232 21
593 85 720 127 47 16 117 38 155 50 86 26 390 185 476 248 35 25 123 90 196
144 72 54 134 98 137 98 2 0 12 -21 22 -47 12 -32 46 -79 102 -138 88 -95 184
-238 201 -299 38 -140 -160 -311 -439 -379 -215 -53 -332 -57 -625 -22 -66 8
-183 21 -260 30 -153 17 -197 27 -325 74 -73 27 -98 32 -180 32 -52 0 -111 -4
-130 -8 -30 -7 -35 -13 -38 -40 -2 -17 7 -54 18 -82 18 -41 35 -59 98 -103 42
-29 82 -57 89 -61 28 -17 455 -108 603 -129 115 -16 207 -22 360 -22 189 -1
216 1 340 28 321 67 561 177 667 304 59 72 80 110 104 197 42 154 12 297 -97
460 -133 199 -236 285 -340 285 -29 0 -55 4 -58 8 -8 14 56 101 154 207 90 98
207 243 229 283 6 12 36 54 66 94 31 40 73 109 95 153 22 44 62 121 91 170 48
85 115 246 180 434 30 88 79 303 100 436 15 100 21 111 62 119 107 20 317 100
455 174 296 158 362 204 527 364 237 229 355 397 355 507 0 56 -30 119 -79
164 -56 52 -109 81 -241 130 -320 118 -584 150 -1023 122 -47 -3 -69 0 -72 8
-2 7 -16 57 -31 112 -79 288 -274 701 -462 980 -148 220 -188 270 -314 388
-167 157 -197 169 -246 96 -55 -84 -131 -156 -195 -185 -57 -27 -72 -29 -172
-29 -100 1 -125 5 -275 47 -286 80 -628 208 -710 264 l-51 35 -32 -20 c-32
-20 -138 -54 -153 -49 -5 1 -43 -1 -84 -5 -41 -4 -126 -3 -188 2 -95 8 -124
14 -177 40 -34 17 -64 31 -66 31 -2 -1 -21 -16 -41 -34z m1522 -547 c121 -42
330 -214 467 -383 205 -255 330 -517 421 -881 81 -325 90 -657 27 -1055 -75
-482 -228 -895 -456 -1235 -67 -100 -280 -345 -387 -446 -262 -246 -624 -421
-972 -470 -395 -55 -885 58 -1240 288 -164 107 -387 318 -512 487 -116 155
-259 417 -343 625 -99 247 -188 589 -225 866 -73 551 29 1095 297 1570 82 147
166 262 255 353 103 104 214 185 335 244 93 45 115 52 182 56 67 4 89 0 171
-28 193 -65 348 -162 553 -346 144 -129 250 -214 275 -221 13 -3 33 -1 45 5
20 9 201 161 415 348 67 59 113 88 236 148 84 42 179 82 212 91 71 17 165 11
244 -16z"/>
<path d="M6940 7692 c-70 -59 -57 -58 -189 -22 -169 46 -283 13 -419 -122 -93
-92 -136 -213 -148 -418 -8 -128 6 -221 46 -306 54 -113 190 -212 318 -233
165 -26 376 89 450 246 25 54 27 67 27 198 0 77 -3 172 -8 212 l-7 72 52 15
c98 29 158 85 158 148 0 46 -25 61 -97 56 -35 -2 -63 -3 -63 -2 0 2 18 24 41
50 33 38 39 52 34 73 -9 39 -48 72 -92 81 -38 6 -43 4 -103 -48z m-229 -205
c50 -26 68 -62 68 -137 1 -70 -30 -127 -81 -150 -79 -36 -143 -21 -192 43 -46
60 -51 172 -10 218 47 53 142 64 215 26z"/>
<path d="M4100 7715 c0 -13 9 -39 20 -57 53 -87 1 -92 -86 -8 -53 51 -68 60
-99 60 -44 0 -95 -47 -95 -87 0 -38 22 -103 34 -104 6 0 -5 -5 -24 -12 -50
-17 -53 -54 -6 -100 39 -39 124 -72 157 -62 20 7 21 4 15 -21 -32 -143 -31
-355 2 -442 25 -65 99 -170 146 -206 48 -36 129 -73 194 -88 110 -24 256 28
355 129 116 118 137 176 137 373 0 248 -36 347 -170 473 -98 92 -158 119 -270
120 -49 0 -88 -6 -112 -16 -57 -26 -79 -21 -135 28 -28 25 -54 45 -57 45 -3 0
-6 -11 -6 -25z m403 -206 c47 -13 106 -63 123 -106 47 -112 -39 -235 -165
-235 -58 0 -99 20 -141 69 -31 37 -31 40 -27 116 3 65 8 81 28 103 28 30 53
45 94 55 43 10 46 10 88 -2z"/>
<path d="M5340 7020 c-121 -25 -299 -85 -341 -114 -74 -51 -93 -168 -41 -266
23 -45 52 -72 192 -182 91 -70 194 -151 230 -179 36 -28 80 -58 98 -66 31 -13
38 -12 77 7 83 40 270 191 458 370 81 76 97 104 97 162 0 94 -59 150 -217 208
-224 81 -376 98 -553 60z m365 -264 c85 -22 130 -38 130 -47 0 -19 -98 -95
-216 -169 l-102 -63 -31 17 c-39 21 -198 145 -249 194 l-38 37 53 18 c159 55
274 59 453 13z"/>
<path d="M4063 6425 c-152 -41 -208 -121 -151 -213 40 -65 162 -95 293 -73 86
15 140 43 165 84 20 31 26 90 14 122 -9 22 -68 50 -155 75 -85 23 -96 24 -166
5z"/>
<path d="M6802 6409 c-138 -24 -196 -98 -137 -175 95 -124 403 -128 461 -6 21
44 6 101 -33 131 -54 43 -194 67 -291 50z"/>
<path d="M3514 3988 c-61 -20 -187 -121 -246 -198 -70 -91 -140 -230 -163
-325 -26 -104 -16 -235 23 -318 41 -87 82 -139 146 -186 156 -115 315 -176
661 -253 134 -29 166 -33 305 -33 99 0 198 7 275 18 66 10 181 28 255 39 212
31 358 73 454 131 124 75 229 188 213 229 -7 19 -72 36 -162 42 -58 4 -82 1
-140 -20 -145 -53 -195 -64 -385 -84 -107 -11 -265 -29 -350 -40 -212 -28
-371 -16 -597 45 -125 33 -201 66 -281 119 -209 140 -185 352 60 539 40 30 92
65 116 77 23 12 42 24 42 27 0 27 -165 205 -188 202 -4 -1 -21 -5 -38 -11z"/>
</g>
</svg>
