<?xml version="1.0" standalone="no"?>
<!DOCTYPE svg PUBLIC "-//W3C//DTD SVG 20010904//EN"
 "http://www.w3.org/TR/2001/REC-SVG-20010904/DTD/svg10.dtd">
<svg version="1.0" xmlns="http://www.w3.org/2000/svg"
 width="1024.000000pt" height="1024.000000pt" viewBox="0 0 1024.000000 1024.000000"
 preserveAspectRatio="xMidYMid meet">

<g transform="translate(0.000000,1024.000000) scale(0.100000,-0.100000)"
fill="#000000" stroke="none">
<path d="M4990 8163 c-238 -22 -420 -65 -640 -153 -343 -136 -543 -271 -815
-551 -284 -292 -469 -606 -590 -1002 l-26 -87 -47 27 c-112 65 -292 215 -441
366 -86 88 -168 168 -184 179 -33 23 -104 28 -139 9 -60 -31 -91 -143 -90
-321 1 -310 58 -564 183 -813 68 -135 96 -180 180 -282 64 -78 256 -269 307
-304 32 -22 32 -23 32 -109 0 -97 23 -327 40 -412 18 -85 97 -371 135 -487 33
-98 125 -294 196 -415 71 -121 217 -314 382 -506 76 -89 77 -91 55 -103 -92
-48 -233 -221 -265 -327 -24 -77 -23 -196 1 -242 45 -84 125 -158 197 -182 55
-18 1069 -11 1135 7 62 18 147 90 166 141 l12 34 76 -7 c102 -11 625 -8 675 4
l40 9 36 -56 c44 -69 98 -114 153 -129 29 -9 195 -11 571 -9 l530 3 46 23
c225 112 224 417 -2 643 -31 31 -78 69 -103 84 -25 15 -46 29 -46 31 0 3 35
42 78 87 171 183 341 435 484 722 129 258 221 639 249 1033 l12 169 28 17 c50
30 228 228 314 351 96 136 226 385 256 490 49 172 60 248 66 437 6 209 -3 286
-43 355 -47 82 -137 107 -205 58 -19 -14 -119 -112 -224 -218 -136 -138 -219
-214 -290 -264 l-100 -70 -43 121 c-45 129 -144 340 -219 471 -148 255 -349
488 -603 700 -269 223 -599 376 -973 451 -111 22 -163 26 -322 28 -104 2 -206
1 -225 -1z m-470 -951 c91 -29 231 -116 305 -187 34 -33 87 -99 119 -146 64
-98 93 -118 186 -126 106 -10 172 25 237 127 84 132 132 181 253 259 94 61
202 93 335 98 133 6 201 -8 322 -67 298 -146 537 -521 648 -1015 59 -265 67
-350 72 -765 6 -485 -6 -585 -108 -937 -71 -245 -245 -536 -439 -733 -243
-247 -571 -431 -925 -519 -240 -59 -499 -53 -795 19 -273 67 -540 203 -764
389 -78 65 -248 250 -317 346 -50 70 -155 265 -188 349 -128 325 -153 495
-155 1056 l-1 375 33 210 c46 304 108 518 207 715 155 311 372 510 619 566 88
20 272 13 356 -14z m2068 -4126 c29 -8 72 -26 96 -40 54 -32 137 -122 165
-179 25 -51 39 -137 23 -137 -6 0 -9 -9 -7 -21 3 -16 1 -18 -9 -10 -7 6 -16 7
-20 3 -4 -4 -11 -7 -14 -7 -4 -1 -24 -4 -45 -9 -28 -5 -37 -11 -33 -22 10 -26
-34 -31 -199 -26 -147 5 -176 17 -50 21 88 3 116 51 29 51 -32 0 -44 4 -44 15
0 12 -17 15 -89 15 -49 0 -91 4 -93 9 -1 6 -69 15 -150 22 -153 13 -154 14
-149 57 3 19 -50 15 -94 -8 -22 -11 -46 -20 -54 -20 -20 0 67 88 144 147 71
54 241 139 305 153 58 12 220 4 288 -14z m-2528 -16 c100 -35 238 -116 338
-199 53 -44 162 -170 162 -188 0 -9 -6 -8 -18 5 -11 9 -17 20 -15 24 5 10 -33
29 -42 20 -5 -4 -5 -2 -2 5 5 7 -11 20 -40 34 -56 27 -75 31 -83 18 -7 -10
-67 -14 -300 -23 -80 -3 -155 -11 -184 -21 -27 -8 -67 -15 -88 -15 -24 0 -37
-4 -33 -10 3 -5 -3 -10 -14 -10 -28 0 -26 -24 3 -43 19 -13 42 -15 108 -11 45
3 108 1 138 -4 42 -7 -10 -10 -222 -11 -206 -1 -278 2 -278 11 0 6 -3 8 -7 5
-12 -12 -31 14 -25 35 3 14 1 19 -6 14 -7 -4 -12 -1 -12 8 0 8 5 18 10 21 6 3
10 11 10 17 0 6 -7 5 -16 -3 -15 -12 -16 -9 -10 31 13 82 61 165 129 222 102
84 148 98 312 94 94 -2 134 -8 185 -26z m1958 -427 c-16 -2 -40 -2 -55 0 -16
2 -3 4 27 4 30 0 43 -2 28 -4z"/>
<path d="M4082 6770 c-114 -58 -176 -155 -176 -275 0 -86 14 -131 64 -194 108
-136 309 -148 435 -25 134 130 130 324 -10 452 -88 81 -203 96 -313 42z m180
-86 c35 -18 58 -62 58 -111 0 -68 -52 -113 -131 -113 -35 0 -47 6 -81 40 -38
38 -40 43 -35 86 6 53 43 99 92 113 33 10 55 6 97 -15z"/>
<path d="M6015 6787 c-58 -23 -91 -46 -137 -95 -55 -58 -73 -110 -72 -202 1
-89 32 -157 99 -219 209 -190 527 -15 483 267 -17 105 -86 200 -178 241 -51
23 -146 27 -195 8z m135 -102 c42 -22 63 -68 57 -122 -6 -52 -35 -87 -84 -104
-72 -24 -163 42 -163 117 1 91 107 152 190 109z"/>
<path d="M5055 6460 c-84 -13 -240 -58 -301 -86 -58 -27 -116 -79 -141 -127
-27 -52 -23 -150 10 -221 57 -123 199 -282 303 -338 102 -55 247 -74 346 -44
102 31 162 69 253 161 76 76 99 106 139 187 61 122 69 184 35 253 -33 65 -88
109 -182 146 -168 64 -332 89 -462 69z m289 -220 c150 -38 189 -55 184 -77 -2
-10 -17 -21 -33 -26 -17 -5 -43 -13 -60 -19 -16 -6 -64 -21 -105 -35 -98 -31
-105 -36 -105 -64 0 -22 -20 -38 -60 -49 -5 -1 -21 -6 -33 -11 -29 -11 -88 3
-153 37 -26 13 -60 24 -77 24 -24 0 -34 7 -51 36 -12 20 -20 39 -17 41 2 2 30
0 62 -6 68 -13 84 -7 23 8 -24 6 -60 19 -78 29 -19 9 -39 16 -43 15 -4 -2 -8
5 -8 16 0 14 18 25 73 46 198 74 302 81 481 35z m-521 -150 c3 -11 1 -20 -4
-20 -5 0 -9 9 -9 20 0 11 2 20 4 20 2 0 6 -9 9 -20z m330 -267 c-7 -2 -21 -2
-30 0 -10 3 -4 5 12 5 17 0 24 -2 18 -5z"/>
<path d="M6305 6087 c-62 -16 -88 -33 -109 -68 -34 -57 -9 -121 61 -154 50
-24 212 -23 272 1 118 47 120 162 4 210 -50 21 -167 26 -228 11z"/>
<path d="M3777 6076 c-68 -25 -96 -56 -97 -108 0 -51 45 -102 104 -117 72 -18
204 -14 252 8 88 40 110 117 51 176 -18 18 -51 38 -72 44 -55 15 -192 13 -238
-3z"/>
<path d="M6008 2873 c-10 -2 -18 -9 -18 -14 0 -6 8 -5 20 1 11 6 20 13 20 15
0 3 -1 4 -2 4 -2 -1 -11 -3 -20 -6z"/>
<path d="M4310 2823 c0 -12 7 -23 15 -26 23 -9 26 9 5 28 -19 17 -20 17 -20
-2z"/>
</g>
</svg>
