<?xml version="1.0" standalone="no"?>
<!DOCTYPE svg PUBLIC "-//W3C//DTD SVG 20010904//EN"
 "http://www.w3.org/TR/2001/REC-SVG-20010904/DTD/svg10.dtd">
<svg version="1.0" xmlns="http://www.w3.org/2000/svg"
 width="1024.000000pt" height="1024.000000pt" viewBox="0 0 1024.000000 1024.000000"
 preserveAspectRatio="xMidYMid meet">
<metadata>
Created by potrace 1.16, written by Peter Selinger 2001-2019
</metadata>
<g transform="translate(0.000000,1024.000000) scale(0.100000,-0.100000)"
fill="#000000" stroke="none">
<path d="M5115 9185 c-22 -8 -57 -32 -77 -54 -33 -34 -38 -47 -38 -86 0 -45
18 -94 47 -127 14 -15 13 -21 -8 -55 -26 -43 -117 -143 -130 -143 -5 0 -9 11
-9 25 0 54 -59 125 -104 125 -34 0 -85 -37 -103 -75 -20 -42 -32 -35 -70 38
l-25 50 22 40 c39 68 17 148 -53 201 -40 30 -132 34 -190 8 -61 -27 -87 -69
-87 -140 0 -58 10 -83 47 -123 l24 -26 -10 -199 c-11 -199 -33 -486 -46 -599
-9 -70 -15 -79 -68 -107 -49 -25 -200 -169 -278 -266 -147 -183 -261 -390
-328 -596 -60 -184 -71 -251 -78 -451 -5 -157 -3 -195 16 -300 20 -110 48
-204 97 -327 l18 -48 -40 -42 c-96 -100 -141 -205 -150 -348 -3 -47 -7 -90 -9
-97 -4 -14 -125 15 -198 47 -152 67 -330 194 -490 349 -116 113 -125 128 -145
264 l-9 57 37 10 c48 13 107 76 116 124 9 53 -3 86 -48 129 l-41 39 17 54 c13
42 22 54 37 54 27 0 89 33 116 62 29 30 53 89 53 128 0 35 -13 64 -42 96 -17
20 -18 28 -9 80 6 33 20 147 32 254 11 107 22 200 24 207 2 6 19 14 37 18 58
12 115 83 133 162 9 46 -18 132 -52 165 -35 34 -92 58 -136 58 -71 0 -154 -45
-182 -100 -18 -35 -19 -108 -3 -162 10 -35 9 -42 -11 -69 -12 -17 -36 -51 -53
-77 -17 -26 -48 -70 -69 -97 -21 -28 -44 -63 -52 -78 l-15 -28 -50 79 c-28 43
-69 116 -92 163 l-42 84 31 50 c45 73 58 134 43 193 -27 102 -96 162 -199 170
-132 11 -243 -96 -243 -235 0 -60 43 -137 95 -170 25 -15 44 -35 45 -44 0 -27
-38 -207 -62 -291 l-21 -77 -106 96 c-58 53 -124 110 -147 127 -40 30 -40 31
-40 96 1 58 -3 71 -27 103 -87 115 -265 98 -334 -32 -64 -122 19 -275 156
-289 50 -4 51 -5 77 -61 14 -31 55 -126 91 -211 35 -85 74 -172 86 -193 16
-29 18 -40 9 -49 -7 -7 -12 -35 -12 -63 0 -42 6 -60 30 -93 37 -52 77 -72 149
-78 89 -8 97 -12 130 -53 l31 -39 -26 -39 c-21 -31 -25 -45 -20 -81 13 -96 74
-156 162 -156 33 -1 54 -5 54 -12 0 -6 3 -25 6 -41 5 -27 -1 -39 -54 -97 -75
-83 -108 -149 -123 -246 -23 -145 32 -402 124 -585 49 -98 79 -144 172 -260
83 -103 82 -99 124 -355 17 -102 50 -290 73 -418 l41 -233 -27 -28 c-35 -36
-59 -114 -51 -163 5 -25 22 -55 51 -87 l44 -49 -21 -36 c-32 -54 -36 -147 -10
-213 38 -97 183 -306 260 -376 45 -40 67 -45 111 -22 40 21 60 58 130 250 34
94 91 242 127 330 101 251 129 329 203 572 38 126 74 242 80 258 6 17 34 118
61 225 44 175 74 276 108 365 l12 29 25 -32 c44 -56 187 -144 270 -166 l40
-11 -23 -160 c-64 -455 -301 -1228 -489 -1600 -102 -200 -141 -263 -283 -450
-175 -232 -379 -428 -519 -499 -170 -86 -297 -106 -406 -66 -117 44 -204 163
-214 292 -4 59 -1 74 25 130 39 83 82 131 145 162 64 32 119 33 165 5 49 -31
85 -26 143 16 57 42 186 186 215 239 19 35 19 36 -1 63 -37 50 -54 43 -175
-72 -110 -104 -112 -105 -148 -98 -20 5 -74 8 -121 8 -106 0 -158 -23 -245
-110 -209 -205 -189 -524 45 -704 38 -30 70 -58 70 -63 0 -15 -62 -35 -163
-52 -54 -9 -107 -22 -118 -29 -97 -60 161 -114 821 -171 268 -23 443 -33 1300
-72 755 -35 2235 -29 2775 11 105 7 273 19 375 25 349 21 795 60 910 80 146
24 242 54 277 85 l28 25 -23 20 c-27 22 -62 33 -184 57 -49 9 -88 19 -88 22 0
3 31 19 69 34 82 33 190 112 232 170 77 105 136 255 146 365 10 124 -32 333
-94 462 -59 124 -162 230 -274 283 -127 60 -200 78 -324 78 -123 0 -177 -13
-289 -67 -43 -21 -79 -33 -92 -30 -12 3 -50 27 -85 53 -192 143 -468 467 -533
624 l-15 36 157 6 c233 7 388 52 543 158 123 83 193 165 169 194 -7 9 -92 77
-189 152 -308 239 -357 281 -498 417 -142 138 -184 186 -299 341 -37 50 -71
92 -76 93 -15 6 -8 25 32 87 65 99 90 173 90 260 0 117 -24 205 -74 273 -23
31 -51 70 -62 86 l-20 28 57 117 c99 203 137 349 146 561 7 160 -9 347 -37
447 -21 78 -25 109 -12 115 22 9 66 87 122 213 34 77 78 172 99 210 21 39 40
88 43 110 3 22 24 72 45 110 22 39 65 118 97 178 l57 107 41 0 c116 0 197 149
140 259 -46 91 -160 127 -252 79 -59 -30 -90 -77 -90 -137 l0 -47 -65 -32
c-36 -18 -66 -32 -68 -32 -1 0 -2 26 -2 58 0 49 -5 65 -28 95 -23 30 -34 37
-64 37 -45 0 -107 -35 -123 -69 l-13 -26 -14 34 c-8 19 -17 64 -20 100 l-5 66
43 15 c53 18 83 60 99 137 11 53 10 58 -17 111 -35 69 -82 97 -163 97 -66 -1
-124 -30 -159 -81 -21 -30 -23 -42 -19 -98 5 -62 4 -66 -26 -95 -17 -16 -56
-41 -86 -55 -78 -36 -98 -33 -65 10 33 44 2 133 -56 161 -52 25 -159 -34 -159
-88 0 -68 -61 33 -82 135 -10 50 -9 61 3 65 27 9 69 63 79 103 29 106 -49 215
-161 226 -148 14 -252 -119 -189 -243 11 -22 20 -42 20 -46 0 -14 -103 -120
-131 -134 -41 -22 -49 -19 -36 14 13 36 -4 81 -45 116 -39 33 -74 31 -131 -5
-39 -24 -47 -35 -47 -59 0 -16 -4 -32 -9 -36 -14 -8 -58 54 -85 121 l-25 59
31 32 c25 26 32 43 36 87 6 73 -23 124 -88 160 -53 29 -96 32 -155 11z m103
-111 c40 -28 46 -51 18 -79 -29 -29 -66 -32 -101 -9 -31 20 -32 50 -3 81 25
27 54 29 86 7z m-705 -52 c15 -16 15 -21 1 -47 -18 -35 -31 -45 -63 -45 -49 0
-82 65 -49 98 19 19 92 15 111 -6z m1476 -38 c39 -32 39 -57 2 -95 -40 -39
-65 -37 -96 8 -14 21 -25 41 -25 45 0 16 53 68 70 68 10 0 32 -12 49 -26z
m-784 -226 c40 -83 130 -179 197 -209 82 -37 192 -34 278 7 83 40 183 115 199
150 16 35 25 24 45 -55 21 -82 65 -159 126 -220 74 -74 107 -86 230 -86 94 0
111 3 165 28 33 16 81 41 106 58 25 16 50 29 55 29 5 0 9 -37 9 -82 0 -107 33
-185 109 -256 81 -77 106 -87 211 -87 74 1 101 6 155 28 35 14 66 24 68 22 3
-2 -20 -44 -51 -92 -30 -48 -62 -103 -71 -121 l-17 -33 -47 39 c-63 52 -280
182 -422 253 -237 119 -642 261 -865 303 -516 98 -620 109 -957 104 l-248 -3
1 25 c0 14 6 70 12 124 l12 100 19 -28 c28 -43 107 -116 151 -139 29 -15 64
-22 130 -25 79 -4 97 -1 145 20 64 28 167 120 195 172 11 20 22 36 25 36 3 0
19 -28 35 -62z m1536 -67 c36 -36 36 -51 3 -85 -40 -39 -75 -33 -100 16 -19
37 -11 76 19 88 36 14 47 12 78 -19z m-1741 -276 c227 -17 263 -22 495 -66
220 -42 328 -70 555 -145 214 -72 463 -183 595 -266 87 -54 249 -166 299 -205
l27 -22 -18 -35 -18 -35 -50 40 c-151 120 -502 311 -739 400 -469 178 -1069
281 -1525 263 l-174 -7 7 29 c4 16 11 33 16 38 7 7 135 18 290 24 19 1 127 -5
240 -13z m2379 -121 c28 -35 26 -58 -4 -78 -52 -34 -115 -8 -115 48 0 42 15
56 61 56 29 0 43 -6 58 -26z m-2780 -65 c-17 -17 -20 -30 -16 -59 4 -34 2 -39
-19 -44 -13 -4 -24 -11 -24 -18 0 -8 30 -9 108 -3 146 10 156 10 244 1 42 -5
85 -5 95 -1 10 4 29 8 43 7 l25 -1 -25 7 c-22 7 -24 12 -21 50 1 25 -3 50 -11
59 -12 15 -8 16 42 10 30 -4 81 -7 112 -7 l57 0 -24 -36 c-14 -20 -25 -47 -25
-60 0 -22 -4 -24 -47 -25 l-48 0 60 -20 c33 -10 96 -24 140 -29 138 -18 541
-121 706 -181 97 -35 299 -119 314 -129 6 -4 51 -29 100 -54 50 -25 115 -63
146 -84 31 -20 109 -72 173 -114 64 -43 116 -81 116 -85 0 -15 -24 -73 -31
-73 -4 0 -12 7 -19 14 -6 8 -33 28 -58 44 -209 131 -277 170 -398 231 -224
112 -459 199 -744 275 -130 34 -445 94 -560 106 -116 12 -398 12 -500 0 -41
-4 -76 -7 -78 -6 -1 2 1 20 6 42 5 25 16 43 31 50 17 9 19 13 7 17 -18 7 -33
94 -18 109 9 9 85 24 140 27 l22 1 -21 -21z m301 9 c0 -5 -5 -8 -10 -8 -6 0
-15 -20 -22 -44 -13 -50 -23 -55 -96 -48 -49 4 -50 5 -62 46 -6 22 -14 47 -16
54 -5 10 17 12 100 10 58 -2 106 -6 106 -10z m503 -62 c42 -9 80 -16 84 -15
22 4 22 -4 -4 -38 -38 -52 -40 -53 -108 -53 -81 0 -90 7 -75 57 10 31 10 45 0
62 -10 20 -10 22 7 13 10 -6 53 -17 96 -26z m351 -77 c58 -11 64 -14 47 -25
-10 -8 -26 -32 -35 -55 l-17 -41 -50 7 c-84 12 -104 20 -101 41 1 10 5 36 9
56 3 24 1 43 -7 53 -11 13 -3 12 38 -4 28 -11 80 -26 116 -32z m274 -79 c40
-1 46 -15 27 -64 -20 -53 -25 -54 -125 -28 l-66 17 20 34 c15 27 17 39 9 61
l-10 26 64 -23 c35 -13 72 -23 81 -23z m349 -143 c3 -3 -9 -26 -27 -51 -27
-40 -34 -45 -58 -40 -37 8 -152 61 -152 70 0 4 11 26 25 50 l25 42 90 -33 c51
-18 94 -35 97 -38z m-1427 -1 c0 -3 -28 -21 -62 -42 -35 -21 -101 -63 -148
-94 -152 -102 -177 -108 -166 -41 17 103 19 141 5 141 -27 0 -150 -76 -221
-135 -39 -33 -118 -112 -175 -175 l-104 -115 62 -12 c71 -15 114 -39 183 -103
127 -116 191 -292 209 -572 l4 -57 -71 -37 c-111 -57 -201 -120 -280 -198 -80
-77 -113 -131 -118 -191 l-3 -39 85 -31 c47 -17 123 -56 170 -87 47 -31 139
-84 205 -119 115 -61 123 -64 190 -64 65 0 79 4 185 56 98 47 348 190 387 221
34 27 -239 350 -364 430 -43 28 -62 46 -59 57 2 9 12 52 21 96 18 81 72 203
128 285 113 166 315 302 511 345 91 20 243 16 336 -9 187 -51 380 -227 463
-422 45 -105 59 -191 60 -364 1 -182 -21 -298 -83 -442 -146 -339 -419 -584
-823 -737 -176 -67 -291 -86 -517 -86 -186 0 -201 2 -319 32 -220 57 -451 189
-588 337 -179 194 -291 422 -330 671 -20 134 -12 371 17 509 60 282 242 601
475 832 122 121 162 143 282 153 95 9 453 14 453 7z m-2687 -66 c34 -27 51
-79 37 -114 -35 -92 -141 -101 -185 -16 -24 46 -19 78 19 116 40 40 89 46 129
14z m4280 -40 c5 0 39 -16 74 -36 l63 -35 -32 -40 c-17 -21 -36 -39 -41 -39
-6 0 -43 20 -82 45 l-72 44 16 49 16 49 24 -18 c13 -11 28 -19 34 -19z m-3589
-101 c33 -38 33 -73 1 -104 -33 -34 -67 -32 -99 6 -33 38 -33 73 -1 104 33 34
67 32 99 -6z m3935 -122 c2 -5 -6 -22 -18 -38 l-22 -29 -49 25 c-60 30 -66 39
-46 70 9 13 16 31 16 39 0 11 16 5 58 -22 31 -20 59 -41 61 -45z m-5277 -54
c18 -16 24 -57 12 -88 -4 -8 -20 -23 -36 -31 -37 -19 -80 -5 -97 32 -16 37
-14 52 14 79 29 29 79 33 107 8z m663 -95 c38 -84 143 -244 191 -290 22 -20
51 -41 67 -47 26 -10 30 -7 72 47 25 31 78 105 117 164 40 59 73 106 75 105 1
-2 -4 -43 -12 -92 -8 -50 -20 -148 -28 -220 -10 -101 -16 -130 -27 -131 -8 0
-78 -4 -155 -8 -167 -8 -407 -46 -553 -87 -57 -16 -105 -28 -106 -27 -8 12
-166 405 -166 412 0 5 45 -35 101 -88 176 -170 217 -188 264 -118 46 69 115
317 115 412 0 46 15 36 45 -32z m509 -594 c23 -9 20 -39 -6 -68 -21 -24 -33
-26 -155 -36 -73 -6 -138 -13 -145 -15 -7 -3 -65 -14 -128 -24 -63 -11 -158
-29 -210 -40 -107 -23 -200 -27 -218 -9 -24 24 -14 58 22 73 102 43 298 88
472 109 115 14 341 20 368 10z m-174 -263 c0 -29 -1 -30 -65 -36 -35 -4 -80
-5 -99 -3 -23 2 -37 -1 -40 -9 -3 -7 -14 -13 -24 -13 -10 0 -45 -9 -77 -20
-32 -11 -64 -20 -71 -20 -17 0 -49 60 -37 70 15 15 207 49 214 38 4 -7 9 -6
14 1 4 8 32 11 76 10 38 -1 72 1 76 4 16 17 33 5 33 -22z m2165 8 c63 -23 148
-94 250 -207 65 -73 80 -100 48 -87 -80 31 -291 62 -483 72 -93 4 -156 1 -243
-11 -65 -10 -121 -16 -123 -13 -10 10 129 118 221 173 98 58 187 93 242 93 18
1 57 -8 88 -20z m-2096 -183 c34 -41 -36 -76 -200 -101 -273 -43 -268 -43
-269 12 0 19 11 26 83 47 166 51 361 72 386 42z m2148 -189 c84 -12 154 -25
157 -28 3 -3 -56 -29 -130 -58 l-137 -52 -41 16 c-22 9 -102 48 -176 87 l-135
70 155 -6 c85 -3 223 -16 307 -29z m-2289 -92 c5 -68 126 -895 161 -1101 47
-275 88 -541 96 -624 9 -94 54 -380 65 -412 10 -30 13 -28 -67 -32 -19 -1 -25
24 -72 319 -32 200 -89 535 -126 750 -14 77 -36 219 -50 315 -14 96 -41 280
-60 408 -19 128 -37 271 -41 318 -8 97 -3 106 56 102 33 -3 35 -5 38 -43z
m-226 -272 c-15 -27 -23 -97 -31 -250 l-7 -138 -13 60 c-17 72 -18 204 -2 260
13 49 53 115 58 98 2 -7 0 -20 -5 -30z m1524 -103 c38 -47 79 -105 92 -130 12
-25 42 -64 65 -88 l41 -42 -17 -29 c-9 -16 -17 -34 -17 -39 0 -6 27 -13 61
-17 69 -8 126 -44 171 -110 72 -107 63 -277 -20 -347 -92 -77 -243 -22 -397
144 -52 56 -80 99 -121 183 -29 61 -58 132 -65 158 -16 66 -6 198 20 268 23
59 98 156 111 142 4 -4 38 -46 76 -93z m2791 27 c45 -66 57 -108 56 -205 0
-86 -3 -98 -37 -167 -41 -84 -143 -187 -257 -261 -159 -103 -362 -151 -462
-109 -54 22 -61 19 -87 -35 -51 -108 -171 -182 -301 -184 -56 -1 -71 3 -107
27 -148 98 -141 298 16 410 53 38 146 50 187 23 13 -9 26 -16 29 -16 2 0 12
20 22 45 22 58 74 105 166 148 106 51 161 67 229 67 59 0 60 -1 74 -33 21 -51
41 -64 64 -43 11 10 25 32 32 49 20 53 57 95 107 124 26 14 68 46 94 70 26 24
51 43 56 43 5 0 27 18 48 40 22 22 41 40 44 40 3 0 15 -15 27 -33z m-3856 -27
c130 -154 445 -339 655 -385 83 -18 134 -51 134 -87 0 -22 -23 -23 -110 -3
-181 42 -328 107 -477 211 -166 116 -236 194 -257 287 -9 40 8 33 55 -23z
m1824 -536 c102 -26 125 -28 320 -28 116 -1 236 3 268 7 l57 8 -22 -37 c-33
-55 -37 -170 -8 -253 l21 -64 -26 -27 c-14 -15 -28 -43 -32 -63 -5 -34 -8 -37
-40 -37 -64 0 -121 -48 -149 -124 -11 -30 -13 -31 -62 -28 -61 4 -113 -18
-143 -60 l-21 -29 -34 31 c-19 16 -45 33 -59 36 -24 6 -84 2 -114 -7 -9 -2
-17 7 -23 26 -16 57 -73 105 -124 105 -31 0 -32 1 -36 55 -4 42 -11 62 -31 83
l-26 28 29 27 c85 80 124 282 74 379 -20 38 -19 39 29 18 23 -10 92 -31 152
-46z m2035 -119 c0 -17 169 -202 361 -395 160 -162 310 -285 513 -423 37 -26
61 -47 52 -47 -25 0 -245 112 -331 169 -126 84 -253 192 -390 332 -137 140
-285 310 -285 327 0 10 57 49 73 51 4 1 7 -6 7 -14z m-672 -371 c177 -775 447
-1310 877 -1739 206 -206 370 -323 575 -409 161 -68 245 -88 375 -90 149 -1
159 3 176 61 8 27 14 86 14 133 -1 165 -73 292 -192 336 -28 10 -51 24 -51 29
0 16 83 44 164 56 63 10 86 9 147 -6 214 -52 321 -149 389 -354 29 -88 32
-107 32 -231 1 -156 -13 -214 -73 -307 -77 -119 -203 -206 -373 -257 -157 -48
-316 -51 -518 -10 -485 99 -1042 521 -1383 1050 -209 325 -294 506 -437 936
-90 270 -136 467 -147 635 l-6 92 29 6 c94 21 300 117 344 161 8 8 19 13 25
11 5 -2 20 -48 33 -103z m-590 10 c15 -10 22 -25 22 -48 0 -38 -12 -51 -57
-61 -28 -6 -33 -3 -47 24 -20 38 -20 51 0 79 18 26 50 28 82 6z m-1114 -27 c8
-21 7 -35 -4 -54 -27 -49 -40 -40 -40 27 0 53 2 61 17 58 10 -2 22 -16 27 -31z
m959 -124 c26 -24 23 -84 -6 -111 -58 -55 -127 -29 -127 47 0 32 6 44 32 66
34 29 67 28 101 -2z m-800 -41 c47 -52 18 -132 -48 -132 -60 0 -104 77 -75
131 15 26 100 27 123 1z m994 -165 c7 -49 24 -134 37 -190 27 -112 150 -483
186 -562 73 -162 82 -209 56 -295 -73 -238 -208 -439 -358 -533 -176 -110
-379 -156 -553 -124 -371 68 -670 384 -790 837 -14 52 -25 105 -25 118 0 12
15 62 34 110 32 84 141 504 167 645 11 61 29 83 29 36 0 -39 38 -96 77 -115
39 -19 115 -25 144 -11 12 6 19 0 29 -23 12 -29 94 -110 111 -110 5 0 9 -9 9
-20 0 -22 -24 -35 -82 -45 -66 -10 -71 -22 -66 -165 3 -115 6 -131 33 -184 47
-93 136 -156 220 -156 106 0 225 114 245 233 10 66 -4 211 -24 242 -9 14 -41
32 -81 46 -72 26 -80 42 -49 101 l16 30 21 -20 c84 -79 221 -43 280 72 14 28
18 30 65 27 87 -4 186 55 199 119 5 26 10 31 31 28 25 -3 27 -8 39 -91z
m-2390 39 c101 -45 281 -96 339 -96 19 0 34 -4 34 -9 0 -4 -22 -77 -49 -162
-26 -85 -61 -197 -76 -249 -55 -191 -88 -283 -110 -308 -2 -2 -14 8 -28 21
l-26 23 24 50 c56 113 8 224 -106 249 -32 7 -31 2 -59 215 -11 85 -26 190 -34
233 -7 42 -12 77 -10 77 2 0 48 -20 101 -44z m1926 33 c39 -17 53 -51 37 -89
-26 -63 -77 -76 -122 -33 -35 33 -35 63 -2 102 27 33 48 38 87 20z m-278 -33
c33 -33 40 -67 21 -105 -37 -71 -135 -43 -161 47 -5 17 1 30 24 52 37 38 82
40 116 6z m1810 -252 c46 -34 160 -89 259 -123 124 -44 136 -53 56 -47 -36 3
-110 19 -165 37 -109 34 -151 64 -187 133 -20 40 -17 40 37 0z m-1774 -144
c48 -13 80 -50 90 -102 13 -66 1 -106 -43 -148 -56 -55 -86 -63 -134 -36 -51
28 -75 73 -81 149 -5 75 9 105 57 129 40 21 61 22 111 8z m2118 -329 c249
-372 436 -552 771 -741 182 -103 196 -113 205 -152 l7 -27 -84 35 c-200 83
-396 202 -538 327 -163 143 -339 365 -472 593 -20 34 -44 73 -53 88 l-17 26
41 0 41 0 99 -149z m-3818 109 c22 -12 27 -65 7 -73 -7 -2 -68 -10 -135 -17
-133 -15 -153 -10 -153 36 0 26 20 40 77 53 53 13 181 13 204 1z m4 -241 c67
-81 78 -139 46 -249 -27 -94 -74 -220 -80 -220 -10 1 -92 108 -147 192 -49 74
-54 87 -54 138 0 100 23 134 110 161 58 17 97 10 125 -22z m866 -535 c67 -162
172 -326 259 -401 62 -54 142 -98 280 -155 253 -105 507 -166 695 -169 44 -1
91 -4 105 -8 l25 -7 -25 -15 c-19 -10 -60 -14 -170 -13 -134 1 -154 4 -270 37
-69 19 -206 64 -305 100 -99 36 -211 75 -250 86 -94 29 -139 57 -211 132 -78
82 -132 163 -194 290 -58 119 -61 143 -23 254 l27 80 12 -66 c7 -36 27 -102
45 -145z m1999 -694 c212 -28 377 -137 460 -303 42 -83 50 -136 25 -157 -15
-12 -192 -46 -200 -38 -3 3 -9 29 -15 59 -12 61 -20 72 -72 94 l-38 15 0 -85
0 -85 -147 0 c-82 0 -186 -3 -232 -7 l-84 -6 7 65 c5 55 22 136 42 201 8 25
-19 22 -54 -8 -47 -40 -100 -126 -117 -189 -8 -32 -17 -61 -19 -64 -8 -7 -158
29 -190 45 -27 14 -28 17 -22 61 16 121 122 262 244 325 143 74 261 96 412 77z
m-1495 -54 c187 -76 351 -152 389 -181 48 -37 78 -101 74 -161 -3 -43 -6 -48
-33 -56 -101 -28 -228 -38 -513 -40 l-303 -3 6 30 c15 79 49 211 56 221 15 19
-2 24 -31 9 -59 -31 -114 -122 -125 -208 -6 -49 -10 -57 -29 -57 -37 0 -150
30 -175 47 -21 14 -23 20 -18 70 16 153 167 326 325 370 28 7 89 12 152 10
100 -2 111 -5 225 -51z"/>
<path d="M4066 7045 c-52 -18 -91 -58 -123 -125 -23 -47 -27 -69 -27 -145 0
-102 18 -151 74 -199 41 -34 116 -39 171 -10 60 31 112 130 125 238 13 107
-46 224 -124 246 -46 12 -48 12 -96 -5z m84 -85 c26 -26 25 -60 -1 -94 -40
-51 -119 -25 -119 40 0 61 78 96 120 54z"/>
<path d="M5495 7041 c-48 -12 -70 -27 -114 -77 -56 -64 -81 -136 -81 -232 0
-95 11 -137 53 -198 46 -69 122 -108 195 -100 71 8 118 34 173 93 78 83 109
214 79 325 -16 57 -71 130 -121 161 -50 30 -129 43 -184 28z m99 -112 c19 -22
25 -38 20 -53 -11 -38 -32 -63 -64 -76 -27 -11 -36 -11 -66 3 -89 43 -58 157
42 157 35 0 47 -5 68 -31z"/>
<path d="M1570 7418 c-12 -22 -12 -22 6 -6 10 10 15 20 12 24 -4 3 -12 -5 -18
-18z"/>
<path d="M2314 7094 c3 -16 12 -51 19 -78 l14 -49 6 36 c7 42 -12 108 -33 115
-10 4 -11 -3 -6 -24z"/>
<path d="M2140 6663 c-25 -9 -40 -18 -35 -20 6 -2 35 6 65 17 30 10 46 19 35
19 -11 0 -40 -8 -65 -16z"/>
<path d="M5756 4385 c-10 -15 -16 -45 -16 -82 2 -151 96 -249 146 -151 34 66
-37 258 -96 258 -10 0 -25 -11 -34 -25z"/>
<path d="M5651 4204 c0 -11 3 -14 6 -6 3 7 2 16 -1 19 -3 4 -6 -2 -5 -13z"/>
<path d="M5661 4175 c1 -19 18 -51 18 -35 0 8 -4 22 -9 30 -5 8 -9 11 -9 5z"/>
<path d="M5970 3773 c-30 -38 -24 -111 16 -189 24 -49 34 -60 57 -62 64 -7 84
58 52 165 -16 54 -62 113 -88 113 -9 0 -25 -12 -37 -27z"/>
<path d="M6256 3268 c-20 -29 -20 -98 0 -146 33 -81 110 -127 144 -87 19 23
15 96 -7 146 -44 98 -103 135 -137 87z"/>
<path d="M6607 2782 c-23 -25 -21 -50 9 -109 35 -72 96 -125 137 -121 22 2 36
11 46 29 13 24 13 32 -4 75 -24 64 -104 144 -143 144 -16 0 -36 -8 -45 -18z"/>
<path d="M8172 2487 c-29 -31 -52 -100 -52 -157 0 -36 5 -51 24 -69 29 -27 47
-21 94 33 53 60 66 145 31 190 -26 33 -68 34 -97 3z"/>
<path d="M7087 2380 c-67 -53 -4 -143 115 -165 44 -8 104 10 118 35 30 56 -7
111 -86 128 -115 24 -118 24 -147 2z"/>
<path d="M7695 2233 c-66 -16 -84 -85 -36 -134 25 -24 38 -29 78 -29 72 0 150
26 170 56 39 60 -26 115 -132 113 -33 -1 -69 -3 -80 -6z"/>
<path d="M2496 7531 c-4 -7 -5 -15 -2 -18 9 -9 19 4 14 18 -4 11 -6 11 -12 0z"/>
<path d="M7622 6010 c-24 -5 -119 -45 -210 -89 -231 -109 -331 -124 -477 -71
-33 12 -73 24 -89 27 -26 5 -28 3 -21 -13 4 -11 19 -50 33 -89 13 -38 32 -79
41 -89 23 -27 110 -64 168 -72 115 -15 296 27 444 102 157 80 290 69 378 -31
l30 -35 26 44 c14 24 33 80 41 126 16 82 16 82 -7 106 -13 14 -51 38 -84 55
-49 24 -77 30 -145 34 -47 2 -105 0 -128 -5z"/>
<path d="M6900 5452 c0 -5 -7 -51 -16 -102 l-16 -94 28 -24 c90 -74 200 -96
439 -87 155 6 176 5 237 -15 111 -34 180 -110 233 -255 6 -18 16 -11 78 57 40
42 80 90 89 106 17 29 17 31 -8 78 -31 59 -102 134 -164 174 -25 16 -80 40
-123 55 -77 25 -83 26 -305 23 -249 -3 -267 0 -393 64 -58 29 -79 34 -79 20z"/>
<path d="M3756 4377 c-47 -70 -64 -211 -30 -248 37 -41 79 -10 109 80 20 60
23 154 6 175 -20 24 -68 20 -85 -7z"/>
<path d="M3589 3770 c-22 -13 -66 -115 -74 -173 -13 -85 45 -128 100 -73 25
25 65 139 65 185 0 55 -47 87 -91 61z"/>
<path d="M3350 3210 c-31 -31 -61 -97 -67 -149 -5 -41 -2 -52 16 -70 43 -43
91 -18 130 69 38 83 20 170 -35 170 -13 0 -33 -9 -44 -20z"/>
<path d="M3054 2754 c-43 -21 -71 -53 -79 -91 -5 -27 -2 -34 19 -48 22 -15 27
-15 54 -1 50 26 83 74 80 115 -4 42 -25 50 -74 25z"/>
<path d="M2744 2421 c-35 -29 -70 -68 -84 -95 l-25 -47 28 -25 c33 -28 61 -25
122 15 77 51 111 145 67 184 -28 25 -42 21 -108 -32z"/>
</g>
</svg>
