<?xml version="1.0" standalone="no"?>
<!DOCTYPE svg PUBLIC "-//W3C//DTD SVG 20010904//EN"
 "http://www.w3.org/TR/2001/REC-SVG-20010904/DTD/svg10.dtd">
<svg version="1.0" xmlns="http://www.w3.org/2000/svg"
 width="1024.000000pt" height="1024.000000pt" viewBox="0 0 1024.000000 1024.000000"
 preserveAspectRatio="xMidYMid meet">

<g transform="translate(0.000000,1024.000000) scale(0.100000,-0.100000)"
fill="#000000" stroke="none">
<path d="M5289 9695 c-169 -54 -242 -276 -144 -439 l34 -57 -67 -74 c-37 -40
-122 -134 -189 -208 l-121 -135 -202 204 c-111 111 -200 207 -198 211 69 140
71 146 71 213 0 145 -108 258 -267 276 -110 13 -235 -57 -288 -160 -32 -62
-36 -175 -9 -247 24 -64 78 -131 118 -148 l28 -11 0 -550 0 -550 -32 -11 c-47
-15 -250 -147 -336 -217 -154 -127 -285 -291 -405 -507 -77 -137 -142 -298
-181 -446 -30 -114 -61 -314 -61 -399 0 -25 -4 -50 -8 -55 -4 -6 -33 -16 -65
-22 -119 -25 -231 -103 -290 -204 -33 -57 -67 -185 -67 -254 0 -129 58 -274
153 -380 l51 -58 -18 -46 c-64 -165 -191 -619 -245 -879 -47 -222 -53 -337
-47 -843 3 -269 1 -550 -6 -689 -12 -264 -6 -327 39 -420 36 -74 109 -145 188
-182 60 -27 73 -30 148 -26 62 2 94 9 130 27 47 24 157 123 157 141 0 19 16
10 32 -17 27 -46 90 -103 143 -131 58 -30 183 -41 275 -24 45 8 70 7 141 -10
l87 -20 -29 -43 c-69 -102 -91 -199 -65 -288 9 -30 25 -65 36 -79 l20 -26 -23
-6 c-12 -3 -122 -6 -244 -6 l-221 0 -26 -31 c-14 -17 -26 -42 -26 -55 0 -39
27 -81 58 -92 34 -12 505 2 597 18 96 16 815 13 991 -5 355 -35 699 -37 874
-5 30 6 255 13 500 16 374 5 470 4 605 -10 88 -10 250 -20 360 -23 l201 -6 28
24 c21 18 29 37 33 69 4 39 1 49 -21 71 -36 36 -58 39 -287 39 -110 0 -199 4
-199 9 0 5 9 28 20 52 41 91 19 220 -55 328 l-34 50 69 15 c53 12 80 14 112 6
56 -12 203 -13 248 0 61 17 143 73 185 127 44 57 51 61 59 35 11 -34 85 -100
143 -128 78 -37 207 -40 295 -5 84 33 159 106 205 199 l38 76 -1 130 c0 72 -2
439 -5 816 -6 734 -6 733 -65 1015 -36 171 -182 660 -236 792 l-21 52 71 68
c96 93 143 190 150 305 13 220 -99 404 -303 498 -34 16 -78 31 -98 35 -35 7
-37 9 -37 47 0 107 -58 399 -107 538 -39 114 -111 278 -149 344 -45 76 -155
222 -236 314 -124 140 -323 300 -455 365 l-63 31 0 549 0 548 54 50 c70 64
100 130 100 224 0 119 -63 222 -164 269 -64 29 -187 29 -252 -1 -63 -29 -132
-101 -152 -160 -24 -71 -21 -177 8 -239 13 -28 29 -55 35 -58 6 -4 11 -13 11
-20 0 -7 -79 -95 -175 -196 -96 -100 -175 -186 -175 -191 0 -31 -34 0 -274
250 l-148 153 21 22 c70 75 88 226 38 328 -28 57 -71 99 -137 133 -47 24 -170
30 -231 10z m162 -191 c66 -34 72 -139 10 -183 -34 -25 -97 -27 -125 -6 -50
38 -70 109 -45 156 23 44 107 61 160 33z m-1195 -38 c24 -24 34 -43 34 -65 0
-66 -50 -121 -111 -121 -44 0 -109 65 -109 109 0 43 15 68 53 91 50 31 93 26
133 -14z m2403 9 c37 -32 55 -82 42 -117 -15 -41 -68 -78 -109 -78 -41 1 -66
16 -94 57 -29 45 -24 89 16 129 44 44 99 47 145 9z m-1001 -610 c37 -38 126
-130 198 -203 113 -115 134 -132 151 -124 18 10 267 260 435 438 l86 90 7
-135 c4 -75 5 -192 1 -261 -3 -69 -6 -236 -6 -372 l0 -248 -1099 1 c-604 0
-1117 -3 -1140 -7 l-41 -7 0 508 c0 280 3 505 8 502 4 -4 122 -122 262 -262
190 -190 261 -255 279 -255 26 0 29 2 256 250 88 95 201 213 250 262 l90 88
98 -98 c54 -53 129 -128 165 -167z m-1123 -1390 c164 -18 382 -130 493 -253
59 -65 130 -180 161 -262 34 -88 37 -100 19 -100 -18 0 -228 -103 -302 -147
-78 -47 -173 -120 -180 -140 -14 -35 34 -75 179 -152 43 -24 120 -67 170 -96
49 -29 139 -74 198 -100 118 -51 134 -52 212 -12 95 48 435 250 503 299 69 51
71 80 8 135 -48 42 -228 141 -349 193 -77 33 -78 34 -72 64 7 37 74 171 122
244 20 29 65 82 102 118 54 54 88 77 186 125 152 74 243 94 399 87 193 -9 371
-82 509 -209 125 -114 234 -306 268 -473 22 -110 33 -308 22 -431 l-8 -90 -74
-7 c-94 -10 -684 -121 -816 -154 -276 -70 -527 -150 -629 -201 l-69 -35 -101
17 c-102 16 -106 16 -258 -11 -30 -5 -50 0 -100 23 -110 53 -267 101 -544 168
-370 89 -851 185 -929 185 -67 0 -68 2 -73 164 -10 336 46 546 204 758 70 93
141 154 240 205 102 53 199 83 299 93 79 7 94 7 210 -5z m1203 -887 l33 -20
-83 -37 c-46 -21 -105 -53 -133 -72 -45 -32 -129 -79 -140 -79 -3 0 -5 31 -5
69 l0 70 53 4 52 3 -57 2 -58 2 0 -79 0 -79 -91 50 c-50 28 -135 71 -188 94
-53 24 -96 46 -96 50 0 8 86 53 243 127 l134 63 151 -74 c84 -40 167 -83 185
-94z m-2463 -415 c44 -8 134 -28 199 -45 65 -16 160 -38 210 -48 248 -50 800
-174 837 -188 14 -6 90 -25 168 -42 126 -28 291 -84 346 -117 17 -10 18 -15 8
-30 -37 -53 -68 -109 -81 -146 -29 -82 -27 -210 5 -292 6 -17 1 -18 -73 -12
-43 4 -153 22 -244 40 -218 45 -274 54 -470 72 -90 9 -180 20 -200 25 -19 5
-132 23 -250 40 -292 41 -433 71 -615 131 -125 41 -177 73 -230 144 -55 73
-79 147 -79 240 0 78 15 114 65 164 86 86 196 104 404 64z m4571 -18 c131 -81
175 -247 104 -391 -48 -98 -150 -159 -321 -193 -57 -11 -133 -31 -169 -45 -36
-13 -121 -31 -190 -41 -69 -9 -170 -27 -225 -40 -55 -14 -170 -31 -255 -40
-221 -23 -375 -47 -725 -116 -82 -16 -178 -29 -211 -29 l-62 0 15 78 c27 137
-2 285 -67 347 -17 16 -30 33 -30 37 0 36 639 225 920 273 157 27 533 104 689
141 188 45 243 53 372 51 99 -2 109 -4 155 -32z m-2382 -469 c50 -21 112 -81
137 -133 32 -66 32 -178 0 -250 -27 -61 -49 -83 -120 -118 -65 -33 -133 -31
-202 4 -101 52 -152 135 -152 247 0 120 43 188 158 248 38 19 135 21 179 2z
m1174 -1071 c1 -308 -2 -681 -7 -830 -8 -265 -9 -272 -40 -368 -73 -223 -217
-424 -397 -553 -144 -102 -439 -221 -607 -243 -259 -36 -608 19 -829 130 -177
88 -345 232 -439 377 -68 104 -133 240 -161 337 -23 80 -23 81 -26 893 -2 656
0 812 10 812 15 0 80 -12 438 -76 285 -51 436 -62 465 -33 15 15 21 14 76 -12
102 -50 173 -69 253 -69 83 0 176 25 225 60 29 20 45 22 204 26 95 2 204 10
242 17 275 55 537 98 575 93 13 -1 15 -72 18 -561z m576 408 c8 -16 30 -67 49
-115 19 -48 61 -124 93 -170 146 -207 324 -346 547 -427 60 -22 115 -47 123
-58 8 -10 13 -31 11 -48 -2 -29 -4 -30 -56 -33 -194 -11 -423 95 -598 278 -97
100 -194 231 -244 329 -29 56 -34 76 -34 134 0 66 1 70 37 103 21 19 42 34 48
34 5 0 16 -12 24 -27z m-3622 -8 c42 -28 47 -47 35 -129 -37 -250 -310 -562
-589 -672 -71 -27 -203 -45 -263 -35 -39 6 -40 7 -43 50 -4 52 -2 54 93 82
155 47 303 137 417 256 94 96 139 155 198 258 41 71 57 105 91 193 11 28 16
28 61 -3z m4516 -2239 c12 -103 -72 -196 -191 -212 -64 -9 -140 34 -173 98
-12 23 -12 29 2 42 8 9 34 20 57 26 23 6 89 26 147 44 128 42 154 42 158 2z
m-5312 -1 c48 -14 118 -28 155 -31 l69 -7 0 -39 c0 -75 -68 -128 -163 -128
-71 0 -157 65 -182 137 -11 32 -11 42 1 65 8 16 19 28 24 28 5 0 49 -11 96
-25z m4664 -130 c-26 -42 -72 -78 -119 -94 -36 -12 -111 -15 -111 -5 0 20 241
158 248 142 2 -4 -6 -24 -18 -43z m-4055 12 c38 -26 115 -99 115 -109 0 -13
-52 -9 -106 7 -61 18 -93 50 -101 100 l-6 37 34 -7 c19 -4 48 -17 64 -28z
m2041 -397 c0 -50 8 -74 46 -152 26 -52 70 -119 98 -150 l52 -58 -199 0 c-109
0 -228 3 -265 6 l-67 7 51 56 c68 75 106 157 120 265 l12 86 75 0 76 0 1 -60z
m-360 -17 c-8 -72 -34 -127 -89 -189 -75 -86 -60 -84 -567 -84 -492 0 -478 -2
-505 63 -16 38 0 100 38 150 81 106 367 141 551 67 63 -26 80 -29 87 -18 7 10
9 9 9 -4 0 -11 7 -18 18 -18 14 0 15 2 2 10 -12 8 -11 10 8 10 12 0 22 -4 22
-10 0 -13 32 -1 48 18 6 9 12 12 12 8 0 -4 6 -4 13 1 12 8 17 9 37 12 5 0 7 8
4 16 -4 8 -1 15 5 15 6 0 11 -6 11 -12 0 -10 2 -10 8 -1 5 8 33 11 85 9 42 -1
77 1 77 6 0 4 30 8 66 8 l67 0 -7 -57z m1138 37 c372 -10 413 -13 463 -32 95
-35 163 -111 163 -181 0 -59 -19 -97 -48 -98 -85 -5 -940 3 -957 8 -90 28
-215 201 -215 300 0 22 2 22 93 18 50 -2 276 -9 501 -15z"/>
<path d="M5301 8758 c-162 -79 -204 -286 -86 -426 43 -51 99 -76 175 -77 193
-1 310 202 220 382 -63 126 -193 177 -309 121z m153 -184 c54 -55 18 -134 -61
-134 -42 0 -83 40 -83 80 0 38 44 80 85 80 22 0 41 -9 59 -26z"/>
<path d="M4218 7036 c-62 -17 -131 -75 -159 -133 -84 -173 34 -383 213 -383
138 0 267 130 268 270 0 166 -163 291 -322 246z"/>
<path d="M6408 7036 c-91 -25 -148 -86 -174 -187 -20 -77 -9 -142 35 -211 137
-216 464 -107 462 153 0 75 -26 133 -81 182 -71 65 -156 87 -242 63z"/>
<path d="M5253 6533 c9 -2 23 -2 30 0 6 3 -1 5 -18 5 -16 0 -22 -2 -12 -5z"/>
<path d="M3045 5937 c-29 -13 -55 -52 -55 -82 0 -7 11 -27 25 -44 32 -37 116
-58 179 -45 34 7 44 16 59 46 16 32 17 41 5 64 -22 45 -62 67 -125 71 -35 2
-70 -2 -88 -10z"/>
<path d="M3553 5846 c-57 -26 -59 -106 -4 -143 27 -18 48 -23 103 -23 78 0
117 15 138 54 19 36 4 75 -37 98 -43 26 -157 33 -200 14z"/>
<path d="M4090 5698 c-31 -17 -45 -63 -31 -101 15 -40 66 -58 168 -59 85 -1
87 -1 115 31 42 47 37 91 -16 118 -42 22 -202 29 -236 11z"/>
<path d="M7572 5945 c-61 -19 -82 -41 -82 -85 0 -56 35 -83 107 -83 71 0 123
16 153 48 18 20 22 31 17 62 -4 21 -16 46 -28 56 -26 21 -104 22 -167 2z"/>
<path d="M7068 5848 c-86 -18 -118 -71 -83 -138 19 -37 61 -49 140 -38 94 13
144 64 117 122 -24 53 -89 73 -174 54z"/>
<path d="M6545 5713 c-100 -5 -133 -14 -159 -40 -33 -33 -34 -73 -1 -105 32
-33 71 -40 163 -32 58 5 80 12 103 31 35 30 39 78 9 115 -22 29 -43 34 -115
31z"/>
<path d="M5422 5525 c0 -16 2 -22 5 -12 2 9 2 23 0 30 -3 6 -5 -1 -5 -18z"/>
<path d="M5293 4649 c-105 -52 -111 -169 -15 -271 75 -80 186 -46 248 74 14
28 24 65 24 89 0 34 -6 47 -34 73 -60 57 -151 71 -223 35z"/>
<path d="M5320 4074 c-99 -43 -137 -141 -90 -233 39 -78 111 -112 189 -91 81
21 130 92 131 185 0 65 -25 106 -82 134 -52 25 -99 26 -148 5z"/>
<path d="M5314 3491 c-23 -10 -54 -36 -70 -57 -25 -33 -29 -46 -29 -104 0 -58
4 -71 29 -104 98 -129 306 -50 306 116 -1 118 -129 199 -236 149z"/>
<path d="M4696 2191 c-4 -6 7 -14 26 -19 40 -11 45 -8 25 12 -12 12 -17 13
-20 3 -4 -9 -8 -9 -15 2 -6 9 -12 10 -16 2z"/>
<path d="M5640 2275 c0 -7 7 -18 15 -25 12 -10 15 -9 15 4 0 13 4 15 19 6 25
-13 28 -13 34 3 3 7 -3 13 -12 14 -9 1 -28 3 -43 6 -18 3 -28 0 -28 -8z"/>
<path d="M5727 2243 c-4 -3 -7 -11 -7 -17 0 -6 5 -5 12 2 6 6 9 14 7 17 -3 3
-9 2 -12 -2z"/>
</g>
</svg>
