<?xml version="1.0" standalone="no"?>
<!DOCTYPE svg PUBLIC "-//W3C//DTD SVG 20010904//EN"
 "http://www.w3.org/TR/2001/REC-SVG-20010904/DTD/svg10.dtd">
<svg version="1.0" xmlns="http://www.w3.org/2000/svg"
 width="1024.000000pt" height="1024.000000pt" viewBox="0 0 1024.000000 1024.000000"
 preserveAspectRatio="xMidYMid meet">
<metadata>
Created by potrace 1.16, written by Peter Selinger 2001-2019
</metadata>
<g transform="translate(0.000000,1024.000000) scale(0.100000,-0.100000)"
fill="#000000" stroke="none">
<path d="M6745 8659 c-92 -9 -244 -59 -325 -106 -61 -36 -252 -214 -276 -257
-10 -18 -11 -18 -69 3 -263 98 -544 115 -855 50 -52 -10 -116 -26 -141 -34
l-46 -16 -84 49 c-167 98 -425 233 -465 244 -55 15 -91 0 -156 -65 -63 -63
-131 -156 -240 -328 -182 -285 -289 -520 -387 -849 -80 -267 -155 -622 -149
-702 l3 -40 75 -27 c41 -15 113 -48 159 -74 46 -26 87 -47 92 -47 13 0 11 -11
-5 -29 -25 -28 -114 -202 -161 -316 -42 -100 -62 -158 -130 -388 -25 -84 -35
-104 -35 -68 0 33 -28 93 -58 124 -53 57 -74 62 -237 63 -82 0 -158 1 -167 2
-17 2 -18 20 -18 217 l0 215 40 36 c23 21 56 68 78 112 34 70 37 83 37 162 0
104 -23 156 -100 229 -64 61 -114 87 -196 102 -54 10 -74 9 -129 -5 -202 -52
-313 -242 -250 -430 22 -66 97 -182 125 -192 13 -5 15 -42 15 -229 l0 -222
-152 -5 c-105 -4 -164 -10 -189 -20 -67 -29 -119 -116 -119 -199 0 -46 44
-136 88 -181 36 -38 37 -38 114 -38 l78 0 0 -228 0 -229 -91 -91 c-121 -123
-154 -191 -153 -312 0 -153 80 -300 211 -391 l42 -29 0 -566 c1 -311 4 -577 8
-592 10 -43 166 -398 233 -532 87 -174 129 -205 186 -137 35 41 173 327 250
517 l59 145 -3 497 -2 496 142 -5 c79 -3 145 -8 148 -10 4 -4 7 -12 58 -193
138 -488 423 -919 791 -1194 41 -31 76 -57 78 -59 2 -3 -36 -9 -85 -16 -177
-22 -323 -91 -438 -206 -163 -163 -185 -339 -50 -404 41 -21 58 -21 492 -22
287 -1 481 3 537 10 195 26 340 100 402 205 9 15 14 11 42 -28 39 -55 117
-107 202 -136 129 -43 227 -50 711 -50 250 1 475 5 500 10 53 10 103 60 122
121 40 136 -185 400 -400 469 -37 12 -74 24 -82 26 -9 3 17 22 65 47 44 23
103 57 130 76 184 126 425 376 485 503 l27 57 109 -73 c126 -85 268 -165 304
-173 38 -7 129 37 270 132 161 108 257 190 348 295 256 297 402 634 442 1025
7 67 10 238 8 440 -3 377 -4 381 -80 409 -71 26 -525 153 -643 180 -223 50
-329 67 -381 61 l-50 -6 -27 137 c-36 180 -128 454 -215 634 -73 154 -197 350
-238 376 -29 20 -30 38 -4 105 26 65 54 375 46 505 -7 119 -61 299 -128 424
-27 52 -57 103 -66 113 -50 57 120 -27 186 -91 27 -26 100 -117 163 -202 64
-85 136 -173 160 -196 61 -55 210 -128 305 -150 194 -43 429 25 551 160 85 95
202 315 203 381 0 68 -30 73 -120 19 -72 -43 -95 -49 -175 -45 -108 6 -221 97
-286 231 -167 343 -203 402 -318 523 -94 98 -164 151 -271 205 -155 77 -318
108 -475 91z m-2196 -273 c42 -24 155 -87 251 -141 323 -181 706 -421 1270
-798 124 -82 227 -151 229 -154 3 -2 -9 -18 -27 -36 -39 -41 -78 -127 -87
-193 l-7 -52 -86 20 c-299 67 -459 89 -742 103 -159 8 -476 -11 -594 -35 -279
-57 -789 -212 -938 -284 l-68 -32 0 25 c0 76 96 478 158 661 79 233 194 464
345 694 59 90 198 266 210 266 6 0 44 -20 86 -44z m1254 -181 c335 -50 684
-260 843 -505 102 -158 171 -306 188 -405 l8 -40 -38 44 c-69 79 -204 125
-302 102 l-47 -12 -185 123 c-102 68 -249 164 -328 213 -78 50 -233 149 -344
221 -112 71 -240 152 -285 180 -45 27 -82 52 -83 56 -1 35 393 50 573 23z
m864 -986 c217 -105 151 -429 -87 -429 -69 0 -125 25 -169 75 -88 101 -93 208
-13 297 70 77 179 100 269 57z m-3711 -484 c111 -65 133 -208 45 -296 -87 -88
-211 -66 -278 49 -54 92 -27 213 58 255 51 25 124 22 175 -8z m2779 -325 c260
-38 497 -228 630 -505 71 -147 140 -417 160 -622 7 -70 7 -72 -21 -96 -27 -23
-28 -28 -37 -163 -19 -307 10 -799 58 -954 38 -123 32 -169 -53 -425 -87 -263
-180 -452 -298 -606 -51 -67 -180 -189 -269 -256 -146 -109 -383 -218 -543
-249 -95 -18 -299 -18 -394 0 -105 20 -286 87 -375 138 -98 56 -264 189 -343
275 -115 126 -218 279 -304 453 -206 417 -301 874 -300 1440 1 296 12 416 65
665 106 496 247 748 479 853 75 34 214 42 291 17 167 -54 311 -175 390 -328
48 -94 76 -137 89 -137 5 0 28 34 51 76 117 212 249 337 418 394 110 37 197
45 306 30z m-2608 -720 l223 0 0 -54 c0 -51 -1 -55 -27 -59 -16 -3 -223 -5
-461 -4 -417 2 -434 3 -448 21 -8 11 -14 35 -14 53 0 26 5 34 23 38 39 9 177
13 331 9 82 -2 250 -4 373 -4z m393 -238 c-5 -18 -14 -76 -20 -130 -19 -169
-19 -172 -43 -172 -12 0 -56 -9 -97 -20 -41 -11 -81 -20 -87 -20 -10 0 -13 37
-13 151 l0 151 69 -7 c57 -6 77 -3 114 13 25 11 53 32 63 46 21 33 26 29 14
-12z m-437 -1288 l-3 -1178 -60 -155 c-59 -151 -117 -288 -131 -304 -3 -5 -30
52 -59 125 -29 73 -74 183 -101 244 l-49 110 0 635 c0 348 0 887 0 1196 l0
563 198 2 197 3 6 -32 c3 -17 4 -561 2 -1209z m4741 1066 c233 -60 579 -169
598 -188 17 -17 23 -486 9 -638 -43 -461 -241 -852 -568 -1126 -101 -84 -278
-198 -308 -198 -67 0 -296 160 -450 314 -361 361 -483 732 -473 1435 l3 223
135 43 c74 23 221 63 325 88 105 25 244 59 310 76 66 16 135 29 154 30 19 1
138 -26 265 -59z"/>
<path d="M4391 8113 c-42 -21 -72 -68 -167 -263 -136 -278 -214 -458 -216
-498 -2 -67 45 -119 96 -106 42 10 82 67 152 212 36 75 111 228 166 340 91
185 100 207 95 245 -4 28 -14 49 -32 64 -31 27 -49 28 -94 6z"/>
<path d="M4701 7952 c-22 -24 -87 -140 -169 -303 -144 -287 -154 -319 -111
-373 16 -20 29 -26 59 -26 66 0 95 36 214 267 58 115 122 237 141 272 63 115
40 201 -52 201 -41 0 -50 -5 -82 -38z"/>
<path d="M5083 7835 c-39 -17 -69 -62 -188 -285 -98 -185 -110 -228 -75 -272
34 -44 104 -34 156 24 29 31 221 362 235 405 15 47 4 98 -28 123 -30 23 -55
25 -100 5z"/>
<path d="M5413 7659 c-19 -12 -56 -60 -91 -117 -112 -182 -120 -209 -76 -261
54 -64 125 -32 209 93 109 164 127 239 68 286 -33 25 -69 25 -110 -1z"/>
<path d="M6553 7094 c-30 -15 -63 -65 -63 -97 0 -25 39 -65 75 -77 93 -31 166
60 120 149 -23 45 -73 54 -132 25z"/>
<path d="M4157 5970 c-84 -53 -135 -159 -123 -258 11 -92 60 -161 141 -198 89
-42 174 -27 249 44 107 103 114 253 17 364 -73 83 -196 104 -284 48z"/>
<path d="M5647 5986 c-115 -41 -182 -178 -148 -303 31 -114 118 -185 225 -185
75 0 127 23 179 81 48 53 68 104 69 171 3 169 -167 292 -325 236z"/>
<path d="M4880 5619 c-195 -23 -406 -128 -428 -213 -11 -39 1 -82 30 -114 13
-14 73 -57 133 -97 61 -40 149 -102 197 -138 138 -104 195 -102 308 12 125
125 220 270 220 336 0 144 -213 244 -460 214z m248 -179 c47 -21 52 -39 23
-83 -27 -41 -161 -187 -172 -187 -5 0 -59 33 -121 73 -62 40 -132 84 -155 97
-24 13 -43 29 -43 36 0 18 76 51 145 63 97 17 106 18 195 19 64 1 95 -3 128
-18z"/>
<path d="M7505 5069 c-80 -18 -303 -82 -420 -119 -66 -21 -146 -46 -177 -55
l-58 -16 0 -246 c0 -405 44 -600 187 -839 122 -203 397 -435 517 -438 82 -2
275 131 381 263 128 158 214 333 272 551 24 89 26 113 30 401 l5 306 -43 17
c-91 34 -281 90 -464 137 -104 27 -189 49 -190 48 0 -1 -18 -5 -40 -10z m102
-351 l32 -33 -4 -184 -3 -184 174 7 174 7 20 -33 c25 -42 25 -69 -1 -102 l-20
-26 -176 0 -176 0 7 -247 c4 -137 3 -253 -1 -259 -14 -19 -51 -34 -85 -34 -77
1 -81 18 -73 302 l8 240 -178 -3 -178 -3 -28 34 c-16 19 -29 38 -29 42 0 5 11
27 26 49 l25 40 179 -3 178 -3 -1 189 -2 190 34 23 c45 31 61 29 98 -9z"/>
</g>
</svg>
