<?xml version="1.0" standalone="no"?>
<!DOCTYPE svg PUBLIC "-//W3C//DTD SVG 20010904//EN"
 "http://www.w3.org/TR/2001/REC-SVG-20010904/DTD/svg10.dtd">
<svg version="1.0" xmlns="http://www.w3.org/2000/svg"
 width="1024.000000pt" height="1024.000000pt" viewBox="0 0 1024.000000 1024.000000"
 preserveAspectRatio="xMidYMid meet">

<g transform="translate(0.000000,1024.000000) scale(0.100000,-0.100000)"
fill="#000000" stroke="none">
<path d="M2868 9665 c-221 -39 -421 -133 -588 -277 -218 -187 -331 -261 -424
-280 l-61 -12 40 -17 c73 -33 165 -42 289 -30 61 6 127 11 146 11 l33 0 -22
-24 c-30 -32 -123 -80 -191 -100 -142 -41 -339 -39 -435 3 -75 33 -211 129
-294 207 -45 42 -81 72 -81 68 0 -5 9 -43 20 -84 30 -116 122 -279 231 -409
104 -124 302 -271 432 -319 90 -34 231 -48 338 -34 89 12 255 66 318 103 18
11 36 17 39 14 3 -3 -9 -40 -27 -83 -41 -96 -53 -142 -37 -142 20 0 113 67
182 133 37 34 109 112 160 173 53 64 122 133 160 162 129 97 279 113 215 24
-36 -51 -132 -264 -151 -337 -38 -144 -51 -258 -51 -472 -1 -269 20 -354 111
-452 l39 -43 -10 -156 c-8 -148 -26 -309 -35 -323 -2 -4 -30 0 -62 8 -42 11
-91 14 -187 11 -149 -5 -206 -22 -298 -89 -72 -51 -113 -110 -135 -195 -17
-65 -18 -68 -83 -111 -80 -52 -127 -102 -199 -208 -54 -80 -90 -158 -90 -195
0 -11 -18 -31 -45 -50 -86 -59 -122 -172 -109 -334 6 -79 5 -83 -25 -132 -46
-76 -61 -127 -58 -202 3 -108 -6 -121 -138 -186 -91 -44 -122 -66 -157 -106
-60 -69 -115 -164 -123 -210 -7 -43 13 -33 -330 -154 -71 -26 -164 -59 -205
-75 -41 -16 -88 -33 -105 -38 -28 -9 -29 -11 -27 -64 8 -168 59 -503 108 -701
111 -448 314 -882 556 -1184 134 -168 298 -319 467 -430 43 -28 49 -29 165
-30 108 0 132 -4 221 -33 131 -42 236 -59 370 -61 214 -3 220 -3 234 24 17 31
44 43 123 51 72 8 106 -9 37 -18 -22 -3 -51 -12 -64 -21 -22 -15 -25 -24 -25
-79 0 -50 12 -149 23 -199 1 -4 -31 -20 -71 -33 -89 -31 -148 -67 -170 -105
-12 -21 -26 -29 -57 -33 -77 -11 -265 -79 -326 -119 -86 -55 -162 -139 -208
-227 -39 -77 -81 -219 -81 -276 0 -31 -1 -31 -105 -63 -188 -58 -265 -105
-265 -162 0 -67 84 -110 348 -175 427 -106 1037 -176 1802 -207 400 -17 1578
-16 1850 0 275 17 715 56 880 77 19 3 67 9 105 14 345 45 750 138 875 201 73
37 94 60 85 98 -14 66 -94 109 -313 171 l-137 39 -11 73 c-7 41 -19 94 -28
119 -26 70 -104 187 -164 247 -99 97 -315 185 -514 208 -45 5 -58 11 -63 26
-10 32 -80 76 -164 104 l-77 25 4 100 c7 177 -1 190 -130 200 l-77 5 49 74
c100 150 179 335 195 457 l6 51 103 51 c145 72 215 122 301 214 41 45 75 85
75 90 0 12 -107 137 -156 183 -46 42 -164 236 -164 268 0 18 -31 87 -60 134
-13 20 -12 25 8 46 27 28 28 59 7 222 -8 66 -21 178 -30 249 -8 71 -21 139
-29 151 -10 15 -33 26 -76 36 -67 15 -66 12 -73 116 l-5 61 82 -39 c45 -22
111 -45 146 -51 36 -6 71 -16 79 -22 7 -6 31 -38 52 -72 67 -105 214 -207 337
-233 61 -13 107 -8 210 21 69 20 75 20 123 4 71 -22 151 -20 240 8 l77 23 7
-231 c4 -127 4 -595 1 -1041 l-5 -810 30 -145 c80 -388 224 -970 294 -1194 30
-99 71 -236 91 -305 43 -155 43 -155 50 -149 3 3 22 72 44 154 21 82 61 223
88 314 55 185 140 521 202 800 22 102 51 230 65 285 63 257 60 229 60 555 0
168 -1 747 -3 1288 l-3 983 48 36 c305 231 466 491 503 813 35 316 -89 656
-273 748 -64 32 -158 39 -231 18 -32 -10 -60 -15 -62 -13 -3 2 0 44 6 93 5 49
10 113 10 142 l0 52 80 0 c103 0 257 17 317 35 l46 14 45 -50 c153 -171 403
-127 505 89 115 245 -129 525 -377 432 -57 -22 -147 -96 -158 -130 -4 -13 -10
-13 -40 -2 -37 13 -340 58 -459 69 l-67 6 -6 66 c-3 36 -9 100 -11 141 -3 41
-10 116 -15 165 -5 50 -14 161 -20 247 -6 87 -12 163 -15 170 -2 7 -6 36 -9
63 -6 52 -20 152 -35 243 -8 51 -7 54 18 70 131 81 223 222 251 385 35 197
-98 442 -290 535 -68 32 -84 36 -180 40 -177 7 -288 -35 -394 -149 -133 -143
-181 -368 -117 -540 38 -101 175 -269 219 -269 22 0 23 -24 2 -173 -27 -193
-27 -189 -34 -272 -4 -38 -11 -115 -16 -170 -11 -111 -13 -146 -31 -388 -9
-114 -16 -166 -24 -164 -6 3 -33 1 -60 -3 -28 -4 -79 -10 -115 -14 -108 -10
-150 -17 -255 -38 -55 -11 -105 -21 -111 -21 -6 -1 -29 21 -52 49 -58 73 -115
99 -217 99 -68 -1 -88 -5 -133 -28 -75 -39 -124 -87 -158 -154 -25 -50 -29
-69 -29 -138 1 -96 30 -170 91 -229 67 -65 127 -90 219 -90 103 -1 168 27 229
96 l43 49 119 -15 c65 -8 163 -18 216 -21 l97 -7 6 -56 c3 -32 10 -75 15 -97
5 -22 6 -43 2 -46 -4 -3 -32 -14 -62 -23 -66 -21 -148 -74 -191 -124 -46 -52
-89 -151 -101 -232 -13 -85 3 -249 32 -343 25 -79 25 -100 0 -122 -20 -18 -23
-18 -100 8 -107 36 -189 35 -287 -4 -30 -12 -33 -11 -71 23 -22 20 -49 41 -60
47 -18 10 -20 20 -19 103 2 122 -21 167 -106 212 -51 28 -60 38 -88 96 -35 76
-115 184 -185 253 -81 80 -241 176 -379 228 -40 15 -55 26 -55 39 0 25 26 49
47 44 10 -2 84 -20 164 -39 81 -19 166 -35 189 -35 l43 0 -7 56 c-12 102 -86
234 -211 378 l-64 73 14 41 c8 22 20 99 27 171 l12 130 52 21 c81 33 225 131
298 203 96 94 117 146 117 284 0 138 -26 312 -85 563 -30 127 -95 278 -204
470 -104 183 -325 482 -441 595 l-52 50 -42 -24 c-23 -12 -112 -59 -197 -104
-216 -112 -469 -255 -504 -284 -33 -27 -43 -27 -141 5 -294 96 -684 76 -1007
-54 -88 -35 -88 -35 -116 -17 -15 11 -40 24 -55 31 -15 6 -30 20 -33 29 -32
112 -163 268 -282 336 -110 64 -200 89 -337 93 -72 1 -151 -3 -197 -11z m303
-139 c144 -28 277 -114 348 -224 39 -61 39 -75 -1 -103 l-31 -23 -16 25 c-95
145 -233 201 -501 203 -108 0 -165 -4 -225 -18 -92 -21 -231 -74 -325 -124
-63 -33 -185 -82 -205 -82 -14 0 221 171 300 218 197 116 456 167 656 128z
m2705 -171 c206 -269 273 -371 362 -550 64 -130 106 -267 153 -503 38 -188 41
-217 36 -315 -2 -59 -7 -111 -11 -114 -3 -3 -33 20 -66 51 -74 68 -228 146
-340 172 -100 23 -499 32 -650 14 -377 -44 -989 -205 -1275 -335 -42 -19 -78
-35 -81 -35 -2 0 -4 11 -4 25 0 32 26 55 97 83 49 20 61 30 81 68 12 24 22 53
22 63 0 11 5 23 10 26 6 3 10 15 10 27 0 15 4 18 18 12 26 -11 67 -7 102 11
38 20 39 49 4 153 -26 80 -59 138 -83 147 -16 6 -78 -30 -90 -53 -6 -10 -5
-39 0 -70 14 -74 2 -84 -115 -93 -50 -4 -102 -10 -116 -13 -19 -5 -34 3 -67
33 l-43 39 73 68 c138 131 411 351 607 489 380 268 908 583 1149 688 35 15 73
34 84 42 12 8 24 11 27 7 4 -4 51 -65 106 -137z m-1227 -180 c115 -15 181 -32
181 -47 0 -4 -15 -15 -32 -24 -18 -10 -67 -40 -108 -69 -157 -109 -326 -202
-331 -182 -9 38 -8 131 1 142 11 13 -1 14 -91 10 -151 -8 -267 -42 -429 -128
-234 -123 -395 -324 -490 -607 -24 -72 -43 -109 -77 -150 l-46 -55 8 85 c9
107 24 163 78 298 97 244 259 445 450 560 122 73 343 151 482 170 104 14 286
13 404 -3z m-1739 -12 c-72 -12 -194 -58 -265 -99 -309 -181 -359 -205 -495
-240 -114 -29 -369 -7 -402 34 -11 14 -10 15 7 7 11 -4 77 -10 146 -13 177 -6
232 9 516 148 321 157 352 168 463 168 30 -1 44 -3 30 -5z m5241 -35 c229
-106 297 -390 144 -598 -46 -63 -102 -102 -185 -129 -76 -25 -120 -26 -186 -4
-108 36 -206 122 -253 222 -23 49 -26 69 -26 156 0 88 3 107 27 158 49 104
123 174 223 209 73 27 183 21 256 -14z m-4460 -15 c13 -13 -103 -75 -124 -67
-20 7 -82 -48 -114 -103 -19 -32 -29 -41 -37 -33 -22 22 55 139 129 192 34 26
47 29 88 25 27 -2 53 -9 58 -14z m4423 -884 c15 -77 12 -81 -72 -116 -89 -37
-160 -59 -167 -51 -3 3 -1 36 5 74 18 123 12 114 78 108 31 -3 75 -1 97 4 22
6 43 10 46 11 4 1 9 -13 13 -30z m-4391 -117 c131 -71 201 -228 167 -373 -27
-115 -96 -201 -207 -255 -47 -23 -62 -26 -126 -22 -89 6 -156 38 -216 103 -68
74 -86 123 -86 235 0 91 2 98 37 160 40 71 104 138 156 165 79 39 189 34 275
-13z m4423 -108 c-3 -9 -6 -29 -6 -45 0 -18 -4 -28 -10 -24 -5 3 -25 -5 -42
-18 -44 -33 -142 -73 -199 -82 l-46 -7 5 59 c2 32 6 60 7 61 4 4 265 69 284
71 8 1 11 -5 7 -15z m-3127 -158 c93 -78 161 -149 201 -212 29 -47 97 -211
118 -286 l10 -37 -103 -101 c-113 -112 -191 -174 -275 -219 -54 -29 -54 -30
-25 -35 85 -17 122 -29 190 -62 42 -20 106 -58 142 -85 76 -55 80 -56 301 -63
85 -2 156 -7 160 -10 11 -11 -24 -60 -88 -126 -67 -67 -152 -128 -239 -171
-54 -26 -68 -45 -25 -35 46 12 61 -2 108 -99 25 -52 46 -97 46 -100 0 -11
-144 -72 -206 -88 -34 -8 -81 -13 -105 -11 -197 17 -285 29 -421 56 l-156 31
-8 166 c-7 156 5 402 21 442 5 14 -7 20 -67 34 -223 54 -381 213 -410 414 -17
114 7 255 64 373 23 48 49 95 58 103 26 23 203 81 415 135 105 27 196 49 204
50 7 0 47 -29 90 -64z m1321 -4 c0 -40 -79 -133 -162 -192 -70 -50 -73 -51
-77 -28 -2 16 5 29 25 43 56 39 136 120 166 167 33 50 48 54 48 10z m-369
-198 c19 -145 3 -363 -31 -414 -16 -23 -150 117 -150 156 0 32 47 168 107 311
37 91 38 92 50 64 6 -15 17 -68 24 -117z m2185 110 c-3 -9 -6 -20 -6 -25 0 -5
-6 -9 -13 -9 -8 0 -22 -9 -33 -21 -10 -12 -41 -32 -68 -46 -50 -25 -204 -69
-212 -60 -3 3 -2 32 2 65 l6 61 97 16 c53 10 112 21 131 25 19 4 50 8 69 9 26
1 32 -2 27 -15z m-4070 -136 c-3 -13 -11 -74 -17 -138 -19 -179 -4 -277 62
-409 69 -141 141 -212 282 -281 56 -28 108 -50 116 -50 12 0 13 -17 8 -97 -4
-54 -7 -162 -7 -240 l0 -141 -45 14 c-25 7 -56 26 -70 41 -24 27 -25 33 -24
158 0 72 0 142 0 156 -1 22 -14 34 -80 72 -97 56 -201 152 -252 230 -78 121
-124 303 -110 444 l6 68 6 -80 c6 -77 6 -75 6 30 -1 136 12 177 65 216 49 35
62 37 54 7z m4091 -128 c1 -27 -2 -50 -7 -50 -11 0 -13 12 -10 48 2 29 -3 28
-56 -9 -25 -17 -64 -39 -87 -49 -51 -22 -206 -64 -213 -58 -2 3 -1 29 3 59 l8
53 65 13 c74 16 233 40 270 42 24 1 26 -2 27 -49z m-4710 -150 c4 -8 8 -107 8
-219 l2 -205 33 -27 c39 -33 165 -109 330 -199 63 -35 138 -78 165 -95 28 -18
74 -44 103 -59 30 -15 52 -29 49 -32 -6 -6 -152 48 -224 84 -32 16 -111 50
-175 77 -65 26 -143 65 -175 87 -32 22 -99 67 -149 100 l-91 60 13 72 c7 39
16 146 20 237 l7 166 38 -16 c21 -9 42 -23 46 -31z m2260 -93 c48 -40 117 -96
153 -124 36 -29 88 -79 116 -110 89 -101 183 -237 172 -249 -2 -2 -49 12 -104
30 -112 38 -431 118 -544 136 -41 7 -122 20 -180 30 -58 10 -125 22 -149 25
l-45 7 90 84 c171 160 296 244 365 244 31 0 51 -12 126 -73z m2465 41 c-5 -17
-7 -19 -10 -7 -2 14 -19 9 -105 -28 -96 -42 -209 -73 -263 -73 -21 0 -24 4
-24 39 0 29 5 41 18 45 43 14 165 36 171 31 5 -2 28 -1 52 4 24 5 72 9 106 10
59 1 61 0 55 -21z m-1295 -189 c126 -48 154 -260 44 -338 -90 -64 -225 -30
-276 70 -19 35 -21 112 -6 153 38 98 145 150 238 115z m2346 -3 c71 -29 116
-123 102 -213 -13 -87 -122 -166 -207 -149 -44 9 -113 61 -132 100 -40 85 1
212 84 254 50 25 106 28 153 8z m-963 -52 c215 -23 499 -63 548 -76 41 -12 42
-13 42 -55 0 -43 0 -43 -60 -57 -14 -3 -97 -8 -185 -11 -88 -2 -259 -10 -380
-16 -170 -9 -287 -9 -514 0 -290 12 -588 34 -598 45 -9 8 -11 76 -3 81 14 9
297 57 405 69 28 3 118 10 200 17 83 6 152 13 154 15 11 10 261 2 391 -12z
m-5068 -211 c119 -41 227 -111 329 -213 101 -101 172 -204 223 -326 56 -133
67 -186 73 -333 7 -172 -12 -268 -79 -393 -64 -121 -190 -199 -333 -206 -157
-8 -251 39 -381 189 -166 193 -343 316 -535 373 -79 24 -303 18 -371 -9 -25
-10 -23 18 3 73 31 64 82 84 222 90 62 3 132 0 167 -7 83 -17 246 -89 324
-145 75 -54 215 -206 287 -313 80 -118 138 -149 268 -141 182 11 284 115 321
328 21 116 -7 289 -69 424 -123 271 -366 474 -636 531 -110 23 -172 19 -256
-15 -68 -28 -119 -38 -119 -24 0 37 133 125 225 148 11 3 72 4 135 2 97 -3
129 -8 202 -33z m5100 -301 l-3 -181 -67 -37 c-37 -20 -86 -50 -109 -66 -23
-15 -45 -28 -49 -28 -8 0 2 413 12 453 6 26 9 27 68 28 33 0 79 4 101 8 22 4
42 6 45 5 3 -1 4 -83 2 -182z m-414 162 c22 -4 23 -8 20 -87 l-3 -82 -45 -6
c-25 -4 -74 -8 -110 -10 l-65 -4 -3 102 -3 103 93 -6 c51 -3 103 -7 116 -10z
m-4891 -68 c238 -21 489 -235 578 -492 43 -126 44 -122 -65 -176 -123 -61
-205 -76 -327 -61 -48 6 -90 9 -92 7 -13 -13 162 -250 207 -283 85 -60 207
-40 282 46 l33 37 -7 -29 c-10 -40 -41 -72 -100 -102 -57 -29 -116 -28 -178 1
-39 19 -123 101 -206 201 -125 152 -277 272 -441 346 -86 40 -100 49 -74 49
35 0 34 -1 114 124 80 125 194 235 297 287 l37 18 -75 0 c-244 1 -471 -138
-577 -354 -25 -51 -28 -53 -76 -59 -27 -4 -51 -5 -54 -2 -8 8 33 91 75 154
123 180 368 310 557 296 17 -2 58 -5 92 -8z m2777 -88 c-8 -51 -23 -93 -30
-86 -4 5 10 85 21 116 10 27 15 9 9 -30z m-1949 -48 c6 -9 166 -117 235 -158
75 -44 327 -165 400 -192 179 -66 447 -127 635 -144 33 -3 88 -8 122 -12 43
-4 80 0 125 12 70 19 194 78 248 118 72 54 200 190 227 242 15 30 31 54 35 54
10 0 21 -40 20 -71 -2 -77 -194 -336 -300 -405 -70 -46 -67 -43 -59 -50 6 -6
157 85 225 134 17 14 57 57 87 98 31 40 60 76 65 79 31 19 -12 -139 -67 -250
-71 -143 -243 -367 -332 -433 -31 -23 -69 -82 -53 -82 5 0 42 29 83 63 207
178 380 417 435 604 21 71 34 73 34 4 0 -108 -79 -281 -206 -451 -97 -130
-393 -380 -450 -380 -102 0 -560 132 -712 205 -78 37 -78 37 -85 106 l-4 46
51 -28 c119 -64 333 -135 569 -188 76 -17 154 -31 172 -31 32 0 34 2 41 46 9
64 -2 330 -16 381 -14 47 -12 46 -164 58 -254 19 -675 148 -971 297 -119 60
-294 167 -338 207 -36 32 -77 97 -77 121 0 13 17 13 25 0z m2190 -33 c141 -71
297 -226 358 -355 39 -84 34 -133 -23 -228 -54 -91 -110 -167 -117 -160 -3 3
13 36 35 73 47 78 62 114 62 149 0 19 -5 24 -27 24 -15 0 -46 9 -69 20 -45 22
-134 110 -134 133 0 34 -33 118 -60 152 -16 21 -35 56 -41 79 -6 22 -23 65
-39 94 -28 51 -28 53 -7 46 12 -4 40 -16 62 -27z m1839 -76 c12 -19 -80 -64
-176 -87 -149 -34 -196 -54 -254 -107 -58 -53 -73 -86 -78 -173 -5 -112 43
-257 129 -389 28 -42 45 -79 45 -98 0 -30 0 -30 -21 -11 -61 55 -140 201 -179
334 -19 63 -22 92 -18 180 4 88 9 114 32 162 46 96 127 155 252 182 76 16 260
21 268 7z m811 -95 c64 -27 133 -146 172 -295 33 -125 36 -298 9 -416 -20 -88
-55 -189 -63 -181 -3 2 3 40 13 83 24 102 24 291 0 382 -66 248 -206 314 -451
214 -135 -55 -316 -162 -446 -265 -126 -98 -33 85 101 199 135 116 356 235
513 278 68 18 110 18 152 1z m-736 -133 c1 -27 -12 -47 -75 -115 -95 -103
-135 -180 -136 -266 -1 -78 27 -127 124 -217 l73 -67 6 -1642 5 -1641 27 -80
c25 -75 27 -91 27 -265 0 -281 12 -680 20 -675 4 3 11 193 15 422 6 378 9 426
28 498 23 88 21 -82 30 2527 1 421 5 769 8 772 3 4 49 -14 101 -39 52 -25 100
-45 106 -45 8 0 12 -357 13 -1277 2 -1571 1 -1720 -16 -1803 -7 -36 -19 -110
-25 -165 -6 -55 -27 -163 -45 -240 -69 -287 -124 -522 -139 -597 -27 -134 -77
-353 -82 -357 -8 -8 -33 67 -53 164 -12 55 -37 168 -56 250 -65 278 -85 369
-115 515 -17 80 -42 197 -57 260 l-27 115 0 1860 c-1 2010 -4 1912 53 1978 15
17 41 52 57 77 17 25 50 74 75 109 l44 64 7 -44 c3 -24 7 -59 7 -76z m-199 9
c0 -33 -124 -150 -177 -166 -53 -17 -18 29 87 114 73 59 90 69 90 52z m-3652
-275 c41 -24 28 -37 -39 -37 -62 0 -86 23 -81 79 l4 41 42 -31 c22 -17 56 -40
74 -52z m2459 41 c25 -24 29 -48 12 -80 -6 -11 -69 -84 -140 -162 -121 -131
-191 -196 -211 -196 -15 0 43 103 87 155 37 44 68 89 181 268 28 43 39 45 71
15z m-4167 -106 c0 -4 -16 -16 -35 -26 -39 -21 -129 -110 -154 -151 -23 -37
-5 -45 100 -45 84 0 87 1 93 25 3 13 31 60 60 104 l54 79 87 -39 c48 -21 106
-53 128 -71 62 -47 127 -111 127 -124 0 -6 -17 -30 -37 -53 -30 -34 -47 -44
-80 -48 l-42 -6 77 -57 c77 -57 122 -99 217 -200 l49 -53 38 44 c21 24 41 54
44 67 7 26 31 26 47 0 12 -18 -12 -59 -78 -135 l-32 -38 -87 80 c-150 139
-202 179 -313 243 -175 99 -327 139 -496 129 -52 -2 -90 -1 -93 5 -4 6 3 22
15 36 12 15 35 51 52 80 17 29 50 73 73 98 34 38 49 47 91 53 68 12 95 12 95
3z m1250 -89 c-9 -15 -10 -12 -6 16 3 18 7 43 8 55 1 11 3 4 5 -16 2 -21 -1
-46 -7 -55z m680 42 c57 -29 83 -57 112 -120 76 -170 -50 -364 -249 -382 -79
-7 -131 9 -188 59 -58 51 -75 89 -75 169 0 50 6 72 32 121 52 98 93 136 173
164 80 27 124 25 195 -11z m1748 -1 c33 -23 31 -92 -4 -133 -29 -34 -58 -39
-86 -14 -25 23 -22 64 8 109 39 58 48 62 82 38z m72 -96 c40 -187 -121 -302
-234 -168 -46 55 -31 98 15 45 51 -58 134 -59 170 -2 18 28 20 43 15 116 -6
72 -4 82 8 72 8 -7 20 -35 26 -63z m2046 -115 c59 -31 102 -59 95 -61 -17 -6
-215 91 -263 129 -68 54 -67 76 1 30 33 -23 108 -67 167 -98z m-1553 80 c34
-26 64 -49 67 -51 6 -4 -60 -123 -85 -152 -12 -14 -38 -49 -57 -78 -20 -29
-93 -106 -164 -170 -147 -133 -188 -165 -210 -160 -9 2 39 55 136 146 82 79
164 165 182 190 17 26 47 65 65 86 18 22 31 42 28 44 -8 9 -63 -48 -117 -120
-27 -38 -52 -68 -54 -68 -6 0 26 73 37 85 5 5 9 13 9 18 0 5 -7 1 -16 -8 -15
-15 -19 -14 -45 11 -16 15 -29 35 -29 44 0 10 17 37 38 61 21 24 59 72 86 107
26 34 52 62 57 62 6 0 38 -21 72 -47z m410 -59 c3 -4 -14 -23 -39 -44 -55 -46
-119 -121 -145 -171 -21 -42 -50 -153 -75 -288 -10 -52 -20 -89 -22 -83 -5 17
-37 15 -53 -4 -12 -15 -14 -14 -20 7 -10 39 -22 -125 -16 -210 12 -162 86
-285 190 -316 28 -8 61 -15 74 -15 28 0 94 -32 113 -55 22 -27 -5 -36 -90 -32
-60 3 -87 10 -128 32 -177 96 -258 319 -218 599 19 129 67 308 100 375 48 93
139 175 226 202 31 9 95 11 103 3z m335 -48 l37 -35 -30 -58 c-34 -65 -53 -77
-283 -177 -90 -39 -114 -54 -118 -73 -13 -51 3 -246 26 -313 34 -100 98 -224
149 -287 69 -84 177 -153 169 -107 -3 18 -4 18 124 53 42 12 84 24 92 27 13 5
16 -3 16 -49 0 -31 -5 -59 -11 -63 -24 -14 -186 -54 -222 -54 -138 0 -297 183
-383 440 -26 77 -28 98 -28 225 -1 157 15 229 64 299 45 66 82 94 166 129 43
19 97 43 119 55 55 29 69 27 113 -12z m120 -89 c28 -22 52 -46 52 -53 0 -24
-14 -15 -75 47 -65 66 -60 68 23 6z m-1659 -71 c63 -131 130 -390 157 -601 17
-133 34 -364 28 -380 -3 -6 -24 -16 -47 -23 -51 -15 -261 -72 -264 -72 -2 0
-9 15 -17 33 l-14 34 -413 -4 c-228 -2 -438 -6 -467 -9 -50 -5 -55 -8 -68 -40
-14 -33 -16 -34 -69 -34 -77 0 -518 70 -533 84 -5 6 54 342 85 481 13 61 38
155 55 210 l31 100 109 108 c60 59 112 107 114 107 3 0 19 -9 34 -20 39 -28
242 -105 380 -145 128 -37 355 -85 401 -85 57 0 230 124 368 264 86 86 86 86
130 -8z m-3646 53 c-32 -12 -61 -32 -78 -54 -19 -26 -34 -35 -56 -35 -66 0 -7
83 69 95 20 4 42 8 47 10 6 2 24 4 40 4 26 0 23 -3 -22 -20z m298 -43 c57 -20
149 -75 163 -98 9 -15 3 -26 -36 -65 l-47 -47 -108 51 c-59 28 -129 59 -156
69 l-47 17 17 26 c9 14 28 45 41 68 l23 42 52 -24 c29 -13 73 -31 98 -39z
m6249 -112 c0 -25 -63 -113 -113 -156 -67 -58 -148 -118 -159 -118 -5 0 -8 19
-8 43 0 42 1 42 59 69 35 17 88 56 132 97 69 66 89 80 89 65z m-6464 -98 c48
-20 117 -53 153 -75 36 -21 110 -64 164 -96 54 -32 96 -59 94 -62 -3 -2 -69
12 -148 32 -127 32 -296 67 -384 81 -16 2 -43 7 -60 9 -75 13 -203 17 -241 6
-22 -6 -66 -31 -98 -55 -56 -44 -93 -63 -102 -53 -9 9 36 86 73 128 80 88 208
132 364 125 81 -4 111 -11 185 -40z m1068 7 c-24 -31 -64 -60 -64 -45 0 16 69
86 77 78 4 -3 -2 -18 -13 -33z m2832 7 c34 0 30 -14 -11 -33 -33 -16 -35 -16
-45 3 -13 24 -4 44 17 36 8 -3 26 -6 39 -6z m-3376 -150 c8 -5 12 -11 9 -14
-3 -3 -14 1 -25 9 -21 16 -8 20 16 5z m472 -79 c22 -82 34 -181 21 -181 -37 0
-83 115 -83 208 0 39 2 43 22 40 19 -2 26 -15 40 -67z m-136 -68 c9 -30 14
-56 12 -59 -2 -2 -20 1 -39 6 -18 6 -46 10 -60 10 -34 0 -57 26 -42 48 14 23
83 61 100 55 7 -3 20 -30 29 -60z m-881 -3 c432 -82 741 -157 1040 -253 67
-21 70 -23 73 -56 4 -37 -29 -264 -58 -401 -25 -120 -86 -342 -109 -398 -11
-26 -41 -101 -66 -167 -26 -66 -69 -163 -97 -215 -79 -150 -244 -399 -312
-470 -34 -36 -81 -88 -106 -117 -88 -101 -330 -284 -466 -353 l-79 -40 -70 42
c-49 29 -114 85 -216 187 -256 257 -434 538 -581 920 -78 203 -119 349 -162
568 -36 190 -65 459 -50 472 5 4 61 26 124 49 283 101 458 154 620 191 96 22
200 46 230 55 78 21 106 20 285 -14z m4103 -110 c126 -44 126 -44 137 -77 9
-30 -9 -30 -94 1 -140 51 -206 83 -209 99 -5 27 38 21 166 -23z m-2759 -419
c213 -66 510 -133 735 -166 56 -8 112 -17 126 -20 14 -2 65 -11 114 -19 49 -9
90 -17 92 -19 2 -2 -1 -20 -7 -40 -10 -36 -11 -37 -57 -37 -115 0 -411 47
-602 96 -74 19 -224 62 -333 97 l-197 62 6 30 c7 33 12 45 21 45 3 0 49 -13
102 -29z m2676 -127 c7 -60 17 -163 20 -229 l7 -120 -34 -22 c-79 -52 -399
-171 -500 -186 -43 -6 -47 4 -27 61 9 27 18 32 92 52 116 31 149 52 180 114
32 64 33 76 6 109 -32 42 -87 51 -181 32 -44 -9 -82 -15 -83 -13 -2 2 -5 36
-7 77 l-3 73 124 35 c118 32 297 97 351 128 14 7 28 10 33 6 4 -4 14 -57 22
-117z m-675 11 c17 -21 32 -392 22 -585 l-7 -155 -130 -13 c-143 -15 -604 -21
-647 -9 -45 12 -59 78 -65 319 -6 218 2 300 37 368 39 76 24 73 383 80 177 4
338 7 358 8 22 1 41 -4 49 -13z m319 -251 c24 -31 26 -53 7 -79 -12 -16 -18
-18 -40 -7 -33 15 -43 54 -22 87 21 32 30 31 55 -1z m-1696 -12 c24 -21 21
-49 -8 -68 -55 -36 -101 30 -55 76 21 21 30 20 63 -8z m-779 -32 c14 -5 105
-28 203 -50 98 -23 234 -55 303 -71 115 -26 197 -41 565 -103 l130 -22 3 -43
3 -43 -38 6 c-21 3 -63 8 -93 11 -87 10 -348 54 -420 71 -190 45 -410 100
-530 134 -74 21 -147 41 -162 44 -30 7 -35 24 -18 57 12 22 19 23 54 9z m110
-299 c6 -10 21 -12 55 -7 l46 6 -25 -20 c-38 -30 -59 -34 -81 -14 -23 20 -38
70 -30 99 4 16 7 13 15 -15 6 -19 15 -41 20 -49z m-84 62 c0 -4 -10 -17 -22
-30 -27 -29 -102 -33 -112 -6 -9 23 8 37 24 18 17 -21 53 -19 75 5 18 20 35
26 35 13z m2720 -93 c0 -26 -3 -55 -6 -64 -9 -23 -46 -20 -84 7 -45 30 -52 54
-8 27 18 -11 41 -20 51 -20 22 0 40 46 33 83 -4 17 -2 26 4 22 6 -3 10 -28 10
-55z m-2450 22 c0 -55 40 -68 88 -27 34 29 42 31 42 11 0 -25 -62 -76 -92 -76
-46 0 -91 63 -74 105 10 27 36 17 36 -13z m2561 19 c23 15 30 10 27 -17 -4
-39 -35 -55 -54 -29 -8 11 -18 18 -22 15 -4 -3 -8 5 -10 18 -3 20 -1 21 21 13
14 -6 29 -6 38 0z m-251 -106 c0 -59 -2 -66 -24 -76 -42 -19 -106 30 -106 82
0 20 17 7 31 -23 29 -66 89 -40 89 38 0 24 2 44 5 44 3 0 5 -29 5 -65z m-2654
38 c-4 -4 -21 -12 -39 -18 -29 -9 -33 -16 -45 -70 -20 -87 -30 -111 -58 -125
-35 -19 -41 -5 -15 38 12 20 37 67 54 104 28 58 36 68 62 71 16 2 34 5 39 5 5
1 6 -1 2 -5z m67 -86 c21 -32 44 -34 95 -8 20 10 47 22 60 26 22 7 23 5 20
-37 l-3 -43 48 1 c51 0 57 -12 16 -35 -34 -19 -80 2 -93 44 -6 17 -11 32 -13
34 -1 2 -14 -6 -29 -18 -38 -30 -79 -27 -115 8 -24 25 -29 37 -28 78 l1 48 12
-36 c6 -19 19 -47 29 -62z m632 43 c9 -28 26 -55 37 -61 33 -18 84 -2 110 33
29 41 36 18 8 -27 -27 -43 -54 -59 -90 -52 -27 6 -27 5 -33 -50 -10 -95 -76
-135 -132 -78 -25 25 -30 41 -19 69 5 12 11 9 28 -17 27 -41 55 -45 89 -13 19
18 27 35 27 60 0 19 -4 38 -10 41 -13 8 -46 145 -36 145 3 0 12 -23 21 -50z
m-145 19 c0 -18 5 -21 38 -17 20 3 46 9 57 13 19 9 19 8 4 -15 -9 -14 -33 -31
-54 -39 -35 -14 -39 -13 -51 4 -16 22 -19 75 -4 75 6 0 10 -9 10 -21z m2420
-73 c0 -68 -55 -103 -103 -66 -35 28 -45 25 -53 -14 -9 -49 -44 -79 -76 -67
-27 10 -58 47 -58 69 0 8 10 5 30 -9 39 -29 75 -15 85 33 7 33 31 68 47 68 4
0 8 -11 8 -25 0 -21 5 -25 29 -25 39 0 74 30 74 63 0 15 3 24 8 21 5 -3 9 -24
9 -48z m-2023 3 c13 -66 87 -76 123 -16 24 39 28 12 5 -33 -18 -35 -43 -50
-84 -50 -46 0 -71 31 -71 85 0 51 17 61 27 14z m1483 -29 c0 -45 -9 -49 -58
-24 -41 20 -43 51 -4 57 62 9 62 10 62 -33z m-2040 -16 c0 -67 74 -83 126 -27
l24 26 0 -30 c0 -43 -47 -85 -91 -81 -30 3 -37 10 -61 57 -31 61 -37 104 -13
95 9 -4 15 -19 15 -40z m767 -16 c23 -25 68 -23 87 4 14 19 16 20 16 5 0 -22
-43 -67 -64 -67 -42 0 -77 44 -75 97 l0 28 10 -25 c6 -13 17 -33 26 -42z
m1342 -9 c13 -74 24 -89 67 -89 35 0 64 28 64 62 0 10 5 18 10 18 13 0 2 -99
-13 -118 -7 -9 -22 -11 -46 -7 -63 12 -94 54 -104 143 -8 72 8 66 22 -9z m551
-104 c-5 -13 -18 -29 -30 -35 -17 -9 -24 -7 -46 20 -33 39 -64 40 -64 3 0 -28
-33 -92 -53 -105 -11 -6 -87 49 -87 64 0 4 18 0 41 -8 37 -15 42 -15 56 -1 9
9 19 43 23 79 4 35 8 53 9 41 1 -17 12 -25 54 -37 48 -14 53 -14 65 1 6 9 12
33 13 52 l1 36 14 -43 c9 -29 10 -51 4 -67z m-2253 20 c34 -63 91 -72 108 -17
5 17 13 32 17 32 13 0 9 -37 -6 -75 -16 -37 -56 -56 -85 -38 -27 16 -61 94
-60 138 1 38 1 38 8 10 4 -16 12 -39 18 -50z m-690 59 c-3 -3 -12 -4 -19 -1
-8 3 -5 6 6 6 11 1 17 -2 13 -5z m-87 -44 l22 12 -18 -31 c-12 -20 -26 -31
-41 -31 -25 0 -28 4 -38 49 l-7 33 30 -22 c25 -19 33 -20 52 -10z m100 -1 c0
-37 44 -69 95 -69 50 0 58 -11 20 -28 -60 -27 -110 -4 -120 56 -4 20 -9 45
-12 56 -3 12 -1 16 6 12 6 -4 11 -16 11 -27z m2241 -230 c65 -129 84 -160 97
-155 368 124 577 211 660 273 l34 25 39 -38 40 -39 -28 -23 c-136 -113 -443
-256 -685 -317 -136 -35 -152 -34 -187 15 -52 72 -121 216 -166 350 -25 72
-45 132 -45 135 0 3 12 5 28 5 15 0 47 6 72 14 l45 13 8 -48 c5 -27 44 -120
88 -210z m-1003 212 c16 -22 27 -28 43 -24 17 5 20 2 16 -13 -3 -10 -11 -39
-17 -64 -19 -72 -97 -274 -135 -351 -44 -87 -73 -118 -106 -113 -561 89 -807
146 -1129 259 -102 36 -222 77 -267 91 -46 14 -83 30 -83 36 0 25 62 118 79
118 10 0 141 -41 292 -90 281 -93 336 -109 544 -155 66 -15 174 -40 240 -56
66 -15 150 -33 187 -39 37 -5 73 -13 81 -15 15 -7 93 145 159 309 61 154 61
154 96 107z m643 -36 c51 -190 136 -388 225 -522 66 -99 80 -109 139 -94 59
15 59 15 38 -20 -30 -52 -187 -196 -278 -255 -235 -153 -576 -279 -868 -321
-108 -15 -118 -15 -130 0 -6 8 -52 27 -100 41 -127 36 -173 69 -246 179 -49
72 -70 128 -92 238 -33 170 -30 176 67 155 92 -21 352 -63 439 -71 l70 -7 47
84 c88 156 203 439 237 583 l12 50 215 0 214 1 11 -41z m-928 -23 c17 -18 29
-22 51 -18 24 5 27 3 21 -12 -4 -9 -10 -25 -12 -34 -6 -19 -23 -25 -23 -8 0 6
-6 10 -14 10 -20 0 -76 49 -76 66 0 8 6 23 13 34 11 19 12 19 15 3 2 -10 14
-28 25 -41z m1407 15 c0 -24 -5 -48 -12 -55 -20 -20 -65 -14 -82 10 -21 29
-21 44 0 24 8 -9 20 -16 26 -16 20 0 48 33 48 57 0 12 5 23 10 23 6 0 10 -19
10 -43z m-2119 -64 c38 -7 45 -19 20 -32 -50 -27 -72 -9 -70 57 l1 37 10 -28
c7 -19 19 -30 39 -34z m122 33 c-12 -62 43 -91 104 -56 l38 22 -43 -42 c-36
-35 -48 -41 -70 -35 -15 4 -32 11 -39 17 -18 15 -26 73 -14 97 16 28 29 27 24
-3z m512 -62 c-3 -19 -10 -32 -16 -29 -13 9 -11 52 3 78 11 20 12 20 16 4 2
-11 1 -34 -3 -53z m1752 20 c-3 -20 -11 -42 -18 -50 -14 -17 -51 -18 -67 -2
-19 19 -14 28 16 28 32 0 52 16 52 42 0 10 5 18 11 18 8 0 10 -12 6 -36z
m-127 9 c-1 -21 -13 -53 -21 -53 -10 0 -12 43 -2 53 9 9 23 9 23 0z m-1920
-32 c0 -9 9 -27 19 -40 16 -21 24 -23 60 -18 45 6 49 2 24 -25 -11 -12 -30
-18 -58 -18 -35 0 -46 5 -60 26 -9 15 -20 44 -22 65 -5 35 -4 37 16 32 11 -3
21 -13 21 -22z m261 -76 c41 -53 62 -56 89 -12 l20 32 0 -34 c0 -36 -23 -71
-47 -71 -41 0 -159 112 -130 123 26 11 36 6 68 -38z m1594 35 c3 -5 12 -7 20
-3 18 6 18 3 5 -31 -5 -14 -16 -26 -24 -26 -17 0 -36 30 -36 54 0 17 25 22 35
6z m-2772 -395 c49 -216 122 -400 208 -527 47 -70 49 -84 8 -63 -84 44 -182
198 -233 365 -46 153 -55 315 -17 308 11 -2 21 -27 34 -83z m2957 -69 c0 -28
-109 -270 -147 -325 -43 -64 -165 -187 -212 -214 -17 -10 -31 -16 -31 -12 0 3
26 34 58 68 105 113 131 153 202 299 69 143 102 198 121 198 5 0 9 -6 9 -14z
m-3511 -113 c-36 -44 -171 -139 -247 -174 -47 -22 -87 -37 -89 -35 -2 2 27 22
64 44 38 23 113 73 168 112 99 69 130 85 104 53z m3512 -554 c-25 -116 -8
-172 56 -184 55 -10 167 -51 170 -62 2 -6 -16 -14 -44 -18 -127 -18 -233 -57
-444 -161 -268 -133 -438 -174 -502 -124 -14 11 -35 45 -47 76 -21 57 -62 226
-55 232 2 2 11 -1 22 -7 10 -5 30 -12 44 -15 24 -5 27 -11 32 -70 6 -66 32
-131 61 -155 12 -10 38 -12 89 -9 88 6 205 51 340 132 51 30 137 75 192 100
112 51 110 53 -25 26 l-95 -19 -22 25 c-35 38 -30 74 17 121 21 22 47 44 57
47 13 5 14 9 5 15 -7 4 -85 -10 -175 -31 -89 -21 -229 -54 -312 -73 -82 -19
-183 -42 -223 -52 -73 -17 -74 -17 -88 2 -27 37 -14 59 41 67 216 34 373 76
604 160 108 40 221 77 251 83 l55 12 3 -34 c2 -19 -1 -57 -7 -84z m-2668 7
c308 -103 456 -141 612 -155 63 -5 70 -8 73 -29 7 -44 -15 -55 -98 -50 -94 6
-358 67 -515 120 -66 22 -138 42 -160 45 -21 2 -43 7 -47 9 -4 3 -12 2 -18 -1
-6 -4 1 -26 16 -56 20 -38 25 -57 20 -84 l-7 -35 -117 -1 -117 0 40 -19 c22
-10 46 -19 53 -19 32 -2 220 -79 347 -143 166 -84 253 -118 299 -118 40 0 91
37 99 72 36 153 64 218 94 218 22 0 22 -15 -3 -144 -28 -148 -50 -188 -112
-206 -20 -5 -44 -10 -53 -10 -33 0 -161 51 -364 145 -115 54 -241 108 -280
122 -91 31 -222 63 -262 63 -77 0 -34 34 77 60 60 14 111 36 122 54 12 18 9
84 -6 139 -23 83 -28 127 -16 127 6 0 152 -47 323 -104z m1030 37 c-7 -2 -19
-2 -25 0 -7 3 -2 5 12 5 14 0 19 -2 13 -5z m-88 -13 c-67 -13 -150 -22 -144
-15 7 7 113 23 154 23 24 0 22 -2 -10 -8z m680 -40 c10 -11 24 -20 32 -20 19
0 17 -4 -22 -43 -29 -29 -35 -42 -35 -79 0 -70 27 -134 71 -170 52 -42 61 -74
48 -162 -6 -39 -9 -101 -6 -138 l6 -67 -511 -1 c-439 0 -509 2 -505 14 18 47
17 86 -3 142 -33 89 -35 116 -12 161 11 22 28 45 37 53 51 42 85 143 65 194
l-9 23 132 5 c128 5 303 32 542 82 140 30 148 30 170 6z m1590 -375 c177 -48
325 -146 379 -253 50 -100 80 -261 54 -295 -50 -66 -509 -70 -871 -7 -249 43
-738 171 -849 222 -63 29 -128 81 -116 93 3 4 34 -5 68 -19 78 -32 446 -128
637 -167 375 -76 546 -94 818 -85 277 8 261 6 257 46 -1 18 -17 59 -34 89 -38
69 -185 217 -266 269 -61 39 -212 95 -290 108 -23 4 -42 11 -42 17 0 14 181 2
255 -18z m-3590 -13 c33 -11 85 -28 115 -37 75 -23 197 -78 305 -138 94 -53
125 -75 125 -88 0 -15 -94 -57 -221 -99 -260 -86 -431 -117 -689 -126 -119 -5
-171 -10 -188 -21 -36 -22 -39 -8 -10 50 44 90 137 197 234 269 101 74 141 96
235 127 36 12 75 28 85 36 18 14 18 14 -7 15 -90 1 -310 -83 -409 -155 -61
-44 -151 -157 -192 -240 -17 -33 -31 -61 -32 -62 -2 -2 -21 6 -44 17 -30 15
-42 27 -42 43 -1 14 -7 6 -16 -22 -18 -51 -17 -53 61 -94 122 -64 481 -58 794
13 238 54 292 69 545 152 185 61 258 89 282 110 17 15 37 28 43 28 24 0 9 -44
-26 -79 -45 -45 -128 -80 -388 -168 -590 -199 -1042 -241 -1292 -122 -89 42
-96 56 -76 144 20 88 71 211 108 260 35 45 133 116 208 150 142 65 359 82 492
37z m3385 -27 c207 -71 283 -117 401 -243 67 -71 131 -165 119 -175 -7 -5
-267 10 -410 23 -129 12 -193 25 -398 81 -160 44 -211 66 -235 102 -14 21 -24
25 -73 26 -31 0 -58 2 -60 4 -8 8 114 94 181 129 61 31 189 77 250 91 53 12
103 3 225 -38z m-2530 27 c0 -5 -7 -17 -15 -28 -14 -18 -14 -17 -4 9 12 27 19
34 19 19z m261 -642 l69 0 0 -30 c0 -27 -3 -30 -31 -30 l-31 0 4 -72 c3 -69 2
-73 -19 -76 -22 -3 -23 -1 -23 77 l0 80 -32 3 c-28 3 -34 7 -36 32 -3 23 0 28
13 22 9 -3 48 -6 86 -6z m-503 -45 c6 -102 26 -135 72 -120 16 5 20 16 21 53
2 71 12 106 32 110 15 3 17 -6 17 -76 0 -72 -3 -84 -26 -111 -35 -42 -80 -42
-123 -2 -30 28 -31 32 -31 111 0 72 2 81 18 78 12 -2 18 -14 20 -43z m276 -1
c3 -26 6 -64 6 -84 0 -24 5 -38 13 -37 62 2 77 -3 77 -27 0 -24 -2 -25 -67
-21 l-68 4 -3 105 c-2 98 -1 106 16 106 15 0 21 -10 26 -46z m523 9 c28 -35
29 -51 2 -79 l-21 -23 22 -36 c12 -20 20 -38 17 -41 -12 -12 -47 9 -64 36 -31
54 -69 50 -60 -6 6 -34 1 -39 -27 -28 -13 5 -16 24 -16 103 0 54 3 101 8 105
4 5 32 6 62 3 45 -5 59 -11 77 -34z m252 -48 c57 -121 57 -125 27 -125 -16 0
-27 7 -31 20 -11 36 -105 25 -105 -12 0 -14 -6 -19 -22 -16 -31 4 -28 24 21
131 25 53 47 87 56 87 9 0 30 -33 54 -85z m357 75 c15 -6 33 -18 40 -28 18
-23 17 -67 -1 -82 -8 -7 -15 -20 -15 -30 0 -10 7 -23 15 -30 21 -17 19 -40 -4
-40 -11 0 -28 15 -40 35 -15 26 -27 35 -46 35 -24 0 -26 -3 -23 -31 2 -17 0
-31 -4 -30 -5 1 -15 1 -23 1 -12 0 -15 18 -15 99 l0 100 33 4 c17 2 37 5 44 5
6 1 24 -3 39 -8z m242 -3 c12 -14 82 -176 82 -189 0 -14 -38 -8 -44 7 -4 11
-20 15 -57 15 -43 0 -52 -3 -56 -20 -8 -29 -39 -21 -35 9 4 36 75 191 88 191
6 0 16 -6 22 -13z m261 3 c30 0 40 -5 54 -29 22 -38 21 -60 -4 -87 l-21 -23
21 -29 c11 -17 21 -33 21 -36 0 -13 -40 -5 -52 10 -55 67 -78 72 -78 19 0 -37
-8 -43 -28 -23 -8 8 -12 47 -12 111 l0 100 31 -7 c17 -3 48 -6 68 -6z m301
-17 c0 -21 -5 -23 -45 -23 -41 0 -45 -2 -45 -25 0 -22 4 -24 37 -22 28 1 38
-2 41 -15 2 -13 -5 -17 -35 -20 -31 -2 -39 -7 -41 -25 -3 -21 1 -23 42 -23 39
0 46 -3 46 -20 0 -18 -7 -20 -70 -20 l-70 0 0 108 0 107 70 0 c66 0 70 -1 70
-22z"/>
<path d="M5622 9189 c-53 -34 -52 -56 9 -267 16 -57 45 -163 64 -235 48 -185
73 -264 91 -282 19 -19 93 -20 119 -1 24 18 18 69 -39 301 -71 288 -120 430
-169 483 -25 27 -33 27 -75 1z"/>
<path d="M5955 9075 c3 -27 24 -118 45 -201 22 -83 51 -204 64 -270 46 -221
58 -265 79 -285 35 -32 47 -24 47 29 0 92 -88 483 -146 647 -8 22 -32 60 -54
85 l-41 45 6 -50z"/>
<path d="M5328 9054 c-45 -24 -50 -44 -33 -130 9 -41 21 -88 26 -102 6 -15 26
-81 44 -147 86 -307 94 -325 148 -319 18 1 33 4 35 5 4 3 21 6 37 8 26 2 18
80 -25 248 -48 185 -94 330 -126 394 -31 61 -55 71 -106 43z"/>
<path d="M5045 8908 c-41 -22 -65 -52 -65 -79 0 -28 91 -352 129 -463 29 -82
32 -85 89 -75 80 15 82 17 82 57 0 51 -72 321 -116 436 -48 127 -71 151 -119
124z"/>
<path d="M6136 8853 c3 -16 19 -77 34 -138 15 -60 42 -173 60 -250 52 -224 57
-241 93 -275 33 -31 47 -37 47 -20 0 58 -75 411 -96 452 -8 15 -24 56 -37 92
-39 106 -119 216 -101 139z"/>
<path d="M4755 8733 c-46 -24 -75 -54 -75 -78 0 -33 128 -427 144 -443 12 -12
23 -12 78 5 l63 19 -2 40 c-4 85 -114 402 -157 450 -20 22 -22 23 -51 7z"/>
<path d="M4463 8530 c-51 -31 -55 -48 -33 -133 25 -95 77 -238 95 -263 13 -18
15 -18 69 0 31 11 61 25 67 32 13 16 -15 123 -67 257 -50 132 -68 146 -131
107z"/>
<path d="M4828 8083 c7 -3 16 -2 19 1 4 3 -2 6 -13 5 -11 0 -14 -3 -6 -6z"/>
<path d="M7903 9043 c-67 -23 -138 -94 -163 -161 -53 -139 22 -312 159 -369
125 -53 305 18 366 142 30 62 32 169 5 234 -30 68 -112 144 -174 160 -60 15
-142 13 -193 -6z m175 -103 c71 -44 63 -95 -24 -146 l-47 -28 -36 20 c-45 24
-77 80 -67 117 13 54 111 75 174 37z"/>
<path d="M3438 8020 c-57 -31 -104 -83 -122 -136 -21 -63 -20 -98 5 -180 17
-56 31 -77 77 -124 89 -88 168 -100 273 -43 72 38 119 93 135 154 7 28 11 56
8 60 -3 5 -23 -13 -44 -39 -78 -100 -178 -153 -247 -133 -49 14 -102 59 -134
115 -79 138 13 295 172 296 57 0 94 -26 120 -84 29 -64 25 -94 -13 -110 -51
-22 -73 -8 -149 92 l-47 63 -36 -31 c-69 -61 -73 -155 -10 -229 41 -48 81 -71
122 -71 48 0 134 50 167 98 27 39 30 52 30 115 0 64 -3 77 -30 114 -38 54 -94
82 -176 88 -52 5 -71 2 -101 -15z"/>
<path d="M4737 7747 c4 -18 13 -27 33 -31 l28 -5 -38 -39 c-97 -96 -87 -288
18 -369 32 -24 46 -28 103 -28 54 0 72 5 105 26 41 27 87 103 99 162 3 15 12
27 19 27 19 0 28 28 17 49 -6 10 -42 48 -82 86 -79 74 -191 134 -265 143 -40
4 -41 3 -37 -21z m244 -158 c26 -37 28 -78 3 -96 -26 -19 -42 -16 -69 12 -27
26 -34 82 -13 103 22 22 56 13 79 -19z"/>
<path d="M5821 7459 c-17 -51 -14 -96 8 -102 29 -7 50 10 57 49 14 73 -42 118
-65 53z"/>
<path d="M6722 6962 c-49 -57 -6 -158 79 -183 52 -16 124 16 144 65 19 46 19
86 -1 114 -17 25 -34 29 -34 9 0 -47 -100 -65 -137 -24 -11 12 -22 27 -24 34
-2 7 -13 1 -27 -15z"/>
<path d="M9061 6974 c-31 -40 -28 -104 6 -145 35 -41 78 -59 115 -48 40 11 96
47 108 69 16 30 12 76 -10 95 -18 16 -20 17 -20 1 0 -19 -38 -36 -81 -36 -36
0 -94 52 -85 75 9 24 -11 17 -33 -11z"/>
<path d="M2251 6011 c-22 -14 35 -22 138 -20 96 3 123 12 70 23 -47 9 -192 7
-208 -3z"/>
<path d="M2930 5746 c0 -2 8 -10 18 -17 15 -13 16 -12 3 4 -13 16 -21 21 -21
13z"/>
<path d="M3005 5670 c10 -11 20 -20 23 -20 3 0 -3 9 -13 20 -10 11 -20 20 -23
20 -3 0 3 -9 13 -20z"/>
<path d="M4130 5727 c-79 -25 -145 -127 -138 -209 8 -77 64 -135 152 -159 50
-14 96 -1 154 41 56 41 75 81 76 161 1 86 -28 128 -109 158 -61 23 -83 24
-135 8z m110 -62 c40 -21 70 -63 70 -99 0 -36 -26 -80 -42 -70 -6 4 -8 2 -4
-4 3 -6 2 -13 -3 -16 -11 -7 -80 43 -114 84 -63 75 4 151 93 105z"/>
<path d="M1997 4852 c-39 -43 -10 -98 56 -109 30 -4 37 -2 52 20 43 67 -56
147 -108 89z"/>
<path d="M1915 4692 c-54 -5 -238 -43 -330 -67 -113 -29 -358 -113 -381 -129
-16 -12 -16 -26 -6 -172 39 -545 275 -1107 610 -1455 61 -63 129 -125 152
-139 23 -14 51 -32 62 -41 l21 -16 -26 -39 c-37 -54 -36 -89 6 -114 43 -27 63
-25 92 6 37 39 33 79 -11 120 -33 32 -34 34 -12 34 41 1 93 25 183 86 159 107
320 277 449 476 131 201 274 552 321 788 2 8 10 40 19 70 32 112 49 376 24
384 -184 60 -432 123 -661 170 -168 35 -390 51 -512 38z m415 -136 c96 -19
246 -55 333 -80 87 -25 182 -50 212 -55 89 -17 97 -24 93 -84 -7 -87 -77 -406
-113 -512 -77 -228 -165 -403 -295 -582 -105 -146 -201 -248 -304 -325 -116
-86 -166 -114 -176 -98 -21 35 -52 248 -75 525 -2 28 -7 188 -11 356 -7 298 0
501 27 754 17 160 11 148 77 142 31 -3 136 -21 232 -41z"/>
<path d="M3162 4568 c-13 -13 -16 -66 -6 -93 4 -8 20 -23 36 -31 27 -14 32
-14 54 1 36 23 47 60 29 94 -8 16 -22 31 -30 35 -27 10 -70 7 -83 -6z"/>
<path d="M1050 4550 c-39 -39 -15 -120 36 -120 29 0 74 41 74 68 0 30 -38 72
-66 72 -13 0 -33 -9 -44 -20z"/>
<path d="M3015 3735 c-45 -44 -25 -108 33 -108 40 0 60 17 68 59 12 67 -53 98
-101 49z"/>
<path d="M5163 4132 l-223 -2 0 -33 c0 -17 -7 -68 -14 -112 -8 -44 -13 -81
-12 -82 1 -2 47 -6 102 -10 97 -8 99 -9 99 -33 0 -22 -5 -26 -45 -32 -25 -3
-96 -7 -157 -7 -106 -1 -131 -8 -100 -28 6 -4 34 -12 62 -18 l49 -10 12 -83
c6 -46 14 -86 17 -89 15 -15 221 -14 337 2 69 10 139 17 156 18 29 0 33 4 38
36 3 20 6 77 6 128 0 73 -3 94 -16 101 -14 8 -14 10 0 21 13 11 16 36 16 128
l0 114 -52 -3 c-29 -2 -153 -4 -275 -6z m227 -101 c0 -11 -4 -22 -8 -25 -10
-6 -186 11 -222 21 -18 6 -5 9 50 13 159 13 180 12 180 -9z m27 -117 l28 -26
-24 -19 c-18 -15 -33 -18 -65 -13 -57 8 -106 24 -106 34 0 7 102 45 132 49 4
1 20 -11 35 -25z"/>
<path d="M3272 3156 c17 -12 240 -94 368 -134 36 -11 73 -24 83 -27 10 -4 17
-3 17 5 0 6 -4 8 -10 5 -5 -3 -10 -1 -10 4 0 6 -8 11 -18 11 -10 0 -22 4 -28
9 -5 5 -45 21 -89 34 -44 14 -131 44 -193 66 -117 43 -149 50 -120 27z"/>
<path d="M3750 2991 c0 -8 52 -22 58 -16 2 1 -11 7 -27 13 -17 6 -31 7 -31 3z"/>
<path d="M4383 1787 c-26 -9 -36 -20 -48 -56 -8 -25 -29 -62 -45 -82 l-29 -37
41 -42 c59 -59 117 -97 208 -136 73 -32 85 -34 188 -34 117 0 191 17 282 63
l45 24 3 83 c2 60 -1 87 -11 99 -8 9 -22 32 -32 51 -10 19 -19 37 -21 38 -1 2
-47 -18 -101 -44 -54 -26 -110 -53 -124 -60 -24 -11 -35 -6 -150 67 -127 81
-144 86 -206 66z"/>
<path d="M4400 914 c0 -23 3 -25 33 -22 24 2 33 8 35 26 3 19 -1 22 -32 22
-32 0 -36 -3 -36 -26z"/>
<path d="M4687 893 c-14 -13 -6 -33 13 -33 22 0 23 1 14 24 -7 17 -16 20 -27
9z"/>
<path d="M5040 925 c-10 -12 -10 -18 0 -30 26 -32 88 -8 74 29 -8 20 -57 21
-74 1z"/>
<path d="M5321 891 c-14 -26 -7 -41 20 -41 22 0 23 6 5 39 l-13 24 -12 -22z"/>
<path d="M5554 925 c-14 -36 17 -56 60 -39 24 9 19 41 -6 48 -36 9 -48 7 -54
-9z"/>
<path d="M2998 8421 c-46 -58 -157 -149 -253 -207 -97 -58 -267 -136 -277
-126 -9 9 -27 118 -28 166 0 14 -3 16 -12 8 -36 -29 -133 -45 -241 -39 -103 5
-108 5 -133 -18 -14 -13 -47 -32 -72 -41 -26 -9 -126 -54 -222 -99 -395 -186
-451 -211 -584 -265 l-140 -56 3 -410 c5 -939 56 -1394 253 -2242 16 -71 24
-92 35 -87 8 3 23 5 33 5 12 0 22 12 31 38 22 70 70 154 114 201 l43 46 -24
72 c-20 60 -58 252 -79 398 -3 22 -12 76 -20 120 -37 204 -65 448 -81 700 -3
61 -8 113 -10 116 -2 3 -4 193 -4 422 l-2 417 210 104 c457 228 969 432 1217
486 201 43 214 48 219 73 3 12 12 57 21 101 8 43 24 99 35 124 11 25 19 47 17
49 -2 1 -24 -23 -49 -56z"/>
<path d="M6641 8443 c6 -16 21 -86 33 -158 19 -110 25 -130 41 -134 18 -3 353
-115 703 -235 89 -31 165 -56 167 -56 3 0 5 19 6 43 0 23 6 89 13 147 7 58 12
106 10 108 -20 27 -906 311 -971 312 -10 0 -10 -7 -2 -27z"/>
<path d="M2860 7860 c-373 -124 -709 -254 -935 -360 -116 -55 -273 -125 -316
-141 -25 -9 -25 -12 -22 -92 1 -45 5 -215 7 -377 5 -315 19 -492 61 -795 38
-277 93 -577 109 -592 3 -3 8 8 11 23 9 42 35 101 71 160 31 51 31 54 23 131
-15 147 17 267 100 378 20 27 57 86 81 130 101 185 198 300 285 336 l54 22 15
68 c19 86 43 134 93 185 50 51 166 118 263 152 65 22 92 26 207 26 l132 1 5
35 c3 19 7 76 8 125 l3 91 -44 72 c-23 39 -54 105 -67 146 -22 72 -43 219 -38
279 2 33 2 33 -106 -3z"/>
<path d="M6677 7801 c-42 -120 -211 -282 -384 -371 -54 -27 -63 -35 -63 -58 0
-15 -7 -67 -16 -116 l-15 -89 58 -76 c32 -42 69 -94 83 -115 l24 -39 13 57
c27 118 100 225 197 288 163 105 380 105 515 -2 l51 -40 67 10 c38 6 123 14
190 18 68 5 125 10 127 13 2 2 11 56 19 119 9 63 18 122 22 131 7 19 -14 28
-275 118 -80 27 -208 73 -285 101 -232 84 -278 100 -294 100 -10 0 -23 -18
-34 -49z"/>
<path d="M8449 7723 c-13 -3 -14 -12 -8 -51 4 -26 13 -124 20 -219 l13 -172
25 -5 c92 -18 99 -18 104 1 3 10 7 103 9 208 l3 190 -25 11 c-39 19 -123 41
-141 37z"/>
<path d="M6453 6632 c10 -51 -15 -101 -54 -109 l-31 -6 45 -39 c57 -49 132
-142 187 -235 29 -49 52 -75 72 -84 44 -18 111 -88 136 -142 12 -26 27 -82 33
-125 14 -108 9 -102 76 -86 32 8 82 14 111 14 l54 0 -9 78 c-29 272 14 437
153 579 34 35 81 71 105 81 l43 19 -103 6 c-103 7 -104 7 -150 -22 -123 -79
-248 -112 -352 -92 -94 18 -202 75 -267 140 l-55 56 6 -33z"/>
<path d="M6520 4276 c0 -8 7 -97 16 -198 8 -101 13 -206 9 -233 -6 -48 -3 -57
65 -185 39 -74 84 -151 101 -170 l29 -35 20 25 c82 101 358 625 339 644 -2 2
-24 0 -49 -4 -143 -28 -311 17 -460 124 -66 47 -70 49 -70 32z"/>
<path d="M7380 4063 c-12 -26 -39 -86 -60 -133 -103 -235 -299 -593 -381 -699
-11 -13 -19 -34 -19 -46 0 -12 -15 -39 -33 -61 -18 -21 -54 -68 -79 -104 -26
-36 -58 -76 -73 -90 -15 -14 -41 -45 -58 -70 -38 -56 -237 -276 -279 -309 -39
-31 -149 -181 -142 -192 3 -5 11 -9 19 -9 35 0 94 -103 95 -165 1 -59 17 -50
151 81 378 370 721 830 884 1186 l26 57 -3 290 c-3 318 -9 347 -48 264z"/>
</g>
</svg>
