<?xml version="1.0" standalone="no"?>
<!DOCTYPE svg PUBLIC "-//W3C//DTD SVG 20010904//EN"
 "http://www.w3.org/TR/2001/REC-SVG-20010904/DTD/svg10.dtd">
<svg version="1.0" xmlns="http://www.w3.org/2000/svg"
 width="1024.000000pt" height="1024.000000pt" viewBox="0 0 1024.000000 1024.000000"
 preserveAspectRatio="xMidYMid meet">
<metadata>
Created by potrace 1.16, written by Peter Selinger 2001-2019
</metadata>
<g transform="translate(0.000000,1024.000000) scale(0.100000,-0.100000)"
fill="#000000" stroke="none">
<path d="M4750 8860 c-302 -57 -583 -166 -797 -310 -122 -82 -289 -226 -394
-341 -83 -91 -152 -179 -146 -185 2 -2 54 1 117 6 63 5 196 10 294 10 l180 1
46 39 c116 97 278 176 428 207 93 19 294 13 386 -12 162 -44 347 -151 451
-261 l61 -64 72 0 c68 0 72 1 86 28 42 81 166 184 289 241 121 55 170 66 312
66 114 0 136 -3 180 -23 77 -36 206 -120 256 -169 43 -42 49 -44 120 -50 l74
-6 -44 49 c-107 118 -354 327 -518 438 -261 175 -577 300 -864 341 -150 21
-465 19 -589 -5z m329 -106 c26 -33 26 -42 -1 -71 -26 -28 -55 -29 -85 -4 -25
21 -31 69 -11 89 22 22 75 14 97 -14z m280 -22 c36 -26 37 -47 5 -77 -39 -36
-75 -33 -113 10 -30 35 -31 37 -15 67 15 28 19 30 57 25 22 -3 52 -14 66 -25z
m311 -70 c33 -25 37 -70 10 -105 -25 -32 -48 -34 -82 -7 -39 30 -53 73 -38
111 12 28 16 31 49 25 20 -3 47 -14 61 -24z"/>
<path d="M4030 7924 c-30 -2 -161 -8 -290 -14 -129 -6 -311 -17 -405 -25 -93
-8 -223 -16 -288 -19 -139 -7 -184 -24 -248 -93 -60 -65 -136 -230 -144 -315
-7 -65 -6 -67 17 -73 13 -3 50 -5 82 -3 66 3 56 -8 138 162 18 39 45 86 59
105 l26 36 174 -8 c147 -6 497 -43 592 -63 24 -5 27 -10 27 -47 2 -228 146
-471 343 -581 213 -119 511 -109 717 25 189 122 320 334 320 520 0 30 4 59 8
65 15 22 159 37 290 30 70 -3 146 -9 170 -12 39 -6 42 -9 42 -38 0 -59 38
-212 65 -266 100 -200 272 -341 474 -389 270 -65 586 72 729 314 60 102 83
175 91 285 l6 95 60 7 c33 3 72 11 88 17 l27 11 0 110 c0 105 -1 111 -22 119
-64 24 -312 36 -748 36 -583 0 -708 -6 -798 -42 -62 -24 -78 -26 -201 -24 -94
1 -142 6 -162 16 -68 36 -336 55 -804 59 -209 2 -405 2 -435 0z m764 -183 l98
-6 -73 -80 c-41 -44 -116 -118 -167 -165 -87 -79 -296 -310 -336 -372 l-18
-27 -56 29 c-87 45 -98 56 -81 77 53 68 133 157 254 283 77 80 165 176 194
213 39 48 59 66 70 61 9 -4 60 -10 115 -13z m1961 -18 c-36 -56 -102 -131
-245 -278 -137 -142 -260 -278 -294 -326 l-15 -22 -67 39 c-37 21 -69 44 -71
51 -2 6 54 73 124 148 183 196 277 302 320 362 l38 52 114 1 113 0 -17 -27z"/>
<path d="M8104 7861 c-20 -12 -38 -36 -49 -64 -15 -40 -15 -47 -1 -82 20 -46
39 -62 89 -70 28 -5 37 -11 35 -23 -2 -9 -59 -51 -128 -94 -110 -68 -127 -76
-140 -63 -11 12 -12 18 -2 27 20 20 14 90 -11 121 -81 102 -259 -10 -217 -137
13 -41 31 -53 85 -60 48 -6 64 -21 44 -41 -8 -8 -55 -39 -104 -68 l-89 -52
-12 -85 c-7 -47 -15 -93 -19 -103 -4 -9 -37 -34 -74 -54 -36 -20 -174 -97
-306 -171 -352 -198 -478 -268 -695 -387 -107 -59 -240 -134 -295 -165 -153
-88 -301 -172 -515 -290 -265 -147 -342 -189 -434 -244 -70 -42 -81 -45 -89
-30 -26 46 -139 174 -192 217 -64 52 -160 102 -265 138 -49 17 -95 23 -190 27
-116 4 -132 2 -205 -23 -128 -42 -231 -98 -365 -197 -145 -107 -284 -191 -349
-212 -25 -8 -107 -22 -181 -31 -74 -9 -139 -20 -144 -25 -5 -5 -10 -40 -10
-77 l-1 -68 90 -3 c220 -7 409 64 640 239 260 198 332 231 490 231 158 0 282
-43 389 -134 57 -49 157 -168 151 -178 -5 -8 -107 -70 -197 -119 -31 -17 -111
-64 -179 -105 -114 -68 -126 -73 -144 -60 -47 34 -145 74 -216 88 -62 13 -96
14 -175 6 -154 -15 -228 -43 -334 -126 -134 -105 -223 -301 -205 -453 5 -36 8
-94 9 -129 1 -34 2 -62 4 -62 6 0 157 77 262 135 288 157 509 281 555 310 28
17 111 65 185 105 74 40 173 95 219 122 46 27 172 98 280 157 213 118 253 141
566 316 116 65 248 139 295 165 47 26 177 101 290 165 113 65 273 155 355 200
83 45 218 119 302 165 l152 84 6 49 c5 33 16 59 35 81 l28 31 109 0 c104 0
110 1 158 31 28 17 147 86 265 154 118 68 227 132 242 142 27 18 94 26 84 9
-7 -11 -168 -111 -271 -169 -39 -22 -113 -64 -165 -93 -53 -30 -111 -66 -129
-80 l-34 -27 23 -12 c19 -10 33 -6 104 31 44 23 158 88 252 144 173 104 214
124 214 106 0 -16 -64 -64 -152 -114 -111 -64 -289 -175 -310 -194 -14 -12
-15 -19 -7 -30 19 -22 40 -15 129 42 121 77 264 154 300 161 45 10 37 -11 -17
-42 -27 -15 -84 -47 -128 -72 -117 -66 -216 -134 -212 -146 8 -26 50 -12 167
55 147 85 274 145 268 127 -4 -13 -42 -37 -261 -169 l-117 -70 19 -27 c10 -15
28 -36 40 -46 21 -19 22 -19 94 14 40 18 108 45 152 60 97 33 268 114 285 135
23 28 32 16 25 -37 -6 -45 -3 -58 17 -87 13 -19 35 -38 50 -43 40 -14 103 8
143 48 30 29 35 42 35 80 0 57 -40 104 -89 104 -20 0 -31 5 -31 14 0 12 235
176 253 176 4 0 4 -27 0 -60 -6 -58 -5 -60 30 -95 40 -40 70 -44 125 -16 55
28 74 55 80 109 3 41 0 53 -20 76 -15 18 -34 29 -51 29 -17 0 -32 7 -38 18 -8
16 3 27 86 80 64 41 95 67 95 79 0 53 -117 320 -176 404 -68 95 -137 167 -198
208 l-61 40 -60 -33 c-33 -18 -76 -43 -95 -56 -19 -13 -40 -23 -47 -23 -15 0
-16 4 -17 78 -1 47 -5 57 -34 83 -39 35 -100 39 -148 10z m327 -346 c41 -22
53 -57 34 -101 -18 -45 -55 -60 -96 -38 -54 28 -63 82 -20 125 34 33 41 35 82
14z m-386 -250 c35 -34 34 -88 -1 -120 -34 -32 -64 -32 -94 0 -31 33 -31 87 1
121 29 31 63 31 94 -1z m554 -20 c16 -8 31 -22 35 -30 21 -55 -14 -115 -66
-115 -35 0 -78 40 -78 72 0 38 36 79 78 87 2 1 16 -6 31 -14z m-365 -276 c33
-26 34 -67 1 -103 -31 -33 -61 -33 -97 1 -33 32 -35 47 -8 91 24 39 63 43 104
11z m-3995 -1670 c124 -20 237 -76 217 -107 -12 -20 -63 -23 -107 -7 -81 29
-187 37 -254 20 -161 -42 -273 -182 -280 -349 -2 -34 -3 -64 -4 -68 -1 -3 -14
-11 -30 -16 -23 -8 -32 -7 -42 4 -18 22 -23 98 -9 167 34 173 160 303 340 351
68 18 88 19 169 5z"/>
<path d="M3165 7548 c-24 -73 -51 -187 -96 -398 -30 -144 -49 -346 -49 -532 0
-143 2 -168 15 -168 8 0 55 9 103 19 158 36 250 43 319 26 29 -7 46 -39 38
-74 -6 -28 -9 -29 -83 -35 -81 -7 -200 -27 -344 -57 -325 -68 -585 -297 -658
-579 -25 -94 -26 -247 -4 -333 59 -227 283 -467 537 -574 159 -67 239 -86 374
-87 102 -1 125 2 139 16 25 25 14 50 -89 205 -147 221 -202 368 -199 533 2
171 51 299 148 392 49 47 136 90 172 86 l27 -3 -38 -39 c-74 -75 -147 -180
-135 -191 2 -2 47 3 102 11 126 18 170 39 333 159 l132 97 -28 42 c-16 22 -45
74 -65 114 -106 210 -147 407 -148 706 0 131 3 171 18 216 13 38 24 55 35 54
13 -1 10 12 -17 72 -37 79 -64 178 -64 237 0 34 -2 37 -30 37 -16 0 -108 14
-205 30 -194 33 -234 36 -240 18z m-15 -1302 c0 -2 -46 -34 -102 -70 -189
-120 -308 -237 -377 -366 -87 -163 -94 -397 -18 -563 32 -71 21 -66 -32 13
-130 196 -127 450 10 655 89 133 278 271 434 316 62 18 85 22 85 15z"/>
<path d="M6964 7092 c-16 -21 -62 -67 -101 -102 -40 -35 -73 -64 -73 -66 0 -2
12 -20 26 -41 14 -21 28 -50 31 -65 l5 -26 32 18 c17 10 58 29 91 41 33 12 63
24 67 28 9 8 -27 230 -39 242 -7 7 -20 -2 -39 -29z"/>
<path d="M5328 7096 c-37 -13 -84 -34 -105 -47 -110 -66 -353 -255 -353 -275
0 -8 42 -57 93 -108 156 -158 315 -224 515 -214 92 5 106 9 274 76 216 88 348
148 348 159 0 22 -61 102 -106 139 -73 60 -251 187 -314 224 -77 46 -123 60
-210 65 -61 4 -88 0 -142 -19z m282 -176 c100 -50 283 -162 287 -176 3 -7 -29
-14 -93 -18 -53 -4 -107 -11 -120 -16 -15 -6 -26 -5 -30 1 -4 8 -9 7 -15 -2
-13 -21 -237 -16 -309 6 -30 9 -94 26 -142 38 -49 12 -88 26 -88 32 1 16 260
153 320 169 68 18 95 14 190 -34z"/>
<path d="M7189 6629 c-1 -2 -5 -119 -9 -259 -5 -150 -14 -293 -24 -348 -18
-106 -62 -210 -104 -242 l-27 -22 -3 64 c-2 34 -7 67 -11 71 -5 5 -73 -28
-152 -74 -79 -45 -163 -93 -187 -106 -34 -19 -40 -27 -33 -41 16 -31 31 -123
52 -339 13 -138 6 -742 -10 -833 -5 -30 -12 -73 -16 -95 -31 -193 -89 -374
-185 -570 -133 -274 -311 -492 -500 -611 -25 -15 -58 -40 -75 -55 -37 -34
-163 -101 -230 -124 -146 -48 -421 -71 -555 -45 -242 46 -465 171 -692 387
-43 40 -82 73 -87 73 -5 0 -18 -12 -29 -27 l-20 -27 45 -50 c50 -56 343 -480
391 -566 17 -30 43 -97 58 -147 17 -58 33 -95 43 -98 46 -13 212 -27 328 -26
303 2 589 79 835 226 217 130 281 195 383 390 78 149 193 313 288 412 66 70
86 100 132 197 101 216 176 498 205 771 6 61 14 275 17 478 3 202 8 368 12
368 39 9 72 5 86 -12 25 -27 38 -168 30 -336 -5 -120 -3 -143 9 -143 29 0 175
82 261 147 191 144 333 365 381 592 75 358 -134 834 -432 982 -51 26 -171 51
-175 38z"/>
<path d="M8785 6443 c-48 -98 -96 -190 -107 -205 l-19 -27 -52 24 c-62 29
-109 31 -157 7 -121 -60 -97 -234 38 -271 52 -15 127 4 168 43 31 29 216 325
229 367 4 10 12 19 18 19 20 0 317 -152 317 -162 0 -18 -131 -278 -140 -278
-5 0 -12 5 -16 11 -3 6 -26 20 -51 31 -66 29 -140 13 -186 -42 -54 -63 -27
-172 53 -213 27 -14 52 -17 107 -15 106 5 120 21 253 287 76 151 156 339 148
346 -2 2 -66 34 -143 71 -76 37 -186 94 -244 126 -57 32 -110 58 -116 58 -6 0
-51 -80 -100 -177z"/>
<path d="M6830 6419 c-270 -146 -555 -307 -1045 -589 -102 -58 -228 -128 -390
-217 -49 -27 -126 -70 -170 -95 -44 -25 -161 -91 -260 -146 -236 -131 -394
-221 -480 -272 -38 -23 -149 -84 -245 -137 -326 -177 -395 -216 -436 -244 -23
-16 -84 -51 -135 -78 -174 -92 -332 -186 -343 -204 -8 -12 -7 -20 1 -28 16
-16 119 37 563 292 91 52 224 127 295 166 72 39 177 97 235 129 58 32 139 76
180 99 41 22 129 73 195 112 66 39 201 116 300 171 99 54 295 163 435 242 140
78 305 170 365 203 61 33 142 79 180 102 161 97 623 357 867 489 83 44 118 75
118 103 0 7 -6 13 -12 13 -7 0 -105 -50 -218 -111z"/>
<path d="M6905 6339 c-71 -38 -157 -83 -190 -100 -33 -17 -85 -46 -115 -64
-144 -84 -305 -177 -400 -230 -58 -32 -125 -70 -150 -85 -25 -15 -139 -80
-255 -145 -115 -65 -254 -143 -307 -174 -132 -76 -206 -117 -383 -215 -147
-82 -241 -135 -440 -251 -55 -32 -190 -106 -300 -165 -110 -59 -258 -141 -330
-183 -204 -117 -262 -150 -385 -217 -129 -71 -256 -156 -264 -177 -15 -37 40
-16 231 88 115 61 226 124 248 139 22 15 90 53 150 85 61 32 172 93 248 137
76 43 198 110 270 149 173 93 285 157 432 245 66 39 165 95 220 124 55 29 174
97 265 150 210 123 297 172 440 250 63 35 180 101 260 148 80 46 174 100 210
120 36 19 137 76 225 127 88 50 216 123 285 160 166 91 180 101 180 131 0 13
-3 24 -7 23 -5 0 -66 -31 -138 -70z"/>
<path d="M6975 6261 c-109 -58 -216 -118 -340 -189 -71 -42 -173 -99 -225
-128 -52 -28 -147 -82 -210 -119 -63 -37 -198 -114 -300 -170 -193 -107 -226
-126 -425 -242 -66 -39 -187 -107 -270 -153 -82 -45 -181 -101 -220 -124 -199
-119 -364 -214 -520 -296 -55 -29 -161 -87 -235 -128 -74 -42 -148 -82 -165
-90 -16 -9 -55 -32 -85 -52 -53 -36 -131 -80 -348 -199 -110 -60 -193 -118
-200 -140 -7 -21 55 -4 118 34 30 18 78 45 105 60 160 87 255 141 290 165 22
15 117 68 210 117 94 50 197 105 230 123 97 52 365 204 565 320 102 59 268
155 370 212 102 58 264 150 360 205 96 55 254 144 350 198 96 54 227 128 290
165 149 87 480 273 593 334 87 47 157 99 157 117 0 16 -44 7 -95 -20z"/>
<path d="M6920 6124 c-57 -31 -172 -95 -255 -144 -153 -89 -661 -377 -905
-513 -74 -42 -182 -104 -240 -140 -58 -35 -168 -99 -245 -142 -77 -42 -210
-119 -295 -170 -154 -92 -411 -238 -545 -310 -331 -178 -379 -207 -362 -217 9
-5 51 -11 95 -15 140 -10 276 49 388 171 44 47 66 65 78 60 21 -8 20 -19 -9
-82 -33 -72 -110 -143 -201 -189 -68 -33 -87 -38 -168 -41 -112 -5 -166 8
-200 49 -38 45 -19 52 -386 -157 -80 -46 -166 -123 -122 -109 29 9 51 -10 105
-90 96 -141 188 -204 304 -210 131 -5 241 56 361 199 42 50 112 125 157 166
182 169 232 225 275 313 26 53 46 110 53 153 l11 69 70 35 c39 19 155 84 259
143 104 60 193 105 197 100 30 -34 39 -254 14 -350 -41 -159 -161 -296 -328
-374 -34 -16 -123 -45 -199 -64 -281 -73 -368 -137 -544 -400 -64 -96 -96
-136 -181 -234 l-54 -61 72 -35 72 -35 30 21 c39 28 119 130 212 271 127 192
213 254 456 327 374 113 566 290 630 578 30 135 23 256 -24 405 l-15 47 67 37
c37 20 85 49 107 64 22 14 69 42 105 62 36 19 151 84 255 143 105 59 240 135
300 168 61 33 187 105 280 160 94 56 211 123 260 150 50 28 113 65 141 82 l51
33 1 66 c0 45 -3 66 -11 66 -7 0 -59 -25 -117 -56z"/>
<path d="M8107 5563 c-4 -3 -7 -168 -7 -367 0 -280 -3 -357 -12 -348 -27 27
-127 9 -186 -35 -70 -52 -95 -167 -49 -233 35 -52 81 -72 152 -67 99 7 161 48
205 136 21 41 22 61 28 323 l5 279 23 -5 c51 -13 212 -95 248 -127 50 -43 66
-83 66 -159 0 -59 -2 -63 -48 -113 -90 -96 -102 -133 -59 -183 22 -26 25 -26
62 -13 130 47 220 228 194 392 -25 152 -97 233 -300 337 -93 48 -165 93 -209
132 -62 53 -96 69 -113 51z"/>
<path d="M2310 5105 c-49 -102 -78 -259 -79 -429 -2 -179 8 -247 64 -414 168
-503 551 -970 859 -1048 21 -5 25 -2 31 28 4 18 23 47 43 65 20 18 34 34 31
36 -2 2 -38 21 -79 41 -111 56 -221 139 -321 243 -200 210 -395 583 -443 849
-27 150 -7 411 39 508 l17 35 -41 59 c-44 65 -68 92 -81 92 -5 0 -23 -29 -40
-65z"/>
<path d="M2947 4676 c-8 -12 -33 -30 -56 -41 -23 -10 -41 -22 -41 -27 0 -4 17
-34 39 -66 21 -31 49 -77 61 -102 52 -102 288 -500 327 -549 l19 -23 74 37
c121 61 121 61 105 99 -58 138 -126 263 -279 515 -78 129 -79 130 -130 146
-28 9 -63 20 -78 25 -22 7 -29 5 -41 -14z m213 -267 c25 -47 75 -133 113 -191
70 -111 80 -141 47 -158 -25 -14 -37 1 -146 190 -21 36 -55 88 -76 116 -36 49
-45 83 -32 119 4 9 15 15 27 13 15 -2 35 -28 67 -89z"/>
<path d="M3421 4600 c-85 -35 -137 -67 -127 -77 5 -5 209 84 232 102 34 26 -6
16 -105 -25z"/>
<path d="M6820 3514 c-61 -22 -148 -84 -191 -136 -55 -68 -165 -231 -194 -290
-32 -63 -127 -209 -133 -203 -16 16 -117 -72 -179 -155 -53 -71 -64 -109 -64
-217 -1 -96 14 -153 57 -214 75 -109 287 -122 495 -30 99 44 174 89 409 241
91 59 226 140 300 180 241 130 290 162 324 210 26 38 31 54 31 106 0 78 -33
127 -98 145 -23 7 -46 16 -52 21 -5 5 -11 38 -12 74 -2 96 -32 151 -103 187
-48 25 -64 28 -125 24 -38 -2 -91 -12 -117 -23 l-48 -19 -31 38 c-17 20 -44
44 -61 53 -45 23 -154 28 -208 8z m166 -145 c21 -13 42 -40 59 -74 28 -61 26
-60 110 -10 36 22 65 30 110 33 59 4 63 3 100 -32 l38 -36 -6 -75 c-4 -41 -14
-91 -22 -111 -14 -34 -14 -36 3 -28 9 4 40 9 68 12 43 3 55 0 82 -23 39 -33
41 -67 6 -102 l-25 -25 -16 22 c-14 20 -21 22 -77 16 -33 -3 -78 -8 -98 -12
-50 -8 -50 10 -2 59 34 34 36 39 35 102 0 82 -17 110 -69 125 -50 13 -114 -6
-188 -54 -77 -52 -85 -49 -78 23 6 55 5 61 -19 85 -32 32 -68 33 -138 7 -95
-36 -288 -203 -392 -338 -102 -133 -199 -316 -230 -436 -9 -33 -18 -61 -21
-64 -7 -7 -26 43 -26 68 0 82 69 265 145 384 54 84 424 448 489 480 61 30 117
32 162 4z"/>
<path d="M3870 3475 c-19 -9 -52 -33 -73 -53 -41 -40 -31 -41 -145 9 -48 21
-56 22 -99 10 -100 -26 -157 -86 -177 -188 -12 -61 -19 -67 -84 -83 -90 -23
-133 -100 -113 -205 11 -61 45 -102 138 -165 43 -29 105 -74 138 -100 86 -67
383 -267 500 -337 181 -108 345 -165 471 -164 117 1 224 62 267 153 37 77 16
242 -47 373 -42 88 -226 371 -323 498 -76 99 -184 202 -241 231 -67 34 -162
43 -212 21z m213 -203 c83 -55 163 -143 279 -305 110 -153 173 -278 194 -380
15 -74 13 -167 -4 -167 -4 0 -13 30 -20 68 -15 81 -103 265 -193 402 -81 123
-242 286 -320 324 -78 37 -125 34 -156 -13 -14 -21 -23 -49 -23 -72 0 -46 -11
-48 -54 -12 -70 59 -177 89 -226 63 -42 -22 -54 -163 -20 -230 11 -22 20 -42
20 -45 0 -11 -52 -4 -82 11 -22 12 -49 15 -95 12 l-63 -4 -10 34 c-11 41 -2
62 33 81 22 11 32 11 73 -3 26 -9 49 -16 51 -16 2 0 3 36 3 80 0 112 25 163
90 188 36 14 109 -8 174 -51 l56 -37 14 28 c8 15 27 40 44 55 62 60 135 56
235 -11z"/>
<path d="M5850 2520 c-19 -13 -271 -94 -375 -120 -135 -35 -421 -36 -612 -3
-32 5 -33 4 -33 -29 0 -66 -29 -137 -75 -183 -71 -71 -255 -149 -331 -139 -10
1 -45 5 -76 8 -75 8 -195 53 -343 128 -281 143 -253 132 -293 120 -20 -6 -84
-18 -142 -27 -257 -39 -596 -120 -747 -179 -234 -91 -223 -207 26 -287 137
-44 541 -122 746 -143 28 -3 109 -13 180 -21 267 -31 314 -35 465 -40 85 -3
173 -8 195 -10 22 -3 101 -7 175 -10 693 -28 1011 -31 1365 -15 116 6 280 12
365 15 85 3 173 7 195 10 22 2 78 7 125 10 409 27 1057 129 1269 200 224 74
284 151 175 225 -151 105 -479 193 -964 261 -41 6 -79 15 -85 20 -21 20 -71 8
-130 -32 -159 -109 -422 -217 -548 -226 -231 -17 -444 156 -477 387 -13 94
-18 101 -50 80z"/>
</g>
</svg>
