<?xml version="1.0" standalone="no"?>
<!DOCTYPE svg PUBLIC "-//W3C//DTD SVG 20010904//EN"
 "http://www.w3.org/TR/2001/REC-SVG-20010904/DTD/svg10.dtd">
<svg version="1.0" xmlns="http://www.w3.org/2000/svg"
 width="1024.000000pt" height="1024.000000pt" viewBox="0 0 1024.000000 1024.000000"
 preserveAspectRatio="xMidYMid meet">
<metadata>
Created by potrace 1.16, written by Peter Selinger 2001-2019
</metadata>
<g transform="translate(0.000000,1024.000000) scale(0.100000,-0.100000)"
fill="#000000" stroke="none">
<path d="M3192 9833 c-49 -39 -402 -411 -587 -618 -339 -381 -606 -697 -778
-922 -46 -60 -48 -62 -78 -51 -18 6 -66 8 -115 5 -108 -6 -191 -48 -241 -121
-30 -44 -33 -55 -33 -121 0 -51 7 -90 21 -129 17 -44 19 -59 10 -70 -10 -12
-20 -11 -69 12 -51 24 -68 27 -162 26 -124 0 -188 -21 -286 -90 -141 -100
-287 -307 -343 -487 -50 -162 -49 -350 3 -479 l23 -56 -186 -279 c-102 -153
-228 -339 -279 -414 l-92 -136 0 -99 0 -99 33 39 33 39 75 -6 c52 -4 90 -14
129 -34 61 -32 70 -53 27 -64 -36 -10 -57 -27 -57 -48 0 -9 44 -57 97 -107
l98 -92 22 47 c12 25 22 56 22 69 1 24 7 24 59 4 10 -4 12 4 7 31 -7 34 1 48
105 209 62 95 129 199 149 231 90 146 219 350 276 437 34 52 70 113 80 135 10
22 20 42 21 43 6 9 53 -34 54 -48 0 -21 -47 -101 -188 -316 -68 -104 -180
-277 -249 -384 -69 -107 -151 -229 -182 -270 -31 -41 -63 -90 -72 -110 -9 -20
-36 -59 -60 -87 -24 -28 -56 -65 -71 -82 -26 -30 -31 -32 -70 -26 -79 12 -186
72 -260 146 -38 38 -71 69 -73 69 -3 0 -5 -31 -5 -68 l0 -69 63 -49 c83 -68
121 -89 190 -109 101 -29 184 -19 236 28 22 21 186 265 446 667 l110 169 195
-193 c428 -425 882 -768 1396 -1056 136 -76 532 -272 599 -295 28 -10 53 -21
57 -24 3 -3 -5 -60 -18 -126 -13 -66 -28 -160 -34 -210 -5 -49 -14 -91 -19
-93 -5 -2 -36 -20 -68 -41 l-58 -37 -80 48 c-159 94 -376 142 -545 118 l-89
-12 -48 41 c-118 99 -296 184 -467 223 -132 30 -338 30 -461 -1 -217 -54 -408
-190 -487 -345 -43 -83 -59 -158 -65 -286 -5 -106 -2 -139 15 -207 42 -166
128 -333 278 -537 118 -162 443 -488 605 -609 313 -233 617 -389 839 -431 213
-41 377 -7 502 103 62 55 121 145 148 226 12 36 25 65 29 65 4 0 20 -14 37
-31 16 -17 59 -56 96 -86 418 -335 959 -501 1511 -463 172 11 360 46 465 86
73 27 100 30 108 10 3 -7 -15 -65 -40 -128 -79 -199 -110 -382 -87 -518 23
-141 130 -290 256 -357 129 -67 244 -83 437 -59 547 69 1360 464 1782 866 227
216 320 406 319 650 0 132 -20 202 -86 302 -84 125 -266 265 -428 328 -164 63
-229 75 -409 75 -91 0 -188 -3 -216 -7 -68 -10 -269 -71 -372 -114 -115 -47
-127 -45 -101 23 6 15 23 76 38 136 l27 107 94 48 c51 26 102 59 113 74 24 32
35 142 39 378 3 200 5 195 -118 278 l-79 53 -1 111 c-2 137 -11 273 -25 374
-8 62 -8 79 3 85 7 5 84 38 170 74 162 67 342 126 437 143 l53 10 -6 -33 c-10
-50 20 -162 64 -241 49 -89 178 -256 273 -353 141 -145 259 -212 387 -219 68
-4 88 0 197 36 130 44 186 73 246 131 40 37 87 117 87 147 0 12 4 14 18 8 9
-5 60 -9 112 -8 79 0 110 6 185 31 50 17 107 34 127 37 53 10 185 79 240 126
57 49 139 169 166 243 48 128 64 296 41 423 -40 216 -251 454 -524 591 -150
75 -326 135 -515 173 -182 38 -530 45 -695 15 -209 -38 -315 -61 -390 -85 -49
-16 -110 -34 -135 -40 -105 -26 -417 -150 -572 -227 l-167 -83 -60 36 -61 36
43 31 c127 91 329 339 394 486 92 205 183 587 183 766 0 111 -16 160 -65 205
-15 14 -33 38 -42 53 -14 27 -13 30 22 69 47 52 65 95 65 158 0 43 3 50 20 50
11 0 38 7 61 17 36 14 48 14 93 3 310 -77 534 -173 761 -323 261 -174 420
-336 649 -664 32 -46 62 -85 67 -89 5 -3 33 15 62 39 28 24 86 69 127 99 41
31 114 91 161 134 116 107 359 352 359 363 0 21 -245 245 -390 356 -93 71
-279 186 -417 257 -146 76 -386 161 -565 199 -60 13 -108 27 -108 31 0 49 514
121 850 120 263 -1 677 -49 849 -98 29 -8 55 -13 58 -10 7 7 29 160 43 296 13
129 15 559 3 570 -17 15 -278 30 -503 30 -186 0 -260 -4 -355 -20 -549 -90
-1107 -310 -1556 -612 -48 -32 -90 -58 -95 -58 -5 0 -22 12 -39 27 l-29 26
122 118 c212 205 395 339 634 464 147 76 384 171 562 225 71 22 134 44 138 48
5 5 -25 40 -70 83 -95 88 -206 157 -537 331 -82 44 -165 88 -182 99 -19 12
-38 17 -45 13 -46 -27 -350 -262 -431 -332 -96 -83 -260 -261 -344 -372 -100
-133 -182 -283 -239 -432 -16 -43 -33 -76 -39 -75 -5 2 -34 33 -64 68 -193
231 -456 445 -686 559 -44 22 -91 49 -104 59 l-25 19 26 31 c37 44 83 170 102
280 9 52 14 96 12 98 -2 3 -15 -10 -28 -27 -44 -60 -133 -116 -267 -169 -71
-28 -139 -51 -151 -51 l-22 0 22 33 c60 90 105 231 116 364 l7 85 -89 -65
c-108 -77 -212 -135 -319 -176 -99 -37 -147 -46 -173 -32 -41 22 -329 -21
-476 -70 -73 -25 -233 -104 -319 -158 -34 -22 -114 -62 -177 -89 -278 -119
-456 -229 -646 -398 -135 -121 -328 -362 -377 -471 -14 -30 -31 -45 -80 -71
-81 -42 -191 -124 -214 -159 -17 -25 -18 -55 -16 -358 0 -181 6 -359 12 -395
10 -60 15 -69 64 -117 l54 -52 6 -203 5 -203 -37 -60 c-67 -107 -73 -158 -35
-309 8 -32 14 -65 12 -73 -6 -30 -302 384 -389 543 l-33 61 26 59 c47 105 61
268 33 377 -17 65 -55 146 -92 195 l-25 33 39 33 c117 101 112 287 -12 425
-23 25 -35 47 -31 56 3 8 48 82 99 163 278 436 312 494 585 967 53 93 170 328
196 398 14 34 48 116 77 182 77 178 77 218 1 158z m-145 -282 c-6 -17 -14 -28
-17 -26 -4 2 -64 -71 -133 -163 -141 -186 -253 -329 -403 -513 -55 -68 -143
-180 -195 -249 -52 -69 -141 -185 -197 -258 -56 -72 -109 -146 -117 -163 -15
-28 -18 -29 -33 -16 -9 9 -29 19 -44 22 -16 4 -28 13 -28 20 0 45 732 916
1054 1254 39 41 81 85 93 97 29 31 34 30 20 -5z m-45 -107 c-16 -33 -35 -75
-42 -94 -18 -46 -124 -236 -184 -328 -26 -41 -69 -114 -97 -163 -27 -50 -75
-129 -106 -177 -31 -48 -106 -166 -166 -262 -92 -147 -240 -373 -254 -389 -2
-3 -16 9 -32 27 -16 17 -41 34 -55 38 -14 3 -26 11 -26 18 1 16 291 412 436
595 33 42 75 99 94 126 19 28 82 113 140 190 58 77 117 158 130 180 13 22 52
83 86 135 34 52 70 112 80 132 10 21 19 36 21 34 3 -2 -9 -30 -25 -62z m4845
-156 c76 -39 156 -80 178 -91 102 -50 275 -153 275 -163 0 -6 -28 -21 -62 -33
-179 -63 -325 -120 -427 -168 -273 -128 -540 -320 -752 -542 -121 -128 -158
-156 -173 -133 -8 13 132 182 243 292 161 160 396 328 617 438 65 33 303 133
419 176 18 7 15 10 -20 29 -22 12 -65 39 -96 59 -30 21 -79 47 -109 57 -30 10
-60 27 -67 37 -7 10 -25 17 -42 16 -41 -1 -222 -99 -385 -209 -76 -52 -140
-92 -142 -90 -12 12 384 278 442 297 38 13 46 40 12 40 -59 0 -308 -174 -465
-324 -29 -27 -49 -54 -46 -60 3 -6 3 -8 -2 -4 -4 4 -27 -12 -52 -35 -24 -23
-48 -43 -53 -45 -11 -4 -215 -260 -259 -325 -18 -26 -57 -100 -88 -163 -30
-62 -57 -114 -60 -114 -2 0 -13 5 -25 11 -28 15 -21 44 46 181 132 274 414
602 702 816 185 137 207 150 231 136 12 -8 84 -46 160 -86z m-2497 63 c-47
-68 -156 -130 -350 -200 -63 -24 -154 -58 -203 -78 -61 -25 -95 -33 -114 -28
-35 8 -26 16 119 103 90 53 149 80 249 112 73 23 168 59 213 80 101 48 114 49
86 11z m-544 -120 c-9 -10 -47 -33 -84 -52 -37 -18 -84 -44 -105 -57 -22 -13
-89 -51 -150 -84 -62 -34 -139 -79 -171 -101 -33 -22 -132 -74 -220 -115 -277
-129 -410 -218 -591 -393 -82 -79 -119 -109 -145 -114 -19 -4 -79 -25 -133
-46 -53 -22 -100 -39 -103 -39 -21 0 219 263 321 353 157 136 475 327 630 377
22 7 76 37 121 66 176 116 456 221 598 223 47 1 48 0 32 -18z m834 -120 c-36
-68 -158 -122 -361 -160 -58 -11 -134 -31 -168 -46 -35 -14 -65 -24 -68 -22
-8 9 76 68 132 92 31 14 109 38 174 54 170 42 222 59 256 80 39 25 48 26 35 2z
m70 -264 c93 -45 261 -153 383 -245 97 -74 263 -226 237 -218 -193 60 -237 80
-340 156 -58 43 -134 97 -170 120 -91 59 -298 158 -361 172 l-53 12 69 23 c91
30 142 26 235 -20z m3637 -208 c71 -6 134 -16 141 -22 10 -8 12 -56 11 -201
-2 -199 -15 -425 -24 -435 -3 -3 -43 3 -88 13 -45 10 -154 29 -242 43 -143 23
-189 26 -440 26 -280 1 -401 -8 -655 -49 -119 -18 -304 -65 -391 -98 -37 -14
-91 -28 -120 -31 -30 -3 -72 -8 -94 -11 -35 -4 -38 -3 -25 10 23 22 152 71
349 131 270 82 450 115 706 130 55 3 139 8 186 11 127 7 414 -13 587 -42 84
-14 159 -23 166 -21 19 8 39 127 40 236 l1 95 -45 13 c-25 7 -106 20 -180 28
l-135 14 186 -5 c183 -5 216 -1 185 25 -7 6 -107 21 -222 32 -185 18 -226 19
-359 9 -184 -14 -463 -60 -576 -96 -322 -101 -622 -222 -957 -385 -112 -54
-208 -96 -214 -93 -31 20 127 123 407 264 419 212 839 354 1178 399 166 22
435 26 624 10z m-4003 -169 c14 -5 83 -16 153 -25 279 -34 518 -85 773 -165
162 -51 472 -177 496 -202 18 -18 36 -419 27 -603 -3 -80 -8 -145 -10 -145 -2
0 -31 14 -64 30 -237 120 -778 252 -1129 276 -52 3 -136 9 -187 12 l-91 7 41
69 41 69 111 -6 c218 -11 682 -98 920 -172 167 -52 295 -84 295 -74 0 17 -118
96 -230 152 -63 32 -106 56 -95 53 11 -3 45 -12 75 -20 30 -8 98 -30 150 -50
52 -20 96 -36 98 -36 1 0 2 6 2 14 0 29 -72 83 -213 160 -38 21 -67 39 -65 41
5 6 144 -38 206 -65 83 -36 82 -5 -1 43 -57 33 -112 51 -253 81 -65 15 -184
42 -264 60 -102 25 -219 43 -395 61 -343 35 -337 35 -332 48 12 37 398 -3 662
-68 99 -24 207 -53 240 -63 33 -11 130 -30 215 -42 85 -12 158 -24 163 -27 4
-2 7 3 7 11 0 10 -55 43 -151 91 -82 41 -146 75 -140 75 8 0 188 -46 300 -77
18 -4 23 -2 20 8 -12 41 -367 178 -644 248 -196 51 -577 111 -697 111 -11 0
-18 12 -23 42 -4 22 -18 52 -31 65 -25 25 -20 28 20 13z m-147 -35 c76 -55
111 -223 98 -464 -6 -114 -21 -187 -33 -153 -3 10 -8 8 -18 -5 -11 -14 -11
-10 1 19 15 38 21 133 7 124 -4 -2 -6 30 -5 72 1 54 -2 38 -11 -55 -10 -113
-16 -137 -38 -171 -22 -32 -36 -42 -85 -55 -33 -10 -95 -17 -141 -17 -96 0
-467 -25 -597 -41 -102 -12 -562 -86 -585 -95 -7 -3 -57 -13 -110 -24 -52 -10
-126 -28 -165 -40 -121 -37 -122 -37 -167 6 -40 38 -40 38 -19 7 12 -18 27
-35 33 -39 7 -4 6 -9 -2 -14 -9 -6 -6 -12 12 -24 27 -18 40 -16 268 35 237 53
375 78 535 99 88 11 171 22 185 25 51 10 350 35 470 40 69 3 176 8 238 10 61
3 112 3 112 1 0 -3 -19 -16 -42 -28 -37 -19 -66 -23 -198 -29 -85 -4 -245 -17
-355 -28 -110 -12 -264 -28 -342 -36 -122 -13 -417 -66 -658 -119 -38 -8 -91
-18 -117 -21 -46 -6 -49 -5 -99 42 -92 86 -118 156 -139 368 -12 128 -3 230
25 285 35 68 77 85 425 180 459 126 789 169 1267 166 206 -1 224 -2 250 -21z
m-3411 -306 c135 -41 246 -112 357 -227 82 -86 117 -155 117 -234 0 -50 -3
-59 -30 -82 -41 -34 -87 -42 -133 -22 -36 15 -37 16 -31 58 4 31 0 59 -15 98
-29 76 -27 90 8 56 39 -38 94 -151 88 -182 -5 -30 0 -30 30 -2 30 28 31 93 2
151 -12 23 -61 81 -108 128 -68 66 -106 94 -172 127 -130 65 -253 86 -333 57
-48 -17 -59 -35 -66 -100 l-5 -50 -22 35 c-29 45 -29 88 0 131 51 78 175 100
313 58z m1372 -61 c-6 -35 -15 -58 -23 -58 -32 0 -246 -117 -285 -155 -21 -21
-3 -19 86 10 121 39 138 32 40 -18 -83 -43 -144 -85 -145 -99 -2 -16 36 -7 98
22 35 17 66 29 68 27 2 -2 -27 -30 -64 -62 -78 -67 -106 -96 -98 -103 3 -3 13
1 22 10 19 15 105 52 216 91 l67 25 0 -27 c0 -23 -9 -31 -67 -60 -77 -38 -192
-113 -219 -142 -36 -40 -1 -39 101 0 143 56 159 58 82 12 -111 -66 -210 -151
-194 -167 3 -3 45 10 93 29 49 19 112 42 139 50 28 8 66 21 86 30 l37 15 42
-43 c24 -24 56 -49 72 -56 l30 -12 -30 -13 c-17 -7 -111 -40 -210 -73 -99 -33
-213 -76 -252 -96 -40 -20 -74 -34 -76 -32 -8 8 -23 369 -24 559 l0 186 53 35
c28 19 72 45 97 57 52 27 264 120 266 117 1 -1 -2 -28 -8 -59z m3799 -27 c11
-5 43 -35 71 -66 41 -44 53 -66 62 -111 29 -140 -39 -299 -143 -331 -35 -10
-37 -10 -37 11 0 14 17 36 44 59 59 49 89 126 84 213 -5 81 -39 133 -113 175
-50 28 -67 53 -49 71 6 7 52 -5 81 -21z m-5220 -202 c49 -18 83 -59 83 -99 0
-46 -15 -60 -63 -60 -49 0 -100 24 -132 62 -30 35 -30 35 -5 76 16 26 26 32
54 32 19 0 47 -5 63 -11z m5956 -70 c139 -17 418 -96 580 -165 101 -42 298
-155 442 -253 124 -84 171 -121 301 -236 50 -44 99 -85 110 -92 17 -11 9 -21
-101 -129 -150 -146 -289 -272 -335 -303 -19 -13 -49 -37 -65 -52 -17 -16 -35
-25 -40 -21 -6 4 -37 45 -70 92 -158 229 -345 419 -555 562 -208 143 -448 261
-629 309 -211 57 -273 85 -227 102 40 16 313 -48 471 -110 398 -157 777 -453
1020 -800 17 -24 37 -43 46 -43 32 0 95 58 307 283 l64 69 -102 96 c-235 221
-589 439 -855 525 -268 87 -354 106 -690 147 -249 30 -238 44 28 36 119 -4
254 -11 300 -17z m-6377 -45 c58 -17 254 -129 254 -146 0 -15 -31 -37 -53 -38
-10 0 -49 18 -85 40 -98 57 -146 72 -237 73 -61 1 -91 -4 -126 -20 -53 -24
-169 -128 -201 -181 -12 -21 -34 -52 -50 -70 -59 -69 -125 -239 -141 -364 l-7
-47 30 6 c36 7 37 2 6 -32 -13 -14 -32 -41 -41 -60 -9 -19 -20 -35 -25 -35
-17 0 -30 74 -30 170 0 217 94 435 254 588 132 127 280 165 452 116z m4233
-194 l65 0 47 -51 c56 -60 130 -195 165 -298 75 -221 46 -527 -72 -751 -19
-37 -45 -77 -57 -88 -47 -44 -515 -200 -603 -202 -7 0 -14 31 -17 75 -11 124
-48 178 -192 274 -146 97 -270 141 -458 160 -179 18 -362 -18 -496 -96 -95
-56 -210 -173 -251 -256 -27 -56 -34 -84 -39 -156 l-6 -88 -66 22 c-37 12 -85
36 -108 54 -100 79 -207 245 -259 403 -81 244 -65 560 35 696 37 50 51 46 200
-51 32 -21 96 -62 142 -90 l85 -51 -35 -14 c-86 -34 -132 -115 -133 -232 -1
-162 82 -280 196 -280 72 0 138 75 158 180 13 67 -2 165 -35 239 -22 46 -22
52 -7 46 164 -66 288 -89 445 -83 96 5 127 11 217 43 126 44 268 116 382 192
58 39 75 47 56 27 -31 -33 -65 -109 -74 -163 -9 -55 13 -178 42 -238 33 -68
112 -139 167 -151 84 -17 170 40 229 150 19 37 23 57 22 148 0 121 -9 148 -78
231 -57 69 -107 94 -171 86 -25 -4 -59 -14 -75 -22 -49 -26 -34 -8 33 36 34
23 100 70 147 104 173 128 295 205 315 200 11 -3 49 -5 84 -5z m-3506 -55 c78
-39 127 -83 161 -145 58 -106 70 -225 41 -393 -23 -131 -48 -201 -115 -319
-73 -129 -178 -242 -270 -288 -33 -16 -62 -30 -65 -30 -3 0 18 24 48 53 202
197 338 502 338 760 0 81 -3 97 -31 153 -32 66 -87 115 -160 145 -45 18 -226
18 -300 0 -76 -19 -167 -60 -174 -78 -21 -53 73 -180 167 -226 68 -33 178 -51
279 -45 91 5 92 -8 2 -42 -126 -47 -311 -8 -421 87 -18 15 -48 55 -68 87 -28
49 -35 70 -35 113 0 64 18 86 101 129 109 56 192 74 324 71 109 -2 125 -5 178
-32z m3126 31 c-2 -2 -38 -23 -79 -47 -41 -23 -113 -68 -160 -99 -106 -70
-301 -187 -326 -196 -17 -5 -16 -4 2 13 30 25 197 151 259 195 105 74 236 137
284 138 13 0 22 -2 20 -4z m1457 -221 c60 -26 62 -28 68 -72 3 -25 6 -80 6
-122 0 -88 -8 -104 -97 -200 l-60 -64 -5 227 c-6 235 -3 270 16 263 6 -3 39
-17 72 -32z m-2943 -66 c141 -83 210 -129 204 -135 -11 -11 -205 78 -325 150
-60 35 -80 51 -70 58 24 16 67 -1 191 -73z m1470 -60 c51 -26 67 -51 67 -100
0 -40 -6 -55 -31 -84 -28 -31 -36 -35 -81 -35 -41 0 -54 5 -78 29 -53 53 -52
111 5 168 35 35 77 43 118 22z m-2183 -21 c0 -2 5 -93 10 -203 6 -110 13 -216
16 -235 3 -19 19 -111 35 -204 15 -94 27 -171 25 -173 -5 -6 -95 69 -110 91
-8 13 -19 40 -25 62 -17 64 -40 288 -47 466 l-7 168 32 6 c17 4 34 11 37 15 5
8 34 13 34 7z m-2026 -177 c45 -22 117 -68 161 -101 44 -33 108 -74 142 -91
58 -29 67 -31 152 -28 131 6 165 36 177 158 7 66 17 73 69 49 36 -16 34 -76
-6 -157 -25 -51 -40 -67 -82 -91 -61 -35 -168 -55 -246 -46 -75 8 -190 67
-316 161 -55 41 -118 82 -140 90 -43 17 -87 69 -78 92 9 24 77 10 167 -36z
m5876 -64 c0 -117 -97 -557 -154 -696 -96 -238 -428 -552 -802 -762 -303 -169
-546 -260 -885 -328 -203 -41 -367 -55 -578 -48 -372 12 -615 82 -941 272
-137 80 -278 210 -386 355 -99 133 -265 502 -238 529 2 2 40 -32 85 -77 145
-147 401 -294 620 -357 66 -19 206 -51 312 -70 203 -38 223 -43 215 -50 -6 -6
-213 12 -293 26 -89 15 -341 84 -415 115 -36 14 -135 61 -222 104 -86 42 -154
72 -152 66 8 -20 164 -117 294 -183 117 -60 245 -106 420 -152 109 -28 397
-71 528 -78 82 -4 109 -9 96 -16 -45 -25 -451 14 -669 65 -122 28 -319 97
-439 152 -115 54 -110 39 16 -40 273 -173 642 -260 1108 -263 263 -2 403 18
764 109 162 40 225 48 99 12 -267 -77 -470 -122 -661 -147 -236 -30 -655 2
-925 71 -74 19 -276 93 -346 128 -63 30 -68 31 -52 12 17 -20 179 -102 291
-148 123 -50 426 -124 560 -137 293 -29 489 -23 708 20 57 11 105 19 107 17 8
-8 -262 -69 -345 -78 -170 -20 -427 -7 -640 30 -127 23 -416 94 -467 115 -18
8 -33 11 -33 6 0 -12 121 -68 195 -89 39 -11 117 -34 175 -51 222 -65 448
-100 659 -102 133 -1 98 -17 -42 -18 -186 -2 -365 21 -652 83 -38 8 -71 14
-72 12 -9 -9 225 -91 329 -115 214 -51 261 -56 478 -55 185 0 223 3 385 32 99
18 230 45 290 62 460 122 936 385 1213 670 93 95 110 123 50 82 -46 -31 -200
-111 -183 -94 6 5 46 36 90 68 84 61 229 195 247 229 11 19 10 19 -13 3 -44
-31 -170 -100 -175 -96 -2 3 13 17 33 31 75 52 223 220 223 253 0 9 -27 -6
-72 -40 -107 -79 -132 -87 -55 -16 90 82 203 213 188 218 -6 2 -40 -12 -76
-32 -36 -20 -65 -32 -65 -28 0 4 30 37 66 72 67 65 124 143 124 167 0 20 -12
15 -50 -20 -19 -18 -86 -66 -147 -106 -109 -71 -138 -94 -90 -71 16 8 14 5 -8
-15 -43 -37 -161 -114 -245 -160 -20 -11 -49 -29 -66 -41 -36 -26 -223 -124
-236 -124 -5 0 -37 -13 -71 -30 -108 -52 -514 -201 -597 -220 -30 -6 -84 -21
-119 -31 -35 -10 -79 -19 -98 -19 l-34 0 19 28 c11 15 28 47 39 72 l20 45 99
23 c428 101 1021 379 1360 638 90 69 222 200 254 252 22 36 26 39 38 25 6 -9
12 -39 12 -66z m-3055 28 c53 -52 16 -145 -56 -145 -49 0 -89 42 -89 94 0 54
22 76 77 76 33 0 50 -6 68 -25z m-2989 -107 c-69 -140 -114 -216 -164 -278
-27 -34 -59 -87 -71 -116 -13 -35 -39 -72 -73 -107 -29 -29 -66 -77 -82 -107
-16 -30 -48 -82 -71 -115 -23 -33 -61 -93 -84 -134 -50 -85 -73 -111 -101
-111 -37 0 -27 20 123 245 22 33 84 125 137 205 179 266 215 321 272 413 57
92 136 192 145 184 2 -3 -12 -38 -31 -79z m179 -120 c15 -12 34 -36 41 -54 27
-65 -19 -109 -107 -102 -37 3 -47 8 -66 37 -29 43 -32 115 -5 130 32 19 107
13 137 -11z m1322 -96 c17 -26 46 -72 64 -102 79 -130 268 -373 415 -531 33
-37 75 -95 93 -130 31 -62 31 -64 12 -67 -12 -2 -21 -10 -21 -18 0 -25 -12
-17 -118 81 -35 33 -77 71 -92 85 -53 49 -244 266 -298 340 -31 41 -86 114
-124 161 -37 48 -68 90 -68 94 0 9 94 135 100 135 3 0 19 -22 37 -48z m2264
-72 c160 -42 311 -121 383 -200 107 -119 44 -306 -161 -482 -174 -150 -327
-198 -484 -152 -78 23 -208 98 -309 179 -49 39 -114 90 -144 114 -75 59 -100
110 -86 179 31 163 195 305 423 367 81 22 287 19 378 -5z m-3736 -93 c40 -40
56 -101 33 -124 -22 -21 -92 -35 -121 -24 -57 22 -93 110 -63 156 14 21 24 25
67 25 44 0 55 -4 84 -33z m2059 -63 c89 -102 171 -161 342 -245 178 -87 312
-138 425 -164 42 -9 87 -24 101 -33 28 -19 167 -136 165 -138 -6 -6 -193 19
-279 37 -155 32 -245 63 -381 133 -215 110 -385 237 -417 311 -31 73 -37 155
-11 155 4 0 29 -25 55 -56z m-2237 -164 c64 -39 84 -132 33 -157 -14 -7 -46
-13 -72 -13 -45 0 -50 3 -78 42 -40 54 -39 115 0 135 36 18 80 16 117 -7z
m755 -9 c87 -4 160 -10 163 -13 6 -6 -63 -15 -160 -21 l-40 -2 150 -151 c227
-229 546 -495 855 -715 314 -224 682 -454 864 -540 l104 -48 -7 -33 c-4 -18
-9 -32 -11 -32 -3 1 -43 19 -90 40 -539 244 -1103 603 -1560 993 -243 207
-539 508 -524 533 4 6 24 8 53 3 25 -4 117 -10 203 -14z m-890 -238 c9 -8 24
-30 32 -48 37 -78 7 -118 -85 -113 -43 2 -55 8 -72 30 -25 33 -35 119 -16 135
30 24 110 22 141 -4z m7733 -99 c199 -21 361 -68 607 -174 129 -55 190 -95
284 -183 161 -151 206 -251 206 -457 1 -109 -3 -136 -26 -207 -33 -101 -90
-189 -159 -241 -58 -44 -97 -66 -97 -56 0 4 31 48 69 98 38 50 78 109 89 131
71 141 86 319 39 435 -73 177 -254 331 -452 385 -33 9 -114 19 -180 22 -112 5
-125 4 -195 -21 -48 -18 -120 -32 -201 -41 -131 -15 -222 -42 -309 -92 -79
-46 -160 -115 -207 -177 -89 -119 -193 -375 -193 -477 0 -86 158 -328 305
-467 131 -125 215 -152 365 -116 91 21 141 53 168 107 23 46 53 64 87 51 18
-7 13 -32 -15 -79 -43 -70 -105 -107 -244 -146 -204 -56 -340 11 -572 283
-136 159 -194 274 -194 385 0 163 129 435 269 566 86 81 354 195 621 265 98
26 240 55 263 54 9 0 17 2 17 6 0 4 -60 16 -134 26 -146 20 -314 23 -346 6
-11 -6 -117 -12 -257 -15 -197 -4 -239 -7 -246 -20 -4 -8 -15 -15 -23 -15 -8
0 -12 5 -9 10 3 6 -1 10 -9 10 -26 0 -121 -22 -129 -30 -5 -4 18 -2 52 5 33 7
63 10 66 7 8 -8 -111 -36 -260 -62 -241 -42 -581 -168 -959 -357 -81 -41 -150
-72 -152 -70 -7 7 108 117 160 151 71 47 367 194 501 248 326 133 792 252
1009 257 44 1 83 5 86 8 5 5 219 -4 305 -13z m-1934 -371 c6 -6 -2 -18 -23
-33 -53 -36 -184 -197 -250 -305 -59 -99 -288 -551 -360 -713 l-37 -83 -38 7
c-21 4 -40 8 -42 10 -12 11 225 520 327 701 98 175 149 247 249 353 l77 82 44
-5 c24 -3 48 -9 53 -14z m1983 -75 c42 -64 56 -204 35 -341 -26 -171 -62 -258
-144 -347 -32 -35 -55 -68 -53 -78 5 -28 75 -55 158 -60 91 -5 184 23 274 83
89 59 202 205 237 307 18 53 18 53 19 16 0 -58 -46 -190 -90 -255 -47 -71
-132 -153 -186 -181 -103 -52 -243 -67 -359 -37 -119 31 -268 153 -325 266
-57 110 -52 256 8 288 16 8 72 13 72 5 0 -1 -10 -19 -21 -39 -18 -29 -21 -48
-17 -105 3 -60 7 -73 33 -100 16 -17 46 -35 66 -42 53 -15 112 19 151 88 46
82 98 298 105 437 3 64 10 117 14 117 5 0 15 -10 23 -22z m-4740 -385 c11
-210 58 -548 96 -678 24 -83 25 -115 6 -115 -8 0 -21 -2 -28 -5 -33 -13 -122
389 -137 615 -4 63 -6 168 -3 232 l4 117 28 -14 c27 -14 27 -15 34 -152z
m1929 -129 c-81 -153 -167 -324 -190 -378 -24 -55 -48 -105 -54 -113 -6 -7
-27 -13 -46 -13 -31 0 -35 2 -30 23 9 39 155 347 255 537 l97 184 55 21 c30
12 56 21 57 20 2 -1 -63 -127 -144 -281z m-1645 132 c5 -6 16 -47 25 -91 33
-165 77 -345 117 -475 23 -74 44 -143 47 -152 4 -15 -1 -18 -35 -18 -39 0 -40
1 -52 48 -6 26 -22 79 -36 117 -31 93 -103 427 -111 520 -6 72 -5 74 15 68 12
-3 25 -10 30 -17z m1363 -339 c-38 -78 -85 -176 -104 -218 l-34 -76 -149 -6
c-181 -8 -247 -20 -296 -52 -45 -30 -52 -30 -86 -7 -15 10 -51 29 -81 41 -44
19 -65 22 -110 17 -81 -9 -161 -32 -193 -56 -15 -11 -29 -16 -31 -12 -18 30
-127 402 -127 430 0 9 10 33 23 52 13 19 36 68 52 108 27 69 31 73 54 69 15
-3 90 -14 168 -23 126 -16 161 -17 325 -6 100 7 192 14 203 16 11 2 42 7 68
10 84 11 248 46 281 60 l31 13 38 -109 37 -109 -69 -142z m2163 336 c-4 -16
-7 -29 -8 -30 -1 -1 -44 -13 -96 -27 -185 -49 -427 -134 -550 -193 -130 -62
-169 -84 -383 -222 -71 -46 -130 -81 -133 -78 -10 9 192 190 270 242 191 126
523 262 766 313 134 29 142 28 134 -5z m1757 -174 c-31 -121 -75 -204 -151
-279 -36 -36 -95 -81 -130 -100 -61 -33 -70 -35 -160 -34 -97 0 -162 16 -143
35 5 5 50 16 99 25 109 18 215 66 280 126 54 50 175 228 201 296 26 68 28 27
4 -69z m-5642 -445 c17 -94 31 -181 31 -192 0 -15 -12 -28 -37 -41 -45 -22
-103 -36 -103 -24 -1 4 14 115 32 246 23 165 35 230 40 210 4 -15 21 -105 37
-199z m3045 149 c23 -76 45 -436 27 -447 -8 -5 -103 34 -120 50 -6 5 -1 271 6
326 4 39 11 51 37 67 39 25 43 25 50 4z m-4652 -253 c219 -48 396 -150 622
-356 232 -211 454 -552 574 -880 77 -209 116 -519 81 -646 -61 -229 -255 -329
-529 -273 -178 36 -346 111 -560 247 -344 220 -636 497 -834 791 -185 274
-252 470 -229 663 18 142 43 196 132 284 79 78 148 119 267 159 133 44 309 49
476 11z m2583 -33 c50 -24 168 -145 220 -223 22 -33 80 -140 130 -239 93 -185
232 -437 348 -629 36 -60 64 -113 62 -117 -3 -3 -31 -17 -62 -29 -32 -13 -122
-54 -201 -91 -140 -67 -143 -68 -151 -46 -104 273 -155 429 -235 717 -19 69
-50 181 -70 249 -20 68 -35 126 -32 128 8 8 66 -95 95 -170 17 -43 47 -136 67
-205 64 -230 196 -618 218 -639 2 -3 24 7 48 21 36 21 139 64 211 90 21 7 27
-6 -60 136 -22 36 -111 202 -198 370 -87 168 -180 339 -207 382 -54 84 -175
206 -237 238 -51 26 -73 25 -41 -1 l25 -20 -30 14 c-16 8 -42 15 -57 15 -32
-1 -31 -6 36 -130 25 -47 46 -91 46 -98 0 -22 -89 70 -121 125 -21 37 -29 63
-29 101 l0 51 63 15 c70 17 104 14 162 -15z m1043 8 c177 -20 559 -96 700
-140 99 -30 198 -70 402 -162 30 -14 80 -43 112 -66 58 -40 59 -41 54 -81 -3
-23 -11 -123 -17 -223 -12 -170 -14 -184 -36 -205 l-23 -22 -28 26 c-98 92
-645 270 -1052 343 -116 20 -313 42 -510 55 -91 7 -174 13 -186 16 -17 3 -44
40 -44 61 0 10 332 -5 491 -22 387 -41 805 -141 1149 -276 145 -57 190 -68
190 -48 0 8 -6 21 -13 30 -18 24 -128 99 -144 99 -8 0 -12 4 -8 9 6 10 39 7
143 -14 34 -7 62 -9 62 -4 0 8 -119 110 -205 176 -47 36 -170 99 -273 138 -39
16 -70 30 -68 32 13 13 240 -83 429 -183 49 -25 90 -44 93 -42 2 3 -11 21 -28
41 -60 68 -341 200 -553 261 -364 104 -921 167 -1294 145 -142 -8 -168 -7
-188 6 -29 19 -23 30 20 44 96 32 569 35 825 6z m-1322 -212 c18 -46 52 -107
76 -138 24 -30 43 -59 43 -63 0 -16 32 -50 61 -65 17 -9 36 -22 43 -31 10 -12
8 -18 -13 -31 -25 -17 -27 -16 -89 23 -104 69 -178 173 -202 288 -14 67 -12
100 8 138 9 18 11 18 25 -10 9 -16 30 -66 48 -111z m-156 108 c0 -29 -18 -38
-140 -65 -164 -37 -315 -78 -465 -126 -71 -23 -143 -44 -160 -46 -35 -5 -60 8
-52 28 10 29 347 145 557 193 135 30 145 32 208 34 45 1 52 -2 52 -18z m1425
-17 c77 -8 181 -21 231 -29 94 -15 441 -96 484 -114 33 -13 11 -14 -26 -1 -78
27 -421 93 -604 117 -223 28 -474 35 -690 19 -81 -6 -112 -5 -105 3 13 13 269
27 440 23 72 -1 193 -9 270 -18z m-2656 -115 c166 -38 358 -155 517 -316 143
-145 211 -237 230 -315 10 -45 -11 -33 -59 35 -87 121 -324 317 -489 402 -47
25 -89 45 -92 45 -15 0 63 -60 121 -94 59 -35 84 -56 66 -56 -5 0 -18 7 -29
15 -39 27 -166 87 -254 119 -83 31 -138 67 -217 140 -18 16 -33 33 -33 37 0
22 114 16 239 -12z m1334 -240 l18 -26 -54 -79 c-83 -121 -163 -278 -217 -429
-28 -76 -50 -141 -50 -145 0 -4 12 -11 28 -15 15 -4 66 -25 115 -47 48 -23 89
-39 92 -37 2 3 11 49 19 104 35 233 172 565 233 565 17 0 19 4 -27 -96 -77
-167 -128 -353 -151 -549 -7 -60 -14 -112 -15 -114 -5 -6 -363 140 -374 154
-16 20 69 244 160 420 96 186 181 326 194 322 5 -2 18 -15 29 -28z m-150 2
c-10 -39 -41 -51 -240 -91 -111 -22 -208 -43 -216 -46 -9 -3 -23 6 -36 25
l-22 30 51 15 c28 8 99 24 158 36 307 59 313 59 305 31z m1182 -106 c249 -24
260 -25 426 -51 86 -13 160 -24 163 -24 4 0 4 -48 1 -107 -15 -300 -86 -512
-240 -724 -98 -134 -142 -178 -240 -244 -141 -94 -302 -153 -483 -175 -251
-31 -595 61 -797 213 -88 66 -198 188 -264 292 -30 47 -75 154 -68 161 1 2 45
-19 97 -46 105 -54 271 -121 340 -138 51 -12 100 -21 100 -17 0 2 7 63 15 137
20 174 39 270 81 400 64 199 111 278 163 278 25 0 29 -5 39 -52 46 -201 240
-787 272 -821 13 -15 478 200 535 247 l30 25 -26 48 c-14 26 -76 131 -137 232
-62 101 -135 228 -162 283 -60 115 -79 105 155 83z m-1275 -59 c0 -2 -46 -100
-102 -218 -56 -117 -111 -244 -123 -283 l-21 -69 -12 59 c-7 33 -19 94 -28
135 -9 41 -18 132 -21 201 l-6 126 124 22 c68 13 129 24 134 26 15 5 55 6 55
1z m2554 -235 c3 -4 26 -14 51 -21 30 -8 45 -18 45 -29 0 -26 -87 -358 -102
-388 -12 -25 -19 -28 -61 -27 -25 0 -50 3 -53 7 -9 8 5 76 58 295 39 160 48
186 62 163z m1036 -466 c41 -10 113 -34 160 -54 296 -128 445 -339 411 -583
-36 -256 -218 -480 -611 -750 -394 -271 -1017 -527 -1383 -570 -166 -19 -296
16 -414 111 -151 121 -166 378 -41 691 86 217 335 532 594 752 248 210 605
383 864 418 99 13 333 5 420 -15z m-1195 -54 c149 -31 174 -49 112 -79 -23
-11 -49 -10 -180 12 -83 14 -182 28 -220 32 -75 7 -95 20 -45 29 159 29 216
30 333 6z m-2653 -454 c253 -168 466 -259 768 -328 144 -33 147 -34 395 -33
215 0 268 4 380 23 165 30 387 92 481 136 41 18 74 30 74 26 0 -5 -24 -31 -53
-59 -91 -85 -248 -153 -482 -208 -95 -22 -141 -26 -330 -31 -195 -5 -235 -3
-350 17 -288 48 -409 85 -633 191 -210 100 -350 195 -518 351 l-61 58 -7 71
c-4 39 -10 77 -13 85 -3 8 48 -39 113 -103 84 -83 154 -141 236 -196z"/>
<path d="M5036 8339 c-36 -28 -35 -72 3 -110 16 -16 35 -29 41 -29 24 0 70 58
70 88 0 55 -69 87 -114 51z"/>
<path d="M4466 8295 c-45 -40 -44 -40 -110 -20 -197 60 -363 -46 -439 -277
-14 -42 -40 -102 -59 -135 -29 -49 -58 -114 -58 -131 0 -7 67 5 160 27 50 13
119 21 168 21 156 1 265 57 316 164 15 32 15 38 1 65 -18 36 -60 69 -134 106
-73 36 -123 31 -168 -19 -48 -52 -41 -115 17 -149 56 -34 122 -12 152 51 14
29 35 37 57 23 39 -25 -52 -141 -129 -161 -24 -7 -60 -9 -79 -6 -48 8 -103 55
-125 109 -17 40 -18 52 -7 86 15 50 53 96 110 133 56 35 127 37 219 6 l64 -21
65 65 c45 45 64 71 60 82 -10 25 -39 18 -81 -19z"/>
<path d="M5032 7957 c-31 -33 -29 -80 4 -106 36 -28 68 -26 93 5 27 35 27 65
-1 92 -37 33 -70 37 -96 9z"/>
<path d="M4865 6194 c-42 -36 -233 -127 -333 -158 -112 -35 -240 -55 -399 -63
-152 -7 -150 -4 -43 -84 91 -70 194 -119 263 -126 57 -6 147 11 147 28 0 5 5
9 11 9 23 0 134 75 195 133 59 55 146 172 188 255 20 38 11 40 -29 6z"/>
<path d="M1485 3693 c-16 -2 -53 -10 -81 -18 -85 -24 -164 -125 -164 -210 0
-38 30 -136 65 -211 36 -80 125 -208 202 -294 57 -63 257 -248 305 -280 l33
-23 -35 38 -35 39 50 -40 c90 -71 159 -119 240 -168 44 -26 94 -59 110 -73 39
-33 -131 55 -195 101 -60 43 -82 54 -45 22 88 -76 444 -264 536 -285 257 -57
389 14 389 209 0 86 -15 144 -64 253 -99 217 -282 448 -485 611 -205 166 -416
276 -601 315 -56 12 -185 20 -225 14z"/>
<path d="M7095 2316 c-243 -40 -439 -115 -685 -264 -344 -209 -599 -476 -641
-672 -33 -152 79 -283 240 -283 132 1 387 65 588 147 386 158 665 315 830 465
59 54 118 112 131 127 32 39 78 130 91 182 51 186 -249 348 -554 298z m95
-690 c0 -8 -114 -92 -176 -129 -164 -99 -411 -204 -614 -263 -113 -32 -136
-27 -38 8 321 118 632 260 770 353 54 36 58 38 58 31z"/>
<path d="M9401 6064 c86 -89 148 -180 219 -322 79 -156 159 -424 161 -536 1
-33 4 -86 8 -116 5 -44 8 -25 14 102 17 376 -50 594 -243 787 -53 53 -103 89
-185 136 l-50 29 76 -80z"/>
<path d="M9364 5829 c115 -178 220 -397 261 -547 29 -108 31 -92 5 39 -46 224
-154 436 -285 559 -36 34 -35 32 19 -51z"/>
<path d="M0 5602 c0 -51 0 -51 24 -40 31 14 56 4 56 -22 0 -51 186 -173 284
-186 77 -11 61 24 -75 162 -93 96 -138 121 -231 131 l-58 6 0 -51z"/>
<path d="M775 4811 c-114 -66 -188 -156 -230 -279 -20 -60 -27 -93 -40 -214
-5 -38 14 -230 29 -303 l13 -60 0 125 c0 139 18 243 65 385 35 107 61 154 142
259 105 135 105 135 21 87z"/>
<path d="M270 4393 c0 -6 7 -50 15 -99 22 -123 59 -245 101 -334 38 -81 135
-243 141 -236 2 2 -21 50 -51 107 -60 114 -128 296 -171 459 -26 99 -35 127
-35 103z"/>
<path d="M1490 2284 c219 -220 419 -366 700 -512 85 -44 201 -99 257 -121 207
-82 430 -121 598 -105 l90 9 -160 53 c-504 166 -1046 432 -1405 690 -64 46
-181 112 -199 112 -3 0 50 -57 119 -126z"/>
<path d="M8130 1723 c-330 -300 -642 -512 -1140 -773 -171 -89 -169 -90 55
-35 298 74 564 206 786 391 165 138 328 332 384 459 14 30 24 55 22 55 -1 -1
-49 -44 -107 -97z"/>
<path d="M3935 599 c-377 -12 -545 -23 -1005 -65 -634 -57 -990 -121 -990
-178 0 -53 175 -102 535 -151 223 -30 449 -54 560 -60 61 -3 187 -12 280 -20
94 -8 265 -17 380 -21 116 -3 226 -8 245 -10 119 -11 1292 -15 1555 -5 165 6
368 14 450 17 139 5 251 11 625 34 187 12 562 46 715 66 308 39 505 98 505
149 0 47 -265 108 -605 139 -93 9 -217 21 -275 26 -271 26 -440 40 -610 50
-102 6 -221 12 -265 15 -367 22 -1607 31 -2100 14z"/>
</g>
</svg>
