<?xml version="1.0" standalone="no"?>
<!DOCTYPE svg PUBLIC "-//W3C//DTD SVG 20010904//EN"
 "http://www.w3.org/TR/2001/REC-SVG-20010904/DTD/svg10.dtd">
<svg version="1.0" xmlns="http://www.w3.org/2000/svg"
 width="1024.000000pt" height="1024.000000pt" viewBox="0 0 1024.000000 1024.000000"
 preserveAspectRatio="xMidYMid meet">
<metadata>
Created by potrace 1.16, written by Peter Selinger 2001-2019
</metadata>
<g transform="translate(0.000000,1024.000000) scale(0.100000,-0.100000)"
fill="#000000" stroke="none">
<path d="M8257 9549 l-28 -11 46 -30 c52 -34 105 -93 143 -158 24 -39 27 -56
27 -130 0 -68 -5 -93 -22 -125 -30 -57 -94 -113 -188 -164 -263 -144 -353
-266 -371 -506 -11 -143 38 -281 139 -391 39 -43 46 -57 39 -71 -19 -35 -71
-270 -87 -386 -10 -82 -16 -217 -17 -435 -1 -174 -2 -373 -2 -442 -1 -168 10
-383 29 -564 9 -82 12 -152 8 -157 -4 -4 -53 -24 -108 -44 -253 -94 -549 -243
-770 -386 -98 -64 -264 -198 -370 -299 -49 -47 -108 -101 -130 -119 -22 -18
-98 -90 -170 -160 -133 -129 -200 -190 -176 -158 11 14 11 17 -1 17 -26 0
-108 -32 -108 -42 0 -5 12 -25 26 -44 l27 -34 -51 -83 c-90 -147 -184 -372
-211 -502 -34 -172 -22 -300 41 -427 94 -188 278 -316 524 -364 98 -20 324
-24 544 -11 69 4 120 4 114 0 -18 -13 -65 -93 -60 -102 3 -5 -16 -18 -43 -29
-48 -20 -49 -20 -43 0 4 19 1 19 -69 11 -125 -14 -398 -8 -446 10 -32 12 -44
13 -51 4 -6 -7 -17 -55 -26 -107 -22 -127 -37 -172 -112 -325 -146 -300 -346
-501 -655 -660 -370 -189 -810 -198 -1167 -24 -169 83 -275 159 -402 288 -182
183 -302 388 -351 596 -6 28 -27 103 -45 168 -43 151 -59 310 -51 517 15 384
91 670 278 1042 27 54 45 98 39 98 -26 0 -317 134 -408 189 -57 33 -107 61
-110 61 -14 0 -61 -119 -137 -346 -102 -307 -173 -638 -204 -959 -31 -309 2
-661 95 -1030 26 -101 125 -367 171 -460 14 -27 22 -47 18 -43 -4 4 -14 0 -22
-8 -8 -8 -20 -11 -26 -8 -8 5 -8 2 0 -7 7 -7 13 -20 13 -28 -1 -42 -114 143
-179 292 -100 230 -178 526 -206 787 -3 30 -8 161 -11 290 -8 297 2 398 78
790 40 207 109 427 227 722 28 70 51 137 51 148 0 12 -11 31 -24 43 -14 12
-33 38 -44 57 -20 38 -61 63 -177 106 -128 48 -269 121 -395 205 -100 66 -155
113 -275 233 -255 256 -328 391 -357 656 -6 58 -15 109 -20 114 -12 15 -82
-65 -96 -110 -7 -21 -18 -103 -24 -182 -11 -134 -10 -150 10 -235 11 -51 28
-132 37 -182 9 -49 34 -162 55 -250 22 -88 67 -293 100 -455 34 -162 79 -380
101 -485 47 -223 89 -497 89 -576 0 -43 -5 -60 -20 -74 -17 -15 -23 -16 -50
-5 -37 15 -62 57 -123 200 -24 58 -74 170 -110 250 -78 175 -217 503 -262 620
-18 47 -50 123 -70 170 -20 47 -61 144 -91 215 -30 72 -68 149 -84 173 -27 38
-28 43 -13 49 39 14 132 84 160 120 57 72 77 122 77 198 1 86 -30 161 -98 233
-70 75 -217 142 -310 142 -24 0 -26 3 -26 48 0 109 -76 290 -159 377 -80 85
-79 81 -19 99 29 8 55 12 58 8 94 -124 159 -262 192 -405 11 -50 26 -97 32
-103 6 -6 31 -16 56 -23 74 -21 206 -97 238 -139 45 -57 59 -91 77 -185 30
-161 -12 -265 -146 -358 l-23 -16 28 -69 c83 -204 188 -472 221 -564 48 -135
209 -534 270 -670 26 -58 58 -134 72 -170 26 -69 62 -134 70 -126 11 11 -61
420 -111 631 -19 77 -59 250 -91 385 -31 135 -81 346 -111 470 -29 124 -60
270 -69 325 -9 55 -25 138 -36 185 -36 153 -20 344 38 451 32 59 84 104 153
130 82 31 80 34 80 -92 0 -125 19 -224 60 -314 101 -223 340 -473 606 -633
125 -75 289 -150 361 -164 58 -12 71 -24 148 -141 61 -92 264 -237 495 -351
189 -94 497 -208 675 -249 33 -8 59 -18 58 -23 -1 -5 -11 -74 -23 -154 -11
-80 -34 -224 -50 -320 -42 -255 -51 -349 -51 -526 0 -177 20 -323 50 -364 34
-46 83 -27 271 108 83 60 300 192 316 192 5 0 138 -102 180 -139 23 -20 71
-70 106 -111 71 -82 158 -140 175 -117 31 38 71 160 104 317 43 199 34 481
-30 910 -16 107 -26 198 -23 201 4 3 57 14 117 24 196 31 456 121 687 236 238
119 311 168 454 306 141 135 181 248 171 482 -5 132 -28 232 -69 299 l-20 33
50 107 c114 241 162 443 162 674 0 371 -90 671 -298 988 -126 192 -275 342
-473 477 -53 36 -102 76 -108 90 -6 13 -11 44 -11 69 0 43 4 49 73 117 121
119 172 232 171 383 0 85 -2 97 -36 165 -95 192 -255 275 -553 286 -347 13
-799 -63 -1287 -217 -86 -28 -159 -50 -162 -50 -3 0 -6 8 -6 18 0 45 -33 122
-70 164 -68 78 -166 108 -265 83 -185 -49 -271 -228 -194 -404 10 -24 19 -50
19 -57 0 -7 -58 -42 -129 -78 -318 -159 -628 -368 -892 -602 -364 -323 -515
-558 -511 -798 1 -98 32 -168 104 -238 107 -104 353 -142 485 -75 58 30 78 33
90 15 4 -7 11 -125 14 -263 4 -179 11 -273 23 -330 25 -114 89 -304 142 -414
l45 -95 -31 -61 c-41 -81 -60 -178 -60 -312 0 -101 -2 -113 -17 -113 -48 1
-274 120 -413 219 -116 82 -241 202 -318 306 -142 193 -175 297 -171 529 3
137 3 139 -21 155 -16 11 -47 16 -99 16 -66 -1 -85 -5 -143 -34 -37 -18 -95
-58 -129 -87 -71 -61 -79 -60 -103 14 -32 96 -37 150 -24 265 12 109 13 110
43 123 17 7 43 25 59 40 36 37 33 62 -27 264 -25 85 -55 201 -67 257 -25 128
-36 153 -70 160 -27 5 -27 7 -33 96 -17 264 -175 632 -351 815 -109 114 -246
197 -348 209 -79 10 -85 1 -37 -59 57 -72 71 -111 72 -193 0 -122 -49 -190
-218 -301 -164 -108 -238 -207 -271 -364 -27 -129 -3 -312 56 -431 l31 -60
-26 -30 c-14 -17 -25 -34 -25 -38 0 -13 47 -144 78 -216 16 -38 54 -143 83
-233 30 -90 63 -173 73 -184 17 -19 27 -20 100 -14 l81 7 67 -68 c72 -73 111
-141 147 -257 29 -95 28 -110 -12 -124 -54 -20 -145 -98 -177 -154 -46 -80
-62 -148 -62 -257 0 -229 128 -479 383 -745 93 -97 266 -238 311 -251 47 -15
70 -48 128 -185 224 -530 337 -770 396 -839 95 -110 243 -108 299 4 17 34 20
59 19 155 -1 129 -9 177 -138 825 -47 231 -94 481 -106 555 -12 74 -25 155
-30 180 -5 25 -7 46 -6 48 2 1 16 -26 31 -60 29 -65 116 -403 159 -619 14 -68
38 -180 54 -249 17 -69 40 -187 51 -263 11 -75 25 -146 31 -157 13 -23 184
-81 315 -105 50 -9 91 -18 93 -20 1 -1 -9 -58 -23 -127 -74 -367 -74 -830 0
-1173 72 -339 203 -668 364 -920 72 -113 179 -252 213 -276 l30 -22 -134 -27
c-163 -33 -216 -50 -335 -106 -77 -37 -108 -59 -182 -132 -95 -93 -122 -137
-147 -234 -27 -106 -11 -171 68 -275 70 -92 145 -129 395 -193 108 -28 201
-45 293 -53 l135 -13 -89 -14 c-78 -12 -99 -12 -185 3 -403 68 -424 72 -507
115 -53 27 -137 104 -165 150 -12 20 -23 38 -25 40 -5 8 -318 -50 -399 -73
-167 -48 -214 -86 -169 -136 63 -70 576 -167 1134 -214 36 -3 90 -8 120 -11
148 -13 1005 -36 1585 -41 772 -7 1937 17 2085 42 14 2 113 13 221 24 383 39
795 118 901 172 47 24 67 61 48 84 -21 25 -81 52 -161 74 -63 17 -114 26 -299
56 -14 3 -50 7 -81 11 l-56 6 -24 -47 c-45 -89 -133 -152 -262 -185 -302 -76
-675 -83 -877 -15 l-45 15 45 -6 c25 -3 77 -9 116 -14 167 -21 327 -23 430 -6
54 10 117 26 139 37 22 10 60 24 85 30 226 56 373 232 341 410 -18 103 -52
163 -149 259 -77 78 -100 94 -202 143 -116 56 -238 96 -363 117 l-68 12 62 62
c82 80 213 281 300 459 140 287 265 764 219 837 -8 13 4 16 83 21 77 5 117 15
252 63 188 67 311 132 418 221 42 36 80 65 85 65 4 0 16 -33 26 -72 32 -128
80 -203 145 -233 35 -15 47 -16 80 -7 59 18 115 85 140 168 41 134 114 467
125 569 5 45 11 55 62 104 32 30 110 95 173 146 261 207 554 571 640 794 62
160 76 233 76 396 0 117 -4 163 -19 210 -56 186 -172 317 -361 410 -113 55
-191 79 -328 101 -102 16 -108 18 -103 38 3 12 8 46 11 76 3 30 14 141 24 245
11 105 22 282 26 395 3 113 10 273 16 355 22 294 2 532 -59 692 l-19 49 62 32
c157 82 297 249 363 434 23 66 26 87 26 228 1 138 -2 163 -23 225 -89 260
-289 484 -548 614 -113 56 -296 92 -356 70z m-4121 -224 c18 -14 18 -14 -11
-15 -76 0 -145 -71 -145 -147 0 -50 -18 -55 -32 -11 -11 33 5 96 34 133 39 49
115 69 154 40z m1864 -26 c137 -35 214 -106 245 -227 38 -146 -32 -302 -180
-402 -40 -27 -75 -54 -77 -60 -2 -6 -66 -21 -143 -34 -480 -82 -1109 -300
-1773 -614 -239 -114 -619 -311 -762 -397 -129 -77 -298 -159 -395 -191 -145
-48 -305 -29 -376 46 -118 124 -42 348 208 610 323 340 899 735 1336 917 165
69 580 206 690 228 45 9 141 32 212 50 365 93 811 125 1015 74z m2710 -91
c109 -106 190 -297 190 -452 1 -61 2 -69 14 -53 7 9 20 17 28 17 10 0 20 24
32 81 10 48 21 78 26 73 16 -16 40 -153 40 -229 0 -41 -5 -98 -11 -127 -14
-67 -67 -182 -106 -230 -73 -90 -299 -258 -348 -258 -14 0 -12 6 10 31 33 40
24 51 -13 16 -34 -32 -72 -47 -122 -47 -50 0 -84 39 -100 116 -21 101 4 179
94 298 29 39 59 81 65 94 11 21 11 22 -16 16 -36 -8 -183 -89 -226 -125 -78
-64 -115 -210 -82 -320 10 -32 15 -62 11 -67 -5 -4 -26 13 -48 38 -104 116
-144 215 -135 335 13 173 87 264 320 395 116 66 189 136 234 227 32 65 37 86
41 164 5 104 3 104 102 7z m-7573 -483 c102 -116 230 -335 287 -493 25 -69 61
-231 68 -300 3 -31 0 -35 -33 -46 l-36 -13 -12 83 c-12 83 -44 193 -76 254
l-18 35 -12 -42 c-7 -23 -28 -73 -48 -110 -44 -87 -52 -134 -32 -198 19 -63
19 -85 0 -85 -42 0 -68 137 -40 210 62 162 80 316 49 421 -18 61 -70 153 -107
187 l-24 23 -7 -53 c-15 -112 -74 -190 -241 -314 -187 -137 -210 -177 -203
-353 4 -115 9 -134 64 -258 3 -6 -8 -14 -27 -18 -27 -6 -35 -3 -50 16 -79 102
-91 339 -24 475 31 64 76 108 193 191 177 126 256 244 256 381 0 39 4 72 8 72
3 0 33 -29 65 -65z m4935 -362 c8 -10 18 -25 21 -34 3 -9 43 -42 89 -74 300
-209 504 -462 623 -774 42 -113 60 -194 81 -376 17 -157 14 -359 -7 -380 -7
-7 -8 -4 -3 9 4 11 2 21 -7 27 -22 13 -29 11 -38 -13 -6 -15 -10 28 -10 123
-1 277 -50 483 -165 706 -153 293 -341 483 -637 642 l-77 42 -208 -50 c-240
-57 -659 -192 -914 -293 -146 -58 -442 -187 -474 -206 -5 -3 4 -12 20 -20 48
-25 136 -96 191 -155 70 -74 126 -163 162 -257 40 -103 47 -138 66 -320 l16
-153 -33 -34 c-58 -60 -145 -111 -250 -145 -120 -39 -138 -57 -119 -119 7 -22
36 -68 67 -102 30 -34 87 -103 128 -152 218 -268 403 -341 611 -241 107 50
155 87 232 180 37 45 100 116 140 158 70 75 123 159 123 196 0 31 -32 51 -131
83 -111 36 -192 78 -250 127 l-41 36 7 105 c19 299 87 477 243 643 271 287
637 281 888 -13 132 -155 205 -365 220 -626 14 -253 -37 -436 -199 -718 -48
-84 -112 -161 -261 -315 -105 -109 -115 -117 -191 -147 -97 -37 -337 -105
-458 -130 -78 -15 -91 -16 -112 -3 -96 61 -125 76 -184 98 -45 16 -97 26 -163
29 -151 9 -269 -21 -388 -98 l-63 -40 -116 26 c-145 34 -323 87 -393 118 -70
31 -268 212 -346 315 -120 160 -246 407 -283 556 -27 106 -34 357 -14 466 17
93 42 202 55 234 9 24 5 23 -73 -20 -45 -25 -96 -52 -114 -61 -29 -15 -33 -23
-44 -87 -14 -79 -17 -308 -6 -402 27 -223 120 -468 248 -656 21 -32 39 -61 39
-65 0 -12 -110 99 -154 157 -111 143 -190 344 -222 560 -10 66 -16 181 -17
307 -1 189 0 205 19 230 58 78 787 454 1254 646 223 91 508 203 630 245 509
179 942 273 992 215z m-5155 -400 c0 -73 4 -99 26 -152 15 -35 26 -65 24 -66
-1 -2 -16 -10 -33 -18 l-32 -16 -17 45 c-20 52 -30 148 -21 196 5 29 40 98 49
98 2 0 4 -39 4 -87z m7691 -98 c1 -1 13 -44 26 -96 42 -165 51 -467 21 -690
l-6 -45 -285 -3 -284 -2 0 200 c0 162 5 231 25 368 14 92 32 193 41 225 l17
58 221 -7 c121 -3 222 -7 224 -8z m-7027 -132 c5 -14 6 -30 2 -33 -4 -4 -84
-29 -178 -55 -297 -83 -366 -103 -558 -164 -175 -55 -188 -58 -197 -41 -17 31
-11 49 19 64 15 8 129 45 252 82 648 194 642 193 660 147z m43 -230 c10 -32
28 -90 42 -130 13 -39 24 -78 24 -86 0 -10 -44 -26 -147 -55 -82 -22 -164 -44
-183 -48 -19 -3 -91 -28 -160 -54 -211 -79 -357 -130 -373 -130 -10 0 -28 40
-56 130 -64 202 -69 180 46 214 54 15 152 46 218 68 180 59 552 159 566 152 3
-2 14 -29 23 -61z m-63 -478 c-5 -136 50 -342 110 -406 34 -36 34 -38 13 -109
l-16 -55 -20 25 c-32 40 -86 154 -118 248 -41 124 -55 224 -44 303 8 60 11 64
39 70 17 4 32 7 35 8 3 0 3 -37 1 -84z m6638 -262 c1 -71 2 -144 2 -163 1 -19
3 -64 6 -100 4 -49 8 -60 14 -45 7 14 8 9 4 -17 -4 -23 -2 -38 4 -38 7 0 7 -8
1 -25 -6 -16 -6 -50 -1 -88 5 -34 7 -65 4 -70 -7 -12 39 -137 50 -137 7 0 7
-3 1 -9 -14 -12 -134 -43 -148 -38 -14 6 -19 50 -41 382 -19 270 -20 462 -2
468 6 3 33 6 58 6 l46 1 2 -127z m114 120 c-7 -2 -19 -2 -25 0 -7 3 -2 5 12 5
14 0 19 -2 13 -5z m330 -133 c-2 -123 -37 -563 -48 -617 -4 -17 -13 -23 -31
-23 l-26 0 6 78 c9 100 24 278 35 417 5 61 10 146 11 190 1 80 9 98 40 92 13
-2 15 -24 13 -137z m-263 105 c0 -15 -2 -17 -9 -6 -5 7 -15 17 -22 22 -10 6
-7 8 9 6 15 -1 22 -8 22 -22z m24 -77 c-4 -57 -8 -105 -10 -107 -2 -2 -4 44
-4 102 0 68 4 107 10 107 7 0 9 -34 4 -102z m-3278 -44 c27 -14 82 -52 121
-85 94 -77 157 -115 216 -130 26 -7 47 -17 47 -21 0 -28 -216 -110 -381 -144
l-87 -18 -143 36 c-135 34 -320 105 -327 126 -1 5 19 17 45 27 59 22 127 62
215 127 152 112 208 128 294 82z m1749 -74 c-4 -23 -9 -39 -11 -37 -3 2 -2 23
2 46 4 23 9 40 11 37 3 -3 2 -23 -2 -46z m-30 -120 c-24 -78 -31 -71 -9 9 10
33 20 59 22 56 3 -3 -3 -32 -13 -65z m-5452 -284 c100 -44 179 -159 162 -236
-9 -40 -60 -106 -110 -140 -44 -31 -177 -80 -215 -80 -37 0 -6 26 53 46 118
38 198 99 213 160 10 40 -19 90 -73 124 -123 78 -199 78 -275 0 -37 -39 -48
-59 -58 -104 -20 -98 11 -268 71 -391 l39 -80 -34 40 c-41 46 -107 177 -133
262 -12 40 -18 91 -18 163 0 90 4 112 24 153 26 53 68 90 121 106 52 16 173 4
233 -23z m3517 -32 c114 -35 179 -34 300 5 52 16 96 29 98 27 1 -2 -16 -20
-40 -40 -62 -54 -142 -89 -209 -94 -49 -4 -68 0 -121 26 -35 16 -83 49 -108
72 -49 45 -51 45 80 4z m-1546 -239 c47 -71 316 -247 516 -336 186 -83 208
-90 573 -193 31 -9 57 -20 57 -25 0 -5 -8 -18 -17 -30 l-18 -22 -108 31 c-59
16 -111 30 -116 30 -26 0 -61 -164 -61 -286 0 -56 4 -74 18 -87 10 -9 72 -31
138 -48 65 -17 127 -38 137 -47 21 -18 22 -51 3 -58 -8 -3 -91 17 -185 45
-308 92 -676 267 -854 406 -67 53 -143 153 -158 208 -18 66 -6 287 20 370 12
37 26 67 30 67 5 0 16 -11 25 -25z m3406 -22 c16 -58 30 -301 20 -355 -19 -99
-67 -163 -194 -261 -115 -89 -198 -139 -344 -208 -225 -107 -310 -140 -507
-194 -207 -57 -257 -66 -274 -50 -36 35 7 55 221 105 80 18 147 40 162 51 32
25 50 111 43 199 -7 81 -47 196 -67 193 -8 -1 -58 -12 -110 -26 -154 -40 -177
-42 -190 -18 -14 27 -5 41 23 41 72 0 471 129 662 213 182 81 453 250 501 312
14 19 30 35 35 35 4 0 13 -17 19 -37z m2165 -53 c107 -27 249 -98 304 -152
111 -110 136 -179 136 -373 0 -126 -3 -148 -27 -217 -82 -233 -276 -522 -458
-683 -25 -22 -92 -85 -150 -139 -130 -123 -250 -218 -405 -322 -168 -112 -267
-162 -522 -264 -122 -49 -249 -103 -282 -120 -34 -17 -143 -53 -243 -80 -609
-168 -1033 -93 -1176 207 -62 132 -56 297 19 488 44 114 141 293 204 378 147
198 458 495 745 710 424 318 1074 576 1515 599 88 5 258 -11 340 -32z m-3730
-350 c161 -62 296 -303 241 -433 -18 -45 -31 -42 -40 10 -16 87 -38 134 -89
185 -45 45 -98 78 -126 78 -11 0 19 -115 48 -183 21 -49 81 -254 100 -342 18
-83 69 -402 87 -540 11 -87 17 -206 17 -360 0 -209 -2 -239 -24 -330 -26 -109
-42 -126 -72 -76 -22 38 -22 63 4 113 30 58 20 95 -41 152 -27 25 -70 59 -97
76 -156 99 -404 99 -579 -1 -49 -28 -51 -31 -58 -81 -3 -29 -6 -88 -6 -131 l0
-79 33 7 32 6 -30 -25 c-16 -14 -42 -30 -56 -35 -25 -9 -27 -7 -33 27 -19 116
14 589 54 767 5 22 19 110 31 195 19 132 23 203 25 478 l2 323 37 54 c56 82
132 132 243 160 83 21 221 14 297 -15z m3272 -1682 c-54 -74 -87 -145 -87
-190 0 -24 -6 -68 -14 -98 -8 -30 -22 -90 -31 -133 -18 -80 -33 -99 -63 -81
-9 6 -26 59 -43 135 -37 159 -43 173 -74 166 -15 -2 -25 0 -25 8 0 20 41 51
136 103 51 28 116 66 145 86 69 45 87 46 56 4z m-487 -247 c0 -16 -103 -101
-166 -136 -98 -56 -383 -146 -484 -155 -183 -14 -145 15 147 114 120 41 279
99 353 130 147 59 150 60 150 47z m-1198 -2031 c108 -23 211 -66 315 -130 135
-83 200 -175 191 -271 -3 -27 -11 -56 -19 -65 -12 -15 -15 -11 -20 40 -6 50
-12 63 -49 101 -48 49 -145 101 -205 110 l-40 6 30 -23 c71 -55 98 -85 126
-139 16 -32 29 -70 29 -84 0 -27 35 -69 50 -60 19 12 10 -12 -12 -32 -34 -31
-82 -53 -133 -60 -37 -5 -45 -3 -45 10 0 27 -39 108 -73 150 -17 23 -26 38
-19 34 6 -5 12 -6 12 -3 0 19 -293 116 -308 101 -3 -2 8 -15 24 -27 68 -52
160 -147 195 -202 38 -57 52 -105 27 -90 -8 5 -9 2 -5 -9 12 -32 -30 -42 -168
-41 -222 2 -543 77 -750 174 -58 27 -108 50 -111 50 -15 0 -178 117 -199 143
l-25 32 38 8 c20 4 61 17 89 28 29 12 60 19 68 15 9 -3 14 -2 11 3 -3 5 37 23
89 40 51 17 163 61 247 97 198 85 251 104 318 114 76 11 218 2 322 -20z
m-3099 5 c31 -8 123 -44 204 -81 188 -85 492 -193 549 -196 24 -2 44 -5 44 -8
0 -3 -21 -27 -47 -52 -177 -172 -551 -309 -947 -348 -121 -12 -202 -7 -257 17
-34 14 -36 17 -29 44 16 56 154 215 230 265 51 34 40 40 -46 25 -103 -18 -170
-48 -215 -94 -42 -44 -99 -147 -99 -179 0 -22 7 -23 -91 8 -73 23 -91 34 -147
88 l-64 61 5 56 c10 118 93 215 253 296 113 58 142 68 262 93 111 24 314 26
395 5z m1317 -320 c196 -2 309 0 363 9 l78 13 15 -33 c19 -40 174 -191 235
-230 56 -35 260 -127 408 -184 63 -24 109 -46 103 -48 -13 -4 -132 19 -262 50
-139 33 -318 128 -422 224 l-44 41 -166 7 c-91 4 -289 4 -439 0 l-274 -6 -28
-34 c-16 -18 -52 -46 -80 -62 -54 -31 -215 -88 -223 -79 -3 2 17 17 43 32 130
76 272 204 312 282 20 41 21 41 58 31 21 -5 166 -11 323 -13z"/>
<path d="M5605 9193 c-105 -9 -292 -36 -400 -59 -184 -38 -546 -139 -685 -190
-69 -25 -156 -56 -195 -69 -80 -27 -359 -154 -485 -222 -242 -131 -494 -291
-670 -426 -455 -349 -658 -623 -553 -747 33 -39 64 -52 128 -51 104 1 230 53
452 187 180 109 406 230 703 377 216 106 505 237 524 237 4 0 53 20 111 45
290 124 547 204 1035 323 320 79 348 88 441 148 74 47 111 90 134 153 47 135
-21 245 -176 286 -50 14 -249 18 -364 8z"/>
<path d="M4103 7310 c-259 -54 -297 -434 -54 -538 91 -38 220 -5 291 75 70 80
88 184 49 289 -49 130 -163 199 -286 174z m130 -110 c66 -73 -5 -191 -98 -160
-41 14 -73 48 -81 86 -4 24 0 37 22 63 15 18 37 37 48 42 34 14 79 1 109 -31z
m65 -262 c2 -19 -2 -28 -17 -33 -26 -8 -41 1 -41 24 0 44 53 53 58 9z m-217 1
c13 -25 -2 -69 -24 -69 -38 0 -74 60 -50 83 15 16 63 6 74 -14z"/>
<path d="M5833 7301 c-103 -48 -163 -149 -163 -274 0 -82 17 -130 63 -183 55
-63 107 -87 185 -87 152 2 263 116 266 273 1 109 -66 220 -160 265 -57 28
-140 30 -191 6z m147 -90 c16 -16 32 -41 36 -56 15 -61 -54 -134 -115 -120
-42 9 -83 57 -84 98 -1 39 13 61 58 89 42 25 72 23 105 -11z m90 -256 c10 -12
9 -20 -4 -41 -21 -30 -50 -28 -54 4 -6 43 33 67 58 37z m-232 -7 c16 -16 15
-65 0 -71 -24 -8 -68 22 -68 47 0 12 3 26 7 29 11 11 48 8 61 -5z"/>
<path d="M6843 6883 c0 -29 4 -53 7 -53 14 0 20 14 11 24 -5 6 -11 27 -14 46
-3 24 -4 18 -4 -17z"/>
<path d="M6840 6800 c0 -11 4 -20 9 -20 6 0 9 9 8 20 -1 11 -5 20 -9 20 -4 0
-8 -9 -8 -20z"/>
<path d="M6105 6629 c-44 -11 -85 -44 -85 -69 0 -18 32 -51 70 -71 70 -36 174
-28 223 18 33 32 34 43 5 70 -54 49 -140 70 -213 52z"/>
<path d="M3800 6608 c-52 -27 -81 -69 -64 -95 15 -25 93 -63 129 -63 80 0 195
58 195 99 0 22 -36 56 -73 70 -49 19 -138 13 -187 -11z"/>
<path d="M8572 7685 c-11 -14 -28 -50 -38 -78 -9 -29 -29 -78 -44 -109 -64
-133 -75 -141 -209 -158 -44 -6 -82 -17 -93 -27 -26 -23 -22 -58 8 -82 23 -18
41 -21 138 -21 94 0 116 3 145 21 l33 20 33 -22 c18 -13 37 -34 42 -48 17 -45
28 74 28 301 0 224 -6 251 -43 203z"/>
<path d="M1471 7454 c-26 -33 -27 -56 -3 -77 24 -22 65 -21 85 1 22 24 21 45
0 70 -30 34 -58 36 -82 6z"/>
<path d="M1163 7398 c-20 -21 -28 -51 -25 -88 2 -16 51 -50 71 -50 25 0 61 49
61 83 0 61 -68 96 -107 55z"/>
<path d="M871 7284 c-27 -34 -26 -46 2 -72 30 -28 62 -28 81 0 22 31 20 45 -9
73 -31 32 -48 31 -74 -1z"/>
<path d="M5136 6586 c-11 -41 -7 -46 24 -28 36 21 38 38 6 44 -19 4 -26 0 -30
-16z"/>
<path d="M3566 5678 c-24 -55 -56 -189 -56 -237 0 -27 28 -54 140 -128 46 -30
229 -133 237 -133 3 0 2 35 -2 78 -7 86 10 183 45 252 11 21 20 41 20 43 0 3
-16 7 -35 10 -47 8 -215 88 -277 132 l-49 36 -23 -53z"/>
<path d="M6676 5801 c-15 -16 -15 -19 -1 -31 8 -7 15 -21 15 -32 0 -10 5 -16
10 -13 12 8 13 82 1 89 -4 3 -16 -3 -25 -13z"/>
<path d="M6450 5694 c-49 -35 -194 -108 -257 -128 -29 -10 -53 -19 -53 -22 0
-2 11 -36 24 -77 30 -87 41 -185 28 -249 -9 -48 -6 -58 14 -38 6 6 44 28 85
48 105 53 245 149 270 183 17 24 19 38 14 72 -11 67 -54 193 -73 215 l-17 21
-35 -25z"/>
<path d="M8760 5710 c-70 -26 -143 -74 -203 -136 -119 -120 -141 -272 -50
-344 25 -20 37 -22 114 -18 73 3 96 9 163 41 145 69 244 190 254 313 9 117
-26 155 -148 161 -57 3 -88 -1 -130 -17z"/>
<path d="M7830 5597 c-88 -30 -160 -77 -225 -150 -75 -82 -100 -136 -100 -214
0 -57 3 -66 32 -94 57 -58 167 -51 313 20 176 85 298 287 240 395 -35 66 -143
83 -260 43z"/>
<path d="M7038 4989 c-97 -23 -253 -122 -353 -224 -109 -111 -150 -215 -109
-274 22 -31 90 -61 140 -61 85 0 251 71 344 147 99 81 185 211 196 295 12 101
-79 150 -218 117z m62 -144 c0 -54 -106 -167 -203 -216 -52 -27 -144 -59 -169
-59 -87 0 148 227 287 278 46 16 85 15 85 -3z"/>
<path d="M8567 4956 c-176 -62 -327 -219 -352 -364 -11 -66 22 -127 81 -154
144 -63 413 74 498 255 65 139 58 223 -24 265 -57 29 -117 28 -203 -2z"/>
<path d="M7713 4345 c-228 -62 -432 -281 -394 -423 20 -73 98 -118 184 -107
158 22 320 130 400 265 32 56 58 152 51 190 -16 76 -118 108 -241 75z"/>
<path d="M6763 4286 c-193 -47 -393 -247 -393 -392 0 -41 37 -95 80 -116 135
-68 427 78 513 256 58 119 45 210 -36 247 -48 21 -90 23 -164 5z"/>
<path d="M4881 5404 c-41 -14 -93 -37 -115 -52 l-41 -28 -3 -123 c-2 -115 -1
-123 15 -116 104 43 263 50 350 17 29 -11 74 -33 101 -50 l49 -30 -53 154
c-29 84 -54 171 -56 191 -2 25 -10 42 -23 50 -35 21 -143 15 -224 -13z"/>
<path d="M4810 4921 c-113 -37 -110 -33 -110 -125 0 -45 -4 -98 -9 -118 -5
-21 -8 -38 -7 -38 0 0 24 8 51 19 105 39 221 36 365 -11 86 -28 180 -72 208
-99 13 -11 25 -19 26 -18 9 10 -48 277 -63 299 -22 31 -121 82 -191 98 -76 18
-205 14 -270 -7z"/>
<path d="M4855 4483 c-58 -13 -152 -47 -176 -63 -22 -17 -27 -29 -32 -87 -4
-37 -10 -97 -14 -132 -6 -61 -5 -64 13 -57 128 53 305 70 418 41 75 -20 212
-85 270 -130 l46 -35 -5 143 c-3 78 -8 149 -10 158 -7 20 -150 105 -219 129
-91 32 -226 48 -291 33z"/>
<path d="M8345 3704 c-16 -13 -34 -24 -40 -24 -30 -1 -37 -17 -25 -55 7 -20
15 -78 19 -128 l6 -92 28 100 c25 90 50 215 44 221 -1 1 -15 -9 -32 -22z"/>
<path d="M3001 1373 c-70 -25 -133 -95 -155 -172 -20 -71 -14 -88 28 -77 16 4
26 13 26 24 0 26 55 106 124 179 63 68 59 75 -23 46z"/>
<path d="M3110 1170 c-8 -5 -10 -10 -5 -10 6 0 17 5 25 10 8 5 11 10 5 10 -5
0 -17 -5 -25 -10z"/>
<path d="M7271 8821 c-45 -45 -8 -108 67 -118 35 -5 42 -2 56 19 42 64 -70
152 -123 99z"/>
<path d="M6931 8784 c-28 -35 -26 -69 4 -99 32 -33 74 -33 105 -1 31 34 29 74
-4 103 -37 31 -79 30 -105 -3z"/>
<path d="M7160 8545 c-54 -25 -99 -74 -115 -128 -8 -26 -12 -53 -10 -60 2 -7
6 -24 9 -39 8 -38 61 -95 109 -120 89 -45 210 -11 254 71 65 124 -20 279 -159
288 -34 2 -66 -2 -88 -12z"/>
<path d="M7090 8020 c-26 -26 -25 -44 2 -70 27 -25 60 -26 81 -2 23 26 21 58
-5 76 -30 21 -54 20 -78 -4z"/>
<path d="M9179 7590 c-48 -31 -79 -82 -79 -129 0 -70 100 -148 174 -136 48 7
66 20 122 86 50 58 52 76 12 130 -27 36 -111 79 -153 79 -18 0 -51 -13 -76
-30z"/>
<path d="M7452 7450 c-52 -49 -4 -117 69 -97 57 15 59 86 3 107 -36 14 -48 12
-72 -10z"/>
<path d="M7389 6375 c-37 -20 -43 -62 -13 -92 32 -32 67 -30 98 8 32 38 32 44
1 74 -27 28 -48 31 -86 10z"/>
<path d="M852 4080 c-80 -49 -63 -165 34 -233 43 -30 112 -45 158 -33 29 7 56
52 56 91 0 60 -60 148 -122 181 -38 20 -87 17 -126 -6z"/>
<path d="M1401 4063 c-42 -52 -40 -105 7 -148 35 -32 52 -32 86 4 20 20 30 43
33 74 5 39 2 49 -20 71 -35 35 -79 35 -106 -1z"/>
<path d="M1309 3742 c-186 -62 -290 -230 -260 -421 19 -119 84 -221 190 -293
91 -63 141 -64 330 -4 97 31 137 33 150 9 5 -10 21 -63 35 -118 41 -154 71
-219 124 -265 96 -85 220 -82 304 7 55 58 63 138 22 221 -58 116 -191 180
-381 184 l-73 1 0 33 c0 18 12 70 27 116 37 112 39 250 6 318 -65 131 -199
221 -341 227 -56 2 -93 -2 -133 -15z"/>
<path d="M813 3546 c-24 -21 -26 -26 -15 -50 14 -32 57 -44 91 -25 33 19 38
52 12 78 -27 27 -54 26 -88 -3z"/>
<path d="M2019 3543 c-73 -38 -78 -66 -17 -93 91 -40 141 -37 196 13 29 27 28
52 -3 82 -34 35 -103 34 -176 -2z"/>
<path d="M7320 3134 c0 -13 43 -44 61 -44 16 0 54 29 47 35 -8 6 -108 15 -108
9z"/>
<path d="M8125 2912 c-68 -43 -72 -54 -78 -207 -4 -125 -3 -145 14 -180 l20
-40 -23 -15 c-38 -24 -105 -96 -133 -144 l-27 -46 9 -402 8 -403 27 -47 c43
-72 74 -104 126 -130 47 -23 50 -23 452 -25 456 -3 465 -1 543 68 25 21 57 63
71 91 l26 52 0 390 c0 238 -4 406 -10 428 -13 44 -97 140 -140 158 -35 15 -37
21 -10 45 18 16 19 27 13 169 -6 169 -14 192 -70 228 -38 23 -39 23 -413 26
-353 2 -377 1 -405 -16z m585 -122 c74 0 141 -4 149 -9 9 -6 15 -41 18 -115 6
-102 5 -106 -15 -106 -11 0 -27 -3 -36 -6 -13 -5 -16 7 -18 78 l-3 83 -43 6
c-23 3 -44 3 -47 1 -3 -3 -5 -47 -5 -99 l0 -93 -30 0 -29 0 -3 93 -3 92 -30 0
-30 0 -3 -92 -3 -93 -32 0 -32 0 0 87 0 88 -33 3 -33 3 3 -90 3 -91 -26 0
c-26 0 -27 1 -33 90 -7 80 -10 90 -27 90 -17 0 -19 -8 -19 -85 0 -81 -1 -85
-22 -85 -22 0 -23 3 -23 87 l0 88 -27 3 c-28 3 -28 3 -28 -60 0 -41 5 -71 16
-86 16 -23 13 -25 -21 -23 -67 5 -65 1 -65 121 0 105 1 110 23 115 29 7 257
13 322 8 28 -1 111 -3 185 -3z m171 -419 c65 -34 106 -69 123 -106 14 -28 16
-83 16 -377 0 -315 -2 -346 -19 -385 -34 -73 -31 -73 -462 -78 -359 -4 -384
-3 -419 15 -68 35 -66 25 -73 440 l-6 375 59 57 c88 86 98 88 447 84 277 -3
293 -4 334 -25z"/>
<path d="M8480 2227 c-3 -2 -75 -15 -160 -27 -85 -12 -158 -25 -161 -29 -4 -3
-9 -18 -13 -32 l-6 -26 133 -3 c72 -1 166 -2 207 -3 41 -1 153 9 248 21 95 12
178 22 183 22 6 0 9 12 7 28 -3 25 -7 27 -68 34 -90 10 -364 21 -370 15z"/>
<path d="M8790 2079 c-186 -40 -343 -47 -510 -21 -69 11 -126 19 -127 18 -1
-1 -3 -116 -3 -255 -1 -174 2 -257 10 -265 7 -7 106 -14 283 -19 313 -9 452
-6 466 8 7 7 12 115 15 288 2 152 3 277 3 276 -1 -1 -63 -14 -137 -30z"/>
<path d="M9346 2896 c-32 -31 -33 -66 -3 -94 44 -42 100 -20 113 44 6 34 -14
58 -58 69 -21 5 -33 1 -52 -19z"/>
<path d="M1201 2838 c-23 -24 -56 -71 -73 -105 -25 -52 -30 -71 -25 -109 6
-56 31 -93 81 -118 35 -17 39 -17 82 -1 61 23 94 79 94 162 0 109 -46 213 -94
213 -14 0 -40 -17 -65 -42z"/>
<path d="M1574 2426 c-92 -42 -149 -137 -142 -241 9 -146 159 -247 288 -193
149 63 188 250 77 366 -63 66 -161 96 -223 68z"/>
</g>
</svg>
