<?xml version="1.0" encoding="UTF-8" standalone="no"?>
<svg
   version="1.0"
   width="1024.000000pt"
   height="1024.000000pt"
   viewBox="0 0 1024.000000 1024.000000"
   preserveAspectRatio="xMidYMid meet"
   id="svg3"
   sodipodi:docname="penguin.svg"
   inkscape:version="1.4 (86a8ad7, 2024-10-11)"
   xmlns:inkscape="http://www.inkscape.org/namespaces/inkscape"
   xmlns:sodipodi="http://sodipodi.sourceforge.net/DTD/sodipodi-0.dtd"
   xmlns="http://www.w3.org/2000/svg"
   xmlns:svg="http://www.w3.org/2000/svg">
  <defs
     id="defs3" />
  <sodipodi:namedview
     id="namedview3"
     pagecolor="#ffffff"
     bordercolor="#cccccc"
     borderopacity="1"
     inkscape:showpageshadow="0"
     inkscape:pageopacity="1"
     inkscape:pagecheckerboard="0"
     inkscape:deskcolor="#d1d1d1"
     inkscape:document-units="pt"
     inkscape:zoom="0.29553223"
     inkscape:cx="1373.7926"
     inkscape:cy="492.33209"
     inkscape:window-width="1920"
     inkscape:window-height="1009"
     inkscape:window-x="-8"
     inkscape:window-y="-8"
     inkscape:window-maximized="1"
     inkscape:current-layer="g3" />
  <g
     transform="translate(0.000000,1024.000000) scale(0.100000,-0.100000)"
     fill="#000000"
     stroke="none"
     id="g3">
    <path
       d="M5055 8300 c-232 -25 -489 -103 -694 -211 -404 -213 -640 -441 -869 -837 -117 -202 -130 -230 -197 -424 l-60 -177 -58 -30 c-90 -47 -387 -255 -472 -330 -207 -182 -301 -354 -312 -572 -10 -182 29 -287 157 -422 123 -130 239 -175 477 -184 l133 -6 5 -36 c18 -108 48 -255 66 -321 60 -215 231 -554 362 -716 34 -42 68 -84 75 -94 10 -14 6 -25 -29 -76 -127 -181 -134 -395 -19 -574 75 -117 240 -233 385 -270 166 -42 452 -35 605 16 91 30 209 93 345 183 l100 66 102 -9 c83 -8 125 -6 215 8 62 9 120 17 128 17 8 0 42 -25 75 -56 128 -120 287 -201 451 -230 113 -20 384 -20 477 0 104 22 237 96 322 180 206 203 227 486 50 685 -25 28 -45 53 -45 56 0 3 36 52 80 109 217 281 351 590 415 959 8 48 13 91 10 96 -2 4 53 10 123 14 255 14 449 112 557 281 48 74 66 138 72 255 7 128 -14 244 -59 334 -89 177 -283 359 -598 564 -69 45 -132 87 -141 94 -9 7 -33 66 -53 131 -75 239 -195 466 -372 703 -281 378 -696 668 -1095 768 -232 58 -497 79 -714 56z m545 -209 c250 -54 465 -150 615 -276 30 -25 30 -25 10 -44 -20 -20 -21 -19 -158 49 -281 139 -473 184 -777 184 -311 -1 -540 -48 -790 -165 -132 -61 -166 -69 -175 -40 -13 42 16 72 120 128 123 65 233 106 390 145 174 43 217 47 455 43 168 -3 236 -8 310 -24z m-1461 -448 c27 -96 5 -152 -72 -187 -83 -38 -101 -38 -123 5 -8 17 -13 41 -10 53 8 32 92 129 128 149 50 26 66 22 77 -20z m509 -349 c80 -18 149 -53 239 -121 119 -90 197 -210 241 -371 l20 -72 -26 -6 c-161 -35 -291 -137 -338 -265 -20 -54 -23 -159 -6 -216 38 -127 227 -320 372 -380 85 -35 142 -31 237 17 67 33 97 58 184 148 66 68 117 131 139 172 33 61 35 71 35 155 0 73 -4 97 -22 130 -47 87 -190 198 -290 225 -26 7 -51 16 -55 19 -10 9 27 160 53 218 57 124 175 250 284 303 184 91 423 92 596 4 235 -119 426 -409 483 -734 15 -90 31 -730 31 -1305 0 -338 -9 -403 -81 -625 -53 -159 -199 -385 -344 -530 -207 -208 -424 -335 -705 -415 -168 -48 -236 -57 -430 -58 -366 0 -671 93 -955 292 -79 55 -256 225 -314 301 -150 196 -288 493 -330 711 -27 134 -30 319 -11 539 10 111 20 372 25 605 l7 410 32 120 c86 319 244 564 434 669 143 80 314 100 495 60z m731 -779 c94 -33 151 -99 151 -174 0 -45 -37 -122 -49 -103 -7 12 -108 -8 -119 -23 -9 -12 -65 -32 -112 -39 -25 -4 -47 1 -76 17 -23 12 -64 34 -93 50 -28 15 -51 23 -51 18 0 -5 7 -11 15 -15 8 -3 15 -13 15 -22 0 -9 11 -25 25 -36 14 -11 22 -24 19 -30 -9 -14 -96 81 -90 98 3 8 0 13 -5 11 -6 -1 -18 16 -26 38 -37 103 49 198 207 229 42 8 142 -2 189 -19z m-2164 -12 c-4 -10 -12 -55 -18 -100 -7 -48 -16 -83 -23 -83 -6 0 -58 -32 -115 -72 -95 -66 -163 -128 -307 -279 -53 -57 -97 -87 -108 -76 -4 3 1 36 10 73 19 75 78 172 161 263 67 74 242 211 324 255 75 40 86 43 76 19z m4290 -130 c95 -73 162 -141 238 -240 72 -95 100 -155 105 -225 6 -86 -2 -82 -135 72 -110 127 -153 168 -263 254 -47 36 -92 72 -101 79 -10 9 -18 39 -22 89 -4 41 -10 83 -13 93 -9 21 75 -32 191 -122z m-2215 -313 c-8 -5 -19 -10 -25 -10 -5 0 -3 5 5 10 8 5 20 10 25 10 6 0 3 -5 -5 -10z m-1256 -2227 c34 -32 82 -75 107 -96 24 -22 37 -34 28 -28 -28 19 -50 3 -46 -35 6 -48 27 -76 147 -195 l107 -107 -36 2 c-20 2 -48 3 -63 4 -18 1 -26 6 -22 15 12 31 -38 39 -237 35 -107 -3 -201 -8 -210 -12 -23 -10 -60 71 -66 145 -8 85 17 156 78 223 43 47 117 102 142 105 4 1 36 -25 71 -56z m2579 24 c114 -73 167 -161 166 -272 -2 -118 -1 -117 -106 -136 -51 -9 -98 -21 -105 -26 -7 -6 -49 -18 -93 -28 -44 -9 -97 -21 -117 -27 -34 -10 -246 -3 -257 8 -3 2 5 11 17 19 11 9 27 21 34 28 7 7 29 23 48 37 66 45 162 133 171 158 9 23 -3 53 -19 50 -4 -1 -19 2 -35 6 -17 5 -33 4 -42 -4 -8 -7 -15 -10 -15 -7 0 4 37 31 83 61 45 30 109 80 142 110 33 30 64 55 68 56 4 0 31 -15 60 -33z"
       id="path1" />
  </g>
</svg>
