<?xml version="1.0" standalone="no"?>
<!DOCTYPE svg PUBLIC "-//W3C//DTD SVG 20010904//EN"
 "http://www.w3.org/TR/2001/REC-SVG-20010904/DTD/svg10.dtd">
<svg version="1.0" xmlns="http://www.w3.org/2000/svg"
 width="1024.000000pt" height="1024.000000pt" viewBox="0 0 1024.000000 1024.000000"
 preserveAspectRatio="xMidYMid meet">
<metadata>
Created by potrace 1.16, written by Peter Selinger 2001-2019
</metadata>
<g transform="translate(0.000000,1024.000000) scale(0.100000,-0.100000)"
fill="#000000" stroke="none">
<path d="M4805 9654 c-352 -23 -723 -126 -1055 -294 -68 -34 -87 -39 -202 -49
-141 -13 -221 -28 -353 -66 -161 -47 -174 -48 -261 -26 -44 10 -133 29 -199
41 -196 36 -475 97 -722 156 -128 31 -239 54 -247 51 -28 -11 -48 -57 -54
-122 -4 -59 -2 -71 27 -130 33 -67 87 -122 154 -156 31 -17 36 -23 31 -44 -8
-32 11 -86 47 -131 16 -20 36 -61 45 -89 29 -103 117 -199 206 -226 37 -12 37
-13 31 -54 -9 -72 52 -165 150 -226 86 -54 86 -53 74 -105 -15 -66 5 -204 38
-261 l26 -44 -24 -72 c-28 -81 -57 -248 -57 -327 0 -46 -5 -59 -35 -96 -41
-50 -77 -127 -93 -199 -14 -64 -32 -249 -32 -335 0 -65 -1 -67 -39 -98 -58
-47 -82 -108 -89 -226 -5 -93 -8 -105 -48 -180 -23 -45 -49 -105 -58 -135 -9
-30 -33 -77 -55 -105 -21 -28 -46 -65 -54 -81 -41 -82 -77 -249 -77 -363 0
-45 -3 -49 -57 -94 -32 -27 -63 -48 -71 -48 -31 0 -94 -44 -144 -102 -72 -83
-88 -108 -88 -135 0 -17 -7 -24 -27 -28 -34 -7 -161 -49 -310 -103 -222 -81
-237 -97 -230 -240 4 -82 8 -101 41 -167 27 -55 49 -84 83 -110 55 -42 155
-75 228 -75 110 0 277 46 377 103 24 14 70 33 102 42 86 24 201 85 292 153 95
72 249 221 259 251 7 23 49 30 61 10 4 -7 13 -43 20 -80 7 -38 31 -105 54
-150 l41 -82 -38 -39 c-42 -43 -132 -117 -388 -318 -300 -235 -491 -411 -564
-519 -81 -118 -102 -202 -68 -268 24 -46 96 -115 152 -145 73 -39 212 -76 323
-87 95 -9 452 1 482 13 13 5 15 -19 15 -181 0 -182 1 -190 26 -244 19 -40 40
-65 71 -87 42 -29 46 -36 57 -94 67 -346 226 -685 443 -943 73 -87 184 -193
241 -230 15 -10 26 -20 23 -22 -2 -2 -44 -10 -92 -18 -315 -48 -478 -112 -611
-239 -94 -88 -132 -162 -140 -268 -4 -47 -1 -82 6 -96 13 -24 17 -22 -134 -41
-280 -35 -562 -89 -620 -118 -69 -35 -81 -64 -42 -101 46 -44 128 -66 377
-101 80 -11 217 -28 305 -36 88 -8 194 -19 235 -24 130 -17 557 -49 785 -61
390 -18 626 -30 830 -40 673 -33 1887 -18 2730 35 181 12 502 35 535 40 19 2
53 7 75 9 81 10 150 18 168 22 9 1 126 14 260 28 296 32 370 42 469 66 142 35
199 82 147 121 -50 37 -179 74 -364 103 -211 33 -788 86 -935 86 l-35 0 0 93
c0 82 -3 99 -29 152 -41 84 -141 180 -241 231 -147 77 -307 118 -570 148 -181
21 -205 25 -205 35 0 5 27 31 61 58 55 45 67 51 123 56 116 11 270 84 439 210
171 127 267 256 267 360 0 97 -46 152 -232 274 -117 77 -118 78 -114 113 14
131 30 224 49 285 18 60 21 95 22 252 0 158 2 182 15 178 76 -22 180 -30 390
-29 238 0 327 10 465 50 153 44 288 185 270 282 -18 98 -111 227 -283 393
-121 118 -291 266 -327 287 -16 8 -16 11 -1 40 12 23 13 37 6 56 -14 37 -86
112 -155 161 -62 45 -122 102 -114 109 9 9 196 94 230 105 66 21 204 41 287
41 63 0 102 -6 160 -26 146 -48 234 -109 428 -296 219 -212 420 -342 641 -417
110 -37 133 -49 133 -75 0 -50 106 -197 300 -417 107 -121 208 -228 224 -236
29 -15 31 -14 53 11 13 15 23 31 23 36 0 5 -80 89 -178 187 -172 171 -255 269
-302 357 -17 31 14 4 127 -111 190 -194 385 -353 435 -353 24 0 52 44 44 73
-3 15 -24 31 -59 49 -92 45 -166 97 -263 185 -120 108 -251 273 -218 273 4 0
57 -48 118 -108 61 -59 140 -129 175 -156 58 -45 278 -156 309 -156 16 0 46
64 39 84 -3 8 -25 20 -49 26 -61 17 -234 101 -290 142 -26 18 -85 69 -132 112
-63 56 -86 84 -86 102 0 13 6 24 13 24 7 0 51 -31 98 -69 124 -100 244 -164
374 -200 131 -37 146 -38 181 -7 27 23 28 24 11 50 -14 21 -25 26 -59 26 -119
0 -345 103 -495 225 l-52 43 20 26 c23 30 41 33 59 11 28 -33 155 -108 247
-146 164 -67 282 -73 341 -19 26 25 27 33 6 54 -12 12 -36 16 -102 15 -130 -1
-276 49 -414 142 -31 22 -59 42 -62 47 -2 4 3 18 13 30 l17 23 110 -55 c168
-84 255 -95 421 -56 89 21 123 40 123 70 0 34 -42 44 -111 27 -109 -26 -151
-28 -234 -12 -128 24 -293 113 -278 150 7 21 25 19 112 -11 97 -34 223 -35
401 -5 99 17 129 26 143 42 9 12 17 27 17 34 0 23 -32 47 -54 42 -213 -51
-355 -60 -489 -30 -77 17 -78 18 -75 48 l3 30 70 -5 c117 -8 198 -3 285 17 53
12 265 85 277 95 18 14 16 53 -2 68 -17 14 -33 11 -120 -20 -143 -50 -240 -70
-342 -69 -133 1 -147 6 -151 51 l-3 35 118 5 c107 5 131 10 253 51 167 56 245
92 265 120 21 30 19 44 -10 63 -25 16 -28 15 -103 -24 -153 -79 -402 -139
-483 -116 -29 8 -34 14 -34 39 0 29 1 29 85 41 47 7 119 24 160 38 105 34 365
160 373 180 9 23 0 41 -28 56 -21 11 -29 9 -67 -13 -112 -65 -446 -187 -514
-187 -16 0 -36 43 -28 62 2 7 46 26 97 41 116 35 473 212 495 245 18 27 7 55
-23 60 -10 2 -117 -46 -239 -106 -205 -102 -340 -153 -357 -134 -3 4 -9 19
-13 33 -6 25 -3 28 67 50 143 46 519 258 525 297 4 24 -22 52 -49 52 -10 0
-40 -15 -66 -34 -44 -31 -229 -136 -240 -136 -3 0 -17 -8 -31 -18 -15 -10 -71
-37 -125 -61 -110 -47 -119 -46 -137 18 -5 20 -10 38 -10 41 0 3 17 5 38 6 43
0 154 48 337 145 136 72 215 134 215 168 0 20 -34 51 -56 51 -6 0 -44 -26 -84
-57 -59 -46 -388 -228 -396 -220 -1 1 10 16 25 32 42 47 157 137 254 199 48
31 105 72 127 92 56 51 52 94 -7 94 -20 0 -254 -176 -351 -264 -40 -36 -87
-73 -105 -82 -17 -9 -40 -24 -50 -32 -15 -13 -22 -14 -37 -4 -35 22 -125 15
-183 -15 -43 -22 -69 -27 -154 -31 -62 -3 -121 0 -150 7 -69 18 -187 88 -358
216 -83 61 -182 130 -220 152 -176 103 -439 185 -633 198 l-104 8 8 31 c4 17
8 99 9 181 4 234 -33 387 -121 506 -32 44 -35 52 -25 81 17 54 41 209 41 266
0 53 -24 116 -58 155 -13 15 -16 38 -14 115 3 85 -7 192 -24 273 l-5 26 88 6
c48 3 111 13 138 22 97 32 175 106 175 165 0 26 3 27 62 34 70 7 159 44 202
84 35 33 65 97 66 139 0 29 3 32 39 38 54 9 150 56 195 95 54 48 80 103 80
173 1 53 3 58 26 64 69 17 162 103 189 176 14 36 14 90 0 104 -7 7 -1 12 21
17 50 10 152 118 173 185 24 77 22 150 -5 191 -37 54 -47 57 -140 36 -329 -73
-552 -94 -1073 -105 -414 -8 -421 -9 -500 -34 -123 -40 -209 -105 -320 -239
l-72 -86 -49 42 c-136 118 -369 273 -532 355 -242 122 -436 182 -812 252 -104
20 -338 31 -465 23z m178 -148 c-210 -101 -304 -189 -388 -359 -30 -62 -45
-83 -62 -85 -33 -5 -30 17 22 126 52 109 106 177 208 260 109 89 135 99 247
101 l65 1 -92 -44z m-213 19 c0 -2 -15 -12 -32 -21 -18 -9 -54 -33 -80 -54
-39 -31 -57 -38 -111 -43 -99 -9 -252 -43 -372 -82 -60 -20 -128 -42 -151 -50
-37 -12 -46 -11 -84 6 l-44 20 33 20 c74 45 346 131 532 169 143 29 309 48
309 35z m598 -46 c248 -43 405 -95 657 -218 260 -127 441 -255 648 -459 211
-207 334 -394 452 -682 58 -140 126 -462 98 -459 -5 0 -24 20 -45 44 -30 37
-38 57 -47 117 -34 221 -173 506 -351 723 -90 109 -305 314 -415 395 -268 198
-630 363 -923 421 -58 12 -187 27 -286 33 l-181 13 85 40 c47 22 92 42 100 46
29 11 93 7 208 -14z m-3383 -164 c137 -36 334 -78 665 -141 101 -20 195 -41
207 -48 23 -12 21 -14 -60 -69 l-84 -57 -154 21 c-390 50 -568 92 -647 149
-53 38 -102 105 -102 140 0 50 2 50 175 5z m6694 11 c37 -45 -60 -167 -164
-206 -73 -27 -266 -59 -565 -94 -205 -24 -291 -36 -374 -52 -47 -8 -85 -36
-116 -82 -30 -46 -35 -61 -45 -155 -6 -49 -13 -66 -43 -99 -19 -21 -49 -46
-66 -55 -17 -8 -39 -22 -48 -30 -16 -14 -16 -18 -2 -45 9 -17 13 -41 10 -53
-5 -21 -90 -105 -106 -105 -4 0 -15 19 -26 42 -33 74 -169 272 -245 358 -41
47 -85 100 -98 118 l-23 33 38 57 c58 85 146 168 214 202 115 58 147 62 595
70 327 6 443 12 575 29 170 22 429 67 438 76 10 10 40 5 51 -9z m-4789 -145
c174 -67 248 -180 237 -364 -9 -163 -83 -315 -221 -453 -99 -98 -179 -153
-307 -211 -303 -136 -633 -162 -823 -66 -65 33 -155 124 -186 188 -36 73 -40
214 -10 316 64 215 211 384 408 471 107 46 310 108 408 124 21 3 59 10 84 15
25 4 115 7 200 5 129 -3 164 -7 210 -25z m1414 -26 c64 -8 167 -29 231 -45
469 -121 744 -362 745 -653 1 -356 -229 -595 -573 -597 -173 0 -392 55 -622
157 -249 112 -443 291 -507 471 -47 131 -30 308 41 430 74 126 195 214 336
242 67 13 227 11 349 -5z m-3167 -159 c37 -8 133 -22 213 -31 221 -24 228 -25
256 -35 l25 -10 -27 -50 c-15 -27 -34 -50 -41 -50 -24 0 -242 39 -343 61 -138
31 -190 62 -190 113 0 20 20 20 107 2z m6333 -41 c0 -44 -64 -102 -134 -124
-138 -43 -444 -80 -686 -84 l-125 -2 -3 42 c-3 34 2 47 25 72 26 29 34 31 138
41 61 6 142 15 180 20 39 5 99 11 135 15 81 7 135 13 275 30 61 7 129 13 153
14 38 1 42 -1 42 -24z m-3964 -37 c2 -3 -11 -38 -28 -79 -30 -71 -32 -81 -36
-236 -3 -104 -8 -166 -16 -172 -6 -5 -75 -11 -153 -13 -122 -3 -144 -6 -162
-22 -31 -28 -27 -14 29 98 65 130 84 207 85 326 0 52 5 99 10 103 9 8 263 3
271 -5z m-2186 -142 c142 -24 200 -39 200 -52 0 -4 -12 -33 -27 -66 -27 -55
-30 -58 -59 -54 -53 7 -167 45 -201 66 -35 21 -93 94 -93 117 0 17 10 17 180
-11z m5914 -92 c23 -9 19 -47 -7 -76 -41 -44 -100 -77 -167 -92 -84 -20 -654
-23 -666 -4 -4 7 7 24 28 42 20 17 43 43 52 57 17 26 20 27 159 34 108 6 478
34 574 44 6 0 18 -2 27 -5z m-5804 -175 c32 -11 32 -13 26 -57 -3 -25 -6 -52
-6 -60 0 -11 -9 -7 -31 14 -29 27 -59 80 -59 104 0 13 29 13 70 -1z m3960
-126 c0 -18 -4 -33 -9 -33 -11 0 -21 36 -21 80 l1 35 14 -25 c8 -14 14 -40 15
-57z m1310 12 c118 -7 216 -14 218 -14 12 -3 -4 -42 -25 -63 -50 -46 -92 -61
-190 -66 -121 -6 -423 26 -423 45 0 3 18 25 40 50 22 25 40 50 40 54 0 12 88
11 340 -6z m-3584 -55 c13 -5 24 -16 24 -24 0 -31 -118 -162 -199 -221 -159
-117 -279 -174 -478 -229 -199 -54 -233 -59 -385 -53 -172 6 -217 18 -324 89
-61 42 -83 63 -103 101 -13 26 -21 50 -18 53 2 3 35 -15 71 -40 132 -91 333
-117 566 -76 288 52 502 146 650 285 98 92 165 145 169 134 1 -5 14 -14 27
-19z m433 -45 c40 -60 197 -207 274 -258 316 -209 795 -326 1057 -258 93 25
194 65 227 91 44 34 165 185 193 241 16 30 35 81 44 113 8 32 17 61 21 64 8 9
220 -104 269 -142 36 -29 38 -34 32 -72 -8 -61 -116 -353 -142 -383 l-22 -25
-48 31 c-144 93 -204 127 -254 144 -30 10 -59 19 -63 19 -4 0 -7 -21 -6 -47 3
-43 0 -49 -36 -79 -42 -38 -161 -87 -245 -103 -140 -26 -335 5 -617 98 -256
84 -447 185 -566 300 -97 93 -185 238 -173 287 8 30 24 23 55 -21z m2791 -115
c96 -13 242 -40 252 -46 5 -3 -1 -18 -12 -34 -31 -43 -86 -60 -199 -60 l-99 0
-7 33 c-4 17 -13 43 -20 57 -7 14 -16 36 -20 48 -6 20 -4 23 12 18 10 -3 52
-10 93 -16z m-3068 -232 c-13 -13 -52 12 -52 32 0 8 11 27 25 42 14 15 26 33
27 40 1 7 3 -14 5 -46 2 -32 0 -63 -5 -68z m2597 -102 c147 -120 257 -228 360
-352 72 -87 81 -102 81 -138 0 -23 -3 -51 -6 -63 -7 -24 -24 -32 -24 -10 0 6
-12 26 -26 42 -14 17 -22 23 -18 15 4 -8 14 -23 23 -33 16 -19 23 -138 10
-152 -4 -3 -34 5 -68 19 -34 13 -95 32 -137 41 -73 17 -78 20 -187 117 -62 55
-143 124 -182 153 -38 29 -78 61 -88 73 -17 19 -17 21 12 67 39 61 77 157 97
245 8 38 20 70 26 70 6 0 63 -42 127 -94z m-2774 22 c38 -19 49 -20 66 -10 22
14 72 5 141 -25 40 -17 94 -11 164 18 28 11 34 10 58 -8 37 -29 117 -47 178
-39 43 6 56 4 88 -18 68 -45 223 -118 335 -158 136 -49 398 -115 507 -129 133
-16 195 -42 330 -140 46 -33 81 -51 110 -55 79 -11 108 -39 108 -104 0 -17 4
-30 10 -30 18 0 81 -63 101 -101 22 -44 24 -68 8 -103 -11 -22 -8 -32 24 -78
46 -66 54 -106 33 -149 -22 -45 -20 -80 10 -163 33 -89 40 -235 18 -371 -9
-49 -17 -121 -19 -160 -2 -38 -11 -101 -19 -140 -19 -87 -36 -249 -36 -335 0
-75 1 -77 122 -216 85 -98 122 -130 187 -164 l44 -22 47 47 c51 50 114 161
156 271 42 113 76 184 88 184 6 0 17 -4 24 -8 17 -11 3 -73 -39 -179 -60 -151
-120 -254 -189 -325 -57 -59 -70 -68 -102 -68 -58 0 -160 37 -203 73 -22 18
-53 42 -70 54 l-30 21 -1 -25 c-2 -29 -31 -63 -54 -63 -27 0 -105 65 -139 117
-46 68 -75 172 -66 231 4 26 6 91 5 144 -2 131 13 198 53 238 l32 31 -19 47
c-10 26 -25 65 -33 87 -11 30 -13 60 -9 117 8 102 19 128 51 128 35 0 33 26
-12 112 -35 65 -38 79 -38 150 0 74 2 80 28 101 l29 22 -31 39 c-37 46 -46 73
-46 143 0 41 5 57 24 77 l25 26 -35 36 c-19 19 -52 43 -74 54 -76 34 -229 153
-262 204 -36 53 -43 76 -15 55 15 -13 16 -12 3 3 -13 17 -15 17 -41 -2 -40
-29 -88 -25 -141 9 -51 35 -129 107 -129 121 0 18 -15 10 -25 -12 -7 -16 -20
-24 -43 -26 -26 -3 -39 3 -65 30 -18 18 -40 44 -49 58 l-16 25 -24 -22 c-28
-27 -81 -30 -132 -9 -47 19 -126 98 -126 124 0 38 -19 24 -45 -33 -13 -30 -29
-55 -35 -55 -24 0 -70 32 -109 76 l-42 47 -39 -38 c-34 -33 -42 -37 -73 -31
-24 4 -49 22 -82 57 l-47 51 -37 -35 c-20 -19 -44 -37 -54 -41 -24 -8 -95 23
-146 65 -43 34 -47 34 -93 -12 -10 -10 -42 -21 -72 -24 -50 -7 -60 -4 -106 24
-28 17 -53 31 -55 31 -3 0 -18 -14 -34 -32 -25 -28 -35 -32 -71 -31 -24 1 -48
7 -53 12 -7 7 -26 2 -58 -15 -58 -29 -105 -30 -139 -4 -29 23 -40 25 -40 8 0
-23 -43 -58 -72 -58 -23 0 -28 4 -28 25 0 19 -5 25 -21 25 -12 0 -23 -8 -26
-18 -7 -27 -78 -67 -191 -106 -122 -42 -136 -43 -156 -14 -12 17 -18 20 -28
10 -9 -9 -8 -12 5 -12 48 0 -9 -48 -150 -127 -92 -52 -187 -124 -212 -162
l-16 -24 54 6 c29 4 65 14 78 22 14 9 26 15 28 13 3 -3 -27 -76 -110 -268 -13
-30 -38 -109 -56 -175 -26 -102 -32 -143 -36 -272 -6 -157 7 -323 32 -448 11
-53 12 -71 3 -74 -32 -11 -98 -87 -135 -158 -62 -116 -82 -203 -91 -389 l-7
-159 -30 3 c-16 2 -34 7 -40 11 -5 4 -32 16 -60 26 -58 21 -113 54 -136 81
-43 52 -121 219 -139 301 -15 63 5 185 41 260 32 66 68 99 118 109 35 7 37 15
16 75 -9 24 -13 56 -10 70 8 37 82 119 106 119 23 0 23 2 3 81 -30 116 2 225
81 281 l46 33 -7 88 c-7 86 -6 89 20 116 27 28 27 30 16 88 -23 117 21 236
138 366 68 77 111 107 154 107 22 0 29 7 39 38 7 20 19 42 28 49 55 42 237 96
379 113 141 17 287 52 452 109 124 43 156 51 220 51 67 0 147 17 190 41 8 4
16 8 17 8 1 1 23 -9 48 -21z m-1422 -62 c17 -13 17 -21 7 -102 -17 -134 -17
-132 -56 -149 -20 -8 -38 -15 -40 -15 -11 0 -1 68 21 156 36 141 33 136 68
110z m3657 -149 c71 -46 93 -83 43 -71 -15 3 -52 21 -80 40 -29 19 -57 34 -63
34 -7 0 -7 6 0 20 15 28 26 26 100 -23z m-2647 -232 c167 -72 301 -203 440
-429 82 -132 131 -196 151 -196 15 0 112 101 209 216 88 105 186 198 264 250
71 47 198 105 243 111 55 8 248 -47 448 -127 195 -78 271 -118 412 -218 80
-57 95 -72 101 -102 59 -286 73 -469 54 -720 -6 -81 -4 -125 9 -191 16 -84 16
-87 -5 -134 -14 -32 -23 -80 -28 -151 -4 -58 -12 -109 -17 -114 -19 -18 -304
-123 -450 -165 -479 -139 -756 -180 -1214 -180 -236 0 -300 5 -500 40 -315 55
-582 161 -813 323 -89 62 -107 86 -142 192 -38 115 -55 210 -66 374 -26 386
37 664 211 925 141 210 222 265 470 320 102 23 117 22 223 -24z m3475 -345
c52 -24 49 -30 -28 -55 -44 -14 -70 -33 -126 -89 -63 -63 -74 -81 -105 -163
-21 -58 -37 -87 -42 -80 -6 8 -7 5 -3 -6 3 -10 -1 -57 -9 -104 -31 -177 -14
-428 36 -543 44 -100 128 -183 203 -200 l31 -7 -37 -17 c-21 -9 -64 -16 -96
-16 -103 0 -164 38 -230 143 -83 132 -104 258 -91 539 9 198 36 328 90 428 54
102 127 174 193 191 48 13 164 1 214 -21z m120 -114 c36 -19 58 -44 76 -88
l16 -37 -43 25 c-95 54 -174 13 -261 -137 -84 -146 -99 -475 -30 -630 28 -63
87 -124 129 -135 13 -3 43 -4 65 -2 22 2 40 0 40 -5 0 -21 -69 -77 -94 -77
-40 0 -114 39 -140 74 -36 47 -74 129 -91 193 -38 141 -28 399 20 550 49 156
163 273 273 282 7 1 25 -5 40 -13z m44 -219 c48 -48 69 -115 75 -234 7 -124
-10 -250 -43 -320 -59 -125 -164 -152 -213 -55 -34 68 -44 138 -38 261 9 163
37 251 109 344 37 47 66 48 110 4z m416 -613 c15 -3 34 -8 42 -11 8 -3 22 -7
30 -8 28 -3 115 -38 133 -53 10 -9 17 -29 17 -50 0 -19 14 -78 32 -131 31 -94
32 -99 32 -291 1 -165 -2 -203 -18 -250 -29 -86 -84 -189 -127 -241 l-39 -46
-57 13 c-32 8 -109 14 -171 14 l-113 0 6 35 c3 19 7 51 10 70 11 69 5 292 -9
376 -9 47 -30 140 -47 205 -54 201 -54 203 -36 264 9 30 26 70 37 88 l21 34
115 -6 c64 -3 128 -9 142 -12z m362 -120 c111 -53 320 -201 382 -271 22 -24
35 -83 20 -83 -6 0 -51 33 -100 74 -127 106 -174 138 -287 193 -134 67 -145
74 -145 100 0 34 41 30 130 -13z m-5409 -259 c28 -63 64 -101 178 -189 102
-78 308 -192 446 -246 44 -18 82 -33 84 -35 2 -2 -12 -32 -32 -67 -108 -196
-159 -539 -109 -736 10 -40 16 -71 13 -70 -285 136 -407 205 -458 260 -29 31
-47 166 -41 307 6 121 38 231 108 370 42 86 47 101 28 101 -18 0 -114 77 -205
164 l-83 79 -16 -38 c-23 -55 -34 -178 -34 -379 0 -145 4 -193 19 -250 24 -88
33 -153 21 -140 -25 26 -64 125 -76 197 -13 69 -13 115 -4 281 7 122 17 217
27 245 23 70 93 191 110 191 2 0 13 -20 24 -45z m5901 -81 c78 -50 221 -114
278 -125 l58 -11 7 -77 c12 -128 7 -379 -10 -466 -18 -95 -41 -167 -68 -215
-11 -19 -34 -59 -50 -88 -32 -58 -108 -145 -167 -192 l-39 -31 -53 33 c-101
61 -271 196 -289 229 -8 16 -5 24 19 44 63 53 137 184 181 318 54 169 72 270
78 455 3 83 7 152 10 152 2 0 22 -12 45 -26z m678 -61 c36 -33 88 -164 127
-323 43 -172 35 -409 -19 -580 -65 -205 -239 -420 -339 -420 -45 0 -36 25 35
98 35 37 82 96 104 130 47 72 114 237 133 327 20 90 17 350 -5 459 -20 104
-63 243 -76 251 -6 4 -22 -2 -38 -13 -51 -36 -114 -53 -182 -50 -54 2 -65 6
-68 22 -5 24 10 33 72 41 28 3 87 23 131 45 44 21 83 39 87 39 4 1 21 -11 38
-26z m-7310 -99 c0 -39 -42 -86 -151 -169 -55 -42 -106 -89 -114 -105 -25 -49
-20 -157 11 -218 30 -61 75 -102 112 -102 38 0 169 79 244 147 129 119 128
118 128 83 0 -25 9 -25 26 -2 23 30 16 -7 -7 -40 -60 -83 -277 -247 -361 -272
-47 -14 -54 -13 -88 4 -49 25 -116 100 -146 163 -19 41 -24 69 -24 130 0 119
23 154 184 282 174 138 186 144 186 99z m4008 -76 c-7 -25 -119 -72 -179 -76
-91 -7 -79 18 29 56 92 33 156 41 150 20z m1108 -266 c8 -171 3 -202 -43 -253
-28 -30 -43 -39 -68 -39 -39 0 -85 35 -121 91 -33 53 -31 81 11 121 46 44 130
187 157 268 l22 65 17 -56 c11 -35 20 -111 25 -197z m-5047 181 c10 -21 31
-49 45 -62 14 -14 26 -30 26 -37 0 -40 -237 -230 -277 -222 -29 5 -63 66 -63
113 0 39 4 45 41 70 67 44 186 143 193 160 8 22 14 19 35 -22z m3688 -31 c44
-66 56 -93 92 -202 55 -167 71 -261 71 -416 0 -213 11 -193 -144 -249 -208
-75 -307 -103 -457 -129 l-36 -6 9 57 c23 141 -41 639 -97 756 l-16 33 -72
-18 c-116 -30 -323 -59 -439 -61 l-106 -2 4 -190 c5 -204 21 -523 31 -619 l6
-59 -229 6 c-126 3 -240 8 -254 10 -14 3 -55 8 -92 12 l-66 6 -16 67 c-9 37
-23 129 -31 205 -21 193 -3 372 56 570 l22 69 42 -6 c23 -4 150 -8 281 -10
242 -4 416 7 626 39 57 9 126 18 153 21 28 3 59 9 70 14 11 5 63 18 115 30 52
11 165 43 250 70 85 26 164 49 175 49 13 1 31 -15 52 -47z m-2149 -96 c68 -20
160 -40 205 -46 148 -19 147 -18 147 -45 0 -32 -23 -38 -112 -30 -126 12 -384
79 -415 109 -18 16 12 59 35 52 10 -3 72 -21 140 -40z m-2067 -154 c5 -94 47
-190 109 -246 22 -20 40 -40 40 -45 0 -10 -125 -72 -185 -92 -59 -20 -242 -18
-280 3 -50 27 -86 73 -111 142 -31 85 -31 121 0 149 27 26 182 90 386 160 35
12 38 7 41 -71z m4818 -115 c-1 -61 4 -84 30 -140 42 -94 134 -222 184 -255
68 -46 68 -45 4 20 -54 54 -66 75 -95 153 -36 100 -52 175 -52 243 l0 45 43
-6 c23 -3 81 -17 129 -30 92 -26 117 -41 260 -163 46 -39 139 -112 208 -164
117 -86 149 -118 150 -147 0 -14 -169 -104 -238 -127 -53 -18 -149 -23 -202
-11 -19 4 -65 22 -101 40 -218 110 -385 323 -405 517 -9 88 -4 98 46 98 l40 0
-1 -73z m-3691 -306 c12 -11 22 -24 22 -29 0 -27 -365 -334 -581 -488 -325
-232 -418 -303 -482 -367 -21 -21 -40 -37 -43 -35 -2 3 8 28 22 56 54 108 256
308 519 514 66 52 203 160 304 241 194 156 187 152 239 108z m195 -160 c31
-19 37 -28 33 -45 -4 -12 -15 -79 -26 -151 -11 -71 -27 -166 -35 -210 -8 -44
-22 -141 -31 -215 -19 -155 -27 -185 -50 -176 -9 3 -26 9 -39 12 -13 3 -26 12
-29 19 -7 19 36 305 78 520 19 99 38 202 41 228 4 27 9 47 13 45 4 -2 24 -14
45 -27z m4513 -208 c157 -125 401 -373 453 -459 22 -39 41 -81 41 -94 0 -22
-6 -18 -52 33 -56 63 -248 221 -507 417 l-163 124 36 33 c20 18 46 33 60 33
15 0 64 -32 132 -87z m-3990 -18 c228 -72 531 -142 694 -159 120 -13 392 -17
540 -7 164 10 587 66 730 96 61 12 351 95 396 112 8 3 14 -18 19 -59 3 -35 17
-117 30 -183 13 -66 27 -147 30 -180 l7 -60 -69 -1 c-89 -1 -167 -31 -233 -91
-61 -54 -72 -74 -80 -133 -6 -50 13 -44 -165 -53 l-80 -4 -38 43 c-43 49 -89
68 -165 66 -65 -1 -120 -27 -147 -70 -18 -29 -25 -31 -74 -32 -51 0 -57 3
-106 49 -86 81 -103 84 -545 85 -368 1 -376 1 -425 -22 -29 -12 -69 -43 -95
-72 l-45 -49 -132 11 -131 11 -7 43 c-8 57 -72 145 -130 179 -32 18 -45 31
-41 43 2 9 8 42 11 72 12 96 91 410 103 410 3 0 70 -20 148 -45z m3152 -388
c6 2 19 -23 27 -55 9 -31 18 -62 20 -68 6 -19 -9 -31 -47 -42 l-38 -10 0 78
c0 42 3 93 7 111 6 33 7 33 13 9 4 -14 12 -24 18 -23z m-3475 -173 c53 -27
107 -74 107 -93 0 -10 -8 -26 -19 -35 -31 -29 -69 -126 -81 -213 -8 -51 -10
-152 -8 -265 5 -194 20 -264 69 -331 24 -33 19 -54 -16 -67 -54 -21 -117 -12
-169 23 -121 79 -176 250 -176 542 0 180 48 338 122 400 65 55 117 66 171 39z
m2805 -30 c69 -46 106 -105 131 -213 36 -150 46 -304 34 -498 -13 -200 -28
-247 -108 -332 -102 -109 -240 -103 -339 15 l-26 32 25 43 c42 73 64 162 76
307 17 215 -6 384 -72 513 -16 32 -29 65 -29 73 0 15 70 64 130 91 51 23 114
12 178 -31z m-3150 -109 c6 -5 -29 -79 -40 -86 -18 -11 -23 -293 -8 -386 6
-41 9 -77 6 -80 -13 -13 -66 40 -75 75 -15 61 -22 238 -15 388 l7 141 61 -24
c34 -14 62 -26 64 -28z m4002 -107 c15 -191 11 -353 -10 -385 -34 -53 -278
-123 -475 -138 l-90 -7 0 99 c0 225 -10 398 -23 408 -8 6 -14 26 -15 45 -2 35
-2 35 43 36 109 4 269 33 430 78 138 39 125 52 140 -136z m-2219 112 c38 -7
63 -20 87 -42 66 -65 117 -220 128 -389 6 -92 3 -117 -20 -211 -43 -179 -107
-277 -193 -295 -21 -4 -182 -8 -358 -8 -354 0 -370 3 -436 62 -54 49 -77 118
-88 261 -10 141 -10 161 0 328 5 81 15 148 25 173 19 47 83 107 129 120 42 13
661 13 726 1z m556 -35 c13 -9 27 -33 33 -53 5 -21 11 -186 12 -374 3 -401 6
-388 -96 -388 l-64 0 16 43 c12 33 16 103 20 347 2 172 -1 331 -6 365 -6 33
-8 63 -5 68 8 13 68 8 90 -8z m-1667 -96 c69 -7 129 -15 133 -19 5 -4 5 -24 2
-44 -6 -30 -12 -36 -34 -37 -25 -2 -25 -2 -2 -6 l24 -5 -6 -111 c-3 -62 -2
-168 2 -237 4 -69 7 -127 5 -130 -4 -8 -187 7 -256 21 -32 7 -62 17 -68 24
-13 16 -25 312 -16 398 6 52 11 67 24 68 14 1 14 2 -2 6 -14 4 -17 11 -12 35
3 17 6 37 6 46 0 11 8 13 38 9 20 -4 93 -12 162 -18z m2130 -8 c0 -5 3 -23 6
-40 5 -26 3 -31 -12 -32 -16 -1 -16 -2 -3 -6 10 -2 20 -14 23 -26 8 -29 8
-348 0 -413 l-6 -52 -52 -5 c-28 -4 -99 -9 -158 -13 l-106 -7 1 189 c1 104 0
236 -2 294 l-4 105 59 6 c97 9 254 10 254 0z m-653 -228 c-4 -124 -7 -262 -7
-305 l0 -78 -46 0 -46 0 6 38 c4 20 8 57 11 82 3 25 13 69 22 99 15 50 15 59
0 135 -10 44 -17 97 -17 117 0 20 -6 49 -14 65 -35 72 -34 74 35 74 l62 0 -6
-227z m1773 -485 c-34 -166 -117 -413 -182 -542 -82 -163 -202 -322 -321 -427
-189 -165 -430 -290 -697 -358 -271 -70 -318 -76 -635 -75 -211 0 -324 5 -415
17 -147 20 -392 82 -522 133 -347 135 -640 368 -838 668 -92 140 -191 356
-243 531 l-15 50 69 -67 c50 -48 71 -76 75 -100 10 -53 127 -284 202 -398 201
-303 433 -485 801 -627 237 -91 453 -131 771 -140 238 -7 402 6 570 43 327 73
536 158 724 297 255 189 388 389 510 766 33 102 86 335 86 378 0 14 10 21 43
29 37 8 42 7 45 -9 2 -10 -11 -86 -28 -169z m-3180 6 l85 -7 33 -53 c37 -60
75 -93 148 -126 48 -23 54 -23 424 -22 358 1 378 2 431 23 63 24 132 79 155
122 12 24 21 29 53 29 30 0 40 -5 51 -26 22 -40 95 -78 149 -78 70 1 120 22
179 78 41 38 62 51 86 52 17 0 65 2 106 4 l74 3 15 -59 c12 -50 23 -68 75
-120 65 -65 106 -91 173 -108 l42 -11 -30 -58 c-82 -161 -206 -308 -347 -415
-111 -83 -186 -124 -327 -180 -172 -68 -229 -77 -485 -76 -258 1 -333 12 -499
74 -130 49 -204 91 -333 187 -128 95 -207 176 -310 317 -70 96 -177 290 -178
321 0 6 16 32 35 59 19 27 35 58 35 69 0 17 5 19 38 13 21 -3 76 -8 122 -12z
m3385 -219 c93 -69 145 -127 145 -163 0 -61 -99 -173 -245 -277 -83 -60 -275
-160 -294 -154 -7 3 1 21 16 43 22 31 50 49 132 88 58 27 138 73 178 104 73
55 142 135 143 165 0 27 -33 61 -124 128 -87 65 -97 81 -76 122 13 24 24 19
125 -56z m-550 -975 c327 -39 488 -76 630 -145 153 -74 229 -169 229 -285 1
-95 -58 -159 -160 -175 l-40 -7 -12 61 c-17 93 -63 166 -134 212 -62 40 -155
79 -187 79 -33 0 -35 -33 -4 -58 89 -73 138 -119 163 -154 32 -43 55 -126 46
-162 -9 -36 -54 -85 -95 -103 -74 -32 -302 -16 -666 48 -118 20 -470 111 -544
139 -136 53 -281 164 -281 217 0 7 17 15 38 18 20 4 132 33 247 66 233 66 358
121 490 213 44 31 86 56 95 56 8 0 92 -9 185 -20z m-2749 -45 c223 -139 596
-257 889 -281 47 -4 85 -11 85 -16 0 -42 -82 -124 -165 -166 -126 -62 -467
-149 -760 -192 -71 -11 -184 -29 -250 -40 -190 -33 -341 -11 -395 58 -31 39
-27 115 10 178 28 49 112 128 193 182 55 37 46 58 -22 54 -67 -3 -151 -46
-220 -112 -60 -58 -87 -108 -96 -183 -4 -31 -11 -57 -16 -57 -26 0 -109 36
-141 62 -44 34 -63 84 -54 145 21 158 157 270 402 333 137 36 186 46 269 55
33 4 78 11 100 15 78 15 96 11 171 -35z m1575 -320 c4 -16 10 -38 14 -47 7
-17 -9 -18 -249 -18 -141 0 -256 3 -256 8 0 4 5 24 10 44 l11 38 172 3 c304 5
290 7 298 -28z"/>
<path d="M3495 9080 c-189 -28 -334 -69 -460 -130 -174 -84 -260 -163 -324
-300 -23 -49 -26 -67 -26 -165 0 -97 3 -116 25 -160 54 -108 172 -161 355
-159 386 2 750 209 890 505 44 94 53 166 31 242 -21 72 -61 118 -128 148 -45
19 -73 23 -178 25 -69 2 -152 -1 -185 -6z m205 -105 c0 -8 -55 -83 -122 -168
-68 -84 -192 -242 -276 -351 l-154 -197 -74 3 c-41 1 -74 6 -74 11 0 5 33 48
73 95 170 201 254 304 337 412 49 64 108 137 133 163 42 45 45 47 100 47 43 0
57 -3 57 -15z m-369 -62 c-25 -49 -82 -124 -337 -443 -125 -157 -132 -164
-150 -149 -9 7 -27 32 -41 56 -22 38 -25 53 -21 111 10 189 177 349 452 433
120 37 120 37 97 -8z"/>
<path d="M4945 9021 c-83 -30 -129 -57 -168 -100 -107 -119 -122 -270 -42
-438 94 -199 346 -358 705 -445 207 -49 350 -45 474 16 147 72 233 232 224
412 -12 235 -199 393 -602 510 -216 62 -485 82 -591 45z m265 -89 c0 -5 -45
-64 -101 -133 -55 -68 -125 -155 -154 -194 -66 -84 -105 -129 -109 -124 -36
41 -67 179 -55 243 28 150 125 214 327 215 50 1 92 -3 92 -7z m252 -47 c37 -8
79 -20 93 -25 l26 -10 -22 -33 c-13 -17 -113 -142 -224 -276 -110 -134 -205
-249 -211 -257 -16 -20 -24 -18 -90 25 -78 50 -90 66 -78 96 13 35 257 347
338 433 45 47 74 71 85 67 9 -2 46 -11 83 -20z m306 -163 c-42 -62 -262 -335
-354 -439 -40 -45 -76 -89 -81 -98 -8 -14 -12 -14 -39 0 -16 8 -35 15 -41 15
-23 0 -14 18 40 82 29 35 86 106 127 158 41 52 126 157 188 232 l114 137 39
-20 40 -20 -33 -47z"/>
<path d="M4388 8823 c6 -2 18 -2 25 0 6 3 1 5 -13 5 -14 0 -19 -2 -12 -5z"/>
<path d="M6457 7868 c-2 -13 -8 -31 -12 -40 -5 -13 -3 -18 9 -18 12 0 16 10
16 40 0 45 -5 52 -13 18z"/>
<path d="M6720 7813 c0 -4 14 -16 30 -25 39 -22 39 -15 0 12 -16 12 -30 18
-30 13z"/>
<path d="M6960 7626 c0 -2 8 -10 18 -17 15 -13 16 -12 3 4 -13 16 -21 21 -21
13z"/>
<path d="M7135 7460 c21 -22 41 -40 44 -40 3 0 -13 18 -34 40 -21 22 -41 40
-44 40 -3 0 13 -18 34 -40z"/>
<path d="M3487 7060 c-47 -26 -82 -79 -97 -150 -18 -83 -8 -401 14 -461 57
-155 206 -115 264 70 14 45 17 94 17 246 0 173 -2 194 -21 229 -40 77 -109
102 -177 66z m97 -76 c45 -46 33 -119 -25 -149 -28 -15 -33 -15 -62 2 -56 33
-61 94 -13 146 32 34 66 34 100 1z"/>
<path d="M5093 7055 c-79 -48 -109 -165 -100 -395 6 -145 24 -211 69 -264 27
-31 41 -39 78 -43 129 -14 200 149 186 428 -8 174 -40 255 -112 285 -47 20
-73 17 -121 -11z m119 -78 c21 -26 23 -95 4 -119 -35 -47 -99 -41 -139 13 -17
23 -18 31 -7 63 24 74 101 97 142 43z"/>
<path d="M4169 6530 c-192 -30 -432 -166 -460 -260 -11 -35 -9 -44 15 -95 29
-58 104 -128 177 -165 28 -15 41 -31 55 -67 25 -65 103 -181 148 -221 20 -17
60 -44 89 -59 45 -23 64 -27 142 -27 86 -1 95 1 169 37 95 48 206 154 264 254
61 105 152 287 152 304 0 9 -10 25 -23 37 -28 26 -440 226 -508 246 -67 20
-153 26 -220 16z m144 -105 c62 -16 437 -200 437 -214 0 -26 -221 -113 -345
-136 -65 -13 -116 -16 -185 -11 -108 6 -146 15 -245 58 -77 33 -109 58 -132
101 -13 26 -13 31 2 47 50 55 226 134 356 159 24 5 46 9 49 10 3 1 31 -6 63
-14z m329 -472 c-103 -151 -253 -231 -365 -194 -45 15 -117 67 -117 84 0 11
11 12 55 4 64 -12 98 -1 158 52 30 27 137 71 171 71 6 0 38 13 71 29 33 15 61
24 63 20 2 -4 -14 -34 -36 -66z"/>
<path d="M4613 6173 c9 -2 23 -2 30 0 6 3 -1 5 -18 5 -16 0 -22 -2 -12 -5z"/>
<path d="M3121 6239 c-67 -11 -107 -35 -122 -72 -10 -24 -9 -32 8 -55 37 -51
86 -67 208 -67 123 0 168 16 194 69 12 25 11 31 -6 55 -42 58 -165 88 -282 70z"/>
<path d="M5445 6241 c-91 -15 -163 -70 -149 -115 10 -35 59 -77 100 -86 141
-33 344 30 344 106 0 25 -50 71 -88 82 -55 17 -147 22 -207 13z"/>
<path d="M1143 4930 c-24 -10 -43 -21 -43 -24 0 -3 19 3 43 13 23 10 49 21 57
24 13 5 13 5 0 6 -8 0 -34 -8 -57 -19z"/>
<path d="M6522 4917 c-44 -47 -12 -112 61 -124 29 -4 37 -2 47 16 17 32 15 76
-4 105 -22 34 -74 36 -104 3z"/>
<path d="M2915 3437 c-22 -11 -46 -22 -54 -23 -25 -5 -34 -22 -47 -91 -10 -49
-10 -75 -3 -94 13 -32 51 -55 76 -44 10 5 21 7 26 7 4 -1 7 31 8 71 1 100 17
134 20 42 l2 -70 8 95 c13 133 13 133 -36 107z"/>
<path d="M2932 3160 c0 -14 2 -19 5 -12 2 6 2 18 0 25 -3 6 -5 1 -5 -13z"/>
<path d="M2942 3050 c-2 -86 16 -186 43 -240 13 -27 29 -51 35 -55 5 -3 -1 16
-14 42 -34 67 -46 114 -55 218 -7 72 -9 79 -9 35z"/>
<path d="M5662 3515 c0 -16 2 -22 5 -12 2 9 2 23 0 30 -3 6 -5 -1 -5 -18z"/>
<path d="M5788 3351 c-22 -22 -23 -63 -2 -107 19 -39 44 -57 64 -44 10 6 11
25 6 80 -3 40 -9 76 -12 81 -9 14 -38 9 -56 -10z"/>
<path d="M5912 3260 c0 -14 2 -19 5 -12 2 6 2 18 0 25 -3 6 -5 1 -5 -13z"/>
<path d="M6538 3483 c12 -2 32 -2 45 0 12 2 2 4 -23 4 -25 0 -35 -2 -22 -4z"/>
<path d="M6201 3254 c-12 -15 -21 -36 -21 -48 0 -28 33 -64 67 -72 38 -10 77
36 69 79 -14 68 -77 90 -115 41z"/>
<path d="M3875 3470 c-44 -3 -91 -12 -103 -19 -32 -17 -52 -69 -52 -135 0 -39
-5 -59 -16 -68 -65 -53 -64 -50 -64 -157 l0 -101 34 -14 c33 -14 35 -18 42
-75 8 -71 31 -113 76 -138 30 -16 63 -18 340 -18 295 0 308 1 335 21 137 101
152 546 23 669 -19 18 -46 31 -77 36 -56 9 -422 9 -538 -1z m540 -121 c47 -47
66 -298 32 -411 -27 -90 -22 -88 -312 -87 -137 1 -261 4 -275 8 -18 5 -26 16
-32 46 -10 46 -5 50 63 58 101 12 199 92 199 162 0 72 -67 123 -195 147 l-65
13 0 37 c0 34 2 37 33 41 17 2 145 4 284 3 216 -1 255 -3 268 -17z m-481 -198
c25 -21 15 -54 -19 -70 -30 -15 -246 -23 -259 -10 -3 3 -3 27 0 54 l7 47 127
-4 c89 -2 133 -8 144 -17z"/>
<path d="M4286 3159 c-38 -30 -36 -79 5 -113 37 -32 63 -33 83 -4 24 34 20 85
-9 113 -29 30 -45 31 -79 4z"/>
<path d="M3221 3207 c-6 -8 -14 -28 -17 -45 -5 -26 -1 -36 24 -62 37 -37 51
-37 82 -5 46 49 19 125 -45 125 -18 0 -38 -6 -44 -13z"/>
<path d="M5299 3190 c-37 -36 -37 -69 -1 -103 38 -37 68 -35 92 6 25 40 25 58
0 89 -30 39 -58 42 -91 8z"/>
<path d="M7085 1140 c3 -5 8 -10 11 -10 2 0 4 5 4 10 0 6 -5 10 -11 10 -5 0
-7 -4 -4 -10z"/>
<path d="M643 8220 c-33 -13 -31 -59 5 -92 43 -40 73 -56 129 -68 49 -11 52
-13 72 -63 56 -143 111 -301 111 -319 0 -18 -4 -19 -52 -11 -97 15 -160 10
-195 -15 -36 -25 -52 -66 -36 -91 26 -41 68 -55 447 -142 121 -28 232 -57 247
-65 16 -8 38 -14 49 -14 12 0 20 -3 18 -7 -2 -5 -10 -21 -18 -36 l-14 -28 -15
33 c-14 28 -22 34 -54 36 -48 4 -117 -34 -146 -82 -42 -68 -19 -171 46 -201
70 -33 162 16 184 98 20 73 30 94 58 121 27 26 28 26 82 13 64 -17 105 -63 94
-107 -4 -14 -9 -46 -12 -71 -4 -39 -1 -50 22 -77 78 -93 218 -15 185 104 -20
69 -79 114 -114 84 -12 -9 -17 -5 -25 27 -20 72 -22 71 183 32 160 -31 228
-27 274 14 47 43 12 87 -90 113 -38 9 -68 20 -68 24 0 4 11 23 24 43 40 59
156 257 156 266 0 5 32 11 70 13 56 3 75 8 92 26 l22 22 -24 25 c-34 34 -101
56 -320 105 -102 23 -225 52 -275 65 -848 216 -1039 254 -1112 225z m182 -75
c28 -4 132 -26 231 -51 100 -24 269 -62 375 -84 180 -37 222 -51 207 -66 -11
-10 -359 60 -678 136 -91 22 -170 40 -177 40 -6 0 -24 4 -38 10 -31 12 -24 32
8 26 12 -3 45 -8 72 -11z m232 -154 l131 -26 23 -85 c12 -47 24 -90 26 -96 2
-5 -28 -44 -66 -85 -60 -63 -73 -72 -88 -63 -31 19 -81 115 -128 243 -24 68
-50 130 -57 139 -11 14 -10 15 7 8 11 -5 79 -20 152 -35z m335 -67 c62 -14
116 -29 121 -33 13 -13 -73 -52 -126 -58 l-53 -5 -23 51 c-12 28 -23 51 -25
51 -2 0 2 -25 9 -55 11 -51 6 -79 -13 -61 -8 9 -16 136 -8 136 3 0 56 -12 118
-26z m413 -15 c17 -5 68 -16 115 -24 120 -20 322 -64 329 -70 11 -11 -136 7
-256 31 -80 17 -146 24 -190 22 l-68 -3 -3 33 c-4 37 -9 36 73 11z m-42 -111
c45 -53 86 -129 93 -174 8 -52 -17 -143 -50 -181 -20 -24 -26 -25 -40 -14 -22
18 -20 39 9 86 32 52 33 116 2 169 -34 59 -69 81 -132 81 -47 0 -58 -4 -88
-33 -38 -37 -57 -88 -57 -154 0 -28 -6 -50 -15 -58 -8 -7 -19 -27 -24 -44 -5
-19 -10 -25 -13 -16 -3 8 -10 31 -17 51 -14 44 -14 132 0 182 11 42 58 100
104 129 25 16 43 19 115 15 81 -5 86 -6 113 -39z m248 -18 c56 -11 105 -22
108 -26 3 -3 -2 -11 -11 -17 -90 -63 -168 -123 -168 -129 0 -4 -4 -8 -9 -8 -4
0 -11 20 -14 44 -6 39 -20 88 -42 139 -9 23 7 22 136 -3z m-626 -37 c-16 -36
-34 -116 -37 -154 -1 -23 -6 -38 -12 -36 -6 2 -36 12 -66 21 -30 10 -61 19
-68 22 -30 9 44 99 118 143 44 26 75 28 65 4z m693 -80 c-11 -27 -33 -66 -48
-88 -15 -22 -37 -60 -50 -85 -12 -25 -24 -46 -25 -48 -1 -2 -14 0 -29 4 -34 8
-34 32 0 90 19 33 157 173 171 174 1 0 -8 -21 -19 -47z m-381 -5 c31 -29 30
-71 -1 -96 l-25 -19 30 -44 c32 -49 44 -96 35 -135 -5 -20 -12 -25 -34 -22
-32 4 -39 27 -41 130 -1 53 -5 70 -19 80 -41 29 -53 79 -25 110 22 24 52 23
80 -4z m-747 -78 c85 -16 211 -42 280 -58 120 -27 125 -29 128 -55 l3 -26 -43
14 c-77 24 -401 94 -471 101 -72 7 -86 16 -67 39 7 8 13 15 14 15 0 0 71 -13
156 -30z m634 -97 c-40 -106 -39 -101 -8 -105 15 -2 29 -9 31 -15 3 -9 -5 -9
-31 2 -19 8 -43 15 -52 15 -27 0 -54 30 -54 60 0 28 35 67 85 93 53 28 57 22
29 -50z m381 -123 c105 -22 125 -29 125 -42 0 -11 -48 -6 -175 18 -44 9 -84
20 -89 24 -14 14 5 32 28 26 11 -4 62 -15 111 -26z m-615 -110 c19 -26 20 -35
11 -62 -25 -70 -73 -89 -110 -42 -29 37 -26 61 13 100 42 42 59 43 86 4z m442
-115 c21 -46 -36 -97 -70 -63 -19 19 -14 55 10 72 31 22 47 20 60 -9z"/>
<path d="M9340 8019 c-557 -136 -911 -223 -1020 -254 -69 -19 -161 -43 -205
-55 -513 -131 -585 -156 -585 -200 0 -38 43 -53 131 -48 l80 5 56 -111 c30
-61 63 -122 72 -136 10 -14 27 -42 40 -62 l22 -37 -43 -10 c-114 -28 -181 -64
-191 -102 -8 -29 37 -73 92 -90 35 -10 61 -9 164 6 156 23 161 23 230 -10 63
-29 73 -42 63 -80 -6 -22 -12 -25 -52 -25 -39 0 -51 -5 -80 -34 -31 -31 -34
-39 -34 -91 0 -53 3 -60 39 -96 43 -44 88 -51 141 -24 65 34 90 96 65 168 -12
37 -14 55 -5 86 10 39 11 39 68 44 31 3 69 8 83 12 23 6 30 1 62 -47 32 -45
37 -61 37 -107 0 -60 19 -97 73 -140 44 -36 121 -40 166 -9 46 32 71 82 71
144 0 68 -45 138 -110 171 -56 28 -88 29 -116 2 l-22 -20 -11 32 c-16 46 -16
46 42 52 28 4 90 13 137 22 47 9 130 22 185 30 105 16 331 67 403 92 75 26 91
97 35 164 -32 38 -73 59 -115 59 -32 0 -169 -22 -224 -36 l-27 -7 32 54 c60
102 134 254 167 347 45 124 50 132 80 132 14 0 60 12 102 26 124 41 182 85
182 137 0 39 -49 87 -87 86 -15 0 -102 -18 -193 -40z m185 -60 c-9 -13 -34
-23 -185 -69 -307 -93 -377 -111 -469 -124 -54 -8 -143 -26 -197 -41 -55 -15
-144 -38 -199 -51 -55 -13 -121 -30 -147 -38 -40 -12 -48 -13 -58 -1 -7 8 -9
19 -5 24 8 15 179 67 295 90 52 11 133 28 180 39 353 83 463 109 590 142 151
40 206 48 195 29z m-329 -252 c-24 -63 -125 -270 -173 -354 l-25 -43 -51 53
c-29 29 -65 62 -82 73 l-30 21 33 114 c18 63 32 120 32 127 0 7 13 12 33 12
41 0 259 49 271 61 19 17 16 1 -8 -64z m-376 -142 c-12 -52 -25 -95 -30 -95
-19 0 -40 13 -40 26 0 29 52 174 68 190 16 17 17 17 20 -4 2 -13 -6 -65 -18
-117z m-80 100 c0 -11 -39 -145 -44 -154 -11 -16 -226 50 -226 70 0 4 26 16
58 25 31 9 89 27 127 40 77 25 85 26 85 19z m-566 -47 c25 -40 46 -118 52
-192 6 -60 4 -74 -11 -86 -27 -22 -44 -3 -86 100 -40 100 -45 132 -29 174 12
34 54 35 74 4z m-154 -23 c0 -8 -1 -15 -2 -15 -2 0 -41 -7 -88 -15 -164 -29
-202 -13 -55 23 102 25 145 27 145 7z m413 -81 c148 -76 218 -196 196 -336 -6
-35 -21 -82 -35 -106 l-25 -43 -31 61 c-25 51 -29 68 -24 104 17 108 -83 242
-199 266 -35 7 -43 30 -20 54 21 21 96 21 138 0z m-396 -41 c25 -61 28 -117 8
-145 l-18 -23 -31 25 c-61 50 -159 150 -153 156 6 7 98 20 150 23 23 1 31 -5
44 -36z m678 -55 c33 -11 80 -32 104 -46 49 -28 101 -94 101 -127 0 -19 -9
-24 -76 -39 -41 -9 -88 -23 -104 -31 -16 -8 -31 -15 -33 -15 -2 0 -3 29 -3 65
0 55 -6 76 -40 145 -28 55 -36 79 -25 74 9 -3 43 -15 76 -26z m-706 -187 c14
-43 14 -91 1 -91 -24 0 -64 57 -116 163 -29 61 -54 115 -54 118 0 18 159 -161
169 -190z m144 16 c-5 -71 -5 -72 32 -120 41 -51 91 -87 122 -87 11 0 41 -11
66 -24 l45 -24 -8 28 c-4 16 -20 55 -35 88 -15 33 -24 65 -21 71 16 26 166
-119 166 -160 0 -17 -39 -39 -68 -39 -9 0 -26 -7 -36 -15 -27 -21 -86 -19
-149 5 -107 40 -191 175 -172 276 6 36 42 87 55 79 5 -3 6 -38 3 -78z m190 43
c31 -34 34 -65 11 -98 -18 -26 -44 -28 -84 -7 -27 14 -30 20 -30 64 0 27 3 57
6 66 10 25 63 11 97 -25z m988 -91 c44 -31 37 -43 -20 -35 -37 5 -67 1 -127
-18 -44 -14 -110 -30 -149 -36 -38 -6 -116 -20 -173 -30 -124 -24 -182 -26
-182 -6 0 24 23 34 105 45 78 11 157 28 345 75 124 30 164 31 201 5z m-1271
-144 c7 -9 10 -18 7 -22 -11 -10 -201 -52 -240 -53 -50 0 -45 20 9 38 30 10
158 42 205 51 4 0 12 -6 19 -14z m721 -264 c72 -73 -9 -197 -87 -133 -50 40
-56 86 -18 131 33 40 66 40 105 2z m-539 -70 c29 -26 31 -31 20 -55 -14 -30
-55 -44 -78 -25 -28 23 -36 59 -19 85 20 31 38 30 77 -5z"/>
<path d="M1328 6698 c-8 -7 -20 -38 -27 -68 -6 -30 -15 -61 -20 -69 -5 -7 -42
-21 -82 -30 -68 -15 -74 -19 -77 -43 -3 -23 1 -28 25 -33 15 -4 53 -14 83 -23
l55 -17 13 -55 c14 -61 46 -98 68 -79 7 6 18 34 24 64 13 64 30 81 95 95 78
17 85 20 85 39 0 27 -18 37 -89 50 -36 6 -68 16 -72 22 -4 6 -10 34 -13 61
-12 91 -31 115 -68 86z"/>
<path d="M8404 3828 c-6 -21 -26 -45 -56 -67 l-45 -34 41 -22 c24 -13 49 -36
61 -58 11 -20 23 -37 27 -37 4 0 16 17 27 38 12 23 33 44 55 55 20 9 36 20 36
25 0 5 -15 16 -34 24 -24 12 -39 29 -52 62 -23 55 -47 60 -60 14z"/>
<path d="M8130 3189 c-80 -14 -170 -61 -224 -118 -41 -45 -46 -55 -46 -96 0
-39 4 -47 25 -57 23 -10 29 -6 92 59 87 89 137 107 281 101 87 -3 103 -7 155
-36 61 -34 93 -40 121 -19 43 32 -20 109 -121 147 -67 25 -198 34 -283 19z"/>
<path d="M7815 2828 c-55 -5 -150 -7 -211 -4 -78 4 -114 2 -122 -6 -19 -19
-14 -63 9 -84 20 -18 50 -19 877 -20 l857 0 22 23 c28 27 29 44 4 74 l-19 24
-659 1 c-362 0 -703 -3 -758 -8z"/>
<path d="M1442 2497 c-30 -32 -29 -77 3 -107 35 -33 121 -34 162 -4 39 29 43
75 9 109 -22 21 -34 25 -89 25 -53 0 -67 -4 -85 -23z"/>
<path d="M8042 2345 c-39 -32 -41 -63 -8 -95 23 -21 33 -23 166 -24 138 -1
142 0 161 23 24 30 24 62 0 92 -18 23 -26 24 -153 27 -133 3 -135 3 -166 -23z"/>
<path d="M1792 2210 c-19 -4 -57 -21 -85 -36 -49 -27 -61 -29 -192 -34 l-140
-5 -3 -27 c-2 -20 3 -31 22 -43 23 -16 33 -16 123 -1 59 9 243 20 458 27 378
13 386 14 398 60 3 10 -4 30 -15 44 l-19 25 -257 -1 c-141 -1 -272 -5 -290 -9z"/>
<path d="M7643 1935 c-26 -18 -38 -62 -22 -81 9 -11 39 -14 128 -13 151 1 165
5 169 49 5 52 -14 60 -143 60 -81 0 -116 -4 -132 -15z"/>
</g>
</svg>
