<?xml version="1.0" standalone="no"?>
<!DOCTYPE svg PUBLIC "-//W3C//DTD SVG 20010904//EN"
 "http://www.w3.org/TR/2001/REC-SVG-20010904/DTD/svg10.dtd">
<svg version="1.0" xmlns="http://www.w3.org/2000/svg"
 width="1024.000000pt" height="1024.000000pt" viewBox="0 0 1024.000000 1024.000000"
 preserveAspectRatio="xMidYMid meet">
<metadata>
Created by potrace 1.16, written by Peter Selinger 2001-2019
</metadata>
<g transform="translate(0.000000,1024.000000) scale(0.100000,-0.100000)"
fill="#000000" stroke="none">
<path d="M4855 9874 c-124 -22 -353 -99 -472 -158 -211 -106 -438 -276 -721
-542 -218 -204 -300 -267 -437 -334 -173 -86 -254 -105 -440 -105 -170 0 -208
10 -326 87 -40 25 -80 43 -105 46 -37 4 -46 0 -82 -32 -50 -46 -71 -103 -79
-216 -18 -273 117 -519 417 -762 47 -38 123 -87 170 -110 113 -54 115 -55 113
-65 -11 -64 -21 -330 -14 -375 12 -70 21 -87 66 -127 l36 -32 -41 -232 c-87
-491 -77 -454 -176 -628 -48 -85 -147 -244 -219 -354 -207 -315 -283 -451
-371 -665 -67 -164 -98 -332 -75 -402 32 -97 176 -163 414 -189 127 -14 247
-3 344 31 29 10 53 15 53 10 0 -39 47 -262 79 -375 120 -423 288 -755 549
-1085 99 -125 310 -333 395 -390 61 -41 80 -60 59 -60 -17 0 -192 -122 -246
-171 -155 -142 -245 -352 -209 -489 17 -67 62 -139 109 -175 53 -40 152 -83
232 -100 133 -27 624 -16 887 21 311 43 486 173 528 392 l11 59 112 7 c61 3
125 9 141 12 l30 6 6 -63 c17 -160 140 -304 306 -359 93 -31 286 -68 420 -81
186 -18 621 -16 709 4 262 58 375 229 304 462 -49 161 -177 310 -365 425 -59
36 -107 68 -107 72 0 4 37 37 83 73 113 91 329 306 380 378 23 33 60 94 82
136 33 62 44 75 60 71 40 -10 372 -4 435 8 169 31 377 117 517 214 238 164
311 381 137 402 -27 3 -141 8 -254 11 -273 8 -563 25 -571 33 -4 4 13 77 36
163 23 86 50 201 59 255 28 160 18 144 73 127 32 -10 106 -17 220 -20 191 -6
316 9 445 53 189 64 212 138 131 419 -56 197 -194 451 -379 700 -45 61 -145
199 -222 307 -146 205 -148 209 -165 340 l-6 37 70 -54 c40 -31 93 -62 123
-71 92 -29 166 1 166 66 0 52 -30 155 -69 234 -20 42 -32 76 -26 76 20 -1 149
-86 168 -111 15 -21 21 -53 28 -140 12 -178 29 -230 84 -259 22 -12 27 -11 44
4 25 22 59 102 72 168 13 66 12 375 -1 486 -29 231 -119 372 -319 501 l-64 41
-3 69 c-3 76 -25 130 -68 170 l-25 24 60 36 c79 46 231 172 292 242 168 189
236 376 225 612 -5 111 -30 176 -80 207 -50 30 -95 26 -158 -15 -61 -40 -138
-70 -214 -87 -74 -16 -243 -3 -360 27 -220 55 -385 164 -691 455 -334 317
-490 428 -774 549 -164 70 -349 114 -492 115 -90 1 -103 -7 -119 -74 -21 -86
-119 -158 -254 -187 -82 -17 -150 -12 -246 19 -111 36 -158 78 -189 170 -12
35 -26 57 -42 65 -31 16 -103 15 -204 -3z m105 -235 l17 -47 -61 -16 c-82 -23
-266 -96 -357 -141 -117 -58 -363 -229 -494 -343 -314 -273 -373 -322 -488
-404 -294 -212 -560 -300 -819 -270 -168 19 -357 112 -377 186 -4 17 -7 33 -5
35 2 2 34 -13 72 -32 176 -93 461 -98 680 -13 264 102 339 155 722 506 263
241 381 328 580 428 156 78 269 121 390 147 103 22 119 18 140 -36z m1134 22
c163 -40 293 -94 451 -189 100 -60 293 -210 400 -311 55 -52 129 -123 165
-157 216 -205 377 -312 606 -403 140 -55 244 -76 384 -76 134 1 218 22 314 80
63 38 71 40 81 25 9 -14 -19 -57 -58 -89 -109 -93 -195 -123 -357 -123 -192 0
-311 32 -542 149 -165 83 -330 200 -487 346 -403 376 -737 580 -1066 652 -44
10 -81 19 -83 20 -7 6 49 105 59 105 7 0 66 -13 133 -29z m-453 -327 c134 -85
191 -141 236 -232 34 -67 37 -81 41 -180 3 -92 1 -115 -18 -165 -30 -81 -69
-121 -127 -136 -95 -25 -96 -25 -88 -80 8 -60 -6 -77 -72 -87 -36 -5 -49 -3
-58 9 -9 12 -33 15 -113 16 -58 0 -102 -4 -102 -9 0 -6 -22 -10 -49 -10 -64 0
-81 17 -81 81 0 45 -2 49 -27 55 -137 30 -199 103 -218 254 -8 73 15 202 50
270 41 82 117 155 200 195 39 18 78 41 85 50 23 27 49 34 146 34 l90 1 105
-66z m-1117 -378 c37 -16 66 -66 66 -118 0 -18 11 -56 24 -85 76 -163 630
-466 901 -492 46 -5 97 -16 120 -28 22 -11 63 -27 90 -36 92 -30 389 -79 501
-84 l111 -5 22 36 c28 44 57 66 91 66 62 0 150 -93 150 -158 0 -72 -74 -113
-145 -80 -37 17 -55 -6 -64 -82 -9 -75 -40 -110 -96 -110 -42 0 -82 44 -91
101 -4 25 -15 45 -28 54 -11 7 -77 20 -144 29 -124 17 -389 69 -534 106 -110
28 -235 74 -346 127 -54 25 -142 65 -196 89 -107 48 -252 139 -372 236 l-74
60 -47 -16 c-26 -9 -66 -16 -89 -16 -36 0 -47 5 -73 35 -55 63 -32 144 46 160
72 16 72 17 66 99 -6 80 1 100 42 116 28 12 31 12 69 -4z m1922 -21 c24 -24
26 -31 22 -102 l-3 -77 60 -12 c69 -14 95 -39 95 -91 0 -95 -80 -137 -189 -98
-23 8 -49 11 -59 8 -9 -4 -80 -50 -157 -103 -190 -132 -237 -157 -351 -185
-107 -27 -168 -31 -226 -15 -78 22 -62 42 79 103 133 58 342 184 448 270 94
77 125 126 125 200 0 61 13 93 47 111 42 23 80 20 109 -9z m-1940 -771 l54
-55 52 5 c29 3 85 8 123 12 39 3 114 14 167 25 187 36 310 20 340 -46 16 -36
7 -42 -103 -70 -52 -14 -126 -33 -164 -44 -39 -10 -113 -24 -165 -30 -130 -16
-130 -16 -130 -58 0 -112 -93 -169 -170 -104 -33 27 -35 32 -40 107 l-5 79
-63 -4 c-55 -3 -67 0 -88 20 -44 42 -30 128 32 186 56 52 93 47 160 -23z
m1404 -534 c330 -17 565 -45 593 -70 11 -9 -17 -19 -223 -81 -307 -92 -615
-170 -950 -239 -300 -63 -477 -104 -525 -124 -37 -16 -39 -15 -109 19 -114 56
-180 68 -331 62 -145 -6 -220 -22 -313 -69 -61 -31 -65 -31 -110 -18 -26 7
-81 21 -122 30 -75 17 -75 17 -74 49 2 39 72 163 130 229 52 60 75 68 294 111
318 62 588 98 810 109 194 9 676 5 930 -8z m1300 9 c63 -5 179 -21 258 -35 79
-13 147 -24 153 -24 5 0 9 -26 9 -59 l0 -58 -42 8 c-24 5 -95 18 -158 29 -238
42 -325 74 -349 128 -12 26 -22 25 129 11z m-3427 -36 c-10 -16 -22 -31 -28
-35 -6 -5 -4 -8 5 -9 18 -1 -108 -46 -165 -59 -22 -5 -89 -14 -150 -20 -123
-12 -208 -31 -296 -65 l-60 -24 3 72 3 72 75 13 c41 6 143 21 225 32 83 12
188 27 235 34 47 8 104 14 128 15 l42 1 -17 -27z m4207 -30 c26 -33 23 -79 -9
-146 -26 -53 -49 -67 -121 -70 l-55 -2 0 110 0 110 45 12 c79 20 116 16 140
-14z m-1033 -177 c122 -138 218 -394 277 -736 35 -204 43 -296 57 -616 12
-288 2 -710 -22 -919 -30 -270 -83 -554 -132 -714 l-23 -74 -28 72 c-32 83
-85 136 -162 164 -97 34 -143 20 -222 -69 l-49 -57 -104 26 c-57 15 -135 33
-174 42 -38 8 -126 43 -195 76 -69 33 -136 66 -150 73 -20 9 -28 26 -41 78
-19 77 -48 129 -92 162 -44 33 -173 96 -352 173 -273 118 -298 122 -400 72
l-63 -32 -171 87 c-197 100 -276 142 -531 288 -102 58 -277 154 -390 213 -133
71 -240 135 -306 186 -56 42 -112 80 -124 84 -22 7 -23 10 -16 94 4 47 11 156
17 241 12 195 33 355 65 492 13 59 24 121 24 138 0 26 3 30 18 25 11 -3 54
-12 98 -20 43 -9 82 -19 87 -24 5 -5 2 -57 -7 -123 -18 -127 -12 -194 24 -290
92 -245 352 -386 594 -323 109 29 200 81 274 159 118 125 156 236 150 444 l-3
133 25 5 c14 3 66 16 115 29 50 14 137 34 195 46 115 23 284 62 605 139 116
28 262 62 325 75 121 26 367 101 580 178 164 58 178 59 227 3z m1229 -114
c106 -77 192 -211 220 -342 7 -35 12 -65 11 -66 -1 -1 -33 17 -72 41 -91 56
-180 137 -206 187 -21 41 -49 123 -49 144 0 14 39 64 49 64 5 0 26 -13 47 -28z
m-310 -120 c6 -4 18 -38 28 -76 22 -88 47 -138 101 -195 24 -26 49 -59 54 -75
14 -36 14 -116 0 -116 -22 0 -88 56 -128 110 -60 81 -88 162 -104 307 -5 41
-3 45 33 52 3 0 10 -3 16 -7z m-4638 -175 c29 -7 51 -15 48 -18 -13 -13 -99
-482 -121 -658 -34 -277 -45 -442 -45 -706 0 -432 46 -826 144 -1235 49 -207
81 -307 156 -496 47 -118 75 -175 184 -379 l38 -70 -31 35 c-88 99 -250 393
-334 605 -43 109 -130 400 -162 545 -13 58 -35 152 -49 210 -14 58 -37 200
-52 315 -22 178 -27 263 -31 560 -5 324 -4 359 16 465 11 63 34 205 51 315 30
199 79 489 86 513 4 15 33 15 102 -1z m-285 -957 c-3 -19 -29 -75 -58 -125
-29 -49 -81 -139 -115 -200 -52 -91 -126 -204 -270 -415 -10 -14 -50 -77 -89
-140 -68 -111 -124 -180 -137 -168 -12 12 72 235 141 376 147 300 344 605 460
711 l48 44 12 -24 c7 -13 11 -39 8 -59z m667 -490 c27 -36 89 -123 136 -194
77 -114 96 -135 168 -187 44 -33 97 -72 116 -88 90 -72 393 -286 560 -396
l185 -121 -3 -80 c-3 -73 -1 -83 27 -131 42 -71 72 -91 246 -166 83 -35 215
-94 295 -130 80 -35 160 -68 178 -72 55 -12 111 4 154 43 33 30 42 34 56 24
58 -41 235 -115 387 -163 50 -15 132 -42 183 -60 l93 -33 -2 -41 c-4 -76 1
-95 37 -135 20 -22 65 -58 100 -78 l63 -38 -37 -29 c-44 -36 -151 -117 -247
-189 -180 -135 -379 -218 -649 -272 -188 -37 -345 -34 -552 10 -282 61 -440
130 -645 283 -141 105 -211 172 -351 338 -229 271 -331 462 -432 807 -97 331
-161 812 -148 1113 3 81 5 88 18 70 8 -11 36 -49 64 -85z m1711 -531 c46 -22
129 -60 184 -84 55 -24 140 -61 188 -82 102 -45 147 -82 147 -122 0 -48 -105
-336 -162 -444 -17 -32 -46 -71 -65 -87 -63 -56 -105 -44 -484 138 -176 84
-209 110 -209 166 0 80 69 253 170 427 52 89 90 129 122 129 13 0 62 -18 109
-41z m1569 -599 c40 -21 42 -44 19 -158 -34 -169 -155 -538 -185 -563 -8 -7
-36 -14 -62 -17 -38 -3 -50 0 -65 16 -17 18 -17 24 -4 73 43 158 112 383 137
444 15 39 33 98 40 130 7 33 17 66 22 73 13 15 72 16 98 2z m331 -316 c162
-51 468 -115 669 -139 74 -9 215 -19 312 -22 203 -7 203 -7 80 -74 -131 -72
-193 -100 -302 -138 l-105 -36 -195 0 c-132 0 -210 4 -240 13 -45 13 -45 14
-42 54 3 22 0 44 -5 49 -5 5 -43 18 -84 30 -87 24 -221 88 -267 127 l-33 27
17 78 c13 58 22 77 34 77 9 0 81 -21 161 -46z m-2990 -1482 c30 -16 106 -56
169 -89 137 -73 247 -109 473 -153 l167 -34 0 -30 c0 -40 -32 -91 -67 -109
-151 -77 -444 -116 -858 -117 -176 0 -259 15 -346 61 l-61 33 4 47 c15 149
184 343 350 400 73 25 107 23 169 -9z m2589 -25 c160 -70 265 -190 299 -340
20 -86 15 -113 -21 -130 -54 -25 -190 -37 -415 -37 -299 0 -409 14 -691 86
-129 33 -159 58 -177 150 l-6 32 63 7 c229 25 459 102 718 240 98 52 93 52
230 -8z"/>
<path d="M5204 9006 c-45 -20 -74 -72 -74 -136 0 -81 48 -140 115 -140 58 0
121 62 126 125 5 68 -1 87 -40 126 -42 43 -72 48 -127 25z"/>
<path d="M5579 8995 c-107 -58 -74 -237 49 -261 67 -13 142 56 142 131 0 107
-103 178 -191 130z"/>
<path d="M5420 8743 c-21 -15 -50 -69 -50 -93 0 -24 41 -50 80 -50 75 0 99 54
52 119 -25 34 -55 43 -82 24z"/>
<path d="M6367 6933 c-59 -20 -140 -90 -169 -147 -15 -28 -23 -66 -26 -122 -4
-72 -1 -89 21 -137 54 -119 138 -175 243 -164 153 16 274 143 274 288 0 99
-86 228 -177 266 -71 30 -112 34 -166 16z"/>
<path d="M5280 6384 c-14 -2 -59 -9 -100 -15 -167 -25 -277 -79 -310 -152 -25
-53 -25 -122 -2 -168 37 -72 330 -450 455 -585 75 -81 137 -79 222 10 100 103
428 526 451 582 32 76 6 176 -60 230 -44 37 -137 70 -231 84 -77 11 -385 21
-425 14z m300 -194 c95 -12 188 -34 202 -48 5 -5 6 -20 3 -34 -6 -25 -148
-208 -214 -278 -19 -19 -51 -60 -72 -90 -74 -106 -64 -102 -115 -45 -72 81
-310 378 -323 403 -20 37 -7 49 71 67 147 32 313 41 448 25z"/>
<path d="M5222 4838 c-92 -169 -153 -303 -150 -327 3 -22 21 -35 138 -93 172
-85 284 -130 312 -126 25 3 76 78 80 117 3 20 -6 27 -65 51 -88 36 -110 56
-102 90 8 33 34 60 56 60 10 0 48 -16 85 -35 37 -19 70 -35 74 -35 10 0 53
143 49 165 -3 14 -43 36 -144 80 -78 33 -169 75 -203 93 -33 17 -68 32 -76 32
-8 0 -32 -33 -54 -72z"/>
</g>
</svg>
