<?xml version="1.0" standalone="no"?>
<!DOCTYPE svg PUBLIC "-//W3C//DTD SVG 20010904//EN"
 "http://www.w3.org/TR/2001/REC-SVG-20010904/DTD/svg10.dtd">
<svg version="1.0" xmlns="http://www.w3.org/2000/svg"
 width="1024.000000pt" height="1024.000000pt" viewBox="0 0 1024.000000 1024.000000"
 preserveAspectRatio="xMidYMid meet">

<g transform="translate(0.000000,1024.000000) scale(0.100000,-0.100000)"
fill="#000000" stroke="none">
<path d="M4817 9535 c-54 -19 -175 -63 -270 -99 -95 -35 -253 -94 -352 -131
-311 -115 -435 -164 -614 -243 l-174 -77 -192 -230 c-105 -126 -217 -264 -248
-305 -31 -41 -70 -92 -88 -113 -31 -37 -31 -38 -14 -65 32 -50 429 -438 488
-477 42 -28 56 -43 51 -54 -11 -28 -17 -108 -10 -146 4 -20 23 -53 42 -75 l35
-39 -41 -80 c-64 -129 -99 -224 -134 -375 -47 -197 -58 -287 -58 -471 -1 -297
49 -509 182 -777 53 -106 97 -178 170 -278 26 -36 50 -70 54 -77 10 -18 -371
-139 -496 -158 l-45 -7 -6 129 c-3 70 -14 157 -23 193 -23 91 -75 200 -113
239 -28 29 -32 38 -27 66 10 49 -20 165 -60 232 -19 32 -57 79 -85 106 l-51
47 34 38 c40 45 63 116 54 167 -9 46 -67 110 -113 126 -21 6 -63 9 -99 6 -119
-9 -216 -100 -238 -220 l-7 -38 -52 8 c-29 5 -93 8 -142 8 -127 -1 -180 -27
-300 -150 -53 -55 -131 -120 -190 -160 -55 -37 -143 -100 -195 -140 -52 -40
-121 -91 -152 -114 -32 -23 -58 -49 -58 -59 0 -21 69 -128 106 -165 15 -16 51
-34 83 -43 31 -8 107 -31 170 -50 62 -18 123 -34 136 -34 13 0 51 21 85 46
l62 46 42 -39 c22 -21 43 -39 45 -41 3 -1 -9 -17 -27 -35 -46 -48 -109 -162
-139 -252 -24 -73 -27 -94 -27 -245 -1 -146 2 -173 22 -239 55 -174 163 -345
296 -467 47 -43 86 -85 86 -94 0 -8 -10 -31 -21 -50 -40 -64 -26 -187 26 -230
14 -12 4 -25 -85 -115 -136 -139 -165 -198 -165 -340 0 -119 19 -167 96 -246
134 -137 322 -138 469 -2 67 62 103 127 120 219 23 118 -23 239 -136 356 -35
36 -64 72 -64 80 0 7 7 33 16 58 10 29 14 62 10 93 -5 43 -3 48 12 42 178 -73
475 -122 678 -113 78 3 94 2 89 -10 -3 -8 -11 -53 -17 -101 l-12 -88 -57 -12
c-79 -16 -194 -75 -225 -116 -32 -42 -44 -119 -43 -285 0 -162 8 -199 53 -255
l38 -45 8 -200 c10 -250 14 -260 117 -311 64 -31 322 -121 429 -148 28 -8 71
-37 141 -98 l101 -88 -56 -8 c-158 -21 -265 -42 -343 -67 -97 -32 -227 -94
-291 -138 -99 -69 -182 -184 -218 -300 -11 -35 -32 -79 -47 -99 -26 -34 -28
-44 -33 -157 l-5 -120 -160 -27 c-247 -41 -319 -64 -313 -97 8 -42 161 -79
463 -111 105 -11 240 -27 300 -35 214 -29 696 -63 1250 -88 404 -19 1799 -15
2155 6 492 28 601 36 851 61 646 64 849 100 898 159 30 36 -86 73 -316 103
l-133 17 0 71 c-1 38 -5 101 -10 140 -7 56 -14 74 -34 92 -17 14 -30 40 -37
73 -20 96 -138 244 -259 327 -135 92 -323 153 -533 174 -148 14 -200 20 -195
22 1 2 44 42 93 89 85 82 95 89 170 111 44 13 136 41 204 61 191 57 246 91
270 169 5 18 11 119 13 225 4 190 5 193 30 220 59 64 59 59 50 294 l-7 216
-31 44 c-35 48 -155 118 -204 118 -53 0 -60 18 -60 154 0 123 4 143 24 127 22
-18 124 -40 296 -66 96 -14 193 -30 215 -35 67 -16 275 -23 372 -12 116 14
292 71 380 126 64 39 68 44 71 81 14 164 -201 539 -445 776 -259 252 -626 489
-958 619 -60 24 -114 46 -118 50 -5 5 13 37 41 71 222 284 362 690 362 1049 0
285 -58 568 -155 760 -23 46 -26 58 -17 89 6 20 13 59 17 88 6 45 12 56 43 79
97 73 332 321 450 476 50 66 122 182 122 196 0 4 -15 16 -32 27 -18 10 -60 42
-93 70 -73 63 -619 459 -837 608 -86 59 -177 116 -201 126 -136 59 -877 251
-1307 339 -396 82 -503 102 -540 102 -19 -1 -79 -16 -133 -35z m335 -154 c489
-93 936 -202 1426 -347 l183 -55 157 -106 c244 -166 372 -257 704 -500 77 -57
144 -103 149 -103 5 0 9 -4 9 -9 0 -22 -158 -209 -295 -350 l-151 -154 -75 74
c-98 99 -372 298 -441 322 -29 10 -116 42 -193 72 -327 127 -689 207 -1084
240 -102 8 -186 17 -189 19 -5 6 25 63 38 71 41 25 750 -88 920 -147 l55 -19
52 56 c80 85 313 448 295 459 -44 26 -753 212 -1092 287 -74 16 -198 43 -275
60 -77 17 -197 42 -267 55 l-127 23 -178 -65 c-694 -255 -880 -326 -1059 -400
-72 -30 -141 -54 -152 -54 -44 0 239 -456 305 -491 20 -11 28 -11 44 0 62 38
365 130 564 171 l99 20 30 -29 c17 -17 27 -33 24 -36 -3 -3 -63 -17 -134 -31
-354 -69 -704 -202 -874 -334 -118 -91 -120 -92 -120 -78 0 27 59 107 107 145
27 21 77 56 111 78 34 22 62 44 62 49 0 5 -26 41 -58 80 -59 71 -109 142 -189
267 -59 91 -66 97 -89 60 -17 -26 -168 -214 -285 -353 l-39 -46 175 -169 c142
-137 175 -174 175 -196 0 -15 -3 -27 -6 -27 -15 0 -200 163 -316 277 -121 119
-126 126 -109 142 10 9 54 61 97 116 43 55 124 154 179 221 55 66 117 142 138
168 26 32 57 55 95 73 207 93 534 221 962 376 85 31 209 77 275 101 76 29 137
45 167 45 25 1 115 -12 200 -28z m-162 -282 c103 -69 114 -72 236 -66 l112 6
6 -25 c14 -56 -14 -273 -47 -364 -52 -145 -238 -330 -331 -330 -29 0 -53 13
-129 69 -92 68 -193 230 -222 354 -21 90 -37 233 -29 262 6 25 7 26 79 19 91
-8 151 10 219 66 26 22 51 40 55 40 3 0 26 -14 51 -31z m615 -755 c328 -35
605 -94 871 -184 81 -27 149 -52 151 -54 3 -2 -7 -27 -21 -55 -14 -28 -26 -59
-26 -70 0 -11 -4 -23 -10 -26 -5 -3 -67 10 -137 30 -398 110 -754 164 -1143
172 -621 13 -1082 -67 -1582 -276 -42 -18 -82 -39 -89 -47 -22 -27 -30 -15
-23 34 9 66 30 96 96 143 164 114 581 259 878 304 135 21 140 20 203 -29 67
-52 131 -85 181 -93 52 -8 166 49 241 121 l60 57 105 -6 c58 -3 168 -13 245
-21z m1242 -314 c41 -24 64 -70 66 -127 2 -39 -2 -48 -31 -74 -38 -34 -65 -36
-109 -9 -61 36 -91 111 -69 165 27 63 84 81 143 45z m-1906 -18 c0 -14 2 -14
7 -2 4 8 20 17 37 18 26 4 28 2 15 -13 -12 -14 -10 -15 15 -11 15 3 25 2 21
-1 -3 -3 3 -12 14 -20 11 -8 20 -20 20 -26 0 -7 -7 -4 -15 7 -8 10 -19 15 -26
10 -8 -4 -10 -3 -5 4 8 14 4 15 -18 6 -9 -3 -13 -10 -10 -15 8 -13 -10 -11
-24 3 -9 9 -12 9 -12 0 0 -10 -5 -10 -21 -2 -19 11 -20 10 -9 -10 6 -11 15
-18 21 -15 5 4 9 2 9 -3 0 -5 -16 -9 -35 -10 -19 -1 -35 3 -35 9 0 6 9 7 22 3
20 -6 21 -5 9 9 -7 9 -17 14 -22 11 -5 -3 -12 2 -15 10 -3 9 -10 13 -15 10
-11 -6 -12 -25 -1 -21 8 2 12 -7 12 -30 -1 -17 -1 -17 -14 0 -7 9 -17 17 -21
17 -4 0 -2 -7 5 -15 19 -23 9 -28 -73 -34 -5 -1 -6 -5 -2 -11 3 -5 13 -7 23
-4 14 5 15 4 2 -5 -11 -8 -12 -13 -3 -22 9 -9 15 -6 24 14 14 32 42 40 77 21
15 -8 21 -14 14 -14 -8 0 -10 -5 -6 -12 4 -7 -2 -5 -13 5 -23 20 -58 12 -58
-13 0 -10 -12 -15 -39 -17 -45 -1 -66 -17 -48 -35 7 -7 12 -17 12 -22 0 -6 -7
-3 -14 7 -10 13 -16 15 -22 6 -4 -7 1 -18 11 -26 21 -14 8 -18 -14 -4 -9 6
-11 16 -7 27 9 23 5 30 -11 26 -7 -2 -13 2 -13 8 0 5 9 10 20 10 11 0 20 4 20
9 0 6 -9 9 -20 8 -21 -1 -38 -35 -23 -46 14 -9 14 -53 0 -48 -7 2 -11 11 -9
21 3 17 -23 22 -33 6 -4 -6 1 -7 12 -3 17 6 17 5 1 -14 -10 -11 -18 -25 -18
-31 0 -14 -35 -34 -44 -25 -3 3 -6 16 -7 27 0 21 -1 21 -8 1 -5 -11 -7 -23 -5
-27 2 -3 -6 -4 -18 -2 -14 2 -7 -4 14 -14 53 -26 55 -30 12 -30 -21 0 -32 3
-24 8 9 6 9 9 0 15 -6 4 -14 4 -17 1 -3 -3 -12 2 -20 12 -8 9 -11 11 -8 4 5
-9 -1 -15 -15 -19 -16 -4 -18 -8 -9 -14 7 -4 19 -3 25 2 12 10 32 -7 21 -18
-5 -4 -455 -4 -792 0 -91 2 -110 -1 -110 -13 0 -29 53 -39 280 -53 635 -38
1512 -5 2078 79 197 29 438 95 519 142 25 15 30 15 63 -1 19 -9 35 -20 35 -25
0 -20 -189 -100 -340 -143 -101 -30 -354 -77 -470 -88 -500 -49 -728 -61
-1182 -61 -525 0 -945 31 -1026 75 -15 8 -36 22 -47 30 -20 16 -19 17 15 46
70 60 97 76 205 126 152 71 320 125 515 167 162 34 421 73 530 78 30 2 72 4
93 5 29 2 37 -1 38 -15z m106 12 c-3 -3 -12 -4 -19 -1 -8 3 -5 6 6 6 11 1 17
-2 13 -5z m143 -4 c0 -5 -5 -10 -11 -10 -5 0 -7 5 -4 10 3 6 8 10 11 10 2 0 4
-4 4 -10z m-107 -25 c-3 -9 -8 -14 -10 -11 -3 3 -2 9 2 15 9 16 15 13 8 -4z
m67 -20 c0 -9 -6 -12 -16 -8 -13 5 -13 7 -2 14 17 11 18 11 18 -6z m-160 -45
c0 -5 -4 -10 -10 -10 -5 0 -10 5 -10 10 0 6 5 10 10 10 6 0 10 -4 10 -10z
m-54 -19 c-3 -5 -15 -7 -26 -4 -28 7 -25 13 6 13 14 0 23 -4 20 -9z m2188
-104 c78 -72 79 -73 84 -129 2 -31 1 -69 -2 -83 l-7 -27 -43 39 c-23 21 -74
61 -113 88 l-70 50 24 32 c13 17 27 47 30 67 3 20 8 36 12 36 3 0 42 -33 85
-73z m-2224 9 c0 -2 -7 -9 -15 -16 -13 -11 -14 -10 -9 4 5 14 24 23 24 12z
m-92 -30 c-7 -8 -17 -12 -22 -9 -4 3 -2 9 5 14 22 13 31 11 17 -5z m-138 -41
c7 -9 8 -15 2 -15 -5 0 -12 7 -16 15 -3 8 -4 15 -2 15 2 0 9 -7 16 -15z m54
-7 c-3 -4 -11 -5 -19 -1 -21 7 -19 12 4 10 11 0 18 -5 15 -9z m-79 -47 c-3 -6
-11 -8 -17 -5 -6 4 -5 9 3 15 16 10 23 4 14 -10z m2446 -218 c75 -71 114 -137
159 -272 111 -331 117 -763 14 -1069 -68 -204 -211 -438 -359 -591 -96 -99
-131 -118 -71 -40 71 93 215 317 254 395 57 114 107 264 127 380 35 209 29
591 -11 749 -56 220 -132 406 -206 504 l-42 55 34 -24 c19 -14 64 -53 101 -87z
m-615 26 c190 -94 354 -286 441 -518 49 -131 67 -242 66 -421 0 -193 -12 -281
-59 -445 -38 -129 -138 -342 -222 -469 -68 -103 -229 -265 -367 -369 -250
-188 -531 -287 -980 -344 -130 -17 -131 -17 -345 10 -561 70 -879 207 -1178
508 -184 185 -338 476 -406 772 -24 103 -31 187 -30 362 1 186 24 332 78 499
37 111 150 346 168 346 5 0 33 -6 61 -14 29 -8 117 -20 196 -26 79 -6 169 -19
201 -29 117 -37 252 -151 350 -296 65 -96 93 -158 119 -260 22 -86 50 -264 44
-280 -2 -6 -23 -20 -46 -33 -140 -74 -366 -351 -367 -449 0 -85 80 -172 181
-196 15 -4 56 -33 92 -65 85 -78 142 -116 241 -163 112 -52 183 -69 291 -69
162 0 326 66 471 190 99 84 120 97 188 120 35 11 82 34 105 51 42 31 91 102
91 132 0 27 -59 86 -145 146 -44 31 -120 90 -170 131 -49 41 -109 90 -132 108
l-43 34 0 71 c0 305 177 621 447 800 95 63 154 89 303 132 69 21 150 45 180
55 77 26 84 25 176 -21z m-3771 -1014 c14 -13 25 -29 25 -34 0 -6 -25 -38 -55
-72 -30 -34 -55 -65 -55 -70 0 -5 -11 -9 -25 -9 -14 0 -25 2 -25 5 0 11 32 70
49 90 11 14 8 13 -11 -3 -14 -13 -32 -37 -38 -53 -11 -25 -18 -29 -52 -29 -46
0 -55 16 -39 69 15 53 43 85 93 110 58 28 103 27 133 -4z m2390 -19 c101 -32
211 -100 347 -215 59 -49 141 -114 182 -145 41 -30 77 -59 80 -64 8 -13 -62
-58 -110 -71 -63 -18 -201 -13 -437 15 -241 29 -463 35 -677 20 -112 -8 -127
-7 -139 8 -13 15 -11 24 11 70 34 68 132 190 202 250 73 62 172 121 237 141
30 10 59 19 64 21 27 10 169 -7 240 -30z m-2792 -221 c121 -7 160 -16 118 -30
-38 -12 -126 -109 -156 -172 -24 -53 -36 -66 -77 -87 -54 -28 -208 -129 -342
-223 -54 -38 -100 -63 -115 -63 -14 0 -79 11 -144 25 -64 14 -130 25 -147 25
l-29 0 47 44 c53 50 356 260 390 270 13 4 33 24 46 44 22 34 95 109 139 142
21 15 105 39 127 35 8 -1 72 -6 143 -10z m341 -61 c165 -56 239 -316 141 -490
-49 -85 -147 -153 -243 -169 -76 -12 -168 52 -224 157 -19 36 -23 58 -23 143
0 93 2 105 34 169 39 80 106 152 171 184 54 26 81 27 144 6z m-394 -304 c0
-30 -29 -52 -185 -144 -77 -46 -171 -104 -209 -130 -60 -41 -71 -45 -79 -31
-12 22 -2 32 106 105 50 35 122 85 159 112 67 49 173 108 196 108 6 0 12 -9
12 -20z m3289 -29 c10 -6 3 -12 -25 -21 -22 -7 -80 -30 -129 -50 -50 -21 -138
-51 -195 -66 -93 -24 -117 -26 -205 -21 -156 10 -278 52 -340 118 l-30 31 48
-7 c27 -3 67 -13 90 -21 75 -27 171 -29 287 -4 190 40 465 62 499 41z m-3929
-226 c41 -13 87 -26 101 -29 25 -5 49 -46 28 -46 -24 0 -272 70 -285 81 -45
37 23 35 156 -6z m1315 -6 c75 -143 50 -499 -47 -693 -43 -87 -127 -180 -145
-162 -3 3 13 38 34 78 52 94 96 212 118 313 14 63 16 109 13 213 -3 73 -8 136
-12 139 -8 8 -67 -49 -159 -154 -39 -45 -75 -79 -79 -77 -12 7 -9 55 5 86 13
31 235 288 248 288 5 0 16 -14 24 -31z m-719 -44 c121 -24 174 -44 174 -65 0
-15 -25 -12 -156 14 -164 34 -194 47 -194 89 0 18 1 18 24 4 13 -9 81 -28 152
-42z m136 -190 c70 -9 132 -14 139 -13 6 2 15 -8 19 -22 4 -14 23 -57 42 -95
90 -178 68 -385 -54 -501 -84 -81 -187 -111 -344 -99 -64 5 -94 3 -99 -5 -4
-6 12 -32 37 -59 23 -26 69 -84 100 -129 54 -78 56 -83 46 -119 l-10 -37 -22
29 c-11 16 -37 48 -57 71 -51 59 -74 100 -97 171 -11 34 -30 74 -41 90 -12 15
-30 66 -42 112 -18 70 -20 104 -16 190 8 176 52 294 143 387 51 52 56 55 91
50 21 -3 95 -13 165 -21z m4813 -81 c232 -92 438 -205 640 -349 159 -114 250
-193 367 -322 141 -153 293 -394 312 -493 7 -34 6 -33 -21 15 -35 62 -165 250
-198 288 -13 15 -32 27 -42 28 -12 0 -13 2 -5 6 19 7 -25 53 -51 53 -14 0 -17
5 -13 16 5 13 1 15 -18 12 -18 -4 -26 0 -29 14 -6 21 -3 22 23 8 16 -9 18 -8
14 5 -4 9 -19 19 -35 22 -16 3 -29 9 -29 13 0 5 -11 7 -25 5 -14 -1 -25 2 -25
7 0 5 -4 7 -9 3 -5 -3 -13 0 -17 7 -4 7 -4 10 1 6 4 -4 15 -3 22 4 11 9 16 9
23 -2 5 -8 12 -11 17 -7 13 13 -19 26 -56 22 -20 -2 -30 -1 -23 1 17 8 15 21
-4 28 -8 3 -12 2 -9 -4 3 -6 1 -10 -4 -10 -14 0 -14 23 0 37 9 9 7 10 -9 6
-12 -3 -19 -9 -16 -14 9 -15 -13 -10 -25 5 -9 11 -10 20 -1 35 9 17 8 20 -5
15 -8 -4 -15 -10 -15 -15 0 -18 -18 -9 -23 12 -3 12 -10 18 -16 15 -5 -4 -15
2 -20 11 -10 15 -10 14 -7 -8 3 -17 0 -26 -10 -26 -10 0 -11 4 -3 14 9 10 8
13 -1 13 -7 0 -19 8 -26 18 -8 10 -13 12 -14 5 0 -22 -16 -14 -16 7 0 12 5 19
13 16 7 -3 10 1 6 10 -3 7 0 14 7 14 6 0 8 5 5 10 -9 15 -25 12 -25 -5 0 -18
-16 -20 -23 -2 -3 7 -9 0 -16 -15 -6 -16 -13 -28 -15 -28 -3 0 -3 6 0 14 6 17
-27 31 -36 15 -5 -7 -10 -8 -14 -1 -8 13 19 23 41 15 13 -5 15 -2 10 12 -4 9
-4 23 0 29 5 7 1 5 -7 -4 -18 -19 -50 -25 -50 -10 0 6 -7 18 -15 27 -8 8 -13
19 -10 24 4 5 1 9 -4 9 -6 0 -11 -10 -12 -22 0 -13 -3 -17 -6 -10 -4 10 -8 10
-19 1 -17 -14 -19 2 -2 19 9 9 9 15 -1 25 -10 10 -11 8 -6 -8 4 -14 2 -12 -8
5 l-15 25 -7 -28 c-4 -15 -11 -27 -17 -27 -5 0 -6 5 -2 12 4 6 -1 17 -10 24
-10 7 -17 15 -17 18 2 18 0 23 -14 23 -9 0 -14 -6 -11 -14 8 -19 2 -16 -20 9
-10 12 -13 18 -6 14 6 -4 12 -2 12 3 0 14 -17 14 -25 1 -10 -16 -22 -11 -28
11 -4 15 -11 20 -21 16 -10 -4 -16 -1 -16 7 0 8 -7 17 -16 20 -8 3 -12 11 -8
17 4 7 3 9 -4 5 -5 -3 -12 0 -15 6 -2 7 -8 10 -12 6 -4 -3 5 -17 19 -29 14
-12 26 -27 26 -32 0 -6 -9 -2 -20 8 -11 10 -20 13 -20 8 0 -17 -28 -23 -34 -8
-3 10 0 12 11 8 13 -5 15 -2 10 11 -4 10 -7 22 -7 27 0 6 -5 7 -10 4 -6 -4 -8
-10 -5 -15 3 -4 -4 -6 -14 -3 -11 3 -18 10 -15 16 2 7 0 19 -6 27 -8 13 -11
13 -22 1 -10 -10 -10 -12 0 -7 6 4 12 2 12 -3 0 -15 -23 -14 -39 2 -12 10 -13
8 -7 -8 5 -17 3 -16 -12 4 -13 16 -21 20 -26 12 -4 -6 -12 -8 -18 -5 -6 4 -5
10 3 15 11 7 10 9 -3 9 -9 0 -20 5 -24 12 -5 7 -3 8 6 3 8 -5 11 -4 6 3 -4 6
-13 9 -21 5 -10 -3 -15 1 -15 12 0 9 -6 15 -12 12 -7 -2 -19 3 -26 12 -11 14
-12 13 -7 -6 4 -16 1 -23 -16 -28 -20 -7 -45 12 -33 24 3 3 9 -1 13 -8 12 -19
20 0 10 24 -4 11 -8 14 -8 8 -1 -7 -8 -13 -17 -13 -9 0 -12 5 -8 13 5 7 0 6
-11 -3 -17 -14 -17 -13 -10 9 5 17 4 22 -6 19 -8 -3 -13 -12 -11 -22 5 -28
-13 -17 -26 16 -10 28 -9 40 10 86 21 51 24 53 52 48 17 -4 93 -31 171 -62z
m-3232 -128 c45 -35 101 -75 125 -90 79 -49 305 -147 408 -176 104 -29 305
-64 429 -75 39 -3 84 -8 101 -11 l31 -4 -57 -59 c-99 -101 -188 -249 -234
-389 -10 -28 -22 -52 -28 -52 -16 0 -221 153 -323 241 -153 131 -316 310 -442
484 -50 70 -133 201 -133 211 0 9 42 -18 123 -80z m-280 21 c10 -28 20 -60 23
-69 5 -13 1 -15 -15 -11 -15 4 -21 1 -21 -11 0 -9 -6 -16 -12 -16 -9 0 -8 -4
2 -11 13 -9 13 -10 0 -6 -8 2 -14 11 -12 19 1 11 -6 16 -23 16 -14 0 -25 -6
-25 -14 0 -7 6 -11 14 -8 7 3 16 -1 19 -9 4 -11 0 -13 -14 -10 -10 3 -26 -1
-35 -8 -15 -12 -16 -11 -10 9 5 14 3 22 -4 22 -6 0 -9 -4 -6 -9 3 -4 -5 -18
-18 -30 l-24 -22 -6 27 c-4 14 -9 24 -12 21 -3 -3 -1 -21 4 -41 6 -21 7 -36 1
-36 -5 0 -9 7 -9 15 0 18 -20 20 -21 3 0 -10 -2 -10 -6 0 -9 22 -19 12 -17
-17 1 -20 -3 -28 -12 -27 -21 3 -30 16 -11 16 9 0 17 5 17 11 0 5 -5 7 -12 3
-7 -5 -9 -2 -6 8 4 9 0 15 -8 15 -8 0 -13 -5 -11 -11 2 -6 1 -20 -3 -31 -4
-11 -3 -27 4 -35 9 -13 9 -13 -5 -3 -9 7 -14 25 -13 43 1 16 -3 30 -8 30 -6 0
-8 -9 -5 -21 4 -15 2 -19 -9 -15 -8 3 -14 -1 -14 -8 0 -20 -27 -28 -34 -10 -3
8 -10 14 -16 14 -6 0 -8 -5 -4 -12 5 -8 2 -9 -10 -5 -14 6 -17 3 -12 -10 5
-13 0 -11 -18 6 -28 26 -33 22 -15 -12 11 -21 11 -21 -7 -6 -29 25 -57 21 -51
-8 2 -12 1 -23 -3 -23 -10 0 -21 30 -15 40 3 4 -4 10 -15 13 -11 3 -23 0 -27
-5 -3 -6 -1 -8 5 -4 6 3 14 1 18 -5 4 -8 3 -9 -4 -5 -8 4 -12 0 -12 -11 0 -11
-7 -6 -17 16 -16 32 -17 33 -25 11 -5 -13 -14 -20 -22 -17 -7 3 -19 0 -25 -6
-9 -9 -10 -3 -5 21 6 27 4 31 -10 26 -9 -4 -16 -1 -16 6 0 20 42 99 55 104 7
2 86 23 176 45 90 23 211 56 269 75 142 46 141 46 163 -17z m2969 -37 c-147
-200 -418 -466 -652 -641 -150 -111 -302 -220 -304 -217 -2 2 -15 39 -30 83
-49 138 -163 341 -232 410 -13 13 -12 15 8 19 13 3 57 7 98 10 98 7 346 58
474 97 226 69 494 189 620 278 33 22 63 41 68 41 5 0 -18 -36 -50 -80z m302
64 c9 -24 2 -26 -12 -4 -7 11 -8 20 -3 20 5 0 12 -7 15 -16z m64 -69 c-3 -3
-9 2 -12 12 -6 14 -5 15 5 6 7 -7 10 -15 7 -18z m102 5 c0 -5 -4 -10 -10 -10
-5 0 -10 5 -10 10 0 6 5 10 10 10 6 0 10 -4 10 -10z m-48 -22 c-6 -6 -15 -8
-19 -4 -4 4 -1 11 7 16 19 12 27 3 12 -12z m38 -13 c7 -9 8 -15 2 -15 -5 0
-12 7 -16 15 -3 8 -4 15 -2 15 2 0 9 -7 16 -15z m50 -10 c0 -8 -2 -15 -4 -15
-2 0 -6 7 -10 15 -3 8 -1 15 4 15 6 0 10 -7 10 -15z m126 -27 c-15 -50 -17
-53 -26 -38 -6 9 -5 17 3 22 9 6 8 8 -3 9 -12 0 2 10 27 18 1 1 1 -5 -1 -11z
m-166 -12 c0 -2 -8 -10 -17 -17 -16 -13 -17 -12 -4 4 13 16 21 21 21 13z m24
-22 c3 -8 2 -12 -4 -9 -6 3 -10 10 -10 16 0 14 7 11 14 -7z m223 -56 c-3 -7
-5 -2 -5 12 0 14 2 19 5 13 2 -7 2 -19 0 -25z m-3453 -114 c80 -122 104 -171
63 -129 -18 17 -24 11 -21 -23 1 -13 -3 -21 -10 -19 -6 2 -10 14 -8 25 2 12
-1 22 -7 22 -6 0 -8 -7 -4 -17 5 -12 2 -15 -13 -11 -14 4 -20 0 -20 -13 0 -13
3 -15 13 -7 9 7 13 7 13 -1 0 -6 -6 -14 -14 -17 -8 -3 -13 -11 -10 -19 3 -7
-2 -15 -10 -18 -9 -4 -16 -14 -16 -22 0 -9 -4 -13 -10 -10 -5 3 -10 1 -10 -6
0 -8 -4 -8 -15 1 -18 15 -20 -1 -2 -19 9 -10 9 -15 0 -18 -7 -2 -9 -11 -6 -20
4 -11 2 -14 -5 -9 -7 4 -12 2 -12 -4 0 -7 7 -9 16 -6 10 4 14 1 11 -6 -2 -7
-15 -12 -29 -10 -13 2 -30 -3 -36 -11 -9 -11 -8 -14 3 -14 8 0 12 5 8 10 -3 5
4 6 18 2 25 -8 51 -36 42 -45 -2 -3 -9 3 -14 13 -6 9 -15 15 -20 11 -6 -4 -6
-11 2 -20 10 -13 5 -14 -34 -11 -25 2 -44 0 -41 -5 3 -4 16 -8 29 -8 21 0 35
-17 35 -42 0 -6 -10 -8 -25 -4 -20 5 -26 2 -31 -19 -5 -21 -9 -23 -20 -14 -12
10 -13 9 -8 -5 3 -9 9 -16 13 -16 14 0 33 18 28 26 -3 5 7 10 21 10 l27 2 -22
-15 c-13 -9 -23 -22 -23 -30 0 -8 -5 -11 -11 -8 -17 11 -38 -26 -29 -51 7 -17
5 -24 -7 -28 -9 -4 -21 -1 -26 6 -6 9 -7 7 -3 -6 4 -10 1 -25 -5 -32 -6 -8 -8
-21 -4 -31 12 -27 14 -114 3 -107 -5 3 -7 12 -4 19 3 8 0 16 -7 19 -9 3 -8 7
2 14 7 5 9 12 5 15 -5 3 -17 -6 -27 -19 -15 -21 -16 -23 -1 -17 13 5 15 0 13
-23 -2 -17 1 -28 7 -27 6 1 11 -4 11 -12 0 -10 -5 -11 -18 -4 -25 13 -25 13
-21 -31 2 -22 9 -40 14 -40 6 0 6 -6 -2 -15 -14 -17 -5 -35 18 -36 10 0 12 -3
5 -6 -7 -2 -15 -4 -19 -3 -4 1 -10 -3 -14 -10 -4 -6 -7 3 -7 20 0 17 -4 35 -9
40 -5 5 -9 -14 -10 -51 0 -32 3 -59 7 -59 5 0 6 6 3 13 -2 7 4 13 15 14 11 1
22 -5 25 -14 5 -12 4 -13 -7 -4 -11 8 -16 5 -25 -14 -6 -14 -18 -25 -26 -25
-8 0 -17 -4 -20 -8 -2 -4 7 -8 21 -7 14 0 27 -6 29 -13 1 -7 0 -8 -3 -2 -11
23 -29 7 -44 -40 -8 -28 -15 -50 -13 -50 1 0 11 16 23 36 14 23 25 33 34 27 9
-5 7 -8 -5 -11 -10 -2 -18 -12 -18 -22 0 -26 -11 -51 -20 -45 -4 2 -5 -7 -2
-20 2 -14 9 -25 15 -25 6 0 7 -3 3 -7 -4 -4 -16 3 -27 17 l-19 25 10 -28 c5
-16 10 -30 10 -33 0 -7 -45 -4 -104 8 l-58 11 6 46 c45 332 61 420 105 592 52
203 81 291 149 446 55 126 136 293 142 292 3 0 45 -61 94 -135z m-354 112 c0
-3 -4 -8 -10 -11 -5 -3 -10 -1 -10 4 0 6 5 11 10 11 6 0 10 -2 10 -4z m3920
-25 c0 -6 -4 -12 -8 -15 -5 -3 -9 1 -9 9 0 8 4 15 9 15 4 0 8 -4 8 -9z m25
-42 c-6 -16 -9 -18 -16 -8 -4 8 -3 19 3 26 15 18 21 9 13 -18z m-4280 11 c3
-5 1 -10 -4 -10 -6 0 -11 5 -11 10 0 6 2 10 4 10 3 0 8 -4 11 -10z m-105 -41
c0 -6 -4 -7 -10 -4 -5 3 -10 11 -10 16 0 6 5 7 10 4 6 -3 10 -11 10 -16z m120
11 c0 -5 -2 -10 -4 -10 -3 0 -8 5 -11 10 -3 6 -1 10 4 10 6 0 11 -4 11 -10z
m-70 -18 c0 -12 -3 -12 -15 -2 -8 7 -15 13 -15 15 0 1 7 2 15 2 8 0 15 -7 15
-15z m4500 -11 c0 -5 -7 -14 -15 -21 -16 -14 -18 -10 -9 14 6 17 24 22 24 7z
m15 -51 c3 -6 -1 -7 -9 -4 -18 7 -21 14 -7 14 6 0 13 -4 16 -10z m218 -127
c-7 -2 -19 -2 -25 0 -7 3 -2 5 12 5 14 0 19 -2 13 -5z m38 -10 c13 -16 12 -17
-3 -4 -10 7 -18 15 -18 17 0 8 8 3 21 -13z m-4001 -14 c-17 -14 -26 -17 -28
-9 -5 14 16 30 38 30 10 -1 7 -7 -10 -21z m65 3 c-3 -3 -11 0 -18 7 -9 10 -8
11 6 5 10 -3 15 -9 12 -12z m-82 -49 c-4 -11 -8 -12 -11 -5 -2 7 -8 12 -13 12
-4 0 -6 -8 -3 -17 5 -15 4 -15 -4 -3 -13 18 -6 30 18 30 14 0 18 -5 13 -17z
m-52 -32 c-11 -7 -10 -11 5 -21 16 -10 16 -11 2 -6 -12 3 -18 0 -18 -10 0 -9
5 -12 13 -8 9 5 9 4 0 -6 -18 -19 -36 -2 -28 28 7 27 25 45 34 36 3 -3 -1 -9
-8 -13z m-1441 -13 c0 -16 -3 -19 -11 -11 -6 6 -8 16 -5 22 11 17 16 13 16
-11z m1483 -28 c-9 -16 -19 -28 -21 -26 -2 3 4 15 12 28 9 14 13 28 9 33 -5 4
-2 5 5 1 10 -6 9 -14 -5 -36z m1115 -8 c7 -16 28 -47 48 -70 l36 -42 124 0
124 0 40 62 c22 34 42 63 44 66 2 2 16 -13 31 -32 l27 -36 -28 -47 c-15 -27
-41 -61 -56 -77 l-29 -28 20 -62 c37 -112 144 -612 195 -908 l7 -38 -41 0
c-24 0 -42 5 -44 13 -2 6 -18 95 -36 197 -29 169 -94 497 -136 695 -10 44 -22
86 -27 93 -6 8 -40 12 -103 12 -112 0 -103 11 -128 -160 -9 -63 -25 -162 -36
-220 -10 -58 -35 -204 -55 -325 -51 -315 -43 -289 -95 -296 -25 -4 -47 -5 -48
-4 -4 4 44 288 63 370 8 33 28 137 44 230 36 204 76 364 95 383 11 12 7 20
-28 56 -22 24 -51 61 -63 83 l-23 40 28 36 c15 20 29 36 32 37 3 0 11 -13 18
-28z m-2663 -2 c11 -13 31 -20 52 -20 33 0 34 -1 31 -37 -3 -36 -5 -38 -40
-41 -43 -4 -65 21 -75 82 -6 41 5 46 32 16z m1501 -39 c0 -11 -5 -17 -13 -14
-17 6 -17 20 0 26 6 3 12 6 12 6 1 1 1 -7 1 -18z m-12 -70 c-8 -8 -43 -8 -38
0 2 4 13 7 24 6 10 -1 17 -3 14 -6z m-1415 -76 c18 -18 6 -88 -20 -111 -16
-14 -24 -15 -44 -6 -23 11 -25 17 -25 78 l0 66 38 -7 c20 -3 43 -12 51 -20z
m1401 11 c-7 -7 -14 -6 -21 1 -9 9 -7 12 9 10 14 -1 18 -5 12 -11z m3260 -14
c19 -9 40 -28 46 -42 8 -18 10 -126 6 -372 l-5 -348 -27 0 -28 0 -4 263 c-3
155 -9 272 -15 287 l-11 25 -13 -30 c-9 -21 -14 -108 -17 -287 -4 -252 -4
-256 -25 -262 -12 -3 -32 -6 -44 -6 -26 0 -26 0 -27 543 -1 208 -1 209 23 228
30 24 94 25 141 1z m-3353 -54 c-2 -7 3 -22 12 -33 16 -20 16 -20 -5 -2 -21
17 -28 47 -11 47 5 0 7 -6 4 -12z m63 2 c0 -5 -2 -10 -4 -10 -3 0 -8 5 -11 10
-3 6 -1 10 4 10 6 0 11 -4 11 -10z m2539 -100 c52 -14 63 -13 114 15 26 13 48
21 50 17 3 -4 12 -32 22 -61 15 -46 17 -76 12 -185 -12 -247 -65 -354 -234
-467 l-74 -50 -75 47 c-41 26 -94 65 -118 89 -58 56 -113 171 -126 260 -21
152 -7 349 26 362 7 3 23 -2 36 -11 52 -37 173 -10 219 48 l21 26 45 -40 c25
-22 62 -44 82 -50z m-2619 -11 c0 -7 -38 -5 -46 3 -3 4 0 13 7 21 12 12 15 12
26 -2 7 -9 13 -19 13 -22z m-1154 -15 c61 -26 262 -83 333 -94 72 -12 321 -15
377 -4 33 6 36 5 32 -17 -3 -21 -10 -25 -63 -32 -162 -22 -422 10 -627 79 -76
25 -89 34 -101 67 -8 21 0 21 49 1z m-142 -10 c14 -37 6 -76 -23 -105 -16 -16
-34 -29 -39 -29 -14 0 -22 36 -22 98 l0 52 39 0 c26 0 41 -5 45 -16z m1286
-22 c0 -15 -2 -15 -10 -2 -13 20 -13 33 0 25 6 -3 10 -14 10 -23z m830 -73 l0
-66 -46 -7 c-61 -8 -477 -8 -538 0 -44 6 -47 8 -42 33 3 14 8 44 11 67 l6 41
305 -1 304 -1 0 -66z m2970 17 c357 -71 464 -87 618 -93 182 -7 182 -22 -1
-30 -104 -5 -143 -2 -262 20 -77 14 -160 28 -185 32 -43 6 -331 60 -377 70
-33 8 -29 35 5 35 15 0 106 -15 202 -34z m-3790 20 c0 -2 -8 -10 -17 -17 -16
-13 -17 -12 -4 4 13 16 21 21 21 13z m-1400 -114 c0 -52 37 -67 76 -31 28 27
44 17 44 -26 0 -43 -40 -77 -84 -73 -54 5 -100 110 -64 146 19 19 28 14 28
-16z m1347 3 c13 -29 -1 -34 -17 -6 -12 23 -13 31 -2 31 4 0 12 -11 19 -25z
m283 -151 c6 -14 10 -44 10 -68 0 -31 6 -48 23 -63 26 -24 121 -84 174 -111
l38 -19 110 53 c150 72 155 78 155 164 l0 70 46 0 c38 0 45 -3 40 -16 -3 -9
-6 -51 -6 -95 0 -75 -1 -80 -31 -106 -39 -36 -132 -89 -241 -137 l-87 -38 -33
25 c-18 14 -60 40 -93 58 -89 49 -145 91 -159 119 -8 16 -11 54 -8 108 4 79 5
82 28 82 17 0 27 -8 34 -26z m-1540 -110 c0 -11 -23 -50 -43 -71 -12 -13 -17
-29 -13 -39 5 -14 4 -15 -9 -4 -34 29 -127 -47 -167 -137 -77 -173 87 -347
250 -264 45 23 63 43 91 98 42 83 19 195 -60 294 l-31 39 40 0 c35 0 44 -5 72
-40 123 -155 83 -370 -85 -458 -71 -37 -160 -37 -232 1 -77 40 -129 117 -140
207 -11 93 54 241 125 285 18 11 58 37 90 57 49 33 112 51 112 32z m1210 -58
c0 -2 -7 -7 -16 -10 -8 -3 -12 -2 -9 4 6 10 25 14 25 6z m-1170 -216 c15 -52
12 -79 -11 -117 -51 -83 -154 -82 -193 2 -19 40 -15 98 10 146 13 26 16 27 77
22 46 -4 67 -2 72 7 11 17 32 -11 45 -60z m980 35 c89 -20 205 -40 258 -45 53
-5 108 -13 122 -16 49 -13 135 -114 110 -129 -10 -6 -23 -1 -95 39 -18 9 -53
16 -86 16 -95 0 -130 -44 -169 -210 -31 -132 -41 -160 -70 -182 -22 -16 -32
-17 -80 -8 -90 17 -241 69 -299 103 l-53 32 4 166 c5 184 11 204 71 235 80 42
91 42 287 -1z m3943 21 c18 -7 43 -25 56 -40 23 -24 26 -38 37 -199 13 -189
13 -192 -46 -222 -79 -41 -248 -85 -325 -85 -69 0 -87 24 -134 175 -22 72 -50
145 -61 163 -41 66 -120 76 -249 32 -34 -12 -64 -20 -66 -18 -2 2 6 21 18 43
34 62 85 81 243 94 116 9 412 56 423 67 10 9 74 3 104 -10z m-3618 -253 c-11
-26 -15 -561 -5 -668 9 -104 6 -111 -70 -144 l-48 -21 -100 30 c-123 36 -333
117 -348 133 -7 7 -14 74 -17 170 -6 147 -5 158 11 152 41 -16 222 -55 280
-61 55 -6 67 -4 93 15 l29 22 0 -175 c0 -175 6 -219 33 -229 40 -15 42 -2 48
360 3 191 11 362 16 378 9 29 43 55 72 55 9 0 11 -6 6 -17z m613 1 l62 -7 -30
-34 c-77 -87 -94 -168 -88 -410 6 -199 17 -246 83 -339 20 -27 30 -51 24 -53
-19 -6 -156 68 -174 95 -34 52 -46 112 -56 268 -13 223 10 394 62 459 22 29
27 30 117 21z m1891 -31 c40 -80 53 -145 58 -298 6 -173 -14 -350 -46 -414
-21 -40 -30 -45 -151 -86 -25 -8 -48 -15 -52 -15 -3 0 14 29 38 65 24 36 51
89 60 118 34 107 28 377 -12 500 -9 26 -32 69 -51 94 -19 25 -31 49 -26 54 4
4 33 10 63 12 30 2 65 4 77 5 17 2 27 -8 42 -35z m586 0 c13 -36 25 -218 29
-448 3 -137 8 -265 11 -282 9 -40 29 -42 52 -6 15 22 19 59 24 202 4 97 7 177
8 179 0 2 11 -4 23 -12 12 -9 36 -16 52 -16 32 0 242 45 299 65 l37 13 0 -175
0 -174 -44 -20 c-119 -52 -400 -124 -450 -115 -50 9 -101 47 -100 74 0 12 1
186 2 387 l2 365 24 -12 c14 -6 27 -17 31 -25z m-1283 -19 c39 -9 75 -45 88
-90 22 -76 35 -328 22 -431 -17 -130 -42 -187 -96 -212 -77 -37 -231 -54 -415
-48 -263 9 -329 28 -362 102 -48 107 -52 528 -7 621 18 38 73 53 233 64 134 9
489 5 537 -6z m1108 -265 c3 -134 8 -250 10 -258 4 -11 -19 -20 -100 -36 -58
-12 -127 -25 -153 -28 l-48 -7 3 198 c2 108 1 226 -1 262 l-5 65 60 12 c158
31 210 40 219 39 6 -2 12 -97 15 -247z m-2679 220 c74 -11 138 -24 142 -28 5
-5 3 -55 -3 -112 -6 -57 -12 -171 -13 -254 l-2 -150 -30 3 c-26 3 -152 25
-210 37 -19 4 -20 12 -20 265 -1 143 0 260 1 260 0 0 61 -9 135 -21z m655 -72
c1 -1 4 -121 6 -266 l3 -263 -80 6 c-44 4 -96 10 -115 14 l-35 8 -6 74 c-5 55
2 342 11 439 0 4 212 -7 216 -12z m1409 -4 c11 -26 19 -370 11 -437 -7 -49
-11 -58 -34 -67 -38 -15 -262 -25 -262 -12 0 6 5 35 10 64 12 59 14 332 4 409
l-6 49 73 4 c187 8 196 8 204 -10z m-2097 -764 c81 -72 227 -167 372 -241 471
-242 1111 -287 1616 -114 260 89 549 245 671 361 44 43 46 44 74 30 15 -8 35
-15 44 -15 29 0 14 -24 -62 -98 -86 -82 -209 -167 -378 -259 -364 -200 -764
-287 -1175 -254 -337 27 -673 135 -946 304 -118 73 -174 115 -279 211 l-86 79
38 22 c21 13 42 24 46 24 5 1 34 -22 65 -50z m86 -427 c94 -62 352 -194 445
-228 36 -13 128 -34 204 -47 156 -25 165 -34 82 -79 -77 -43 -139 -63 -306
-103 -285 -68 -607 -96 -889 -76 -199 14 -321 35 -434 76 -87 31 -91 34 -94
64 -5 49 47 150 110 213 134 133 479 243 738 234 60 -2 71 -6 144 -54z m2916
33 c141 -23 275 -61 368 -106 142 -69 260 -200 286 -322 6 -25 3 -30 -37 -47
-120 -53 -410 -100 -617 -100 -352 0 -824 65 -1021 139 -61 23 -181 93 -186
108 -2 5 44 15 101 22 58 6 154 25 213 42 132 37 425 172 508 234 l60 45 115
0 c63 0 158 -7 210 -15z m-1424 -370 c-3 -11 -6 -71 -6 -133 l0 -112 -212 2
-213 3 -11 115 c-7 63 -15 122 -18 130 -5 13 24 15 229 15 231 0 236 0 231
-20z m349 -170 c194 -63 402 -102 715 -136 133 -14 508 -14 625 1 104 12 307
60 386 89 30 12 58 21 62 21 4 0 7 -32 5 -72 -4 -85 1 -82 -158 -128 -179 -51
-295 -65 -570 -64 -446 0 -846 64 -1145 183 -102 41 -115 56 -115 139 l0 53
43 -25 c23 -14 92 -41 152 -61z m-955 1 c0 -68 -2 -74 -22 -79 -13 -3 -72 -26
-133 -51 -153 -63 -444 -124 -724 -151 -353 -34 -689 -9 -936 69 -115 36 -122
43 -130 121 -4 36 -5 68 -3 71 3 2 50 -12 106 -31 216 -76 414 -101 742 -92
415 11 780 79 1015 188 33 15 66 28 73 28 8 1 12 -20 12 -73z"/>
<path d="M6749 8762 c-91 -151 -218 -330 -255 -360 -24 -20 -31 -31 -22 -35
177 -71 345 -147 419 -187 141 -78 305 -197 381 -275 37 -38 68 -65 68 -60 0
6 44 55 97 110 53 55 123 134 156 175 32 41 65 80 74 87 16 13 10 18 -232 186
-77 54 -211 148 -297 210 -86 62 -197 140 -247 174 l-89 61 -53 -86z"/>
<path d="M4916 8978 c-45 -33 -123 -58 -178 -58 -24 0 -38 -5 -38 -12 1 -47
44 -213 70 -264 28 -57 101 -140 159 -180 30 -21 52 -10 134 71 75 73 122 161
142 268 23 121 24 117 -42 117 -61 0 -123 23 -178 64 l-30 23 -39 -29z m103
-138 c58 -46 63 -67 31 -129 -24 -48 -68 -101 -84 -101 -11 0 -65 52 -95 92
-7 10 -17 34 -21 53 -7 32 -5 39 18 60 55 48 77 64 89 65 6 0 34 -18 62 -40z"/>
<path d="M4805 7930 c-3 -5 -1 -10 4 -10 6 0 11 5 11 10 0 6 -2 10 -4 10 -3 0
-8 -4 -11 -10z"/>
<path d="M4741 7894 c0 -11 3 -14 6 -6 3 7 2 16 -1 19 -3 4 -6 -2 -5 -13z"/>
<path d="M4590 7810 c0 -5 5 -10 11 -10 5 0 7 5 4 10 -3 6 -8 10 -11 10 -2 0
-4 -4 -4 -10z"/>
<path d="M4614 7760 c0 -13 4 -16 10 -10 7 7 7 13 0 20 -6 6 -10 3 -10 -10z"/>
<path d="M3853 7153 c-35 -5 -62 -29 -47 -42 5 -5 27 -14 49 -21 51 -16 135
-61 135 -72 0 -5 -11 -13 -25 -18 -40 -15 -115 -90 -140 -140 -78 -156 -36
-354 95 -445 121 -84 293 0 350 170 20 59 22 82 17 166 -3 53 -1 101 4 106 12
12 -63 124 -124 184 -85 83 -205 126 -314 112z m267 -218 c84 -43 95 -141 20
-180 -57 -29 -115 -14 -151 41 -23 35 -24 65 -4 104 26 51 78 64 135 35z"/>
<path d="M6051 7120 c-125 -59 -342 -307 -241 -275 17 5 18 3 9 -27 -14 -52
-11 -182 7 -235 70 -210 308 -271 456 -117 82 86 112 241 69 355 -31 80 -113
158 -195 183 -15 5 -16 9 -5 22 18 22 98 61 153 75 26 6 45 16 43 23 -6 17
-45 24 -142 25 -80 1 -97 -2 -154 -29z m121 -209 c48 -53 29 -134 -38 -166
-40 -19 -67 -19 -104 0 -61 32 -80 107 -39 159 29 37 55 47 109 42 34 -3 51
-11 72 -35z"/>
<path d="M1932 6088 c-31 -29 -59 -54 -61 -55 -13 -8 19 -16 119 -29 62 -8
133 -14 158 -12 l46 3 12 50 c7 27 10 53 6 57 -6 6 -185 38 -212 38 -6 0 -37
-24 -68 -52z"/>
<path d="M1607 5836 c-9 -10 -17 -28 -17 -41 0 -19 8 -26 38 -34 60 -17 116
-13 146 10 14 11 26 26 26 33 0 20 -49 38 -116 43 -48 4 -64 2 -77 -11z"/>
<path d="M2485 6071 c-41 -25 -69 -57 -96 -111 -19 -36 -24 -61 -24 -125 0
-95 27 -159 87 -208 68 -55 164 -34 242 53 46 51 64 91 72 163 11 93 -36 196
-107 232 -41 22 -137 19 -174 -4z"/>
<path d="M2214 5331 c-47 -21 -63 -40 -44 -51 9 -5 9 -9 1 -14 -6 -4 -11 -2
-11 3 0 6 -7 11 -17 11 -15 0 -15 -1 0 -18 20 -22 22 -35 5 -29 -17 5 -49 -48
-41 -69 5 -14 3 -15 -15 -5 -27 15 -28 7 -2 -21 11 -12 20 -27 20 -32 0 -6 -5
-3 -11 7 -5 9 -14 17 -19 17 -9 0 -25 -39 -22 -52 1 -5 -3 -8 -9 -8 -7 0 -9
-10 -7 -25 3 -14 2 -27 -2 -30 -11 -7 -4 -229 8 -252 20 -36 187 -57 272 -33
103 28 185 119 203 223 19 112 -30 307 -77 307 -6 0 -45 20 -86 45 -41 24 -82
45 -90 45 -8 0 -34 -9 -56 -19z m16 -75 c0 -2 -8 -10 -17 -17 -16 -13 -17 -12
-4 4 13 16 21 21 21 13z m-144 -171 c1 -8 -2 -15 -7 -15 -5 0 -9 10 -9 22 0
23 12 17 16 -7z m9 -34 c3 -5 2 -12 -3 -15 -5 -3 -9 1 -9 9 0 17 3 19 12 6z"/>
<path d="M7517 4980 c7 -28 20 -34 18 -8 -1 12 -6 23 -12 25 -7 3 -9 -4 -6
-17z"/>
<path d="M7656 4923 c-6 -14 -5 -15 5 -6 7 7 10 15 7 18 -3 3 -9 -2 -12 -12z"/>
<path d="M7790 4811 c0 -5 5 -13 10 -16 6 -3 10 -2 10 4 0 5 -4 13 -10 16 -5
3 -10 2 -10 -4z"/>
<path d="M7915 4740 c-3 -5 -2 -10 4 -10 5 0 13 5 16 10 3 6 2 10 -4 10 -5 0
-13 -4 -16 -10z"/>
<path d="M4364 4795 c-20 -30 -35 -57 -33 -60 18 -17 95 -63 100 -59 13 7 69
97 69 109 0 7 -22 24 -50 39 l-49 27 -37 -56z"/>
<path d="M4584 4702 c-12 -15 -29 -42 -38 -61 -18 -33 -17 -33 10 -62 15 -16
35 -29 43 -29 9 0 32 23 51 52 19 28 40 57 45 65 7 11 3 20 -18 39 -36 31 -67
30 -93 -4z"/>
<path d="M3200 5000 c0 -5 7 -7 15 -4 8 4 15 8 15 10 0 2 -7 4 -15 4 -8 0 -15
-4 -15 -10z"/>
<path d="M3270 5006 c0 -2 8 -10 18 -17 15 -13 16 -12 3 4 -13 16 -21 21 -21
13z"/>
<path d="M5985 4858 c-22 -11 -41 -22 -43 -23 -6 -5 69 -125 78 -125 12 0 90
31 90 36 0 10 -73 134 -78 134 -4 -1 -25 -10 -47 -22z"/>
<path d="M5825 4786 c-17 -12 -16 -16 19 -74 20 -34 41 -64 46 -67 5 -3 21 2
34 11 25 15 25 17 10 47 -25 48 -64 97 -78 97 -7 0 -21 -6 -31 -14z"/>
<path d="M5712 4730 c-23 -11 -42 -23 -42 -27 0 -5 16 -39 35 -75 34 -64 37
-66 63 -57 15 5 36 16 46 24 19 15 19 16 -9 75 -16 34 -34 65 -40 70 -6 5 -27
1 -53 -10z"/>
<path d="M3728 4423 c7 -3 16 -2 19 1 4 3 -2 6 -13 5 -11 0 -14 -3 -6 -6z"/>
<path d="M3198 3145 c-9 -20 -8 -28 6 -44 16 -18 90 -44 99 -34 2 2 1 18 -2
36 -6 27 -11 32 -34 30 -21 -1 -27 3 -27 18 0 27 -28 24 -42 -6z"/>
<path d="M7126 3209 c-53 -63 -19 -149 59 -149 49 0 74 15 91 57 27 64 -12
123 -82 123 -35 0 -47 -5 -68 -31z m83 -13 c20 -24 10 -70 -16 -74 -27 -4 -46
28 -37 63 7 28 35 33 53 11z"/>
<path d="M5003 3093 c-138 -4 -130 2 -134 -98 l-3 -60 130 -7 c178 -10 191
-13 209 -48 37 -72 2 -90 -189 -97 -78 -2 -146 -6 -152 -8 -13 -4 -4 -55 23
-132 13 -37 20 -44 56 -54 52 -15 347 -15 436 0 76 12 95 28 110 86 13 53 14
384 1 405 -7 12 -41 15 -187 16 -98 0 -233 -1 -300 -3z"/>
<path d="M8052 3649 c-71 -9 -174 -59 -230 -112 -55 -52 -85 -121 -80 -183 4
-44 24 -87 138 -290 73 -132 189 -349 258 -484 212 -418 325 -629 442 -824
131 -218 155 -248 216 -272 39 -15 53 -16 113 -5 96 17 177 58 233 119 51 55
63 85 55 137 -5 28 -472 979 -497 1010 -20 26 -242 459 -316 619 -95 204 -120
241 -178 266 -58 25 -83 28 -154 19z m132 -161 c33 -15 44 -31 147 -233 48
-93 146 -282 218 -420 72 -137 219 -426 326 -641 214 -430 219 -444 170 -503
-36 -41 -138 -91 -189 -91 -52 0 -78 18 -113 78 -15 26 -52 85 -82 132 -46 72
-200 361 -469 880 -61 119 -140 263 -217 395 -77 132 -115 211 -115 240 0 26
57 97 94 117 40 22 151 58 178 58 15 0 38 -5 52 -12z"/>
<path d="M8052 3358 c-34 -11 -73 -31 -87 -44 l-25 -23 45 -90 c24 -49 78
-147 118 -218 41 -70 102 -184 137 -253 35 -69 78 -147 94 -175 45 -71 198
-365 326 -622 68 -136 121 -230 137 -243 34 -26 85 -26 134 2 63 35 60 45
-125 423 -68 138 -149 302 -179 365 -31 63 -105 205 -165 315 -60 110 -140
259 -179 330 -39 72 -76 151 -83 177 -20 76 -52 89 -148 56z"/>
</g>
</svg>
