<?xml version="1.0" standalone="no"?>
<!DOCTYPE svg PUBLIC "-//W3C//DTD SVG 20010904//EN"
 "http://www.w3.org/TR/2001/REC-SVG-20010904/DTD/svg10.dtd">
<svg version="1.0" xmlns="http://www.w3.org/2000/svg"
 width="1024.000000pt" height="1024.000000pt" viewBox="0 0 1024.000000 1024.000000"
 preserveAspectRatio="xMidYMid meet">
<metadata>
Created by potrace 1.16, written by Peter Selinger 2001-2019
</metadata>
<g transform="translate(0.000000,1024.000000) scale(0.100000,-0.100000)"
fill="#000000" stroke="none">
<path d="M4785 8873 c-481 -43 -903 -187 -1322 -452 -88 -56 -177 -118 -197
-139 -20 -20 -75 -77 -123 -127 -145 -150 -318 -377 -413 -540 -78 -135 -194
-376 -239 -497 -97 -262 -174 -558 -193 -748 l-11 -115 -70 -50 c-81 -59 -145
-125 -254 -267 -229 -297 -384 -592 -448 -853 -42 -170 -31 -258 37 -286 83
-35 193 -6 433 115 126 64 186 102 285 180 146 115 250 213 328 311 31 39 68
80 82 92 25 21 25 24 32 215 3 106 7 279 7 384 2 317 39 600 112 844 86 290
231 577 409 810 130 170 448 444 634 544 179 98 446 196 633 235 173 36 290
44 563 38 224 -4 269 -8 370 -30 454 -100 782 -276 1091 -586 212 -213 309
-343 427 -572 224 -436 300 -844 302 -1615 l0 -201 62 -84 c88 -120 328 -354
456 -445 172 -122 391 -224 514 -239 68 -9 121 13 145 58 43 84 -44 390 -193
676 -122 235 -320 510 -460 639 -81 74 -84 79 -84 122 -1 140 -59 403 -149
680 -120 363 -306 703 -535 976 -456 544 -1044 854 -1741 919 -144 13 -385 17
-490 8z"/>
<path d="M4800 8421 c-219 -21 -397 -67 -645 -168 -193 -79 -320 -158 -507
-316 -236 -198 -374 -384 -537 -721 -99 -204 -153 -375 -191 -606 -21 -130
-39 -550 -40 -946 0 -100 -5 -205 -10 -235 -12 -64 -38 -93 -154 -175 -44 -32
-142 -103 -216 -158 -273 -201 -255 -184 -240 -235 4 -16 11 -61 15 -98 9 -87
90 -534 115 -633 67 -264 202 -565 376 -841 186 -294 368 -493 634 -690 148
-110 196 -139 420 -248 231 -112 332 -149 574 -211 248 -63 298 -70 561 -77
249 -6 374 4 528 43 327 82 592 189 855 345 229 136 362 243 553 442 324 340
569 760 709 1212 64 206 89 336 100 522 5 93 13 193 16 224 7 63 20 46 -117
151 -31 24 -94 73 -139 110 -46 37 -97 72 -113 78 -29 9 -29 9 -22 -18 13 -54
17 -180 6 -233 -15 -73 -86 -164 -139 -179 -101 -28 -165 0 -198 85 -34 90
-16 291 27 302 24 7 28 28 39 208 5 88 14 246 20 350 7 111 9 275 5 395 -19
587 -71 829 -267 1225 -120 243 -335 504 -549 665 -297 224 -607 364 -919 416
-101 17 -430 26 -550 15z m-375 -496 c168 -45 384 -194 501 -347 25 -32 51
-58 57 -58 7 0 20 12 29 28 9 15 59 73 112 129 143 151 280 224 482 259 127
22 293 15 377 -15 182 -64 328 -185 479 -396 50 -70 128 -217 128 -242 0 -9
-20 -13 -74 -13 -40 0 -100 -3 -132 -6 l-59 -5 -44 93 c-73 155 -201 263 -370
312 -70 20 -228 21 -304 1 -159 -41 -293 -156 -369 -315 l-43 -90 -35 5 c-19
3 -62 10 -95 15 -69 11 -183 3 -239 -17 -52 -18 -66 -17 -66 6 0 10 -19 56
-41 101 -81 161 -247 288 -405 309 -153 21 -314 -11 -418 -83 -103 -71 -202
-190 -233 -282 -8 -24 -20 -47 -26 -51 -10 -6 -239 -5 -245 2 -10 10 36 124
83 202 94 160 184 259 320 352 101 69 148 91 245 112 102 23 290 20 385 -6z
m-52 -459 c67 -33 144 -112 179 -184 31 -63 33 -72 33 -177 0 -100 -3 -115
-28 -166 -35 -73 -119 -152 -204 -192 -61 -28 -77 -31 -151 -30 -69 1 -92 6
-147 31 -86 41 -155 107 -196 190 -33 65 -34 71 -34 182 0 99 3 121 22 155 49
91 132 163 226 197 70 25 243 21 300 -6z m1555 -10 c68 -38 146 -122 180 -193
24 -52 27 -70 27 -163 0 -99 -2 -110 -33 -172 -39 -79 -97 -135 -189 -180 -56
-27 -76 -32 -146 -32 -74 -1 -89 2 -152 33 -85 42 -162 117 -201 196 -23 48
-28 73 -32 159 -3 85 -1 110 17 157 26 68 74 126 141 169 82 53 114 61 230 57
94 -2 111 -6 158 -31z m-789 -384 c33 -7 35 -10 55 -87 12 -44 35 -104 51
-134 42 -77 161 -199 236 -244 76 -45 204 -87 262 -87 125 1 301 71 398 158
104 94 189 247 193 346 l1 38 167 -4 c92 -2 171 -7 175 -11 8 -9 -12 -163 -36
-283 -41 -198 -135 -369 -289 -524 -107 -108 -241 -197 -437 -291 -109 -52
-145 -74 -145 -88 0 -10 6 -23 13 -29 6 -5 109 -12 232 -15 230 -6 293 -15
377 -58 62 -32 131 -107 169 -184 l34 -70 0 -170 c0 -93 -8 -397 -17 -675 -18
-525 -21 -558 -67 -647 l-21 -43 152 0 c171 0 191 -6 222 -60 18 -30 21 -49
18 -145 -1 -79 -8 -128 -23 -172 -25 -77 -84 -169 -135 -211 -51 -42 -152 -94
-239 -124 l-70 -23 -1350 -3 c-895 -2 -1387 1 -1461 8 -338 32 -534 222 -534
518 0 101 12 151 44 188 l22 27 167 1 c92 0 167 2 167 4 0 1 -9 20 -20 42 -27
52 -47 178 -55 335 -11 234 -26 457 -41 615 -21 213 -21 467 0 544 42 152 199
276 378 296 46 6 167 10 271 10 179 0 187 1 187 20 0 30 -35 56 -124 91 -261
104 -415 211 -554 384 -68 84 -139 210 -175 311 -29 81 -67 291 -67 370 l0 54
178 0 179 0 17 -82 c10 -46 32 -110 49 -143 43 -83 157 -194 238 -233 84 -40
201 -72 264 -72 117 0 301 77 393 164 92 86 191 257 192 329 0 30 15 39 105
63 50 14 181 11 254 -4z"/>
<path d="M4142 7200 c-60 -37 -81 -134 -42 -198 39 -64 125 -91 189 -58 42 22
81 85 81 132 0 111 -132 182 -228 124z"/>
<path d="M5654 7201 c-88 -53 -83 -195 8 -251 42 -25 78 -25 129 0 75 39 103
134 59 205 -38 61 -134 84 -196 46z"/>
<path d="M4862 6740 c-55 -20 -220 -130 -262 -174 -17 -19 -22 -31 -15 -40 12
-17 240 -269 314 -348 30 -32 63 -58 74 -58 27 0 64 34 170 155 51 57 123 138
160 179 50 55 67 80 62 93 -6 19 -84 83 -167 140 -102 68 -235 89 -336 53z"/>
<path d="M3684 5604 c-82 -29 -153 -135 -162 -239 -2 -27 6 -180 17 -340 11
-159 25 -384 31 -500 17 -323 25 -381 57 -434 16 -25 48 -59 72 -76 l43 -30
596 -7 c878 -9 1794 0 1854 19 61 19 142 91 169 151 19 42 22 75 31 322 5 151
10 435 11 631 l2 355 -30 49 c-17 27 -50 63 -74 80 l-43 30 -1266 2 c-1081 1
-1273 -1 -1308 -13z m1397 -689 c80 -41 117 -107 104 -186 -4 -21 -24 -66 -46
-99 -59 -92 -146 -123 -237 -85 -50 21 -79 51 -109 109 -21 41 -24 60 -21 108
6 82 46 131 134 164 47 17 128 12 175 -11z"/>
<path d="M3260 3734 c0 -153 103 -273 260 -302 67 -13 2783 -14 2878 -2 101
14 171 58 233 147 28 40 59 134 59 179 l0 22 -639 -2 -639 -1 -6 -35 c-6 -40
-55 -104 -94 -124 -20 -10 -84 -14 -252 -16 -394 -4 -366 -7 -416 43 -30 30
-46 57 -55 90 l-11 47 -659 2 -659 3 0 -51z"/>
<path d="M7225 5350 c-11 -4 -46 -15 -77 -25 -64 -20 -61 -15 -83 -140 -29
-170 -14 -250 53 -276 35 -14 87 12 119 60 22 33 23 38 17 210 -4 97 -7 177
-8 177 0 1 -10 -2 -21 -6z"/>
<path d="M3293 2449 c-135 -71 -208 -126 -312 -235 -79 -83 -110 -123 -142
-189 -68 -137 -64 -242 13 -311 69 -64 152 -79 418 -78 190 0 233 3 368 28
261 47 404 87 552 156 205 94 260 134 245 179 -8 25 -52 45 -156 70 -103 24
-312 104 -424 161 -121 63 -335 179 -385 211 -86 53 -91 53 -177 8z"/>
<path d="M6520 2463 c-8 -3 -58 -34 -110 -68 -185 -122 -378 -212 -658 -306
-224 -76 -242 -84 -242 -103 0 -55 316 -200 610 -279 213 -58 318 -72 555 -72
180 0 232 3 285 18 228 62 261 204 103 437 -53 78 -168 195 -245 248 -61 42
-216 119 -253 125 -16 3 -37 3 -45 0z"/>
</g>
</svg>
