<?xml version="1.0" standalone="no"?>
<!DOCTYPE svg PUBLIC "-//W3C//DTD SVG 20010904//EN"
 "http://www.w3.org/TR/2001/REC-SVG-20010904/DTD/svg10.dtd">
<svg version="1.0" xmlns="http://www.w3.org/2000/svg"
 width="1024.000000pt" height="1024.000000pt" viewBox="0 0 1024.000000 1024.000000"
 preserveAspectRatio="xMidYMid meet">
<metadata>
Created by potrace 1.16, written by Peter Selinger 2001-2019
</metadata>
<g transform="translate(0.000000,1024.000000) scale(0.100000,-0.100000)"
fill="#000000" stroke="none">
<path d="M5145 9314 c-66 -13 -153 -26 -495 -74 -188 -27 -297 -55 -510 -130
-266 -94 -407 -171 -541 -295 -65 -59 -69 -61 -146 -72 -191 -28 -307 -111
-363 -260 -103 -273 -124 -448 -65 -548 26 -45 26 -47 11 -93 -46 -140 -64
-435 -37 -592 10 -58 9 -66 -7 -78 -127 -91 -182 -154 -189 -216 -5 -38 -2
-45 26 -68 42 -36 215 -98 271 -98 9 0 27 -19 40 -42 31 -58 84 -131 145 -202
46 -54 211 -203 279 -252 l28 -20 -28 -60 -29 -59 -110 -29 c-99 -25 -128 -28
-285 -30 -116 0 -196 4 -236 13 -58 12 -62 15 -72 50 -6 20 -34 61 -61 92 -27
30 -82 102 -122 160 l-73 104 -7 110 c-8 148 -30 202 -118 297 -37 40 -80 94
-95 119 -62 107 -189 191 -321 210 -61 9 -92 8 -170 -5 -247 -41 -439 -203
-556 -465 -56 -128 -72 -209 -71 -381 0 -125 4 -159 27 -245 26 -98 26 -101 9
-153 -27 -86 -16 -123 100 -358 131 -263 149 -282 298 -301 41 -5 53 -12 85
-51 49 -59 171 -138 346 -222 142 -68 306 -130 345 -130 40 0 32 -20 -18 -45
-27 -14 -50 -29 -50 -34 0 -12 77 -28 200 -42 52 -6 283 -12 513 -14 l419 -4
44 -132 c25 -73 68 -177 95 -232 28 -54 49 -100 47 -102 -2 -1 -41 -22 -87
-45 -145 -72 -262 -139 -376 -216 -61 -41 -115 -74 -121 -74 -6 0 -19 8 -28
19 -36 40 -136 75 -228 79 -76 4 -93 1 -140 -20 -29 -14 -80 -47 -114 -75 -43
-36 -65 -49 -75 -42 -8 5 -48 16 -89 24 -41 9 -86 22 -100 30 -14 7 -54 21
-90 30 -77 20 -85 24 -141 71 -134 112 -379 172 -536 130 -59 -16 -188 -83
-245 -128 -82 -64 -146 -205 -147 -323 -2 -151 52 -353 145 -540 99 -200 225
-347 459 -532 66 -52 133 -109 148 -127 15 -17 60 -94 99 -171 111 -222 223
-360 378 -465 176 -119 314 -146 445 -86 106 48 183 130 205 217 10 40 19 50
77 90 110 74 303 292 379 427 27 49 29 50 83 54 41 3 68 13 101 34 73 49 178
90 362 143 215 61 275 77 413 107 61 14 119 27 130 30 14 4 55 -17 134 -70
171 -114 311 -165 616 -226 231 -47 310 -53 583 -47 191 4 271 10 352 26 124
24 130 25 130 9 0 -29 50 -117 85 -153 21 -21 63 -49 94 -64 50 -23 68 -26
168 -26 111 0 111 0 134 -29 13 -16 50 -41 84 -57 34 -15 68 -35 76 -45 8 -9
37 -34 64 -54 34 -25 64 -60 90 -105 73 -124 224 -239 375 -286 63 -20 97 -24
210 -24 126 0 139 2 192 27 119 55 169 134 210 328 28 129 30 373 4 515 -29
161 -99 363 -193 555 -47 96 -123 258 -170 360 -166 363 -281 516 -420 556
-85 25 -162 15 -269 -34 -49 -22 -138 -57 -199 -78 -60 -20 -143 -52 -184 -70
-69 -32 -76 -33 -98 -19 -33 22 -29 47 12 69 33 18 146 135 227 236 47 58 154
236 223 371 68 133 110 257 125 375 12 91 11 227 -3 240 -4 4 -42 -5 -85 -20
-193 -67 -438 -34 -609 82 -33 22 -81 62 -108 89 -58 58 -176 233 -201 298
l-18 47 25 19 c60 47 171 117 249 157 86 43 282 112 321 112 11 0 39 -11 62
-24 23 -14 70 -32 105 -41 35 -9 93 -31 129 -50 35 -19 78 -35 94 -35 49 0 63
-14 99 -99 69 -165 179 -272 330 -321 67 -22 92 -25 235 -25 157 0 162 1 260
36 183 64 300 146 389 273 132 188 159 407 80 628 -50 138 -129 254 -265 389
-72 71 -265 216 -307 230 -7 2 -16 29 -22 59 -6 30 -18 66 -28 80 -32 42 -108
93 -199 133 -160 68 -203 80 -303 85 -93 4 -96 3 -164 -32 l-69 -36 -86 11
c-136 18 -457 5 -611 -24 -99 -20 -389 -98 -455 -123 -9 -4 -14 28 -18 123
l-5 128 39 38 c41 40 69 93 69 133 0 20 8 26 53 39 47 13 58 14 88 1 144 -60
519 -95 831 -76 464 27 827 119 1189 300 156 78 307 172 376 235 l55 50 -15
37 c-24 57 -93 125 -307 304 -107 89 -217 185 -245 213 -27 28 -56 51 -64 51
-8 0 -66 -53 -130 -118 -83 -84 -147 -139 -225 -191 -212 -141 -547 -289 -791
-350 -98 -24 -312 -61 -351 -60 -26 0 -24 2 21 23 68 31 236 141 315 206 197
163 301 272 478 503 115 149 156 221 141 248 -16 30 -88 66 -199 97 -58 17
-150 47 -205 67 -243 89 -340 112 -361 84 -6 -8 -19 -50 -28 -94 -10 -44 -30
-111 -43 -150 -37 -105 -147 -317 -220 -427 -68 -101 -200 -238 -282 -289 -57
-37 -223 -76 -257 -61 -26 13 -114 120 -114 140 0 7 13 32 29 55 45 66 64 108
53 119 -13 13 -189 88 -223 95 -16 3 -29 10 -29 15 0 5 22 31 49 59 55 56 110
154 139 249 24 81 37 166 25 173 -5 3 -38 -3 -73 -14 -35 -11 -125 -31 -199
-45 -113 -21 -167 -25 -319 -25 -101 -1 -186 2 -189 4 -2 3 7 26 21 50 34 58
88 206 82 224 -6 16 -29 15 -121 -3z m-87 -166 c-11 -31 -70 -53 -298 -109
-278 -68 -485 -131 -645 -197 -98 -40 -121 -46 -215 -52 -58 -3 -107 -4 -110
-2 -11 8 62 59 145 100 94 48 385 147 530 182 86 20 508 86 568 89 18 1 27 -3
25 -11z m2032 -112 c47 -19 135 -49 195 -67 61 -18 111 -34 113 -35 9 -5 -89
-151 -155 -229 -195 -234 -303 -335 -541 -508 -69 -50 -77 -54 -216 -124 l-89
-44 -31 33 c-17 18 -42 40 -55 49 -24 15 -23 15 56 67 89 58 226 191 301 292
99 133 254 424 288 543 14 51 23 67 34 63 8 -3 53 -20 100 -40z m-1320 -107
c0 -18 -107 -60 -193 -75 -98 -18 -719 -17 -714 1 2 6 19 18 38 27 31 16 77
18 380 22 259 3 360 7 409 19 84 19 80 19 80 6z m-1295 -309 c381 -57 650
-129 950 -252 143 -59 418 -202 524 -273 111 -73 112 -78 109 -307 -4 -239 -4
-240 -109 -172 -146 94 -457 240 -693 326 -264 97 -583 170 -966 224 -177 24
-586 30 -735 10 -141 -18 -336 -60 -383 -81 -29 -13 -33 -13 -39 1 -7 20 37
199 79 317 35 100 58 124 143 156 75 28 238 60 365 71 180 15 594 4 755 -20z
m1175 -96 c66 -34 68 -37 75 -81 3 -24 4 -47 2 -49 -3 -3 -26 20 -52 50 -30
35 -67 65 -101 82 -30 14 -54 28 -54 30 0 16 74 -2 130 -32z m2530 -14 c11
-20 40 -46 282 -248 70 -58 125 -109 122 -113 -7 -12 -217 -136 -305 -179
-436 -217 -909 -307 -1459 -279 -178 9 -281 23 -372 50 l-68 20 0 42 c0 23 4
47 8 54 5 7 48 12 132 12 134 1 305 20 460 51 424 86 884 314 1120 554 30 31
58 56 62 56 4 0 12 -9 18 -20z m-1973 -474 c84 -91 99 -145 64 -215 -22 -41
-36 -55 -66 -65 -19 -6 -20 -1 -20 122 0 113 -3 132 -23 170 -12 23 -18 42
-13 42 5 0 31 -24 58 -54z m-2917 -118 c0 -35 5 -103 10 -153 5 -49 14 -153
20 -230 6 -77 13 -155 16 -172 6 -33 6 -33 -81 -73 -48 -22 -93 -40 -100 -40
-17 0 -25 194 -14 328 15 167 57 347 91 390 6 6 21 12 34 12 23 0 24 -3 24
-62z m1346 27 c127 -22 240 -52 293 -77 66 -31 192 -160 229 -235 69 -136 90
-275 73 -472 -18 -202 -84 -394 -177 -517 -49 -66 -113 -126 -125 -118 -5 3
-8 1 -7 -5 5 -17 -102 -91 -197 -137 -156 -75 -244 -96 -437 -101 -202 -7
-298 6 -428 54 -120 45 -176 73 -270 136 -75 50 -227 193 -248 233 -11 20 -10
21 31 13 67 -13 210 -10 260 5 25 7 74 31 109 52 68 41 208 169 208 191 0 7
-53 67 -118 133 -148 150 -150 152 -133 233 50 243 268 492 503 574 152 53
280 64 434 38z m1268 -468 c19 -29 36 -166 36 -293 l0 -102 -36 -21 c-20 -12
-38 -21 -39 -19 -2 2 -5 109 -6 240 -4 222 -3 235 14 227 9 -5 23 -20 31 -32z
m-2378 -253 c19 -9 53 -39 76 -68 23 -28 67 -77 97 -110 42 -45 51 -60 40 -66
-20 -12 -632 -33 -707 -25 -51 5 -63 10 -60 23 6 31 104 92 253 158 83 36 166
75 185 85 44 23 73 23 116 3z m4122 -49 c235 -79 248 -92 246 -260 -3 -176
-47 -312 -170 -515 -104 -173 -202 -276 -322 -336 -86 -44 -153 -40 -259 14
-45 23 -84 46 -87 51 -4 6 14 32 39 58 140 149 289 438 331 644 18 92 24 258
11 331 -8 40 -7 47 10 51 31 9 94 -3 201 -38z m-458 -16 c47 -5 92 -12 101
-15 18 -5 29 -33 29 -77 l0 -28 -72 8 c-40 4 -146 7 -234 6 -490 -6 -987 -192
-1406 -526 -102 -80 -273 -245 -326 -312 l-32 -40 30 85 c53 146 103 223 225
345 205 205 439 343 770 454 127 43 377 97 510 111 89 9 275 4 405 -11z
m-5068 -82 c73 -36 117 -71 105 -83 -4 -4 -35 1 -69 11 -116 34 -243 21 -365
-37 -81 -38 -215 -168 -260 -253 -53 -101 -77 -203 -77 -335 0 -131 14 -208
55 -297 l28 -63 -38 0 c-51 0 -64 17 -97 125 -25 81 -28 105 -28 245 -1 171
16 271 61 368 39 82 134 202 199 251 119 88 189 111 320 108 83 -3 99 -6 166
-40z m1578 -186 c0 -5 -26 -20 -57 -32 -46 -17 -78 -22 -148 -21 -82 0 -269
32 -284 48 -3 4 68 5 159 2 91 -3 194 -2 230 2 99 11 100 11 100 1z m-1403
-36 c109 -33 156 -134 134 -290 -8 -61 -19 -93 -45 -135 -58 -93 -71 -76 -36
45 46 161 11 257 -108 291 -85 25 -209 -1 -256 -54 -60 -69 52 -204 190 -227
68 -12 77 -16 65 -28 -7 -7 -38 -11 -70 -10 -142 3 -270 117 -271 240 0 36 6
50 37 84 20 22 50 48 67 56 78 41 207 53 293 28z m5785 -31 c86 -50 280 -247
335 -341 111 -188 130 -399 53 -570 -76 -167 -319 -316 -540 -330 -223 -15
-380 70 -467 252 l-35 74 29 25 28 24 12 -44 c31 -122 162 -230 306 -254 69
-11 204 5 289 34 228 80 329 225 316 456 -6 97 -38 201 -90 288 -47 79 -195
231 -265 272 l-58 34 9 58 c5 32 11 58 12 58 2 0 31 -16 66 -36z m-5538 -501
c21 -42 70 -112 137 -194 19 -24 20 -31 9 -64 -22 -66 -127 -210 -209 -286
-180 -169 -470 -299 -662 -299 -77 0 -185 28 -220 57 -28 24 -179 309 -179
338 0 8 33 12 113 12 186 1 377 48 553 136 148 74 338 221 396 305 16 23 31
42 33 42 3 0 16 -21 29 -47z m4476 -22 c0 -15 -80 -69 -124 -85 -23 -8 -99
-33 -171 -57 -323 -105 -506 -221 -781 -494 -72 -72 -159 -157 -193 -189 l-61
-59 29 65 c91 200 217 348 416 490 221 157 450 256 730 313 124 26 155 29 155
16z m-2765 -217 c75 -9 260 -65 342 -104 133 -62 250 -149 378 -281 220 -227
338 -448 437 -819 20 -75 22 -109 23 -295 0 -115 -3 -217 -7 -227 -6 -14 -18
-12 -100 24 -119 51 -240 82 -431 109 -133 19 -182 21 -387 16 -254 -6 -312
-14 -525 -77 -60 -18 -118 -34 -127 -37 -37 -11 -165 301 -208 508 -71 344
-44 774 61 954 37 64 52 81 120 137 40 32 81 54 135 71 110 36 148 39 289 21z
m-749 -141 c-11 -43 -16 -49 -51 -61 -21 -7 -97 -20 -169 -28 -141 -17 -259
-13 -401 12 -44 7 -95 14 -112 14 -18 0 -33 2 -33 5 0 2 11 20 24 40 14 20 26
41 28 47 3 8 23 7 74 -3 107 -22 413 -17 539 8 55 11 103 18 106 17 4 -2 2
-25 -5 -51z m2614 -311 c0 -13 128 -202 182 -269 172 -212 478 -341 720 -304
44 7 82 10 85 7 7 -7 -15 -140 -33 -193 -27 -82 -131 -290 -185 -371 -121
-180 -242 -322 -332 -389 -31 -22 -71 -70 -115 -136 -103 -157 -276 -328 -476
-471 -171 -123 -526 -266 -796 -320 -69 -14 -233 -39 -365 -56 -285 -36 -436
-62 -565 -96 -123 -33 -477 -150 -513 -170 -16 -9 -30 -14 -33 -12 -2 3 -8 45
-13 94 -5 49 -23 147 -40 218 -36 147 -36 147 -17 121 22 -33 83 -206 95 -269
6 -33 13 -61 16 -64 2 -3 60 18 127 47 318 136 509 183 1058 261 565 80 893
209 1183 467 149 132 283 310 379 502 50 99 57 102 33 11 -8 -30 -15 -59 -15
-63 0 -8 91 68 155 128 30 29 125 150 172 220 90 134 183 350 183 424 0 18 -3
19 -26 11 -38 -15 -191 -12 -263 5 -146 35 -358 160 -461 272 -102 112 -180
242 -205 345 -6 22 -2 29 22 42 32 17 43 19 43 8z m-4037 -308 c108 -72 331
-162 532 -214 187 -48 308 -62 584 -67 146 -2 268 -6 273 -9 15 -10 9 -62 -9
-69 -10 -4 -112 -10 -228 -12 -301 -7 -486 21 -785 120 -190 63 -421 179 -498
250 l-24 22 29 12 c44 19 53 16 126 -33z m2838 -978 c181 -29 386 -109 534
-209 89 -61 112 -96 36 -57 -46 23 -183 61 -329 91 -126 26 -526 38 -683 20
-155 -18 -323 -55 -461 -101 -203 -67 -488 -218 -627 -331 l-65 -52 -32 37
c-18 21 -45 61 -60 91 l-28 53 24 21 c82 69 413 250 574 312 184 72 352 117
531 143 69 10 494 -3 586 -18z m-3095 -236 c110 -28 213 -80 262 -134 58 -63
75 -128 71 -270 -4 -99 -7 -117 -34 -169 -32 -65 -72 -104 -88 -88 -7 7 -1 41
18 103 53 172 43 230 -53 321 -76 71 -227 115 -303 88 -37 -13 -48 -5 -121 82
-45 53 -43 64 14 77 60 14 153 10 234 -10z m5583 -80 c78 -39 183 -192 276
-400 21 -47 85 -182 143 -300 142 -294 168 -356 202 -484 45 -174 55 -248 53
-416 -2 -292 -52 -429 -171 -465 l-23 -7 26 51 c44 88 58 170 58 341 -1 327
-51 499 -298 1010 -179 372 -241 477 -347 584 -42 44 -76 81 -75 82 2 2 14 7
27 13 40 16 88 12 129 -9z m-5946 -29 c66 -25 217 -197 322 -366 207 -333 301
-456 539 -705 131 -137 221 -244 449 -533 166 -210 184 -245 156 -300 -16 -32
-71 -87 -86 -87 -12 0 -16 10 -27 79 -11 64 -97 185 -291 407 -38 44 -106 123
-150 174 -44 52 -120 137 -170 190 -49 52 -106 113 -126 135 -81 86 -162 195
-280 377 -276 423 -298 455 -369 521 -38 37 -70 70 -70 75 0 8 56 40 72 41 4
1 17 -3 31 -8z m1511 -74 c94 -62 156 -181 156 -297 0 -80 -41 -140 -136 -197
-37 -23 -70 -46 -72 -51 -1 -5 11 -64 27 -131 62 -254 209 -445 381 -496 48
-14 90 -37 90 -50 0 -6 -9 -20 -20 -30 -11 -10 -34 -43 -51 -74 -47 -83 -131
-191 -186 -237 -57 -47 -138 -104 -150 -104 -4 0 -27 28 -50 63 -23 34 -60 88
-83 121 -57 83 -50 91 19 18 35 -36 68 -62 80 -62 33 0 166 88 263 174 l89 79
-30 13 c-17 7 -68 22 -113 34 -222 56 -260 72 -396 169 -200 142 -217 152
-298 176 -110 34 -164 92 -164 176 0 84 92 156 175 135 35 -9 93 -62 115 -107
48 -94 264 -336 350 -394 63 -42 144 -74 156 -62 14 14 -15 58 -91 137 -92 96
-137 177 -160 288 -13 64 -24 248 -14 254 2 2 22 12 44 23 82 42 125 97 125
162 0 77 -99 199 -182 225 -32 9 -41 8 -73 -10 l-35 -22 -25 22 c-36 31 -31
44 23 73 40 22 57 25 115 22 57 -4 76 -10 121 -40z m4195 13 c36 -18 121 -103
121 -121 0 -5 -12 -4 -26 1 -14 6 -34 10 -45 10 -18 0 -20 -4 -14 -32 14 -63
94 -267 146 -370 101 -202 159 -271 259 -307 44 -16 64 -30 75 -51 21 -41 19
-67 -7 -84 -89 -57 -232 -3 -311 117 -69 104 -170 408 -196 592 -7 44 -14 95
-17 113 -6 38 -7 38 -143 17 -53 -8 -110 -16 -127 -17 l-31 -3 59 -90 c73
-109 162 -290 178 -364 12 -52 9 -198 -4 -220 -4 -6 -22 -3 -49 8 l-42 18 0
114 c0 153 -25 217 -145 379 -89 119 -110 151 -110 169 0 5 17 15 38 22 20 6
58 22 84 36 61 30 216 83 246 83 12 0 40 -9 61 -20z m-4877 -34 c33 -42 48
-148 28 -201 -8 -22 -13 -24 -29 -15 -14 7 -21 25 -26 67 -7 58 -21 132 -31
166 -5 16 -2 18 18 12 12 -4 31 -17 40 -29z m152 -46 c52 -19 77 -201 35 -254
-14 -17 -29 -26 -43 -24 -20 3 -21 9 -24 146 -1 78 0 142 2 142 3 0 16 -4 30
-10z m165 -36 c27 -20 73 -116 91 -192 11 -49 11 -56 -7 -80 -25 -33 -62 -40
-80 -16 -7 10 -13 43 -13 73 -1 31 -7 85 -15 121 -16 74 -19 110 -7 110 4 0
18 -7 31 -16z m3987 -46 c4 -13 24 -43 45 -67 22 -24 39 -47 39 -51 0 -4 -20
-15 -44 -24 -24 -9 -52 -26 -61 -36 -18 -19 -17 -20 14 -20 17 0 49 9 71 20
22 11 42 20 45 20 2 0 18 -19 35 -42 l30 -41 -70 -28 c-73 -28 -100 -45 -100
-61 0 -24 160 29 170 57 7 18 9 17 29 -15 11 -19 21 -39 20 -45 0 -5 -30 -25
-67 -43 -37 -17 -80 -44 -97 -58 l-30 -26 35 6 c19 4 64 20 101 37 37 17 72
28 77 25 18 -11 25 -67 11 -81 -8 -7 -49 -27 -92 -45 -42 -18 -87 -40 -100
-51 l-22 -18 40 0 c22 0 70 10 108 23 37 12 69 20 72 18 17 -17 -4 -37 -71
-69 -42 -20 -100 -55 -129 -78 l-52 -42 -12 129 c-18 195 -58 336 -128 450
-19 31 -33 61 -32 67 7 18 123 109 141 110 9 1 20 -9 24 -21z m-5140 -23 c8
-13 13 -28 10 -34 -11 -17 -136 -82 -146 -76 -6 3 -10 21 -10 38 0 28 7 36 53
64 63 39 72 40 93 8z m118 -176 c20 -30 12 -42 -47 -74 -29 -16 -71 -41 -94
-57 -23 -15 -44 -28 -47 -28 -10 0 -30 84 -21 87 6 2 46 23 90 47 44 25 85 45
92 45 6 1 19 -9 27 -20z m1779 -136 c35 -54 71 -113 80 -130 10 -18 24 -47 33
-63 8 -17 14 -37 12 -46 -3 -16 -132 -100 -246 -160 l-62 -33 -15 29 c-20 38
-19 70 1 70 9 0 37 15 63 34 25 19 81 57 124 86 42 28 77 58 77 66 0 8 -3 14
-6 14 -13 0 -120 -65 -171 -103 -66 -49 -123 -71 -140 -54 -7 7 -15 26 -19 43
-6 30 -3 34 62 77 154 102 198 137 176 137 -6 0 -40 -20 -75 -44 -79 -53 -151
-80 -166 -62 -8 10 10 32 73 90 56 50 88 88 96 111 6 19 18 35 25 35 8 0 43
-44 78 -97z m-1661 -67 l16 -33 -110 -52 c-61 -28 -112 -50 -113 -49 -11 14
-35 71 -31 75 10 10 192 91 207 92 8 1 23 -14 31 -33z m128 -176 c7 -17 11
-32 9 -34 -12 -10 -207 -106 -215 -106 -6 0 -18 16 -27 36 l-17 35 92 43 c146
67 141 67 158 26z m1698 -75 c19 -42 15 -62 -16 -73 -16 -5 -44 -23 -63 -40
-53 -46 -132 -84 -165 -78 -26 5 -63 31 -53 39 2 2 51 32 109 67 58 34 118 73
133 86 36 30 41 30 55 -1z m-1565 -103 l16 -29 -95 -46 c-52 -26 -101 -47
-108 -47 -14 0 -46 41 -46 58 0 12 169 90 195 91 13 1 27 -10 38 -27z m5071
-2 c27 -27 14 -47 -36 -54 -52 -8 -93 -31 -169 -98 -61 -52 -139 -155 -139
-182 0 -17 79 -73 118 -82 50 -13 15 -34 -56 -34 -92 1 -172 61 -172 129 0 48
21 89 88 172 66 83 144 142 213 164 54 18 127 10 153 -15z m-3464 -70 c0 -31
-5 -38 -45 -62 -62 -38 -87 -43 -125 -23 l-32 16 94 63 c58 39 96 58 100 52 4
-6 8 -27 8 -46z m1721 -14 c290 -75 759 -93 1041 -40 45 9 98 22 117 30 19 8
36 12 39 9 3 -2 -1 -24 -8 -49 -12 -42 -14 -45 -69 -59 -176 -48 -215 -52
-526 -52 -342 0 -380 5 -640 80 -155 45 -266 90 -269 110 -2 16 105 21 164 8
30 -6 98 -23 151 -37z m1931 -11 c14 -32 -3 -72 -66 -154 -49 -63 -159 -172
-193 -189 -24 -13 -53 -6 -53 13 0 21 74 127 155 220 43 50 84 100 92 113 20
29 51 28 65 -3z m-5120 -60 c14 -32 6 -42 -77 -84 l-66 -34 -27 28 c-15 15
-22 29 -17 31 6 2 44 22 85 43 41 22 78 40 83 40 4 1 12 -10 19 -24z m5312
-61 c12 -31 5 -48 -49 -121 -98 -130 -232 -220 -312 -211 -52 6 -39 33 49 96
46 33 124 103 175 156 90 94 124 114 137 80z m-5171 -96 c15 -24 -3 -41 -81
-78 -73 -34 -92 -33 -92 5 0 21 11 31 68 59 72 38 89 40 105 14z m5266 -126
c23 -44 -82 -178 -171 -220 -74 -34 -158 -24 -158 19 0 8 35 30 78 49 56 25
96 53 147 102 39 37 75 68 82 68 7 0 17 -8 22 -18z m159 -86 c-71 -214 -84
-308 -45 -343 51 -47 141 -72 191 -53 16 6 31 8 34 6 8 -8 -27 -92 -49 -120
-24 -30 -43 -32 -124 -11 -137 35 -251 113 -310 211 l-24 41 42 18 c56 25 188
159 257 262 30 45 56 81 57 80 0 -1 -12 -42 -29 -91z m-5292 59 c9 -14 15 -27
13 -29 -7 -7 -201 -96 -209 -96 -10 0 -34 59 -27 67 12 11 172 81 189 82 10 1
25 -10 34 -24z m126 -152 c25 -23 22 -48 -8 -61 -47 -22 -216 -84 -218 -80 -2
2 -8 17 -14 34 l-10 31 112 45 c61 25 113 46 115 47 3 0 13 -6 23 -16z m146
-177 c12 -28 4 -39 -38 -51 -14 -4 -60 -21 -102 -37 l-78 -31 -19 24 c-11 13
-20 29 -21 34 0 10 198 82 231 84 9 1 21 -10 27 -23z m92 -190 c0 -42 -16 -56
-64 -56 -39 0 -106 30 -106 47 0 10 141 50 158 45 6 -2 12 -19 12 -36z"/>
<path d="M3910 8259 c0 -5 5 -7 10 -4 6 3 10 8 10 11 0 2 -4 4 -10 4 -5 0 -10
-5 -10 -11z"/>
<path d="M4016 8255 c-9 -26 -7 -32 5 -12 6 10 9 21 6 23 -2 3 -7 -2 -11 -11z"/>
<path d="M4511 8249 c-7 -12 -10 -23 -8 -26 3 -3 11 5 17 17 15 28 8 35 -9 9z"/>
<path d="M3980 8249 c0 -5 5 -7 10 -4 6 3 10 8 10 11 0 2 -4 4 -10 4 -5 0 -10
-5 -10 -11z"/>
<path d="M4055 8250 c-3 -5 -1 -10 4 -10 6 0 11 5 11 10 0 6 -2 10 -4 10 -3 0
-8 -4 -11 -10z"/>
<path d="M4130 8251 c0 -5 7 -12 16 -15 14 -5 15 -4 4 9 -14 17 -20 19 -20 6z"/>
<path d="M4200 8248 c0 -4 9 -8 20 -8 11 0 20 4 20 8 0 4 -9 8 -20 8 -11 0
-20 -4 -20 -8z"/>
<path d="M4260 8250 c0 -5 5 -10 11 -10 5 0 7 5 4 10 -3 6 -8 10 -11 10 -2 0
-4 -4 -4 -10z"/>
<path d="M4540 8249 c0 -5 5 -7 10 -4 6 3 10 8 10 11 0 2 -4 4 -10 4 -5 0 -10
-5 -10 -11z"/>
<path d="M4656 8252 c-3 -5 1 -9 9 -9 8 0 12 4 9 9 -3 4 -7 8 -9 8 -2 0 -6 -4
-9 -8z"/>
<path d="M3880 8246 c0 -2 7 -7 16 -10 8 -3 12 -2 9 4 -6 10 -25 14 -25 6z"/>
<path d="M4771 8213 c-10 -26 -10 -27 4 -9 8 11 15 23 15 28 0 15 -7 8 -19
-19z"/>
<path d="M4459 8213 c-13 -16 -12 -17 4 -4 9 7 17 15 17 17 0 8 -8 3 -21 -13z"/>
<path d="M4585 8210 c-16 -17 -16 -20 -3 -15 9 4 19 13 22 21 7 19 2 18 -19
-6z"/>
<path d="M4624 8208 l-19 -23 23 19 c21 18 27 26 19 26 -2 0 -12 -10 -23 -22z"/>
<path d="M4390 8210 c-9 -6 -10 -10 -3 -10 6 0 15 5 18 10 8 12 4 12 -15 0z"/>
<path d="M4550 8209 c0 -5 5 -7 10 -4 6 3 10 8 10 11 0 2 -4 4 -10 4 -5 0 -10
-5 -10 -11z"/>
<path d="M4825 8200 c-3 -5 -1 -10 4 -10 6 0 11 5 11 10 0 6 -2 10 -4 10 -3 0
-8 -4 -11 -10z"/>
<path d="M4670 8189 c0 -5 5 -7 10 -4 6 3 10 8 10 11 0 2 -4 4 -10 4 -5 0 -10
-5 -10 -11z"/>
<path d="M5004 8185 c-4 -8 -10 -15 -16 -15 -5 0 -6 5 -2 12 4 7 3 8 -5 4 -12
-8 -6 -26 9 -26 5 0 14 9 20 20 6 11 8 20 5 20 -3 0 -8 -7 -11 -15z"/>
<path d="M5145 8190 c-3 -5 -1 -10 4 -10 6 0 11 5 11 10 0 6 -2 10 -4 10 -3 0
-8 -4 -11 -10z"/>
<path d="M4946 8173 c-6 -14 -5 -15 5 -6 7 7 10 15 7 18 -3 3 -9 -2 -12 -12z"/>
<path d="M5022 8161 c-9 -26 -8 -28 10 -23 12 3 15 7 9 12 -7 3 -9 14 -5 23 3
9 4 17 1 17 -3 0 -10 -13 -15 -29z"/>
<path d="M4804 8169 c-4 -7 -3 -9 4 -5 5 3 13 0 15 -6 4 -9 6 -10 6 -1 1 17
-16 25 -25 12z"/>
<path d="M5071 8149 c-13 -18 -18 -28 -11 -24 10 6 12 4 7 -9 -4 -10 -3 -15 3
-11 6 4 9 12 8 18 -1 7 3 22 10 35 18 31 10 27 -17 -9z"/>
<path d="M4840 8149 c0 -5 5 -7 10 -4 6 3 10 8 10 11 0 2 -4 4 -10 4 -5 0 -10
-5 -10 -11z"/>
<path d="M5140 8149 c0 -5 5 -7 10 -4 6 3 10 8 10 11 0 2 -4 4 -10 4 -5 0 -10
-5 -10 -11z"/>
<path d="M5280 8149 c0 -5 5 -7 10 -4 6 3 10 8 10 11 0 2 -4 4 -10 4 -5 0 -10
-5 -10 -11z"/>
<path d="M5620 8151 c0 -10 19 -25 25 -20 1 2 -3 10 -11 17 -8 7 -14 8 -14 3z"/>
<path d="M5192 8138 c-1 -7 -3 -30 -5 -51 l-3 -38 18 23 c10 13 17 28 17 33 0
6 -3 4 -6 -2 -2 -7 -9 -13 -15 -13 -6 0 -7 7 -4 15 3 8 9 22 12 30 3 8 2 15
-3 15 -5 0 -10 -6 -11 -12z"/>
<path d="M5406 8133 c-6 -14 -5 -15 5 -6 7 7 10 15 7 18 -3 3 -9 -2 -12 -12z"/>
<path d="M5680 8132 c0 -15 -2 -15 -11 -2 -9 13 -10 13 -8 0 3 -29 -1 -40 -16
-40 -8 0 -24 -22 -35 -48 -14 -33 -26 -48 -40 -48 -21 0 -24 32 -3 40 7 3 10
-1 6 -10 -3 -7 0 -14 6 -14 5 0 16 18 22 40 7 22 17 40 22 40 5 0 5 6 -2 13
-6 8 -9 17 -6 20 3 4 2 4 -2 1 -5 -3 -9 -9 -9 -12 -7 -35 -19 -52 -31 -48 -7
3 -16 -1 -19 -9 -4 -8 -10 -15 -15 -15 -6 0 -4 10 2 23 9 17 9 20 -1 10 -15
-14 -43 -6 -33 10 3 6 1 7 -6 3 -6 -4 -9 -12 -6 -17 4 -5 1 -17 -5 -26 -11
-16 -11 -16 -6 -1 3 10 1 20 -4 23 -5 3 -7 12 -4 19 3 7 -2 16 -11 20 -10 4
-22 -5 -35 -26 -19 -31 -17 -63 2 -37 7 11 8 9 4 -4 -3 -10 -6 -22 -6 -25 0
-4 -4 0 -10 8 -5 8 -12 11 -16 7 -4 -3 -1 -13 6 -22 7 -8 8 -15 2 -15 -16 0
-23 30 -11 51 6 11 8 25 6 32 -2 7 -9 -5 -17 -27 -9 -28 -15 -35 -21 -25 -12
19 -11 32 1 24 6 -3 10 -1 10 5 0 7 -7 10 -15 6 -8 -3 -15 0 -15 6 0 6 -2 9
-5 6 -3 -3 2 -22 11 -42 12 -25 20 -32 26 -24 5 9 8 8 8 -4 0 -10 5 -18 10
-18 6 0 10 -7 10 -15 0 -13 2 -13 14 -3 7 7 12 18 10 23 -3 6 2 19 11 30 11
14 13 15 9 4 -3 -10 -1 -20 5 -24 6 -3 11 1 11 9 0 9 8 14 20 13 24 -2 25 -7
6 -32 -16 -22 -11 -45 10 -45 8 0 11 -6 7 -17 -4 -11 -3 -14 5 -9 7 4 12 2 12
-5 0 -7 11 2 25 21 14 19 25 29 25 23 0 -6 -7 -16 -15 -23 -8 -7 -15 -20 -15
-28 0 -10 10 -2 25 18 14 19 25 29 25 23 0 -6 -7 -16 -15 -23 -17 -14 -21 -35
-5 -25 6 3 10 0 10 -7 0 -10 2 -10 9 1 11 17 31 6 31 -17 0 -15 2 -15 10 -2 8
12 10 12 10 -5 0 -17 2 -17 10 -5 8 13 10 12 10 -4 0 -13 5 -17 20 -13 11 3
18 1 14 -4 -3 -5 -1 -9 5 -9 14 0 157 -69 205 -98 l39 -24 -6 23 c-4 13 0 72
9 131 8 60 12 113 9 118 -11 18 -210 130 -223 125 -7 -3 -11 -1 -8 3 2 4 -9
15 -25 24 -27 16 -29 16 -29 0z m37 -31 c0 -11 -5 -17 -9 -15 -12 8 -10 -4 8
-38 9 -16 11 -28 6 -24 -5 3 -15 19 -22 36 -7 16 -16 30 -21 30 -5 0 -9 5 -9
11 0 8 5 8 15 -1 12 -10 16 -9 21 4 8 22 13 20 11 -3z m-255 -25 c4 -19 1 -22
-13 -19 -15 4 -16 9 -8 24 13 25 16 24 21 -5z m188 -6 c0 -5 -5 -10 -11 -10
-5 0 -7 5 -4 10 3 6 8 10 11 10 2 0 4 -4 4 -10z m43 -25 c4 -8 2 -17 -3 -20
-6 -4 -10 2 -10 12 0 14 -2 15 -9 4 -5 -8 -11 -9 -15 -3 -3 6 0 13 6 15 21 9
26 8 31 -8z m-62 -22 c-8 -15 -10 -15 -11 -2 0 17 10 32 18 25 2 -3 -1 -13 -7
-23z m-95 -21 c0 -10 -6 -19 -13 -19 -8 0 -9 6 -2 19 5 10 11 18 12 18 2 0 3
-8 3 -18z m118 -6 c-3 -9 -10 -16 -15 -16 -6 0 -5 9 1 21 13 24 24 20 14 -5z
m81 -45 c-9 -8 -36 -10 -30 -2 2 4 11 8 20 8 8 0 13 -3 10 -6z"/>
<path d="M4940 8125 c-7 -9 -11 -17 -9 -20 3 -2 10 5 17 15 14 24 10 26 -8 5z"/>
<path d="M5097 8123 c4 -9 8 -12 10 -6 5 15 43 4 43 -12 0 -7 -6 -16 -12 -18
-9 -4 -9 -6 -1 -6 6 -1 18 13 27 29 8 17 10 30 5 30 -5 0 -9 -4 -9 -10 0 -6
-9 -6 -26 0 -36 14 -44 12 -37 -7z"/>
<path d="M5220 8129 c0 -5 5 -7 10 -4 6 3 10 1 10 -4 0 -6 5 -11 11 -11 8 0 8
5 -1 15 -14 17 -30 20 -30 4z"/>
<path d="M5460 8129 c0 -5 5 -7 10 -4 6 3 10 8 10 11 0 2 -4 4 -10 4 -5 0 -10
-5 -10 -11z"/>
<path d="M4965 8120 c-4 -6 1 -7 11 -3 14 5 16 3 11 -12 -6 -15 -5 -16 8 -5
13 11 13 15 3 21 -17 11 -26 11 -33 -1z"/>
<path d="M5025 8120 c-3 -5 -1 -10 4 -10 6 0 11 5 11 10 0 6 -2 10 -4 10 -3 0
-8 -4 -11 -10z"/>
<path d="M5275 8121 c-3 -6 1 -14 9 -17 21 -8 20 -16 -4 -44 -19 -22 -19 -25
-4 -33 13 -7 21 -5 31 9 13 17 14 16 9 -14 -2 -19 -2 -31 2 -27 4 4 8 22 8 42
1 24 -2 31 -9 24 -18 -18 -28 -12 -17 9 8 15 7 25 -4 41 -9 13 -16 16 -21 10z
m20 -81 c3 -5 1 -10 -4 -10 -6 0 -11 5 -11 10 0 6 2 10 4 10 3 0 8 -4 11 -10z"/>
<path d="M5328 8124 c-3 -3 -4 -14 -1 -24 4 -17 7 -17 19 -5 19 18 18 26 -3
18 -11 -4 -14 -3 -9 5 7 12 4 16 -6 6z"/>
<path d="M5363 8101 c-10 -15 -10 -20 0 -24 16 -5 40 20 32 33 -9 15 -19 12
-32 -9z"/>
<path d="M5635 8110 c3 -5 8 -10 11 -10 2 0 4 5 4 10 0 6 -5 10 -11 10 -5 0
-7 -4 -4 -10z"/>
<path d="M5110 8090 c-6 -11 -8 -20 -6 -20 3 0 10 9 16 20 6 11 8 20 6 20 -3
0 -10 -9 -16 -20z"/>
<path d="M5525 8100 c-3 -5 -1 -10 4 -10 6 0 11 5 11 10 0 6 -2 10 -4 10 -3 0
-8 -4 -11 -10z"/>
<path d="M5570 8095 c-8 -9 -8 -15 -2 -15 12 0 26 19 19 26 -2 2 -10 -2 -17
-11z"/>
<path d="M5046 8087 c3 -10 9 -15 12 -12 3 3 0 11 -7 18 -10 9 -11 8 -5 -6z"/>
<path d="M5226 8083 c-6 -14 -5 -15 5 -6 7 7 10 15 7 18 -3 3 -9 -2 -12 -12z"/>
<path d="M5241 8059 c-6 -18 -9 -34 -7 -36 2 -2 9 10 15 28 6 18 9 34 7 36 -2
2 -9 -10 -15 -28z"/>
<path d="M5160 8069 c0 -5 5 -7 10 -4 6 3 10 8 10 11 0 2 -4 4 -10 4 -5 0 -10
-5 -10 -11z"/>
<path d="M5207 8053 c-4 -3 -7 -11 -7 -17 0 -6 5 -5 12 2 6 6 9 14 7 17 -3 3
-9 2 -12 -2z"/>
<path d="M5476 7994 c-4 -9 -4 -19 -1 -22 2 -3 7 3 11 12 4 9 4 19 1 22 -2 3
-7 -3 -11 -12z"/>
<path d="M5443 7985 c4 -8 2 -17 -3 -20 -6 -4 -10 -12 -9 -18 0 -9 2 -9 6 1 2
6 9 12 14 12 4 0 5 -8 2 -17 -6 -15 -5 -16 9 -3 14 13 14 17 1 37 -17 26 -28
30 -20 8z"/>
<path d="M4204 7561 c-68 -31 -104 -99 -104 -197 0 -75 22 -127 70 -167 116
-98 296 21 277 184 -11 87 -57 153 -129 184 -48 19 -64 19 -114 -4z m94 -41
c32 -30 30 -82 -4 -109 -36 -28 -50 -26 -85 8 -35 36 -37 64 -4 96 29 30 64
32 93 5z"/>
<path d="M7380 6490 c0 -5 5 -10 11 -10 5 0 7 5 4 10 -3 6 -8 10 -11 10 -2 0
-4 -4 -4 -10z"/>
<path d="M7403 6473 c-7 -15 -13 -32 -12 -37 0 -6 5 0 10 13 5 13 12 21 15 18
3 -3 1 -15 -6 -26 -9 -17 -15 -19 -30 -11 -28 15 -34 12 -15 -6 10 -11 13 -19
6 -23 -6 -4 -7 -12 -1 -21 9 -13 10 -13 10 0 0 13 1 13 10 0 8 -12 10 -12 10
-1 0 11 3 11 17 0 15 -12 16 -12 10 4 -4 10 -7 20 -7 23 0 2 -8 1 -17 -2 -14
-5 -15 -4 -4 4 21 15 43 3 39 -22 -2 -16 -10 -21 -30 -20 -16 1 -28 -3 -28 -7
0 -5 5 -9 10 -9 6 0 5 -8 -2 -20 -15 -23 -31 -6 -22 24 4 12 2 16 -5 12 -7 -5
-9 -1 -5 8 4 10 1 16 -9 16 -8 0 -34 -30 -58 -67 -24 -38 -53 -81 -66 -96 -30
-37 -29 -49 4 -64 21 -10 28 -10 35 0 14 22 8 31 -8 11 -15 -18 -15 -18 -10 0
5 13 2 17 -9 12 -8 -3 -15 -2 -15 3 0 12 39 21 45 11 3 -5 13 -7 23 -5 9 2 23
4 30 4 7 1 10 6 6 13 -4 6 -3 8 4 4 6 -3 15 2 21 11 6 11 11 13 11 5 0 -8 5
-10 13 -6 10 6 10 4 0 -7 -17 -17 -17 -37 -1 -21 7 7 16 12 22 12 5 0 2 -6 -9
-13 -14 -11 -15 -16 -5 -22 9 -5 11 -4 6 3 -4 7 -3 12 3 12 5 0 18 3 28 6 16
6 15 5 -2 -9 -11 -8 -17 -19 -12 -23 4 -4 7 -2 7 5 0 7 4 10 9 7 4 -3 19 4 32
15 23 20 24 21 5 35 -21 15 -10 19 13 5 19 -12 44 -2 37 15 -3 9 0 11 11 7 13
-5 15 -2 10 11 -5 13 -3 17 5 13 9 -3 13 6 14 28 0 23 -3 32 -13 28 -7 -3 -10
-10 -6 -16 4 -6 1 -7 -7 -2 -10 6 -9 11 4 20 16 12 16 14 0 29 -9 9 -13 20
-10 24 4 3 11 0 16 -8 5 -8 12 -11 17 -7 4 5 3 11 -2 15 -14 10 -17 39 -5 47
5 3 10 11 10 18 0 6 -7 2 -15 -10 -18 -26 -62 -24 -82 3 -12 17 -13 17 -13 -4
0 -12 -4 -22 -9 -22 -4 0 -8 13 -7 30 1 16 5 30 9 30 5 0 5 5 2 10 -10 16 -19
11 -32 -17z m71 -77 c-3 -9 -10 -13 -15 -10 -5 3 -3 11 4 19 15 16 19 13 11
-9z m36 4 c0 -5 -4 -10 -10 -10 -5 0 -10 5 -10 10 0 6 5 10 10 10 6 0 10 -4
10 -10z m-15 -31 c-4 -5 -18 -14 -31 -19 -25 -10 -32 -34 -12 -46 8 -5 9 -2 5
9 -3 10 -2 17 3 17 6 0 10 -4 10 -10 0 -5 5 -10 11 -10 6 0 9 7 5 15 -3 8 3
19 14 25 17 9 18 8 3 -20 -8 -17 -12 -38 -9 -46 3 -8 2 -12 -3 -9 -5 3 -13 0
-17 -6 -3 -6 0 -15 7 -20 16 -10 8 -12 -15 -3 -9 3 -16 17 -16 30 0 14 -6 27
-14 30 -9 3 -12 12 -8 22 9 25 31 44 42 37 5 -3 10 -1 10 4 0 6 5 11 11 11 5
0 7 -5 4 -11z m-84 -46 c-12 -20 -14 -14 -5 12 4 9 9 14 11 11 3 -2 0 -13 -6
-23z m-57 -18 c-4 -8 -10 -15 -15 -15 -4 0 -6 7 -3 15 4 8 10 15 15 15 4 0 6
-7 3 -15z m18 -23 c-7 -2 -12 -11 -12 -20 0 -14 -2 -15 -9 -3 -8 12 -12 12
-24 2 -19 -15 -35 5 -18 22 9 9 11 8 6 -5 -6 -15 -4 -16 19 -5 14 7 26 16 26
20 0 5 5 5 12 1 9 -6 9 -9 0 -12z m41 -24 c10 -16 14 -28 9 -28 -8 0 -32 43
-32 57 0 7 1 6 23 -29z m27 2 c0 -5 -2 -10 -4 -10 -3 0 -8 5 -11 10 -3 6 -1
10 4 10 6 0 11 -4 11 -10z m-100 -20 c0 -5 -10 -10 -22 -9 -22 0 -22 1 -3 9
11 5 21 9 23 9 1 1 2 -3 2 -9z"/>
<path d="M7460 6284 c0 -8 5 -12 10 -9 6 3 10 10 10 16 0 5 -4 9 -10 9 -5 0
-10 -7 -10 -16z"/>
<path d="M7483 6485 c0 -8 4 -12 9 -9 5 3 6 10 3 15 -9 13 -12 11 -12 -6z"/>
<path d="M7514 6475 c-3 -8 -4 -20 -2 -27 3 -7 7 -1 10 15 6 29 1 36 -8 12z"/>
<path d="M7456 6467 c3 -10 9 -15 12 -12 3 3 0 11 -7 18 -10 9 -11 8 -5 -6z"/>
<path d="M7480 6450 c0 -5 5 -10 10 -10 6 0 10 5 10 10 0 6 -4 10 -10 10 -5 0
-10 -4 -10 -10z"/>
<path d="M7340 6410 c0 -5 5 -10 10 -10 6 0 10 5 10 10 0 6 -4 10 -10 10 -5 0
-10 -4 -10 -10z"/>
<path d="M7556 6406 c7 -19 20 -21 30 -3 4 6 4 9 -1 5 -4 -4 -14 -3 -22 4 -11
8 -12 7 -7 -6z"/>
<path d="M7585 6379 c-11 -17 1 -21 15 -4 8 9 8 15 2 15 -6 0 -14 -5 -17 -11z"/>
<path d="M7550 6365 c-8 -9 -8 -15 -2 -15 12 0 26 19 19 26 -2 2 -10 -2 -17
-11z"/>
<path d="M7567 6336 c-3 -8 -2 -18 3 -21 13 -8 20 9 11 24 -6 10 -10 9 -14 -3z"/>
<path d="M7550 6300 c0 -5 5 -10 11 -10 5 0 7 5 4 10 -3 6 -8 10 -11 10 -2 0
-4 -4 -4 -10z"/>
<path d="M7335 6190 c-17 -33 -28 -41 -18 -12 6 14 4 15 -9 4 -13 -10 -17 -10
-21 0 -4 8 -6 7 -6 -4 -1 -10 5 -18 12 -19 6 0 22 -2 35 -3 12 -2 22 2 22 8 0
6 5 4 11 -4 9 -12 9 -11 3 5 -4 11 -7 28 -8 38 -1 23 -3 22 -21 -13z"/>
<path d="M2136 5848 c3 -5 10 -6 15 -3 13 9 11 12 -6 12 -8 0 -12 -4 -9 -9z"/>
<path d="M1905 5795 l6 -30 -18 22 -18 23 -1 -31 c-1 -19 2 -26 7 -18 4 8 11
10 15 6 4 -4 3 -12 -4 -19 -8 -8 -15 -8 -28 3 -16 13 -17 12 -10 -6 5 -15 4
-17 -4 -9 -7 7 -13 23 -13 37 -1 15 -6 22 -11 17 -5 -5 -4 -22 3 -41 13 -39
14 -59 2 -59 -5 0 -7 8 -5 18 3 9 -2 26 -11 37 -16 20 -16 19 -9 -5 6 -23 6
-23 -10 -7 -21 21 -27 22 -20 2 6 -14 18 -19 37 -16 10 1 9 -11 -3 -29 -6 -10
-10 -11 -10 -2 0 6 -5 12 -10 12 -6 0 -5 -8 2 -20 7 -10 15 -16 18 -12 6 9 50
13 50 5 0 -3 -10 -15 -23 -27 -26 -24 -41 -56 -28 -56 5 0 17 -3 27 -7 13 -5
15 -3 10 8 -4 8 0 5 8 -5 16 -20 16 -20 17 0 0 18 1 18 9 -1 l9 -20 1 20 1 20
9 -20 c5 -11 9 -15 9 -8 1 7 8 10 17 6 9 -3 20 0 25 8 5 8 9 9 9 3 0 -9 10 -9
38 -2 20 5 47 12 60 15 12 3 22 10 22 15 0 5 -5 6 -12 2 -7 -4 -8 -3 -4 5 6 9
11 9 21 1 18 -15 36 -4 28 18 -5 14 -3 15 8 5 17 -17 29 -16 29 2 0 9 6 12 17
8 12 -5 14 -3 8 7 -6 10 -4 12 8 7 19 -7 33 23 15 34 -7 4 -15 6 -17 3 -3 -3
1 -9 9 -14 12 -8 11 -10 -5 -11 -11 -1 -26 -2 -32 -2 -7 1 -11 -2 -9 -6 3 -4
0 -13 -5 -21 -8 -11 -9 -4 -4 24 6 33 4 38 -10 32 -9 -3 -19 -6 -22 -6 -3 0 0
-7 7 -15 11 -13 11 -18 0 -28 -7 -7 -10 -7 -7 -1 3 6 0 11 -8 11 -19 0 -19 -5
0 -24 9 -8 13 -18 10 -22 -4 -3 -11 2 -16 12 -8 13 -14 15 -28 7 -14 -7 -22
-5 -32 8 -13 15 -12 16 4 3 12 -9 17 -10 17 -2 0 7 5 9 10 6 6 -3 10 -1 10 4
0 6 -8 11 -17 12 -15 0 -15 2 2 8 11 5 25 4 33 -1 15 -13 16 -3 0 21 -11 18
-13 18 -25 3 -12 -16 -14 -16 -29 3 -9 12 -13 31 -10 48 4 19 2 26 -5 21 -6
-4 -15 -1 -19 6 -5 8 -11 1 -19 -21 -9 -25 -8 -34 1 -40 7 -4 9 -12 4 -16 -5
-4 -11 -2 -13 5 -3 6 -8 10 -13 7 -4 -3 -13 2 -20 10 -9 10 -9 15 -1 15 6 0
11 -5 11 -12 0 -6 3 -8 6 -5 4 4 2 13 -4 20 -7 8 -9 17 -5 20 3 4 1 13 -6 21
-9 11 -9 15 1 19 10 4 10 6 0 6 -7 1 -16 -7 -19 -16 -6 -15 -7 -15 -15 3 -6
14 -7 10 -3 -11z m25 -34 c-6 -12 -9 -25 -6 -30 3 -4 -1 -8 -9 -8 -8 0 -15 2
-15 4 0 11 32 64 37 60 2 -3 0 -15 -7 -26z m80 0 c0 -5 -7 -11 -14 -14 -10 -4
-13 -1 -9 9 6 15 23 19 23 5z m4 -37 c3 -8 2 -12 -4 -9 -6 3 -10 10 -10 16 0
14 7 11 14 -7z m-113 -14 c10 0 19 -4 19 -9 0 -10 -19 -9 -37 2 -6 4 -13 1
-16 -5 -2 -7 -8 -10 -12 -6 -4 4 -1 13 6 21 8 8 16 11 17 6 2 -5 12 -9 23 -9z
m37 -25 c-10 -22 -28 -35 -28 -20 0 5 33 45 37 45 1 0 -3 -11 -9 -25z m59 -7
c-3 -8 -6 -5 -6 6 -1 11 2 17 5 13 3 -3 4 -12 1 -19z m33 12 c0 -5 -5 -10 -11
-10 -5 0 -7 5 -4 10 3 6 8 10 11 10 2 0 4 -4 4 -10z m-73 -19 c0 -11 -5 -18
-9 -15 -4 3 -5 11 -1 19 7 21 12 19 10 -4z m-62 -1 c3 -6 -1 -7 -9 -4 -18 7
-21 14 -7 14 6 0 13 -4 16 -10z m-25 -24 c0 -3 -4 -8 -10 -11 -5 -3 -10 -1
-10 4 0 6 5 11 10 11 6 0 10 -2 10 -4z m58 -16 c-7 -10 -14 -17 -17 -15 -4 4
18 35 25 35 2 0 -1 -9 -8 -20z"/>
<path d="M2085 5801 c17 -21 18 -24 3 -18 -13 5 -18 1 -18 -13 0 -11 -5 -20
-11 -20 -6 0 -8 12 -5 33 l6 32 -15 -30 c-8 -16 -14 -37 -14 -45 0 -10 2 -11
6 -2 2 6 9 9 14 6 6 -3 5 -11 -2 -20 -7 -9 -8 -14 -1 -14 6 0 14 10 18 22 l6
21 14 -24 c7 -13 13 -19 14 -14 0 20 42 15 47 -6 8 -28 21 -23 25 9 l3 27 28
-27 c15 -15 27 -22 27 -16 0 5 6 8 14 5 12 -5 13 -1 4 24 -11 32 -18 35 -36
17 -8 -8 -15 -8 -27 2 -12 10 -15 10 -15 -1 0 -11 -2 -11 -10 1 -6 9 -5 17 2
21 7 4 7 9 0 13 -14 8 -25 -25 -12 -38 19 -19 10 -29 -10 -11 -15 14 -20 15
-20 4 0 -12 -2 -12 -9 0 -5 7 -11 9 -13 5 -3 -5 -3 -2 0 6 7 22 11 77 5 62 -4
-10 -8 -10 -21 0 -11 8 -10 4 3 -11z m146 -83 c-10 -11 -11 -9 -5 6 6 15 4 17
-6 11 -9 -6 -11 -4 -5 4 5 9 10 10 18 2 8 -8 7 -14 -2 -23z"/>
<path d="M2125 5805 c-3 -8 -7 -22 -10 -30 -2 -8 0 -15 5 -15 6 0 10 3 11 8 0
4 2 17 3 30 3 25 -2 29 -9 7z"/>
<path d="M2200 5816 c0 -2 9 -6 20 -9 11 -3 20 -1 20 4 0 5 -9 9 -20 9 -11 0
-20 -2 -20 -4z"/>
<path d="M2268 5803 c7 -3 16 -2 19 1 4 3 -2 6 -13 5 -11 0 -14 -3 -6 -6z"/>
<path d="M1763 5780 c2 -8 10 -15 17 -15 7 0 15 7 17 15 4 13 3 13 -6 0 -10
-13 -12 -13 -22 0 -9 13 -10 13 -6 0z"/>
<path d="M1960 5775 c0 -8 2 -15 4 -15 2 0 6 7 10 15 3 8 1 15 -4 15 -6 0 -10
-7 -10 -15z"/>
<path d="M2206 5773 c-6 -14 -5 -15 5 -6 7 7 10 15 7 18 -3 3 -9 -2 -12 -12z"/>
<path d="M1710 5740 c6 -11 13 -20 16 -20 2 0 0 9 -6 20 -6 11 -13 20 -16 20
-2 0 0 -9 6 -20z"/>
<path d="M1745 5733 c8 -34 25 -54 25 -31 0 9 -5 20 -11 23 -6 4 -8 13 -5 21
3 8 1 14 -5 14 -7 0 -9 -10 -4 -27z"/>
<path d="M1776 5667 c3 -10 3 -17 -2 -15 -5 2 -19 -7 -31 -19 -24 -24 -17 -33
6 -10 12 10 13 8 7 -8 -4 -14 1 -11 19 10 26 32 32 28 14 -8 -7 -15 -2 -12 15
8 25 30 37 60 14 37 -9 -9 -16 -8 -30 5 -18 16 -18 16 -12 0z"/>
<path d="M1690 5633 c-22 -23 -23 -25 -4 -15 12 6 24 18 28 27 7 20 5 19 -24
-12z"/>
<path d="M2871 3374 c0 -11 3 -14 6 -6 3 7 2 16 -1 19 -3 4 -6 -2 -5 -13z"/>
<path d="M7820 4838 c-40 -27 -86 -105 -106 -181 -16 -60 -31 -237 -19 -237 4
0 24 18 44 41 20 22 76 71 125 107 115 86 131 108 131 178 0 45 -4 58 -26 80
-39 38 -103 43 -149 12z"/>
<path d="M8575 4753 c-182 -41 -350 -167 -486 -366 -53 -76 -105 -185 -94
-195 2 -2 60 19 129 47 139 57 261 89 473 124 97 17 153 31 178 47 45 28 95
112 95 160 0 46 -31 111 -65 138 -51 40 -159 61 -230 45z"/>
<path d="M8514 3911 c-109 -28 -255 -88 -268 -110 -4 -6 -4 -11 1 -11 4 0 52
-7 105 -15 117 -17 192 -42 309 -101 100 -50 145 -55 197 -24 41 25 77 99 67
138 -22 90 -103 143 -225 149 -59 3 -99 -3 -186 -26z"/>
<path d="M4490 1524 c-218 -7 -856 -35 -1120 -49 -506 -28 -780 -65 -780 -105
0 -44 283 -83 815 -115 992 -58 2120 -75 2780 -42 182 9 429 22 550 27 575 28
907 67 983 116 103 67 -270 109 -1323 150 -352 13 -1642 26 -1905 18z"/>
</g>
</svg>
