<?xml version="1.0" standalone="no"?>
<!DOCTYPE svg PUBLIC "-//W3C//DTD SVG 20010904//EN"
 "http://www.w3.org/TR/2001/REC-SVG-20010904/DTD/svg10.dtd">
<svg version="1.0" xmlns="http://www.w3.org/2000/svg"
 width="1024.000000pt" height="1024.000000pt" viewBox="0 0 1024.000000 1024.000000"
 preserveAspectRatio="xMidYMid meet">
<metadata>
Created by potrace 1.16, written by Peter Selinger 2001-2019
</metadata>
<g transform="translate(0.000000,1024.000000) scale(0.100000,-0.100000)"
fill="#000000" stroke="none">
<path d="M2995 9753 c-78 -6 -370 -55 -387 -64 -10 -6 -18 -13 -18 -18 0 -4
42 -20 93 -35 140 -42 354 -124 427 -164 123 -67 233 -162 322 -279 69 -88
111 -158 217 -357 54 -101 116 -209 138 -242 l41 -59 -55 -108 c-29 -59 -63
-132 -74 -162 -11 -30 -22 -55 -24 -55 -2 0 -47 29 -100 65 -120 82 -212 128
-327 166 -161 52 -368 74 -463 48 -69 -19 -102 -63 -159 -219 -9 -25 -40 -75
-68 -111 -162 -205 -248 -353 -248 -428 0 -28 44 -61 225 -171 94 -57 240
-147 325 -200 85 -53 183 -112 218 -131 l63 -34 -3 -50 c-3 -36 -16 -69 -46
-118 -22 -38 -44 -82 -47 -98 -6 -28 -9 -29 -60 -29 -54 0 -54 0 -64 -37 -10
-38 -61 -263 -61 -269 0 -2 -30 -2 -66 -1 l-67 2 -40 -153 -41 -154 -51 7
c-45 5 -54 3 -60 -12 -4 -10 -24 -67 -45 -128 -21 -60 -54 -147 -73 -192 -20
-45 -37 -96 -39 -115 -3 -31 0 -35 52 -60 30 -15 108 -49 173 -74 64 -26 117
-52 117 -57 0 -5 -23 -59 -52 -119 l-52 -110 -41 6 c-22 3 -55 9 -72 12 -25 5
-33 3 -33 -9 0 -8 -18 -58 -40 -111 -22 -53 -40 -103 -40 -111 0 -9 -11 -38
-25 -65 l-25 -50 -57 2 -57 3 -11 -55 c-11 -48 -90 -289 -99 -297 -1 -2 -22 4
-46 12 -74 26 -74 26 -94 -82 -20 -113 -18 -108 -86 -277 -38 -94 -50 -134
-43 -145 18 -30 111 -77 217 -112 112 -36 116 -39 116 -109 0 -53 45 -239 75
-315 82 -204 259 -385 490 -500 74 -37 81 -43 64 -53 -10 -7 -99 -55 -196
-109 -590 -320 -1203 -618 -1498 -728 -55 -20 -106 -43 -114 -50 -11 -11 -7
-27 32 -99 89 -168 229 -325 307 -346 86 -23 224 33 958 386 109 52 172 78
168 68 -14 -36 -18 -65 -12 -88 13 -52 205 -144 556 -267 191 -67 229 -84 252
-111 15 -17 26 -34 23 -36 -2 -3 -37 -16 -77 -29 -103 -35 -220 -98 -279 -151
-103 -92 -140 -181 -138 -328 1 -45 -1 -86 -4 -91 -4 -6 -41 -13 -84 -17 -295
-26 -662 -106 -727 -157 -43 -34 -32 -59 44 -97 180 -90 799 -167 1640 -202
135 -6 349 -17 475 -25 504 -32 1644 -29 2210 5 88 6 282 17 432 25 616 34
1197 108 1380 177 73 27 126 73 113 98 -30 56 -251 114 -608 160 -90 12 -174
25 -187 30 -29 11 -33 26 -38 150 -4 117 -27 171 -107 251 -58 59 -223 150
-334 185 -31 10 -56 21 -56 24 0 23 67 58 187 100 283 99 470 178 586 248 64
38 78 51 74 67 -7 28 -133 388 -159 454 l-21 53 -38 -6 c-46 -7 -54 4 -65 85
-5 44 -41 157 -80 253 -6 15 -14 17 -45 13 -22 -3 -39 -4 -39 -2 0 1 -9 38
-19 81 -37 151 -38 137 17 177 74 53 105 123 106 236 1 73 -3 94 -25 139 -14
28 -25 52 -25 52 1 0 33 -9 71 -20 86 -24 210 -26 286 -4 139 40 247 133 332
286 37 66 58 92 95 116 26 17 71 54 100 81 l52 49 0 64 c0 150 -44 407 -101
593 -47 154 -89 234 -161 305 -124 123 -230 183 -378 214 -44 9 -80 22 -87 32
-15 20 -73 170 -73 188 0 7 19 18 43 25 23 7 82 35 130 63 97 55 121 85 94
115 -18 21 -87 162 -87 179 0 6 19 29 42 49 103 91 401 415 603 656 171 203
449 574 595 792 47 70 88 127 93 127 11 0 9 -39 -8 -163 -9 -62 -20 -148 -26
-192 -6 -44 -30 -190 -55 -324 -24 -135 -47 -291 -51 -348 l-6 -104 -41 -21
c-75 -38 -108 -84 -121 -171 -11 -74 2 -131 42 -183 31 -42 34 -50 23 -72 -20
-46 -88 -402 -110 -581 -12 -96 -23 -178 -26 -182 -15 -25 158 -84 271 -94 83
-7 217 13 239 35 6 6 9 39 8 74 l-4 64 134 4 c109 3 151 9 231 32 l98 29 -5
61 c-30 310 -40 399 -62 521 -14 77 -32 166 -40 199 -14 55 -14 60 4 80 35 38
42 63 42 148 0 113 -13 151 -68 206 -42 43 -45 50 -43 92 5 111 -40 457 -93
710 -73 342 -116 567 -116 597 0 52 -23 95 -74 140 -61 53 -167 116 -234 138
-65 21 -153 17 -182 -10 -11 -10 -63 -86 -117 -169 -225 -352 -394 -597 -504
-732 -36 -45 -91 -117 -122 -160 -30 -44 -90 -119 -133 -169 -42 -49 -109
-128 -148 -175 -38 -47 -119 -142 -179 -212 -105 -123 -111 -128 -148 -128
-21 0 -40 3 -42 8 -3 4 -13 63 -22 132 -10 69 -21 129 -25 133 -4 5 -32 14
-61 21 -48 10 -56 16 -77 53 -13 23 -38 88 -57 145 l-35 103 23 17 c12 10 65
43 117 74 52 31 144 88 204 127 60 39 190 119 290 177 199 116 209 127 188
197 -12 39 -51 106 -112 188 -117 160 -153 218 -181 292 -42 110 -121 207
-181 224 -65 17 -254 4 -373 -26 -160 -40 -278 -93 -419 -187 -48 -32 -90 -58
-92 -56 -1 2 -16 33 -32 68 -16 36 -52 104 -80 153 l-51 87 78 123 c43 67 102
164 131 216 180 326 344 511 553 626 116 64 350 151 460 170 20 4 37 11 37 16
0 5 -2 9 -4 9 -2 0 -48 9 -102 20 -347 72 -659 69 -1094 -11 -58 -10 -166 -30
-240 -43 -193 -36 -352 -72 -447 -103 -76 -24 -99 -43 -52 -43 24 0 195 -63
259 -95 59 -30 166 -109 178 -132 18 -35 -26 -229 -78 -346 l-21 -48 -67 59
c-100 88 -180 144 -279 194 -87 45 -215 91 -283 102 -35 6 -35 7 -32 49 14
173 -147 312 -321 277 -150 -29 -238 -123 -243 -259 l-3 -65 -73 -17 c-163
-39 -317 -122 -474 -255 -88 -76 -100 -83 -111 -68 -31 42 -75 173 -90 266
l-17 101 45 41 c54 49 193 120 338 173 l104 38 -104 32 c-206 65 -628 148
-949 188 -112 13 -390 18 -505 8z m380 -113 c132 -11 564 -78 720 -112 l101
-22 -87 -58 c-48 -32 -101 -74 -119 -95 -33 -37 -33 -37 -26 -117 9 -121 30
-206 76 -310 61 -138 130 -238 249 -357 160 -159 281 -232 494 -293 127 -37
241 -49 401 -43 119 4 158 10 250 36 127 37 294 119 392 193 252 191 428 498
451 790 l6 77 -57 54 c-31 30 -86 70 -123 90 -60 32 -65 36 -43 41 83 19 633
107 725 116 149 13 430 20 419 10 -5 -5 -32 -17 -60 -28 -73 -27 -197 -107
-265 -169 -111 -104 -254 -309 -374 -538 -153 -292 -306 -497 -482 -641 -187
-154 -303 -216 -528 -285 -227 -69 -398 -74 -661 -20 -372 77 -704 312 -939
666 -29 44 -90 150 -135 235 -149 281 -245 423 -373 550 -95 95 -187 155 -300
195 -91 33 -91 33 -52 37 78 9 222 8 340 -2z m1810 -189 c70 -31 111 -94 103
-157 -5 -43 -28 -43 -28 1 0 54 -23 90 -70 109 -48 19 -59 15 -53 -16 7 -37
-36 -91 -82 -104 -22 -6 -49 -14 -59 -19 -46 -20 -60 77 -19 134 24 33 98 71
138 71 16 0 48 -9 70 -19z m-79 -308 c9 -49 -2 -435 -16 -543 -6 -47 -18 -107
-25 -134 -8 -27 -15 -62 -15 -78 l0 -28 -91 0 -92 0 7 103 c15 218 50 415 93
519 75 186 124 242 139 161z m139 -68 c32 -58 92 -251 114 -365 26 -137 39
-340 22 -340 -5 0 -16 -2 -24 -5 -11 -5 -15 15 -20 107 -12 206 -65 453 -128
601 -53 124 -33 125 36 2z m112 62 c56 -41 201 -210 248 -289 46 -77 125 -272
125 -308 0 -11 -8 -24 -19 -29 -16 -9 -20 -4 -34 52 -47 194 -132 340 -275
479 -56 54 -103 102 -107 108 -12 19 31 10 62 -13z m-451 -74 c-51 -104 -85
-194 -121 -329 -15 -55 -35 -119 -46 -144 -10 -25 -25 -71 -34 -102 -9 -32
-22 -58 -29 -58 -9 0 -133 69 -154 85 -7 6 39 166 68 234 16 41 54 110 84 155
68 102 215 246 251 246 l25 0 -44 -87z m-176 43 c0 -3 -34 -44 -76 -93 -57
-66 -90 -118 -135 -208 -32 -66 -64 -144 -70 -173 -7 -28 -15 -52 -19 -52 -10
0 -156 153 -169 178 -9 16 -9 27 -1 42 12 22 192 169 249 204 25 15 177 88
219 105 1 1 2 -1 2 -3z m827 -17 c129 -47 294 -164 385 -271 40 -46 45 -58 34
-68 -12 -9 -23 -2 -58 37 -106 119 -195 186 -345 261 -117 59 -126 81 -16 41z
m-1602 -721 c22 -27 49 -65 60 -84 l20 -34 -28 -54 c-16 -29 -48 -76 -72 -102
-31 -34 -45 -58 -45 -79 -1 -30 -1 -29 -61 34 -70 75 -69 66 -6 211 45 103 75
160 85 159 4 0 25 -23 47 -51z m2410 -28 c19 -38 46 -103 60 -145 24 -71 25
-76 9 -100 -9 -14 -18 -24 -21 -22 -2 2 -10 30 -18 61 -8 31 -31 100 -51 152
-31 84 -37 124 -19 124 2 0 21 -31 40 -70z m-3287 34 c148 -30 311 -97 429
-177 93 -62 222 -189 273 -266 59 -88 70 -126 43 -146 -10 -8 -20 -14 -23 -15
-3 0 -17 24 -32 53 -30 57 -150 187 -239 259 -159 128 -395 219 -629 242 -118
12 -139 17 -134 31 3 7 15 17 27 23 33 16 198 14 285 -4z m4361 -10 c17 -14
31 -29 31 -32 0 -4 -45 -8 -99 -8 -171 -3 -308 -37 -476 -119 -159 -78 -315
-216 -412 -364 -31 -47 -58 -88 -60 -90 -11 -13 -25 24 -25 63 1 55 14 80 87
171 127 160 300 276 514 346 143 47 196 56 318 58 85 1 94 -1 122 -25z m-4473
-109 c167 -29 239 -53 315 -107 39 -27 69 -51 67 -54 -2 -2 -26 5 -54 15 -27
10 -64 22 -83 26 -33 7 -34 7 -27 -21 4 -16 15 -37 24 -48 16 -18 16 -18 -5
-12 -17 6 -23 3 -23 -9 0 -9 -11 -28 -25 -43 -14 -15 -25 -34 -25 -43 0 -9 -7
-22 -15 -29 -11 -9 -14 -22 -10 -42 6 -26 4 -28 -24 -28 -21 0 -34 -7 -42 -21
-16 -30 8 -59 117 -142 49 -37 138 -113 197 -170 60 -56 117 -106 126 -112 12
-7 16 -17 11 -34 -9 -39 -26 -35 -66 16 -69 85 -207 216 -308 292 -143 107
-369 202 -520 217 -37 4 -66 11 -66 16 0 14 176 279 210 316 26 28 35 32 83
32 30 0 94 -7 143 -15z m4369 -2 c-51 -12 -253 -77 -280 -90 -37 -19 -75 -53
-75 -68 0 -6 16 -9 43 -7 l42 3 -32 -15 c-37 -17 -45 -31 -12 -21 18 6 19 5
10 -13 -14 -27 -14 -35 1 -26 8 5 9 0 6 -14 -7 -25 -5 -26 22 -10 10 7 23 9
27 4 4 -4 0 -12 -10 -17 -9 -6 -17 -19 -17 -29 0 -10 -5 -22 -10 -25 -19 -12
0 -26 20 -15 23 12 31 12 48 1 11 -7 10 -16 -7 -50 -17 -33 -19 -41 -7 -41 8
0 18 5 21 10 3 6 11 10 17 10 6 0 -1 -15 -16 -34 -14 -19 -26 -40 -26 -46 0
-20 71 1 179 51 101 48 164 69 206 68 11 0 -8 -10 -42 -23 -227 -84 -463 -258
-640 -471 -57 -69 -66 -50 -10 22 46 58 77 118 77 148 0 9 -18 33 -40 52 -22
20 -40 43 -40 50 0 8 -5 11 -10 8 -12 -7 -40 53 -40 85 0 23 -4 24 -32 9 -29
-15 -38 2 -38 74 0 31 -4 57 -9 57 -16 0 -89 -87 -121 -144 -55 -97 -61 -56
-7 49 65 129 220 275 372 352 88 45 340 112 415 111 19 0 26 -2 15 -5z m1628
-28 c40 -19 97 -58 127 -86 l55 -50 -55 -107 c-66 -129 -60 -118 -68 -107 -16
23 -235 145 -260 145 -5 0 -19 -19 -32 -42 -13 -24 -46 -77 -74 -119 -28 -43
-68 -103 -89 -135 -58 -91 -102 -154 -149 -214 -24 -30 -59 -80 -79 -110 -20
-30 -46 -64 -59 -75 -12 -11 -37 -42 -55 -70 -18 -27 -55 -76 -84 -108 -28
-32 -51 -62 -51 -67 0 -5 -26 -38 -58 -72 -32 -35 -65 -73 -74 -86 -8 -13 -44
-55 -79 -94 -35 -40 -82 -92 -104 -117 -22 -25 -50 -54 -62 -63 -12 -10 -32
-35 -44 -56 -20 -34 -106 -128 -224 -243 -27 -26 -59 -58 -70 -69 -95 -99
-220 -218 -265 -252 -30 -23 -71 -57 -91 -75 -33 -31 -38 -33 -63 -22 -14 7
-25 15 -24 19 2 3 77 76 168 162 584 552 1148 1227 1544 1850 47 75 93 139
101 142 8 3 15 14 15 25 0 26 90 131 112 131 10 0 51 -16 91 -35z m-1370 -130
c70 -93 122 -174 116 -179 -2 -2 -29 -6 -59 -8 -30 -3 -47 -3 -37 -1 9 3 17
14 17 26 0 27 -91 180 -133 225 l-32 34 30 -4 c25 -2 42 -19 98 -93z m-3423
76 c0 -5 20 -28 45 -52 49 -48 54 -59 28 -59 -10 0 -29 -9 -43 -20 -31 -24
-80 -27 -80 -5 0 31 33 145 41 145 5 0 9 -4 9 -9z m1944 -62 c18 -82 20 -109
6 -109 -28 0 -60 113 -45 159 11 37 22 23 39 -50z m-2468 -228 c57 -69 84
-117 84 -150 0 -37 -15 -23 -52 52 -20 39 -64 105 -98 146 -55 65 -58 71 -25
45 21 -16 62 -58 91 -93z m2369 74 c241 -50 299 -68 303 -91 5 -42 -9 -43
-118 -14 -58 16 -185 43 -282 61 -98 18 -178 36 -178 39 0 10 63 39 85 39 12
1 97 -15 190 -34z m-1551 3 c5 -9 8 -20 5 -23 -3 -3 -95 -23 -205 -45 -109
-22 -230 -48 -267 -59 -48 -13 -70 -15 -72 -7 -17 57 -16 64 18 75 33 10 318
67 372 74 68 9 138 2 149 -15z m4725 -95 c6 -38 18 -108 26 -157 8 -48 28
-123 44 -166 35 -91 68 -266 111 -589 23 -177 28 -237 19 -247 -19 -24 -38
-16 -43 19 -14 94 -36 271 -42 337 -6 77 -50 390 -60 425 -13 47 -37 105 -44
105 -13 0 -29 -82 -34 -180 -5 -83 -31 -262 -82 -565 -22 -135 -65 -318 -76
-332 -15 -18 -48 -16 -48 3 0 9 7 39 15 67 8 29 26 129 39 222 14 94 40 253
59 355 20 102 38 214 42 249 4 35 16 94 26 130 16 56 18 85 13 192 -10 187 12
270 35 132z m-4474 -11 c72 -23 146 -42 165 -44 19 -2 -26 -9 -100 -16 -74 -8
-246 -25 -381 -38 -204 -20 -423 -52 -549 -81 -21 -5 -17 3 30 51 62 64 69 67
250 101 74 14 180 36 235 50 129 32 184 28 350 -23z m-2000 -35 c210 -65 328
-131 493 -276 79 -70 130 -129 250 -292 12 -15 10 -26 -10 -71 l-25 -53 -28
55 c-59 118 -232 297 -378 393 -152 101 -357 176 -522 193 -36 4 -65 9 -65 11
0 2 7 20 15 40 l15 36 88 -6 c49 -3 122 -16 167 -30z m5050 27 c13 -5 45 -53
45 -67 0 -2 -32 -7 -71 -11 -87 -8 -290 -73 -399 -127 -99 -50 -215 -136 -298
-221 -61 -62 -168 -204 -198 -260 -19 -36 -27 -35 -50 7 l-19 36 30 57 c70
133 264 334 405 418 171 103 314 150 527 173 6 0 19 -2 28 -5z m1082 -66 c21
-20 48 -86 38 -96 -6 -6 -108 7 -120 16 -19 13 -75 90 -75 102 0 23 129 5 157
-22z m-3112 -62 c143 -14 310 -34 370 -46 61 -11 133 -25 162 -30 73 -12 254
-60 281 -74 13 -7 34 -35 47 -64 27 -58 22 -62 -37 -38 -110 46 -538 132 -778
156 -154 15 -490 30 -685 30 -502 0 -1117 -81 -1412 -186 -29 -10 -55 -16 -58
-12 -4 3 5 29 20 57 30 60 30 60 210 106 174 45 259 60 530 91 433 50 896 53
1350 10z m2975 -106 c19 -10 57 -96 47 -106 -3 -4 -31 -3 -61 0 -52 7 -57 10
-96 62 l-41 54 66 0 c37 0 75 -4 85 -10z m-5187 -175 c-3 -9 -8 -14 -10 -11
-3 3 -2 9 2 15 9 16 15 13 8 -4z m5041 6 c31 -6 59 -43 72 -95 l7 -29 -58 6
c-64 6 -88 23 -124 87 l-22 40 48 -1 c26 -1 61 -4 77 -8z m-4039 -26 c111 -29
207 -91 351 -226 101 -95 158 -124 239 -123 84 0 140 32 268 151 162 151 282
212 418 213 159 0 261 -43 372 -159 84 -88 124 -153 163 -266 27 -76 28 -89
29 -265 0 -213 -8 -254 -70 -380 -35 -70 -58 -100 -134 -172 -50 -48 -91 -93
-91 -99 0 -7 7 -17 16 -24 29 -21 7 -50 -129 -173 -73 -65 -180 -170 -237
-232 -203 -218 -430 -435 -573 -547 l-66 -51 -58 50 c-92 80 -244 227 -303
294 -30 34 -100 112 -155 174 -55 62 -179 183 -275 268 -243 215 -256 232
-176 232 25 0 47 4 50 9 3 5 -26 37 -65 72 -113 100 -204 254 -234 394 -19 93
-19 276 1 373 40 197 134 335 299 440 95 59 239 78 360 47z m-845 -70 c-5 -14
-17 -40 -26 -58 -26 -50 -134 -359 -134 -384 0 -12 -3 -24 -8 -27 -13 -8 -92
17 -92 30 0 15 32 91 75 179 19 39 55 114 80 167 40 86 49 99 78 107 17 5 33
10 34 10 1 1 -2 -10 -7 -24z m2933 -14 c25 -21 86 -148 142 -296 25 -66 47
-123 48 -128 3 -10 -80 -47 -87 -39 -3 3 -6 15 -6 26 0 39 -137 419 -164 454
-14 19 43 5 67 -17z m1849 -82 c19 -22 44 -96 37 -104 -10 -9 -122 24 -140 41
-10 11 -25 37 -34 58 l-17 39 69 -6 c52 -5 72 -11 85 -28z m767 -209 c6 -69
20 -161 31 -205 29 -118 27 -131 -19 -155 -53 -27 -97 -83 -111 -142 -7 -29
-18 -48 -26 -48 -20 0 -18 46 6 114 23 69 37 146 96 535 3 18 7 31 9 30 2 -2
8 -60 14 -129z m-5929 90 c16 -11 38 -35 49 -53 20 -32 20 -34 3 -90 -10 -31
-21 -59 -24 -63 -4 -3 -21 -3 -38 1 -34 8 -35 12 -15 95 6 23 5 24 -6 5 -7
-10 -15 -33 -19 -50 -5 -26 -10 -30 -43 -33 -20 -2 -37 -1 -37 1 0 9 60 189
66 198 9 15 34 10 64 -11z m3730 -47 c36 -75 52 -149 30 -141 -8 2 -17 11 -21
19 -65 130 -80 172 -68 180 23 14 26 12 59 -58z m1270 9 c29 -14 37 -26 49
-70 8 -29 11 -55 8 -58 -3 -4 -29 -1 -58 6 -57 14 -89 41 -120 103 l-19 37 52
0 c30 0 68 -8 88 -18z m-140 -172 c23 -12 59 -82 60 -113 0 -16 -5 -18 -42
-12 -68 11 -91 27 -120 80 -15 28 -28 54 -28 59 0 12 102 1 130 -14z m-4880
-81 c25 -5 75 -19 113 -31 57 -17 67 -23 67 -43 0 -25 -48 -174 -79 -248 l-21
-48 -29 16 c-17 8 -36 15 -43 15 -38 1 -38 16 6 130 52 138 58 131 -114 133
l-115 2 -6 -40 c-3 -22 -16 -64 -28 -92 -19 -43 -28 -53 -47 -53 -29 0 -29 2
-1 92 14 43 22 89 19 110 -2 23 1 39 10 44 34 21 197 29 268 13z m3927 -11
c23 -8 33 -18 33 -33 0 -11 9 -59 21 -107 20 -84 20 -118 1 -118 -10 0 -62
148 -62 174 0 32 -71 32 -235 -1 -44 -9 -82 -18 -84 -19 -2 -2 15 -53 38 -115
23 -61 41 -112 39 -114 -12 -9 -74 -35 -84 -35 -7 0 -16 15 -19 33 -4 17 -29
85 -56 151 -27 65 -49 122 -49 126 0 12 48 29 140 49 99 22 268 27 317 9z
m820 -83 c21 -14 43 -69 43 -107 0 -21 -26 -23 -83 -7 -30 8 -43 20 -67 62
-43 76 -41 81 27 73 32 -4 68 -13 80 -21z m-4837 3 c0 -7 -12 -52 -26 -100
-22 -70 -31 -88 -46 -88 -10 0 -21 7 -25 16 -6 17 19 109 43 157 15 27 54 38
54 15z m3919 -76 c7 -14 15 -48 18 -75 5 -40 3 -49 -8 -45 -20 7 -39 50 -46
108 -5 42 -3 50 9 45 9 -3 21 -18 27 -33z m760 -87 c21 -6 41 -57 41 -107 0
-25 -2 -26 -37 -21 -70 11 -83 21 -109 78 -13 31 -24 59 -24 64 0 8 91 -2 129
-14z m1586 1 c18 -26 31 -174 18 -193 -5 -7 -46 -20 -90 -30 -125 -26 -159 1
-151 120 6 75 24 94 114 111 93 19 91 19 109 -8z m-6467 -91 c120 -17 208 -39
275 -67 40 -18 47 -24 41 -42 -31 -99 -76 -233 -83 -244 -7 -11 -17 -11 -57 1
-27 8 -50 21 -52 29 -2 12 31 113 62 189 6 14 -7 20 -71 37 -68 18 -218 42
-261 42 -11 0 -12 -3 -3 -14 20 -24 -36 -166 -65 -166 -25 0 -27 27 -6 97 12
38 24 87 28 111 6 42 7 42 48 42 22 0 87 -7 144 -15z m4350 -21 c-18 -19 -61
-37 -139 -61 -61 -19 -127 -40 -145 -48 l-33 -13 20 -51 c10 -28 19 -58 19
-67 0 -16 -70 -88 -77 -80 -5 4 -66 165 -77 203 -6 19 -1 25 34 43 80 41 301
98 385 99 l40 1 -27 -26z m354 -65 c32 -8 39 -15 48 -47 14 -53 13 -82 -5 -82
-8 0 -36 6 -62 13 -40 10 -49 17 -64 52 -35 82 -35 85 8 78 21 -3 55 -9 75
-14z m1308 0 c66 -15 80 -32 80 -96 0 -54 -19 -115 -39 -128 -18 -11 -136 -8
-159 4 -42 22 -52 41 -52 97 0 111 54 150 170 123z m-5996 -52 c-3 -18 -15
-55 -26 -83 -15 -43 -22 -51 -38 -47 -31 8 -33 19 -12 76 38 100 43 107 64 96
15 -8 18 -17 12 -42z m6180 -204 c-13 -70 -26 -150 -29 -178 -7 -54 -18 -47
-30 20 -3 22 -14 55 -22 72 -15 32 -14 34 14 66 24 27 48 77 69 145 2 7 8 11
12 8 5 -3 -1 -63 -14 -133z m-1647 96 c33 -11 48 -40 55 -104 3 -28 1 -30 -29
-27 -84 9 -89 13 -137 121 l-16 33 48 -6 c26 -4 61 -12 79 -17z m1803 -83 c0
-93 -21 -669 -25 -674 -2 -2 -26 0 -55 4 -50 7 -52 8 -46 33 3 14 13 114 21
221 18 242 51 492 67 501 29 18 38 -3 38 -85z m101 9 c25 -113 46 -269 59
-420 5 -71 12 -153 15 -182 5 -51 5 -51 -28 -58 -17 -4 -39 -8 -48 -11 -14 -4
-17 19 -22 193 -7 211 -21 376 -41 485 -7 37 -10 70 -7 73 3 3 16 5 30 3 22
-3 27 -11 42 -83z m-6664 4 c122 -23 217 -49 316 -86 52 -19 67 -29 67 -45 0
-24 -54 -160 -80 -203 -10 -16 -24 -50 -30 -75 -18 -67 -23 -70 -78 -55 -130
36 -464 135 -472 140 -16 10 -12 30 10 50 11 10 20 29 20 41 0 13 11 49 25 79
13 31 30 83 37 116 12 57 13 59 44 59 18 0 82 -9 141 -21z m4572 -90 c46 -10
55 -16 67 -45 8 -18 14 -46 14 -62 0 -29 0 -29 -47 -21 -81 13 -79 11 -124
127 -10 25 -16 25 90 1z m1604 -25 c-20 -112 -73 -570 -73 -635 0 -99 0 -99
-80 -83 l-32 7 7 61 c16 152 28 236 67 444 l42 223 35 -3 c20 -2 35 -8 34 -14z
m62 -4 c24 -39 62 -719 40 -725 -5 -2 -27 -6 -48 -9 l-37 -5 5 362 c2 199 4
368 5 375 0 15 26 16 35 2z m-5319 -84 c177 -58 295 -115 404 -196 97 -72 367
-339 647 -640 l191 -205 -21 -24 c-12 -13 -65 -58 -119 -102 l-96 -78 -120
132 c-201 222 -237 263 -335 385 -154 190 -206 252 -314 375 -115 130 -124
134 -317 183 -56 14 -108 29 -115 33 -10 6 -9 24 3 84 9 42 16 86 16 97 0 17
3 19 18 11 9 -5 81 -30 158 -55z m3504 -56 c26 -6 52 -49 66 -104 l7 -29 -44
7 c-80 13 -116 45 -134 119 l-7 28 43 -7 c24 -4 55 -10 69 -14z m-265 -34 c55
-57 110 -156 87 -156 -10 0 -48 -10 -85 -22 l-68 -22 -62 69 c-34 38 -62 72
-62 76 0 11 119 98 134 99 8 0 33 -20 56 -44z m722 2 c34 -32 29 -45 -29 -63
-29 -10 -79 -28 -111 -42 -33 -13 -63 -23 -69 -21 -10 4 91 96 142 131 32 22
39 21 67 -5z m-1112 -63 c68 -33 173 -122 225 -191 54 -72 122 -200 150 -282
11 -36 23 -103 26 -155 5 -84 4 -97 -20 -147 l-25 -55 5 55 c22 210 -174 553
-374 654 -93 47 -179 63 -220 42 -46 -24 -74 -90 -70 -169 2 -44 -2 -70 -11
-81 -25 -30 -36 0 -36 97 0 82 3 97 28 142 65 116 195 153 322 90z m-441 -62
c-16 -46 -18 -193 -4 -261 l11 -48 -93 -91 c-200 -194 -516 -445 -893 -708
-93 -65 -228 -160 -300 -210 -71 -51 -159 -110 -195 -132 -36 -22 -83 -52
-105 -67 -33 -23 -48 -26 -95 -24 -30 2 -55 8 -55 13 1 6 43 45 95 88 52 43
158 136 235 206 148 136 232 207 490 422 286 237 416 354 670 603 138 135 251
245 251 246 1 0 -4 -17 -12 -37z m-2714 -14 c209 -48 360 -104 360 -133 0 -7
-13 -31 -28 -52 -15 -21 -43 -66 -61 -99 -19 -33 -53 -89 -76 -125 -23 -36
-49 -77 -58 -92 -23 -38 -51 -27 -43 16 l5 31 -15 -27 c-8 -16 -16 -28 -18
-28 -8 0 -76 31 -76 34 0 2 25 46 55 97 30 51 55 96 55 100 0 3 -17 9 -37 12
-21 3 -90 15 -153 26 -139 24 -363 51 -431 51 -47 0 -49 -1 -49 -27 0 -16 -13
-50 -28 -78 -23 -42 -32 -50 -59 -53 -18 -2 -33 -1 -33 3 0 6 35 74 70 135 11
19 20 45 20 57 0 21 4 23 63 23 175 0 447 -31 587 -66 50 -12 121 -22 204 -27
45 -3 42 20 -6 44 -24 12 -47 28 -53 35 -5 7 -37 18 -70 24 -33 6 -104 23
-158 36 -54 14 -120 25 -145 25 -26 0 -55 3 -64 5 -24 7 -23 35 1 66 19 24 22
24 88 16 37 -5 106 -18 153 -29z m3345 -295 c67 -97 129 -275 144 -415 9 -82
-6 -116 -61 -146 -41 -21 -130 -23 -178 -3 -64 26 -130 72 -145 101 -28 53
-16 52 64 -3 48 -33 71 -42 114 -46 64 -5 113 16 127 54 16 41 11 153 -9 232
-24 93 -52 150 -141 285 -38 59 -70 111 -70 115 1 12 117 -118 155 -174z m458
126 c145 -23 261 -122 344 -290 65 -132 78 -187 69 -309 -7 -93 -25 -161 -26
-94 0 42 -52 192 -86 251 -50 86 -122 174 -176 215 -58 44 -181 105 -271 133
-46 14 -61 25 -78 52 -16 28 -17 37 -7 43 18 12 160 11 231 -1z m-4223 -55 c0
-13 -60 -122 -73 -133 -15 -13 -47 -6 -47 10 0 12 28 66 52 101 12 17 29 27
44 27 13 0 24 -2 24 -5z m145 -37 c-17 -57 -61 -123 -82 -126 -31 -5 -29 10
12 85 26 45 42 63 56 63 16 0 19 -4 14 -22z m170 -30 c-15 -48 -48 -118 -61
-129 -8 -6 -21 -9 -29 -5 -14 5 -14 9 1 38 33 66 69 118 82 118 9 0 11 -7 7
-22z m726 -113 c123 -132 316 -373 446 -558 125 -178 119 -163 72 -205 l-26
-23 -28 41 c-49 71 -72 81 -203 91 -64 5 -210 21 -325 35 -114 15 -209 25
-211 23 -2 -2 -11 -55 -20 -117 -21 -138 -22 -142 -55 -142 -54 0 -55 6 -27
151 15 74 29 144 31 157 5 19 12 22 53 22 62 0 319 -25 452 -44 156 -22 190
-24 190 -9 0 8 -19 32 -42 56 -24 23 -65 73 -93 112 -27 38 -67 90 -90 116
-22 25 -68 87 -103 137 -35 50 -75 103 -88 117 -28 30 -45 27 -23 -3 45 -61
119 -172 119 -178 0 -8 -47 -1 -140 20 -36 8 -68 11 -73 7 -4 -4 -14 -56 -22
-117 -26 -187 -22 -174 -54 -174 -51 0 -56 19 -37 128 9 54 29 145 44 202 l27
105 40 3 c23 2 47 12 58 23 16 18 17 21 2 41 -17 25 -21 122 -5 116 5 -1 65
-61 131 -133z m2398 67 c83 -86 141 -162 141 -183 0 -11 -17 -29 -42 -45 -24
-15 -60 -40 -81 -57 -37 -29 -38 -29 -59 -11 -29 27 -158 194 -158 206 0 13
122 147 134 148 5 0 34 -26 65 -58z m-3644 -72 c131 -12 232 -28 397 -66 119
-27 298 -106 298 -131 0 -10 -129 -231 -164 -280 -6 -8 -116 35 -116 45 0 7
27 66 60 132 33 66 58 120 56 120 -2 0 -39 9 -82 20 -146 36 -328 70 -429 80
-55 5 -128 12 -163 16 -56 6 -62 5 -56 -10 12 -32 -69 -202 -101 -213 -5 -1
-16 1 -24 6 -12 8 -9 23 23 89 20 44 39 97 42 118 12 88 8 84 77 84 34 0 116
-5 182 -10z m4956 -31 c72 -24 112 -82 197 -284 110 -260 135 -584 61 -815
-58 -181 -133 -291 -234 -341 -69 -33 -221 -34 -308 -2 -67 25 -165 92 -232
159 -64 65 -162 214 -201 306 -43 101 -124 353 -124 385 0 21 2 23 18 11 44
-32 168 -180 215 -258 55 -90 241 -292 329 -356 49 -36 173 -84 218 -84 33 0
60 29 95 98 68 135 90 256 83 445 -7 166 -39 313 -118 542 -32 94 -61 178 -65
188 -9 21 15 23 66 6z m-1563 -96 c22 -25 38 -52 35 -59 -5 -14 -119 -102
-338 -259 -82 -60 -236 -172 -341 -249 -472 -347 -1100 -778 -1454 -996 -74
-46 -171 -106 -215 -135 -94 -61 -462 -283 -555 -335 -36 -20 -135 -77 -220
-127 -387 -225 -1228 -653 -1470 -748 -169 -67 -237 -88 -250 -80 -6 3 -10 0
-10 -9 0 -25 112 -166 138 -173 29 -7 103 27 702 328 494 248 1097 577 1325
724 33 21 103 63 155 93 124 72 266 164 720 467 848 567 1429 994 1840 1354
l55 48 24 -29 c20 -25 22 -31 10 -43 -35 -32 -263 -218 -344 -280 -49 -38
-148 -114 -220 -169 -71 -56 -166 -127 -210 -158 -44 -31 -107 -77 -140 -101
-98 -72 -294 -210 -380 -267 -44 -29 -98 -68 -120 -86 -54 -44 -918 -620
-1080 -720 -273 -169 -618 -370 -809 -473 -44 -24 -98 -54 -120 -69 -49 -31
-884 -451 -1082 -545 -131 -62 -255 -113 -382 -158 l-52 -18 -65 61 c-36 33
-88 95 -116 136 -59 89 -62 84 63 131 367 141 1400 668 1788 913 36 22 99 60
140 83 41 23 158 93 260 155 102 62 211 127 242 145 31 18 76 47 100 63 24 16
145 93 270 170 313 195 859 559 1103 735 39 28 156 114 260 192 105 78 202
150 216 161 76 56 239 183 348 273 68 55 127 101 132 101 4 0 25 -21 47 -47z
m-3468 -15 c0 -11 -18 -54 -41 -94 -33 -61 -45 -74 -65 -74 -13 0 -24 5 -24
11 0 13 76 147 98 171 18 21 32 15 32 -14z m190 -8 c0 -32 -104 -190 -125
-190 -8 0 -15 7 -15 16 0 18 45 96 87 152 23 31 53 43 53 22z m5155 -58 c54
-82 105 -256 135 -460 20 -136 27 -279 10 -217 -5 17 -18 80 -30 140 -30 147
-88 334 -149 480 -28 65 -51 121 -51 122 0 2 14 -3 30 -12 17 -9 41 -32 55
-53z m-4965 6 c0 -11 -17 -56 -37 -99 -26 -56 -42 -79 -55 -79 -32 0 -16 57
44 157 32 52 48 59 48 21z m894 -145 c4 -27 3 -68 -2 -93 -6 -39 -11 -45 -32
-45 -21 0 -26 5 -28 34 -6 59 24 151 48 151 5 0 11 -21 14 -47z m-1306 -23
c105 -17 203 -35 217 -40 14 -5 65 -19 112 -31 105 -26 273 -104 273 -127 0
-23 -150 -282 -164 -282 -26 0 -111 38 -109 48 2 7 29 61 62 121 l58 110 -46
19 c-75 32 -169 58 -291 81 -256 46 -396 71 -407 71 -5 0 -13 -17 -16 -38 -7
-56 -84 -192 -108 -192 -27 0 -25 27 11 134 17 50 33 109 36 130 l5 39 88 -6
c48 -4 174 -20 279 -37z m1445 -22 c8 -55 -3 -109 -22 -106 -17 4 -19 37 -6
104 8 43 21 44 28 2z m-1603 -83 c0 -28 -90 -197 -103 -192 -34 11 -7 113 45
173 32 36 58 44 58 19z m170 -39 c0 -25 -50 -129 -77 -158 -39 -44 -44 -6 -8
70 46 99 85 139 85 88z m3820 0 l45 -24 17 -128 c10 -70 24 -151 33 -180 8
-28 15 -69 15 -91 1 -21 7 -67 15 -103 7 -36 11 -68 7 -72 -4 -4 -23 -3 -42 1
-39 8 -47 26 -49 113 0 26 -4 49 -8 51 -5 2 -71 -4 -148 -14 -244 -30 -578
-53 -621 -42 l-39 9 32 32 c30 31 34 32 114 32 116 0 632 57 643 72 2 1 -3 57
-10 123 -7 66 -13 130 -13 143 -1 27 -27 28 -146 7 -101 -18 -116 -8 -61 41
67 58 144 69 216 30z m-3620 -50 c0 -27 -74 -196 -84 -193 -5 2 -14 10 -19 19
-16 25 66 188 95 188 4 0 8 -7 8 -14z m-657 -121 c93 -10 304 -51 456 -90 122
-32 392 -132 414 -154 9 -9 -167 -355 -206 -404 l-23 -29 -134 47 c-74 25
-276 93 -447 151 -172 58 -313 111 -313 117 0 6 24 76 54 156 41 114 52 155
48 185 -6 48 10 60 55 41 18 -8 61 -17 96 -20z m1738 -12 c9 -24 6 -78 -7
-140 -3 -16 -12 -23 -28 -23 -49 0 -55 47 -20 148 18 48 40 54 55 15z m2353
-80 c3 -46 1 -65 -10 -74 -21 -18 -27 -5 -26 53 4 124 27 137 36 21z m-2126
-18 c3 -91 -8 -114 -40 -75 -16 19 -19 34 -14 66 16 118 50 124 54 9z m1928
40 c7 -19 14 -54 14 -79 0 -36 -4 -46 -20 -51 -30 -10 -38 1 -45 60 -13 98 20
143 51 70z m-2331 -133 c66 -12 217 -28 335 -37 118 -9 218 -20 222 -24 4 -4
-6 -22 -22 -40 -29 -31 -33 -32 -83 -27 -217 25 -569 56 -577 51 -11 -7 -2
-71 15 -105 11 -22 10 -25 -12 -37 -14 -7 -39 -13 -55 -13 l-30 0 7 107 c9
137 16 157 53 150 15 -2 81 -14 147 -25z m-468 -124 c83 -77 129 -158 89 -158
-23 0 -166 167 -166 194 0 18 36 1 77 -36z m-157 -193 c111 -44 227 -140 357
-295 113 -136 142 -211 82 -218 -22 -3 -40 11 -100 73 -79 82 -228 201 -324
259 -32 19 -65 46 -72 58 -17 31 -18 152 0 145 6 -3 32 -13 57 -22z m751 -12
c21 -36 87 -198 82 -205 -8 -15 -68 -8 -100 11 -59 37 -112 161 -83 196 18 21
87 20 101 -2z m171 7 c47 -14 68 -43 68 -97 0 -32 -5 -46 -22 -57 -35 -25 -53
-19 -97 30 -49 55 -56 104 -18 122 28 14 26 14 69 2z m1948 -16 c51 -25 130
-130 130 -172 0 -23 -21 -30 -71 -24 -30 3 -40 11 -59 45 -13 23 -45 65 -72
94 -26 28 -48 56 -48 62 0 22 72 20 120 -5z m183 12 c66 -28 157 -158 141
-200 -8 -20 -38 -29 -72 -21 -20 4 -34 19 -55 59 -16 29 -48 77 -73 106 -34
40 -42 55 -32 61 19 13 55 11 91 -5z m-2484 -9 c6 -7 18 -44 26 -82 9 -38 23
-82 31 -98 19 -36 13 -42 -37 -41 -46 2 -68 19 -104 80 -30 52 -32 93 -4 128
22 29 69 35 88 13z m616 0 c16 -13 13 -16 -41 -46 -32 -17 -64 -29 -71 -27
-19 8 -16 63 5 75 25 15 85 13 107 -2z m1491 -15 c27 -15 89 -83 108 -120 18
-35 10 -42 -51 -42 -32 0 -45 9 -114 83 -44 45 -79 85 -79 89 0 19 96 12 136
-10z m590 9 c22 -10 50 -31 62 -45 28 -36 55 -108 50 -137 -2 -20 -9 -24 -45
-27 l-43 -3 -23 54 c-14 29 -41 75 -61 101 -20 26 -36 54 -36 62 0 20 46 18
96 -5z m-820 -4 c54 -31 114 -97 114 -126 0 -38 -179 40 -210 92 -11 17 -17
34 -14 39 8 12 86 9 110 -5z m1036 -16 c50 -32 102 -120 96 -163 -3 -20 -9
-23 -51 -26 l-47 -3 -31 68 c-17 37 -42 83 -55 101 -14 17 -22 37 -19 42 12
19 61 10 107 -19z m-3088 -45 c-4 -42 -3 -66 5 -70 6 -4 11 -12 11 -18 0 -5
-26 16 -57 47 l-56 58 27 24 c15 12 38 23 52 23 24 0 24 -1 18 -64z m3288 37
c37 -41 48 -66 48 -116 0 -77 -60 -105 -75 -35 -4 18 -24 66 -45 106 l-37 72
41 0 c33 0 48 -6 68 -27z m-1441 -47 c48 -33 119 -151 119 -198 0 -42 -32 -88
-61 -88 -24 0 -79 52 -79 74 0 22 -54 139 -81 178 -22 30 -22 31 -4 44 28 21
66 17 106 -10z m-116 -154 c35 -87 34 -96 -12 -89 -51 9 -82 34 -115 96 -16
29 -28 55 -26 56 2 1 21 15 43 30 l40 26 22 -28 c13 -15 34 -56 48 -91z m1897
-19 c43 -30 101 -63 130 -74 l53 -19 -55 5 c-30 4 -115 10 -188 14 -72 4 -135
10 -138 13 -3 4 1 17 9 30 8 12 22 44 32 70 l17 47 32 -16 c17 -8 66 -40 108
-70z m-4800 10 c51 -111 137 -232 228 -323 106 -106 173 -152 291 -199 114
-46 127 -64 32 -45 -94 20 -116 29 -216 97 -168 114 -276 242 -333 397 -55
149 -56 190 -2 73z m3196 23 c-2 -15 -7 -28 -13 -29 -12 -2 -19 38 -10 60 9
25 27 1 23 -31z m196 -6 c32 -12 35 -56 6 -92 -23 -30 -140 -108 -162 -108 -9
0 -21 6 -27 14 -10 11 -5 27 20 73 61 109 100 137 163 113z m-714 -57 c0 -43
22 -78 46 -75 31 4 51 -26 84 -123 17 -49 30 -90 30 -92 0 -10 -67 -1 -95 13
-47 22 -142 125 -166 179 -29 66 -23 88 28 100 23 6 45 13 49 18 15 14 24 6
24 -20z m948 15 c23 -23 12 -56 -40 -113 -64 -70 -135 -108 -183 -99 -41 7
-43 14 -14 40 12 10 43 51 70 91 27 40 57 77 66 82 25 14 86 14 101 -1z m182
-43 c51 -26 35 -75 -49 -150 -66 -59 -141 -82 -181 -55 -13 9 -10 15 18 41 19
17 56 64 83 105 54 81 71 89 129 59z m-2415 -25 c14 -5 23 -15 20 -20 -7 -12
-40 -4 -70 16 -19 14 -19 14 2 14 12 0 34 -4 48 -10z m2621 0 c23 -9 26 -15
21 -44 -3 -18 -19 -56 -37 -84 -25 -42 -43 -57 -95 -83 -57 -28 -67 -30 -99
-19 l-35 11 41 42 c22 23 54 69 70 102 17 33 35 66 40 73 13 15 57 16 94 2z
m214 -35 c21 -25 4 -83 -41 -141 -57 -74 -94 -99 -146 -99 -65 0 -72 17 -27
58 23 21 55 68 79 116 l39 81 42 0 c25 0 47 -6 54 -15z m178 -31 c30 -21 28
-53 -7 -122 -32 -64 -52 -85 -96 -102 -30 -12 -103 -16 -112 -6 -2 2 16 29 40
59 25 30 50 72 57 94 24 73 39 93 68 93 15 0 38 -7 50 -16z m176 -26 c57 -25
40 -107 -39 -185 -48 -49 -56 -53 -98 -53 -26 0 -47 3 -47 6 0 3 15 25 34 50
32 42 55 95 70 167 7 30 35 36 80 15z m-1638 -23 c28 -11 40 -26 63 -78 41
-92 45 -108 30 -118 -25 -16 -67 -9 -93 14 -24 21 -86 153 -86 183 0 18 41 18
86 -1z m1834 -14 c35 -25 36 -54 5 -117 -35 -70 -82 -104 -147 -104 -53 0 -59
8 -27 36 29 25 69 111 69 147 0 47 18 70 48 62 15 -3 38 -14 52 -24z m-2303 5
c3 -3 -6 -23 -20 -45 -47 -71 -155 -63 -132 10 10 30 55 50 103 45 24 -2 46
-6 49 -10z m2463 -25 c48 -34 34 -138 -25 -190 -29 -25 -45 -31 -81 -31 l-44
0 39 50 c45 57 58 105 42 151 -6 18 -11 36 -11 41 0 12 51 -1 80 -21z m-1800
-18 c33 -20 55 -48 86 -107 25 -47 25 -50 8 -63 -21 -16 -34 -16 -69 -3 -20 8
-36 31 -66 95 -21 47 -39 90 -39 95 0 13 47 3 80 -17z m-562 -57 c34 -47 40
-77 20 -94 -13 -10 -40 -15 -65 -13 -23 2 -12 151 11 151 1 0 17 -20 34 -44z
m-294 0 c28 -21 61 -36 90 -40 25 -4 46 -10 46 -14 -1 -17 -19 -32 -59 -50
-32 -15 -51 -18 -79 -11 -46 10 -85 39 -96 72 -8 22 -6 31 14 52 13 14 27 25
32 25 4 0 28 -15 52 -34z m1064 -22 c24 -16 27 -30 12 -54 -13 -20 -37 -5 -67
43 l-24 38 28 -7 c15 -3 38 -13 51 -20z m-1238 -43 c0 -19 54 -73 94 -93 77
-40 160 -24 235 46 l33 31 -7 -45 c-16 -101 -87 -170 -176 -170 -44 0 -151 52
-179 87 -30 39 -44 93 -31 126 10 25 31 38 31 18z m1700 -66 c0 -8 21 -67 47
-131 53 -130 52 -136 -26 -132 -42 3 -45 5 -53 38 -5 19 -19 71 -33 115 -13
44 -26 90 -30 103 -6 21 -3 22 44 22 39 0 51 -4 51 -15z m-293 -187 c9 -70 14
-130 12 -132 -3 -3 -23 -8 -45 -11 l-40 -7 -11 121 c-6 66 -15 126 -19 132 -4
7 -25 10 -55 7 -48 -5 -62 2 -37 19 7 4 46 17 88 28 l75 20 7 -25 c5 -14 15
-82 25 -152z m582 68 c35 -73 33 -86 -16 -86 -18 0 -25 10 -38 52 -37 124 -2
147 54 34z m280 33 c39 -53 2 -84 -38 -33 -12 15 -21 35 -21 45 0 30 33 23 59
-12z m-2323 -133 c-3 -32 -6 -75 -6 -94 0 -34 0 -34 -37 -27 -21 3 -42 10 -47
15 -5 5 -3 55 4 119 l13 109 40 -31 39 -32 -6 -59z m2748 88 c3 -9 6 -29 6
-45 0 -16 16 -70 35 -119 38 -99 43 -130 19 -130 -16 0 -73 114 -95 192 -7 23
-13 44 -15 46 -1 2 -86 -20 -190 -47 -104 -27 -285 -73 -401 -102 -117 -29
-218 -56 -224 -60 -8 -5 -1 -39 25 -115 20 -60 36 -116 36 -125 0 -11 -16 -19
-51 -27 -29 -7 -53 -11 -55 -10 -1 2 -25 75 -54 162 -38 118 -48 161 -39 167
28 17 281 82 509 130 135 28 286 61 335 74 111 28 151 30 159 9z m-1555 -168
c12 -66 9 -76 -24 -76 -25 0 -28 8 -40 93 -6 39 -4 52 11 68 18 20 18 20 30
-3 7 -13 17 -49 23 -82z m-250 31 c17 -61 11 -121 -13 -125 -10 -2 -22 2 -27
10 -10 15 -12 162 -2 171 11 12 30 -13 42 -56z m-458 32 c13 -26 8 -134 -8
-150 -8 -8 -17 -8 -32 0 -17 9 -21 21 -21 57 0 48 23 114 39 114 6 0 15 -10
22 -21z m229 -15 c14 -37 12 -117 -3 -139 -13 -17 -15 -17 -35 3 -25 25 -29
79 -11 131 13 38 36 40 49 5z m-490 -29 c8 -10 10 -30 6 -60 -8 -51 -6 -49
-41 -33 -19 9 -25 19 -25 44 0 18 3 39 6 48 8 20 38 21 54 1z m-668 -25 c18
-11 43 -20 56 -20 12 0 22 -5 22 -10 0 -6 -15 -61 -34 -123 -19 -61 -39 -131
-45 -154 -12 -42 -13 -43 -54 -43 -68 0 -90 9 -82 34 4 11 18 62 31 111 27
104 31 155 10 155 -7 0 -19 7 -26 15 -10 12 -6 18 22 35 41 25 59 25 100 0z
m3057 -74 c32 -61 40 -100 19 -94 -18 5 -78 126 -78 157 0 22 2 23 14 11 8 -8
29 -41 45 -74z m-179 -49 c35 -69 39 -100 13 -95 -22 4 -82 122 -83 162 0 28
0 29 20 11 11 -10 33 -45 50 -78z m-2355 18 c77 -8 268 -19 425 -25 331 -12
527 -3 930 41 54 6 88 5 94 -1 6 -6 6 -34 0 -80 -6 -43 -6 -107 -1 -162 4 -50
5 -94 0 -98 -4 -4 -25 -11 -45 -14 -42 -8 -38 -19 -57 153 -6 51 -13 96 -16
99 -3 3 -94 -2 -203 -12 -270 -24 -615 -31 -809 -17 -220 16 -383 31 -415 37
-27 5 -28 4 -28 -39 0 -24 -3 -85 -6 -135 l-7 -91 -31 6 c-67 13 -65 8 -64
176 0 83 3 160 5 169 3 14 12 17 46 13 23 -3 105 -11 182 -20z m2121 -102 c30
-59 24 -84 -15 -64 -19 11 -61 121 -61 160 1 23 42 -29 76 -96z m-2930 62 c7
-18 -34 -145 -47 -145 -5 0 -26 7 -45 15 l-36 15 33 42 c69 90 84 102 95 73z
m3674 -34 c5 -11 9 -37 9 -58 -1 -23 12 -73 35 -127 27 -68 33 -92 23 -98 -6
-4 -16 -6 -22 -5 -15 5 -97 178 -97 205 0 12 -3 22 -5 22 -3 0 -85 -23 -182
-51 -326 -93 -375 -107 -529 -148 -84 -23 -159 -41 -168 -41 -28 0 -25 -27 15
-152 23 -69 41 -127 41 -131 0 -10 -112 -29 -120 -20 -4 4 -26 58 -48 118 -22
61 -48 127 -56 147 -29 69 -25 74 72 104 147 45 960 249 1009 253 7 1 17 -8
23 -18z m-780 -98 c0 -7 -8 -13 -19 -13 -13 0 -20 9 -24 33 -2 17 -2 36 0 40
6 10 43 -42 43 -60z m-2995 -54 c72 -16 187 -48 257 -70 l126 -41 -18 -56
c-10 -31 -30 -97 -45 -147 -36 -122 -46 -136 -87 -125 -18 4 -45 11 -60 14
-35 8 -35 15 3 149 17 60 28 114 26 121 -6 14 -37 24 -262 87 -155 43 -185 54
-185 68 0 13 73 40 95 35 11 -3 79 -18 150 -35z m1023 -39 c4 -100 -2 -123
-31 -114 -12 4 -25 12 -29 18 -12 18 -9 69 8 125 11 39 19 51 32 49 14 -3 18
-17 20 -78z m1031 63 c5 -10 14 -46 21 -79 13 -66 4 -104 -25 -104 -21 0 -31
27 -39 97 -9 82 17 134 43 86z m-766 -54 c12 -78 1 -139 -24 -139 -39 0 -47
77 -18 168 15 47 33 35 42 -29z m513 15 c20 -47 18 -128 -2 -149 -29 -29 -48
3 -52 90 -6 106 22 136 54 59z m-257 -5 c22 -63 8 -159 -23 -159 -23 0 -36 33
-36 95 0 90 36 129 59 64z m2052 -116 c23 -47 22 -76 -2 -81 -26 -5 -99 154
-82 181 8 14 57 -43 84 -100z m-3895 -9 c-8 -58 -41 -134 -58 -134 -32 0 -37
21 -16 69 39 91 51 111 65 111 13 0 15 -9 9 -46z m3667 4 c38 -67 53 -116 39
-130 -23 -23 -57 25 -85 120 -15 50 -15 52 3 52 11 0 28 -17 43 -42z m-3423
-20 c0 -12 -10 -57 -22 -100 -20 -68 -26 -78 -46 -78 -34 0 -37 26 -12 88 39
95 80 141 80 90z m807 -12 c59 -8 158 -20 218 -25 61 -6 156 -15 213 -21 147
-14 557 -12 762 5 96 8 241 19 323 26 81 6 149 10 152 8 2 -3 3 -25 3 -49 -1
-25 0 -102 1 -173 l2 -127 -26 -10 c-14 -6 -37 -10 -51 -10 -20 0 -24 5 -24
33 0 17 -5 79 -12 136 l-12 104 -65 -7 c-37 -3 -130 -13 -208 -21 -342 -35
-812 -27 -1168 20 -60 8 -115 15 -121 15 -7 0 -13 -48 -17 -136 -4 -75 -9
-139 -12 -144 -6 -10 -77 10 -87 24 -7 11 -9 252 -1 319 2 26 9 47 14 47 4 0
57 -7 116 -14z m2380 -34 c58 -85 69 -142 29 -142 -20 0 -27 11 -55 86 -28 79
-32 104 -13 104 4 0 21 -21 39 -48z m-3667 13 c0 -14 -4 -25 -10 -25 -11 0
-14 33 -3 43 11 11 13 8 13 -18z m4510 -50 c21 -88 45 -164 78 -238 15 -34 21
-61 16 -66 -14 -13 -226 -108 -359 -161 -183 -73 -708 -230 -769 -230 -18 0
-27 16 -59 108 -76 213 -101 291 -95 297 14 15 573 196 663 215 42 9 282 83
440 135 62 21 68 17 85 -60z m-4549 -24 c307 -80 488 -134 660 -194 158 -56
172 -64 164 -85 -4 -9 -17 -53 -30 -97 -31 -104 -91 -285 -97 -290 -2 -3 -36
4 -74 15 -38 11 -98 27 -134 36 -380 93 -940 298 -940 345 0 9 10 42 21 73 16
40 32 62 60 82 22 15 42 24 46 20 4 -3 -3 -34 -15 -69 -12 -34 -22 -66 -22
-70 0 -27 425 -181 779 -283 84 -24 157 -44 161 -44 9 0 30 57 66 179 20 67
22 86 12 93 -36 23 -145 57 -458 143 -160 44 -344 106 -360 121 -13 14 -13 17
4 30 27 19 69 18 157 -5z m1569 -130 c11 -22 13 -87 4 -143 -7 -40 -28 -50
-52 -26 -17 17 -15 101 4 148 18 44 28 49 44 21z m1094 -38 c31 -92 14 -171
-29 -139 -15 11 -20 30 -23 85 -2 39 -2 78 2 86 11 29 34 15 50 -32z m-2736 9
c4 -30 -26 -128 -45 -143 -10 -9 -18 -8 -33 6 -23 21 -19 48 18 118 27 51 54
60 60 19z m2448 -3 c21 -42 30 -130 15 -157 -16 -30 -39 -28 -51 4 -11 28 -14
167 -3 177 12 13 23 7 39 -24z m-525 -18 c8 -37 0 -149 -11 -156 -4 -2 -16 3
-28 11 -18 12 -22 25 -22 65 0 57 24 123 42 117 7 -3 16 -19 19 -37z m276 -49
c7 -77 -1 -112 -27 -112 -28 0 -40 30 -40 97 0 71 23 114 47 90 8 -8 17 -42
20 -75z m-1978 4 c10 -11 9 -26 -3 -67 -17 -57 -32 -79 -52 -79 -39 0 -35 81
7 134 23 30 32 32 48 12z m231 -78 c0 -2 -11 -34 -24 -73 -15 -44 -30 -71 -40
-73 -10 -2 -16 3 -16 16 0 22 60 131 73 132 4 0 7 -1 7 -2z m964 -38 c570 -61
920 -61 1541 0 55 5 115 10 134 10 l34 0 -6 -49 c-5 -44 14 -285 29 -353 5
-25 3 -27 -48 -37 -184 -37 -274 -50 -493 -71 -147 -14 -688 -13 -878 0 -130
10 -463 58 -521 76 -17 6 -18 13 -12 83 3 42 9 140 12 219 4 78 10 142 13 142
3 0 91 -9 195 -20z m-901 -13 c13 -20 13 -28 1 -55 -14 -34 -28 -40 -41 -19
-12 19 1 97 16 97 5 0 15 -10 24 -23z m362 -515 c50 -10 180 -45 290 -76 124
-35 251 -64 335 -76 74 -11 159 -24 189 -30 29 -5 71 -10 92 -10 26 0 39 -5
39 -13 0 -20 -60 -50 -201 -101 -380 -137 -716 -192 -1023 -167 -275 22 -522
70 -590 114 -55 37 -23 141 70 227 55 51 206 125 294 145 91 21 382 13 505
-13z m3130 -1 c100 -30 206 -83 255 -127 49 -45 87 -115 92 -170 3 -37 1 -40
-41 -61 -45 -23 -179 -55 -386 -94 -171 -32 -474 -32 -655 0 -159 29 -292 62
-450 112 -121 38 -281 113 -287 134 -2 7 38 16 99 24 183 23 500 93 668 147
25 8 108 25 185 39 181 31 408 30 520 -4z m-1641 -171 c4 -36 11 -81 16 -100
4 -19 11 -56 15 -82 l6 -48 -226 0 c-211 0 -226 1 -221 18 9 27 36 214 36 247
l0 30 184 0 184 0 6 -65z m-556 -237 c-18 -37 -89 -71 -292 -138 -282 -93
-424 -119 -721 -131 -356 -15 -799 63 -820 143 -3 13 -3 33 0 43 5 17 8 17 58
-2 75 -29 246 -65 372 -79 163 -19 533 -16 685 5 205 28 558 128 690 196 41
21 50 9 28 -37z m792 27 c82 -41 328 -124 443 -149 267 -58 662 -73 932 -37
110 15 304 63 368 91 16 7 18 3 15 -31 -3 -35 -8 -41 -48 -61 -25 -12 -88 -34
-140 -48 -271 -71 -639 -83 -950 -29 -230 40 -630 170 -667 216 -11 14 -25 78
-17 78 2 0 31 -14 64 -30z"/>
<path d="M6900 9599 c-86 -18 -274 -85 -349 -124 -17 -8 -31 -22 -31 -30 0
-38 -175 -479 -232 -585 -189 -350 -471 -585 -831 -694 -157 -48 -267 -66
-396 -66 -119 0 -178 12 -321 67 -214 81 -386 188 -526 328 -112 112 -142 148
-212 255 -31 47 -59 87 -62 90 -4 3 -38 77 -75 165 -116 274 -139 312 -252
428 -76 77 -133 108 -250 138 -134 33 -142 24 -43 -48 94 -68 179 -150 241
-233 57 -78 192 -296 235 -382 77 -154 183 -311 294 -433 35 -38 69 -76 75
-83 32 -40 180 -149 277 -205 190 -108 338 -155 571 -179 320 -33 670 71 947
282 104 80 252 236 336 355 91 129 108 156 183 300 141 269 343 524 492 620
38 24 69 47 69 50 0 9 -43 4 -140 -16z"/>
<path d="M4385 7146 c-43 -20 -94 -70 -110 -111 -20 -47 -19 -158 1 -201 38
-80 131 -127 207 -104 98 29 141 92 140 205 0 79 -17 127 -59 168 -53 53 -120
69 -179 43z m75 -79 c17 -31 4 -67 -34 -92 -32 -21 -62 -12 -80 23 -12 23 -12
32 0 60 23 56 84 61 114 9z"/>
<path d="M5702 7133 c-52 -25 -89 -75 -102 -138 -18 -87 -3 -153 49 -208 37
-41 73 -57 126 -57 107 0 175 82 175 213 0 83 -38 164 -90 189 -44 22 -115 23
-158 1z m76 -49 c28 -20 29 -61 0 -91 -29 -31 -71 -30 -97 3 -28 36 -26 58 5
83 32 25 61 27 92 5z"/>
<path d="M5017 6784 c-177 -43 -444 -229 -463 -322 -6 -31 -2 -38 58 -96 101
-100 261 -213 384 -272 61 -30 120 -54 131 -54 42 0 198 92 346 203 152 115
217 175 217 200 0 20 -54 99 -91 133 -94 85 -247 169 -370 204 -84 23 -130 24
-212 4z m168 -109 c85 -22 168 -63 260 -129 77 -55 109 -85 101 -93 -4 -5 -85
34 -140 67 -22 14 -37 19 -33 12 5 -6 -4 -24 -19 -41 -20 -22 -52 -38 -122
-61 -53 -17 -101 -35 -108 -41 -8 -6 -31 -4 -70 6 -33 8 -125 25 -206 37 -81
12 -153 25 -160 29 -17 11 9 37 98 99 83 57 141 86 229 111 76 22 97 23 170 4z
m-263 -330 c92 -25 185 -45 207 -45 22 0 95 17 163 39 192 60 223 61 101 2
-57 -27 -140 -75 -185 -106 -81 -56 -83 -57 -121 -45 -52 15 -174 80 -274 146
-77 50 -100 69 -70 59 6 -2 87 -25 179 -50z"/>
<path d="M9360 6410 c-24 -8 -24 -8 5 -9 17 0 37 4 45 9 12 8 11 10 -5 9 -11
-1 -31 -5 -45 -9z"/>
<path d="M2648 6083 c-9 -27 -27 -76 -41 -110 l-25 -62 91 -30 c98 -32 275
-76 282 -70 2 2 21 51 43 109 33 87 38 107 26 116 -12 10 -325 94 -350 94 -6
0 -17 -21 -26 -47z m118 -6 c8 -22 -50 -162 -69 -165 -27 -5 -21 41 14 114 31
63 45 76 55 51z"/>
<path d="M2122 4545 c-7 -27 -28 -83 -48 -124 -44 -90 -47 -85 99 -131 79 -24
548 -177 602 -196 9 -4 95 133 95 150 0 4 14 37 32 73 30 63 31 66 13 79 -43
31 -283 97 -576 157 l-205 43 -12 -51z m44 -62 c-18 -33 -21 -26 -6 13 6 15
13 24 16 21 3 -3 -1 -18 -10 -34z m128 -50 c-14 -38 -30 -80 -36 -95 -11 -32
-23 -35 -36 -11 -18 31 51 173 83 173 12 0 10 -13 -11 -67z m181 27 c7 -12
-19 -97 -47 -153 -13 -26 -25 -37 -36 -35 -30 6 -24 46 18 123 41 74 52 85 65
65z m-339 -61 c-12 -29 -14 -30 -15 -11 -1 24 22 69 27 53 2 -5 -4 -24 -12
-42z m544 -47 c0 -43 -58 -152 -80 -152 -30 0 -32 17 -10 67 45 101 90 144 90
85z"/>
<path d="M7195 2429 c-148 -49 -315 -103 -370 -118 -117 -34 -287 -91 -298
-101 -4 -3 9 -51 28 -106 52 -144 56 -154 70 -154 39 0 516 146 675 207 97 37
264 109 279 120 3 2 -13 57 -35 123 -33 100 -42 119 -59 119 -11 0 -141 -41
-290 -90z m134 -103 c39 -67 41 -106 7 -106 -19 0 -28 10 -44 48 -31 74 -35
92 -22 107 16 20 24 14 59 -49z m-200 -109 c10 -41 1 -77 -19 -77 -33 0 -72
128 -49 156 12 14 16 13 35 -12 12 -15 27 -45 33 -67z m-259 -49 c34 -70 37
-98 14 -98 -17 0 -48 65 -58 123 -11 57 11 46 44 -25z m-73 -29 c14 -27 17
-89 5 -89 -15 0 -40 34 -47 62 -14 57 17 77 42 27z"/>
<path d="M4265 1993 c-3 -60 -7 -124 -8 -143 l-2 -34 127 -22 c308 -54 844
-67 1203 -30 129 13 395 53 402 60 2 1 -4 47 -12 102 -8 54 -16 113 -18 129
l-4 30 -84 -3 c-46 -2 -149 -10 -229 -18 -211 -21 -642 -29 -845 -15 -167 11
-430 36 -492 46 l-31 6 -7 -108z m1480 -77 c11 -71 4 -101 -25 -101 -29 0 -38
24 -39 106 -1 67 15 91 41 59 9 -11 20 -40 23 -64z m-1194 47 c11 -29 4 -118
-10 -142 -5 -7 -17 -11 -27 -9 -25 4 -31 91 -10 142 18 43 33 46 47 9z m299
-12 c13 -25 13 -131 0 -151 -7 -12 -13 -12 -27 -4 -32 20 -26 174 6 174 6 0
15 -9 21 -19z m566 -16 c32 -76 8 -183 -32 -143 -17 17 -30 113 -20 152 9 37
34 32 52 -9z m-266 -59 c0 -59 -10 -87 -29 -84 -39 8 -53 115 -20 154 12 15
15 14 31 -6 11 -13 18 -39 18 -64z"/>
</g>
</svg>
