<?xml version="1.0" standalone="no"?>
<!DOCTYPE svg PUBLIC "-//W3C//DTD SVG 20010904//EN"
 "http://www.w3.org/TR/2001/REC-SVG-20010904/DTD/svg10.dtd">
<svg version="1.0" xmlns="http://www.w3.org/2000/svg"
 width="1024.000000pt" height="1024.000000pt" viewBox="0 0 1024.000000 1024.000000"
 preserveAspectRatio="xMidYMid meet">
<metadata>
Created by potrace 1.16, written by Peter Selinger 2001-2019
</metadata>
<g transform="translate(0.000000,1024.000000) scale(0.100000,-0.100000)"
fill="#000000" stroke="none">
<path d="M2434 9779 c-51 -15 -66 -41 -85 -150 -10 -56 -43 -179 -74 -274 -69
-215 -94 -327 -102 -460 -7 -118 14 -269 52 -373 35 -95 111 -216 193 -303 79
-84 237 -208 315 -247 l47 -24 0 -162 0 -163 29 -39 c33 -46 82 -90 111 -99
27 -9 25 -19 -11 -71 -57 -84 -128 -248 -179 -419 -70 -232 -90 -357 -96 -595
-6 -222 -10 -260 -28 -260 -7 0 -59 -42 -116 -92 -57 -51 -133 -118 -169 -148
-243 -201 -516 -465 -580 -561 -75 -113 -90 -274 -36 -386 31 -62 133 -160
198 -191 142 -67 369 -99 577 -83 63 5 122 10 130 12 13 4 16 -45 22 -371 8
-399 19 -575 44 -680 110 -479 355 -908 714 -1251 l159 -153 -57 -22 c-300
-112 -532 -319 -532 -471 1 -69 28 -120 110 -207 77 -81 132 -117 245 -161 39
-15 124 -54 189 -86 l119 -59 122 0 c126 0 184 7 570 66 233 36 405 71 484 99
64 22 172 98 208 146 18 23 35 58 38 78 14 87 7 81 94 81 l78 0 7 -52 c9 -63
23 -92 70 -140 87 -90 175 -121 531 -187 269 -51 724 -99 813 -87 26 3 89 29
146 60 56 30 133 65 173 80 98 34 185 79 228 118 49 43 121 145 132 188 13 49
-3 134 -35 193 -55 102 -123 153 -388 289 -96 49 -174 92 -174 96 0 3 75 80
168 171 180 179 239 252 369 455 150 234 226 423 299 741 l37 160 4 461 5 462
36 -12 c23 -7 113 -11 242 -10 188 1 213 3 304 27 194 52 286 114 346 233 29
56 35 79 38 154 4 78 1 94 -20 142 -55 119 -292 361 -692 707 -28 24 -88 77
-133 118 -45 41 -90 81 -101 89 -19 13 -20 29 -25 276 -4 235 -7 275 -30 374
-50 220 -157 488 -248 620 -15 23 -25 44 -22 48 4 3 24 6 46 6 55 0 103 38
134 107 25 53 25 58 18 211 l-7 157 38 19 c82 38 233 148 294 212 136 146 202
261 242 421 18 71 22 115 21 228 -1 178 -22 281 -113 555 -38 113 -72 232 -76
265 -6 51 -12 65 -41 92 -54 51 -120 55 -191 11 -43 -26 -67 -76 -92 -186 -58
-263 -167 -420 -357 -516 -51 -25 -97 -46 -102 -46 -5 0 -23 21 -39 48 -36 55
-89 107 -118 116 -25 8 -179 -42 -282 -91 l-73 -34 -77 71 c-122 113 -244 194
-427 284 -163 81 -395 166 -494 182 -36 6 -45 12 -61 44 -25 50 -82 96 -145
117 -42 15 -83 17 -265 15 -242 -3 -292 -12 -362 -65 -28 -22 -48 -47 -57 -74
-14 -38 -18 -42 -58 -48 -55 -8 -251 -72 -372 -121 -94 -37 -315 -165 -394
-226 -23 -18 -83 -68 -134 -111 -80 -67 -95 -77 -112 -67 -50 26 -289 112
-318 113 -17 0 -39 -6 -49 -14 -22 -18 -111 -124 -115 -138 -4 -11 -129 47
-189 88 -89 61 -189 183 -235 286 -14 33 -42 114 -61 180 -44 149 -58 174
-114 203 -47 23 -75 26 -126 11z m2922 -247 c18 -10 19 -35 16 -670 -2 -362 0
-675 3 -695 l7 -37 950 0 950 0 -4 -232 -4 -233 -1679 2 c-924 1 -1887 2
-2140 2 l-460 1 -4 233 -3 232 938 -3 c650 -1 941 1 948 8 8 8 12 233 14 701
l4 689 26 6 c15 3 32 8 37 10 21 8 384 -4 401 -14z m-2693 -435 c90 -112 237
-217 359 -256 21 -7 40 -16 42 -19 2 -4 -11 -39 -30 -77 -31 -65 -91 -239
-129 -377 -11 -37 -22 -58 -31 -58 -26 0 -61 -46 -69 -88 -4 -23 -10 -42 -13
-42 -17 0 -146 106 -202 166 -85 91 -124 156 -161 266 -59 173 -47 369 37 612
20 55 38 107 40 115 3 8 25 -26 49 -75 25 -50 73 -125 108 -167z m5137 64 c40
-114 60 -225 60 -336 0 -222 -68 -375 -237 -535 -43 -41 -93 -83 -111 -93
l-32 -18 0 26 c0 40 -27 89 -59 108 -21 12 -32 29 -40 64 -18 71 -44 140 -116
299 -36 78 -65 144 -65 147 0 3 30 17 68 32 199 79 358 238 443 443 l22 53 19
-53 c10 -29 32 -91 48 -137z m-3223 97 c77 -85 68 -189 -20 -229 -85 -38 -135
-21 -177 61 -38 74 -23 123 49 160 68 35 121 38 148 8z m-290 -173 c7 -33 12
-81 13 -107 0 -43 -3 -49 -47 -85 -27 -22 -68 -53 -93 -70 -86 -59 -195 -176
-277 -299 -45 -67 -93 -128 -107 -137 -20 -13 -50 -17 -140 -17 l-114 0 18 38
c10 20 30 63 44 95 113 256 525 658 661 645 27 -3 30 -7 42 -63z m2625 -172
c16 -40 225 -479 254 -535 l25 -48 -88 0 -88 0 -69 138 c-82 165 -193 371
-213 393 -13 15 -6 20 69 47 46 17 86 31 91 31 4 1 12 -11 19 -26z m-3461 -14
c46 -17 85 -32 87 -34 2 -2 -14 -30 -35 -62 -94 -140 -210 -369 -227 -449 l-7
-31 -82 5 c-45 2 -83 6 -85 7 -1 1 20 67 49 146 49 139 193 449 208 449 4 0
45 -14 92 -31z m-81 -1440 c0 -6 -45 -72 -99 -148 -155 -215 -198 -308 -258
-557 l-28 -119 0 -1465 c1 -1631 -4 -1526 70 -1778 47 -161 83 -251 161 -401
76 -145 111 -197 229 -346 48 -60 93 -117 99 -125 31 -42 -108 88 -167 155
-294 339 -488 801 -517 1230 -14 210 -26 1563 -20 2205 6 511 7 540 29 640 52
237 131 439 234 600 l68 105 47 6 c83 10 152 10 152 -2z m995 -29 c141 -36
305 -140 436 -277 72 -75 127 -150 214 -291 41 -67 66 -98 90 -109 54 -26 78
-6 180 149 181 274 320 400 557 504 l101 44 171 0 c224 0 268 -11 389 -92 221
-148 387 -375 463 -633 22 -74 27 -117 32 -239 7 -209 -14 -313 -98 -493 -94
-202 -262 -367 -460 -453 -41 -18 -77 -34 -79 -36 -3 -2 5 -21 16 -42 30 -52
77 -191 101 -297 36 -155 45 -291 46 -710 1 -368 -1 -412 -21 -545 -40 -259
-150 -587 -248 -743 -158 -252 -342 -413 -618 -541 -150 -70 -214 -81 -477
-81 -214 0 -231 1 -340 29 -224 55 -457 189 -607 350 -210 224 -314 427 -396
771 -47 193 -57 308 -63 705 -7 479 19 719 103 944 24 65 41 126 38 135 -3 9
-29 24 -57 34 -208 72 -460 362 -528 609 -37 135 -51 382 -30 518 15 94 46
183 98 280 129 241 269 389 457 484 l90 45 181 1 c149 0 195 -4 259 -20z
m2256 -5414 c75 -29 172 -72 215 -95 88 -45 224 -162 224 -191 0 -10 -26 -42
-59 -72 -53 -50 -65 -56 -137 -71 -44 -9 -102 -19 -131 -23 -56 -7 -63 -16
-63 -81 0 -40 12 -40 -216 -8 -342 47 -290 39 -736 124 -136 27 -207 53 -243
91 l-29 30 50 0 c147 1 390 59 597 141 189 75 270 116 332 168 27 23 52 41 55
41 3 0 67 -24 141 -54z m-2780 6 c24 -16 121 -65 216 -110 142 -68 201 -90
340 -127 95 -25 225 -51 298 -60 71 -9 131 -18 132 -19 11 -10 -15 -37 -56
-60 -63 -34 -135 -52 -311 -76 -80 -11 -194 -31 -255 -44 -94 -22 -461 -66
-544 -66 -21 0 -26 5 -28 27 -2 37 -30 57 -108 77 -69 17 -270 112 -299 141
-14 14 -14 19 -2 44 25 47 128 134 213 179 88 46 292 121 334 122 14 0 45 -13
70 -28z"/>
<path d="M5083 9405 c-79 -34 -100 -147 -38 -205 38 -35 119 -40 165 -8 83 56
63 172 -37 214 -40 17 -49 17 -90 -1z"/>
<path d="M5076 8981 c-43 -28 -66 -70 -66 -119 0 -86 96 -144 175 -106 74 35
98 125 49 184 -51 59 -107 74 -158 41z"/>
<path d="M5105 8582 c-106 -25 -131 -198 -35 -247 106 -55 216 39 181 156 -18
59 -90 105 -146 91z"/>
<path d="M3231 8033 c-18 -9 -44 -34 -58 -54 -22 -33 -24 -45 -18 -84 13 -93
94 -145 169 -110 107 51 107 206 0 251 -42 18 -51 17 -93 -3z"/>
<path d="M5083 8034 c-109 -54 -89 -231 28 -250 145 -24 209 186 76 247 -51
23 -63 23 -104 3z"/>
<path d="M3805 8005 c-19 -20 -38 -47 -41 -61 -25 -98 70 -194 161 -164 19 6
47 27 61 45 71 93 13 215 -103 215 -35 0 -48 -6 -78 -35z"/>
<path d="M4431 8011 c-75 -70 -65 -183 20 -227 86 -44 202 46 184 143 -13 73
-61 113 -133 113 -30 0 -48 -7 -71 -29z"/>
<path d="M5697 8010 c-19 -16 -40 -43 -47 -60 -26 -63 17 -147 85 -170 30 -10
41 -9 78 9 76 38 104 107 71 176 -36 77 -126 99 -187 45z"/>
<path d="M6305 8020 c-37 -24 -65 -74 -65 -115 0 -65 65 -130 130 -130 94 0
159 110 115 195 -35 68 -118 91 -180 50z"/>
<path d="M6903 8013 c-77 -73 -63 -181 29 -229 61 -32 147 12 169 86 10 33 9
47 -6 86 -32 84 -132 113 -192 57z"/>
<path d="M3979 6997 c-96 -27 -191 -106 -225 -186 -78 -186 -2 -384 186 -482
68 -36 184 -34 262 4 66 33 152 121 181 186 53 121 24 288 -69 391 -73 81
-221 119 -335 87z m152 -118 c95 -48 84 -183 -17 -225 -52 -22 -81 -17 -120
19 -63 57 -62 140 1 196 42 37 79 40 136 10z"/>
<path d="M6068 6979 c-78 -28 -138 -84 -174 -161 -25 -55 -29 -74 -29 -158 0
-82 4 -103 27 -153 38 -80 118 -158 193 -186 162 -61 356 21 436 185 27 55 32
75 32 141 0 107 -28 177 -98 249 -72 74 -126 96 -240 100 -72 3 -102 0 -147
-17z m195 -98 c67 -26 102 -107 73 -167 -43 -92 -173 -98 -226 -11 -61 99 43
219 153 178z"/>
<path d="M4680 6410 c-70 -9 -135 -52 -166 -112 -17 -33 -18 -145 -1 -175 27
-48 423 -502 520 -596 115 -110 155 -91 406 195 206 236 336 407 350 462 17
69 -6 138 -62 179 -66 50 -81 52 -557 52 -245 0 -465 -2 -490 -5z m860 -230
c0 -19 -108 -150 -245 -298 -55 -59 -112 -123 -126 -142 l-27 -35 -23 30 c-13
16 -81 93 -152 171 -122 135 -237 273 -237 284 0 3 182 5 405 5 358 0 405 -2
405 -15z"/>
<path d="M5720 5066 c-118 -49 -120 -51 -120 -105 l0 -49 -127 -30 c-71 -17
-149 -33 -175 -37 l-48 -6 0 30 c0 16 -4 32 -9 35 -5 3 -57 3 -115 -1 l-106
-6 0 -30 0 -30 -107 7 c-60 3 -142 14 -183 24 l-75 18 3 41 c2 23 -1 51 -7 62
-15 28 -93 62 -145 64 -65 3 -83 -20 -109 -134 -26 -117 -28 -336 -4 -445 24
-107 120 -319 160 -352 11 -10 30 -2 91 39 l78 52 -2 46 c-2 25 -2 51 -1 57 3
30 185 82 291 84 3 0 5 -389 5 -864 0 -665 3 -868 12 -877 16 -16 161 -24 196
-10 l27 11 -2 865 -3 865 55 -6 c76 -8 115 -21 188 -61 58 -32 62 -36 55 -61
-16 -60 -11 -76 27 -82 19 -3 61 -18 92 -32 l57 -27 30 34 c117 134 187 390
162 596 -10 92 -45 232 -76 305 -17 41 -37 43 -115 10z m-48 -307 c18 -120 2
-266 -37 -325 l-16 -24 -22 20 c-53 50 -182 90 -289 90 l-48 0 -2 80 c-1 44
-2 88 -2 98 -1 14 12 18 74 24 113 12 220 36 270 62 25 13 50 22 55 21 6 -1
13 -22 17 -46z m-868 -37 c41 -7 41 -8 44 -54 6 -87 -6 -109 -74 -143 -34 -16
-73 -43 -87 -60 l-26 -30 -22 50 c-24 54 -38 210 -25 279 l7 36 71 -36 c39
-19 89 -39 112 -42z"/>
</g>
</svg>
