<?xml version="1.0" standalone="no"?>
<!DOCTYPE svg PUBLIC "-//W3C//DTD SVG 20010904//EN"
 "http://www.w3.org/TR/2001/REC-SVG-20010904/DTD/svg10.dtd">
<svg version="1.0" xmlns="http://www.w3.org/2000/svg"
 width="1024.000000pt" height="1024.000000pt" viewBox="0 0 1024.000000 1024.000000"
 preserveAspectRatio="xMidYMid meet">
<metadata>
Created by potrace 1.16, written by Peter Selinger 2001-2019
</metadata>
<g transform="translate(0.000000,1024.000000) scale(0.100000,-0.100000)"
fill="#000000" stroke="none">
<path d="M2130 9173 c-26 -9 -40 -36 -40 -77 0 -71 -8 -86 -46 -86 -50 0 -80
-15 -93 -48 -22 -54 14 -92 87 -92 l39 0 6 -56 c7 -67 28 -94 72 -94 45 0 60
22 60 92 l0 58 49 0 c40 0 55 5 78 27 15 15 28 35 28 45 0 34 -42 64 -98 72
l-52 7 0 57 c0 63 -5 74 -37 91 -23 12 -30 12 -53 4z"/>
<path d="M5920 9034 c-133 -16 -219 -34 -398 -85 -333 -94 -805 -282 -820
-327 -2 -8 10 -12 35 -13 21 -1 49 -3 63 -4 591 -75 799 -123 1235 -290 214
-81 713 -330 793 -394 34 -28 72 -51 85 -51 12 0 69 9 127 21 122 23 278 27
395 9 178 -27 450 -123 690 -243 128 -64 223 -124 350 -222 84 -65 143 -100
153 -91 11 11 -29 128 -74 218 -90 179 -184 313 -369 527 -247 284 -586 545
-936 719 -243 121 -537 212 -752 232 -135 14 -446 10 -577 -6z"/>
<path d="M2590 8920 c-15 -15 -20 -33 -20 -69 0 -71 -6 -81 -50 -81 -52 0 -86
-14 -106 -44 -35 -55 12 -106 99 -106 50 0 57 -8 57 -70 0 -74 71 -119 120
-75 14 13 20 33 22 79 l3 61 40 -3 c55 -4 91 11 109 47 31 58 -7 103 -93 111
l-56 5 -3 60 c-2 44 -9 66 -24 82 -27 29 -71 30 -98 3z"/>
<path d="M1616 8901 c-10 -11 -20 -43 -23 -76 -7 -64 -20 -75 -98 -75 -48 0
-75 -24 -75 -68 0 -54 45 -82 131 -82 l36 0 6 -57 c5 -46 12 -63 32 -80 59
-52 105 -19 105 75 l0 62 55 0 c46 0 60 4 81 25 54 54 14 120 -82 133 l-49 7
-3 55 c-2 39 -9 61 -24 78 -26 27 -69 29 -92 3z"/>
<path d="M3895 8459 c-467 -29 -778 -133 -846 -284 -22 -49 -24 -137 -5 -193
47 -131 217 -303 397 -401 l72 -39 50 71 c103 147 293 310 457 392 180 90 381
129 675 130 164 0 196 -4 360 -41 61 -14 164 -36 230 -49 224 -43 282 -61 545
-167 346 -140 520 -251 680 -432 105 -119 157 -194 219 -315 61 -119 106 -245
135 -376 l21 -100 75 -3 c235 -10 521 105 596 240 26 47 29 63 29 138 0 75 -3
91 -29 137 -89 161 -394 397 -796 615 -190 104 -500 255 -675 330 -157 67
-498 184 -650 222 -97 25 -357 68 -600 100 -66 9 -142 21 -170 26 -59 10 -596
10 -770 -1z"/>
<path d="M2022 8345 c-255 -71 -432 -308 -432 -579 0 -246 173 -509 383 -583
l62 -22 3 -555 2 -556 -39 -35 c-21 -20 -49 -57 -62 -83 -47 -98 -21 -292 63
-467 l33 -70 5 -1750 c6 -1932 0 -1786 69 -1832 60 -41 160 -20 192 39 8 15
11 490 11 1695 0 1523 1 1674 15 1668 9 -3 47 -26 84 -50 97 -65 252 -140 373
-180 104 -35 261 -63 290 -52 13 5 16 51 19 314 1 169 6 317 11 329 6 17 -3
28 -62 72 -105 78 -173 191 -155 259 6 28 -7 34 -160 68 -132 30 -387 104
-404 118 -10 7 -13 127 -13 538 l0 528 53 15 c66 20 130 65 194 136 80 88 130
167 153 238 11 37 25 81 30 98 15 45 12 211 -4 272 -8 29 -24 72 -36 95 -62
120 -228 271 -347 318 -75 29 -250 36 -331 14z m106 -189 c2 -9 -8 -45 -22
-79 -14 -34 -30 -82 -37 -107 -6 -25 -15 -47 -20 -51 -5 -3 -35 -1 -66 3 -32
4 -84 11 -115 14 -32 3 -58 10 -58 16 0 26 148 154 219 191 78 39 94 42 99 13z
m187 -27 c108 -53 219 -158 200 -189 -4 -6 -53 -10 -125 -10 l-119 0 -16 58
c-19 67 -41 141 -51 165 -10 27 19 21 111 -24z m231 -412 c-18 -108 -54 -203
-82 -214 -23 -9 -38 15 -70 111 -15 45 -29 86 -31 92 -5 13 101 98 156 126 46
24 48 18 27 -115z m-673 73 c123 -85 115 -71 84 -137 -14 -32 -35 -80 -46
-106 -27 -64 -49 -60 -78 15 -47 117 -71 278 -43 278 6 0 43 -22 83 -50z m407
-292 c104 -68 109 -73 93 -90 -30 -34 -120 -70 -187 -75 -54 -5 -72 -2 -120
20 -30 14 -72 38 -92 53 -34 26 -35 29 -17 42 10 7 50 29 89 47 38 19 78 43
89 55 10 11 22 20 27 20 5 0 58 -32 118 -72z"/>
<path d="M4465 7960 c-191 -25 -388 -107 -529 -220 -85 -68 -263 -250 -329
-337 -101 -132 -216 -350 -274 -517 -37 -110 -93 -367 -93 -433 0 -40 3 -43
78 -100 42 -32 106 -77 142 -100 74 -47 211 -115 219 -108 2 3 -15 45 -38 94
-64 134 -84 248 -78 436 3 84 13 183 22 225 42 188 192 369 366 442 44 18 73
22 159 22 115 0 190 -14 262 -50 72 -37 191 -146 243 -224 49 -74 73 -94 99
-84 9 3 52 52 95 109 44 56 99 119 123 139 101 87 274 147 433 149 156 2 274
-51 406 -183 86 -86 154 -185 189 -277 51 -135 64 -313 35 -478 -21 -123 -38
-172 -102 -299 -30 -59 -52 -110 -50 -113 15 -14 891 341 908 368 17 28 -26
282 -73 429 -38 118 -130 303 -194 390 -179 244 -469 430 -878 565 -230 76
-510 138 -697 155 -130 11 -356 11 -444 0z"/>
<path d="M3970 6967 c-30 -16 -51 -37 -68 -68 -21 -40 -23 -54 -20 -145 3 -88
7 -106 28 -137 27 -40 85 -77 121 -77 45 0 103 38 139 91 32 48 35 57 35 128
0 65 -4 83 -28 124 -30 51 -83 91 -132 101 -22 5 -43 0 -75 -17z"/>
<path d="M5333 6955 c-54 -33 -78 -92 -78 -190 1 -108 57 -203 131 -221 79
-20 173 50 193 144 29 136 -2 227 -91 273 -51 26 -104 24 -155 -6z"/>
<path d="M4464 6640 c-104 -15 -154 -58 -130 -113 6 -14 98 -110 203 -212 151
-146 197 -185 212 -180 22 7 58 45 226 239 141 163 159 188 150 216 -14 44
-35 47 -330 52 -154 3 -303 2 -331 -2z"/>
<path d="M6880 6377 c0 -84 -146 -170 -525 -309 -348 -128 -385 -138 -695
-189 -74 -12 -184 -35 -245 -51 -255 -67 -372 -99 -412 -110 -40 -11 -44 -11
-70 14 -89 85 -233 90 -373 11 l-49 -27 -45 22 c-25 12 -99 35 -163 52 -65 17
-158 41 -208 55 -49 14 -143 39 -208 55 -144 37 -213 63 -337 125 -248 124
-349 201 -412 313 -37 65 -58 66 -105 4 -58 -77 -54 -128 24 -284 40 -81 41
-100 8 -122 -32 -21 -34 -73 -4 -104 24 -27 190 -112 309 -159 47 -18 141 -47
210 -64 69 -16 168 -41 220 -54 115 -29 312 -65 399 -72 45 -4 87 0 137 13 41
10 77 15 81 11 8 -9 -16 -57 -60 -118 -74 -102 -129 -393 -97 -510 15 -55 40
-72 92 -64 64 10 142 94 187 200 40 93 121 232 150 260 47 42 95 -23 172 -233
42 -117 75 -169 128 -206 53 -37 102 -35 135 4 33 40 40 83 32 192 -7 106 -28
202 -67 309 -16 44 -29 90 -29 102 0 13 -9 40 -20 62 -24 47 -24 45 -2 45 10
0 31 -13 47 -30 51 -53 98 -64 248 -57 72 4 193 18 267 31 74 14 146 27 160
29 14 3 81 10 150 17 248 23 445 62 584 114 35 14 101 32 147 41 221 43 389
132 389 205 0 22 -10 30 -62 56 -37 17 -64 37 -66 47 -2 10 14 46 37 80 22 34
47 79 56 99 32 78 9 157 -57 198 -43 26 -58 25 -58 -3z"/>
<path d="M7016 5723 c-17 -20 -43 -49 -58 -65 -22 -24 -24 -28 -8 -28 26 0 89
-70 177 -197 43 -61 103 -144 134 -185 61 -80 135 -205 167 -283 97 -238 96
-237 97 -322 0 -77 -2 -83 -30 -113 -62 -65 -243 -127 -345 -117 -30 2 -88 15
-129 27 -43 12 -77 18 -82 13 -5 -5 -14 -94 -19 -199 -12 -238 -14 -252 -55
-409 -72 -277 -184 -519 -324 -700 -65 -84 -131 -178 -131 -186 0 -4 23 -12
50 -18 28 -6 101 -31 163 -55 191 -76 330 -83 462 -22 66 30 114 80 173 180
59 100 159 202 242 249 36 19 134 60 219 91 178 64 242 100 315 176 97 102
134 189 235 559 67 242 80 270 183 391 148 173 235 283 289 362 32 48 80 104
106 125 132 105 172 168 138 219 -28 43 -59 48 -160 25 -291 -65 -486 -66
-732 -1 -155 41 -236 72 -398 151 -163 79 -319 175 -424 261 -146 120 -201
135 -255 71z"/>
<path d="M6770 5569 c-19 -4 -69 -22 -110 -39 -116 -48 -298 -98 -422 -115
-62 -9 -144 -20 -183 -26 -38 -6 -81 -12 -95 -14 -14 -2 -88 -11 -165 -20 -76
-9 -141 -18 -144 -21 -2 -2 5 -14 16 -27 68 -74 73 -130 80 -782 5 -546 5
-562 -16 -647 -66 -271 -218 -479 -453 -621 -227 -138 -428 -181 -663 -142
-130 21 -186 40 -310 103 -97 50 -122 68 -210 157 -145 145 -235 306 -289 515
-24 94 -24 98 -27 645 -1 303 1 573 5 600 8 50 41 191 51 217 8 21 -29 35
-165 63 -128 27 -265 70 -372 115 l-68 29 -1 -62 c-7 -442 -6 -1102 1 -1252
24 -487 128 -763 425 -1128 153 -188 397 -370 648 -484 151 -69 181 -86 132
-79 -17 3 -75 10 -130 16 -55 6 -135 18 -178 27 -175 34 -398 -28 -607 -169
-77 -53 -132 -121 -155 -195 -29 -91 -9 -150 67 -201 l41 -27 571 -6 c314 -3
600 -2 635 2 147 17 224 136 238 364 6 98 2 108 -47 119 -14 3 11 3 54 0 43
-2 112 -4 153 -4 l73 0 0 -142 c0 -129 3 -148 24 -193 27 -59 88 -117 142
-136 31 -11 159 -14 655 -14 l615 0 42 28 c164 108 72 325 -198 466 -200 105
-345 132 -600 114 -63 -4 -128 -7 -144 -5 l-29 4 44 29 c24 17 73 45 109 64
100 51 265 166 352 245 157 143 332 381 438 595 99 199 144 390 160 680 10
167 16 227 31 285 3 9 -34 34 -115 77 -65 34 -155 88 -200 120 -98 70 -287
257 -340 337 -21 32 -52 74 -69 93 -29 33 -64 143 -52 163 9 14 62 -6 114 -44
27 -20 73 -68 103 -108 75 -98 211 -232 305 -300 204 -147 497 -258 679 -258
54 0 144 24 155 42 32 51 -166 440 -352 690 -69 92 -198 252 -213 264 -1 0
-17 -3 -36 -7z"/>
<path d="M4947 1971 c-37 -48 -60 -66 -123 -97 l-77 -38 -646 2 -646 3 -62 30
-62 29 -118 -10 c-143 -13 -369 -39 -403 -47 -36 -8 -89 -42 -100 -64 -14 -25
9 -79 44 -107 37 -29 143 -50 316 -62 80 -6 233 -20 340 -31 323 -33 307 -32
675 -49 121 -6 283 -14 360 -19 77 -4 156 -8 175 -8 19 -1 172 -4 340 -8 386
-10 888 9 1355 50 88 8 201 17 250 20 104 7 381 30 540 46 242 24 335 61 335
135 0 88 -89 113 -548 155 l-122 11 -49 -31 c-31 -20 -71 -35 -111 -42 -39 -6
-286 -8 -658 -5 -633 5 -632 5 -728 54 -22 11 -72 47 -112 81 -43 36 -82 61
-96 61 -16 0 -36 -17 -69 -59z"/>
</g>
</svg>
