<svg class="svg-icon" style="width: 1em; height: 1em;vertical-align: middle;fill: currentColor;overflow: hidden;" viewBox="0 0 1024 1024" version="1.1" xmlns="http://www.w3.org/2000/svg"><path d="M508.6 63.9c-244.3 0-442.3 169.7-442.3 379 0 118.8 64 224.5 163.8 294l-5.5 171.5c-0.5 15.2 11.6 28.1 26.8 28.6h0.8c5.1 0 10.3-1.3 14.9-4.2l183.7-114.6c19 2.2 38.2 3.7 57.8 3.7 244.3 0 442.3-169.7 442.3-379s-198-379-442.3-379z m0 702.6c-20.9 0-41.2-1.9-61.3-4.6v0.3c-6-0.7-12.4 0.5-17.9 4l-147.8 92.2 4.3-134.7c0.3-10.1-4.9-19.1-12.8-24.2v-0.4c-91.9-59.2-151.4-151.9-151.4-256.2 0-178.4 173.6-323.6 386.9-323.6s386.8 145.1 386.8 323.6-173.5 323.6-386.8 323.6z"  /><path d="M296.7 442.9m-41.6 0a41.6 41.6 0 1 0 83.2 0 41.6 41.6 0 1 0-83.2 0Z"  /><path d="M508.6 442.9m-41.6 0a41.6 41.6 0 1 0 83.2 0 41.6 41.6 0 1 0-83.2 0Z"  /><path d="M720.5 442.9m-41.6 0a41.6 41.6 0 1 0 83.2 0 41.6 41.6 0 1 0-83.2 0Z"  /></svg>