<?xml version="1.0" encoding="UTF-8"?>
<svg version="1.1" viewBox="0 0 864 864" width="864" height="864" xmlns="http://www.w3.org/2000/svg">
<path transform="translate(425,161)" d="m0 0h2l-1 5v10l4 11 6 8 2 2 7-11 9-6 4-1-4 12v8l4 8 39 7 25 7 20 8 16 8 14 8 11 8 10 8 13 12 7 8 10 13 9 15 12 22 11 24 10 25 13 38 9 34 7 36 4 30 1 11v44l-3 20-5 16-9 20-11 20-11 16-10 13-11 12-4 5-8 7-11 10-13 10-17 11-27 14-21 8-19 6-29 6-23 3-14 1h-42l-31-3-26-5-19-5-23-8-29-14-19-12-13-10-11-9-8-8-2-1v-2l-4-2-7-8-10-12-12-17-9-15-10-19-7-17-4-16-2-15v-43l4-36 6-33 9-36 13-40 10-25 9-20 8-16 12-22 12-17 9-10 7-8 8-7 14-11 18-11 16-8 14-6 25-8 29-6 10-2-5-10v-6l5 5 9 6 7 2-5-10v-14l5-10 8-8zm-113 148-14 3-15 6-14 8-10 8-9 9-9 14-5 11-4 15-1 6v21l4 18 7 16 10 14 15 15 13 9 5 3h2l-2 6-9 10-8 13-8 17-5 15-4 19-1 11v18l3 22 6 20 7 16 9 16 10 14 12 14 10 10 17 13 18 10 19 8 24 7 21 4 21 2 22-1 30-5 21-6 15-6 16-8 16-10 10-9 8-7 10-11 12-16 12-21 7-17 5-18 2-13 1-21-2-21-5-20-6-16-8-15-8-11-7-8-1-5 5-2 12-8 12-11 7-7 10-15 7-17 3-15v-21l-3-15-5-13-6-11-8-10-9-9-10-7-15-8-14-5-10-2h-24l-17 4-14 6-12 8-10 9-8 9-8 13-6 16-3 14-1 12-1 3h-34l-1-3-2-17-4-15-5-12-7-11-11-12-8-7-11-7-17-7-14-3z"/>
<path transform="translate(425,410)" d="m0 0h14l10 3 9 6 6 9 3 8 1 8-2 12-7 16-9 13-6 8-6 4h-11l-6-4-7-8-10-15-5-11-2-7v-16l4-10 9-10 10-5z"/>
<path transform="translate(516,392)" d="m0 0 10 1 10 5 6 7 4 9v12l-4 9-7 8-8 4-4 1h-9l-11-4-5-4-6-9-1-4v-14l5-10 9-8z"/>
<path transform="translate(343,392)" d="m0 0 10 1 7 3 8 7 5 10v14l-4 9-4 5-8 5-7 2h-9l-9-3-9-8-4-8-1-3v-12l4-9 6-7 10-5z"/>
</svg>
