<?xml version="1.0" standalone="no"?>
<!DOCTYPE svg PUBLIC "-//W3C//DTD SVG 20010904//EN"
 "http://www.w3.org/TR/2001/REC-SVG-20010904/DTD/svg10.dtd">
<svg version="1.0" xmlns="http://www.w3.org/2000/svg"
 width="1024.000000pt" height="1024.000000pt" viewBox="0 0 1024.000000 1024.000000"
 preserveAspectRatio="xMidYMid meet">

<g transform="translate(0.000000,1024.000000) scale(0.100000,-0.100000)"
fill="#000000" stroke="none">
<path d="M5050 7643 c-346 -13 -729 -124 -1039 -302 -165 -95 -248 -154 -366
-259 -201 -180 -362 -377 -480 -588 -84 -150 -97 -180 -155 -350 -60 -175
-106 -390 -121 -568 -14 -161 0 -414 31 -566 17 -85 90 -309 135 -415 172
-404 497 -784 900 -1051 50 -32 109 -68 133 -78 23 -11 42 -23 42 -28 0 -4 7
-8 15 -8 9 0 58 -20 110 -44 144 -68 284 -112 465 -147 156 -31 178 -33 410
-34 135 -1 250 1 255 5 6 4 35 10 65 14 249 31 575 144 805 279 134 79 143 85
305 213 188 149 331 307 477 529 137 207 223 391 277 591 74 274 91 515 60
834 -42 430 -230 863 -518 1192 -89 101 -315 306 -402 365 -307 206 -621 335
-949 389 -104 17 -343 31 -455 27z m93 -195 c24 -19 115 -136 145 -188 l27
-45 7 60 c4 33 12 86 19 118 13 65 30 73 73 35 25 -22 25 -25 16 -88 -5 -36
-10 -87 -10 -114 0 -60 -27 -165 -47 -188 -9 -10 -27 -18 -39 -18 -25 0 -34
13 -105 133 -19 32 -46 73 -61 90 l-27 32 -2 -95 c-1 -124 -7 -144 -43 -148
-16 -2 -33 2 -37 10 -18 28 -7 290 16 396 6 25 41 30 68 10z m-307 -29 c10
-17 33 -223 34 -302 0 -38 -5 -77 -10 -88 -14 -25 -56 -25 -70 1 -6 12 -14
105 -17 210 l-6 190 31 0 c17 0 34 -5 38 -11z m924 -54 c28 -15 39 -37 110
-233 16 -43 26 -59 31 -50 5 7 9 19 9 26 0 7 14 47 31 88 33 79 42 85 89 57
27 -15 28 -18 15 -43 -7 -14 -26 -64 -41 -110 -36 -112 -82 -208 -107 -221
-30 -17 -49 11 -92 136 -21 61 -45 123 -53 139 l-14 30 -40 -105 c-22 -57 -44
-108 -49 -113 -5 -6 -18 -4 -34 4 -34 18 -32 49 11 167 20 54 48 131 63 170
14 40 30 73 34 73 4 0 21 -7 37 -15z m-1396 -131 c44 -17 5 -53 -92 -85 -90
-30 -113 -53 -120 -117 -5 -60 10 -104 46 -132 66 -52 232 8 232 84 0 35 -28
40 -89 16 -64 -25 -71 -25 -71 0 0 23 55 63 126 90 43 16 54 16 80 5 56 -23
94 -100 70 -143 -15 -28 -94 -94 -154 -129 -35 -21 -58 -26 -115 -27 -88 -1
-134 23 -178 93 -67 105 -8 276 116 332 39 18 118 25 149 13z m2066 -222 c44
-35 80 -67 80 -71 0 -5 -9 -16 -21 -27 -16 -15 -23 -16 -37 -6 -45 32 -119 72
-133 72 -8 0 -26 -11 -38 -24 l-22 -24 51 -48 c29 -27 56 -50 61 -52 14 -6 11
-28 -6 -42 -13 -11 -28 -7 -90 26 l-74 39 -27 -26 -26 -27 38 -35 c22 -19 58
-50 81 -68 23 -19 42 -36 42 -39 1 -3 -10 -18 -23 -35 l-23 -29 -112 83 c-61
46 -111 90 -111 96 0 7 45 75 101 151 55 77 108 151 117 166 l16 28 38 -23
c20 -12 74 -51 118 -85z m-2642 -115 l21 -23 -65 -64 c-85 -84 -89 -93 -67
-130 9 -16 23 -32 29 -34 7 -3 45 27 84 67 l71 72 19 -25 c27 -34 25 -38 -19
-76 -21 -18 -45 -48 -54 -66 -15 -31 -15 -34 5 -55 12 -13 26 -23 31 -23 12 0
114 84 142 117 l20 23 33 -20 c17 -11 32 -28 32 -37 0 -17 -209 -213 -227
-213 -5 0 -25 20 -45 44 -20 24 -70 68 -110 99 -40 30 -90 73 -112 95 l-38 40
58 63 c31 35 77 84 101 109 24 24 43 48 43 52 0 16 27 7 48 -15z m1612 -91
c135 -24 324 -89 436 -151 211 -117 439 -312 572 -490 88 -118 189 -316 232
-457 51 -170 73 -448 50 -638 -33 -269 -105 -458 -237 -624 l-45 -56 -214 0
c-118 0 -214 2 -214 4 0 2 11 28 25 58 13 30 28 84 32 121 l8 67 100 4 c215 9
300 78 247 199 -36 81 -160 233 -299 366 l-136 131 24 78 c20 64 24 98 24 202
-1 153 -14 200 -98 365 -56 109 -71 130 -167 226 -94 95 -115 111 -203 153
-54 26 -117 50 -140 54 -39 7 -43 10 -51 47 -9 44 -16 60 -50 120 -19 34 -28
40 -58 43 -48 4 -107 -26 -152 -79 l-36 -42 -21 26 c-25 33 -64 35 -96 5 -13
-12 -23 -33 -23 -47 0 -39 -9 -47 -103 -90 -48 -22 -108 -55 -134 -72 -65 -45
-189 -165 -226 -218 -49 -71 -105 -194 -129 -283 -30 -112 -31 -320 -2 -418
l19 -65 -171 -170 c-198 -198 -265 -289 -272 -369 -5 -62 23 -111 78 -138 47
-23 162 -39 231 -31 l56 6 5 -69 c3 -38 13 -89 22 -114 10 -25 20 -52 22 -60
4 -13 -22 -15 -203 -12 l-208 3 -38 37 c-105 101 -212 328 -247 522 -31 173
-29 479 5 641 42 198 152 443 269 600 92 122 287 307 406 385 215 141 414 214
680 248 66 8 345 -3 430 -18z m1330 -102 c89 -119 105 -188 60 -262 -29 -48
-102 -68 -151 -42 -17 10 -19 7 -19 -22 0 -46 -44 -110 -73 -106 -19 3 -22 9
-21 53 1 28 5 69 9 91 10 57 -7 64 -56 25 -32 -26 -42 -30 -58 -21 -47 25 -46
69 3 99 17 11 78 70 135 130 57 61 110 111 116 111 7 0 32 -25 55 -56z m-3267
-275 c22 -6 46 -22 59 -40 16 -21 30 -30 48 -28 54 3 72 -2 95 -27 47 -51 31
-143 -45 -259 -57 -87 -71 -94 -113 -55 -17 17 -87 63 -155 102 -105 62 -121
75 -116 93 14 46 71 150 102 186 36 42 58 47 125 28z m3504 -81 c64 -70 83
-183 40 -233 -29 -35 -100 -45 -148 -21 -17 9 -33 16 -34 16 -1 0 -6 -36 -9
-80 -8 -82 -23 -114 -54 -108 -9 2 -23 15 -31 30 -15 26 -11 66 15 155 l6 23
-46 -21 c-51 -22 -66 -19 -66 14 0 45 242 247 296 247 6 0 20 -10 31 -22z
m-1852 -32 c0 -16 -12 -22 -65 -32 -127 -24 -254 -90 -393 -203 -123 -100
-153 -105 -94 -16 48 71 152 156 252 206 102 51 165 68 240 66 52 -2 60 -5 60
-21z m-278 -397 c79 -38 140 -126 163 -237 l11 -51 -41 -37 c-60 -54 -74 -85
-59 -133 18 -62 77 -132 138 -163 91 -48 176 -34 251 41 67 67 85 107 81 174
-1 10 -24 43 -52 72 -50 53 -51 56 -45 97 9 60 49 138 93 183 53 53 110 76
189 76 118 0 208 -61 263 -181 34 -73 42 -228 16 -316 -50 -174 -192 -331
-323 -359 -55 -11 -50 -30 27 -101 39 -37 82 -85 96 -108 29 -51 55 -149 55
-210 l0 -46 -38 0 c-113 0 -212 -68 -272 -186 -31 -62 -35 -77 -34 -145 l1
-76 -75 -7 c-41 -3 -132 -6 -202 -6 l-127 0 -5 89 c-4 66 -12 103 -31 144 -51
111 -154 188 -256 191 l-43 1 5 84 c9 127 61 214 190 319 15 12 25 27 22 32
-3 5 -30 16 -60 25 -120 34 -254 177 -315 337 -43 111 -49 194 -22 285 26 83
51 123 114 176 81 68 189 82 285 36z m388 -408 c16 -9 31 -24 32 -32 4 -19
-78 -79 -109 -79 -29 0 -118 64 -118 85 0 7 19 20 43 29 78 28 97 28 152 -3z
m-1916 -67 c81 -67 -6 -184 -100 -134 -27 15 -51 67 -43 93 20 68 88 87 143
41z m3792 -3 c85 -86 -27 -203 -120 -126 -38 32 -46 58 -31 96 26 62 103 77
151 30z m-2696 -241 c4 -6 -1 -22 -10 -36 -28 -43 -346 -355 -356 -349 -29 19
143 229 284 347 60 50 71 55 82 38z m60 -292 c-13 -35 -28 -90 -34 -123 -21
-110 -21 -110 -32 -94 -34 54 26 279 75 279 11 0 9 -13 -9 -62z m233 -402 c35
-18 75 -61 98 -106 27 -51 27 -189 0 -219 -27 -29 -122 -29 -183 0 -86 42
-153 149 -138 220 8 37 18 42 71 40 41 -1 45 1 64 39 22 44 42 50 88 26z
m1032 -26 c15 -30 26 -40 44 -40 50 0 56 -8 56 -75 0 -58 -3 -67 -39 -113 -47
-59 -113 -94 -188 -100 -49 -4 -55 -2 -88 31 -31 31 -35 41 -35 84 0 140 83
253 187 253 40 0 44 -3 63 -40z m868 -226 c172 -5 222 -9 222 -19 0 -41 -270
-319 -415 -427 -229 -171 -532 -317 -792 -383 -170 -42 -458 -63 -632 -46
-365 37 -638 129 -943 318 -197 121 -423 332 -586 544 -11 15 25 16 452 16
l465 0 33 -46 c18 -25 33 -48 33 -51 0 -2 -29 -9 -64 -15 -51 -8 -68 -15 -84
-37 -28 -38 -17 -75 31 -95 33 -14 64 -14 273 -4 129 6 278 17 330 22 133 16
427 16 604 1 83 -7 229 -13 326 -15 161 -2 178 0 198 17 25 23 27 62 4 88 -13
14 -31 18 -95 18 -43 0 -78 4 -78 9 0 4 16 33 37 64 l36 55 211 -4 c116 -2
311 -7 434 -10z"/>
<path d="M4066 6051 c-24 -27 -17 -70 17 -94 l27 -21 28 21 c36 27 42 75 10
97 -30 21 -61 20 -82 -3z"/>
<path d="M6170 6050 c-28 -28 -25 -64 6 -89 35 -27 49 -26 80 4 19 19 23 31
18 48 -17 56 -67 74 -104 37z"/>
<path d="M3932 5773 c-32 -27 -37 -64 -12 -96 27 -35 62 -35 89 -1 29 37 26
58 -10 88 -36 31 -41 31 -67 9z"/>
<path d="M6267 5672 c-25 -27 -22 -74 7 -101 32 -30 73 -25 100 12 l21 28 -20
37 c-17 31 -26 38 -56 40 -24 2 -40 -3 -52 -16z"/>
<path d="M3850 5400 c-40 -40 -8 -120 48 -120 51 0 70 85 26 119 -33 26 -49
26 -74 1z"/>
<path d="M6385 5336 c-32 -32 -32 -59 1 -85 33 -26 45 -26 74 -3 26 21 30 67
9 87 -29 27 -57 27 -84 1z"/>
<path d="M6633 6597 c-36 -37 -33 -60 13 -96 39 -31 62 -27 81 14 16 34 16 36
-3 62 -11 14 -29 32 -40 39 -18 13 -23 11 -51 -19z"/>
<path d="M3382 6337 c-12 -13 -27 -38 -33 -56 -11 -31 -10 -35 12 -52 30 -23
36 -21 70 22 37 46 43 73 24 93 -23 22 -48 20 -73 -7z"/>
<path d="M3511 6213 c-38 -52 -40 -58 -25 -74 17 -19 48 -30 61 -20 25 18 63
75 63 95 0 23 -28 56 -48 56 -6 0 -29 -26 -51 -57z"/>
<path d="M6840 6281 c-14 -4 -26 -14 -28 -23 -4 -22 55 -78 82 -78 54 0 78 82
30 100 -28 11 -47 11 -84 1z"/>
<path d="M4682 5719 c-31 -12 -59 -47 -67 -81 -14 -59 39 -138 100 -154 52
-13 145 64 145 118 0 35 -32 90 -64 109 -33 20 -77 23 -114 8z m66 -47 c3 -30
1 -33 -19 -30 -27 4 -44 29 -36 52 4 11 15 16 29 14 18 -2 24 -11 26 -36z"/>
<path d="M5509 5714 c-43 -18 -64 -53 -63 -103 2 -73 54 -121 133 -121 36 0
49 6 77 34 30 30 34 40 34 84 0 44 -5 55 -34 86 -27 30 -40 36 -72 35 -22 0
-55 -7 -75 -15z m79 -13 c21 -13 11 -55 -14 -59 -30 -4 -48 21 -34 47 11 22
27 26 48 12z"/>
</g>
</svg>
