<svg xmlns="http://www.w3.org/2000/svg" xmlns:xlink="http://www.w3.org/1999/xlink" width="500" zoomAndPan="magnify" viewBox="0 0 375 374.999991" height="500" preserveAspectRatio="xMidYMid meet" version="1.0"><defs><g/><clipPath id="cb42f9f090"><path d="M 64.464844 64.464844 L 310.535156 64.464844 L 310.535156 310.535156 L 64.464844 310.535156 Z M 64.464844 64.464844 " clip-rule="nonzero"/></clipPath><clipPath id="9465b5596d"><path d="M 187.5 64.464844 C 119.550781 64.464844 64.464844 119.550781 64.464844 187.5 C 64.464844 255.449219 119.550781 310.535156 187.5 310.535156 C 255.449219 310.535156 310.535156 255.449219 310.535156 187.5 C 310.535156 119.550781 255.449219 64.464844 187.5 64.464844 Z M 187.5 64.464844 " clip-rule="nonzero"/></clipPath><clipPath id="138c20213d"><path d="M 70.140625 70.140625 L 304.859375 70.140625 L 304.859375 304.859375 L 70.140625 304.859375 Z M 70.140625 70.140625 " clip-rule="nonzero"/></clipPath><clipPath id="0f17e50d64"><path d="M 187.5 70.140625 C 122.683594 70.140625 70.140625 122.683594 70.140625 187.5 C 70.140625 252.316406 122.683594 304.859375 187.5 304.859375 C 252.316406 304.859375 304.859375 252.316406 304.859375 187.5 C 304.859375 122.683594 252.316406 70.140625 187.5 70.140625 Z M 187.5 70.140625 " clip-rule="nonzero"/></clipPath><clipPath id="367991d345"><path d="M 74.519531 74.519531 L 300.480469 74.519531 L 300.480469 300.480469 L 74.519531 300.480469 Z M 74.519531 74.519531 " clip-rule="nonzero"/></clipPath><clipPath id="b8b5d5584a"><path d="M 187.5 74.519531 C 125.105469 74.519531 74.519531 125.105469 74.519531 187.5 C 74.519531 249.894531 125.105469 300.480469 187.5 300.480469 C 249.894531 300.480469 300.480469 249.894531 300.480469 187.5 C 300.480469 125.105469 249.894531 74.519531 187.5 74.519531 Z M 187.5 74.519531 " clip-rule="nonzero"/></clipPath><clipPath id="0af0433cd1"><path d="M 117.078125 117.078125 L 257.921875 117.078125 L 257.921875 257.921875 L 117.078125 257.921875 Z M 117.078125 117.078125 " clip-rule="nonzero"/></clipPath><clipPath id="7150db0e0e"><path d="M 187.5 117.078125 C 148.605469 117.078125 117.078125 148.605469 117.078125 187.5 C 117.078125 226.394531 148.605469 257.921875 187.5 257.921875 C 226.394531 257.921875 257.921875 226.394531 257.921875 187.5 C 257.921875 148.605469 226.394531 117.078125 187.5 117.078125 Z M 187.5 117.078125 " clip-rule="nonzero"/></clipPath><clipPath id="59a6a08a42"><path d="M 91.960938 182.507812 L 102.460938 182.507812 L 102.460938 192.257812 L 91.960938 192.257812 Z M 91.960938 182.507812 " clip-rule="nonzero"/></clipPath><clipPath id="f655a5f60b"><path d="M 272.277344 182.507812 L 282.777344 182.507812 L 282.777344 192.257812 L 272.277344 192.257812 Z M 272.277344 182.507812 " clip-rule="nonzero"/></clipPath></defs><g clip-path="url(#cb42f9f090)"><g clip-path="url(#9465b5596d)"><path fill="#ffbc66" d="M 64.464844 64.464844 L 310.535156 64.464844 L 310.535156 310.535156 L 64.464844 310.535156 Z M 64.464844 64.464844 " fill-opacity="1" fill-rule="nonzero"/></g></g><g clip-path="url(#138c20213d)"><g clip-path="url(#0f17e50d64)"><path fill="#ffffff" d="M 70.140625 70.140625 L 304.859375 70.140625 L 304.859375 304.859375 L 70.140625 304.859375 Z M 70.140625 70.140625 " fill-opacity="1" fill-rule="nonzero"/></g></g><g clip-path="url(#367991d345)"><g clip-path="url(#b8b5d5584a)"><path fill="#013044" d="M 74.519531 74.519531 L 300.480469 74.519531 L 300.480469 300.480469 L 74.519531 300.480469 Z M 74.519531 74.519531 " fill-opacity="1" fill-rule="nonzero"/></g></g><g clip-path="url(#0af0433cd1)"><g clip-path="url(#7150db0e0e)"><path fill="#ffffff" d="M 117.078125 117.078125 L 257.921875 117.078125 L 257.921875 257.921875 L 117.078125 257.921875 Z M 117.078125 117.078125 " fill-opacity="1" fill-rule="nonzero"/></g></g><g clip-path="url(#59a6a08a42)"><path fill="#ffffff" d="M 97.339844 192.246094 L 102.71875 187.496094 L 97.339844 182.742188 L 91.960938 187.496094 L 97.339844 192.246094 " fill-opacity="1" fill-rule="evenodd"/></g><g clip-path="url(#f655a5f60b)"><path fill="#ffffff" d="M 277.65625 192.246094 L 283.035156 187.496094 L 277.65625 182.742188 L 272.277344 187.496094 L 277.65625 192.246094 " fill-opacity="1" fill-rule="evenodd"/></g><path fill="#39b54a" d="M 183.734375 214.492188 C 181.210938 208.703125 177.457031 197.429688 181.144531 185.390625 C 187.191406 165.640625 210.917969 151.480469 239.46875 153.3125 C 243.261719 177.410156 233.917969 199.980469 216.3125 210.050781 C 204.453125 216.835938 192.167969 216.046875 186.347656 215.234375 C 192.304688 210.738281 198.992188 204.960938 205.675781 197.644531 C 215.996094 186.351562 222.882812 175.148438 227.441406 166.207031 C 220.890625 175.304688 213.023438 185.136719 203.621094 195.175781 C 196.835938 202.425781 190.136719 208.839844 183.734375 214.492188 Z M 183.734375 214.492188 " fill-opacity="1" fill-rule="nonzero"/><path fill="#39b54a" d="M 176.125 215.121094 C 171.667969 216.464844 163.09375 218.230469 154.589844 214.527344 C 140.644531 208.449219 132.292969 190.003906 136.070312 169.410156 C 154.039062 168.710938 169.773438 177.421875 175.648438 191.074219 C 179.605469 200.269531 177.980469 209.128906 176.890625 213.285156 C 174.105469 208.574219 170.441406 203.222656 165.65625 197.742188 C 158.265625 189.285156 150.648438 183.324219 144.488281 179.25 C 150.59375 184.785156 157.121094 191.339844 163.671875 199.027344 C 168.402344 204.574219 172.53125 209.988281 176.125 215.121094 Z M 176.125 215.121094 " fill-opacity="1" fill-rule="nonzero"/><g fill="#ffffff" fill-opacity="1"><g transform="translate(112.554338, 147.51829)"><g><path d="M 7.5625 -11.015625 L 1.171875 -1.703125 L -14.515625 -12.46875 L -8.125 -21.78125 L -4.71875 -19.453125 L -8.203125 -14.375 L -5.734375 -12.671875 L -2.5 -17.375 L 0.890625 -15.046875 L -2.34375 -10.34375 L 0.625 -8.3125 L 4.109375 -13.390625 Z M 7.5625 -11.015625 "/></g></g></g><g fill="#ffffff" fill-opacity="1"><g transform="translate(119.609203, 136.616908)"><g><path d="M 13.484375 -13.671875 L 9.3125 -9.4375 L 2.46875 -10.984375 L 4.125 -4.1875 L 0.03125 -0.03125 L -2.453125 -11.375 L -13.25 -13.65625 L -9.25 -17.71875 L -2.640625 -16.046875 L -4.5 -22.53125 L -0.375 -26.703125 L 2.296875 -15.59375 Z M 13.484375 -13.671875 "/></g></g></g><g fill="#ffffff" fill-opacity="1"><g transform="translate(131.551328, 124.068231)"><g><path d="M 11.375 -18.875 C 13.132812 -16.1875 13.8125 -13.71875 13.40625 -11.46875 C 13.007812 -9.21875 11.546875 -7.257812 9.015625 -5.59375 C 6.515625 -3.957031 4.140625 -3.40625 1.890625 -3.9375 C -0.347656 -4.46875 -2.347656 -6.070312 -4.109375 -8.75 C -5.835938 -11.394531 -6.5 -13.847656 -6.09375 -16.109375 C -5.695312 -18.367188 -4.238281 -20.332031 -1.71875 -22 C 0.8125 -23.65625 3.1875 -24.21875 5.40625 -23.6875 C 7.625 -23.15625 9.613281 -21.550781 11.375 -18.875 Z M 0.421875 -11.703125 C 2.441406 -8.617188 4.523438 -7.773438 6.671875 -9.171875 C 7.753906 -9.890625 8.3125 -10.796875 8.34375 -11.890625 C 8.382812 -12.984375 7.882812 -14.320312 6.84375 -15.90625 C 5.800781 -17.488281 4.765625 -18.484375 3.734375 -18.890625 C 2.710938 -19.304688 1.671875 -19.171875 0.609375 -18.484375 C -1.546875 -17.066406 -1.609375 -14.804688 0.421875 -11.703125 Z M 0.421875 -11.703125 "/></g></g></g><g fill="#ffffff" fill-opacity="1"><g transform="translate(148.339383, 113.558491)"><g/></g></g><g fill="#ffffff" fill-opacity="1"><g transform="translate(153.53711, 110.847284)"><g><path d="M 12.671875 -4.21875 L 1.953125 -0.65625 L -4.046875 -18.71875 L 6.671875 -22.28125 L 7.96875 -18.359375 L 2.125 -16.40625 L 3.078125 -13.5625 L 8.5 -15.375 L 9.796875 -11.46875 L 4.375 -9.65625 L 5.5 -6.234375 L 11.34375 -8.1875 Z M 12.671875 -4.21875 "/></g></g></g><g fill="#ffffff" fill-opacity="1"><g transform="translate(165.741463, 106.415602)"><g><path d="M 19 -2.75 L 13.109375 -1.90625 L 8.59375 -7.265625 L 5.8125 -0.84375 L 0.046875 0 L 4.90625 -10.546875 L -2.3125 -18.890625 L 3.328125 -19.703125 L 7.578125 -14.375 L 10 -20.671875 L 15.828125 -21.515625 L 11.25 -11.0625 Z M 19 -2.75 "/></g></g></g><g fill="#ffffff" fill-opacity="1"><g transform="translate(183.047466, 103.850183)"><g><path d="M 16.421875 -12.265625 C 16.328125 -10.128906 15.628906 -8.515625 14.328125 -7.421875 C 13.023438 -6.328125 11.21875 -5.828125 8.90625 -5.921875 L 7.484375 -6 L 7.203125 0.3125 L 2.0625 0.09375 L 2.90625 -18.921875 L 9.46875 -18.625 C 11.875 -18.519531 13.65625 -17.914062 14.8125 -16.8125 C 15.96875 -15.707031 16.503906 -14.191406 16.421875 -12.265625 Z M 7.671875 -10.171875 L 8.59375 -10.125 C 9.363281 -10.09375 9.984375 -10.285156 10.453125 -10.703125 C 10.929688 -11.117188 11.1875 -11.707031 11.21875 -12.46875 C 11.269531 -13.75 10.585938 -14.421875 9.171875 -14.484375 L 7.859375 -14.546875 Z M 7.671875 -10.171875 "/></g></g></g><g fill="#ffffff" fill-opacity="1"><g transform="translate(198.27627, 104.447476)"><g><path d="M 2.015625 0.4375 L 6.046875 -18.15625 L 11.078125 -17.0625 L 7.921875 -2.53125 L 15.078125 -0.984375 L 14.203125 3.078125 Z M 2.015625 0.4375 "/></g></g></g><g fill="#ffffff" fill-opacity="1"><g transform="translate(211.801285, 106.921193)"><g><path d="M 22.015625 -0.953125 C 20.742188 2.003906 19.054688 3.9375 16.953125 4.84375 C 14.859375 5.757812 12.421875 5.625 9.640625 4.4375 C 6.890625 3.257812 5.113281 1.585938 4.3125 -0.578125 C 3.519531 -2.753906 3.753906 -5.3125 5.015625 -8.25 C 6.265625 -11.164062 7.945312 -13.078125 10.0625 -13.984375 C 12.175781 -14.898438 14.625 -14.765625 17.40625 -13.578125 C 20.175781 -12.378906 21.953125 -10.710938 22.734375 -8.578125 C 23.515625 -6.441406 23.273438 -3.898438 22.015625 -0.953125 Z M 9.984375 -6.109375 C 8.523438 -2.710938 8.972656 -0.507812 11.328125 0.5 C 12.523438 1.007812 13.585938 0.976562 14.515625 0.40625 C 15.453125 -0.164062 16.296875 -1.328125 17.046875 -3.078125 C 17.796875 -4.816406 18.050781 -6.226562 17.8125 -7.3125 C 17.582031 -8.40625 16.890625 -9.203125 15.734375 -9.703125 C 13.359375 -10.710938 11.441406 -9.515625 9.984375 -6.109375 Z M 9.984375 -6.109375 "/></g></g></g><g fill="#ffffff" fill-opacity="1"><g transform="translate(229.562795, 114.502947)"><g><path d="M 9.875 -1.546875 L 5.90625 4.125 L 1.6875 1.1875 L 12.59375 -14.40625 L 17.703125 -10.84375 C 21.941406 -7.875 22.988281 -4.851562 20.84375 -1.78125 C 19.570312 0.03125 17.710938 0.804688 15.265625 0.546875 L 15.046875 10.515625 L 10.265625 7.1875 L 10.9375 -0.796875 Z M 12.09375 -4.71875 L 12.875 -4.171875 C 14.351562 -3.140625 15.546875 -3.273438 16.453125 -4.578125 C 17.203125 -5.648438 16.851562 -6.691406 15.40625 -7.703125 L 14.578125 -8.28125 Z M 12.09375 -4.71875 "/></g></g></g><g fill="#ffffff" fill-opacity="1"><g transform="translate(243.01249, 123.913208)"><g><path d="M 9.484375 9.40625 L 1.46875 1.453125 L 14.859375 -12.0625 L 22.875 -4.109375 L 19.96875 -1.1875 L 15.59375 -5.53125 L 13.484375 -3.390625 L 17.546875 0.625 L 14.640625 3.546875 L 10.578125 -0.46875 L 8.0625 2.09375 L 12.4375 6.4375 Z M 9.484375 9.40625 "/></g></g></g><g fill="#ffffff" fill-opacity="1"><g transform="translate(252.466777, 132.886184)"><g><path d="M 9.828125 1.84375 L 4.1875 5.859375 L 1.203125 1.671875 L 16.703125 -9.375 L 20.3125 -4.296875 C 23.3125 -0.0859375 23.285156 3.101562 20.234375 5.28125 C 18.429688 6.5625 16.421875 6.675781 14.203125 5.625 L 10.65625 14.953125 L 7.28125 10.203125 L 10.578125 2.90625 Z M 12.984375 -0.40625 L 13.53125 0.375 C 14.582031 1.84375 15.75 2.117188 17.03125 1.203125 C 18.101562 0.429688 18.125 -0.671875 17.09375 -2.109375 L 16.515625 -2.9375 Z M 12.984375 -0.40625 "/></g></g></g><g fill="#ffffff" fill-opacity="1"><g transform="translate(134.736665, 271.552096)"><g><path d="M 10.28125 -4.90625 C 11 -4.5 11.546875 -3.96875 11.921875 -3.3125 C 12.304688 -2.65625 12.484375 -1.929688 12.453125 -1.140625 C 12.429688 -0.347656 12.191406 0.441406 11.734375 1.234375 C 10.941406 2.617188 9.914062 3.441406 8.65625 3.703125 C 7.40625 3.972656 5.9375 3.625 4.25 2.65625 C 2.800781 1.820312 1.742188 0.921875 1.078125 -0.046875 L 2.65625 -2.78125 C 3.007812 -2.28125 3.453125 -1.78125 3.984375 -1.28125 C 4.523438 -0.78125 5.015625 -0.398438 5.453125 -0.140625 C 6.078125 0.210938 6.632812 0.351562 7.125 0.28125 C 7.613281 0.21875 8.007812 -0.0703125 8.3125 -0.59375 C 8.570312 -1.0625 8.609375 -1.523438 8.421875 -1.984375 C 8.242188 -2.453125 7.8125 -2.878906 7.125 -3.265625 C 6.59375 -3.566406 5.960938 -3.796875 5.234375 -3.953125 L 4.34375 -5.265625 L 8.578125 -11.546875 L 15.640625 -7.5 L 14.046875 -4.703125 L 9.828125 -7.125 L 8.734375 -5.578125 C 9.222656 -5.410156 9.5625 -5.273438 9.75 -5.171875 C 9.945312 -5.078125 10.125 -4.988281 10.28125 -4.90625 Z M 10.28125 -4.90625 "/></g></g></g><g fill="#ffffff" fill-opacity="1"><g transform="translate(145.695905, 277.758154)"><g><path d="M 12.90625 -2.421875 C 11.945312 -0.078125 10.851562 1.472656 9.625 2.234375 C 8.394531 3.003906 6.96875 3.0625 5.34375 2.40625 C 3.757812 1.757812 2.800781 0.707031 2.46875 -0.75 C 2.132812 -2.21875 2.429688 -4.078125 3.359375 -6.328125 C 4.316406 -8.671875 5.410156 -10.226562 6.640625 -11 C 7.878906 -11.78125 9.300781 -11.84375 10.90625 -11.1875 C 12.476562 -10.539062 13.429688 -9.484375 13.765625 -8.015625 C 14.109375 -6.546875 13.820312 -4.679688 12.90625 -2.421875 Z M 6.90625 -4.875 C 6.289062 -3.382812 5.960938 -2.316406 5.921875 -1.671875 C 5.878906 -1.023438 6.078125 -0.613281 6.515625 -0.4375 C 6.960938 -0.257812 7.394531 -0.421875 7.8125 -0.921875 C 8.226562 -1.421875 8.738281 -2.40625 9.34375 -3.875 C 9.9375 -5.34375 10.257812 -6.40625 10.3125 -7.0625 C 10.375 -7.726562 10.179688 -8.148438 9.734375 -8.328125 C 9.296875 -8.503906 8.867188 -8.347656 8.453125 -7.859375 C 8.035156 -7.367188 7.519531 -6.375 6.90625 -4.875 Z M 6.90625 -4.875 "/></g></g></g><g fill="#ffffff" fill-opacity="1"><g transform="translate(157.185317, 282.255468)"><g/></g></g><g fill="#ffffff" fill-opacity="1"><g transform="translate(162.758595, 284.096724)"><g><path d="M 13.546875 -7.265625 C 13.242188 -5.703125 12.546875 -4.582031 11.453125 -3.90625 C 10.359375 -3.238281 8.960938 -3.066406 7.265625 -3.390625 L 6.21875 -3.609375 L 5.3125 1.03125 L 1.515625 0.296875 L 4.25 -13.71875 L 9.09375 -12.765625 C 10.863281 -12.421875 12.117188 -11.773438 12.859375 -10.828125 C 13.597656 -9.890625 13.828125 -8.703125 13.546875 -7.265625 Z M 6.828125 -6.703125 L 7.515625 -6.5625 C 8.078125 -6.457031 8.554688 -6.53125 8.953125 -6.78125 C 9.359375 -7.03125 9.613281 -7.4375 9.71875 -8 C 9.90625 -8.945312 9.46875 -9.523438 8.40625 -9.734375 L 7.453125 -9.921875 Z M 6.828125 -6.703125 "/></g></g></g><g fill="#ffffff" fill-opacity="1"><g transform="translate(176.219481, 286.771633)"><g><path d="M 15.125 -6.671875 C 15.039062 -4.273438 14.394531 -2.46875 13.1875 -1.25 C 11.976562 -0.0390625 10.234375 0.523438 7.953125 0.453125 C 5.710938 0.378906 4.015625 -0.300781 2.859375 -1.59375 C 1.703125 -2.894531 1.164062 -4.742188 1.25 -7.140625 C 1.320312 -9.523438 1.972656 -11.320312 3.203125 -12.53125 C 4.429688 -13.75 6.179688 -14.320312 8.453125 -14.25 C 10.722656 -14.175781 12.421875 -13.492188 13.546875 -12.203125 C 14.671875 -10.921875 15.195312 -9.078125 15.125 -6.671875 Z M 5.3125 -7 C 5.21875 -4.238281 6.128906 -2.828125 8.046875 -2.765625 C 9.023438 -2.734375 9.757812 -3.046875 10.25 -3.703125 C 10.75 -4.359375 11.023438 -5.394531 11.078125 -6.8125 C 11.117188 -8.238281 10.910156 -9.300781 10.453125 -10 C 9.992188 -10.695312 9.289062 -11.0625 8.34375 -11.09375 C 6.40625 -11.15625 5.394531 -9.789062 5.3125 -7 Z M 5.3125 -7 "/></g></g></g><g fill="#ffffff" fill-opacity="1"><g transform="translate(192.993916, 286.968885)"><g><path d="M 1.546875 -0.15625 L 0.171875 -14.375 L 4.015625 -14.734375 L 5.390625 -0.515625 Z M 1.546875 -0.15625 "/></g></g></g><g fill="#ffffff" fill-opacity="1"><g transform="translate(200.852312, 286.472649)"><g><path d="M 14.75 -3.4375 L 9.8125 -2.296875 L 2.453125 -10.90625 L 2.375 -10.890625 C 2.851562 -9.367188 3.1875 -8.203125 3.375 -7.390625 L 4.84375 -1.125 L 1.5 -0.359375 L -1.75 -14.265625 L 3.15625 -15.40625 L 10.484375 -6.921875 L 10.546875 -6.9375 C 10.117188 -8.3125 9.804688 -9.425781 9.609375 -10.28125 L 8.140625 -16.5625 L 11.5 -17.34375 Z M 14.75 -3.4375 "/></g></g></g><g fill="#ffffff" fill-opacity="1"><g transform="translate(218.060065, 282.166662)"><g><path d="M 7.25 -2.984375 L 3.6875 -1.515625 L -0.53125 -11.8125 L -3.75 -10.484375 L -4.953125 -13.40625 L 5.046875 -17.515625 L 6.25 -14.59375 L 3.03125 -13.28125 Z M 7.25 -2.984375 "/></g></g></g><g fill="#ffffff" fill-opacity="1"><g transform="translate(229.772892, 277.287799)"><g><path d="M 7.28125 -9.171875 C 7.71875 -8.398438 7.910156 -7.609375 7.859375 -6.796875 C 7.816406 -5.984375 7.523438 -5.195312 6.984375 -4.4375 C 6.441406 -3.6875 5.671875 -3.023438 4.671875 -2.453125 C 3.847656 -1.984375 3.125 -1.644531 2.5 -1.4375 C 1.882812 -1.226562 1.191406 -1.097656 0.421875 -1.046875 L -1.296875 -4.03125 C -0.472656 -4.070312 0.332031 -4.195312 1.125 -4.40625 C 1.914062 -4.613281 2.601562 -4.882812 3.1875 -5.21875 C 3.675781 -5.5 3.988281 -5.789062 4.125 -6.09375 C 4.257812 -6.394531 4.25 -6.679688 4.09375 -6.953125 C 3.988281 -7.128906 3.851562 -7.253906 3.6875 -7.328125 C 3.53125 -7.398438 3.3125 -7.441406 3.03125 -7.453125 C 2.75 -7.472656 2.046875 -7.421875 0.921875 -7.296875 C -0.0976562 -7.210938 -0.90625 -7.226562 -1.5 -7.34375 C -2.09375 -7.457031 -2.613281 -7.675781 -3.0625 -8 C -3.519531 -8.332031 -3.921875 -8.804688 -4.265625 -9.421875 C -4.921875 -10.566406 -5.019531 -11.691406 -4.5625 -12.796875 C -4.101562 -13.910156 -3.144531 -14.890625 -1.6875 -15.734375 C -0.40625 -16.460938 1.070312 -16.910156 2.75 -17.078125 L 3.203125 -13.921875 C 1.742188 -13.773438 0.585938 -13.460938 -0.265625 -12.984375 C -0.703125 -12.734375 -0.972656 -12.476562 -1.078125 -12.21875 C -1.179688 -11.957031 -1.171875 -11.710938 -1.046875 -11.484375 C -0.898438 -11.242188 -0.644531 -11.097656 -0.28125 -11.046875 C 0.0703125 -10.992188 0.953125 -11.035156 2.359375 -11.171875 C 3.691406 -11.304688 4.722656 -11.210938 5.453125 -10.890625 C 6.191406 -10.578125 6.800781 -10.003906 7.28125 -9.171875 Z M 7.28125 -9.171875 "/></g></g></g></svg>