<svg xmlns="http://www.w3.org/2000/svg" xmlns:xlink="http://www.w3.org/1999/xlink" width="500" zoomAndPan="magnify" viewBox="0 0 375 374.999991" height="500" preserveAspectRatio="xMidYMid meet" version="1.0"><defs><g/><clipPath id="05a68a9494"><path d="M 64.464844 64.464844 L 310.535156 64.464844 L 310.535156 310.535156 L 64.464844 310.535156 Z M 64.464844 64.464844 " clip-rule="nonzero"/></clipPath><clipPath id="478341afdb"><path d="M 187.5 64.464844 C 119.550781 64.464844 64.464844 119.550781 64.464844 187.5 C 64.464844 255.449219 119.550781 310.535156 187.5 310.535156 C 255.449219 310.535156 310.535156 255.449219 310.535156 187.5 C 310.535156 119.550781 255.449219 64.464844 187.5 64.464844 Z M 187.5 64.464844 " clip-rule="nonzero"/></clipPath><clipPath id="71e33e7029"><path d="M 74.519531 74.519531 L 309.242188 74.519531 L 309.242188 309.242188 L 74.519531 309.242188 Z M 74.519531 74.519531 " clip-rule="nonzero"/></clipPath><clipPath id="9b7e9a10ec"><path d="M 191.882812 74.519531 C 127.066406 74.519531 74.519531 127.066406 74.519531 191.882812 C 74.519531 256.695312 127.066406 309.242188 191.882812 309.242188 C 256.695312 309.242188 309.242188 256.695312 309.242188 191.882812 C 309.242188 127.066406 256.695312 74.519531 191.882812 74.519531 Z M 191.882812 74.519531 " clip-rule="nonzero"/></clipPath><clipPath id="13926104a0"><path d="M 74.519531 74.519531 L 300.480469 74.519531 L 300.480469 300.480469 L 74.519531 300.480469 Z M 74.519531 74.519531 " clip-rule="nonzero"/></clipPath><clipPath id="49c86da47d"><path d="M 187.5 74.519531 C 125.105469 74.519531 74.519531 125.105469 74.519531 187.5 C 74.519531 249.894531 125.105469 300.480469 187.5 300.480469 C 249.894531 300.480469 300.480469 249.894531 300.480469 187.5 C 300.480469 125.105469 249.894531 74.519531 187.5 74.519531 Z M 187.5 74.519531 " clip-rule="nonzero"/></clipPath><clipPath id="7d31ab11ca"><path d="M 117.078125 117.078125 L 257.921875 117.078125 L 257.921875 257.921875 L 117.078125 257.921875 Z M 117.078125 117.078125 " clip-rule="nonzero"/></clipPath><clipPath id="928d9f00ec"><path d="M 187.5 117.078125 C 148.605469 117.078125 117.078125 148.605469 117.078125 187.5 C 117.078125 226.394531 148.605469 257.921875 187.5 257.921875 C 226.394531 257.921875 257.921875 226.394531 257.921875 187.5 C 257.921875 148.605469 226.394531 117.078125 187.5 117.078125 Z M 187.5 117.078125 " clip-rule="nonzero"/></clipPath><clipPath id="1010291c95"><path d="M 91.960938 182.507812 L 102.460938 182.507812 L 102.460938 192.257812 L 91.960938 192.257812 Z M 91.960938 182.507812 " clip-rule="nonzero"/></clipPath><clipPath id="f4d56b80ce"><path d="M 272.277344 182.507812 L 282.777344 182.507812 L 282.777344 192.257812 L 272.277344 192.257812 Z M 272.277344 182.507812 " clip-rule="nonzero"/></clipPath><clipPath id="fbbb6c81e8"><path d="M 154 133.246094 L 177 133.246094 L 177 171 L 154 171 Z M 154 133.246094 " clip-rule="nonzero"/></clipPath></defs><g clip-path="url(#05a68a9494)"><g clip-path="url(#478341afdb)"><path fill="#ffbc66" d="M 64.464844 64.464844 L 310.535156 64.464844 L 310.535156 310.535156 L 64.464844 310.535156 Z M 64.464844 64.464844 " fill-opacity="1" fill-rule="nonzero"/></g></g><g clip-path="url(#71e33e7029)"><g clip-path="url(#9b7e9a10ec)"><path fill="#ffffff" d="M 74.519531 74.519531 L 309.242188 74.519531 L 309.242188 309.242188 L 74.519531 309.242188 Z M 74.519531 74.519531 " fill-opacity="1" fill-rule="nonzero"/></g></g><g clip-path="url(#13926104a0)"><g clip-path="url(#49c86da47d)"><path fill="#013044" d="M 74.519531 74.519531 L 300.480469 74.519531 L 300.480469 300.480469 L 74.519531 300.480469 Z M 74.519531 74.519531 " fill-opacity="1" fill-rule="nonzero"/></g></g><g clip-path="url(#7d31ab11ca)"><g clip-path="url(#928d9f00ec)"><path fill="#ffffff" d="M 117.078125 117.078125 L 257.921875 117.078125 L 257.921875 257.921875 L 117.078125 257.921875 Z M 117.078125 117.078125 " fill-opacity="1" fill-rule="nonzero"/></g></g><g clip-path="url(#1010291c95)"><path fill="#ffffff" d="M 97.339844 192.246094 L 102.71875 187.496094 L 97.339844 182.742188 L 91.960938 187.496094 L 97.339844 192.246094 " fill-opacity="1" fill-rule="evenodd"/></g><g clip-path="url(#f4d56b80ce)"><path fill="#ffffff" d="M 277.65625 192.246094 L 283.035156 187.496094 L 277.65625 182.742188 L 272.277344 187.496094 L 277.65625 192.246094 " fill-opacity="1" fill-rule="evenodd"/></g><g clip-path="url(#fbbb6c81e8)"><path fill="#7ac2e2" d="M 163.203125 138.660156 C 162.035156 141.410156 159.539062 146.585938 158.125 149.21875 C 155.234375 154.589844 153.070312 161.699219 157.574219 166.867188 C 160.839844 170.613281 167.191406 171.429688 171.585938 168.988281 C 176.769531 166.101562 177.535156 159.863281 175.890625 154.640625 C 174.601562 150.554688 172.164062 146.941406 170.269531 143.089844 C 169.4375 141.394531 169.015625 140.238281 168.203125 138.535156 C 167.558594 137.191406 166.425781 134.683594 165.386719 133.25 C 165.019531 133.953125 163.976562 136.816406 163.203125 138.660156 Z M 163.203125 138.660156 " fill-opacity="1" fill-rule="nonzero"/></g><path stroke-linecap="round" transform="matrix(0.430981, 0, 0, 0.430622, 96.365492, 90.528935)" fill="none" stroke-linejoin="round" d="M 174.532904 182.190966 C 186.560321 175.487363 188.33679 161.000688 184.521008 148.87252 C 181.530015 139.384065 175.874319 130.993223 171.478466 122.049039 " stroke="#335894" stroke-width="1.5" stroke-opacity="1" stroke-miterlimit="10"/><path stroke-linecap="round" transform="matrix(0.430981, 0, 0, 0.430622, 96.365492, 90.528935)" fill="none" stroke-linejoin="round" d="M 153.342172 177.147389 C 149.354182 175.033804 146.118471 171.532329 144.305748 167.39587 C 142.502089 163.259412 142.130481 158.506113 143.290623 154.151947 " stroke="#335894" stroke-width="1.5" stroke-opacity="1" stroke-miterlimit="10"/><path fill="#7ac2e2" d="M 205.890625 150.863281 C 204.585938 153.949219 201.785156 159.753906 200.191406 162.707031 C 196.953125 168.730469 194.523438 176.703125 199.578125 182.5 C 203.246094 186.703125 210.367188 187.621094 215.292969 184.882812 C 221.113281 181.648438 221.976562 174.648438 220.125 168.785156 C 218.683594 164.199219 215.941406 160.148438 213.820312 155.832031 C 212.886719 153.929688 212.414062 152.636719 211.496094 150.726562 C 210.773438 149.21875 209.503906 146.40625 208.339844 144.800781 C 207.933594 145.582031 206.765625 148.800781 205.890625 150.863281 Z M 205.890625 150.863281 " fill-opacity="1" fill-rule="nonzero"/><path stroke-linecap="round" transform="matrix(0.430981, 0, 0, 0.430622, 96.365492, 90.528935)" fill="none" stroke-linejoin="round" d="M 252.180893 213.459325 C 247.712531 211.082676 244.068958 207.163926 242.047772 202.519481 C 240.017522 197.884108 239.609659 192.550254 240.896693 187.651816 " stroke="#335894" stroke-width="1.5" stroke-opacity="1" stroke-miterlimit="10"/><path fill="#7ac2e2" d="M 179.234375 189.835938 C 177.726562 193.398438 174.492188 200.101562 172.65625 203.507812 C 168.917969 210.460938 166.105469 219.664062 171.945312 226.355469 C 176.179688 231.207031 184.40625 232.269531 190.089844 229.105469 C 196.804688 225.375 197.800781 217.292969 195.667969 210.527344 C 194 205.234375 190.835938 200.558594 188.394531 195.574219 C 187.316406 193.378906 186.769531 191.882812 185.710938 189.679688 C 184.878906 187.941406 183.410156 184.699219 182.066406 182.835938 C 181.59375 183.738281 180.242188 187.449219 179.234375 189.835938 Z M 179.234375 189.835938 " fill-opacity="1" fill-rule="nonzero"/><path stroke-linecap="round" transform="matrix(0.430981, 0, 0, 0.430622, 96.365492, 90.528935)" fill="none" stroke-linejoin="round" d="M 217.467248 321.805505 C 233.047602 313.142527 235.358824 294.374255 230.41009 278.66297 C 226.539927 266.371521 219.198398 255.513318 213.533639 243.938491 C 211.032081 238.840488 209.763175 235.366226 207.306936 230.25008 " stroke="#335894" stroke-width="1.5" stroke-opacity="1" stroke-miterlimit="10"/><path stroke-linecap="round" transform="matrix(0.430981, 0, 0, 0.430622, 96.365492, 90.528935)" fill="none" stroke-linejoin="round" d="M 190.022622 315.274255 C 184.856361 312.525687 180.659908 307.999168 178.321495 302.6381 C 175.983082 297.277033 175.502711 291.126772 176.989144 285.484498 " stroke="#335894" stroke-width="1.5" stroke-opacity="1" stroke-miterlimit="10"/><g fill="#ffffff" fill-opacity="1"><g transform="translate(101.937272, 180.57237)"><g><path d="M -2.78125 -15.359375 C -1.625 -15.117188 -0.65625 -14.613281 0.125 -13.84375 C 0.90625 -13.082031 1.429688 -12.097656 1.703125 -10.890625 C 1.984375 -9.679688 1.972656 -8.335938 1.671875 -6.859375 C 1.421875 -5.609375 1.117188 -4.578125 0.765625 -3.765625 C 0.421875 -2.960938 -0.0625 -2.148438 -0.6875 -1.328125 L -5.171875 -2.234375 C -4.484375 -3.109375 -3.894531 -4.035156 -3.40625 -5.015625 C -2.925781 -5.992188 -2.597656 -6.914062 -2.421875 -7.78125 C -2.265625 -8.53125 -2.28125 -9.101562 -2.46875 -9.5 C -2.664062 -9.90625 -2.96875 -10.148438 -3.375 -10.234375 C -3.632812 -10.285156 -3.867188 -10.257812 -4.078125 -10.15625 C -4.296875 -10.0625 -4.53125 -9.878906 -4.78125 -9.609375 C -5.039062 -9.335938 -5.609375 -8.585938 -6.484375 -7.359375 C -7.296875 -6.265625 -8.019531 -5.460938 -8.65625 -4.953125 C -9.300781 -4.453125 -9.988281 -4.117188 -10.71875 -3.953125 C -11.445312 -3.796875 -12.269531 -3.8125 -13.1875 -4 C -14.90625 -4.351562 -16.117188 -5.25 -16.828125 -6.6875 C -17.535156 -8.132812 -17.664062 -9.953125 -17.21875 -12.140625 C -16.820312 -14.066406 -15.976562 -15.945312 -14.6875 -17.78125 L -11.109375 -15.4375 C -12.253906 -13.863281 -12.957031 -12.441406 -13.21875 -11.171875 C -13.351562 -10.523438 -13.332031 -10.03125 -13.15625 -9.6875 C -12.988281 -9.34375 -12.738281 -9.132812 -12.40625 -9.0625 C -12.039062 -8.988281 -11.671875 -9.109375 -11.296875 -9.421875 C -10.929688 -9.742188 -10.195312 -10.664062 -9.09375 -12.1875 C -8.050781 -13.65625 -7.050781 -14.613281 -6.09375 -15.0625 C -5.132812 -15.507812 -4.03125 -15.609375 -2.78125 -15.359375 Z M -2.78125 -15.359375 "/></g></g></g><g fill="#ffffff" fill-opacity="1"><g transform="translate(104.28859, 167.11351)"><g><path d="M -10.75 -24.0625 L -0.140625 -19.75 C 2.160156 -18.8125 3.679688 -17.429688 4.421875 -15.609375 C 5.160156 -13.785156 5.03125 -11.644531 4.03125 -9.1875 C 3.050781 -6.78125 1.6875 -5.179688 -0.0625 -4.390625 C -1.820312 -3.609375 -3.859375 -3.6875 -6.171875 -4.625 L -16.890625 -8.984375 L -14.9375 -13.765625 L -4.59375 -9.5625 C -3.34375 -9.050781 -2.34375 -8.910156 -1.59375 -9.140625 C -0.84375 -9.378906 -0.285156 -9.953125 0.078125 -10.859375 C 0.484375 -11.835938 0.492188 -12.660156 0.109375 -13.328125 C -0.265625 -13.992188 -1.09375 -14.582031 -2.375 -15.09375 L -12.6875 -19.296875 Z M -10.75 -24.0625 "/></g></g></g><g fill="#ffffff" fill-opacity="1"><g transform="translate(111.277662, 150.080357)"><g><path d="M 2.984375 -15.3125 C 3.972656 -14.675781 4.691406 -13.859375 5.140625 -12.859375 C 5.585938 -11.867188 5.71875 -10.757812 5.53125 -9.53125 C 5.351562 -8.300781 4.851562 -7.050781 4.03125 -5.78125 C 3.34375 -4.71875 2.691406 -3.867188 2.078125 -3.234375 C 1.472656 -2.609375 0.734375 -2.023438 -0.140625 -1.484375 L -4 -3.96875 C -3.050781 -4.519531 -2.171875 -5.164062 -1.359375 -5.90625 C -0.554688 -6.644531 0.0820312 -7.382812 0.5625 -8.125 C 0.976562 -8.769531 1.171875 -9.3125 1.140625 -9.75 C 1.109375 -10.195312 0.914062 -10.535156 0.5625 -10.765625 C 0.34375 -10.910156 0.113281 -10.972656 -0.125 -10.953125 C -0.363281 -10.929688 -0.648438 -10.84375 -0.984375 -10.6875 C -1.316406 -10.53125 -2.113281 -10.039062 -3.375 -9.21875 C -4.519531 -8.488281 -5.484375 -8.003906 -6.265625 -7.765625 C -7.046875 -7.535156 -7.804688 -7.476562 -8.546875 -7.59375 C -9.285156 -7.707031 -10.050781 -8.019531 -10.84375 -8.53125 C -12.3125 -9.476562 -13.109375 -10.753906 -13.234375 -12.359375 C -13.367188 -13.960938 -12.835938 -15.703125 -11.640625 -17.578125 C -10.566406 -19.234375 -9.097656 -20.671875 -7.234375 -21.890625 L -4.75 -18.421875 C -6.394531 -17.367188 -7.566406 -16.296875 -8.265625 -15.203125 C -8.628906 -14.640625 -8.789062 -14.171875 -8.75 -13.796875 C -8.71875 -13.421875 -8.5625 -13.140625 -8.28125 -12.953125 C -7.957031 -12.742188 -7.566406 -12.722656 -7.109375 -12.890625 C -6.648438 -13.054688 -5.628906 -13.644531 -4.046875 -14.65625 C -2.554688 -15.644531 -1.28125 -16.175781 -0.21875 -16.25 C 0.832031 -16.320312 1.898438 -16.007812 2.984375 -15.3125 Z M 2.984375 -15.3125 "/></g></g></g><g fill="#ffffff" fill-opacity="1"><g transform="translate(118.655383, 138.364267)"><g><path d="M 7 -7.75 L 3.5625 -3.9375 L -7.4375 -13.875 L -10.5625 -10.421875 L -13.6875 -13.234375 L -4.015625 -23.9375 L -0.890625 -21.125 L -4 -17.6875 Z M 7 -7.75 "/></g></g></g><g fill="#ffffff" fill-opacity="1"><g transform="translate(127.825869, 127.727215)"><g><path d="M 10.90625 -8.34375 L 7.984375 -10.609375 L 3.078125 -6.84375 L 4.5 -3.4375 L 0 0 L -6.6875 -18.9375 L -1.234375 -23.109375 L 15.375 -11.765625 Z M 4.578125 -13.3125 L 2.03125 -15.28125 C 1.457031 -15.726562 0.726562 -16.300781 -0.15625 -17 C -1.039062 -17.707031 -1.660156 -18.226562 -2.015625 -18.5625 C -1.816406 -18.15625 -1.5 -17.476562 -1.0625 -16.53125 C -0.632812 -15.59375 0.171875 -13.695312 1.359375 -10.84375 Z M 4.578125 -13.3125 "/></g></g></g><g fill="#ffffff" fill-opacity="1"><g transform="translate(142.208343, 117.061844)"><g><path d="M 1.8125 -1 L -7.375 -17.671875 L -2.859375 -20.15625 L 6.328125 -3.484375 Z M 1.8125 -1 "/></g></g></g><g fill="#ffffff" fill-opacity="1"><g transform="translate(148.693457, 112.737692)"><g><path d="M 19.015625 -6.703125 L 12.671875 -4.46875 L 1.65625 -14.796875 L 1.546875 -14.75 C 2.398438 -12.832031 3.007812 -11.347656 3.375 -10.296875 L 6.234375 -2.203125 L 1.9375 -0.6875 L -4.390625 -18.640625 L 1.9375 -20.875 L 12.875 -10.703125 L 12.9375 -10.734375 C 12.1875 -12.492188 11.617188 -13.921875 11.234375 -15.015625 L 8.375 -23.140625 L 12.6875 -24.65625 Z M 19.015625 -6.703125 "/></g></g></g><g fill="#ffffff" fill-opacity="1"><g transform="translate(167.721014, 105.957228)"><g><path d="M 13.625 -1.671875 L 12.265625 -5.09375 L 6.125 -4.328125 L 5.609375 -0.6875 L 0 0 L 3.828125 -19.71875 L 10.640625 -20.5625 L 19.21875 -2.359375 Z M 10.6875 -9.140625 L 9.5 -12.15625 C 9.226562 -12.820312 8.882812 -13.679688 8.46875 -14.734375 C 8.0625 -15.796875 7.789062 -16.554688 7.65625 -17.015625 C 7.625 -16.578125 7.554688 -15.835938 7.453125 -14.796875 C 7.347656 -13.765625 7.082031 -11.71875 6.65625 -8.65625 Z M 10.6875 -9.140625 "/></g></g></g><g fill="#ffffff" fill-opacity="1"><g transform="translate(185.100342, 103.714198)"><g><path d="M 3.453125 -18.828125 L 10.0625 -18.359375 C 12.644531 -18.160156 14.53125 -17.628906 15.71875 -16.765625 C 16.90625 -15.910156 17.441406 -14.679688 17.328125 -13.078125 C 17.242188 -12.003906 16.898438 -11.109375 16.296875 -10.390625 C 15.703125 -9.679688 14.957031 -9.25 14.0625 -9.09375 L 14.046875 -8.96875 C 15.191406 -8.570312 16.003906 -7.988281 16.484375 -7.21875 C 16.960938 -6.457031 17.160156 -5.5 17.078125 -4.34375 C 16.953125 -2.613281 16.207031 -1.300781 14.84375 -0.40625 C 13.476562 0.488281 11.675781 0.851562 9.4375 0.6875 L 2.0625 0.15625 Z M 8.046875 -11.171875 L 9.59375 -11.0625 C 10.320312 -11.007812 10.894531 -11.117188 11.3125 -11.390625 C 11.738281 -11.671875 11.972656 -12.109375 12.015625 -12.703125 C 12.085938 -13.765625 11.320312 -14.351562 9.71875 -14.46875 L 8.28125 -14.5625 Z M 7.765625 -7.421875 L 7.46875 -3.421875 L 9.25 -3.296875 C 10.863281 -3.179688 11.722656 -3.800781 11.828125 -5.15625 C 11.867188 -5.789062 11.6875 -6.289062 11.28125 -6.65625 C 10.875 -7.03125 10.265625 -7.25 9.453125 -7.3125 Z M 7.765625 -7.421875 "/></g></g></g><g fill="#ffffff" fill-opacity="1"><g transform="translate(201.363075, 104.861017)"><g><path d="M 2 0.5 L 6.65625 -17.953125 L 11.640625 -16.6875 L 8 -2.265625 L 15.109375 -0.46875 L 14.09375 3.5625 Z M 2 0.5 "/></g></g></g><g fill="#ffffff" fill-opacity="1"><g transform="translate(214.974749, 108.213784)"><g><path d="M 12.28125 5.265625 L 1.890625 0.8125 L 9.390625 -16.6875 L 19.78125 -12.234375 L 18.15625 -8.4375 L 12.5 -10.859375 L 11.3125 -8.09375 L 16.546875 -5.859375 L 14.921875 -2.078125 L 9.6875 -4.3125 L 8.28125 -1 L 13.9375 1.421875 Z M 12.28125 5.265625 "/></g></g></g><g fill="#ffffff" fill-opacity="1"><g transform="translate(227.355141, 113.68895)"><g/></g></g><g fill="#ffffff" fill-opacity="1"><g transform="translate(232.568221, 116.298519)"><g><path d="M 15.109375 3.9375 C 14.410156 4.882812 13.546875 5.546875 12.515625 5.921875 C 11.492188 6.304688 10.375 6.367188 9.15625 6.109375 C 7.945312 5.859375 6.734375 5.285156 5.515625 4.390625 C 4.492188 3.640625 3.6875 2.9375 3.09375 2.28125 C 2.507812 1.625 1.976562 0.84375 1.5 -0.0625 L 4.203125 -3.75 C 4.703125 -2.769531 5.296875 -1.851562 5.984375 -1 C 6.671875 -0.144531 7.367188 0.546875 8.078125 1.078125 C 8.703125 1.523438 9.234375 1.75 9.671875 1.75 C 10.117188 1.75 10.46875 1.578125 10.71875 1.234375 C 10.863281 1.023438 10.929688 0.796875 10.921875 0.546875 C 10.921875 0.304688 10.851562 0.0195312 10.71875 -0.3125 C 10.59375 -0.65625 10.15625 -1.488281 9.40625 -2.8125 C 8.75 -4 8.328125 -4.984375 8.140625 -5.765625 C 7.953125 -6.554688 7.9375 -7.320312 8.09375 -8.0625 C 8.257812 -8.800781 8.625 -9.546875 9.1875 -10.296875 C 10.21875 -11.710938 11.535156 -12.4375 13.140625 -12.46875 C 14.742188 -12.5 16.445312 -11.851562 18.25 -10.53125 C 19.832031 -9.363281 21.1875 -7.804688 22.3125 -5.859375 L 18.671875 -3.59375 C 17.734375 -5.3125 16.742188 -6.550781 15.703125 -7.3125 C 15.160156 -7.707031 14.695312 -7.898438 14.3125 -7.890625 C 13.925781 -7.878906 13.628906 -7.734375 13.421875 -7.453125 C 13.203125 -7.148438 13.160156 -6.765625 13.296875 -6.296875 C 13.429688 -5.828125 13.957031 -4.773438 14.875 -3.140625 C 15.757812 -1.585938 16.207031 -0.28125 16.21875 0.78125 C 16.238281 1.851562 15.867188 2.90625 15.109375 3.9375 Z M 15.109375 3.9375 "/></g></g></g><g fill="#ffffff" fill-opacity="1"><g transform="translate(243.800626, 124.138237)"><g><path d="M 9.421875 10 L 11.375 6.875 L 7.125 2.375 L 3.875 4.109375 L 0 0 L 18.15625 -8.59375 L 22.859375 -3.609375 L 13.28125 14.09375 Z M 13.703125 3.203125 L 15.421875 0.453125 C 15.796875 -0.160156 16.285156 -0.941406 16.890625 -1.890625 C 17.503906 -2.847656 17.957031 -3.519531 18.25 -3.90625 C 17.875 -3.664062 17.238281 -3.28125 16.34375 -2.75 C 15.445312 -2.21875 13.640625 -1.222656 10.921875 0.234375 Z M 13.703125 3.203125 "/></g></g></g><g fill="#ffffff" fill-opacity="1"><g transform="translate(255.905306, 136.779333)"><g><path d="M 22.890625 0.734375 L 25.9375 5.609375 L 6.5 10.40625 L 3.28125 5.265625 L 16.140625 -10.078125 L 19.203125 -5.171875 L 12.40625 2.140625 C 10.863281 3.722656 9.742188 4.757812 9.046875 5.25 C 9.609375 4.976562 10.320312 4.675781 11.1875 4.34375 C 12.050781 4.019531 12.738281 3.78125 13.25 3.625 Z M 22.890625 0.734375 "/></g></g></g><g fill="#ffffff" fill-opacity="1"><g transform="translate(264.807972, 151.081614)"><g><path d="M 5.015625 12.375 L 0.78125 1.90625 L 18.421875 -5.25 L 22.65625 5.21875 L 18.828125 6.78125 L 16.515625 1.078125 L 13.734375 2.203125 L 15.875 7.484375 L 12.0625 9.03125 L 9.921875 3.75 L 6.578125 5.09375 L 8.890625 10.796875 Z M 5.015625 12.375 "/></g></g></g><g fill="#ffffff" fill-opacity="1"><g transform="translate(269.963349, 163.054444)"><g><path d="M 8.296875 5.5625 L 1.53125 7.03125 L 0.4375 2.015625 L 19.03125 -2.03125 L 20.359375 4.0625 C 21.460938 9.101562 20.179688 12.019531 16.515625 12.8125 C 14.359375 13.28125 12.46875 12.597656 10.84375 10.765625 L 3.90625 17.9375 L 2.671875 12.25 L 8.578125 6.84375 Z M 12.078125 4.734375 L 12.28125 5.671875 C 12.664062 7.429688 13.632812 8.140625 15.1875 7.796875 C 16.46875 7.523438 16.921875 6.53125 16.546875 4.8125 L 16.328125 3.8125 Z M 12.078125 4.734375 "/></g></g></g><g fill="#ffffff" fill-opacity="1"><g transform="translate(129.845059, 267.86134)"><g><path d="M 9.125 6.0625 L 0.5 0.328125 L 1.90625 -1.796875 L 6.734375 -2.796875 C 8.148438 -3.117188 9.09375 -3.347656 9.5625 -3.484375 C 10.03125 -3.628906 10.390625 -3.785156 10.640625 -3.953125 C 10.890625 -4.117188 11.097656 -4.328125 11.265625 -4.578125 C 11.472656 -4.878906 11.53125 -5.1875 11.4375 -5.5 C 11.351562 -5.8125 11.128906 -6.085938 10.765625 -6.328125 C 10.398438 -6.578125 9.953125 -6.722656 9.421875 -6.765625 C 8.890625 -6.804688 8.253906 -6.773438 7.515625 -6.671875 L 7.109375 -9.9375 C 8.085938 -10.0625 8.859375 -10.101562 9.421875 -10.0625 C 9.992188 -10.019531 10.566406 -9.898438 11.140625 -9.703125 C 11.722656 -9.503906 12.320312 -9.195312 12.9375 -8.78125 C 13.707031 -8.269531 14.304688 -7.675781 14.734375 -7 C 15.160156 -6.332031 15.375 -5.640625 15.375 -4.921875 C 15.375 -4.203125 15.164062 -3.53125 14.75 -2.90625 C 14.4375 -2.4375 14.085938 -2.039062 13.703125 -1.71875 C 13.328125 -1.40625 12.890625 -1.140625 12.390625 -0.921875 C 11.898438 -0.703125 11.3125 -0.507812 10.625 -0.34375 C 9.9375 -0.1875 8.546875 0.0390625 6.453125 0.34375 L 6.40625 0.421875 L 10.890625 3.40625 Z M 9.125 6.0625 "/></g></g></g><g fill="#ffffff" fill-opacity="1"><g transform="translate(140.372053, 274.77524)"><g><path d="M 13.03125 -1.578125 C 11.914062 0.703125 10.71875 2.1875 9.4375 2.875 C 8.164062 3.5625 6.742188 3.519531 5.171875 2.75 C 3.640625 2.007812 2.753906 0.898438 2.515625 -0.578125 C 2.273438 -2.066406 2.6875 -3.90625 3.75 -6.09375 C 4.863281 -8.363281 6.0625 -9.847656 7.34375 -10.546875 C 8.632812 -11.242188 10.0625 -11.210938 11.625 -10.453125 C 13.144531 -9.703125 14.023438 -8.582031 14.265625 -7.09375 C 14.515625 -5.601562 14.101562 -3.765625 13.03125 -1.578125 Z M 7.21875 -4.40625 C 6.507812 -2.957031 6.109375 -1.914062 6.015625 -1.28125 C 5.929688 -0.644531 6.101562 -0.222656 6.53125 -0.015625 C 6.957031 0.203125 7.394531 0.0703125 7.84375 -0.40625 C 8.300781 -0.882812 8.878906 -1.835938 9.578125 -3.265625 C 10.273438 -4.679688 10.671875 -5.710938 10.765625 -6.359375 C 10.859375 -7.015625 10.691406 -7.453125 10.265625 -7.671875 C 9.835938 -7.878906 9.398438 -7.75 8.953125 -7.28125 C 8.503906 -6.820312 7.925781 -5.863281 7.21875 -4.40625 Z M 7.21875 -4.40625 "/></g></g></g><g fill="#ffffff" fill-opacity="1"><g transform="translate(151.716, 280.246541)"><g><path d="M 12.703125 -3.28125 C 11.898438 -0.875 10.910156 0.75 9.734375 1.59375 C 8.566406 2.445312 7.15625 2.597656 5.5 2.046875 C 3.875 1.503906 2.847656 0.515625 2.421875 -0.921875 C 1.992188 -2.367188 2.160156 -4.242188 2.921875 -6.546875 C 3.722656 -8.941406 4.710938 -10.566406 5.890625 -11.421875 C 7.078125 -12.273438 8.5 -12.425781 10.15625 -11.875 C 11.757812 -11.34375 12.78125 -10.351562 13.21875 -8.90625 C 13.65625 -7.457031 13.484375 -5.582031 12.703125 -3.28125 Z M 6.5625 -5.328125 C 6.050781 -3.796875 5.789062 -2.707031 5.78125 -2.0625 C 5.78125 -1.425781 6.007812 -1.03125 6.46875 -0.875 C 6.914062 -0.726562 7.332031 -0.914062 7.71875 -1.4375 C 8.101562 -1.96875 8.546875 -2.988281 9.046875 -4.5 C 9.554688 -6 9.816406 -7.078125 9.828125 -7.734375 C 9.835938 -8.390625 9.617188 -8.789062 9.171875 -8.9375 C 8.710938 -9.09375 8.289062 -8.910156 7.90625 -8.390625 C 7.53125 -7.878906 7.082031 -6.859375 6.5625 -5.328125 Z M 6.5625 -5.328125 "/></g></g></g><g fill="#ffffff" fill-opacity="1"><g transform="translate(163.476512, 283.977927)"><g/></g></g><g fill="#ffffff" fill-opacity="1"><g transform="translate(169.158924, 285.448606)"><g><path d="M 13.046875 -8.15625 C 12.847656 -6.570312 12.222656 -5.40625 11.171875 -4.65625 C 10.117188 -3.914062 8.738281 -3.65625 7.03125 -3.875 L 5.953125 -4.015625 L 5.359375 0.6875 L 1.53125 0.203125 L 3.34375 -13.96875 L 8.25 -13.34375 C 10.03125 -13.125 11.320312 -12.566406 12.125 -11.671875 C 12.925781 -10.773438 13.234375 -9.601562 13.046875 -8.15625 Z M 6.359375 -7.125 L 7.0625 -7.03125 C 7.625 -6.96875 8.097656 -7.070312 8.484375 -7.34375 C 8.867188 -7.625 9.097656 -8.050781 9.171875 -8.625 C 9.285156 -9.570312 8.8125 -10.113281 7.75 -10.25 L 6.765625 -10.375 Z M 6.359375 -7.125 "/></g></g></g><g fill="#ffffff" fill-opacity="1"><g transform="translate(182.766668, 287.231308)"><g><path d="M 14.65625 -7.65625 C 14.726562 -5.257812 14.195312 -3.410156 13.0625 -2.109375 C 11.9375 -0.816406 10.234375 -0.132812 7.953125 -0.0625 C 5.710938 0.0078125 3.972656 -0.5625 2.734375 -1.78125 C 1.503906 -3 0.851562 -4.804688 0.78125 -7.203125 C 0.695312 -9.585938 1.226562 -11.421875 2.375 -12.703125 C 3.519531 -13.992188 5.226562 -14.675781 7.5 -14.75 C 9.769531 -14.832031 11.507812 -14.269531 12.71875 -13.0625 C 13.925781 -11.863281 14.570312 -10.0625 14.65625 -7.65625 Z M 4.84375 -7.328125 C 4.9375 -4.566406 5.941406 -3.21875 7.859375 -3.28125 C 8.835938 -3.3125 9.550781 -3.671875 10 -4.359375 C 10.445312 -5.046875 10.648438 -6.097656 10.609375 -7.515625 C 10.554688 -8.941406 10.28125 -9.988281 9.78125 -10.65625 C 9.28125 -11.320312 8.554688 -11.640625 7.609375 -11.609375 C 5.671875 -11.546875 4.75 -10.117188 4.84375 -7.328125 Z M 4.84375 -7.328125 "/></g></g></g><g fill="#ffffff" fill-opacity="1"><g transform="translate(199.517708, 286.324057)"><g><path d="M 1.53125 -0.25 L -0.78125 -14.34375 L 3.03125 -14.96875 L 5.34375 -0.875 Z M 1.53125 -0.25 "/></g></g></g><g fill="#ffffff" fill-opacity="1"><g transform="translate(207.326402, 285.311852)"><g><path d="M 14.484375 -4.40625 L 9.640625 -2.9375 L 1.734375 -11.03125 L 1.65625 -11.015625 C 2.226562 -9.546875 2.632812 -8.410156 2.875 -7.609375 L 4.75 -1.453125 L 1.484375 -0.453125 L -2.671875 -14.109375 L 2.140625 -15.5625 L 10 -7.59375 L 10.0625 -7.625 C 9.5625 -8.96875 9.179688 -10.054688 8.921875 -10.890625 L 7.046875 -17.0625 L 10.328125 -18.0625 Z M 14.484375 -4.40625 "/></g></g></g><g fill="#ffffff" fill-opacity="1"><g transform="translate(224.213434, 279.882469)"><g><path d="M 7.046875 -3.453125 L 3.578125 -1.75 L -1.3125 -11.734375 L -4.4375 -10.203125 L -5.828125 -13.046875 L 3.875 -17.796875 L 5.265625 -14.953125 L 2.15625 -13.4375 Z M 7.046875 -3.453125 "/></g></g></g><g fill="#ffffff" fill-opacity="1"><g transform="translate(235.579712, 274.243417)"><g><path d="M 6.65625 -9.640625 C 7.144531 -8.898438 7.390625 -8.117188 7.390625 -7.296875 C 7.398438 -6.484375 7.160156 -5.679688 6.671875 -4.890625 C 6.179688 -4.097656 5.457031 -3.382812 4.5 -2.75 C 3.71875 -2.226562 3.019531 -1.84375 2.40625 -1.59375 C 1.789062 -1.351562 1.101562 -1.175781 0.34375 -1.0625 L -1.5625 -3.9375 C -0.738281 -4.03125 0.0546875 -4.207031 0.828125 -4.46875 C 1.609375 -4.726562 2.28125 -5.046875 2.84375 -5.421875 C 3.3125 -5.734375 3.601562 -6.046875 3.71875 -6.359375 C 3.832031 -6.671875 3.800781 -6.957031 3.625 -7.21875 C 3.519531 -7.382812 3.378906 -7.5 3.203125 -7.5625 C 3.035156 -7.625 2.8125 -7.648438 2.53125 -7.640625 C 2.25 -7.628906 1.554688 -7.53125 0.453125 -7.34375 C -0.566406 -7.1875 -1.378906 -7.144531 -1.984375 -7.21875 C -2.585938 -7.300781 -3.125 -7.492188 -3.59375 -7.796875 C -4.070312 -8.097656 -4.503906 -8.539062 -4.890625 -9.125 C -5.617188 -10.226562 -5.785156 -11.347656 -5.390625 -12.484375 C -5.003906 -13.617188 -4.113281 -14.648438 -2.71875 -15.578125 C -1.488281 -16.398438 -0.046875 -16.945312 1.609375 -17.21875 L 2.28125 -14.109375 C 0.832031 -13.867188 -0.300781 -13.476562 -1.125 -12.9375 C -1.539062 -12.65625 -1.789062 -12.382812 -1.875 -12.125 C -1.96875 -11.863281 -1.941406 -11.625 -1.796875 -11.40625 C -1.648438 -11.164062 -1.394531 -11.03125 -1.03125 -11 C -0.664062 -10.96875 0.210938 -11.066406 1.609375 -11.296875 C 2.941406 -11.515625 3.984375 -11.488281 4.734375 -11.21875 C 5.484375 -10.957031 6.125 -10.429688 6.65625 -9.640625 Z M 6.65625 -9.640625 "/></g></g></g></svg>