<svg xmlns="http://www.w3.org/2000/svg" xmlns:xlink="http://www.w3.org/1999/xlink" width="500" zoomAndPan="magnify" viewBox="0 0 375 374.999991" height="500" preserveAspectRatio="xMidYMid meet" version="1.0"><defs><g/><clipPath id="03e4c6d98d"><path d="M 64.464844 64.464844 L 310.535156 64.464844 L 310.535156 310.535156 L 64.464844 310.535156 Z M 64.464844 64.464844 " clip-rule="nonzero"/></clipPath><clipPath id="f427341b57"><path d="M 187.5 64.464844 C 119.550781 64.464844 64.464844 119.550781 64.464844 187.5 C 64.464844 255.449219 119.550781 310.535156 187.5 310.535156 C 255.449219 310.535156 310.535156 255.449219 310.535156 187.5 C 310.535156 119.550781 255.449219 64.464844 187.5 64.464844 Z M 187.5 64.464844 " clip-rule="nonzero"/></clipPath><clipPath id="c917a97687"><path d="M 74.519531 74.519531 L 309.242188 74.519531 L 309.242188 309.242188 L 74.519531 309.242188 Z M 74.519531 74.519531 " clip-rule="nonzero"/></clipPath><clipPath id="d59b2a031f"><path d="M 191.882812 74.519531 C 127.066406 74.519531 74.519531 127.066406 74.519531 191.882812 C 74.519531 256.695312 127.066406 309.242188 191.882812 309.242188 C 256.695312 309.242188 309.242188 256.695312 309.242188 191.882812 C 309.242188 127.066406 256.695312 74.519531 191.882812 74.519531 Z M 191.882812 74.519531 " clip-rule="nonzero"/></clipPath><clipPath id="0083dd565d"><path d="M 74.519531 74.519531 L 300.480469 74.519531 L 300.480469 300.480469 L 74.519531 300.480469 Z M 74.519531 74.519531 " clip-rule="nonzero"/></clipPath><clipPath id="118feb4b8f"><path d="M 187.5 74.519531 C 125.105469 74.519531 74.519531 125.105469 74.519531 187.5 C 74.519531 249.894531 125.105469 300.480469 187.5 300.480469 C 249.894531 300.480469 300.480469 249.894531 300.480469 187.5 C 300.480469 125.105469 249.894531 74.519531 187.5 74.519531 Z M 187.5 74.519531 " clip-rule="nonzero"/></clipPath><clipPath id="41b7b590ac"><path d="M 117.078125 117.078125 L 257.921875 117.078125 L 257.921875 257.921875 L 117.078125 257.921875 Z M 117.078125 117.078125 " clip-rule="nonzero"/></clipPath><clipPath id="84825c3566"><path d="M 187.5 117.078125 C 148.605469 117.078125 117.078125 148.605469 117.078125 187.5 C 117.078125 226.394531 148.605469 257.921875 187.5 257.921875 C 226.394531 257.921875 257.921875 226.394531 257.921875 187.5 C 257.921875 148.605469 226.394531 117.078125 187.5 117.078125 Z M 187.5 117.078125 " clip-rule="nonzero"/></clipPath><clipPath id="88a9da0b8b"><path d="M 91.960938 182.507812 L 102.460938 182.507812 L 102.460938 192.257812 L 91.960938 192.257812 Z M 91.960938 182.507812 " clip-rule="nonzero"/></clipPath><clipPath id="20886b1b64"><path d="M 272.277344 182.507812 L 282.777344 182.507812 L 282.777344 192.257812 L 272.277344 192.257812 Z M 272.277344 182.507812 " clip-rule="nonzero"/></clipPath><clipPath id="556684c45f"><path d="M 143.480469 209 L 240.230469 209 L 240.230469 234.421875 L 143.480469 234.421875 Z M 143.480469 209 " clip-rule="nonzero"/></clipPath><clipPath id="fa9b65dc10"><path d="M 146 140.671875 L 238 140.671875 L 238 201 L 146 201 Z M 146 140.671875 " clip-rule="nonzero"/></clipPath></defs><g clip-path="url(#03e4c6d98d)"><g clip-path="url(#f427341b57)"><path fill="#ffbc66" d="M 64.464844 64.464844 L 310.535156 64.464844 L 310.535156 310.535156 L 64.464844 310.535156 Z M 64.464844 64.464844 " fill-opacity="1" fill-rule="nonzero"/></g></g><g clip-path="url(#c917a97687)"><g clip-path="url(#d59b2a031f)"><path fill="#ffffff" d="M 74.519531 74.519531 L 309.242188 74.519531 L 309.242188 309.242188 L 74.519531 309.242188 Z M 74.519531 74.519531 " fill-opacity="1" fill-rule="nonzero"/></g></g><g clip-path="url(#0083dd565d)"><g clip-path="url(#118feb4b8f)"><path fill="#013044" d="M 74.519531 74.519531 L 300.480469 74.519531 L 300.480469 300.480469 L 74.519531 300.480469 Z M 74.519531 74.519531 " fill-opacity="1" fill-rule="nonzero"/></g></g><g clip-path="url(#41b7b590ac)"><g clip-path="url(#84825c3566)"><path fill="#ffffff" d="M 117.078125 117.078125 L 257.921875 117.078125 L 257.921875 257.921875 L 117.078125 257.921875 Z M 117.078125 117.078125 " fill-opacity="1" fill-rule="nonzero"/></g></g><g clip-path="url(#88a9da0b8b)"><path fill="#ffffff" d="M 97.339844 192.246094 L 102.71875 187.496094 L 97.339844 182.742188 L 91.960938 187.496094 L 97.339844 192.246094 " fill-opacity="1" fill-rule="evenodd"/></g><g clip-path="url(#20886b1b64)"><path fill="#ffffff" d="M 277.65625 192.246094 L 283.035156 187.496094 L 277.65625 182.742188 L 272.277344 187.496094 L 277.65625 192.246094 " fill-opacity="1" fill-rule="evenodd"/></g><g clip-path="url(#556684c45f)"><path fill="#000000" d="M 232.78125 231.296875 C 228.777344 224.578125 226.21875 217.125 225.167969 209.421875 L 199.117188 209.421875 C 198.300781 215.367188 196.578125 221.203125 194 226.609375 L 196.003906 231.296875 L 192.609375 231.296875 L 188.734375 222.246094 C 186.960938 218.09375 185.707031 213.804688 184.9375 209.421875 L 158.210938 209.421875 C 157.445312 213.804688 156.1875 218.09375 154.414062 222.246094 L 150.539062 231.296875 L 143.496094 231.296875 L 143.496094 234.421875 L 240.214844 234.421875 L 240.214844 231.296875 L 232.78125 231.296875 " fill-opacity="1" fill-rule="nonzero"/></g><path fill="#000000" d="M 199.460938 206.296875 L 224.820312 206.296875 C 224.738281 205.257812 224.664062 204.214844 224.640625 203.171875 L 199.628906 203.171875 C 199.605469 204.214844 199.546875 205.257812 199.460938 206.296875 " fill-opacity="1" fill-rule="nonzero"/><path fill="#000000" d="M 159.09375 196.921875 L 159.09375 199.40625 C 159.09375 199.621094 159.082031 199.832031 159.078125 200.046875 L 184.074219 200.046875 C 184.066406 199.832031 184.054688 199.621094 184.054688 199.40625 L 184.054688 196.921875 L 159.09375 196.921875 " fill-opacity="1" fill-rule="nonzero"/><path fill="#000000" d="M 158.675781 206.296875 L 184.476562 206.296875 C 184.355469 205.257812 184.257812 204.214844 184.1875 203.171875 L 158.960938 203.171875 C 158.894531 204.214844 158.796875 205.257812 158.675781 206.296875 " fill-opacity="1" fill-rule="nonzero"/><g clip-path="url(#fa9b65dc10)"><path fill="#000000" d="M 163.777344 151.609375 L 163.777344 154.734375 C 162.058594 154.734375 160.65625 156.136719 160.65625 157.859375 L 157.535156 157.859375 C 157.535156 154.410156 160.332031 151.609375 163.777344 151.609375 Z M 173.136719 159.421875 C 173.136719 155.972656 175.933594 153.171875 179.375 153.171875 C 182.816406 153.171875 185.617188 155.972656 185.617188 159.421875 L 182.496094 159.421875 C 182.496094 157.699219 181.09375 156.296875 179.375 156.296875 C 177.65625 156.296875 176.253906 157.699219 176.253906 159.421875 L 176.253906 165.671875 C 176.253906 167.394531 177.65625 168.796875 179.375 168.796875 C 181.09375 168.796875 182.496094 167.394531 182.496094 165.671875 L 185.617188 165.671875 C 185.617188 169.121094 182.816406 171.921875 179.375 171.921875 C 175.933594 171.921875 173.136719 169.121094 173.136719 165.671875 Z M 188.734375 159.421875 C 188.734375 155.972656 191.53125 153.171875 194.976562 153.171875 C 198.417969 153.171875 201.214844 155.972656 201.214844 159.421875 L 201.214844 165.671875 C 201.214844 169.121094 198.417969 171.921875 194.976562 171.921875 C 191.53125 171.921875 188.734375 169.121094 188.734375 165.671875 Z M 204.335938 174.398438 L 210.117188 168.609375 C 210.410156 168.316406 210.574219 167.917969 210.574219 167.503906 L 210.574219 167.234375 C 210.574219 166.375 209.875 165.671875 209.015625 165.671875 C 208.15625 165.671875 207.457031 166.375 207.457031 167.234375 L 207.457031 168.796875 L 204.335938 168.796875 L 204.335938 167.234375 C 204.335938 164.648438 206.429688 162.546875 209.015625 162.546875 C 211.597656 162.546875 213.695312 164.648438 213.695312 167.234375 L 213.695312 167.503906 C 213.695312 168.753906 213.207031 169.933594 212.324219 170.816406 L 208.101562 175.046875 L 212.136719 175.046875 L 212.136719 178.171875 L 204.335938 178.171875 Z M 205.894531 143.796875 C 209.339844 143.796875 212.136719 146.597656 212.136719 150.046875 L 209.015625 150.046875 C 209.015625 148.324219 207.613281 146.921875 205.894531 146.921875 Z M 152.855469 171.921875 C 152.800781 171.917969 152.898438 171.910156 152.996094 171.902344 L 154.933594 171.878906 L 154.542969 173.785156 C 154.421875 174.382812 154.386719 175 154.441406 175.613281 C 154.71875 178.800781 157.589844 181.296875 160.980469 181.296875 L 162.214844 181.296875 C 164.800781 181.296875 166.894531 183.398438 166.894531 185.984375 L 166.894531 193.796875 L 176.253906 193.796875 L 176.253906 189.109375 C 176.253906 186.523438 178.351562 184.421875 180.933594 184.421875 L 188.734375 184.421875 C 193.898438 184.421875 198.09375 180.21875 198.09375 175.046875 L 201.214844 175.046875 C 201.214844 180.941406 197.121094 185.882812 191.628906 187.191406 C 193.054688 189.324219 195.457031 190.671875 198.09375 190.671875 L 202.773438 190.671875 C 205.359375 190.671875 207.457031 192.773438 207.457031 195.359375 L 207.457031 200.046875 L 216.816406 200.046875 L 216.816406 195.359375 C 216.816406 192.773438 218.910156 190.671875 221.496094 190.671875 L 225.832031 190.671875 C 230.082031 190.671875 233.644531 187.503906 233.949219 183.464844 C 234.089844 181.65625 233.621094 179.925781 232.605469 178.441406 L 231.519531 176.867188 L 233.28125 176.121094 C 235.597656 175.140625 237.09375 172.875 237.09375 170.359375 C 237.09375 168.101562 235.84375 166.007812 233.828125 164.902344 L 232.519531 164.1875 L 233.175781 162.847656 C 233.945312 161.265625 234.164062 159.515625 233.804688 157.785156 C 233.214844 154.953125 230.941406 152.574219 228.148438 151.859375 C 226.503906 151.445312 224.882812 151.542969 223.324219 152.160156 L 222.214844 152.59375 L 221.5 151.640625 C 220.226562 149.925781 218.289062 148.800781 216.1875 148.546875 L 215.164062 148.421875 L 214.878906 147.429688 C 213.726562 143.449219 210.03125 140.671875 205.894531 140.671875 C 202.011719 140.671875 198.59375 143.015625 197.179688 146.648438 L 196.621094 148.09375 L 195.175781 147.539062 C 193.011719 146.722656 190.699219 146.722656 188.535156 147.539062 L 187.089844 148.09375 L 186.53125 146.648438 C 185.117188 143.015625 181.695312 140.671875 177.816406 140.671875 C 173.476562 140.671875 169.742188 143.625 168.722656 147.851562 L 168.328125 149.496094 L 166.71875 148.96875 C 165.757812 148.644531 164.769531 148.484375 163.777344 148.484375 C 158.613281 148.484375 154.414062 152.691406 154.414062 157.859375 L 154.414062 159.421875 L 152.855469 159.421875 C 149.414062 159.421875 146.617188 162.222656 146.617188 165.671875 C 146.617188 169.121094 149.414062 171.921875 152.855469 171.921875 " fill-opacity="1" fill-rule="nonzero"/></g><path fill="#000000" d="M 194.976562 168.796875 C 196.695312 168.796875 198.09375 167.394531 198.09375 165.671875 L 198.09375 159.421875 C 198.09375 157.699219 196.695312 156.296875 194.976562 156.296875 C 193.257812 156.296875 191.855469 157.699219 191.855469 159.421875 L 191.855469 165.671875 C 191.855469 167.394531 193.257812 168.796875 194.976562 168.796875 " fill-opacity="1" fill-rule="nonzero"/><g fill="#ffffff" fill-opacity="1"><g transform="translate(107.496705, 157.471271)"><g><path d="M -8.375 -16.375 C -8.945312 -15.289062 -8.953125 -14.210938 -8.390625 -13.140625 C -7.835938 -12.066406 -6.78125 -11.113281 -5.21875 -10.28125 C -1.988281 -8.5625 0.28125 -8.929688 1.59375 -11.390625 C 1.988281 -12.140625 2.269531 -12.914062 2.4375 -13.71875 C 2.601562 -14.53125 2.722656 -15.363281 2.796875 -16.21875 L 6.640625 -14.1875 C 6.515625 -12.457031 5.984375 -10.703125 5.046875 -8.921875 C 3.703125 -6.390625 1.9375 -4.835938 -0.25 -4.265625 C -2.445312 -3.703125 -4.9375 -4.160156 -7.71875 -5.640625 C -9.457031 -6.566406 -10.8125 -7.703125 -11.78125 -9.046875 C -12.757812 -10.398438 -13.273438 -11.878906 -13.328125 -13.484375 C -13.378906 -15.085938 -12.960938 -16.722656 -12.078125 -18.390625 C -11.117188 -20.210938 -9.804688 -21.742188 -8.140625 -22.984375 L -5.296875 -19.6875 C -5.910156 -19.207031 -6.484375 -18.710938 -7.015625 -18.203125 C -7.546875 -17.691406 -8 -17.082031 -8.375 -16.375 Z M -8.375 -16.375 "/></g></g></g><g fill="#ffffff" fill-opacity="1"><g transform="translate(114.53384, 143.642763)"><g><path d="M 8.625 -10.6875 L 5.28125 -12.1875 L 1.390625 -7.375 L 3.546875 -4.40625 L 0 0 L -10.96875 -16.84375 L -6.65625 -22.171875 L 12.171875 -15.0625 Z M 1.328125 -14.015625 L -1.625 -15.34375 C -2.289062 -15.632812 -3.132812 -16.015625 -4.15625 -16.484375 C -5.1875 -16.960938 -5.914062 -17.316406 -6.34375 -17.546875 C -6.050781 -17.210938 -5.582031 -16.632812 -4.9375 -15.8125 C -4.300781 -15 -3.0625 -13.347656 -1.21875 -10.859375 Z M 1.328125 -14.015625 "/></g></g></g><g fill="#ffffff" fill-opacity="1"><g transform="translate(125.4542, 129.9416)"><g><path d="M 1.09375 -9.9375 L 5.53125 -4.625 L 1.578125 -1.328125 L -10.625 -15.9375 L -5.84375 -19.921875 C -1.875 -23.234375 1.3125 -23.445312 3.71875 -20.5625 C 5.132812 -18.875 5.40625 -16.878906 4.53125 -14.578125 L 14.09375 -11.765625 L 9.609375 -8.03125 L 2.078125 -10.765625 Z M -1.390625 -12.90625 L -0.65625 -13.515625 C 0.71875 -14.671875 0.894531 -15.859375 -0.125 -17.078125 C -0.957031 -18.085938 -2.046875 -18.023438 -3.390625 -16.890625 L -4.171875 -16.25 Z M -1.390625 -12.90625 "/></g></g></g><g fill="#ffffff" fill-opacity="1"><g transform="translate(137.8386, 119.381715)"><g><path d="M -7.46875 -17.625 L -1.671875 -20.859375 C 0.585938 -22.117188 2.453125 -22.710938 3.921875 -22.640625 C 5.390625 -22.578125 6.519531 -21.835938 7.3125 -20.421875 C 7.832031 -19.484375 8.035156 -18.550781 7.921875 -17.625 C 7.804688 -16.707031 7.421875 -15.9375 6.765625 -15.3125 L 6.828125 -15.203125 C 8.003906 -15.503906 9 -15.46875 9.8125 -15.09375 C 10.632812 -14.71875 11.328125 -14.023438 11.890625 -13.015625 C 12.734375 -11.503906 12.828125 -9.992188 12.171875 -8.484375 C 11.523438 -6.984375 10.222656 -5.691406 8.265625 -4.609375 L 1.796875 -1 Z M 0.59375 -13.75 L 1.9375 -14.5 C 2.582031 -14.863281 3.003906 -15.273438 3.203125 -15.734375 C 3.410156 -16.191406 3.375 -16.679688 3.09375 -17.203125 C 2.570312 -18.140625 1.601562 -18.21875 0.1875 -17.4375 L -1.0625 -16.734375 Z M 2.421875 -10.46875 L 4.359375 -6.96875 L 5.921875 -7.84375 C 7.335938 -8.632812 7.71875 -9.617188 7.0625 -10.796875 C 6.75 -11.359375 6.320312 -11.679688 5.78125 -11.765625 C 5.238281 -11.847656 4.613281 -11.691406 3.90625 -11.296875 Z M 2.421875 -10.46875 "/></g></g></g><g fill="#ffffff" fill-opacity="1"><g transform="translate(151.701681, 111.246459)"><g><path d="M 16.09375 -15.046875 C 17.050781 -11.984375 17.03125 -9.421875 16.03125 -7.359375 C 15.039062 -5.304688 13.097656 -3.828125 10.203125 -2.921875 C 7.347656 -2.023438 4.910156 -2.140625 2.890625 -3.265625 C 0.878906 -4.390625 -0.601562 -6.476562 -1.5625 -9.53125 C -2.507812 -12.550781 -2.476562 -15.09375 -1.46875 -17.15625 C -0.457031 -19.226562 1.488281 -20.71875 4.375 -21.625 C 7.257812 -22.519531 9.691406 -22.410156 11.671875 -21.296875 C 13.660156 -20.191406 15.132812 -18.109375 16.09375 -15.046875 Z M 3.59375 -11.125 C 4.695312 -7.601562 6.472656 -6.226562 8.921875 -7 C 10.160156 -7.382812 10.945312 -8.097656 11.28125 -9.140625 C 11.625 -10.179688 11.507812 -11.609375 10.9375 -13.421875 C 10.375 -15.234375 9.648438 -16.476562 8.765625 -17.15625 C 7.878906 -17.832031 6.835938 -17.984375 5.640625 -17.609375 C 3.171875 -16.828125 2.488281 -14.664062 3.59375 -11.125 Z M 3.59375 -11.125 "/></g></g></g><g fill="#ffffff" fill-opacity="1"><g transform="translate(169.890062, 105.241824)"><g><path d="M 20.109375 -1.546875 L 13.390625 -1.03125 L 5.4375 -13.859375 L 5.3125 -13.84375 C 5.644531 -11.757812 5.851562 -10.160156 5.9375 -9.046875 L 6.59375 -0.5 L 2.0625 -0.15625 L 0.609375 -19.125 L 7.28125 -19.640625 L 15.21875 -7 L 15.296875 -7 C 15.015625 -8.894531 14.832031 -10.421875 14.75 -11.578125 L 14.09375 -20.15625 L 18.65625 -20.515625 Z M 20.109375 -1.546875 "/></g></g></g><g fill="#ffffff" fill-opacity="1"><g transform="translate(190.603869, 104.12372)"><g/></g></g><g fill="#ffffff" fill-opacity="1"><g transform="translate(196.352928, 104.153904)"><g><path d="M 13.34375 -12.65625 C 12.144531 -12.894531 11.109375 -12.59375 10.234375 -11.75 C 9.359375 -10.914062 8.742188 -9.640625 8.390625 -7.921875 C 7.660156 -4.328125 8.660156 -2.25 11.390625 -1.6875 C 12.210938 -1.519531 13.035156 -1.46875 13.859375 -1.53125 C 14.679688 -1.601562 15.515625 -1.722656 16.359375 -1.890625 L 15.484375 2.359375 C 13.796875 2.734375 11.96875 2.722656 10 2.328125 C 7.1875 1.742188 5.195312 0.484375 4.03125 -1.453125 C 2.863281 -3.398438 2.597656 -5.921875 3.234375 -9.015625 C 3.628906 -10.941406 4.335938 -12.554688 5.359375 -13.859375 C 6.378906 -15.171875 7.648438 -16.078125 9.171875 -16.578125 C 10.703125 -17.085938 12.390625 -17.15625 14.234375 -16.78125 C 16.253906 -16.363281 18.097656 -15.535156 19.765625 -14.296875 L 17.40625 -10.640625 C 16.769531 -11.097656 16.128906 -11.503906 15.484375 -11.859375 C 14.847656 -12.222656 14.132812 -12.488281 13.34375 -12.65625 Z M 13.34375 -12.65625 "/></g></g></g><g fill="#ffffff" fill-opacity="1"><g transform="translate(211.582512, 106.946513)"><g><path d="M 24.1875 -10.484375 L 19.75 0.078125 C 18.78125 2.367188 17.378906 3.875 15.546875 4.59375 C 13.710938 5.3125 11.570312 5.15625 9.125 4.125 C 6.726562 3.125 5.144531 1.742188 4.375 -0.015625 C 3.613281 -1.785156 3.71875 -3.820312 4.6875 -6.125 L 9.171875 -16.796875 L 13.9375 -14.78125 L 9.609375 -4.484375 C 9.085938 -3.242188 8.941406 -2.242188 9.171875 -1.484375 C 9.398438 -0.734375 9.96875 -0.171875 10.875 0.203125 C 11.84375 0.609375 12.660156 0.625 13.328125 0.25 C 13.992188 -0.113281 14.597656 -0.929688 15.140625 -2.203125 L 19.453125 -12.46875 Z M 24.1875 -10.484375 "/></g></g></g><g fill="#ffffff" fill-opacity="1"><g transform="translate(228.524831, 114.107404)"><g><path d="M 8.71875 5.78125 L 4.421875 2.9375 L 12.609375 -9.421875 L 8.734375 -12 L 11.0625 -15.5 L 23.078125 -7.53125 L 20.75 -4.03125 L 16.90625 -6.578125 Z M 8.71875 5.78125 "/></g></g></g><g fill="#ffffff" fill-opacity="1"><g transform="translate(240.426495, 121.838896)"><g><path d="M 7.65625 7.125 L 3.890625 3.625 L 14 -7.234375 L 10.59375 -10.40625 L 13.453125 -13.484375 L 24 -3.671875 L 21.140625 -0.59375 L 17.765625 -3.734375 Z M 7.65625 7.125 "/></g></g></g><g fill="#ffffff" fill-opacity="1"><g transform="translate(250.902574, 131.484686)"><g><path d="M 8.21875 10.53125 L 1.265625 1.625 L 16.265625 -10.078125 L 23.21875 -1.171875 L 19.96875 1.359375 L 16.1875 -3.5 L 13.828125 -1.65625 L 17.328125 2.84375 L 14.078125 5.390625 L 10.578125 0.890625 L 7.734375 3.09375 L 11.515625 7.953125 Z M 8.21875 10.53125 "/></g></g></g><g fill="#ffffff" fill-opacity="1"><g transform="translate(259.140267, 141.58667)"><g><path d="M 9.5 3.078125 L 3.40625 6.34375 L 0.96875 1.8125 L 17.734375 -7.171875 L 20.6875 -1.671875 C 23.125 2.878906 22.691406 6.039062 19.390625 7.8125 C 17.441406 8.851562 15.4375 8.710938 13.375 7.390625 L 8.671875 16.1875 L 5.921875 11.046875 L 10.109375 4.21875 Z M 12.921875 1.25 L 13.375 2.09375 C 14.21875 3.6875 15.335938 4.109375 16.734375 3.359375 C 17.890625 2.734375 18.054688 1.644531 17.234375 0.09375 L 16.75 -0.8125 Z M 12.921875 1.25 "/></g></g></g><g fill="#ffffff" fill-opacity="1"><g transform="translate(129.845059, 267.86134)"><g><path d="M 11.046875 4.015625 L 9.734375 3.140625 L 8.203125 5.4375 L 5.03125 3.328125 L 6.5625 1.03125 L 1.8125 -2.109375 L 3.375 -4.46875 L 13.125 -8.4375 L 16.09375 -6.46875 L 11.328125 0.734375 L 12.640625 1.609375 Z M 8.15625 -1.375 L 9.078125 -2.765625 C 9.242188 -3.023438 9.484375 -3.363281 9.796875 -3.78125 C 10.109375 -4.207031 10.28125 -4.429688 10.3125 -4.453125 L 10.21875 -4.515625 C 9.75 -4.222656 9.28125 -3.972656 8.8125 -3.765625 L 6.203125 -2.671875 Z M 8.15625 -1.375 "/></g></g></g><g fill="#ffffff" fill-opacity="1"><g transform="translate(140.372053, 274.77524)"><g><path d="M 13.03125 -1.578125 C 11.914062 0.703125 10.71875 2.1875 9.4375 2.875 C 8.164062 3.5625 6.742188 3.519531 5.171875 2.75 C 3.640625 2.007812 2.753906 0.898438 2.515625 -0.578125 C 2.273438 -2.066406 2.6875 -3.90625 3.75 -6.09375 C 4.863281 -8.363281 6.0625 -9.847656 7.34375 -10.546875 C 8.632812 -11.242188 10.0625 -11.210938 11.625 -10.453125 C 13.144531 -9.703125 14.023438 -8.582031 14.265625 -7.09375 C 14.515625 -5.601562 14.101562 -3.765625 13.03125 -1.578125 Z M 7.21875 -4.40625 C 6.507812 -2.957031 6.109375 -1.914062 6.015625 -1.28125 C 5.929688 -0.644531 6.101562 -0.222656 6.53125 -0.015625 C 6.957031 0.203125 7.394531 0.0703125 7.84375 -0.40625 C 8.300781 -0.882812 8.878906 -1.835938 9.578125 -3.265625 C 10.273438 -4.679688 10.671875 -5.710938 10.765625 -6.359375 C 10.859375 -7.015625 10.691406 -7.453125 10.265625 -7.671875 C 9.835938 -7.878906 9.398438 -7.75 8.953125 -7.28125 C 8.503906 -6.820312 7.925781 -5.863281 7.21875 -4.40625 Z M 7.21875 -4.40625 "/></g></g></g><g fill="#ffffff" fill-opacity="1"><g transform="translate(151.716, 280.246541)"><g><path d="M 12.703125 -3.28125 C 11.898438 -0.875 10.910156 0.75 9.734375 1.59375 C 8.566406 2.445312 7.15625 2.597656 5.5 2.046875 C 3.875 1.503906 2.847656 0.515625 2.421875 -0.921875 C 1.992188 -2.367188 2.160156 -4.242188 2.921875 -6.546875 C 3.722656 -8.941406 4.710938 -10.566406 5.890625 -11.421875 C 7.078125 -12.273438 8.5 -12.425781 10.15625 -11.875 C 11.757812 -11.34375 12.78125 -10.351562 13.21875 -8.90625 C 13.65625 -7.457031 13.484375 -5.582031 12.703125 -3.28125 Z M 6.5625 -5.328125 C 6.050781 -3.796875 5.789062 -2.707031 5.78125 -2.0625 C 5.78125 -1.425781 6.007812 -1.03125 6.46875 -0.875 C 6.914062 -0.726562 7.332031 -0.914062 7.71875 -1.4375 C 8.101562 -1.96875 8.546875 -2.988281 9.046875 -4.5 C 9.554688 -6 9.816406 -7.078125 9.828125 -7.734375 C 9.835938 -8.390625 9.617188 -8.789062 9.171875 -8.9375 C 8.710938 -9.09375 8.289062 -8.910156 7.90625 -8.390625 C 7.53125 -7.878906 7.082031 -6.859375 6.5625 -5.328125 Z M 6.5625 -5.328125 "/></g></g></g><g fill="#ffffff" fill-opacity="1"><g transform="translate(163.476512, 283.977927)"><g/></g></g><g fill="#ffffff" fill-opacity="1"><g transform="translate(169.158924, 285.448606)"><g><path d="M 13.046875 -8.15625 C 12.847656 -6.570312 12.222656 -5.40625 11.171875 -4.65625 C 10.117188 -3.914062 8.738281 -3.65625 7.03125 -3.875 L 5.953125 -4.015625 L 5.359375 0.6875 L 1.53125 0.203125 L 3.34375 -13.96875 L 8.25 -13.34375 C 10.03125 -13.125 11.320312 -12.566406 12.125 -11.671875 C 12.925781 -10.773438 13.234375 -9.601562 13.046875 -8.15625 Z M 6.359375 -7.125 L 7.0625 -7.03125 C 7.625 -6.96875 8.097656 -7.070312 8.484375 -7.34375 C 8.867188 -7.625 9.097656 -8.050781 9.171875 -8.625 C 9.285156 -9.570312 8.8125 -10.113281 7.75 -10.25 L 6.765625 -10.375 Z M 6.359375 -7.125 "/></g></g></g><g fill="#ffffff" fill-opacity="1"><g transform="translate(182.766668, 287.231423)"><g><path d="M 14.65625 -7.65625 C 14.726562 -5.257812 14.195312 -3.410156 13.0625 -2.109375 C 11.9375 -0.816406 10.234375 -0.132812 7.953125 -0.0625 C 5.710938 0.0078125 3.972656 -0.5625 2.734375 -1.78125 C 1.503906 -3 0.851562 -4.804688 0.78125 -7.203125 C 0.695312 -9.585938 1.226562 -11.421875 2.375 -12.703125 C 3.519531 -13.992188 5.226562 -14.675781 7.5 -14.75 C 9.769531 -14.832031 11.507812 -14.269531 12.71875 -13.0625 C 13.925781 -11.863281 14.570312 -10.0625 14.65625 -7.65625 Z M 4.84375 -7.328125 C 4.9375 -4.566406 5.941406 -3.21875 7.859375 -3.28125 C 8.835938 -3.3125 9.550781 -3.671875 10 -4.359375 C 10.445312 -5.046875 10.648438 -6.097656 10.609375 -7.515625 C 10.554688 -8.941406 10.28125 -9.988281 9.78125 -10.65625 C 9.28125 -11.320312 8.554688 -11.640625 7.609375 -11.609375 C 5.671875 -11.546875 4.75 -10.117188 4.84375 -7.328125 Z M 4.84375 -7.328125 "/></g></g></g><g fill="#ffffff" fill-opacity="1"><g transform="translate(199.517708, 286.324057)"><g><path d="M 1.53125 -0.25 L -0.78125 -14.34375 L 3.03125 -14.96875 L 5.34375 -0.875 Z M 1.53125 -0.25 "/></g></g></g><g fill="#ffffff" fill-opacity="1"><g transform="translate(207.326402, 285.31197)"><g><path d="M 14.484375 -4.40625 L 9.640625 -2.9375 L 1.734375 -11.03125 L 1.65625 -11.015625 C 2.226562 -9.546875 2.632812 -8.410156 2.875 -7.609375 L 4.75 -1.453125 L 1.484375 -0.453125 L -2.671875 -14.109375 L 2.140625 -15.5625 L 10 -7.59375 L 10.0625 -7.625 C 9.5625 -8.96875 9.179688 -10.054688 8.921875 -10.890625 L 7.046875 -17.0625 L 10.328125 -18.0625 Z M 14.484375 -4.40625 "/></g></g></g><g fill="#ffffff" fill-opacity="1"><g transform="translate(224.213434, 279.882469)"><g><path d="M 7.046875 -3.453125 L 3.578125 -1.75 L -1.3125 -11.734375 L -4.4375 -10.203125 L -5.828125 -13.046875 L 3.875 -17.796875 L 5.265625 -14.953125 L 2.15625 -13.4375 Z M 7.046875 -3.453125 "/></g></g></g><g fill="#ffffff" fill-opacity="1"><g transform="translate(235.579712, 274.243417)"><g><path d="M 6.65625 -9.640625 C 7.144531 -8.898438 7.390625 -8.117188 7.390625 -7.296875 C 7.398438 -6.484375 7.160156 -5.679688 6.671875 -4.890625 C 6.179688 -4.097656 5.457031 -3.382812 4.5 -2.75 C 3.71875 -2.226562 3.019531 -1.84375 2.40625 -1.59375 C 1.789062 -1.351562 1.101562 -1.175781 0.34375 -1.0625 L -1.5625 -3.9375 C -0.738281 -4.03125 0.0546875 -4.207031 0.828125 -4.46875 C 1.609375 -4.726562 2.28125 -5.046875 2.84375 -5.421875 C 3.3125 -5.734375 3.601562 -6.046875 3.71875 -6.359375 C 3.832031 -6.671875 3.800781 -6.957031 3.625 -7.21875 C 3.519531 -7.382812 3.378906 -7.5 3.203125 -7.5625 C 3.035156 -7.625 2.8125 -7.648438 2.53125 -7.640625 C 2.25 -7.628906 1.554688 -7.53125 0.453125 -7.34375 C -0.566406 -7.1875 -1.378906 -7.144531 -1.984375 -7.21875 C -2.585938 -7.300781 -3.125 -7.492188 -3.59375 -7.796875 C -4.070312 -8.097656 -4.503906 -8.539062 -4.890625 -9.125 C -5.617188 -10.226562 -5.785156 -11.347656 -5.390625 -12.484375 C -5.003906 -13.617188 -4.113281 -14.648438 -2.71875 -15.578125 C -1.488281 -16.398438 -0.046875 -16.945312 1.609375 -17.21875 L 2.28125 -14.109375 C 0.832031 -13.867188 -0.300781 -13.476562 -1.125 -12.9375 C -1.539062 -12.65625 -1.789062 -12.382812 -1.875 -12.125 C -1.96875 -11.863281 -1.941406 -11.625 -1.796875 -11.40625 C -1.648438 -11.164062 -1.394531 -11.03125 -1.03125 -11 C -0.664062 -10.96875 0.210938 -11.066406 1.609375 -11.296875 C 2.941406 -11.515625 3.984375 -11.488281 4.734375 -11.21875 C 5.484375 -10.957031 6.125 -10.429688 6.65625 -9.640625 Z M 6.65625 -9.640625 "/></g></g></g></svg>