<svg xmlns="http://www.w3.org/2000/svg" xmlns:xlink="http://www.w3.org/1999/xlink" width="500" zoomAndPan="magnify" viewBox="0 0 375 374.999991" height="500" preserveAspectRatio="xMidYMid meet" version="1.0"><defs><g/><clipPath id="64d311dae1"><path d="M 64.464844 64.464844 L 310.535156 64.464844 L 310.535156 310.535156 L 64.464844 310.535156 Z M 64.464844 64.464844 " clip-rule="nonzero"/></clipPath><clipPath id="2bc8378a9d"><path d="M 187.5 64.464844 C 119.550781 64.464844 64.464844 119.550781 64.464844 187.5 C 64.464844 255.449219 119.550781 310.535156 187.5 310.535156 C 255.449219 310.535156 310.535156 255.449219 310.535156 187.5 C 310.535156 119.550781 255.449219 64.464844 187.5 64.464844 Z M 187.5 64.464844 " clip-rule="nonzero"/></clipPath><clipPath id="6e9d7c2ff0"><path d="M 74.519531 74.519531 L 309.242188 74.519531 L 309.242188 309.242188 L 74.519531 309.242188 Z M 74.519531 74.519531 " clip-rule="nonzero"/></clipPath><clipPath id="36d2b19eef"><path d="M 191.882812 74.519531 C 127.066406 74.519531 74.519531 127.066406 74.519531 191.882812 C 74.519531 256.695312 127.066406 309.242188 191.882812 309.242188 C 256.695312 309.242188 309.242188 256.695312 309.242188 191.882812 C 309.242188 127.066406 256.695312 74.519531 191.882812 74.519531 Z M 191.882812 74.519531 " clip-rule="nonzero"/></clipPath><clipPath id="a6c8af5f6a"><path d="M 74.519531 74.519531 L 300.480469 74.519531 L 300.480469 300.480469 L 74.519531 300.480469 Z M 74.519531 74.519531 " clip-rule="nonzero"/></clipPath><clipPath id="e8e5e95310"><path d="M 187.5 74.519531 C 125.105469 74.519531 74.519531 125.105469 74.519531 187.5 C 74.519531 249.894531 125.105469 300.480469 187.5 300.480469 C 249.894531 300.480469 300.480469 249.894531 300.480469 187.5 C 300.480469 125.105469 249.894531 74.519531 187.5 74.519531 Z M 187.5 74.519531 " clip-rule="nonzero"/></clipPath><clipPath id="ac44e31f66"><path d="M 117.078125 117.078125 L 257.921875 117.078125 L 257.921875 257.921875 L 117.078125 257.921875 Z M 117.078125 117.078125 " clip-rule="nonzero"/></clipPath><clipPath id="4409895ee7"><path d="M 187.5 117.078125 C 148.605469 117.078125 117.078125 148.605469 117.078125 187.5 C 117.078125 226.394531 148.605469 257.921875 187.5 257.921875 C 226.394531 257.921875 257.921875 226.394531 257.921875 187.5 C 257.921875 148.605469 226.394531 117.078125 187.5 117.078125 Z M 187.5 117.078125 " clip-rule="nonzero"/></clipPath><clipPath id="7c6c3140ce"><path d="M 91.960938 182.507812 L 102.460938 182.507812 L 102.460938 192.257812 L 91.960938 192.257812 Z M 91.960938 182.507812 " clip-rule="nonzero"/></clipPath><clipPath id="ec5ebbf4bb"><path d="M 272.277344 182.507812 L 282.777344 182.507812 L 282.777344 192.257812 L 272.277344 192.257812 Z M 272.277344 182.507812 " clip-rule="nonzero"/></clipPath><clipPath id="d88ee61ba7"><path d="M 161 138.277344 L 229 138.277344 L 229 179 L 161 179 Z M 161 138.277344 " clip-rule="nonzero"/></clipPath><clipPath id="1670163eb5"><path d="M 179 173.675781 L 236.441406 173.675781 L 236.441406 236.515625 L 179 236.515625 Z M 179 173.675781 " clip-rule="nonzero"/></clipPath><clipPath id="615bd7122f"><path d="M 138.277344 165 L 178 165 L 178 230 L 138.277344 230 Z M 138.277344 165 " clip-rule="nonzero"/></clipPath></defs><g clip-path="url(#64d311dae1)"><g clip-path="url(#2bc8378a9d)"><path fill="#ffbc66" d="M 64.464844 64.464844 L 310.535156 64.464844 L 310.535156 310.535156 L 64.464844 310.535156 Z M 64.464844 64.464844 " fill-opacity="1" fill-rule="nonzero"/></g></g><g clip-path="url(#6e9d7c2ff0)"><g clip-path="url(#36d2b19eef)"><path fill="#ffffff" d="M 74.519531 74.519531 L 309.242188 74.519531 L 309.242188 309.242188 L 74.519531 309.242188 Z M 74.519531 74.519531 " fill-opacity="1" fill-rule="nonzero"/></g></g><g clip-path="url(#a6c8af5f6a)"><g clip-path="url(#e8e5e95310)"><path fill="#013044" d="M 74.519531 74.519531 L 300.480469 74.519531 L 300.480469 300.480469 L 74.519531 300.480469 Z M 74.519531 74.519531 " fill-opacity="1" fill-rule="nonzero"/></g></g><g clip-path="url(#ac44e31f66)"><g clip-path="url(#4409895ee7)"><path fill="#ffffff" d="M 117.078125 117.078125 L 257.921875 117.078125 L 257.921875 257.921875 L 117.078125 257.921875 Z M 117.078125 117.078125 " fill-opacity="1" fill-rule="nonzero"/></g></g><g clip-path="url(#7c6c3140ce)"><path fill="#ffffff" d="M 97.339844 192.246094 L 102.71875 187.496094 L 97.339844 182.742188 L 91.960938 187.496094 L 97.339844 192.246094 " fill-opacity="1" fill-rule="evenodd"/></g><g clip-path="url(#ec5ebbf4bb)"><path fill="#ffffff" d="M 277.65625 192.246094 L 283.035156 187.496094 L 277.65625 182.742188 L 272.277344 187.496094 L 277.65625 192.246094 " fill-opacity="1" fill-rule="evenodd"/></g><g clip-path="url(#d88ee61ba7)"><path fill="#000000" d="M 213.972656 174.953125 L 195.640625 172.796875 L 199.660156 170.246094 C 200.445312 169.753906 200.640625 168.773438 200.246094 167.988281 L 186.8125 141.710938 L 203.675781 141.710938 C 206.523438 141.710938 209.167969 143.378906 210.445312 145.929688 L 216.816406 157.203125 C 217.210938 157.988281 218.191406 158.285156 218.972656 157.890625 L 223.09375 155.734375 Z M 180.242188 162.992188 L 165.144531 153.085938 L 169.359375 145.929688 C 170.832031 143.378906 173.574219 141.710938 176.515625 141.710938 L 183.183594 141.710938 L 187.207031 150.144531 Z M 227.308594 150.339844 C 226.820312 150.144531 226.328125 150.144531 225.835938 150.339844 L 218.875 154.066406 L 213.289062 144.261719 C 211.425781 140.632812 207.699219 138.277344 203.675781 138.378906 L 176.515625 138.378906 C 172.496094 138.378906 168.671875 140.632812 166.613281 144.160156 L 161.515625 152.695312 C 161.027344 153.476562 161.316406 154.558594 162.007812 155.046875 L 179.949219 166.8125 C 180.242188 167.007812 180.539062 167.109375 180.832031 167.109375 C 180.929688 167.109375 181.128906 167.109375 181.222656 167.007812 C 181.617188 166.914062 182.007812 166.617188 182.203125 166.222656 L 189.066406 153.476562 L 196.621094 168.183594 L 189.757812 172.402344 C 189.167969 172.796875 188.871094 173.480469 188.96875 174.167969 C 189.167969 174.855469 189.65625 175.445312 190.34375 175.445312 L 214.660156 178.285156 C 214.761719 178.285156 214.761719 178.285156 214.855469 178.285156 C 215.441406 178.285156 216.03125 177.894531 216.328125 177.304688 L 228 152.496094 C 228.488281 151.8125 228.09375 150.832031 227.308594 150.339844 " fill-opacity="1" fill-rule="nonzero"/></g><g clip-path="url(#1670163eb5)"><path fill="#000000" d="M 231.921875 196.035156 L 228.980469 200.9375 L 217.796875 200.9375 L 210.839844 188.089844 L 227.605469 177.894531 L 232.113281 187.304688 C 233.582031 190.050781 233.488281 193.386719 231.921875 196.035156 Z M 217.011719 222.117188 C 215.742188 224.765625 213.089844 226.429688 210.25 226.332031 L 197.207031 226.332031 C 196.320312 226.332031 195.539062 227.117188 195.539062 228 L 195.539062 229.765625 L 182.988281 212.898438 L 195.539062 198.585938 L 195.539062 202.703125 C 195.539062 203.683594 196.226562 204.371094 197.207031 204.371094 L 227.015625 204.371094 Z M 234.957031 185.738281 L 229.660156 174.855469 C 229.269531 173.972656 228.289062 173.679688 227.507812 174.070312 C 227.507812 174.070312 227.410156 174.070312 227.410156 174.167969 L 207.796875 186.035156 C 207.011719 186.425781 206.816406 187.40625 207.207031 188.191406 L 214.070312 200.9375 L 198.871094 200.9375 L 198.871094 194.171875 C 198.871094 193.191406 198.1875 192.503906 197.207031 192.503906 C 196.714844 192.503906 196.320312 192.703125 196.03125 193.09375 L 179.65625 211.722656 C 179.167969 212.3125 179.066406 213.195312 179.558594 213.878906 L 195.929688 235.847656 C 196.519531 236.628906 197.5 236.726562 198.1875 236.136719 C 198.582031 235.847656 198.773438 235.355469 198.773438 234.765625 L 198.773438 229.667969 L 210.25 229.667969 C 214.269531 229.765625 217.992188 227.511719 219.855469 223.785156 L 231.332031 203.488281 L 234.761719 197.800781 C 236.917969 194.074219 237.019531 189.464844 234.957031 185.738281 " fill-opacity="1" fill-rule="nonzero"/></g><g clip-path="url(#615bd7122f)"><path fill="#000000" d="M 168.476562 184.269531 C 167.691406 183.972656 166.910156 184.269531 166.515625 184.953125 L 152.398438 210.449219 L 144.746094 196.71875 C 143.375 194.074219 143.375 190.835938 144.847656 188.191406 L 150.925781 175.539062 C 151.316406 174.757812 151.023438 173.777344 150.335938 173.382812 L 145.238281 170.144531 L 165.144531 168.875 L 172.792969 186.035156 Z M 171.027344 206.035156 L 171.027344 226.332031 L 166.125 226.332031 C 163.082031 226.332031 160.242188 224.664062 158.769531 221.917969 L 154.257812 213.878906 L 158.867188 206.035156 Z M 177.402344 188.386719 L 167.59375 166.421875 C 167.300781 165.832031 166.710938 165.441406 166.023438 165.441406 L 139.945312 167.109375 C 139.058594 167.203125 138.375 167.988281 138.375 168.875 C 138.375 169.460938 138.667969 169.949219 139.160156 170.246094 L 147.199219 175.445312 L 141.804688 186.621094 C 139.84375 190.25 139.84375 194.757812 141.804688 198.386719 L 150.925781 214.664062 L 155.925781 223.589844 C 158.085938 227.3125 161.90625 229.667969 166.125 229.667969 L 172.695312 229.667969 C 173.574219 229.667969 174.359375 228.882812 174.359375 228 L 174.359375 204.269531 C 174.359375 203.289062 173.675781 202.605469 172.695312 202.605469 L 160.4375 202.605469 L 168.574219 187.996094 L 175.339844 190.640625 C 176.226562 190.9375 177.105469 190.542969 177.496094 189.660156 C 177.597656 189.269531 177.597656 188.78125 177.402344 188.386719 " fill-opacity="1" fill-rule="nonzero"/></g><g fill="#ffffff" fill-opacity="1"><g transform="translate(103.343176, 171.830245)"><g><path d="M 4.75 -14.890625 L 0.234375 -0.765625 L -2.78125 -1.734375 L -11.4375 -13.125 L -13.875 -5.453125 L -17.828125 -6.71875 L -13.453125 -20.453125 L -10.4375 -19.484375 L -1.78125 -8.09375 L 0.796875 -16.15625 Z M 4.75 -14.890625 "/></g></g></g><g fill="#ffffff" fill-opacity="1"><g transform="translate(107.765898, 157.76207)"><g><path d="M 6.046875 -11.90625 L 0.9375 -1.84375 L -16.03125 -10.453125 L -10.921875 -20.515625 L -7.25 -18.65625 L -10.03125 -13.171875 L -7.34375 -11.8125 L -4.765625 -16.890625 L -1.09375 -15.015625 L -3.671875 -9.9375 L -0.46875 -8.3125 L 2.3125 -13.796875 Z M 6.046875 -11.90625 "/></g></g></g><g fill="#ffffff" fill-opacity="1"><g transform="translate(113.411447, 146.012499)"><g><path d="M -1.25 -9.921875 L 4.296875 -5.78125 L 1.234375 -1.65625 L -14.03125 -13.03125 L -10.3125 -18.03125 C -7.21875 -22.175781 -4.164062 -23.128906 -1.15625 -20.890625 C 0.613281 -19.566406 1.335938 -17.679688 1.015625 -15.234375 L 10.96875 -14.71875 L 7.484375 -10.046875 L -0.46875 -10.953125 Z M -4.359375 -12.234375 L -3.78125 -13 C -2.707031 -14.4375 -2.804688 -15.628906 -4.078125 -16.578125 C -5.128906 -17.359375 -6.179688 -17.046875 -7.234375 -15.640625 L -7.84375 -14.828125 Z M -4.359375 -12.234375 "/></g></g></g><g fill="#ffffff" fill-opacity="1"><g transform="translate(122.768799, 132.852053)"><g><path d="M 8.53125 -20.3125 C 10.65625 -17.914062 11.679688 -15.570312 11.609375 -13.28125 C 11.546875 -11 10.378906 -8.847656 8.109375 -6.828125 C 5.867188 -4.847656 3.597656 -3.957031 1.296875 -4.15625 C -0.992188 -4.363281 -3.203125 -5.664062 -5.328125 -8.0625 C -7.429688 -10.425781 -8.441406 -12.757812 -8.359375 -15.0625 C -8.285156 -17.363281 -7.117188 -19.519531 -4.859375 -21.53125 C -2.597656 -23.53125 -0.335938 -24.425781 1.921875 -24.21875 C 4.191406 -24.019531 6.394531 -22.71875 8.53125 -20.3125 Z M -1.265625 -11.625 C 1.179688 -8.863281 3.363281 -8.332031 5.28125 -10.03125 C 6.257812 -10.894531 6.679688 -11.875 6.546875 -12.96875 C 6.421875 -14.0625 5.734375 -15.316406 4.484375 -16.734375 C 3.222656 -18.148438 2.050781 -18.984375 0.96875 -19.234375 C -0.113281 -19.492188 -1.125 -19.207031 -2.0625 -18.375 C -4 -16.65625 -3.734375 -14.40625 -1.265625 -11.625 Z M -1.265625 -11.625 "/></g></g></g><g fill="#ffffff" fill-opacity="1"><g transform="translate(137.864924, 120.030275)"><g/></g></g><g fill="#ffffff" fill-opacity="1"><g transform="translate(141.715386, 116.218128)"><g><path d="M 20.84375 -8.75 L 15.234375 -6.40625 L 10.34375 -13.34375 C 10.132812 -13.625 9.742188 -14.203125 9.171875 -15.078125 C 8.597656 -15.960938 8.140625 -16.707031 7.796875 -17.3125 C 7.941406 -16.78125 8.101562 -16.09375 8.28125 -15.25 C 8.46875 -14.414062 8.628906 -13.644531 8.765625 -12.9375 C 8.898438 -12.238281 9.414062 -9.367188 10.3125 -4.328125 L 4.703125 -1.984375 L -7 -17.703125 L -2.4375 -19.625 L 3.1875 -11.625 C 4.425781 -9.863281 5.367188 -8.441406 6.015625 -7.359375 C 5.773438 -8.210938 5.492188 -9.394531 5.171875 -10.90625 C 4.859375 -12.414062 4.625 -13.679688 4.46875 -14.703125 L 3.234375 -22 L 7.609375 -23.84375 L 11.921875 -17.828125 C 12.617188 -16.867188 13.390625 -15.75 14.234375 -14.46875 C 15.078125 -13.195312 15.691406 -12.234375 16.078125 -11.578125 C 15.804688 -12.515625 15.4375 -14.175781 14.96875 -16.5625 L 13.203125 -26.1875 L 17.796875 -28.125 Z M 20.84375 -8.75 "/></g></g></g><g fill="#ffffff" fill-opacity="1"><g transform="translate(165.209108, 106.598202)"><g><path d="M 13.578125 -2.078125 L 12.109375 -5.453125 L 5.984375 -4.515625 L 5.59375 -0.859375 L 0 0 L 3.234375 -19.828125 L 10.015625 -20.875 L 19.140625 -2.9375 Z M 10.421875 -9.46875 L 9.125 -12.4375 C 8.832031 -13.09375 8.46875 -13.941406 8.03125 -14.984375 C 7.59375 -16.035156 7.296875 -16.789062 7.140625 -17.25 C 7.128906 -16.8125 7.082031 -16.070312 7 -15.03125 C 6.925781 -13.988281 6.726562 -11.925781 6.40625 -8.84375 Z M 10.421875 -9.46875 "/></g></g></g><g fill="#ffffff" fill-opacity="1"><g transform="translate(182.63982, 103.951084)"><g><path d="M 14.671875 -5.359375 C 14.640625 -4.179688 14.304688 -3.140625 13.671875 -2.234375 C 13.046875 -1.335938 12.160156 -0.648438 11.015625 -0.171875 C 9.878906 0.296875 8.554688 0.507812 7.046875 0.46875 C 5.773438 0.4375 4.707031 0.316406 3.84375 0.109375 C 2.988281 -0.0859375 2.109375 -0.425781 1.203125 -0.90625 L 1.328125 -5.484375 C 2.296875 -4.953125 3.300781 -4.53125 4.34375 -4.21875 C 5.394531 -3.90625 6.363281 -3.738281 7.25 -3.71875 C 8.019531 -3.6875 8.585938 -3.796875 8.953125 -4.046875 C 9.316406 -4.304688 9.503906 -4.644531 9.515625 -5.0625 C 9.523438 -5.320312 9.457031 -5.550781 9.3125 -5.75 C 9.175781 -5.945312 8.953125 -6.148438 8.640625 -6.359375 C 8.335938 -6.566406 7.507812 -7 6.15625 -7.65625 C 4.925781 -8.257812 4.007812 -8.832031 3.40625 -9.375 C 2.800781 -9.925781 2.359375 -10.550781 2.078125 -11.25 C 1.796875 -11.945312 1.671875 -12.765625 1.703125 -13.703125 C 1.753906 -15.453125 2.429688 -16.789062 3.734375 -17.71875 C 5.035156 -18.65625 6.800781 -19.09375 9.03125 -19.03125 C 11 -18.976562 13 -18.46875 15.03125 -17.5 L 13.328125 -13.59375 C 11.566406 -14.457031 10.039062 -14.90625 8.75 -14.9375 C 8.082031 -14.957031 7.59375 -14.851562 7.28125 -14.625 C 6.976562 -14.40625 6.820312 -14.125 6.8125 -13.78125 C 6.800781 -13.40625 6.984375 -13.0625 7.359375 -12.75 C 7.734375 -12.445312 8.765625 -11.878906 10.453125 -11.046875 C 12.078125 -10.265625 13.191406 -9.441406 13.796875 -8.578125 C 14.410156 -7.710938 14.703125 -6.640625 14.671875 -5.359375 Z M 14.671875 -5.359375 "/></g></g></g><g fill="#ffffff" fill-opacity="1"><g transform="translate(196.483679, 104.215986)"><g><path d="M 10.265625 2 L 5.21875 1.015625 L 8.046875 -13.546875 L 3.46875 -14.4375 L 4.265625 -18.5625 L 18.421875 -15.8125 L 17.625 -11.6875 L 13.09375 -12.5625 Z M 10.265625 2 "/></g></g></g><g fill="#ffffff" fill-opacity="1"><g transform="translate(210.47784, 106.855672)"><g><path d="M 12.546875 4.578125 L 1.9375 0.703125 L 8.46875 -17.171875 L 19.078125 -13.296875 L 17.65625 -9.421875 L 11.875 -11.53125 L 10.859375 -8.71875 L 16.21875 -6.75 L 14.796875 -2.875 L 9.4375 -4.84375 L 8.203125 -1.46875 L 13.984375 0.640625 Z M 12.546875 4.578125 "/></g></g></g><g fill="#ffffff" fill-opacity="1"><g transform="translate(223.138042, 111.648375)"><g/></g></g><g fill="#ffffff" fill-opacity="1"><g transform="translate(228.405677, 113.6305)"><g><path d="M 15.09375 10.453125 L 10.859375 7.515625 L 15.265625 1.140625 L 10.34375 -2.265625 L 5.9375 4.109375 L 1.703125 1.171875 L 12.53125 -14.46875 L 16.765625 -11.53125 L 12.75 -5.734375 L 17.671875 -2.328125 L 21.6875 -8.125 L 25.921875 -5.1875 Z M 15.09375 10.453125 "/></g></g></g><g fill="#ffffff" fill-opacity="1"><g transform="translate(243.700215, 124.347841)"><g><path d="M 9.421875 9.46875 L 1.453125 1.46875 L 14.953125 -11.953125 L 22.921875 -3.953125 L 20 -1.03125 L 15.65625 -5.390625 L 13.53125 -3.28125 L 17.546875 0.765625 L 14.609375 3.671875 L 10.59375 -0.375 L 8.046875 2.15625 L 12.390625 6.515625 Z M 9.421875 9.46875 "/></g></g></g><g fill="#ffffff" fill-opacity="1"><g transform="translate(253.084109, 133.394442)"><g><path d="M 9.8125 1.921875 L 4.140625 5.890625 L 1.1875 1.6875 L 16.765625 -9.234375 L 20.34375 -4.125 C 23.3125 0.101562 23.257812 3.289062 20.1875 5.4375 C 18.382812 6.707031 16.375 6.804688 14.15625 5.734375 L 10.546875 15.03125 L 7.203125 10.265625 L 10.546875 2.984375 Z M 12.984375 -0.3125 L 13.53125 0.46875 C 14.5625 1.945312 15.722656 2.234375 17.015625 1.328125 C 18.085938 0.578125 18.117188 -0.515625 17.109375 -1.953125 L 16.53125 -2.796875 Z M 12.984375 -0.3125 "/></g></g></g><g fill="#ffffff" fill-opacity="1"><g transform="translate(262.649437, 146.404505)"><g><path d="M 16.625 14.453125 C 13.675781 15.722656 11.125 15.96875 8.96875 15.1875 C 6.820312 14.414062 5.148438 12.640625 3.953125 9.859375 C 2.765625 7.109375 2.625 4.671875 3.53125 2.546875 C 4.445312 0.421875 6.375 -1.269531 9.3125 -2.53125 C 12.21875 -3.78125 14.753906 -4.007812 16.921875 -3.21875 C 19.085938 -2.425781 20.765625 -0.644531 21.953125 2.125 C 23.148438 4.90625 23.296875 7.335938 22.390625 9.421875 C 21.492188 11.515625 19.570312 13.191406 16.625 14.453125 Z M 11.4375 2.4375 C 8.050781 3.894531 6.867188 5.800781 7.890625 8.15625 C 8.398438 9.34375 9.191406 10.050781 10.265625 10.28125 C 11.335938 10.507812 12.742188 10.25 14.484375 9.5 C 16.222656 8.75 17.378906 7.898438 17.953125 6.953125 C 18.535156 6.015625 18.578125 4.960938 18.078125 3.796875 C 17.054688 1.429688 14.84375 0.976562 11.4375 2.4375 Z M 11.4375 2.4375 "/></g></g></g><g fill="#ffffff" fill-opacity="1"><g transform="translate(270.095605, 164.757495)"><g/></g></g><g fill="#ffffff" fill-opacity="1"><g transform="translate(129.845059, 267.86134)"><g><path d="M 1.703125 1.125 L 11.890625 -5.390625 L 6.75 -8.796875 L 8.53125 -11.46875 L 17.109375 -5.78125 L 15.84375 -3.875 L 5.03125 3.328125 Z M 1.703125 1.125 "/></g></g></g><g fill="#ffffff" fill-opacity="1"><g transform="translate(140.372053, 274.775269)"><g><path d="M 13.03125 -1.578125 C 11.914062 0.703125 10.71875 2.1875 9.4375 2.875 C 8.164062 3.5625 6.742188 3.519531 5.171875 2.75 C 3.640625 2.007812 2.753906 0.898438 2.515625 -0.578125 C 2.273438 -2.066406 2.6875 -3.90625 3.75 -6.09375 C 4.863281 -8.363281 6.0625 -9.847656 7.34375 -10.546875 C 8.632812 -11.242188 10.0625 -11.210938 11.625 -10.453125 C 13.144531 -9.703125 14.023438 -8.582031 14.265625 -7.09375 C 14.515625 -5.601562 14.101562 -3.765625 13.03125 -1.578125 Z M 7.21875 -4.40625 C 6.507812 -2.957031 6.109375 -1.914062 6.015625 -1.28125 C 5.929688 -0.644531 6.101562 -0.222656 6.53125 -0.015625 C 6.957031 0.203125 7.394531 0.0703125 7.84375 -0.40625 C 8.300781 -0.882812 8.878906 -1.835938 9.578125 -3.265625 C 10.273438 -4.679688 10.671875 -5.710938 10.765625 -6.359375 C 10.859375 -7.015625 10.691406 -7.453125 10.265625 -7.671875 C 9.835938 -7.878906 9.398438 -7.75 8.953125 -7.28125 C 8.503906 -6.820312 7.925781 -5.863281 7.21875 -4.40625 Z M 7.21875 -4.40625 "/></g></g></g><g fill="#ffffff" fill-opacity="1"><g transform="translate(151.716, 280.246509)"><g><path d="M 12.703125 -3.28125 C 11.898438 -0.875 10.910156 0.75 9.734375 1.59375 C 8.566406 2.445312 7.15625 2.597656 5.5 2.046875 C 3.875 1.503906 2.847656 0.515625 2.421875 -0.921875 C 1.992188 -2.367188 2.160156 -4.242188 2.921875 -6.546875 C 3.722656 -8.941406 4.710938 -10.566406 5.890625 -11.421875 C 7.078125 -12.273438 8.5 -12.425781 10.15625 -11.875 C 11.757812 -11.34375 12.78125 -10.351562 13.21875 -8.90625 C 13.65625 -7.457031 13.484375 -5.582031 12.703125 -3.28125 Z M 6.5625 -5.328125 C 6.050781 -3.796875 5.789062 -2.707031 5.78125 -2.0625 C 5.78125 -1.425781 6.007812 -1.03125 6.46875 -0.875 C 6.914062 -0.726562 7.332031 -0.914062 7.71875 -1.4375 C 8.101562 -1.96875 8.546875 -2.988281 9.046875 -4.5 C 9.554688 -6 9.816406 -7.078125 9.828125 -7.734375 C 9.835938 -8.390625 9.617188 -8.789062 9.171875 -8.9375 C 8.710938 -9.09375 8.289062 -8.910156 7.90625 -8.390625 C 7.53125 -7.878906 7.082031 -6.859375 6.5625 -5.328125 Z M 6.5625 -5.328125 "/></g></g></g><g fill="#ffffff" fill-opacity="1"><g transform="translate(163.476512, 283.977984)"><g/></g></g><g fill="#ffffff" fill-opacity="1"><g transform="translate(169.158924, 285.448488)"><g><path d="M 13.046875 -8.15625 C 12.847656 -6.570312 12.222656 -5.40625 11.171875 -4.65625 C 10.117188 -3.914062 8.738281 -3.65625 7.03125 -3.875 L 5.953125 -4.015625 L 5.359375 0.6875 L 1.53125 0.203125 L 3.34375 -13.96875 L 8.25 -13.34375 C 10.03125 -13.125 11.320312 -12.566406 12.125 -11.671875 C 12.925781 -10.773438 13.234375 -9.601562 13.046875 -8.15625 Z M 6.359375 -7.125 L 7.0625 -7.03125 C 7.625 -6.96875 8.097656 -7.070312 8.484375 -7.34375 C 8.867188 -7.625 9.097656 -8.050781 9.171875 -8.625 C 9.285156 -9.570312 8.8125 -10.113281 7.75 -10.25 L 6.765625 -10.375 Z M 6.359375 -7.125 "/></g></g></g><g fill="#ffffff" fill-opacity="1"><g transform="translate(182.766668, 287.231276)"><g><path d="M 14.65625 -7.65625 C 14.726562 -5.257812 14.195312 -3.410156 13.0625 -2.109375 C 11.9375 -0.816406 10.234375 -0.132812 7.953125 -0.0625 C 5.710938 0.0078125 3.972656 -0.5625 2.734375 -1.78125 C 1.503906 -3 0.851562 -4.804688 0.78125 -7.203125 C 0.695312 -9.585938 1.226562 -11.421875 2.375 -12.703125 C 3.519531 -13.992188 5.226562 -14.675781 7.5 -14.75 C 9.769531 -14.832031 11.507812 -14.269531 12.71875 -13.0625 C 13.925781 -11.863281 14.570312 -10.0625 14.65625 -7.65625 Z M 4.84375 -7.328125 C 4.9375 -4.566406 5.941406 -3.21875 7.859375 -3.28125 C 8.835938 -3.3125 9.550781 -3.671875 10 -4.359375 C 10.445312 -5.046875 10.648438 -6.097656 10.609375 -7.515625 C 10.554688 -8.941406 10.28125 -9.988281 9.78125 -10.65625 C 9.28125 -11.320312 8.554688 -11.640625 7.609375 -11.609375 C 5.671875 -11.546875 4.75 -10.117188 4.84375 -7.328125 Z M 4.84375 -7.328125 "/></g></g></g><g fill="#ffffff" fill-opacity="1"><g transform="translate(199.517708, 286.324114)"><g><path d="M 1.53125 -0.25 L -0.78125 -14.34375 L 3.03125 -14.96875 L 5.34375 -0.875 Z M 1.53125 -0.25 "/></g></g></g><g fill="#ffffff" fill-opacity="1"><g transform="translate(207.326402, 285.311823)"><g><path d="M 14.484375 -4.40625 L 9.640625 -2.9375 L 1.734375 -11.03125 L 1.65625 -11.015625 C 2.226562 -9.546875 2.632812 -8.410156 2.875 -7.609375 L 4.75 -1.453125 L 1.484375 -0.453125 L -2.671875 -14.109375 L 2.140625 -15.5625 L 10 -7.59375 L 10.0625 -7.625 C 9.5625 -8.96875 9.179688 -10.054688 8.921875 -10.890625 L 7.046875 -17.0625 L 10.328125 -18.0625 Z M 14.484375 -4.40625 "/></g></g></g><g fill="#ffffff" fill-opacity="1"><g transform="translate(224.213434, 279.882469)"><g><path d="M 7.046875 -3.453125 L 3.578125 -1.75 L -1.3125 -11.734375 L -4.4375 -10.203125 L -5.828125 -13.046875 L 3.875 -17.796875 L 5.265625 -14.953125 L 2.15625 -13.4375 Z M 7.046875 -3.453125 "/></g></g></g><g fill="#ffffff" fill-opacity="1"><g transform="translate(235.579712, 274.243448)"><g><path d="M 6.65625 -9.640625 C 7.144531 -8.898438 7.390625 -8.117188 7.390625 -7.296875 C 7.398438 -6.484375 7.160156 -5.679688 6.671875 -4.890625 C 6.179688 -4.097656 5.457031 -3.382812 4.5 -2.75 C 3.71875 -2.226562 3.019531 -1.84375 2.40625 -1.59375 C 1.789062 -1.351562 1.101562 -1.175781 0.34375 -1.0625 L -1.5625 -3.9375 C -0.738281 -4.03125 0.0546875 -4.207031 0.828125 -4.46875 C 1.609375 -4.726562 2.28125 -5.046875 2.84375 -5.421875 C 3.3125 -5.734375 3.601562 -6.046875 3.71875 -6.359375 C 3.832031 -6.671875 3.800781 -6.957031 3.625 -7.21875 C 3.519531 -7.382812 3.378906 -7.5 3.203125 -7.5625 C 3.035156 -7.625 2.8125 -7.648438 2.53125 -7.640625 C 2.25 -7.628906 1.554688 -7.53125 0.453125 -7.34375 C -0.566406 -7.1875 -1.378906 -7.144531 -1.984375 -7.21875 C -2.585938 -7.300781 -3.125 -7.492188 -3.59375 -7.796875 C -4.070312 -8.097656 -4.503906 -8.539062 -4.890625 -9.125 C -5.617188 -10.226562 -5.785156 -11.347656 -5.390625 -12.484375 C -5.003906 -13.617188 -4.113281 -14.648438 -2.71875 -15.578125 C -1.488281 -16.398438 -0.046875 -16.945312 1.609375 -17.21875 L 2.28125 -14.109375 C 0.832031 -13.867188 -0.300781 -13.476562 -1.125 -12.9375 C -1.539062 -12.65625 -1.789062 -12.382812 -1.875 -12.125 C -1.96875 -11.863281 -1.941406 -11.625 -1.796875 -11.40625 C -1.648438 -11.164062 -1.394531 -11.03125 -1.03125 -11 C -0.664062 -10.96875 0.210938 -11.066406 1.609375 -11.296875 C 2.941406 -11.515625 3.984375 -11.488281 4.734375 -11.21875 C 5.484375 -10.957031 6.125 -10.429688 6.65625 -9.640625 Z M 6.65625 -9.640625 "/></g></g></g></svg>